<svg xmlns="http://www.w3.org/2000/svg" viewBox="0 0 400 400"><defs><style>.cls-1,.cls-2,.cls-3{fill:#34a3dc;}.cls-1{opacity:0.25;}.cls-1,.cls-3{isolation:isolate;}.cls-3{opacity:0.5;}.cls-4{fill:none;}</style></defs><title>docker-hourglass2</title><g id="Laag_2" data-name="Laag 2"><g id="Layer_1" data-name="Layer 1"><g id="availability"><path class="cls-1" d="M146.3,283.53H253.7c0-53.58-53.7-71.6-53.7-71.6s-53.7,18.38-53.7,71.6Z"/><path class="cls-2" d="M259.72,122v22.25c0,21.72-13.72,41.53-34.9,50.6L213,199.94,224.82,205c21.18,9.07,34.9,28.88,34.9,50.6v22.25H140.28V255.61c0-21.72,13.72-41.53,34.9-50.6l11.87-5.07-11.87-5.07c-21.18-9.07-34.9-28.88-34.9-50.6V122H259.72m5.91-5.55H134.37v27.86c0,24.76,15.75,46.06,38.36,55.67-22.67,9.67-38.36,31-38.36,55.67v27.86H265.63V255.67c0-24.76-15.75-46.06-38.36-55.67,22.67-9.67,38.36-31,38.36-55.67V116.47Z"/><path class="cls-3" d="M137.35,119.4V107.52H119.4V89.62H280.49v17.9h-17.9v11.93H137.35Z"/><path class="cls-2" d="M277.56,92.61v11.93h-17.9v11.93H140.28V104.54H122.44V92.61H277.56m6-6H116.47v23.87h17.9v11.93H265.63V110.51h17.9V86.64Z"/><path class="cls-3" d="M119.4,310.38v-17.9h17.89V280.55h125.3v11.93h17.9v17.9Z"/><path class="cls-2" d="M259.72,283.53v11.93h17.9v11.93H122.44V295.46h17.9V283.53H259.72m5.91-6H134.37v11.93h-17.9v23.87H283.53V289.49h-17.9Z"/></g><rect class="cls-4" width="400" height="400"/></g></g></svg>