<?xml version="1.0" encoding="utf-8"?>
<!-- Generator: Adobe Illustrator 23.0.1, SVG Export Plug-In . SVG Version: 6.00 Build 0)  -->
<svg version="1.1" id="Layer_1" xmlns="http://www.w3.org/2000/svg" xmlns:xlink="http://www.w3.org/1999/xlink" x="0px" y="0px"
	 viewBox="0 0 400 400" style="enable-background:new 0 0 400 400;" xml:space="preserve">
<style type="text/css">
	.st0{fill:none;stroke:#4DBB83;stroke-width:0.75;stroke-miterlimit:10;}
	.st1{fill:#9ED5BC;}
	.st2{fill:#4DBB83;}
</style>
<g>
	<path class="st0" d="M321,86.4l-46.3,48.2l-54-27.5l-46.3,48.2l-54-27.5l-46.3,34.4"/>
	<g>
		<path class="st1" d="M85.2,162.1c0,6-4.3,10.3-10.3,10.3c-6,0-10.3-4.3-10.3-10.3s4.3-10.3,10.3-10.3
			C80,151.8,85.2,156.1,85.2,162.1z"/>
		<path class="st2" d="M74.9,155.2c3.4,0,6.9,3.4,6.9,6.9c0,3.4-3.4,6.9-6.9,6.9c-3.4,0-6.9-3.4-6.9-6.9
			C68,158.7,70.5,155.2,74.9,155.2 M74.9,148.3c-7.7,0-13.8,6-13.8,13.8c0,7.7,6,13.8,13.8,13.8s13.8-6,13.8-13.8
			C88.6,154.4,81.7,148.3,74.9,148.3z"/>
	</g>
	<g>
		<path class="st1" d="M133.6,127.7c0,6-4.3,10.3-10.3,10.3c-6,0-10.3-4.3-10.3-10.3c0-6,4.3-10.3,10.3-10.3
			C129.3,117.4,133.6,121.7,133.6,127.7z"/>
		<path class="st2" d="M124.1,120.8c3.4,0,6.9,3.4,6.9,6.9s-3.4,6.9-6.9,6.9s-6.9-3.4-6.9-6.9S119.8,120.8,124.1,120.8 M124.1,113.9
			c-7.7,0-13.8,6-13.8,13.8c0,7.7,6,13.8,13.8,13.8s13.8-6,13.8-13.8C137,119.9,131,113.9,124.1,113.9z"/>
	</g>
	<g>
		<path class="st1" d="M181.8,155.2c0,6-4.3,10.3-10.3,10.3s-10.3-4.3-10.3-10.3c0-6,4.3-10.3,10.3-10.3S181.8,149.2,181.8,155.2z"
			/>
		<path class="st2" d="M171.5,148.3c3.4,0,6.9,3.4,6.9,6.9c0,3.4-3.4,6.9-6.9,6.9c-3.4,0-6.9-3.4-6.9-6.9
			C164.6,151.8,168,148.3,171.5,148.3 M171.5,141.5c-7.7,0-13.8,6-13.8,13.8c0,7.7,6,13.8,13.8,13.8c7.7,0,13.8-6,13.8-13.8
			C185.3,147.5,179.2,141.5,171.5,141.5z"/>
	</g>
	<g>
		<path class="st1" d="M231.1,107c0,6-4.3,10.3-10.3,10.3s-10.3-4.3-10.3-10.3s4.3-10.3,10.3-10.3S231.1,101.9,231.1,107z"/>
		<path class="st2" d="M220.8,100.1c3.4,0,6.9,3.4,6.9,6.9s-3.4,6.9-6.9,6.9c-3.4,0-6.9-3.4-6.9-6.9S217.3,100.1,220.8,100.1
			 M220.8,93.3c-7.7,0-13.8,6-13.8,13.8c0,7.7,6,13.8,13.8,13.8c7.7,0,13.8-6,13.8-13.8S228.5,93.3,220.8,93.3z"/>
	</g>
	<g>
		<path class="st1" d="M283.3,134.6c0,6-4.3,10.3-10.3,10.3c-6,0-10.3-4.3-10.3-10.3s4.3-10.3,10.3-10.3
			C279,124.2,283.3,128.5,283.3,134.6z"/>
		<path class="st2" d="M273,127.7c3.4,0,6.9,3.4,6.9,6.9c0,3.4-3.4,6.9-6.9,6.9s-6.9-3.4-6.9-6.9C266.1,131.1,269.5,127.7,273,127.7
			 M273,120.8c-7.7,0-13.8,6-13.8,13.8c0,7.7,6,13.8,13.8,13.8s13.8-6,13.8-13.8S280.7,120.8,273,120.8z"/>
	</g>
	<g>
		<path class="st1" d="M332.6,86.4c0,6-4.3,10.3-10.3,10.3c-6,0-10.3-4.3-10.3-10.3S316.2,76,322.2,76
			C328.3,76,332.6,81.2,332.6,86.4z"/>
		<path class="st2" d="M322.2,79.5c3.4,0,6.9,3.4,6.9,6.9s-3.4,6.9-6.9,6.9s-6.9-3.4-6.9-6.9S318.8,79.5,322.2,79.5 M322.2,72.6
			c-7.7,0-13.8,6-13.8,13.8s6,13.8,13.8,13.8s13.8-6,13.8-13.8S330,72.6,322.2,72.6z"/>
	</g>
	<path class="st1" d="M309,165.6h27.5V324H309V165.6z"/>
	<path class="st2" d="M333.1,169v151.5h-20.7V169H333.1 M340,162.1h-34.4v165.3H340V162.1z"/>
	<path class="st1" d="M210.4,200H238v124h-27.5V200z"/>
	<path class="st2" d="M234.5,203.4v117.1h-20.7V203.4H234.5 M241.4,196.6H207v130.9h34.4V196.6z"/>
	<path class="st1" d="M161.2,248.2h27.5V324h-27.5V248.2z"/>
	<path class="st2" d="M185.3,251.7v68.9h-20.7v-68.9H185.3 M192.1,244.8h-34.4v82.6h34.4V244.8z"/>
	<path class="st1" d="M112.7,227.5h27.5V324h-27.5V227.5z"/>
	<path class="st2" d="M136,231v89.5h-20.7V231H136 M142.9,224.1h-34.4v103.3h34.4V224.1z"/>
	<path class="st1" d="M63.4,262H91v62H63.4V262z"/>
	<path class="st2" d="M87.5,265.4v55.1H66.9v-55.1H87.5 M94.4,258.5H60v68.9h34.4V258.5z"/>
	<path class="st1" d="M259.7,220.7h27.5V324h-27.5V220.7z"/>
	<path class="st2" d="M283.8,224.1v96.4h-20.7v-96.4H283.8 M290.7,217.2h-34.4v110.2h34.4V217.2z"/>
</g>
</svg>
