<?xml version="1.0" encoding="utf-8"?>
<!-- Generator: Adobe Illustrator 23.0.1, SVG Export Plug-In . SVG Version: 6.00 Build 0)  -->
<svg version="1.1" id="Layer_1" xmlns="http://www.w3.org/2000/svg" xmlns:xlink="http://www.w3.org/1999/xlink" x="0px" y="0px"
	 viewBox="0 0 400 400" style="enable-background:new 0 0 400 400;" xml:space="preserve">
<style type="text/css">
	.st0{opacity:0.25;fill:#34A3DC;enable-background:new    ;}
	.st1{fill:#34A3DC;}
	.st2{opacity:0.5;fill:#34A3DC;enable-background:new    ;}
</style>
<g id="availability_1_">
	<path class="st0" d="M110,340h180c0-89.8-90-120-90-120S110,250.8,110,340L110,340z"/>
	<path class="st1" d="M300.1,69.3v37.3c0,36.4-23,69.6-58.5,84.8l-19.9,8.5l19.9,8.5c35.5,15.2,58.5,48.4,58.5,84.8v37.3H99.9v-37.3
		c0-36.4,23-69.6,58.5-84.8l19.9-8.5l-19.9-8.5c-35.5-15.2-58.5-48.4-58.5-84.8V69.3H300.1 M310,60H90v46.7
		c0,41.5,26.4,77.2,64.3,93.3c-38,16.2-64.3,51.9-64.3,93.3V340h220v-46.7c0-41.5-26.4-77.2-64.3-93.3c38-16.2,64.3-51.9,64.3-93.3
		L310,60L310,60z"/>
	<path class="st2" d="M95,64.9V45H64.9V15h270v30h-30v20H95z"/>
	<path class="st1" d="M330,20v20h-30v20H99.9v-20H70V20H330 M340,10H60v40h30v20h220V50h30L340,10L340,10z"/>
	<path class="st2" d="M64.9,385v-30h30v-20h210v20h30v30H64.9z"/>
	<path class="st1" d="M300.1,340v20h30v20H70v-20h30v-20H300.1 M310,330H90v20H60v40h280v-40h-30V330z"/>
</g>
</svg>
