<?xml version="1.0" encoding="utf-8"?>
<!-- Generator: Adobe Illustrator 23.0.1, SVG Export Plug-In . SVG Version: 6.00 Build 0)  -->
<svg version="1.1" id="Layer_1" xmlns="http://www.w3.org/2000/svg" xmlns:xlink="http://www.w3.org/1999/xlink" x="0px" y="0px"
	 viewBox="0 0 400 400" style="enable-background:new 0 0 400 400;" xml:space="preserve">
<style type="text/css">
	.st0{fill:#D8B72A;}
	.st1{fill:none;stroke:#D8B72A;stroke-width:0.5;stroke-linecap:round;stroke-miterlimit:10;}
</style>
<g>
	<path class="st0" d="M200.4,96.3c73.5,0,132.5,60.1,132.5,132.5c0,26.7-7.8,53.5-23.4,75.7H91.3c-15.6-22.3-23.4-47.9-23.4-75.7
		C67.9,155.3,128,96.3,200.4,96.3 M200.4,88.5c-76.9,0-140.3,62.4-140.3,140.3c0,31.2,10,59,26.7,82.4h226.1
		c16.7-23.4,26.7-51.2,26.7-82.4C340.8,152,278.4,88.5,200.4,88.5L200.4,88.5z"/>
	<path class="st0" d="M226,282.3h-50.1c-4.5,0-6.7-3.3-6.7-6.7s3.3-6.7,6.7-6.7H226c4.5,0,6.7,3.3,6.7,6.7S229.4,282.3,226,282.3z
		 M211.6,228.8c0,5.6-4.5,11.1-11.1,11.1s-11.1-4.5-11.1-11.1c0-5.6,4.5-11.1,11.1-11.1S211.6,223.3,211.6,228.8z"/>
	<path class="st1" d="M197.1,232.2l75.7-75.7"/>
	<path class="st0" d="M200.4,117.4c-2.2,0-3.3-1.1-3.3-3.3V92.9c0-2.2,1.1-3.3,3.3-3.3s3.3,1.1,3.3,3.3v21.2
		C203.8,116.3,202.7,117.4,200.4,117.4z M64.5,225.5h21.2c2.2,0,3.3,1.1,3.3,3.3c0,2.2-1.1,3.3-3.3,3.3H64.5c-2.2,0-3.3-1.1-3.3-3.3
		C61.2,226.6,62.3,225.5,64.5,225.5z M337.4,232.2h-22.3c-2.2,0-3.3-1.1-3.3-3.3c0-2.2,1.1-3.3,3.3-3.3h21.2c2.2,0,3.3,1.1,3.3,3.3
		C340.8,231.1,339.7,232.2,337.4,232.2z M144.7,131.9c-2.2,1.1-4.5,0-4.5-1.1l-11.1-18.9c-1.1-2.2,0-4.5,1.1-4.5
		c2.2-1.1,4.5,0,4.5,1.1l11.1,18.9C147,129.7,147,131.9,144.7,131.9z M81.3,293.4l18.9-11.1c2.2-1.1,4.5,0,4.5,1.1s0,4.5-1.1,4.5
		L84.6,299c-2.2,1.1-4.5,0-4.5-1.1C79,296.8,79,294.5,81.3,293.4z M320.7,164.2l-18.9,11.1c-2.2,1.1-4.5,0-4.5-1.1
		c0-1.1,0-4.5,1.1-4.5l18.9-11.1c2.2-1.1,4.5,0,4.5,1.1C322.9,160.9,322.9,163.1,320.7,164.2z M256.1,131.9c2.2,1.1,4.5,0,4.5-1.1
		l11.1-18.9c1.1-2.2,0-4.5-1.1-4.5s-4.5,0-4.5,1.1L255,127.5C253.9,129.7,255,131.9,256.1,131.9z M320.7,293.4l-18.9-11.1
		c-2.2-1.1-4.5,0-4.5,1.1s0,4.5,1.1,4.5l18.9,11.1c2.2,1.1,4.5,0,4.5-1.1C322.9,296.8,322.9,294.5,320.7,293.4z M81.3,164.2
		l18.9,11.1c2.2,1.1,4.5,0,4.5-1.1c0-1.1,0-4.5-1.1-4.5l-18.9-11.1c-2.2-1.1-4.5,0-4.5,1.1C79,160.9,79,163.1,81.3,164.2z"/>
</g>
</svg>
