<svg xmlns="http://www.w3.org/2000/svg" viewBox="0 0 204.66 150">
    <defs>
        <style>.cls-1{fill:#089bd8;}</style>
    </defs>
    <g id="_1421_px" data-name="&gt; 1421 px">
        <rect class="cls-1" x="94.6" width="21.19" height="21.19" transform="translate(210.39 21.19) rotate(-180)"/>
        <rect class="cls-1" x="94.6" y="26.64" width="21.19" height="21.19"
              transform="translate(210.39 74.47) rotate(-180)"/>
        <rect class="cls-1" x="94.6" y="53.28" width="21.19" height="21.19"
              transform="translate(210.39 127.75) rotate(-180)"/>
        <rect class="cls-1" x="120.33" y="26.64" width="21.19" height="21.19"
              transform="translate(261.86 74.47) rotate(-180)"/>
        <rect class="cls-1" x="120.33" y="53.28" width="21.19" height="21.19"
              transform="translate(261.86 127.75) rotate(-180)"/>
        <rect class="cls-1" x="146.06" y="26.64" width="21.19" height="21.19"
              transform="translate(313.32 74.47) rotate(-180)"/>
        <rect class="cls-1" x="146.06" y="53.28" width="21.19" height="21.19"
              transform="translate(313.32 127.75) rotate(-180)"/>
        <rect class="cls-1" x="171.49" y="53.28" width="21.19" height="21.19"
              transform="translate(364.18 127.75) rotate(-180)"/>
        <rect class="cls-1" x="68.87" y="53.28" width="21.19" height="21.19"
              transform="translate(158.93 127.75) rotate(-180)"/>
        <path class="cls-1"
              d="M135.38,150c78,0,69-68.72,69-68.72H74c-22,0-29.24-7-29.24-7s12.41-16-2.12-35.42C26.34,48.28,26.94,62.21,26.94,62.21S10.29,56.76,0,66.15C5.75,84.91,31.18,83.7,31.18,83.7S54.79,150,135.38,150Z"/>
    </g>
</svg>