<svg id="Layer_1" data-name="Layer 1" xmlns="http://www.w3.org/2000/svg" xmlns:xlink="http://www.w3.org/1999/xlink" viewBox="0 0 250 80"><defs><style>.cls-1{fill:#272324;}.cls-1,.cls-2,.cls-3{fill-rule:evenodd;}.cls-2{fill:#272425;}.cls-3{fill:url(#linear-gradient);}</style><linearGradient id="linear-gradient" x1="25.72" y1="41.31" x2="97.67" y2="41.31" gradientTransform="matrix(1, 0, 0, -1, 0, 82.77)" gradientUnits="userSpaceOnUse"><stop offset="0" stop-color="#7acbbf"/><stop offset="1" stop-color="#3ea4db"/></linearGradient></defs><title>graphite-logo</title><path class="cls-1" d="M91.74,59.19l2.42-3.61c5.49,2.31,9.63.31,10.49-4.89a37.55,37.55,0,0,1-4.8,1.71c-6.13,1.28-11.85-3.16-11-10.12A13.52,13.52,0,0,1,99.78,30.79a8.94,8.94,0,0,1,8.48,2.49l.63-2.19h3.69c-.19,1.22-.34,2.39-.54,3.55-1,5.43-1.91,10.87-3,16.29A12.36,12.36,0,0,1,105.21,58c-3.25,2.89-6.95,3.89-11.14,2.39A17.88,17.88,0,0,1,91.74,59.19Zm1.58-16.42c0,3,2.21,5.7,6.18,5.29a8.12,8.12,0,0,0,5.82-3.7,5.93,5.93,0,0,0,.78-5.71,5.22,5.22,0,0,0-4.63-3.57,8.15,8.15,0,0,0-8.15,7.69Zm55.21,17.84c-.4,0-.69.12-1,.13h-3.06c-.2-1.78,3.15-21.84,4.92-29.63.55,0,1.14-.07,1.73-.08s1.2,0,2,0l-.33,2.18c1.08-.58,2-1.15,3-1.61a10.39,10.39,0,0,1,7.3-.56,8.82,8.82,0,0,1,6.26,10.32c-1.2,6.13-5,9.67-10.95,11.07a8.79,8.79,0,0,1-7-1.3c-.3-.19-.57-.43-1-.79-.64,3.52-1.25,6.88-1.87,10.27Zm16.37-20a5.23,5.23,0,0,0-5.54-5.46,8.07,8.07,0,0,0-7.15,5.41c-1,2.86-.22,5,1.62,6.44a5.55,5.55,0,0,0,4.82.95C162,47.27,164.92,43.91,164.9,40.6ZM143.66,52.22H140v-2a37.84,37.84,0,0,1-4.16,1.85c-3.54,1.1-6.91.69-9.65-2a9.07,9.07,0,0,1-2.27-9.76,13.32,13.32,0,0,1,10.51-9.55,8.58,8.58,0,0,1,7.73,1.78c.27.23.57.42.91.67l.49-2.17h3.8l-3.71,21.13Zm-2.45-11.73a5.28,5.28,0,0,0-6.11-5.39c-4,.7-7.3,3.74-6.95,8.43a5,5,0,0,0,3.62,4.35,7.83,7.83,0,0,0,9.44-7.39Zm89.71,2.62H214.16c-.14,2.84,2,5,5,5.16a9.56,9.56,0,0,0,5.64-1.75c.46-.28.89-.6,1.5-1l2.06,3.21c-3.73,3.06-7.75,4.67-12.52,3.53-4.09-1-7-5.45-6.45-9.83a13,13,0,0,1,7.94-10.78,10.86,10.86,0,0,1,8-.52c3.23,1,5,3.47,5.57,7a35.25,35.25,0,0,1,0,5Zm-16.15-3.75h11.79a4.8,4.8,0,0,0-3.44-4.56c-3.19-1.1-7.31,1.17-8.35,4.56ZM173.29,52.22H168.8L174,22.7h4.48L176.87,32c.82-.35,1.34-.6,1.89-.8,4-1.52,9.17,0,10.43,4.78a10.78,10.78,0,0,1,.19,4.16c-.51,3.66-1.21,7.3-1.85,11a8.36,8.36,0,0,1-.35,1.13h-4.3c.16-1.15.26-2.21.45-3.26.54-3.05,1.13-6.09,1.68-9.14a4,4,0,0,0-4.94-4.53c-3.27.84-4.47,3.2-4.93,6.27-.53,3.53-1.21,7-1.85,10.66Z"/><path class="cls-1" d="M201.52,24.23c1.34,0,2.43,0,3.53,0a5.46,5.46,0,0,1,.85.18L204.8,31h6.45c.63,1.35-.29,2.45-.15,3.82-2.27.52-4.53,0-6.94.32C204,36,203.7,37,203.51,38c-.41,2.21-.79,4.42-1.17,6.64a2.76,2.76,0,0,0,1.49,3l4.71.43-.68,4.24c-2-.07-3.9.2-5.83-.28-3.05-.74-4.53-3.15-4.25-6.3.19-2.11.64-4.2,1-6.29.68-3.88,1.39-7.76,2.08-11.64l.66-3.55Zm-82.67,7.83c2.31-1.29,4.8-1.08,7.47-1l-.76,4.06c-1,.08-2,.17-2.93.23-2.51.17-4.15,1.39-4.71,3.81s-1,5.13-1.47,7.69c-.31,1.73-.59,3.46-.9,5.3H111.4c-.11-1.59,2.46-17,3.54-21.15,1,0,2,0,3,0,.19,0,.36.36.54.55l-.19.91.56-.46Zm75,20.19h-4.4c1.08-7.12,2.45-14.09,3.67-21.15h4.43l-3.7,21.15Z"/><path class="cls-2" d="M199,26.26c-.75,2.36-2,3.37-3.65,3.12a2,2,0,0,1-1.88-2.09,3.28,3.28,0,0,1,2.44-3.2c1.49-.33,2.38.27,3.09,2.17Z"/><path class="cls-3" d="M93.8,26.07,86.35,25l-2.7-3.18,4-1.95,6.61.86,3.42,3ZM76.63,20.68l-1.82-2.62,4-1.62,5.85.71,2.45,2.5-4,1.92Zm-5.06,2.07-6.4-.95L64.06,19l4.57-1.7,5.78.75,1.8,2.63ZM59.54,24l-6.29-1-.32-2.91,5.17-1.78,5.69.79,1.09,2.76Zm.5,3.78-6.42,2.8-7-1.32.14-3.78,6.14-2.28,6.31,1ZM34.92,51.94l-9.2-2.67L28.11,42l9.47-4.16,8,1.84-.32,6.72Zm10.61-5.07,9.64,2.48.89,9.24L44.67,66.47,33.24,62.63l1.87-10.15Zm18.93-2.8,9.92,2.28,3.3,8.42-8.76,7.11L57,58.43l-1-9.21Zm.34-.41-1.6-6.2,6.66-3.6,8.45,1.6,3.12,5.76-6.77,4.69Zm4.88-10.07-1.77-4.47,5.49-2.65,7.36,1.17,2.85,4.19-5.53,3.33Zm13.2-11.83,2.63,3.18-4.64,2.48-7.33-1.16L71.71,22.9l4.65-2ZM69.18,33.65l-6.67,3.56-8.22-1.69-.51-4.77,6.44-2.82,7.23,1.25ZM64.84,22l6.42,1,1.8,3.37L67.57,29l-7.2-1.24-.9-3.56Z"/><path d="M45.05,63a5.47,5.47,0,0,0-4.44,4.47c-.2,2.2,1.65,3.67,4.12,3.18s4.4-2.67,4.38-4.79S47.28,62.57,45.05,63Zm.76-18.57c-1.74.25-3.26,1.42-3.37,2.66s1.32,2.13,3.19,1.85S49,47.36,49,46.11,47.55,44.16,45.81,44.41Zm-8.56,5.4a5.49,5.49,0,0,0-5,1.67c-1.3,1.42-1.09,3,.53,3.5A5.43,5.43,0,0,0,38,53.16C39.18,51.73,38.81,50.25,37.25,49.81Zm20.84,5.81a4.49,4.49,0,0,0-4.92,2,2.76,2.76,0,0,0,1.71,4.16A4.43,4.43,0,0,0,60,59.56,2.76,2.76,0,0,0,58.09,55.62Z"/><path d="M57,48.29,45.86,45.48l-12.09,6.4-2.46,12,13.63,4.69L58.35,59ZM45.06,65.37,34.57,61.89l1.58-9.32,9.63-5.24,9,2.33.77,8.55Z"/><path d="M37,60.38c-.87-1.36-3.2-1.47-5.29-.25s-3.34,3.48-2.56,5,3.36,1.71,5.6.29S37.87,61.78,37,60.38ZM58.25,47.49a4,4,0,0,0-4.5-.17c-1.52.88-2,2.44-1,3.5A4,4,0,0,0,57.5,51C59,50.06,59.32,48.48,58.25,47.49ZM38,36.1c-1.54.19-3,1.08-3.2,2s.93,1.59,2.57,1.38,3-1.16,3.18-2.1S39.51,35.92,38,36.1Zm-7.93,4.06a5.66,5.66,0,0,0-4.45,1.23c-1.22,1-1.17,2.21.18,2.57a5.6,5.6,0,0,0,4.62-1.34C31.53,41.57,31.35,40.48,30.05,40.16Z"/><path d="M37.91,36.91l-11,4.77-3,8.61,11,3.25,12.25-6.69L47.23,39Zm6.86,9.36-9.55,5.06L26.74,48.9l2.12-6.71,8.79-3.88L45.11,40Z"/><path d="M28.89,47.83c-.61-1-2.57-1-4.43-.18s-3.06,2.47-2.52,3.53,2.68,1.19,4.66.2S29.53,48.82,28.89,47.83ZM48.4,38.42c-.77-.72-2.48-.78-3.87-.13s-2,1.82-1.26,2.6,2.59.87,4,.14S49.2,39.15,48.4,38.42ZM73,61.31a4,4,0,0,0-4.62-2.57,3.49,3.49,0,0,0-3,4,4,4,0,0,0,4.76,2.85A3.46,3.46,0,0,0,73,61.31ZM67.55,43.38c-.34-1.11-1.89-1.8-3.49-1.57s-2.75,1.31-2.51,2.45,1.84,2,3.56,1.7S67.9,44.53,67.55,43.38Zm11.28,8.69c-1.87-.46-3.72.32-4.18,1.78s.73,3.23,2.73,3.76,4-.36,4.32-2S80.72,52.53,78.83,52.07Z"/><path d="M75.86,45.37,64.4,42.79l-9.85,5.88,1,10.87,14.21,4.2L80,55.17ZM69,60.89,58.08,57.76,57,49.3l7.8-4.8,9.23,2.13,3,7.79Z"/><path d="M76.85,44.64a4.14,4.14,0,0,0-4.37-.16,1.85,1.85,0,0,0,0,3.21,4.08,4.08,0,0,0,4.6.18C78.25,47,78.13,45.55,76.85,44.64ZM72.26,33.52c-.36-.8-1.72-1.29-3.06-1.12s-2.23.94-1.94,1.75,1.69,1.38,3.11,1.2S72.62,34.33,72.26,33.52ZM63.9,35.93A3.57,3.57,0,0,0,60.4,37c-.59.91.07,1.91,1.52,2.21S65,39,65.52,38.05,65.28,36.21,63.9,35.93Zm18.22,3.65c-1.56-.32-3.06.21-3.37,1.21s.74,2.17,2.4,2.52,3.23-.24,3.46-1.31S83.71,39.89,82.12,39.58Z"/><path d="M79.37,34.93,69.55,33.1l-7.8,4.15,1.71,7.36,11.77,2.73,8-5.66ZM74.49,45.49,65.4,43.43l-1.54-5.74L70,34.32l7.88,1.49,2.84,5.37Z"/><path d="M80.17,34.41a4.08,4.08,0,0,0-3.69-.11c-1,.57-.93,1.58.16,2.26a4,4,0,0,0,3.84.12C81.45,36.07,81.29,35.05,80.17,34.41ZM62.65,27.59c-.19-.63-1.32-1-2.54-.88s-2.13.74-2,1.38,1.29,1.09,2.58.94S62.84,28.23,62.65,27.59Zm-7.77,1.9a3.88,3.88,0,0,0-3.23.83c-.64.7-.19,1.48,1,1.71A3.77,3.77,0,0,0,56,31.14C56.58,30.44,56.07,29.71,54.88,29.49Z"/><path d="M68.72,28.7l-8.41-1.44L52.8,30.52l.49,5.63,9.78,2.05,7.83-4.28Zm-6,8.11-7.58-1.55-.54-4.4,5.95-2.64,6.73,1.17,1.59,4.15Z"/><path d="M56.52,34.57a3.86,3.86,0,0,0-3.64-.11c-1.23.58-1.62,1.59-.83,2.27a3.85,3.85,0,0,0,3.79.12C57.07,36.23,57.35,35.21,56.52,34.57Zm13-6.28a3.92,3.92,0,0,0-3.25-.08c-1,.45-1.08,1.24-.23,1.77a3.93,3.93,0,0,0,3.37.09C70.35,29.59,70.39,28.79,69.51,28.29Zm6.22-2.14A3,3,0,0,0,73,25.31c-1.16.13-1.86.71-1.56,1.31s1.54,1,2.75.88S76.09,26.75,75.73,26.15Zm8.71,4.42c-1.34-.22-2.59.16-2.81.88s.71,1.55,2.11,1.79,2.72-.17,2.88-.93S85.79,30.8,84.44,30.57Z"/><path d="M81.92,27.19l-8.55-1.35L67,28.9l2,5.27,10,1.9,6.46-4Zm-3.67,7.59L70.5,33.33l-1.71-4.11,5.07-2.48,6.85,1.1,2.63,3.88Z"/><path d="M82.59,26.8a4.05,4.05,0,0,0-3.18-.08c-.82.43-.73,1.17.24,1.67a4,4,0,0,0,3.29.08C83.74,28,83.57,27.28,82.59,26.8Zm-4.23-6.17A3,3,0,0,0,75.93,20c-1,.1-1.61.55-1.31,1a3,3,0,0,0,2.48.68C78.15,21.58,78.71,21.1,78.36,20.63ZM72.28,22a2.81,2.81,0,0,0-2.5.6c-.33.5.29,1.05,1.4,1.22s2.26-.12,2.55-.64S73.35,22.17,72.28,22Zm13.89,2c-1.17-.17-2.25.13-2.42.67s.67,1.16,1.89,1.34,2.35-.13,2.47-.7S87.35,24.19,86.17,24Z"/><path d="M83.85,21.43l-7.58-1-5.45,2.36,2.09,4,8.71,1.4,5.43-3ZM81,27.18l-6.77-1.07L72.45,23l4.3-1.91,6.06.85,2.44,2.95Z"/><path d="M75.15,25.62a3.93,3.93,0,0,0-3.08-.07c-.87.4-.89,1.11,0,1.58a3.94,3.94,0,0,0,3.19.08C76.09,26.78,76,26.07,75.15,25.62Zm9.27-4.48a4,4,0,0,0-2.8-.06c-.7.33-.58.9.28,1.28a4,4,0,0,0,2.89.06C85.48,22.08,85.31,21.5,84.42,21.14Zm-31.6,1.05c-1.12.11-2,.61-2,1.13s1,.87,2.19.76,2-.65,2-1.17S53.94,22.08,52.82,22.19Zm-5.08,2.26a4.15,4.15,0,0,0-3,.67c-.66.56-.35,1.18.71,1.37a4.07,4.07,0,0,0,3.09-.72C49.14,25.21,48.78,24.62,47.74,24.45Z"/><path d="M60.27,23.8l-7.34-1.16-7.18,2.64-.27,4.46,8.36,1.59L61.4,28Zm-6.54,6.45L47.23,29l.09-3.49L53,23.42l5.86.94.78,3.32Z"/><path d="M48.54,28.49a3.75,3.75,0,0,0-3.21-.08c-1.17.45-1.63,1.25-1,1.78a3.69,3.69,0,0,0,3.33.09C48.82,29.8,49.2,29,48.54,28.49Zm12.51-5a3.83,3.83,0,0,0-2.91-.06c-.94.36-1.16,1-.48,1.42a3.78,3.78,0,0,0,3,.08C61.59,24.52,61.76,23.88,61.05,23.47Zm-1.3-5.38c-.12-.4-1-.65-2-.56s-1.73.48-1.65.88,1,.69,2,.6S59.88,18.5,59.75,18.09ZM53.5,19.3a3.71,3.71,0,0,0-2.57.53c-.52.44-.17.92.79,1.06a3.61,3.61,0,0,0,2.63-.55C54.82,19.9,54.44,19.44,53.5,19.3Zm12,1.74a3.15,3.15,0,0,0-2.53.58c-.4.48.12,1,1.17,1.16a3.05,3.05,0,0,0,2.59-.6C67.13,21.69,66.58,21.19,65.55,21Z"/><path d="M64.53,18.79l-6.63-.9L51.84,20l.29,3.44,7.45,1.2L65.88,22Zm-5.16,5-5.8-.92-.32-2.69,4.8-1.66,5.29.73,1,2.57Z"/><path d="M65.19,18.53a3.85,3.85,0,0,0-2.58-.05c-.8.29-.94.79-.3,1.12a3.79,3.79,0,0,0,2.66,0C65.76,19.35,65.85,18.85,65.19,18.53Zm5.25-1.39a2.57,2.57,0,0,0-2.11-.54c-.94.09-1.56.46-1.37.85s1.16.66,2.14.57S70.67,17.53,70.44,17.14Z"/><path d="M75.29,17.81,68.57,17l-5.36,2,1.24,3.26L72,23.3l5.45-2.42Zm-3.67,4.72-5.9-.87-1.07-2.55,4.23-1.58,5.37.7,1.66,2.43Z"/><path d="M75.87,17.56a4,4,0,0,0-2.54,0c-.7.28-.7.75,0,1.07a3.9,3.9,0,0,0,2.61.05C76.65,18.34,76.6,17.86,75.87,17.56Zm4.53-1.3a3.1,3.1,0,0,0-2.21-.52c-.9.08-1.4.44-1.11.81a3,3,0,0,0,2.24.54C80.25,17,80.73,16.63,80.4,16.26Zm7.06,2.67c-1-.13-2,.1-2.12.52s.62.9,1.71,1,2-.1,2.15-.54S88.51,19.06,87.46,18.93Z"/><path d="M85.33,16.89l-6.81-.82L73.8,18,75.88,21l7.7,1.07,4.68-2.29ZM83,21.38l-6-.82-1.71-2.43L79,16.63l5.44.66,2.24,2.32Z"/><path d="M85.83,16.66a3.91,3.91,0,0,0-2.5-.05c-.62.26-.49.72.29,1a3.85,3.85,0,0,0,2.57.05C86.79,17.4,86.62,17,85.83,16.66Zm9.85,9.23a4.3,4.3,0,0,0-3.06-.83c-1.1.13-1.56.7-1,1.3a4.15,4.15,0,0,0,3.13.87C95.9,27.1,96.3,26.49,95.68,25.89Zm2-3.11c-1.19-.16-2.17.12-2.19.63s1,1.1,2.18,1.27,2.25-.12,2.23-.66-1-1.08-2.22-1.24Z"/><path d="M94.72,20.33l-7.68-1-4.69,2.24,3.07,3.75,8.83,1.32,4.53-2.8-4.06-3.53Zm-1.36,5.43-6.85-1L84,21.82,87.7,20l6.13.8L97,23.6Z"/><path d="M95.2,20.05A4.07,4.07,0,0,0,92.45,20c-.6.32-.34.86.6,1.22a4,4,0,0,0,2.84.06C96.47,20.94,96.15,20.39,95.2,20.05Z"/></svg>