<svg id="Layer_1" data-name="Layer 1" xmlns="http://www.w3.org/2000/svg" viewBox="0 0 250 80"><defs><style>.cls-1{fill:#ed1c24;}</style></defs><title>idoit-logo</title><path class="cls-1" d="M181.91,43.61c-1.68.08-3.36.16-5.12.32,0,3.36-.08,6.64,0,9.92a2.43,2.43,0,0,0,2.56,2.32h2.16a40.38,40.38,0,0,1-.08,4.4c0,.32-.56.8-.88.88a21.87,21.87,0,0,1-4,.4c-4.4-.16-6.72-2.88-6.88-7.76-.08-2.8,0-5.68,0-8.48V44l-2.88-.24v-5c1-.08,1.76-.08,2.8-.16V34.49q3.12-.84,6-1.68a2.74,2.74,0,0,1,.88-.08v5.84c1.84.08,3.6.24,5.28.32a45.74,45.74,0,0,1,.16,4.72Z"/><path d="M123.43,61.21h-5.92c-.16-1-.32-1.84-.4-2.48-1.6.88-3.2,2.24-5,2.72-4.64,1.28-8.88-1-10.8-5.44a15.06,15.06,0,0,1-.32-11.2,9.69,9.69,0,0,1,15.44-4.4v-12h7Zm-6.88-11.44a22.22,22.22,0,0,0-.4-3.12,3.91,3.91,0,0,0-3.28-3.12,4.33,4.33,0,0,0-4.48,1.84,8.67,8.67,0,0,0,0,8.8A4.2,4.2,0,0,0,112.87,56a4,4,0,0,0,3.36-3.28C116.39,51.93,116.39,50.89,116.55,49.77ZM140,38.17c7,0,11.68,4.64,11.68,11.6,0,7.2-4.88,12.08-12.08,12.08-7,0-11.92-4.88-11.84-11.76C127.83,42.81,132.63,38.17,140,38.17Zm4.72,11.68c-.64-1.68-1-3.6-1.92-5.12a3.74,3.74,0,0,0-6.24,0c-1.92,2.48-1.92,7.76-.08,10.32a3.86,3.86,0,0,0,6.64-.32A38.86,38.86,0,0,0,144.71,49.85ZM70.31,61.13v-21c0-1.2.32-1.6,1.52-1.52,1.76.08,3.52,0,5.36,0V61.13Z"/><path class="cls-1" d="M163,61.21h-6.72c0-.56-.08-1.12-.08-1.6V40.41c0-1.28.4-1.84,1.68-1.76,1.68.08,3.36,0,5.12,0Z"/><path d="M81.75,52.49V45.93h14v5.84c0,.24-.56.64-.8.64C90.63,52.49,86.31,52.49,81.75,52.49ZM73.91,35.61A3.64,3.64,0,0,1,70,31.93c0-2.32,1.52-3.76,4-3.76A3.59,3.59,0,0,1,77.91,32,3.79,3.79,0,0,1,73.91,35.61Z"/><path class="cls-1" d="M159.59,35.53a3.59,3.59,0,0,1-3.92-3.68c0-2.24,1.52-3.68,3.92-3.68a3.69,3.69,0,1,1,0,7.36Z"/><path d="M96.63,11.85a3.92,3.92,0,0,1,4.08,3.68,4.07,4.07,0,0,1-4.08,3.92,3.91,3.91,0,0,1-3.92-3.84A3.75,3.75,0,0,1,96.63,11.85ZM128.87,17a3.91,3.91,0,0,1,4,3.76,4,4,0,0,1-7.92.08A3.86,3.86,0,0,1,128.87,17Zm-42,4.24A4,4,0,0,1,79,21.13,3.83,3.83,0,0,1,83,17.37,3.74,3.74,0,0,1,86.87,21.21Zm26-.64A3.59,3.59,0,0,1,109,16.81c0-2.32,1.6-3.76,4-3.76a3.68,3.68,0,0,1,3.76,3.84A3.64,3.64,0,0,1,112.87,20.57Zm31.52,9a3.7,3.7,0,0,1-4-3.68A3.59,3.59,0,0,1,144.31,22a3.66,3.66,0,0,1,3.92,3.76A3.55,3.55,0,0,1,144.39,29.53Z"/></svg>