<svg id="InfluxData_Complete_Logo" data-name="InfluxData Complete Logo" xmlns="http://www.w3.org/2000/svg" viewBox="0 0 350 100"><defs><style>.cls-1{fill:#2c3843;}</style></defs><title>influxdb-logo</title><path id="Cuboctahedron" class="cls-1" d="M68.93,56.72l-6.22-27a4.9,4.9,0,0,0-3.19-3.37L31.21,17.67A4.13,4.13,0,0,0,30,17.56a5.13,5.13,0,0,0-3.31,1.22L6.4,37.66A4.92,4.92,0,0,0,5.06,42L11.69,70.9a4.86,4.86,0,0,0,3.2,3.37l26.49,8.26a4.19,4.19,0,0,0,1.22.11,5.14,5.14,0,0,0,3.32-1.22L67.59,61.26A5.25,5.25,0,0,0,68.93,56.72ZM34.18,24.07l19.47,6c.75.23.75.58,0,.76L43.42,33.13a2.59,2.59,0,0,1-2.38-.7L34,24.76C33.31,24.12,33.42,23.83,34.18,24.07ZM46.32,58.93c.24.76-.29,1.22-1,1l-21-6.51c-.76-.23-.93-.87-.35-1.39L40,37.08c.58-.58,1.22-.35,1.39.41Zm-34.57-19,17-15.86a1.46,1.46,0,0,1,2,.05l8.54,9.24a1.46,1.46,0,0,1-.06,2l-17,15.86a1.46,1.46,0,0,1-2-.06L11.69,42A1.4,1.4,0,0,1,11.75,39.93ZM15.87,65,11.4,45.28c-.23-.76.11-.93.64-.35l7.09,7.67A2.86,2.86,0,0,1,19.71,55L16.63,65C16.4,65.85,16.05,65.85,15.87,65ZM40.8,76.66,18.55,69.74a1.5,1.5,0,0,1-1-1.86l3.72-12a1.51,1.51,0,0,1,1.86-1l22.25,6.86a1.51,1.51,0,0,1,1,1.86l-3.72,12A1.62,1.62,0,0,1,40.8,76.66ZM60.56,60.44,45.68,74.27c-.58.59-.87.35-.63-.4l3.08-10A2.57,2.57,0,0,1,50,62.19l10.23-2.33C61,59.57,61.08,59.92,60.56,60.44Zm1.63-3L49.93,60.21a1.43,1.43,0,0,1-1.75-1L43,36.5a1.42,1.42,0,0,1,1-1.74L56.26,32A1.41,1.41,0,0,1,58,33l5.23,22.67A1.37,1.37,0,0,1,62.19,57.42Z"/><g id="Type"><path class="cls-1" d="M252,66.26c-.06.69.23.87.47.87h1.68a.78.78,0,0,0,.76-.87L261.86,27c.12-.7-.35-.87-.69-.76h0l-1.86.29a.86.86,0,0,0-.76.76h0l-2,11.39a27.64,27.64,0,0,0-7-.93c-7.32,0-10.87,2.79-12.2,10.63l-2.21,12.32a14,14,0,0,0-.23,2.1c0,3.54,2,4.88,5.63,4.88,4.19,0,8.43-2,11.74-4.77Zm-11-1.52c-1.75,0-2.67-.46-2.67-2.32a6.53,6.53,0,0,1,.23-1.69l2-11.73c1.11-6.4,3.31-8.26,8.6-8.26a28.38,28.38,0,0,1,6.92.93l-3.08,17.38C249.31,62.36,244.72,64.74,241.06,64.74Z"/><path class="cls-1" d="M281.21,66.26c0,.69.24.87.59.87h1.68a.78.78,0,0,0,.76-.87h0l4.7-26.56A30.41,30.41,0,0,0,279,37.78c-7.73,0-10.87,3.08-12.21,10.63l-2.21,12.32a15.44,15.44,0,0,0-.23,2.1c0,3.54,2,4.88,5.64,4.88,4.18,0,8.25-2,11.56-4.77Zm-10.8-1.52c-1.75,0-2.68-.46-2.68-2.32a7,7,0,0,1,.23-1.69L270,49c1.1-6.34,3.19-8.26,8.6-8.26a27.59,27.59,0,0,1,6.74.93l-3.08,17.38C278.48,62.36,274,64.74,270.41,64.74Z"/><path class="cls-1" d="M328.34,66.26c-.06.69.24.87.47.87h1.68a.78.78,0,0,0,.76-.87h0L336,39.7A30.46,30.46,0,0,0,326,37.78c-7.73,0-10.87,3.08-12.21,10.63l-2.2,12.32a14.09,14.09,0,0,0-.24,2.1c0,3.54,2,4.88,5.64,4.88,4.19,0,8.25-2,11.57-4.77Zm-10.75-1.52c-1.74,0-2.67-.46-2.67-2.32a7,7,0,0,1,.23-1.69l2-11.73c1.1-6.34,3.19-8.26,8.6-8.26a27.59,27.59,0,0,1,6.74.93l-3.08,17.38C325.67,62.36,321.2,64.74,317.59,64.74Z"/><path class="cls-1" d="M310.44,40.74h0l.41-1.91c.12-.47-.12-.47-.41-.47h-8.07l1.1-6.62h0c.12-.7-.35-.88-.7-.76h0l-1.86.29h0a.86.86,0,0,0-.75.76h0l-1.11,6.33h-5c-.12,0-.58.06-.64.47l-.29,1.86h0a.41.41,0,0,0,.46.46h4.94l-3.78,21.56a9.5,9.5,0,0,0-.11,1.1c0,2.62,1.86,3.78,4.7,3.78A23.78,23.78,0,0,0,307.66,66c.63-.34.58-.75.4-1h0l-.4-1.11c-.06-.29-.41-.23-.64-.11h0a15.54,15.54,0,0,1-7.09,1.22c-1.34,0-2-.29-2-1.4a7.73,7.73,0,0,1,.12-1l3.72-21.21h8C310.27,41.15,310.39,41,310.44,40.74Z"/><path class="cls-1" d="M232.86,38.36h-8.25a1.49,1.49,0,0,0-1,.58l-5.86,8.54-3.43-8.89a1,1,0,0,0-1.05-.58l-7.21,1.05,6.22,13.66L200.84,67.19h7.73a2.61,2.61,0,0,0,1.63-.7L215.55,60l3,6.51a1.27,1.27,0,0,0,1.1.7h7.56l-6-13.31Z"/><path class="cls-1" d="M197.36,66.6l4.94-28.12c.06-.58-.35-.58-.7-.47l-6.92.93a1,1,0,0,0-1,.93h0l-3,17c-2.09,1.05-5.92,2.73-7.44,2.73-.87,0-1.1-.29-1.1-.93a6.58,6.58,0,0,1,.12-.93l3.37-19.35h0c.06-.58-.35-.58-.64-.47l-6.92,1h0a1,1,0,0,0-1,.93h0l-3.31,18.71a16.2,16.2,0,0,0-.29,3.32c0,3.6,1.45,5.87,5.29,5.87,3.31,0,6.86-1.11,11.33-3.26l.06,2.09c0,.12.06.47.35.47h6.33A.46.46,0,0,0,197.36,66.6Z"/><path class="cls-1" d="M129,37.78c-3.31,0-6.86,1.1-11.33,3.25l.06-2.55c0-.64-.47-.58-.76-.47l-5.4.93h0a1.36,1.36,0,0,0-1.28,1l-4.54,25.92h0c-.23,1.22-.11,1.28.88,1.28h6.21c.7,0,1,0,1.28-1.28l3-17.26c2.27-1.22,5.93-2.73,7.44-2.73.87,0,1.11.23,1.11.87a6.58,6.58,0,0,1-.12.93l-3.2,18.25h0c-.23,1.22-.11,1.28.88,1.28h6.16c.69,0,1,0,1.27-1.28L134,47a19.28,19.28,0,0,0,.29-3.31C134.25,40.05,132.8,37.78,129,37.78Z"/><path class="cls-1" d="M105.08,25.23l-6.92,1a1,1,0,0,0-1,.93l-1.28,7.2c-.11.87,0,.87.7.76l6.86-.93h0c.7-.06.87-.12,1-1h0l1.33-7.44C105.83,25.23,105.71,25.23,105.08,25.23Z"/><path class="cls-1" d="M98.62,65.85h0l4.89-27.31c0-.59-.35-.59-.7-.47L95.89,39h0a1,1,0,0,0-1,.93h0L90.26,66.14c-.12,1,0,1.1.93,1.1H97.4C98,67.07,98.39,67.07,98.62,65.85Z"/><path class="cls-1" d="M166.91,65.85l7-39.75c.06-.58-.23-.58-.58-.47l-8,1.34a41.94,41.94,0,0,0-10-1.39c-7.38,0-9.88,2.55-11,9.18l-.64,3.78h-3.25c-.87,0-.93.4-1,.75h0l-1,5.52c-.06.23.06.47.41.47h3.6l-3.89,22A10.42,10.42,0,0,1,135.24,74h0c-.47.47-.35.64,0,.93h0L139.59,79h0c.41.41.64.35,1.11-.11,4-4.07,5.29-6.86,6-10.64l4-22.9h6.4c.34,0,.4,0,.58-.4h0l1.45-5.76h0c.12-.4-.29-.58-.58-.58h-6.68l.75-4.18c.29-1.45.93-2,2.73-2a42.72,42.72,0,0,1,8.72,1L158.36,66h0c-.23,1.22-.11,1.28.88,1.28h6.21C166.33,67.07,166.67,67.07,166.91,65.85Z"/></g><path id="Registered_Trademark" data-name="Registered Trademark" class="cls-1" d="M341.42,29.7h-.76l-.23,1.4h-.76l.7-4.19h1.57c.87,0,1.28.35,1.28.93v.29l-.06.58a1.06,1.06,0,0,1-.75,1l.75,1.46h-.87Zm.93-1.57V28c0-.29-.12-.35-.47-.35H341l-.23,1.39h.87c.47,0,.58-.11.64-.46Zm-.93,4.36A3.55,3.55,0,1,1,345,29,3.52,3.52,0,0,1,341.42,32.49Zm0-6.39a2.91,2.91,0,1,0,2.9,2.91A2.91,2.91,0,0,0,341.42,26.1Z"/></svg>