<svg id="Layer_1" data-name="Layer 1" xmlns="http://www.w3.org/2000/svg" xmlns:xlink="http://www.w3.org/1999/xlink" viewBox="0 0 250 80"><defs><style>.cls-1{fill:#253858;}.cls-2{fill:#2684ff;}.cls-3{fill:url(#linear-gradient);}.cls-4{fill:url(#linear-gradient-2);}</style><linearGradient id="linear-gradient" x1="41.15" y1="2680.33" x2="35.99" y2="2685.49" gradientTransform="translate(0 -2647.76)" gradientUnits="userSpaceOnUse"><stop offset="0.18" stop-color="#0052cc"/><stop offset="1" stop-color="#2684ff"/></linearGradient><linearGradient id="linear-gradient-2" x1="42.52" y1="2695.15" x2="47.67" y2="2690.01" xlink:href="#linear-gradient"/></defs><title>jira-logo</title><g id="Blue"><path class="cls-1" d="M65.77,30.48h2.62V43.73c0,3.52-1.54,5.94-5.14,5.94a9.29,9.29,0,0,1-3.14-.49V46.64a7.33,7.33,0,0,0,2.7.49c2.21,0,3-1.32,3-3.22Z"/><path class="cls-1" d="M73.14,29.46a1.63,1.63,0,0,1,1.75,1.48v.23a1.75,1.75,0,0,1-3.49.2v-.2h0a1.62,1.62,0,0,1,1.51-1.73h0ZM71.87,35h2.5V49.54h-2.5Z"/><path class="cls-1" d="M78.14,35h2.43v2.55c.85-1.7,2.31-2.93,5.14-2.76v2.44c-3.19-.33-5.14.64-5.14,3.72v8.57H78.14Z"/><path class="cls-1" d="M97.41,46.93a5.12,5.12,0,0,1-4.91,2.9c-3.85,0-5.8-3.28-5.8-7.55,0-4.09,2-7.54,6.09-7.54a4.76,4.76,0,0,1,4.62,2.83V35h2.5V49.53h-2.5Zm-4.24.56c2.24,0,4.24-1.42,4.24-4.64V41.7c0-3.22-1.83-4.64-4-4.64-2.83,0-4.27,1.85-4.27,5.22s1.41,5.24,4,5.24Z"/><path class="cls-1" d="M114.67,49.83a13.29,13.29,0,0,1-6.88-1.48V45.66a16.25,16.25,0,0,0,7,1.6c2.87,0,4-1.13,4-2.83s-1-2.59-4.67-3.45c-4.29-1-6.23-2.54-6.23-5.67,0-3,2.27-5.16,6.71-5.16a11.3,11.3,0,0,1,5.83,1.39v2.61a11.7,11.7,0,0,0-5.94-1.45c-2.49,0-4,.87-4,2.61,0,1.57,1.22,2.35,4.59,3.2,4,1,6.29,2.31,6.29,5.74S119.41,49.83,114.67,49.83Z"/><path class="cls-1" d="M123.59,42.27c0-4.36,2.55-7.52,6.91-7.52s6.85,3.16,6.85,7.52-2.52,7.58-6.85,7.58S123.59,46.61,123.59,42.27Zm2.44,0c0,2.75,1.37,5.25,4.47,5.25s4.42-2.5,4.42-5.25-1.34-5.18-4.42-5.18S126,39.51,126,42.27Z"/><path class="cls-1" d="M143.71,35h3.74v2.31h-3.74v12.2h-2.43V37.34h-2.36V35h2.36V33.44c0-2.7,1.51-4.53,4.62-4.53a6.07,6.07,0,0,1,1.7.24v2.31a8.27,8.27,0,0,0-1.57-.15,2.07,2.07,0,0,0-2.3,2.21Z"/><path class="cls-1" d="M155.9,47.1a7.41,7.41,0,0,0,1.56-.2v2.41a5.72,5.72,0,0,1-1.7.23c-3.1,0-4.61-1.83-4.61-4.53V37.35h-2.36V35h2.35V32h2.43V35h3.87v2.31h-3.87V45A2.07,2.07,0,0,0,155.9,47.1Z"/><path class="cls-1" d="M158.17,35h2.75l4.18,12.33,4.24-12.3h2.38L176,47.36l4.18-12.3h2.76l-5.35,14.51h-3.18l-2.51-7-1.32-4.47-1.32,4.47-2.53,7h-3.2Z"/><path class="cls-1" d="M194.3,46.93a5.11,5.11,0,0,1-4.91,2.9c-3.85,0-5.8-3.28-5.8-7.55,0-4.09,2-7.54,6.09-7.54a4.75,4.75,0,0,1,4.62,2.83V35h2.5V49.53h-2.5Zm-4.24.56c2.27,0,4.24-1.42,4.24-4.64V41.7c0-3.22-1.82-4.64-4-4.64-2.8,0-4.26,1.87-4.26,5.24s1.41,5.22,4,5.22Z"/><path class="cls-1" d="M200.57,35H203v2.55c.85-1.7,2.31-2.93,5.14-2.76v2.44C205,36.93,203,37.9,203,41v8.57h-2.43Z"/><path class="cls-1" d="M216.94,49.83c-5.43,0-7.81-3.13-7.81-7.59s2.44-7.51,6.86-7.51,6.26,3.1,6.26,7.54V43.4H211.66c.35,2.47,2,4.07,5.37,4.07a13.27,13.27,0,0,0,4.41-.79V49A10.33,10.33,0,0,1,216.94,49.83Zm-5.31-8.58h8.09c-.14-2.69-1.36-4.23-3.86-4.23s-4,1.7-4.23,4.22Z"/><path class="cls-2" d="M53.61,39.31,42.85,28.55l-1-1.05h0l-8.12,8.1h0L30,39.31a1,1,0,0,0,0,1.39l7.42,7.4,4.4,4.4,8.09-8.1.13-.12,3.58-3.58c.77,0,1.39.07,1.39-.7S54.38,38.61,53.61,39.31Zm-11.8,4.38L38.11,40l3.7-3.69L45.5,40Z"/><path class="cls-3" d="M41.81,36.31a6.24,6.24,0,0,1,0-8.77l-8.09,8.08L38.1,40Z"/><path class="cls-4" d="M45.52,40l-3.71,3.71a6.21,6.21,0,0,1,0,8.79h0l8.11-8.1Z"/></g></svg>