<svg id="Layer_1" data-name="Layer 1" xmlns="http://www.w3.org/2000/svg" viewBox="0 0 250 80"><defs><style>.cls-1{fill:#25c151;}</style></defs><title>pageduty-logo</title><path class="cls-1" d="M66.63,32.11a6.63,6.63,0,0,0-4-3.4,8.3,8.3,0,0,0-2.3-.38H48.08v4.85H60.3a2.11,2.11,0,0,1,2.19,2.19v2.14H53.12a6.89,6.89,0,0,0-3.26.71A7.11,7.11,0,0,0,47.67,40a6.67,6.67,0,0,0-1.2,2.3,8,8,0,0,0-.39,2.31,7,7,0,0,0,.71,3.26A7.14,7.14,0,0,0,48.55,50a6.81,6.81,0,0,0,2.27,1.2,8,8,0,0,0,2.3.39h7.21a6.78,6.78,0,0,0,5.45-2.47A7,7,0,0,0,67,46.88a8.35,8.35,0,0,0,.38-2.28V35.42a7.36,7.36,0,0,0-.74-3.31ZM62.49,44.52a2.21,2.21,0,0,1-.57,1.56,2.14,2.14,0,0,1-1.62.63H53.15a2.4,2.4,0,0,1-1.56-.55,2,2,0,0,1-.66-1.56A2.29,2.29,0,0,1,51.51,43a2.11,2.11,0,0,1,1.61-.63h9.37v2.14Zm45.87-2a7,7,0,0,0,3.28-.71,6.42,6.42,0,0,0,2.2-1.78,6.77,6.77,0,0,0,1.2-2.3,7.94,7.94,0,0,0,.38-2.3,7,7,0,0,0-.71-3.29,6.47,6.47,0,0,0-1.78-2.19,6.62,6.62,0,0,0-2.3-1.21,8.3,8.3,0,0,0-2.3-.38H101.1a7.17,7.17,0,0,0-3.29.71,6.4,6.4,0,0,0-2.19,1.78,7.17,7.17,0,0,0-1.21,2.3,8,8,0,0,0-.38,2.3v9.24A7.07,7.07,0,0,0,94.74,48a6.91,6.91,0,0,0,1.75,2.19,7.24,7.24,0,0,0,2.3,1.2,8,8,0,0,0,2.31.39h13.58V46.82H101.15a2.33,2.33,0,0,1-1.59-.57,2,2,0,0,1-.63-1.59V42.49Zm-9.46-7a2.34,2.34,0,0,1,.58-1.59,2,2,0,0,1,1.62-.63h7.23a2.27,2.27,0,0,1,1.56.58,2,2,0,0,1,.63,1.59A2.33,2.33,0,0,1,110,37a2.08,2.08,0,0,1-1.62.63H98.9V35.45Zm51.68,16.17h-7.79a6.85,6.85,0,0,1-5.23-2.06,7.16,7.16,0,0,1-1.7-5V35.29a6.75,6.75,0,0,1,2-5.15,7.18,7.18,0,0,1,5-1.78h9.67V20h4.93V44.74a6.63,6.63,0,0,1-1.92,4.93,7.36,7.36,0,0,1-4.95,1.95Zm-9.79-6.74a2.24,2.24,0,0,0,.44,1.37,2.31,2.31,0,0,0,1.59.46h7.78a1.74,1.74,0,0,0,2-2V33.32h-9.89a2.16,2.16,0,0,0-1.37.46,2.07,2.07,0,0,0-.44,1.54l-.06,9.56ZM27,60H22V35.21a6.69,6.69,0,0,1,1.92-5,7.31,7.31,0,0,1,5-1.95h7.72a6.77,6.77,0,0,1,5.24,2.06,7,7,0,0,1,1.7,5v9.34a6.73,6.73,0,0,1-2,5.15,7.08,7.08,0,0,1-5,1.78H27Zm9.89-13.34a2.26,2.26,0,0,0,1.4-.47,2,2,0,0,0,.43-1.53V35.07a2.15,2.15,0,0,0-.43-1.37,2.31,2.31,0,0,0-1.59-.47H28.9a1.74,1.74,0,0,0-1.94,2V46.66Zm85.48,5H117.4V35.23a6.63,6.63,0,0,1,1.92-4.93,7.46,7.46,0,0,1,5-2h9.59v4.93H124.3a1.76,1.76,0,0,0-2,2V51.64Zm44.6,0a7.64,7.64,0,0,1-5-2,6.6,6.6,0,0,1-1.89-4.9V28.33H165V44.74c0,1.07.38,1.42.77,1.64a3.07,3.07,0,0,0,1.23.33h9.64V28.33h4.93V51.64ZM84.22,59.78H72.52V54.85h11.7a1.87,1.87,0,0,0,1.92-1,4.08,4.08,0,0,0,.41-1.42v-.94H77.23A7.53,7.53,0,0,1,72,49.67a7.11,7.11,0,0,1-2.11-5.42V35.64a7.57,7.57,0,0,1,1.92-5.23,7.09,7.09,0,0,1,5.4-2.11h7a7.09,7.09,0,0,1,7.29,7.29V52.52C91.45,55.45,89.48,59.78,84.22,59.78Zm-9.4-24.3v8.74a2.48,2.48,0,0,0,.55,1.83A2.74,2.74,0,0,0,77,46.6h9.54v-11c0-1.32-.52-1.75-1-2a3.72,3.72,0,0,0-1.32-.33h-7a2.37,2.37,0,0,0-1.78.55,2.47,2.47,0,0,0-.58,1.67ZM222.74,59.84H211V54.9h11.7c1.23,0,1.67-.46,1.92-.93a3.35,3.35,0,0,0,.38-1.39v-.91H215.7a7.15,7.15,0,0,1-5.43-2.11,7.65,7.65,0,0,1-1.89-5.23V28.38h4.94V44.52a2.56,2.56,0,0,0,.57,1.67,2.49,2.49,0,0,0,1.81.55H225V28.33H230V52.6a7,7,0,0,1-7.23,7.24ZM197.4,51.67h-4.93V33.26h-8.39V28.33h8.39V22h4.93v6.33h8.44v4.93H197.4Z"/></svg>