<svg id="Layer_1" data-name="Layer 1" xmlns="http://www.w3.org/2000/svg" viewBox="0 0 250 80"><defs><style>.cls-1,.cls-2{fill:#293f41;}.cls-1,.cls-3{fill-rule:evenodd;}.cls-3{fill:#82b6a1;}</style></defs><title>servicenow-logo</title><path class="cls-1" d="M73.06,33.29a9.15,9.15,0,0,0-5.64,2V33.41H62.25V53.5h5.4V40.7a6.19,6.19,0,0,1,4.82-2.47,5.69,5.69,0,0,1,2.12.35V33.41a6.58,6.58,0,0,0-1.53-.12"/><path class="cls-1" d="M26.29,47.39a8.19,8.19,0,0,0,5.53,2c1.41,0,2.58-.71,2.58-1.65,0-3.06-9.63-2-9.63-8.47,0-3.85,3.75-6.23,7.64-6.23a12.72,12.72,0,0,1,6.81,2l-2.47,3.88a7.06,7.06,0,0,0-3.88-1.41c-1.52,0-2.7.6-2.7,1.65,0,2.58,9.64,1.52,9.64,8.57,0,3.88-3.77,6.23-8,6.23a13.36,13.36,0,0,1-8-2.69Z"/><path class="cls-1" d="M60,43.28c0-5.64-3.88-10.23-9.43-10.23-6,0-9.73,4.94-9.73,10.47C40.86,49.86,45.33,54,51.32,54a11,11,0,0,0,8.2-3.65l-3.05-3.06a7.13,7.13,0,0,1-5.06,2.39A5.29,5.29,0,0,1,46,44.83H59.9c0-.47.12-.94.12-1.53M46.27,41a4.29,4.29,0,0,1,4.22-3.52,4.06,4.06,0,0,1,4,3.52Z"/><polygon class="cls-1" points="87.39 45.75 92.91 33.41 98.43 33.41 89.27 53.5 85.51 53.5 76.35 33.41 81.99 33.41 87.39 45.75"/><path class="cls-1" d="M103,24a3.46,3.46,0,1,1-.12,0H103"/><rect class="cls-2" x="100.32" y="33.41" width="5.41" height="20.09"/><path class="cls-1" d="M127.81,49.4a10.72,10.72,0,1,1-9-16.46,11,11,0,0,1,8.46,4l-3.76,3.4A5.76,5.76,0,0,0,119,38a5.43,5.43,0,0,0-5.41,5.44v.09A5.31,5.31,0,0,0,118.65,49h.43a5.83,5.83,0,0,0,4.83-2.71Z"/><path class="cls-1" d="M147.31,50.32A10.73,10.73,0,0,1,139.09,54c-6,0-10.46-4.11-10.46-10.45,0-5.64,3.76-10.46,9.76-10.46,5.52,0,9.39,4.7,9.39,10.22a6.07,6.07,0,0,1-.11,1.53H133.8a5.3,5.3,0,0,0,5.41,4.82,7.07,7.07,0,0,0,5-2.39Zm-5-9.39a4,4,0,0,0-4-3.52,4.21,4.21,0,0,0-4.23,3.52Z"/><path class="cls-1" d="M149.9,53.5V33.41h5.17v1.65a8.49,8.49,0,0,1,5.64-2,9,9,0,0,1,6.93,3.29c1.29,1.53,2.12,3.64,2.12,7V53.62h-5.4V42.9c0-2-.48-3-1.2-3.75a4.21,4.21,0,0,0-3-1.19,6.19,6.19,0,0,0-4.82,2.47v13Z"/><path class="cls-3" d="M183.5,33.05a11.76,11.76,0,0,0-11.74,11.63,12.18,12.18,0,0,0,3.64,8.69,2.31,2.31,0,0,0,3.06.12,7.9,7.9,0,0,1,5-1.64,8.2,8.2,0,0,1,5.06,1.64,2.32,2.32,0,0,0,3.05-.23,11.72,11.72,0,0,0-8.11-20.21m-.11,17.63a5.75,5.75,0,0,1-5.88-5.62V44.8A5.69,5.69,0,0,1,183,38.92h.41a5.88,5.88,0,0,1,0,11.76"/><polygon class="cls-1" points="205.71 53.5 201.72 53.5 193.73 33.41 199.13 33.41 203.48 44.93 207.83 33.41 212.29 33.41 216.52 44.93 220.87 33.41 226.28 33.41 218.28 53.5 214.29 53.5 210.06 42.11 205.71 53.5"/><polygon class="cls-2" points="223.34 51.04 223.34 51.39 222.63 51.39 222.63 53.5 222.16 53.5 222.16 51.39 221.46 51.39 221.46 51.04 223.34 51.04"/><polygon class="cls-2" points="224.98 52.56 225.92 51.04 226.28 51.04 226.28 53.5 225.81 53.5 225.81 52.09 225.1 53.15 224.75 53.15 224.16 52.09 224.16 53.5 223.69 53.5 223.69 51.04 224.04 51.04 224.98 52.56"/></svg>