<svg id="Layer_1" data-name="Layer 1" xmlns="http://www.w3.org/2000/svg" viewBox="0 0 250 80"><defs><style>.cls-1{fill:#443642;}.cls-2{fill:#70cadb;}.cls-3{fill:#e01765;}.cls-4{fill:#e8a723;}.cls-5{fill:#3eb890;}.cls-6{fill:#cc2027;}.cls-7{fill:#361238;}.cls-8{fill:#65863a;}.cls-9{fill:#1a937d;}</style></defs><title>slack-logo</title><path class="cls-1" d="M100.59,37.46c0-5,3.62-8.44,10.2-8.44a16.44,16.44,0,0,1,9.08,2.5,1.16,1.16,0,0,1,.43,1.42,32.42,32.42,0,0,1-1.45,3,1,1,0,0,1-1.3.26,16.44,16.44,0,0,0-5.25-1.93,11.88,11.88,0,0,0-1.46-.06c-1.67,0-3.09.62-3.58,1.9a2,2,0,0,0-.16.77c0,1.66,2.31,2.3,5.16,2.79,5.3.91,9.31,2.5,9.31,7.91,0,4.64-3.69,8.82-10.9,8.7-4.75-.1-8.13-1.67-9.94-3.27a1.5,1.5,0,0,1-.38-1.59,11.4,11.4,0,0,1,1.67-3,1.29,1.29,0,0,1,1.55-.23,14,14,0,0,0,6.77,2.5H111c2.5-.06,4.08-1,4-2.65,0-1.43-2-2.27-5.25-2.87-5.13-1-9.24-2.65-9.24-7.8m46.51,7.06c-3.6.05-6.91,1-7,3.86,0,2.24,1.81,3.33,4.36,3.19a6.11,6.11,0,0,0,5.14-2.7,10.37,10.37,0,0,0,.33-3.33c0-.18-.36-.52-.51-.58a5.88,5.88,0,0,0-2.31-.46m-12-11.29a14.49,14.49,0,0,1,10.37-3.74c7,.15,10.76,3.45,11.1,11.34.15,3.25-.09,12.34-.15,14.6,0,.33-.11.55-.55.56-1.16,0-3.84,0-5.07,0-.62,0-.69-.33-.7-.66s0-.83,0-1.35a.2.2,0,0,0-.19-.22.22.22,0,0,0-.14,0,9.85,9.85,0,0,1-7.24,2.62c-4.36,0-8.72-2.58-8.71-7.67s3.71-7.79,7.77-8.4a15.89,15.89,0,0,1,7.76.84c.14.06.43,0,.43-.23a15,15,0,0,0-.15-2.5c-.32-1.53-1.6-2.76-4.28-3.09a8.46,8.46,0,0,0-1.67,0c-2.12.17-4.69,1.83-5.76,2.46a.67.67,0,0,1-.76-.13,32.6,32.6,0,0,1-2.3-3.51.84.84,0,0,1,.26-.89Zm23.8,9.71c0-7.28,5-13.42,13.26-13.47,5.13,0,8.86,2.29,9.52,3.39a.85.85,0,0,1,0,.73,24.43,24.43,0,0,1-2.32,3.7c-.33.43-.7.06-1.11-.21a10.85,10.85,0,0,0-5.57-1.74c-4,0-6.89,2.7-6.89,7.7,0,4.79,2.86,7.44,6.89,7.5a8.15,8.15,0,0,0,5.25-2.15c.34-.3.7-.15,1.09.16a30.71,30.71,0,0,1,2.5,2.85.84.84,0,0,1,0,1.11c-1.67,2.12-4.89,3.89-9.17,3.92-8.93,0-13.33-6.23-13.4-13.53m42.65,13.23c.42,0,4.9-.65,6.27-1a.4.4,0,0,0,.37-.42.37.37,0,0,0-.1-.23c-.77-1.15-2.79-4.42-4.89-7.34-2-2.7-4-5.06-4.66-6a.43.43,0,0,1,0-.61c1.26-1.23,6.53-6.4,8.51-8.53.77-.83.3-1.19-.35-1.38-1.25-.38-3.29-.84-4.45-1.1a1.59,1.59,0,0,0-1.5.38c-2,1.85-8,7.92-9.84,9.73-.32.33-.51.25-.51-.21,0-3.5-.09-18.48-.21-20.94,0-.32-.4-.57-.62-.59-1.13-.06-4-.07-5.13,0a.82.82,0,0,0-.65.63c-.26,3.95.11,32.85.26,36.9a.55.55,0,0,0,.51.54c1.13.06,3.92,0,5.22,0,.64,0,.72-.45.72-.45l.1-7.76a1.12,1.12,0,0,1,.17-.46c.46-.49,1.73-1.85,2.27-2.38a.3.3,0,0,1,.41,0l0,.07c.65.84,2.5,3.69,4.17,6.21,1.56,2.32,3,4.37,3.12,4.52a.75.75,0,0,0,.71.34Zm-76.14,0h4.71a.65.65,0,0,0,.69-.63h0c.28-5.67.16-32.67,0-36.93,0-.37-.17-.51-.42-.54a23.23,23.23,0,0,0-5.4.15.42.42,0,0,0-.33.41c-.25,11-.08,36.32,0,36.8a.74.74,0,0,0,.74.74h0Z"/><path class="cls-2" d="M45.48,44.76a4.08,4.08,0,0,1-4-2.79.66.66,0,0,0-.06-.2,4.28,4.28,0,0,1,2.77-5.22l34.9-11.7a4.77,4.77,0,0,1,1.3-.21A4.17,4.17,0,0,1,84.5,27.5l0,.17a4.17,4.17,0,0,1-2.92,5L46.9,44.51A4.29,4.29,0,0,1,45.48,44.76Z"/><path class="cls-3" d="M51.31,61.93a4.07,4.07,0,0,1-4-2.75.26.26,0,0,0-.06-.2A4.3,4.3,0,0,1,50,53.71L85,41.91a4.6,4.6,0,0,1,1.38-.24,4.25,4.25,0,0,1,4.08,2.83l0,.18A4.4,4.4,0,0,1,90,48.23a6,6,0,0,1-2.08,1.46l-35.09,12A4.69,4.69,0,0,1,51.31,61.93Z"/><path class="cls-4" d="M80.38,62a4.3,4.3,0,0,1-4.11-2.92L64.61,24.47l-.06-.2a4.29,4.29,0,0,1,6-5,4.24,4.24,0,0,1,2.16,2.5L84.42,56.37v.11a4.29,4.29,0,0,1-2.81,5.36,4.47,4.47,0,0,1-1.26.19Z"/><path class="cls-5" d="M63.06,67.84A4.28,4.28,0,0,1,59,64.91L47.28,30.29A4.29,4.29,0,0,1,50,24.86h0a4.64,4.64,0,0,1,1.33-.23,4.28,4.28,0,0,1,4.11,2.93L67.07,62.18a4.28,4.28,0,0,1-2.68,5.43h0a4,4,0,0,1-1.33.23Z"/><path class="cls-6" d="M74.63,54.21l8.13-2.78-2.65-7.89L72,46.31Z"/><path class="cls-7" d="M57.33,60.12l8.13-2.77-2.68-8-8.13,2.74Z"/><path class="cls-8" d="M68.85,37,77,34.25l-2.62-7.8-8.14,2.73Z"/><path class="cls-9" d="M51.55,43l8.12-2.77L57,32.3,48.87,35Z"/></svg>