<svg id="Layer_1" data-name="Layer 1" xmlns="http://www.w3.org/2000/svg" viewBox="0 0 250 80"><defs><style>.cls-1{fill:#231f20;}.cls-2{fill:#fbb040;}.cls-3{fill:#2d2d2d;}</style></defs><title>victorops-logo</title><path class="cls-1" d="M205.19,47.43c-2.5,0-3.71-2.26-3.71-4.56,0-3.3,1.8-4.71,3.71-4.71,2.21,0,3.71,1.86,3.71,4.71s-1.72,4.56-3.71,4.56ZM182,46.8c-3.93,0-7.1-3.41-7.1-7.94a7.27,7.27,0,0,1,7.1-7.6c3.93,0,7.09,3.26,7.09,7.6,0,4.53-3.15,7.94-7.09,7.94Zm-36.66.59a4.3,4.3,0,0,1-4.3-4.6,4.32,4.32,0,1,1,8.61,0A4.31,4.31,0,0,1,145.29,47.39Zm76.92-9.56A4.37,4.37,0,0,1,226,39.71l2.5-5s-1.83-1.88-6.25-1.88c-4.06,0-7.68,1.85-8.12,5-1.34-3.14-2.49-5-7.51-5s-5.62,2.5-5.62,2.5V33.48h-5.62l0,2a13.06,13.06,0,0,0-13.09-10.13,13.71,13.71,0,0,0-13.31,9.12l.18-1.59h-.92c-2.83,0-5.33,2.47-5.95,5V33.46H156v9.3c0-6-4.71-9.9-10.69-9.9s-10.78,3.93-10.78,9.93c0,1.48.44,4.41.15,4.41-1.21,0-3.13-.35-3.13-2.5V38.45h3.75v-5h-3.75v-5h-6.25v5h-2.5V34.7A12.91,12.91,0,0,0,116,32.82a9.36,9.36,0,0,0-9.38,6.3V33.45h-6.25V52.83h6.25V46.6c.4,2.65,4.34,6.23,9.38,6.23a12.21,12.21,0,0,0,8.38-3.24L122,45.1s-2.8,2.11-5.44,2.11a4.24,4.24,0,0,1-4.49-4.56,4.38,4.38,0,0,1,4.53-4.56A6.83,6.83,0,0,1,121.06,40l1.77-2.74v1.25h2.5v6.88c0,6.41,5.09,7.5,8.1,7.5h1.9V47.22c1.69,3.45,5.65,5.62,10,5.62,5.95,0,10.68-4.05,10.7-10l-.08,10h6.25l.19-7.78a8.8,8.8,0,0,1,.33-2.6,4.78,4.78,0,0,1,4.89-3.33l.59,0a13.8,13.8,0,0,0,14,13.68,13.38,13.38,0,0,0,13.13-10.62v17.5H201V51a11,11,0,0,0,5.63,1.87c5,0,8.75-3.95,8.75-10,0-.37,0-.91,0-1.26,2.29,3.26,7.83,3.75,7.83,5.08,0,.63-.92.89-1.88.89a7.05,7.05,0,0,1-4.7-2.22l-3.13,5a14.91,14.91,0,0,0,8.13,2.5c4.89,0,7.5-2.88,7.5-6.14,0-6.15-8.75-6.12-8.75-7.56,0-.67.93-1.3,1.88-1.3ZM100.33,31h6.25V26H94.08L89.63,40.87c-.52,1.67-1,4.26-1,4.26s-.55-2.6-1.07-4.26L82.83,26H76l9.38,26.87h6.25l8.75-23.75V31Z"/><path class="cls-2" d="M72.83,39.7a25,25,0,1,1-25-25A25,25,0,0,1,72.83,39.7Z"/><path class="cls-3" d="M59.7,40.5,58,37.65l3.49-5-9.65,4.67L51.69,36l2.82-4.6-.41-.75,1.3-5.41-5,5.33-.3-2.94,1.51-4.41-2,.68-1.76-5.4L46,23.85l-2-.68,1.51,4.41-.3,2.94-5-5.33,1.3,5.41-.41.75L43.88,36l-.19,1.41L34,32.69l3.49,5L35.88,40.5l7.4,3.75.12,1.25-5.62-1.78,2.83,3.54.23,1.13,3.44,1.55L44.63,51l-1.54-.66,4.16,4.84V61h1.08V55.18l4.16-4.84L51,51l.35-1.06,3.44-1.55L55,47.26l2.81-3.54L52.18,45.5l.11-1.25L59.7,40.5Z"/></svg>