<svg xmlns="http://www.w3.org/2000/svg" xmlns:xlink="http://www.w3.org/1999/xlink" viewBox="0 0 300 300"><symbol id="a" viewBox="-40 -40 80 80"><path fill="#59b4d9" fill-rule="evenodd" d="M24.3 31.8C17.1 37.3 8.5 40 0 40c-12 0-23.9-5.4-31.8-15.7-13.4-17.5-10.1-42.6 7.5-56.1C-17.1-37.3-8.5-40 0-40c12 0 23.9 5.4 31.8 15.7 13.4 17.5 10 42.6-7.5 56.1" clip-rule="evenodd"/><path fill="#fff" fill-rule="evenodd" d="M10.8 5.2c2.9 3.8 8.3 4.5 12.1 1.6l.5-.5c3.9 2.7 6.5 4.5 8 5.5.4-1.2.8-2.3 1.1-3.4-1.6-1.2-3.7-2.8-6.9-5.4 1-2.7.7-5.8-1.2-8.3-2.7-3.5-7.4-4.3-11.1-2.2C9.3-11.1 4.8-15.3.1-20c14.7-7.9 25.1-6.7 25.1-6.7-1.7-2.2-3.7-4.2-5.8-5.9-6.2-1-15.8-.8-26.8 5-3.7-3.8-7.4-7.9-11.2-12.3-1.8.6-3.6 1.3-5.3 2.2 2.8 4.6 6.6 9.2 10.8 13.7-3.5 2.5-7.5 5.8-11.1 9.6-.5.5-.9 1-1.3 1.5-2.2-.5-4.5-.3-6.6.5-3.6-7.8-3.3-14.1-2.8-17.3-1.6 1.6-3 3.4-4.3 5.2-.9 3.9-1.2 9.4 1.6 16.2-3.2 4.2-3.4 10.2 0 14.6.3.4.6.7.9 1-1.5 5-2.1 9.9-2.3 14 .4.5.4.9.8 1.4 1.9 2.5 4.3 4.5 6.7 6.4-.3-4.4 0-10.9 2.7-18.2 1.9.1 3.8-.2 5.6-.9 1 .9 2.1 1.8 3.2 2.7 3.9 3.1 7.8 5.5 11.7 7.4-.2 1.9.3 4 1.5 5.6 2.7 3.5 7.7 4.1 11.2 1.5.7-.6 1.3-1.2 1.8-1.9 6.2 1.4 11.7 1.6 15.7 1.6.6 0 3.5-3.9 5.1-6.3-2.5.5-9.7 1.5-19.7-1.3-.3-1.2-.7-2.3-1.5-3.2-2.5-3.3-7.1-4-10.6-1.8-3.5-1.9-7.1-4.2-10.8-7.2-.8-.6-1.5-1.2-2.2-1.8 2.3-3.6 2.5-8.2.5-12.1l1.4-1.4c3.7-3.5 7.2-6.2 10.4-8.4l-.4-.4c.1.1.3.2.4.4 5 4.6 10.3 9 15.3 12.9-1.2 2.8-1 6.2 1 8.9z" clip-rule="evenodd" transform="translate(6.1538 1.8451)"/></symbol><use width="80" height="80" x="-40" y="-40" overflow="visible" transform="translate(149.8293 149.6585) scale(3.7375)" xlink:href="#a"/></svg>