<svg xmlns="http://www.w3.org/2000/svg" xmlns:xlink="http://www.w3.org/1999/xlink" id="Layer_1" viewBox="0 0 300 240"><style>.st0{fill-rule:evenodd;clip-rule:evenodd;fill:#0078d7}</style><symbol id="YXCc0fqvuaxz8mTN5-mupR.sym" viewBox="-50 -40 100 80"><g id="j4rxo6nw8jr_1_"><path id="j4rxo6mh8jn_1_" d="M-50-14.7h37.7V-40H-50v25.3zm27.1-7.4L-30-18v-8.3l7.1-4.1v8.3zm-7.8-13.5l7.1 4.1-7.1 4.1-7.1-4.1 7.1-4.1zm-7.6 5.3l7.1 4.1v8.3l-7.1-4.1v-8.3z" class="st0" transform="translate(32.8735 18.8505)"/><path id="j4rxo6nd8jo_1_" d="M45.6-40h-91.3c-2.5 0-4.4 2.1-4.4 4.4v71.3c0 2.5 2.1 4.4 4.4 4.4h91.3c2.5 0 4.4-2.1 4.4-4.4v-71.3c0-2.3-1.8-4.4-4.4-4.4zM-.3 26.2l-2.8 8.3v.2l-.2.2H-5.7h-.2v-.2l-2.8-8.3v-.7H-6.9v.2l2.3 7.1 2.3-7.1v-.2l.2-.2h1.4v.2c.6.3.6.5.4.5zm12.1 8.5c-.2.2-.5.2-.5.2h-1.2-.2v-7.8l-2.5 7.6v.2H7 5.6v-.2l-2.8-7.6v7.8h-.4H1v-8.5c0-.2 0-.4.3-.4.2-.2.2-.2.5-.2h1.6c.2 0 .2 0 .5.2l.1.2c0 .2.2.2.2.5l2.1 5.5 2.1-5.5c0-.2.2-.5.2-.5 0-.2.3-.2.3-.2s.2-.2.5-.2h2.1s.2 0 .2.2c0 0 0 .2.2.2v8.5zM23.6 4.8c0 1.4-1.1 2.3-2.3 2.3H7.5c-1.4 5.3-.7 6 8.5 6v2.3H-12.7v-2.3c8.3 0 9.7-.7 8.5-6h-13.6c-1.4 0-2.3-1.1-2.3-2.3v-26.7c0-1.4 1.1-2.5 2.3-2.5h39.1c1.4 0 2.3 1.1 2.3 2.5V4.8z" class="st0"/></g></symbol><use width="100" height="80" x="-50" y="-40" overflow="visible" transform="translate(150 120) scale(2.9704)" xlink:href="#YXCc0fqvuaxz8mTN5-mupR.sym"/></svg>