<svg xmlns="http://www.w3.org/2000/svg" xmlns:xlink="http://www.w3.org/1999/xlink" viewBox="0 0 300 266.8"><symbol id="a" viewBox="-45 -40 90 80"><path fill="#0078d7" fill-rule="evenodd" d="M31.7-8.6h-5.9v-28.6c0-1.5-1.3-2.8-2.7-2.8h-65.4c-1.4 0-2.7 1.3-2.7 2.8v57c0 1.5 1.3 2.8 2.7 2.8h37.1L4.5 40h27.1L45 15.7 31.7-8.6zM7.5-23.7h13.1v8.2H7.5v-8.2zm13.1 11v4.1H7.5v-4.1h13.1zm-28.8-11h13v8.2h-13v-8.2zm0 11h13v4.1h-.3L2.2-4.5H-8.4v-8.2h.2zm0 10.8h9l-4.5 8.2h-4.5v-8.2zm3 10.7l-3 5.4V8.8h3zM-26.5 17h-13.1V8.8h13.1V17zm0-10.8h-13.1V-2h13.1v8.2zm0-10.9h-13.1v-8.2h13.1v8.2zm0-10.8h-13.1v-8.2h13.1v8.2zM-10.8 17h-13.1V8.8h13.1V17zm0-10.8h-13.1V-2h13.1v8.2zm0-10.9h-13.1v-8.2h13.1v8.2zm0-10.8h-13.1v-8.2h13.1v8.2zM-8.2 17v-.2.2z" clip-rule="evenodd"/></symbol><use width="90" height="80" x="-45" y="-40" overflow="visible" transform="translate(149.6483 134.0435) scale(3.3333)" xlink:href="#a"/></svg>