<svg xmlns="http://www.w3.org/2000/svg" xmlns:xlink="http://www.w3.org/1999/xlink" id="Layer_1" viewBox="0 0 300 175"><style>.st0,.st1{fill-rule:evenodd;clip-rule:evenodd;fill:#3999c6}.st1{fill:#7fba00}</style><symbol id="e1o2XYvlGpNaRDkI2mZwep.sym" viewBox="-70 -40 140 80"><g id="j4rxt1ti925_1_"><path id="j4rxt1qh91v_1_" d="M-26.7 2c1.4-1.4 1.1-3.6 0-5l-6.7-6.7L-63.6-39c-1.4-1.4-3.4-1.4-4.8 0s-1.7 3.6 0 5l31.6 31c1.4 1.4 1.4 3.6 0 5L-69 34c-1.4 1.4-1.4 3.6 0 5s3.6 1.1 4.8 0l29.9-29.5.3-.3 7.3-7.2z" class="st0" transform="translate(95.7901911 .000025)"/><path id="j4rxt1r591w_1_" d="M-69.1 2c-1.4-1.4-1.1-3.6 0-5l6.7-6.7L-32.2-39c1.4-1.4 3.4-1.4 4.8 0s1.7 3.6 0 5l-31 31c-1.4 1.4-1.4 3.6 0 5l31.6 32c1.4 1.4 1.4 3.6 0 5s-3.6 1.1-4.8 0L-62.1 9.8l-.3-.3-6.7-7.5z" class="st0" transform="translate(-.0000089 .0001)"/><path id="j4rxt1rm91x_1_" d="M-51-30.8c0 5.3-4.5 9.2-9.2 9.2-4.8 0-9.8-4.5-9.8-9.2 0-4.7 3.9-9.2 9.8-9.2 5.6 0 9.2 4.5 9.2 9.2z" class="st1" transform="translate(31.9786 30.2994)"/><path id="j4rxt1s591y_1_" d="M-51-30.8c0 5.3-4.5 9.2-9.2 9.2-4.8 0-9.8-4.5-9.8-9.2 0-4.7 4.5-9.2 9.8-9.2 5.3 0 9.2 4.5 9.2 9.2z" class="st1" transform="translate(60.2151 30.2993)"/><path id="j4rxt1sq91z_1_" d="M-70-30.8c0-5.1 4.1-9.2 9.2-9.2s9.2 4.1 9.2 9.2-4.1 9.2-9.2 9.2-9.2-4.1-9.2-9.2z" class="st1" transform="translate(89.2903 30.2993)"/></g></symbol><use width="140" height="80" x="-70" y="-40" overflow="visible" transform="matrix(2.1222 0 0 2.1486 149.6205 88.1555)" xlink:href="#e1o2XYvlGpNaRDkI2mZwep.sym"/></svg>