<svg xmlns="http://www.w3.org/2000/svg" id="Objects" viewBox="0 0 800 800"><style>.st0{fill:none;stroke:#4b4b4b;stroke-width:1.6606;stroke-miterlimit:10}.st2{fill:#697fa5}.st15{fill:#fff}.st16{fill:#d1985e}.st18{fill:none;stroke:#fff;stroke-miterlimit:10}</style><path d="M632.9 547.5l43.1 44.4M644.1 263l-54.6 35.9M581.2 515c20.4-33.4 32.2-72.7 32.2-114.7 0-36.6-8.9-71.1-24.7-101.4M394.9 577.9c48.5-1.7 89.9-23 121.2-56.1 30.2-32.1 48.8-75.3 48.8-122.8M632.9 549c26.7-43.2 43.8-100.4 43.8-154.9 0-47.7-11.8-92.6-32.6-132M393.4 739.7c65 0 125.7-18.2 177.4-49.8 41.9-25.6 77.8-60 105.2-100.6" class="st0"/><path fill="#a3699c" d="M598.2 400.3c0-18.4-14.9-33.3-33.3-33.3s-33.3 14.9-33.3 33.3 14.9 33.3 33.3 33.3 33.3-14.9 33.3-33.3z"/><path d="M646.5 546.5c0-7.5-6.1-13.6-13.6-13.6s-13.6 6.1-13.6 13.6 6.1 13.6 13.6 13.6 13.6-6.1 13.6-13.6zM600 298.9c0-5.8-4.7-10.5-10.5-10.5s-10.5 4.7-10.5 10.5 4.7 10.5 10.5 10.5 10.5-4.7 10.5-10.5z" class="st2"/><path fill="#21a5a5" d="M708.6 591.9c0-18-14.6-32.6-32.6-32.6s-32.6 14.6-32.6 32.6 14.6 32.6 32.6 32.6 32.6-14.6 32.6-32.6z"/><path fill="#4a7fdd" d="M676.7 262.1c0-18.4-14.9-33.3-33.3-33.3s-33.3 14.9-33.3 33.3 14.9 33.3 33.3 33.3 33.3-14.9 33.3-33.3z"/><path fill="#6aa369" d="M606.7 513.2c0-13.6-11-24.7-24.7-24.7s-24.7 11-24.7 24.7c0 13.6 11 24.7 24.7 24.7s24.7-11.1 24.7-24.7z"/><path d="M395.4 577.9v161.8" class="st0"/><path fill="#0fa9f1" d="M440.9 739.7c0-25.2-20.4-45.6-45.6-45.6s-45.6 20.4-45.6 45.6c0 25.2 20.4 45.6 45.6 45.6 25.2-.1 45.6-20.5 45.6-45.6z"/><path d="M202.6 187.1l62.6 78.6M110.2 397.1h-63M513.2 273.1c-32.5-32.8-77.5-53.2-127.3-53.2-47.2 0-90.1 18.3-122.1 48.1M110.2 394.1c0-62.9 20-121.4 55.2-168 21.7-28.7 37.2-39 37.2-39M734.1 399c0-59.6-15.3-115.6-42.2-164.3C667.3 190 633 151.5 591.8 122M52.8 399c0 52 11.7 101.4 32.5 145.5 18.8 39.7 45 75.2 76.9 104.7 13.6 12.6 28.2 24 43.6 34.2M249.5 637.8l-43.7 45.6" class="st0"/><path fill="#d15e93" d="M123.8 397.1c0-7.5-6.1-13.6-13.6-13.6s-13.6 6.1-13.6 13.6 6.1 13.6 13.6 13.6 13.6-6.1 13.6-13.6z"/><path fill="#d15e5e" d="M275.7 265.7c0-5.8-4.7-10.5-10.5-10.5s-10.5 4.7-10.5 10.5 4.7 10.5 10.5 10.5 10.5-4.7 10.5-10.5z"/><path fill="#cc8621" d="M785 399c0-28.1-22.8-50.9-50.9-50.9-28.1 0-50.9 22.8-50.9 50.9s22.8 50.9 50.9 50.9S785 427.1 785 399z"/><path fill="#5ecfd1" d="M240 187.1c0-20.7-16.7-37.4-37.4-37.4s-37.4 16.7-37.4 37.4 16.7 37.4 37.4 37.4 37.4-16.8 37.4-37.4z"/><ellipse cx="52.8" cy="399" fill="#323ace" rx="38.3" ry="38.3" transform="matrix(.9996 -.02892 .02892 .9996 -11.5176 1.694)"/><path fill="#abce19" d="M244.9 683.4c0-21.6-17.5-39.1-39.1-39.1s-39.1 17.5-39.1 39.1 17.5 39.1 39.1 39.1c21.6-.1 39.1-17.5 39.1-39.1z"/><path d="M250 638.4c42.1 24.8 91.1 38.9 143.4 38.9 44.8 0 87.1-10.4 124.8-28.9" class="st0"/><path fill="#7d5ed1" d="M263.1 637.8c0-7.5-6.1-13.6-13.6-13.6s-13.6 6.1-13.6 13.6 6.1 13.6 13.6 13.6 13.6-6.1 13.6-13.6z"/><path fill="#5ed187" d="M557.7 648.8c0-21.8-17.7-39.5-39.5-39.5s-39.5 17.7-39.5 39.5 17.7 39.5 39.5 39.5 39.5-17.7 39.5-39.5z"/><path d="M591.8 122l-84.1 147.8" class="st0"/><path d="M211.7 676.2v-3.5h-2.8c-.2-1.1-.4-2.2-.9-3.2l2.4-1.4-1.8-3-2.4 1.4c-.7-.9-1.5-1.7-2.4-2.4l1.4-2.4-3-1.8-1.4 2.4c-1-.4-2.1-.7-3.2-.9v-2.8h-3.5v2.8c-1.1.2-2.2.4-3.2.9l-1.4-2.4-3 1.8 1.4 2.4c-.9.7-1.7 1.5-2.4 2.4l-2.4-1.4-1.8 3 2.4 1.4c-.4 1-.7 2.1-.9 3.2H180v3.5h2.8c.2 1.1.4 2.2.9 3.2l-2.4 1.4 1.8 3 2.4-1.4c.7.9 1.5 1.7 2.4 2.4l-1.4 2.4 3 1.8 1.4-2.4c1 .4 2.1.7 3.2.9v2.8h3.5v-2.8c1.1-.2 2.2-.4 3.2-.9l1.4 2.4 3-1.8-1.4-2.4c.9-.7 1.7-1.5 2.4-2.4l2.4 1.4 1.8-3-2.4-1.4c.4-1 .7-2.1.9-3.2h2.8zm-23.7-1.7c0-4.4 3.6-8 8-8s8 3.6 8 8-3.6 8-8 8-8-3.6-8-8zM507.6 637.6c5.4-5.1 13.5-5.6 19.5-1.7-2.1 2-4.6 4.3-4.6 4.3-1.7 2 .1 3.2 1.1 3.2l11.1.3h2.2l2.2.1c.6 0 1.1-.4 1.1-1l.5-15.3c.1-1.4-1.4-2.8-3-1.3 0 0-2.7 2.5-4.6 4.2-9.1-7.1-22.2-6.7-30.8 1.5-5 4.7-7.5 11.2-7.4 17.6l7.9.2c-.2-4.4 1.4-8.8 4.8-12.1M533.7 648c.2 4.4-1.5 8.8-4.9 12.1-5.4 5.1-13.5 5.6-19.5 1.7 2.1-2 4.6-4.3 4.6-4.3 1.7-1.9-.1-3.2-1.1-3.2l-11.1-.3h-2.2l-2.2-.1c-.6 0-1.1.4-1.1 1l-.5 15.3c-.1 1.4 1.4 2.8 3 1.3 0 0 2.7-2.5 4.6-4.2 9.1 7.1 22.2 6.7 30.8-1.5 5-4.7 7.5-11.2 7.4-17.6l-7.8-.2zM235.9 690.5v-2.3H234c-.1-.8-.3-1.5-.6-2.2l1.6-.9-1.2-2-1.6.9c-.5-.6-1-1.1-1.6-1.6l.9-1.6-2-1.2-.9 1.6c-.7-.3-1.4-.5-2.2-.6v-1.9h-2.3v1.9c-.8.1-1.5.3-2.2.6l-.9-1.6-2 1.2.9 1.6c-.6.5-1.1 1-1.6 1.6l-1.6-.9-1.2 2 1.6.9c-.3.7-.5 1.4-.6 2.2h-1.9v2.3h1.9c.1.8.3 1.5.6 2.2l-1.6.9 1.2 2 1.6-.9c.5.6 1 1.1 1.6 1.6l-.9 1.6 2 1.2.9-1.6c.7.3 1.4.5 2.2.6v1.9h2.3v-2c.8-.1 1.5-.3 2.2-.6l.9 1.6 2-1.2-.9-1.6c.6-.5 1.1-1 1.6-1.6l1.6.9 1.2-2-1.6-.9c.3-.7.5-1.4.6-2.2l1.9.1zm-15.9-1.2c0-2.9 2.4-5.3 5.3-5.3s5.3 2.4 5.3 5.3-2.4 5.3-5.3 5.3c-3 0-5.3-2.3-5.3-5.3zM213 704v-1.8h-1.4c-.1-.6-.2-1.1-.4-1.6l1.2-.7-.9-1.5-1.2.7c-.3-.4-.7-.9-1.2-1.2l.7-1.2-1.5-.9-.7 1.2c-.5-.2-1.1-.4-1.6-.4v-1.4h-1.8v1.4c-.6.1-1.1.2-1.6.4l-.7-1.2-1.5.9.7 1.2c-.4.3-.8.7-1.2 1.2l-1.2-.7-.9 1.5 1.2.7c-.2.5-.4 1.1-.4 1.6H197v1.8h1.4c.1.6.2 1.1.4 1.6l-1.2.7.9 1.5 1.2-.7c.3.4.7.9 1.2 1.2l-.7 1.2 1.5.9.7-1.2c.5.2 1.1.4 1.6.4v1.4h1.8v-1.4c.6-.1 1.1-.2 1.6-.4l.7 1.2 1.5-.9-.7-1.2c.4-.3.8-.7 1.2-1.2l1.2.7.9-1.5-1.2-.7c.2-.5.4-1.1.4-1.6h1.6zm-12-.9c0-2.2 1.8-4 4-4s4 1.8 4 4-1.8 4-4 4-4-1.8-4-4z" class="st15"/><path d="M541 268.1c0-18.4-14.9-33.3-33.3-33.3s-33.3 14.9-33.3 33.3 14.9 33.3 33.3 33.3 33.3-14.9 33.3-33.3z" class="st16"/><path fill="#11a2ce" d="M640.1 122c0-26.7-21.6-48.3-48.3-48.3s-48.3 21.6-48.3 48.3 21.6 48.3 48.3 48.3c26.6 0 48.3-21.7 48.3-48.3z"/><g><path d="M572.9 108.2h9.2v34.5h-9.2zM586.7 124.5h10.4v18.2h-10.4zM601.7 115.8h9.2v26.9h-9.2z" class="st15"/><path d="M564.9 142.7h53.5M564.9 142.7V96.2" class="st18"/></g><g><path d="M200.5 399h70.8M393.4 180.3c-38.2 0-74.1 9.7-105.4 26.8-43.4 23.7-77.9 61.7-97.4 107.5-11.1 26.3-17.3 55.3-17.3 85.6M393.4 58.3v122M271.3 399c0 53.8 34.8 99.4 83.1 115.7M354.4 518.1l-55.8 80.8M203 510.6c22.2 38.2 55.5 69.1 95.6 88.3M393.4 58.3c-67.7 0-130.8 19.7-183.8 53.8-33.6 21.6-63.2 48.9-87.4 80.6" class="st0"/><path fill="#4dbd99" d="M312.2 597.7c0-7.5-6.1-13.6-13.6-13.6s-13.6 6.1-13.6 13.6 6.1 13.6 13.6 13.6 13.6-6.1 13.6-13.6z"/><path d="M281.3 399c0-5.8-4.7-10.5-10.5-10.5s-10.5 4.7-10.5 10.5 4.7 10.5 10.5 10.5 10.5-4.7 10.5-10.5z" class="st16"/><path fill="#bc4d63" d="M439 58.3c0-25.2-20.4-45.6-45.6-45.6s-45.6 20.4-45.6 45.6 20.4 45.6 45.6 45.6c25.2 0 45.6-20.4 45.6-45.6z"/><path fill="#0ec683" d="M155.6 192.7c0-18.4-14.9-33.3-33.3-33.3S89 174.3 89 192.7s14.9 33.3 33.3 33.3 33.3-14.9 33.3-33.3z"/><path fill="#afbc4d" d="M419 180.3c0-14.1-11.5-25.6-25.6-25.6s-25.6 11.5-25.6 25.6 11.5 25.6 25.6 25.6c14.2 0 25.6-11.5 25.6-25.6z"/><path fill="#bc1717" d="M246.3 510.6c0-24.1-19.6-43.7-43.7-43.7s-43.7 19.6-43.7 43.7 19.6 43.7 43.7 43.7c24.1-.1 43.7-19.6 43.7-43.7z"/><path fill="#d3dd14" d="M382.3 516c0-13.6-11-24.7-24.7-24.7-13.6 0-24.7 11-24.7 24.7 0 13.6 11 24.7 24.7 24.7 13.7-.1 24.7-11.1 24.7-24.7z"/><path d="M200.6 400.3c0-15-12.2-27.2-27.2-27.2s-27.2 12.2-27.2 27.2 12.2 27.2 27.2 27.2c15.1 0 27.2-12.2 27.2-27.2z" class="st2"/><path d="M138.2 178.2h-31.8c-2.7 0-4.9 2.2-4.9 4.9v17.1c0 2.7 2.2 4.9 4.9 4.9h2.4v8.6c0 .3.1.6.4.9.5.5 1.3.5 1.7 0l10.1-9.4h17.1c2.7 0 4.9-2.2 4.9-4.9v-17.1c.1-2.8-2.1-5-4.8-5m-28.1 7.3h19.6c.7 0 1.2.5 1.2 1.2s-.5 1.2-1.2 1.2h-19.6c-.7 0-1.2-.5-1.2-1.2-.1-.6.5-1.2 1.2-1.2m9.8 12.3h-9.8c-.7 0-1.2-.5-1.2-1.2s.5-1.2 1.2-1.2h9.8c.7 0 1.2.5 1.2 1.2 0 .6-.6 1.2-1.2 1.2m14.6-4.9H110c-.7 0-1.2-.5-1.2-1.2s.5-1.2 1.2-1.2h24.5c.7 0 1.2.5 1.2 1.2.1.6-.5 1.2-1.2 1.2M647.5 260.4l15.5-6.7c-2.8-5.8-8.7-9.9-15.5-10.2v16.9zM642.5 264v-18.2c-9.6.4-17.3 8.3-17.3 18 0 9.9 8 18 18 18 3.5 0 6.7-1 9.5-2.7l.5-.4.1-.1-10.8-14.6z" class="st15"/><path d="M664.7 263.7c0-2.3-.4-4.4-1.2-6.4l-15.7 6.8 10.2 13.6c4.1-3.3 6.7-8.3 6.7-14z" class="st15"/></g><g><path d="M35.8 407.6H33v-17.1h9.7v2.4h-6.9v5.4h6.5v2.4h-6.5v6.9zM52.9 407.6h-2.8v-14.7h-5v-2.4H58v2.4h-5l-.1 14.7zM73.2 395.7c0 1.8-.6 3.2-1.8 4.1s-2.8 1.4-5 1.4h-1.8v6.4h-2.8v-17.1h4.9c2.1 0 3.7.4 4.8 1.3s1.7 2.2 1.7 3.9zm-8.6 3.2h1.5c1.4 0 2.5-.3 3.2-.8s1-1.3 1-2.3-.3-1.7-.9-2.2-1.5-.7-2.8-.7h-1.9l-.1 6z" class="st15"/></g><path d="M219.6 200.7c-3.3-3.3-4.9-7.1-4.9-11.5v-6.4c0-4.9-3.3-8.1-6-9.3-.8-.3-1.6-.7-2.5-.9v-.3c0-1.8-1.1-3.3-2.9-3.6-2.3-.5-4.3 1.3-4.3 3.5v.5c-.8.2-1.5.5-2.2.8-3.1 1.4-6.3 4.9-6.4 9.3v6.4c0 4.5-1.6 8.5-4.7 11.5-.2.2-.3.5-.1.7.1.3.3.4.5.5l6.7 1.1c1.3.2 2.4.4 3.5.5 1.2 2.4 3.7 4 6.4 4 2.6 0 5.2-1.5 6.4-4 1.1-.1 2.3-.3 3.5-.5l6.7-1.1c.3-.1.5-.2.5-.5.1-.3 0-.5-.2-.7zM759 381c-1.2-4.3-9.8-8.5-24.9-8.5-15.1 0-23.7 4.2-24.9 8.5-.1.1-.1.3-.1.5v37c0 .2 0 .3.1.5 1.2 4.9 11.7 8.5 24.9 8.5 13.1 0 23.7-3.6 24.9-8.5.1-.1.1-.3.1-.5v-37c0-.2 0-.3-.1-.5zm-2 25.5c0 .1-.1.2-.1.4 0 .1-.1.2-.1.3-.1.1-.1.2-.2.4-.1.1-.1.2-.2.3-.1.1-.2.3-.4.4-.1.1-.2.2-.3.2-.2.1-.3.3-.5.4-.1.1-.2.1-.3.2-.2.2-.5.3-.7.5-.1 0-.1.1-.2.1-.3.2-.6.3-.9.5 0 0-.1 0-.1.1-.4.2-.8.4-1.2.5-2.3.9-5.2 1.7-8.6 2.2h-.1c-.7.1-1.3.2-2 .3h-.3c-.6.1-1.2.1-1.8.2h-.9c-.5 0-.9.1-1.4.1h-4.8c-.5 0-1 0-1.4-.1h-.9c-.6 0-1.2-.1-1.8-.2h-.3c-.7-.1-1.4-.2-2-.3h-.1c-3.4-.5-6.3-1.3-8.6-2.2-.4-.2-.8-.3-1.2-.5 0 0-.1 0-.1-.1-.3-.2-.6-.3-.9-.5-.1 0-.1-.1-.2-.1-.3-.2-.5-.3-.7-.5-.1-.1-.2-.1-.3-.2-.2-.1-.4-.3-.5-.4s-.2-.2-.3-.2l-.4-.4c-.1-.1-.2-.2-.2-.3-.1-.1-.2-.2-.2-.4-.1-.1-.1-.2-.1-.3 0-.1-.1-.2-.1-.4s-.1-.3-.1-.5v-.3V397.9l.1.1c.2.2.4.4.7.6 3.8 2.8 11.3 5.1 22.2 5.1s18.4-2.2 22.2-5c.3-.2.6-.4.8-.7v7.4c0 .1-.1.3 0 .4v.3c-.4.1-.4.2-.5.4zm.1-20.7v7.4c0 .1-.1.3 0 .4v.3c0 .2 0 .3-.1.5 0 .1-.1.2-.1.4 0 .1-.1.2-.1.3-.1.1-.1.2-.2.4-.1.1-.1.2-.2.3-.1.1-.2.3-.4.4-.1.1-.2.2-.3.2-.2.1-.3.3-.5.4-.1.1-.2.1-.3.2-.2.2-.5.3-.7.5-.1 0-.1.1-.2.1-.3.2-.6.3-.9.5 0 0-.1 0-.1.1-.4.2-.8.4-1.2.5-2.3.9-5.2 1.7-8.6 2.2h-.1c-.7.1-1.3.2-2 .3h-.3c-.6.1-1.2.1-1.8.2h-.9c-.5 0-.9.1-1.4.1h-4.8c-.5 0-1 0-1.4-.1h-.9c-.6 0-1.2-.1-1.8-.2h-.3c-.7-.1-1.4-.2-2-.3h-.1c-3.4-.5-6.3-1.3-8.6-2.2-.4-.2-.8-.3-1.2-.5 0 0-.1 0-.1-.1-.3-.2-.6-.3-.9-.5-.1 0-.1-.1-.2-.1-.3-.2-.5-.3-.7-.5-.1-.1-.2-.1-.3-.2-.2-.1-.4-.3-.5-.4s-.2-.2-.3-.2l-.4-.4c-.1-.1-.2-.2-.2-.3-.1-.1-.2-.2-.2-.4-.1-.1-.1-.2-.1-.3 0-.1-.1-.2-.1-.4s-.1-.3-.1-.5v-.3V385.8c.1.1.3.2.4.3l.2.2c.3.2.6.5 1 .7.1 0 .2.1.2.1.3.2.6.4.9.5.1.1.2.1.4.2.4.2.7.4 1.2.5.1 0 .1.1.2.1l1.5.6c.1.1.3.1.4.1.4.1.8.3 1.3.4.2 0 .3.1.5.1.6.2 1.2.3 1.8.5.1 0 .2 0 .3.1.6.1 1.1.2 1.7.3.2 0 .4.1.6.1l1.8.3c.2 0 .3 0 .5.1.7.1 1.5.2 2.3.2h.6c.6 0 1.3.1 1.9.1h6.7c.7 0 1.3-.1 1.9-.1h.6c.8-.1 1.6-.1 2.3-.2.2 0 .3 0 .5-.1l1.8-.3c.2 0 .4-.1.6-.1.6-.1 1.2-.2 1.7-.3.1 0 .2 0 .3-.1.6-.1 1.2-.3 1.8-.5.2 0 .3-.1.5-.1.4-.1.9-.3 1.3-.4.1 0 .3-.1.4-.1l1.5-.6c.1 0 .1-.1.2-.1.4-.2.8-.4 1.2-.5.1-.1.2-.1.4-.2.3-.2.6-.4.9-.5.1 0 .2-.1.2-.1.4-.2.7-.5 1-.7l.2-.2c-.3-.1-.2-.2-.1-.3zm-23-11.3c13.6 0 23 4 23 7.5s-9.4 7.5-23 7.5-23-4-23-7.5 9.5-7.5 23-7.5zm23 43.7v.1c-.6 3.5-9.9 7.2-23 7.2s-22.4-3.7-23-7.2v-8.5l.1.1c.2.2.4.4.7.6 3.8 2.8 11.3 5.1 22.2 5.1s18.4-2.2 22.2-5c.3-.2.6-.4.8-.7v8.3zM414.9 30.8c-3.3 0-6 2.7-6 6 0 1 .3 2 .7 2.9l-9.8 9.8c-1.4-1.1-3.1-1.7-4.9-1.7s-3.5.6-4.9 1.7l-7.7-7.7c.4-.6.6-1.3.6-2 0-2.2-1.8-4-4-4s-4 1.8-4 4 1.8 4 4 4c.7 0 1.4-.2 2-.6l7.7 7.7c-1.1 1.4-1.7 3.1-1.7 4.9s.6 3.5 1.7 4.9L376 73.4c-1.1-1-2.5-1.6-4-1.6-3.3 0-6 2.7-6 6s2.7 6 6 6 6-2.7 6-6c0-1-.3-2-.7-2.9L390 62.1c1.1.9 2.4 1.4 3.9 1.6v10.2c-2.8.5-5 2.9-5 5.9 0 3.3 2.7 6 6 6s6-2.7 6-6c0-3-2.2-5.4-5-5.9V63.7c1.5-.2 2.8-.8 3.9-1.6l7.7 7.7c-.4.6-.6 1.3-.6 2 0 2.2 1.8 4 4 4s4-1.8 4-4-1.8-4-4-4c-.7 0-1.4.2-2 .6l-7.7-7.7c1.1-1.4 1.7-3.1 1.7-4.9s-.6-3.5-1.7-4.9l9.7-9.7c1.1 1 2.5 1.6 4 1.6 3.3 0 6-2.7 6-6s-2.7-6-6-6zm-38 9c0-1.1.9-2 2-2s2 .9 2 2-.9 2-2 2-2-.9-2-2zm-5 42c-2.2 0-4-1.8-4-4s1.8-4 4-4 4 1.8 4 4-1.8 4-4 4zm27-2c0 2.2-1.8 4-4 4s-4-1.8-4-4 1.8-4 4-4 4 1.8 4 4zm-4-18c-3.3 0-6-2.7-6-6s2.7-6 6-6 6 2.7 6 6-2.7 6-6 6zm18 10c0 1.1-.9 2-2 2s-2-.9-2-2 .9-2 2-2 2 .9 2 2zm2-31c-2.2 0-4-1.8-4-4s1.8-4 4-4 4 1.8 4 4-1.8 4-4 4z" class="st15"/><g><path d="M380.8 726.9c-2 0-3.5 1.6-3.5 3.5s1.6 3.5 3.5 3.5c2 0 3.5-1.6 3.5-3.5s-1.5-3.5-3.5-3.5zm0 5.5c-1.1 0-2-.9-2-2s.9-2 2-2 2 .9 2 2c0 1.2-.9 2-2 2z" class="st15"/><circle cx="411.9" cy="729.3" r=".8" class="st15"/><circle cx="408.8" cy="729.3" r=".8" class="st15"/><circle cx="413.5" cy="731.7" r=".8" class="st15"/><circle cx="410.4" cy="731.7" r=".8" class="st15"/><circle cx="405.6" cy="729.3" r=".8" class="st15"/><circle cx="407.2" cy="731.7" r=".8" class="st15"/><circle cx="402.5" cy="729.3" r=".8" class="st15"/><circle cx="404.1" cy="731.7" r=".8" class="st15"/><circle cx="399.3" cy="729.3" r=".8" class="st15"/><circle cx="400.9" cy="731.7" r=".8" class="st15"/><path d="M419.8 735.1v-9.3c0-2-1.6-3.6-3.6-3.6h-40c-2 0-3.6 1.6-3.6 3.6v9.3c0 1.2.6 2.2 1.4 2.8-.8.7-1.4 1.7-1.4 2.8v9.3c0 2 1.6 3.6 3.6 3.6h19.2v6.4c-1.5.3-2.8 1.5-3.1 3.1h-19c-.4 0-.8.4-.8.8s.4.8.8.8h19c.4 1.8 2 3.1 3.9 3.1s3.5-1.4 3.9-3.1h19c.4 0 .8-.4.8-.8s-.4-.8-.8-.8h-19c-.3-1.5-1.5-2.8-3.1-3.1v-6.4h19.2c2 0 3.6-1.6 3.6-3.6v-9.3c0-1.2-.6-2.2-1.4-2.8.8-.6 1.4-1.6 1.4-2.8zm-21.3 28.8c0 1.3-1.1 2.4-2.4 2.4s-2.4-1.1-2.4-2.4 1.1-2.4 2.4-2.4c1.4.1 2.4 1.1 2.4 2.4zm19.7-23.1v9.3c0 1.1-.9 2.1-2.1 2.1h-40c-1.1 0-2.1-.9-2.1-2.1v-9.3c0-1.1.9-2.1 2.1-2.1h40c1.2 0 2.1 1 2.1 2.1zm-42-3.6c-1.1 0-2.1-.9-2.1-2.1v-9.3c0-1.1.9-2.1 2.1-2.1h40c1.1 0 2.1.9 2.1 2.1v9.3c0 1.1-.9 2.1-2.1 2.1h-40z" class="st15"/><path d="M380.8 749c2 0 3.5-1.6 3.5-3.5s-1.6-3.5-3.5-3.5c-2 0-3.5 1.6-3.5 3.5s1.6 3.5 3.5 3.5zm0-5.5c1.1 0 2 .9 2 2s-.9 2-2 2-2-.9-2-2 1-2 2-2z" class="st15"/><circle cx="411.9" cy="744.3" r=".8" class="st15"/><circle cx="408.8" cy="744.3" r=".8" class="st15"/><circle cx="413.5" cy="746.6" r=".8" class="st15"/><circle cx="410.4" cy="746.6" r=".8" class="st15"/><circle cx="405.6" cy="744.3" r=".8" class="st15"/><circle cx="407.2" cy="746.6" r=".8" class="st15"/><circle cx="402.5" cy="744.3" r=".8" class="st15"/><circle cx="404.1" cy="746.6" r=".8" class="st15"/><circle cx="399.3" cy="744.3" r=".8" class="st15"/><circle cx="400.9" cy="746.6" r=".8" class="st15"/></g><g><path d="M687.7 599.6c-.1 0-.3-.1-.4-.2l-7-6.6c-.2-.2-.3-.6 0-.9.2-.2.6-.3.9 0l7 6.6c.2.2.3.6 0 .9-.1.2-.3.2-.5.2zM664.3 599.6c-.2 0-.3-.1-.4-.2-.2-.2-.2-.6 0-.9l7-6.6c.2-.2.6-.2.9 0 .2.2.2.6 0 .9l-7 6.6c-.2.2-.3.2-.5.2z" class="st15"/><path d="M691.9 605.8h-31.7c-1.7 0-3-1.4-3-3V582c0-1.7 1.4-3 3-3h31.7c1.7 0 3 1.4 3 3v20.8c0 1.6-1.3 3-3 3zm-31.7-25.7c-1 0-1.8.8-1.8 1.8v20.8c0 1 .8 1.8 1.8 1.8h31.7c1 0 1.8-.8 1.8-1.8v-20.8c0-1-.8-1.8-1.8-1.8h-31.7z" class="st15"/><path d="M676 595.4c-.8 0-1.6-.3-2.2-.8l-15.7-13.7c-.3-.2-.3-.6-.1-.9.2-.3.6-.3.9-.1l15.7 13.7c.8.7 2.1.7 2.9 0l15.6-13.6c.3-.2.6-.2.9.1.2.3.2.6-.1.9l-15.6 13.6c-.7.5-1.5.8-2.3.8z" class="st15"/></g><path d="M222.1 506.7c-.5-8.3-7.3-14.9-15.5-14.9-5 0-9.8 2.4-12.8 6.4-.1 0-.1-.1-.2-.1-.2-.1-.4-.2-.6-.2-.1 0-.2-.1-.3-.1-.2-.1-.4-.1-.6-.2-.1 0-.2-.1-.3-.1-.2 0-.4-.1-.6-.1h-.3c-.3 0-.6-.1-.9-.1-4.6 0-8.3 3.7-8.3 8.3v.3c-3.8 2.1-6.4 6.4-6.4 10.8 0 6.5 5.3 11.8 11.8 11.8H219.4c6.1 0 11-4.9 11-11 0-5.1-3.5-9.6-8.3-10.8zm-2.7 20h-32.3c-5.5 0-9.9-4.5-9.9-9.9 0-3.8 2.5-7.8 5.9-9.4l.5-.2v-.6-.7-.2c0-3.5 2.9-6.4 6.4-6.4.3 0 .6 0 .8.1h.2c.2 0 .5.1.7.2h.1c.3.1.5.2.8.3.1 0 .1.1.2.1.2.1.4.2.6.4 1.8 1.1 2.9 3.1 2.9 5.4 0 .5.4.9.9.9s.9-.4.9-.9c0-2.5-1.1-4.8-2.9-6.3 2.6-3.4 7-5.6 11.3-5.6 7.1 0 13 5.6 13.6 12.7-.9-.1-2.3-.1-3.7.1-.5.1-.8.5-.8 1 .1.5.5.8.9.8h.1c2-.3 4.2 0 4.3 0 4.3.8 7.5 4.7 7.5 9.2.2 4.8-4 9-9 9z" class="st15"/></svg>