<svg xmlns="http://www.w3.org/2000/svg" xmlns:xlink="http://www.w3.org/1999/xlink" viewBox="0 0 1243 955"><style>.st0,.st2,.st3,.st4{fill-rule:evenodd;clip-rule:evenodd;fill:#0078d7}.st2,.st3,.st4{fill:#fff}.st3,.st4{fill:#3999c6}.st4{fill:#7fba00}.st7{fill:#e05243}.st8{fill:#59b4d9}.st9{fill:#f68536}.st10{fill:#0078d7}.st11{fill:#5294cf}.st12{fill:#7fba00}.st13{fill:#8c3123}.st14{fill:#f58536}.st15{fill:#b8d432}.st19{fill:#2d72b8}.st22{fill-opacity:0}.st23{fill:#0072c6}.st25{fill:#fff}.st26,.st27,.st28,.st29,.st30,.st31,.st32,.st34{fill:none;stroke:#f58536;stroke-width:2;stroke-miterlimit:10;stroke-dasharray:8}.st27,.st28,.st29,.st30,.st31,.st32,.st34{stroke:#0078d7}.st28,.st29,.st30,.st31,.st32,.st34{stroke:#59b4d9}.st29,.st30,.st31,.st32,.st34{stroke:#8c3123}.st30,.st31,.st32,.st34{stroke:#5294cf}.st31,.st32,.st34{stroke:#f68536}.st32,.st34{stroke:#e05243}.st34{stroke:#b8d432}</style><symbol id="YXCc0fqvuaxz8mTN5-mupR.sym" viewBox="-50.1 -40.1 100.1 80.1"><g id="j4rxo6nw8jr_2_"><path id="j4rxo6mh8jn_2_" d="M-17.1 4.1h37.7v-25.3h-37.7V4.1zM10-3.3L2.9.8v-8.3l7.1-4.1v8.3zM2.2-16.8l7.1 4.1-7.1 4.1-7.1-4.1 7.1-4.1zm-7.6 5.3l7.1 4.1V.9l-7.1-4.1v-8.3z" class="st0"/><path id="j4rxo6nd8jo_2_" d="M45.7-40.1h-91.3c-2.5 0-4.4 2.1-4.4 4.4v71.3c0 2.5 2.1 4.4 4.4 4.4h91.3c2.5 0 4.4-2.1 4.4-4.4v-71.3c0-2.3-1.8-4.4-4.4-4.4zM-.2 26.1L-3 34.4v.2l-.2.2h-2.6v-.2l-2.8-8.3v-.7h1.8v.2l2.3 7.1 2.3-7.1v-.2l.2-.2h1.4v.2c.6.3.6.5.4.5zm12.1 8.5c-.2.2-.5.2-.5.2H10V27l-2.5 7.6v.2H5.7v-.2L2.9 27v7.8H1.1v-8.5c0-.2 0-.4.3-.4.2-.2.2-.2.5-.2h1.6c.2 0 .2 0 .5.2l.1.2c0 .2.2.2.2.5l2.1 5.5 2.1-5.5c0-.2.2-.5.2-.5 0-.1.3-.1.3-.1s.2-.2.5-.2h2.1s.2 0 .2.2c0 0 0 .2.2.2l-.1 8.4zM23.7 4.7c0 1.4-1.1 2.3-2.3 2.3H7.6c-1.4 5.3-.7 6 8.5 6v2.3h-28.7V13c8.3 0 9.7-.7 8.5-6h-13.6C-19.1 7-20 5.9-20 4.7V-22c0-1.4 1.1-2.5 2.3-2.5h39.1c1.4 0 2.3 1.1 2.3 2.5V4.7z" class="st0"/></g></symbol><symbol id="a" viewBox="-45 -40 90 80"><path d="M31.7-8.6h-5.9v-28.6c0-1.5-1.3-2.8-2.7-2.8h-65.4c-1.4 0-2.7 1.3-2.7 2.8v57c0 1.5 1.3 2.8 2.7 2.8h37.1L4.5 40h27.1L45 15.7 31.7-8.6zM7.5-23.7h13.1v8.2H7.5v-8.2zm13.1 11v4.1H7.5v-4.1h13.1zm-28.8-11h13v8.2h-13v-8.2zm0 11h13v4.1h-.3L2.2-4.5H-8.4v-8.2h.2zm0 10.8h9l-4.5 8.2h-4.5v-8.2zm3 10.7l-3 5.4V8.8h3zM-26.5 17h-13.1V8.8h13.1V17zm0-10.8h-13.1V-2h13.1v8.2zm0-10.9h-13.1v-8.2h13.1v8.2zm0-10.8h-13.1v-8.2h13.1v8.2zM-10.8 17h-13.1V8.8h13.1V17zm0-10.8h-13.1V-2h13.1v8.2zm0-10.9h-13.1v-8.2h13.1v8.2zm0-10.8h-13.1v-8.2h13.1v8.2zM-8.2 17v-.2.2z" class="st0"/></symbol><symbol id="a_2" viewBox="-40 -40 80 80"><path fill="#59b4d9" fill-rule="evenodd" d="M24.3 31.8C17.1 37.3 8.5 40 0 40c-12 0-23.9-5.4-31.8-15.7-13.4-17.5-10.1-42.6 7.5-56.1C-17.1-37.3-8.5-40 0-40c12 0 23.9 5.4 31.8 15.7 13.4 17.5 10 42.6-7.5 56.1" clip-rule="evenodd"/><path d="M17 7c2.9 3.8 8.3 4.5 12.1 1.6l.5-.5c3.9 2.7 6.5 4.5 8 5.5.4-1.2.8-2.3 1.1-3.4C37.1 9 35 7.4 31.8 4.8c1-2.7.7-5.8-1.2-8.3-2.7-3.5-7.4-4.3-11.1-2.2-4-3.6-8.5-7.8-13.2-12.5 14.7-7.9 25.1-6.7 25.1-6.7-1.7-2.2-3.7-4.2-5.8-5.9-6.2-1-15.8-.8-26.8 5-3.7-3.8-7.4-7.9-11.2-12.3-1.8.6-3.6 1.3-5.3 2.2 2.8 4.6 6.6 9.2 10.8 13.7-3.5 2.5-7.5 5.8-11.1 9.6-.5.5-.9 1-1.3 1.5-2.2-.5-4.5-.3-6.6.5-3.6-7.8-3.3-14.1-2.8-17.3-1.6 1.6-3 3.4-4.3 5.2-.9 3.9-1.2 9.4 1.6 16.2-3.2 4.2-3.4 10.2 0 14.6.3.4.6.7.9 1-1.5 5-2.1 9.9-2.3 14 .4.5.4.9.8 1.4 1.9 2.5 4.3 4.5 6.7 6.4-.3-4.4 0-10.9 2.7-18.2 1.9.1 3.8-.2 5.6-.9 1 .9 2.1 1.8 3.2 2.7C-9.9 17.6-6 20-2.1 21.9c-.2 1.9.3 4 1.5 5.6C2.1 31 7.1 31.6 10.6 29c.7-.6 1.3-1.2 1.8-1.9 6.2 1.4 11.7 1.6 15.7 1.6.6 0 3.5-3.9 5.1-6.3-2.5.5-9.7 1.5-19.7-1.3-.3-1.2-.7-2.3-1.5-3.2-2.5-3.3-7.1-4-10.6-1.8-3.5-1.9-7.1-4.2-10.8-7.2-.8-.6-1.5-1.2-2.2-1.8 2.3-3.6 2.5-8.2.5-12.1l1.4-1.4C-6-9.9-2.5-12.6.7-14.8l-.4-.4c.1.1.3.2.4.4 5 4.6 10.3 9 15.3 12.9C14.8.9 15 4.3 17 7z" class="st2"/></symbol><symbol id="e1o2XYvlGpNaRDkI2mZwep.sym" viewBox="-70 -40 140.1 80"><g id="j4rxt1ti925_2_"><path id="j4rxt1qh91v_2_" d="M69.1 2.1c1.4-1.4 1.1-3.6 0-5l-6.7-6.7-30.2-29.3c-1.4-1.4-3.4-1.4-4.8 0s-1.7 3.6 0 5L59-2.9c1.4 1.4 1.4 3.6 0 5l-32.2 32c-1.4 1.4-1.4 3.6 0 5s3.6 1.1 4.8 0L61.5 9.6l.3-.3 7.3-7.2z" class="st3"/><path id="j4rxt1r591w_2_" d="M-69.1 2.1c-1.4-1.4-1.1-3.6 0-5l6.7-6.7 30.2-29.3c1.4-1.4 3.4-1.4 4.8 0s1.7 3.6 0 5l-31 31c-1.4 1.4-1.4 3.6 0 5l31.6 32c1.4 1.4 1.4 3.6 0 5s-3.6 1.1-4.8 0L-62.1 9.9l-.3-.3-6.7-7.5z" class="st3"/><path id="j4rxt1rm91x_2_" d="M-19-.4c0 5.3-4.5 9.2-9.2 9.2C-33 8.8-38 4.3-38-.4s3.9-9.2 9.8-9.2c5.6 0 9.2 4.5 9.2 9.2z" class="st4"/><path id="j4rxt1s591y_2_" d="M9.2-.4c0 5.3-4.5 9.2-9.2 9.2-4.8 0-9.8-4.5-9.8-9.2S-5.3-9.6 0-9.6 9.2-5.1 9.2-.4z" class="st4"/><path id="j4rxt1sq91z_2_" d="M19.3-.4c0-5.1 4.1-9.2 9.2-9.2s9.2 4.1 9.2 9.2-4.1 9.2-9.2 9.2-9.2-4.1-9.2-9.2z" class="st4"/></g></symbol><symbol id="vuArixmnmLce634knGqL0i.sym" viewBox="-40 -40 80 80"><g id="j3inbf4og1t_2_"><path id="j3inbf22g1f_2_" fill="#9d5025" fill-rule="evenodd" d="M-40 1.6c0-21.3 17.8-38.4 40-38.4S40-19.7 40 1.6 22.2 40 0 40-40 22.9-40 1.6z" clip-rule="evenodd"/><path id="j3inbf2ig1g_2_" fill="#f58536" fill-rule="evenodd" d="M-40-1.6C-40-22.9-22.2-40 0-40S40-22.9 40-1.6 22.2 36.8 0 36.8-40 19.7-40-1.6z" clip-rule="evenodd"/><path id="j3inbf2tg1h_2_" d="M-33.6-12.8h14.5V9.6h-14.5v-22.4z" class="st2"/><path id="j3inbf30g1i_2_" d="M12.8-28.1h13v12.4h-13v-12.4z" class="st2"/><path id="j3inbf3ag1j_2_" d="M12.8-7.8h13V4.6h-13V-7.8z" class="st2"/><path id="j3inbf3hg1k_2_" d="M12.8 12.5h13v12.4h-13V12.5z" class="st2"/><path id="j3inbf40g1l_2_" d="M9.2.1l2.2-1 1.4-.7-1.4-.7-1.9-.9-5.8-2.7v2.7h-17.4L6-15.3 7.6-13l3.3-5.3 1-1.6 1-1.5-1.8.2L9-21l-6.2.7 1.5 2.2-24.2 14.9-2.7 1.6 3.2 1.9L4.3 14.9l-1.5 2.2 6.2.7 2.1.2 1.8.2-1-1.5-1-1.6-3.3-5.3L6 12.1-13.7.1H3.7v2.6L9.2.1z" class="st2"/></g></symbol><g id="Layer_2"><path id="XMLID_942_" d="M512 651.4l109.5-63.3L731 651.4l-111 62.3z" class="st7"/><path id="XMLID_941_" d="M512 613.8l109.5-63.3L731 613.8l-111 62.3z" class="st8"/><path id="XMLID_940_" d="M512 575l109.5-63.2L731 575l-111 62.4z" class="st9"/><path id="XMLID_939_" d="M512 534.3l109.5-63.2L731 534.3l-111 62.3z" class="st10"/><path id="XMLID_938_" d="M512 493.5l109.5-63.2L731 493.5l-111 62.4z" class="st11"/><path id="XMLID_937_" d="M512 455.1l109.5-63.2L731 455.1l-111 62.3z" class="st12"/><path id="XMLID_936_" d="M512 416.6l109.5-63.2L731 416.6l-111 62.3z" class="st13"/><path id="XMLID_925_" d="M512 378.1l109.5-63.2L731 378.1l-111 62.4z" class="st10"/><path id="XMLID_2_" d="M512 342.7l109.5-63.2L731 342.7 620 405z" class="st14"/><path id="XMLID_1_" d="M512 304.2L621.5 241 731 304.2l-111 62.4z" class="st15"/></g><g id="Layer_3"><path d="M274.7 841.9h88.4v97.2h-88.4v-97.2zm74.5-22.8H289l-13 12.1h85.2l-12-12.1z" class="st7"/><path d="M147.9 714.5l-11.6 2.7V642l11.6 2.7v69.8M162.4 718.9l-14.5 4.1v-86.9l14.5 4.1v78.7m18.6 4.6l-18.6 6.8V628.8l18.6 6.8v87.9m49.7-8.8L181 739.5v-120l49.7 24.9v70.3" class="st9"/><path fill="#9d5025" d="M171.1 624.5l9.9-5v120l-9.9-5v-110m-16.4 8.2l7.7-3.8v101.4l-7.7-3.8v-93.8m-12.9 6.4l6.1-3.1v87l-6.1-3.1v-80.8m-5.5 2.8l-5 2.5v70.3l5 2.5v-75.3"/><use id="elb_1_" width="80" height="80" x="-40" y="-40" overflow="visible" transform="translate(432.2464 62) scale(1.5008)" xlink:href="#vuArixmnmLce634knGqL0i.sym"/><path fill="#1a476f" d="M16.8 508.7l12.5 14.6 1.1-1.3v-93.4l-1.1-1.4-12.5 14.6v66.9"/><path fill="#1f5b98" d="M29.2 523.3l23.8 12 1-1.6V416.5l-1-1.2-23.8 11.9v96.1"/><path d="M123.2 441.8l-12.5-14.6-1.4.4.3 94.6 1.1 1.2 12.5-14.6v-67" class="st19"/><path d="M86.9 535.3l23.8-11.9v-96.2l-23.8-11.9-1.1 1.5v116.7l1.1 1.8" class="st11"/><path d="M53.1 415.3H87v120H53.1v-120z" class="st19"/><path d="M185.4 164.5l-8 4v70.2l8 4V164.5" class="st13"/><path d="M228.2 232.5l-42.8 10.2v-78.2l42.8 10v58" class="st7"/><path d="M208.8 216.6l18.2 2.3.1-.3.1-29.8-.2-.2-18.2 2.3v25.7" class="st13"/><path d="M227 232.6l41.6 10.1.1-.1v-78l-.1-.1-41.6 10.1v58" class="st13"/><path d="M245.2 216.6l-18.2 2.3v-30.3l18.2 2.3v25.7" class="st7"/><path fill="#5e1f18" d="M245.2 178.5l-18.2 3.3-18.2-3.3 18.1-4.8 18.3 4.8"/><path fill="#f2b0a9" d="M245.2 229l-18.2-3.3-18.2 3.3 18.2 5 18.2-5"/><path d="M208.8 178.5L227 174h.1v-30.1l-.1-.1-18.2 9.1v25.6" class="st13"/><path d="M245.2 178.5L227 174v-30.3l18.2 9.1v25.7" class="st7"/><path d="M227 263.7l-18.2-9.1V229l18.2 4.5.3.3-.1 29.4-.2.5" class="st13"/><path d="M227 263.7l18.2-9.1V229l-18.2 4.5v30.2m41.6-99.2l8 4v70.2l-8 4v-78.2" class="st7"/><path d="M878 11.3h99v120h-99v-120z" class="st22"/><path d="M882.8 11.3H973v120h-90.3v-120z" class="st22"/><path d="M882.8 27.7v87.2c0 8.9 20.3 16.4 45.2 16.4V27.7h-45.2z" class="st23"/><path d="M927.2 131.3h.7c25.1 0 45.2-7.2 45.2-16.4V27.7h-45.9v103.6z" class="st23"/><path fill="#fff" d="M927.2 131.3h.7c25.1 0 45.2-7.2 45.2-16.4V27.7h-45.9v103.6z" opacity=".15"/><path d="M973.1 27.7c0 8.9-20.3 16.4-45.2 16.4-24.9 0-45.2-7.3-45.2-16.4 0-8.9 20.3-16.4 45.2-16.4 24.9 0 45.2 7.5 45.2 16.4z" class="st25"/><path d="M963.9 27c0 5.8-16.2 10.6-36 10.6s-36-4.8-36-10.6c0-6.1 16.2-10.9 36-10.9s36 4.8 36 10.9z" class="st12"/><path d="M956.4 33.5c4.8-1.9 7.5-4.1 7.5-6.5 0-6.1-16.2-10.9-36-10.9s-36 4.8-36 10.9c0 2.4 2.9 4.8 7.5 6.5 9.2-3 18.8-4.4 28.5-4.1 9.7-.4 19.3.9 28.5 4.1z" class="st15"/><path d="M878 52.3h99v53.1h-99V52.3z" class="st22"/><path d="M896 90v-5.6c1 .8 2.1 1.5 3.3 1.9 1.2.4 2.4.6 3.6.6.6 0 1.3 0 1.9-.2.5-.1.9-.3 1.3-.5.3-.2.6-.5.8-.8.2-.3.3-.7.3-1 0-.5-.2-.9-.4-1.3-.3-.4-.7-.8-1.2-1.1-.6-.4-1.1-.7-1.7-1-.7-.3-1.4-.6-2.2-.9-1.7-.6-3.2-1.7-4.4-3-1-1.2-1.5-2.7-1.5-4.3 0-1.2.2-2.3.8-3.4.5-.9 1.3-1.7 2.1-2.3 1-.6 2.1-1.1 3.2-1.3 1.3-.3 2.5-.4 3.8-.4 1.2 0 2.3.1 3.5.2 1 .1 1.9.4 2.8.7v5.3c-.4-.3-.9-.6-1.4-.8l-1.5-.6c-1-.3-2-.4-3.1-.4-.6 0-1.2 0-1.8.2-.5.1-.9.3-1.3.5-.3.2-.6.5-.8.8-.2.3-.3.7-.3 1 0 .4.1.8.3 1.2.2.4.6.7 1 1l1.5.9c.6.3 1.3.6 2 .9.9.4 1.9.8 2.7 1.4.8.4 1.5 1 2.1 1.6.6.6 1 1.3 1.3 2.1.7 2.1.6 4.3-.4 6.3-.5.9-1.3 1.7-2.2 2.3-1 .6-2.1 1-3.2 1.3-1.3.3-2.5.4-3.9.4s-2.7-.1-4-.4c-.9-.5-2-.8-3-1.3zm32.2 1.4c-3.3.1-6.5-1.2-8.9-3.6-2.3-2.5-3.6-5.8-3.4-9.2-.2-3.6 1.1-7.1 3.5-9.7 2.4-2.5 5.8-3.9 9.2-3.7 3.3-.1 6.5 1.2 8.8 3.6 2.3 2.5 3.5 5.9 3.3 9.4.2 3.6-1.1 7-3.5 9.6l-.2.2-.2.2 6.4 6.2h-8l-3.3-3.4c-1.2.3-2.5.4-3.7.4zm.2-21.3c-1.9-.1-3.6.8-4.8 2.3-1.3 1.7-1.9 3.8-1.8 6-.1 2.1.5 4.2 1.8 6 1.1 1.4 2.8 2.3 4.6 2.2 1.8.1 3.6-.7 4.7-2.1 1.3-1.7 1.9-3.8 1.7-5.9.1-2.2-.4-4.3-1.7-6.1-1-1.7-2.6-2.5-4.5-2.4zM960 91h-15.1V65.6h5.7v20.7h9.4V91z" class="st25"/><use width="90" height="80" x="-45" y="-40" overflow="visible" transform="matrix(1.5 0 0 1.5 1049.5001 234)" xlink:href="#a"/><use width="140.1" height="80" x="-70" y="-40" overflow="visible" transform="matrix(.9878 0 0 1.0001 1159.7695 457)" xlink:href="#e1o2XYvlGpNaRDkI2mZwep.sym"/><use width="100.1" height="80.1" x="-50.1" y="-40.1" overflow="visible" transform="translate(988.8459 729) scale(1.1985)" xlink:href="#YXCc0fqvuaxz8mTN5-mupR.sym"/><use width="80" height="80" x="-40" y="-40" overflow="visible" transform="translate(825.0654 897.4336) scale(1.4142)" xlink:href="#a_2"/><circle cx="432" cy="153" r="12" class="st14"/><circle cx="825" cy="76" r="12" class="st15"/><circle cx="429" cy="883" r="12" class="st7"/><circle cx="825" cy="806" r="12" class="st8"/><circle cx="289" cy="295" r="12" class="st13"/><circle cx="940" cy="224" r="12" class="st10"/><circle cx="289" cy="668" r="12" class="st9"/><circle cx="988" cy="645" r="12" class="st10"/><circle cx="180" cy="480" r="12" class="st11"/><circle cx="1019" cy="457" r="12" class="st12"/><path d="M432 156v185" class="st26"/><path d="M940 226v152M988 629v-92" class="st27"/><path d="M825 790V614" class="st28"/><path d="M289 312v86" class="st29"/><path d="M180 480h255" class="st30"/><path d="M289 666v-91" class="st31"/><path d="M444 883h177M620 884V717" class="st32"/><path d="M288 575h197" class="st31"/><path d="M428 493h62M429 490v-14" class="st30"/><path d="M288 399h201" class="st29"/><path d="M431 342h56" class="st26"/><path d="M826 614h-73" class="st28"/><path d="M989 536H756" class="st27"/><path fill="none" stroke="#7fba00" stroke-dasharray="8" stroke-miterlimit="10" stroke-width="2" d="M1019 456H748"/><path d="M941 378H754" class="st27"/><path d="M621 77v159M825 77H619" class="st34"/></g></svg>