<svg xmlns="http://www.w3.org/2000/svg" viewBox="0 0 171.8 158"><g fill="#5cd34a"><path d="M130.4 129c-.6 0-1.3.2-1.8.7-1.7 1.7-3.5 3.3-5.3 4.8-1.1.9-1.2 2.4-.4 3.5s2.4 1.2 3.5.4c2-1.6 3.9-3.3 5.7-5.2 1-1 1-2.5 0-3.5-.5-.5-1.1-.7-1.7-.7z" opacity=".4"/><path d="M22.1 124.6c-.5-.6-1.2-.9-1.9-.9-.6 0-1.1.2-1.6.6-1.1.9-1.2 2.4-.3 3.5 3.2 3.9 6.8 7.5 10.7 10.6 1.1.9 2.6.7 3.5-.4.9-1.1.7-2.6-.3-3.5-3.8-3-7.1-6.3-10.1-9.9z" opacity=".8"/><path d="M8.8 99.9c-.3-1.1-1.3-1.8-2.4-1.8-.2 0-.5 0-.7.1-1.3.4-2.1 1.8-1.6 3.1 1.5 4.8 3.4 9.5 5.8 13.9.6 1.2 2.2 1.6 3.4 1s1.7-2.1 1-3.4c-2.3-4.1-4.1-8.4-5.5-12.9z" opacity=".9"/><path d="M56.8 147.7c-4.5-1.4-8.9-3.2-13-5.4-.4-.2-.8-.3-1.2-.3-.9 0-1.7.5-2.2 1.3-.6 1.2-.2 2.7 1 3.4 4.4 2.4 9.1 4.3 13.9 5.8 1.3.4 2.7-.4 3.1-1.7.4-1.3-.3-2.7-1.6-3.1z" opacity=".7"/><path d="M112.7 142.1c-.4 0-.8.1-1.2.3-4.2 2.2-8.5 4-13 5.4-1.3.4-2.1 1.8-1.7 3.1.4 1.3 1.8 2.1 3.1 1.6 4.8-1.4 9.5-3.4 13.9-5.7 1.2-.6 1.7-2.2 1-3.4-.3-.9-1.2-1.3-2.1-1.3z" opacity=".5"/><path d="M84.7 150.5c-4.6.4-9.4.4-14.1 0h-.2c-1.3 0-2.3 1-2.5 2.2-.1 1.4.9 2.6 2.2 2.7 5 .5 10.2.5 15.1 0 1.4-.1 2.4-1.3 2.2-2.7-.1-1.4-1.3-2.3-2.7-2.2z" opacity=".6"/><path d="M1.1 86.5c.1 1.4 1.4 2.3 2.7 2.2 1.4-.1 2.4-1.3 2.2-2.7-.2-2.4-.4-4.8-.4-7.2 0-39.7 32.3-72 72-72 39.5 0 71.7 32 72 71.4l-14.5-14.5c-1-1-2.5-1-3.5 0s-1 2.5 0 3.5l19.5 19.5 19.5-19.5c1-1 1-2.5 0-3.5-.5-.5-1.1-.7-1.8-.7s-1.3.2-1.8.7l-12.6 12.6C153.2 35 119.3 1.8 77.7 1.8c-42.4 0-77 34.5-77 77 0 2.6.1 5.2.4 7.7z"/></g><path fill="#087000" d="M30.7 78h9.5c-.2 1-.2 2.1-.2 3.1s0 2.1.2 3.1h-6.8l-2.8 6.3h10.6c4.3 16 19.2 28.1 36.3 28.1 9.5 0 18.3-3.7 25-9.8v-9c-5.7 7.6-14.8 12.6-25 12.6-13.9 0-25.8-9.2-29.8-21.9H90l2.8-6.3H46.5c-.2-1-.2-2.1-.2-3.1 0-.9 0-2.1.2-3.1h49.1l2.8-6.3H47.8c3.9-12.5 15.7-21.9 29.8-21.9 10.9 0 19.3 4.9 25 12.5l2.8-6.2c-6.9-7.7-16.8-12.6-27.8-12.6-17.2 0-32 12.3-36.3 28.1h-7.8L30.7 78z"/></svg>