<svg xmlns="http://www.w3.org/2000/svg" id="Capa_1" viewBox="0 0 69.8 60"><style>.st1,.st2,.st3{opacity:.8;fill:#31a3dd}.st2,.st3{opacity:.5}.st3{opacity:.3}</style><path fill="#31a3dd" d="M50.4 41.5c-3-3-4.5-6.5-4.5-10.5v-5.8c0-4.5-3-7.4-5.5-8.5-.7-.3-1.5-.6-2.3-.8v-.3c0-1.6-1-3-2.6-3.3-2.1-.5-3.9 1.2-3.9 3.2v.5c-.7.2-1.4.5-2 .7-2.8 1.3-5.7 4.5-5.8 8.5V31c0 4.1-1.5 7.7-4.3 10.5-.2.2-.3.5-.1.6.1.3.3.4.5.5l6.1 1c1.2.2 2.2.4 3.2.5 1.1 2.2 3.4 3.6 5.8 3.6s4.7-1.4 5.8-3.6c1-.1 2.1-.3 3.2-.5l6.1-1c.3-.1.5-.2.5-.5.1-.2 0-.4-.2-.6zM32.8 23.3c3.6-1 7.2.5 9.1 3.5l.5-2.2.6.1-.8 3.5-3.4-1.2.2-.6 2.2.8c-1.7-2.8-5.1-4.1-8.3-3.2-3.5 1-5.7 4.3-5.3 7.9H27c-.5-3.9 2-7.5 5.8-8.6zm4.5 15.6c-1.2.3-2.5.4-3.6.1-2.2-.4-4.2-1.7-5.4-3.7l-.5 2.2-.6-.1.8-3.5 3.4 1.2-.4.7-2.2-.7c1.7 2.8 5.1 4.1 8.3 3.2 3.4-1 5.7-4.3 5.3-7.9l.6-.1c.4 3.9-2 7.5-5.7 8.6z"/><path d="M6.6 21.4c-.5-.5-1.2-.5-1.7 0C2.2 24.1.8 27.6.8 31.3s1.4 7.2 4.1 9.9c.2.2.6.4.8.4s.6-.1.8-.4c.5-.5.5-1.2 0-1.7-2.2-2.2-3.4-5.2-3.4-8.2 0-3 1.2-6 3.4-8.2.6-.5.6-1.2.1-1.7z" class="st1"/><path d="M11.4 37.8c.3 0 .5-.1.7-.3.4-.4.4-1.1 0-1.5-2.8-2.8-2.8-7.1 0-9.9.4-.4.4-1.1 0-1.5-.4-.4-1.1-.4-1.5 0-3.5 3.5-3.5 9.4 0 12.9.3.2.5.3.8.3z" class="st2"/><path d="M64.9 21.4c-.5-.5-1.2-.5-1.7 0s-.5 1.2 0 1.7c2.2 2.2 3.4 5.1 3.4 8.2s-1.2 6-3.4 8.2c-.5.5-.5 1.2 0 1.7.2.2.6.4.8.4.2 0 .6-.1.8-.4 2.7-2.7 4.1-6.2 4.1-9.9s-1.3-7.2-4-9.9z" class="st1"/><path d="M57.9 24.7c-.4.4-.4 1.1 0 1.5 2.8 2.8 2.8 7.1 0 9.9-.4.4-.4 1.1 0 1.5.2.2.5.3.7.3s.5-.1.7-.3c3.5-3.5 3.5-9.4 0-12.9-.3-.5-.9-.5-1.4 0z" class="st2"/><path d="M16.8 34.6c.2 0 .3-.1.5-.2.3-.2.3-.6 0-.8-1.8-1.5-1.8-3.8 0-5.3.3-.2.3-.6 0-.8-.3-.2-.7-.2-1 0-2.3 1.9-2.3 5 0 6.9.1.1.3.2.5.2zM52.7 27.5c-.3.2-.3.6 0 .8 1.8 1.5 1.8 3.8 0 5.3-.3.2-.3.6 0 .8.1.1.3.2.5.2.1 0 .3-.1.5-.2 2.3-1.9 2.3-5 0-6.9-.3-.2-.7-.2-1 0z" class="st3"/></svg>