<svg xmlns="http://www.w3.org/2000/svg" id="Layer_1" viewBox="0 0 559 1080"><style>.st2{fill:#35a641}.st6{fill:#7ad165}.st7{fill:#5793ce}.st8{fill:#173d7a}.st9{fill:#d4ecff}.st10{fill:#fff}.st18{fill:#ea1849}.st19{fill:#a90634}.st20{fill:#cf1242}.st23{opacity:.56;fill:#dbdbdb;enable-background:new}.st24{fill:red}.st26{opacity:.75;fill:#fc0000;enable-background:new}.st27{fill:#17ef11}.st28{fill:#31b9e7}.st29{fill:#0eb0e7}.st30{fill:#00a9e3}</style><g id="XMLID_2555_" stroke-miterlimit="10"><path id="XMLID_2558_" fill="#56abdd" stroke="#ccc" d="M514.2 121.8l-26.8-16.6v.1c-9.5-6.7-23.7-6.5-39.9 2.2l-10.1 5.4c.2-7.5-1.4-14.4-4.5-20.4l12.2.4-26-16.1c-12.2-8.4-28.8-10.5-43.8-2.6l-23.9 12.6c-.4-12.5-3-23.1-7.4-31.6l12.7.4-28.6-17.7c-14.9-9-35.7-8.4-59.1 4.2-47.2 25.3-86.7 89.1-88.4 142.6-.1 2.8-.2 6.2-.3 9.5l-28.5 15.3c-31.4 16.8-51.4 49.1-52.5 84.7-29.8 16-54.8 54.7-55.8 86.4-.5 15.6 4.9 26.5 14.1 31.8l28.3 17.5 1.8-17.3c2.6-1 5.3-2.2 8.1-3.6l347.9-186.7c29.8-16 54.8-54.7 55.8-86.4.2-5.5-.4-10.3-1.6-14.6l16.3.5z"/><path id="XMLID_2556_" fill="#d4ecff" stroke="#fff" d="M477.1 125.7l-10.1 5.4c1-32.4-33.3-53.9-62-38.7L381.2 105c-1.4-48.9-37.1-69-82.3-44.7-47.2 25.3-86.7 89.1-88.4 142.6-.1 2.8-.2 6.2-.3 9.5l-28.5 15.3c-31.4 16.8-51.4 49.1-52.5 84.7-29.8 16-54.8 54.7-55.8 86.4s22.4 44.5 52.2 28.5l347.9-186.7c29.8-16 54.8-54.7 55.8-86.4s-22.3-44.5-52.2-28.5z"/></g><g id="XMLID_1159_"><g id="XMLID_1170_"><g id="XMLID_1_"><path id="XMLID_8_" d="M312.3 612.2c-.1 6.9 4.8 9.8 10.8 6.4 6-3.4 11-11.8 11.1-18.8 0-3.5-1.2-6-3.1-7-2-1.2-4.7-1.1-7.7.6-3 1.7-5.8 4.7-7.8 8.1-2 3.3-3.3 7.2-3.3 10.7z" class="st2"/><path id="XMLID_6_" d="M300.2 592.4l9.2 5.4c3.6-6.1 8.6-11.5 14-14.5 5.5-3.1 10.4-3.3 13.9-1.2l7.7-13c-5.9-3.5-14-3.1-23.1 2-9.1 5.2-15.7 11.1-21.7 21.3z" class="st2"/><path id="XMLID_4_" d="M281.8 581.5l9.2 5.4c8.4-14.3 18.3-23.7 31-30.9s23.1-6.2 31.3-1.3l6.8-11.5c-10.6-6.3-25.9-9.2-40.7-.7-16.3 9.4-26.8 20.7-37.6 39z" class="st2"/><path id="XMLID_2_" d="M263.4 570.7l9.2 5.4c13.2-22.4 23.6-32.2 43.6-43.5s38.1-9 51.1-1.3l8-13.6c-15.3-9.1-37.2-11.6-60.9 1.7-23.6 13.4-35.3 24.8-51 51.3z" class="st2"/></g></g><g id="XMLID_1160_"><path id="XMLID_1169_" fill="#c9ecc1" stroke="#ccc" stroke-miterlimit="10" stroke-width=".25" d="M312.3 612.2c-.1 6.9 4.8 9.8 10.8 6.4 6-3.4 11-11.8 11.1-18.8 0-3.5-1.2-6-3.1-7-2-1.2-4.7-1.1-7.7.6-3 1.7-5.8 4.7-7.8 8.1-2 3.3-3.3 7.2-3.3 10.7z"/><path id="XMLID_1165_" fill="#afe3a2" stroke="#ccc" stroke-miterlimit="10" stroke-width=".25" d="M300.2 592.4l9.2 5.4c3.6-6.1 8.6-11.5 14-14.5 5.5-3.1 10.4-3.3 13.9-1.2l7.7-13c-5.9-3.5-14-3.1-23.1 2-9.1 5.2-15.7 11.1-21.7 21.3z"/><path id="XMLID_1163_" fill="#94da83" stroke="#ccc" stroke-miterlimit="10" stroke-width=".25" d="M281.8 581.5l9.2 5.4c8.4-14.3 18.3-23.7 31-30.9s23.1-6.2 31.3-1.3l6.8-11.5c-10.6-6.3-25.9-9.2-40.7-.7-16.3 9.4-26.8 20.7-37.6 39z"/><path id="XMLID_1161_" d="M263.4 570.7l9.2 5.4c13.2-22.4 23.6-32.2 43.6-43.5s38.1-9 51.1-1.3l8-13.6c-15.3-9.1-37.2-11.6-60.9 1.7-23.6 13.4-35.3 24.8-51 51.3z" class="st6"/></g></g><path d="M297.7 991.3l.1-10.4h3.1c2.8-4.8 7.5-9.2 14.1-13 22.9-13 60-12.7 82.7.7 6.6 3.9 11.2 8.4 13.9 13.2h3.1l-.1 10.3c0 8.7-5.8 17.3-17.3 23.8-22.9 13-60 12.7-82.7-.7-11.3-6.6-17-15.3-16.9-23.9z" class="st7"/><path d="M315 967.9c20.6-11.6 52.4-12.6 75.1-3l-.5 54.7c-22.9 9.2-54.7 7.7-75.1-4.3-11.4-6.7-17-15.4-16.9-24l.1-10.4h3.1c2.9-4.8 7.6-9.3 14.2-13z" class="st8"/><ellipse cx="356.3" cy="981.3" class="st9" rx="33.8" ry="58.5" transform="matrix(.0086 -1 1 .0086 -627.9948 1329.209)"/><path d="M314.7 1004.9c22.7 13.4 59.7 13.7 82.7.7 11-6.2 16.7-14.4 17.2-22.6.4 9-5.3 18-17.3 24.8-22.9 13-60 12.7-82.7-.7-11.8-7-17.4-16.1-16.8-25.1.5 8.2 6 16.5 16.9 22.9z" class="st10"/><path d="M318.8 981.7c2.4 1.5 6.2 1.7 8.3.4l35.8-20.1c1-.5 1.4-1.3 1.5-2l.7-73.2-47.6 19.5-.7 72.5v.4c.1.9.8 1.8 2 2.5z" class="st7"/><path d="M364.8 913.6l-.2 28.4-47.7 27 .4-36.2 40.9-23.2 6.6 4z" class="st7"/><path d="M317.5 906.3l-.7 72.5v.4c.1.9.8 1.8 2 2.5s2.6 1.1 4.1 1.2l.9-79.2-6.3 2.6z" class="st8"/><path d="M319 904.1l35.8-20.1c2.1-1.2 5.9-1 8.3.4 2.4 1.5 2.7 3.6.5 4.8l-35.8 20.1c-2.1 1.2-5.9 1-8.3-.4-2.4-1.5-2.7-3.6-.5-4.8z" class="st8"/><path d="M327.8 909.8l35.8-20.1c1-.6 1.5-1.3 1.5-2.1-.2.6-.6 1.2-1.4 1.6l-35.8 20.1c-2.1 1.2-5.9 1-8.3-.4-1.3-.8-2-1.8-2-2.7-.3 1.1.4 2.3 1.9 3.2 2.4 1.4 6.1 1.6 8.3.4z" class="st10"/><path fill="#396caa" d="M157.1 760.1l348.7-197.3c3.2-1.8 6.1-1.9 8.4-.6l10.8 6.4-6.6.9c.1 1 .2 2 .2 3.2l-2.1 239.6c-.1 9.4-5.9 20.4-13 24.4l-348.2 197 1.7 7.2-10.6-6.3c-2.7-1.6-4.4-5.2-4.4-10.4l2.1-239.6c.1-9.6 5.9-20.5 13-24.5z"/><path d="M146.4 1034.5c-2.7-1.6-4.4-5.2-4.4-10.4l2.1-239.6c0-4.3 1.3-8.8 3.3-12.9l230.8 135.9-222.9 126.1 1.7 7.2-10.6-6.3z" class="st8"/><path d="M165.7 1040.3L514.4 843c7.1-4 13-14.9 13-24.4l2.1-239.6c.1-9.4-5.6-13.8-12.7-9.8L168.1 766.5c-7.1 4-13 14.9-13 24.4l-2.1 239.6c-.1 9.4 5.6 13.8 12.7 9.8z" class="st9"/><path d="M166.4 766l348.7-197.3c3-1.7 5.8-1.9 8-.8-1.8-.3-4 .1-6.3 1.4L168.1 766.5c-7.1 4-13 14.9-13 24.4l-2.1 239.6c0 5.4 1.8 9.2 4.8 10.6-3.9-.7-6.5-4.8-6.5-11.2l2.1-239.6c0-9.4 5.8-20.3 13-24.3z" class="st10"/><path fill="#fcfcfc" stroke="#b3b3b3" stroke-miterlimit="10" stroke-width=".5" d="M164.7 1032.4l350.9-198.6c2.5-1.4 4.6-5.3 4.6-8.6l2.1-244.5c0-3.3-2-4.9-4.5-3.5L166.9 775.7c-2.5 1.4-4.6 5.3-4.6 8.6l-2.1 244.5c-.1 3.4 2 5 4.5 3.6z"/><g><linearGradient id="SVGID_1_" x1="284.2701" x2="297.518" y1="351.2004" y2="351.2004" gradientTransform="matrix(.9975 -.5747 -.0044 -1 2.5455 1431.8174)" gradientUnits="userSpaceOnUse"><stop offset="0" stop-color="#0ca1e2"/><stop offset="1" stop-color="#0080c4"/></linearGradient><path fill="url(#SVGID_1_)" d="M297.9 937l-13.2 7.5-.3-54.6 13.2-7.5.3 54.6z"/><linearGradient id="SVGID_2_" x1="266.9462" x2="280.2059" y1="338.0434" y2="338.0434" gradientTransform="matrix(.9975 -.5747 -.0044 -1 2.5455 1431.8174)" gradientUnits="userSpaceOnUse"><stop offset="0" stop-color="#5fc3b8"/><stop offset="1" stop-color="#23bab7"/></linearGradient><path fill="url(#SVGID_2_)" d="M280.6 947.2l-13.2 7.5-.1-28.8 13.2-7.6.1 28.9z"/><linearGradient id="SVGID_3_" x1="247.5832" x2="260.8323" y1="348.6149" y2="348.6149" gradientTransform="matrix(.9975 -.5747 -.0044 -1 2.5455 1431.8174)" gradientUnits="userSpaceOnUse"><stop offset="0" stop-color="#78bf43"/><stop offset="1" stop-color="#0eb059"/></linearGradient><path fill="url(#SVGID_3_)" d="M261.3 957.9l-13.2 7.5-.2-49.1 13.2-7.6.2 49.2z"/><linearGradient id="SVGID_4_" x1="229.2398" x2="242.4945" y1="360.7563" y2="360.7563" gradientTransform="matrix(.9975 -.5747 -.0044 -1 2.5455 1431.8174)" gradientUnits="userSpaceOnUse"><stop offset="0" stop-color="#fbb931"/><stop offset="1" stop-color="#f6951d"/></linearGradient><path fill="url(#SVGID_4_)" d="M243 968.3l-13.2 7.5-.3-73.1 13.2-7.6.3 73.2z"/><linearGradient id="SVGID_5_" x1="209.8774" x2="223.1178" y1="346.4832" y2="346.4832" gradientTransform="matrix(.9975 -.5747 -.0044 -1 2.5455 1431.8174)" gradientUnits="userSpaceOnUse"><stop offset="0" stop-color="#fddf4f"/><stop offset="1" stop-color="#fdd001"/></linearGradient><path fill="url(#SVGID_5_)" d="M223.7 979l-13.2 7.6-.2-43.8 13.2-7.6.2 43.8z"/><path d="M214.6 920.6l-8.5-1.9.7-2.5 6.2 1.4 20.7-43.1 38.9 18.9 12.5-33 2.7.8-13.6 35.9-39.1-19-20.5 42.5z" class="st18"/><path d="M280 861.3l9.1-7.4 2.6 10.8-11.7-3.4z" class="st18"/><path d="M213 917.6l-.5-1.1 20.1-41.2 1.1-.8-20.7 43.1zm59.6-24.2l-.8-.3 11.5-30.1 1-.4-11.7 30.8z" class="st19"/><path d="M212.5 916.5l-6.8-1.4 1.1 1.1 6.2 1.4-.5-1.1z" class="st20"/><path d="M206.1 918.7l-1-1.2.6-2.4 1.1 1.1-.7 2.5z" class="st19"/><path d="M280 861.3l4.3 1.3-1 .4-3.1-.9-.2-.8z" class="st20"/><path d="M287 863.4l4.7 1.3-1 .4-3.9-1.1.2-.6zm-12.8 33.7l-39.1-19-.4.7 38 18.4 1.5-.1z" class="st19"/><g><g id="XMLID_364_" opacity=".8"><path id="XMLID_372_" fill="#56abdd" d="M489.7 611.6l.4 92.9-144.6 81.2-.7-93.2 144.9-80.9z"/><path id="XMLID_371_" d="M490 723l.1 12.4-126.2 70.9-.4-12.6L490 723z" class="st23"/><path id="XMLID_370_" d="M490.1 742.1v12.4l-126.3 70.6-.3-12.6 126.6-70.4z" class="st23"/><path id="XMLID_369_" d="M490.2 761.1v12.4L364 844.4l-.3-12.6 126.5-70.7z" class="st23"/><path id="XMLID_368_" d="M490.3 780.2v12.3l-126.2 70.9-.3-12.6 126.5-70.6z" class="st23"/><path id="XMLID_367_" d="M490.3 799.2l.1 12.4-126.2 70.9-.3-12.6 126.4-70.7z" class="st23"/><path id="XMLID_365_" d="M490.4 818.2l.1 12.4-126.2 70.9-.4-12.6 126.5-70.7z" class="st23"/></g><path id="XMLID_376_" d="M356.9 873.6l.1 13-11.2 6.5-.1-13 11.2-6.5z" class="st24"/><path id="XMLID_375_" d="M356.8 854l.1 12.9-11.2 6.6-.1-13 11.2-6.5z" class="st6"/><path id="XMLID_374_" fill="#ede43b" d="M356.7 835.3l.1 12.9-11.2 6.6-.1-13 11.2-6.5z"/><path id="XMLID_373_" d="M356.7 815.6v13l-11.2 6.5v-12.9l11.2-6.6z" class="st6"/><path id="XMLID_361_" d="M356.6 796.9v13l-11.2 6.5v-12.9l11.2-6.6z" class="st6"/><path id="XMLID_17_" d="M357 892.3v13l-11.1 6.5-.1-12.9 11.2-6.6z" class="st24"/></g><g><path id="XMLID_358_" d="M265.2 762.7c-3.7-2.1-3.4-9.8.8-17.1 4.2-7.3 10.6-11.6 14.3-9.4 3.7 2.1 3.4 9.8-.8 17.1-4.2 7.3-10.6 11.5-14.3 9.4z" class="st26"/><path id="XMLID_359_" d="M234.3 780.4c-3.7-2.1-3.4-9.8.8-17.1s10.6-11.6 14.3-9.4c3.7 2.1 3.4 9.8-.8 17.1-4.1 7.3-10.6 11.6-14.3 9.4z" class="st27"/><path id="XMLID_360_" d="M203.4 798.2c-3.7-2.1-3.4-9.8.8-17.1s10.6-11.6 14.3-9.4c3.7 2.1 3.4 9.8-.8 17.1-4.1 7.3-10.5 11.5-14.3 9.4z" class="st27"/><path id="XMLID_357_" d="M285.7 772.1v8.1l-82.6 46.4-.2-8.2 82.8-46.3z" class="st23"/><path id="XMLID_356_" d="M285.8 784.5v8.1l-82.7 46.5-.2-8.3 82.9-46.3z" class="st23"/><path id="XMLID_355_" d="M240.3 822.7v8.1l-37 21.1-.2-8.2 37.2-21z" class="st23"/><path id="XMLID_354_" d="M285.9 809.5v8.1L203.3 864l-.3-8.2 82.9-46.3z" class="st23"/></g></g><path d="M322.4 449.2v-32.6l-7.1 4.1 18.8-36.2 21.9 12.7-10.1 5.9v32.5l-23.5 13.6z" class="st6"/><path d="M283.4 416.8l-.1 32.6 7.1-4.1-18.7 36.2-22-12.7 10.2-5.8v-32.6l23.5-13.6z" class="st26"/><g><path d="M330 225.4l15.7 9.2c-.1 0-.1-.1-.2-.2l-15.7-9.2c0 .1.1.1.2.2zm37.6-28.7l-15.7-9.2c-.1 0-.1-.1-.2-.1l15.7 9.2s.1.1.2.1z" class="st28"/><path d="M343.2 231l-15.8-9.1 2.4 3.3 15.7 9.2-2.3-3.4zm24.1-34.4l-15.7-9.1-4.1-.4 15.7 9.2 4.1.3zm-57.7 44.2l15.7 9.2c-.2-.1-.3-.4-.3-.7l-15.7-9.2c0 .3.1.6.3.7zm61.1-69.3l-15.7-9.2c-.2-.1-.5-.1-.8.1l15.7 9.2c.3-.2.6-.2.8-.1zM325 243.8l-15.7-9.2v5.5l15.7 9.1v-5.4z" class="st29"/><path d="M369.9 171.5l-15.8-9.1-4.7 2.7 15.7 9.2 4.8-2.8zm-97.1 119.3l15.7 9.2-.1-.1-15.7-9.2.1.1zm29.1-13.9l-15.7-9.2h-.1l15.7 9.2c0-.1.1-.1.1 0z" class="st28"/><path d="M287 297.8l-15.7-9.1 1.4 2 15.8 9.1-1.5-2z" class="st29"/><path d="M301.8 276.8l-15.8-9.1-2.5-.2 15.8 9.1 2.5.2z" class="st28"/><path d="M260.4 300.2l15.7 9.2c-.1-.1-.2-.2-.2-.4l-15.7-9.2c0 .2.1.3.2.4z" class="st29"/><path d="M303.8 261.5l-15.7-9.2c-.1-.1-.3-.1-.5 0l15.7 9.2c.2-.1.4-.1.5 0z" class="st28"/><path d="M275.9 305.6l-15.7-9.2v3.4l15.7 9.1v-3.3z" class="st29"/><path d="M303.3 261.5l-15.7-9.1-2.9 1.6 15.7 9.2 2.9-1.7z" class="st28"/><path d="M290.3 243.3l15.7 9.2c-.3-.2-.4-.8-.2-1.4l-15.7-9.2c-.2.6-.1 1.2.2 1.4zm72.8-89.6l-15.7-9.2c-.2-.1-.5-.1-.8.1-.2.1-.4.3-.5.5l15.7 9.2.5-.5c.3-.2.6-.2.8-.1zM308.3 245l-15.8-9.2-2.3 6.1 15.7 9.1 2.4-6z" class="st29"/><path d="M361.8 154.2l-15.7-9.1-4.1 5.1 15.7 9.1 4.1-5.1zm-16.3 20.3l-15.7-9.2c3.8 2.2 6.2 7 6.2 13.7 0 13.6-9.5 30.2-21.4 37l15.7 9.2c11.8-6.8 21.4-23.4 21.4-37 0-6.7-2.4-11.5-6.2-13.7zm-46.1 43.1l15.7 9.2c3.9 2.3 9.3 1.9 15.2-1.5l-15.7-9.2c-5.9 3.4-11.3 3.7-15.2 1.5zm-50.7 84.1l15.7 9.2c-.2-.1-.3-.5-.1-.9l-15.7-9.2c-.2.5-.2.8.1.9zm50.5-51.1l-15.7-9.2c-.1-.1-.3-.1-.5 0l-.3.3 15.7 9.2.3-.3c.2-.1.4-.1.5 0z" class="st29"/><path d="M265.7 306.3l-15.7-9.1-1.5 3.7 15.8 9.1 1.4-3.7zm32.7-55.4l-15.8-9.1-2.4 3.1 15.7 9.1 2.5-3.1z" class="st29"/><path d="M289.5 234.5l15.7 9.2c-.9-.5-1.7-1.1-2.4-1.7l-15.7-9.2c.8.6 1.6 1.2 2.4 1.7zm65.8-76.9l-15.7-9.2c-.9-.5-1.9-1-3-1.4l15.7 9.2c1 .4 2 .8 3 1.4z" class="st28"/><path d="M288.4 263.3l-15.7-9.2c2.3 1.4 3.8 4.3 3.8 8.4 0 8.3-5.8 18.4-13 22.6l15.7 9.2c7.2-4.2 13.1-14.3 13-22.6 0-4.1-1.4-7-3.8-8.4zM254.1 286l15.7 9.2c2.4 1.4 5.7 1.2 9.3-.9l-15.7-9.2c-3.6 2.1-6.9 2.3-9.3.9z" class="st29"/><path d="M281.7 238.4l15.7 9.2c-.1 0-.1-.1-.2-.2l-15.7-9.2.2.2zm72.8-89.7l-15.7-9.2c-.1 0-.1-.1-.2-.1l15.7 9.2c0 .1.1.1.2.1zM248.2 296.3l15.7 9.2c-.5-.3-1-.7-1.5-1.1l-15.7-9.2c.4.5.9.8 1.5 1.1zm46.2-43.3l-15.7-9.2c-.6-.3-1.2-.6-1.8-.8l15.7 9.2c.6.2 1.2.4 1.8.8zm-51 45.7l15.7 9.2-.1-.1-15.7-9.2c0 .1 0 .1.1.1zm50.5-51.1l-15.7-9.2h-.1l15.7 9.2h.1z" class="st28"/><path d="M292.9 241.3l-15.7-9.1 4.3 6 15.8 9.2-4.4-6.1zm-36.5 62.8l-15.8-9.2 2.7 3.7 15.7 9.2-2.6-3.7zm37.4-56.6l-15.8-9.1-4.5-.4 15.7 9.2 4.6.3zm60.4-98.8l-15.7-9.2-7.4-.6 15.7 9.1 7.4.7zm-95.1 151.1l-15.7-9.2-2.5 3.1 15.7 9.2 2.5-3.1z" class="st29"/><path d="M256.6 302.9l-15.7-9.2c-.3.4-.4.9-.2 1.2l15.7 9.2c-.2-.3-.1-.8.2-1.2zm40.8-68.6l-15.7-9.2-4.1 5.1 15.7 9.1 4.1-5zm-9.1 13.7l-15.7-9.2-1.5 3.7 15.8 9.2 1.4-3.7zm.9-.8l-15.7-9.2c-.1 0-.2 0-.3.1-.2.1-.5.4-.6.7l15.7 9.2c.1-.3.4-.6.6-.7.1-.1.2-.2.3-.1z" class="st29"/><path d="M293.3 239.3l-15.7-9.2c-.5.7-.7 1.5-.4 2l15.7 9.2c-.3-.4-.1-1.3.4-2zm52-89.9l-15.7-9.2-2.4 6.1 15.7 9.1 2.4-6zm1.5-1.4l-15.7-9.2c-.2 0-.4 0-.5.1-.4.2-.7.7-1 1.2l15.7 9.2c.2-.5.6-1 1-1.2.1 0 .3-.1.5-.1z" class="st29"/><path d="M257.9 295.3l-15.7-9.2c.2 1.7.7 3.2 1.2 4.5l15.7 9.2c-.5-1.3-1-2.8-1.2-4.5zm29-43.6l-15.7-9.2c-1.4.2-2.9.6-4.5 1.2l15.7 9.2c1.5-.6 3.1-1 4.5-1.2zm8.5-24.8l-15.7-9.2c.4 2.7 1.1 5.2 2 7.3l15.7 9.2c-.9-2.1-1.6-4.6-2-7.3zm47.5-71.5l-15.7-9.2c-2.4.3-4.8 1-7.4 2l15.7 9.2c2.6-1 5.1-1.7 7.4-2z" class="st30"/><path d="M238.8 287.9l15.7 9.2c-.1-.1-.2-.2-.2-.4l-15.7-9.2c0 .1.1.3.2.4zm43.4-38.8l-15.7-9.2c-.1-.1-.3-.1-.5 0l15.7 9.2h.5zm-27.9 41.5l-15.7-9.2v6l15.7 9.2v-6zm3.6-2.9l-15.8-9.1-2.9 1.7 15.8 9.1 2.9-1.7zm17.9-34.3l-15.8-9.2.1 3.3 15.7 9.2v-3.3zm5.9-4.2l-15.8-9.2-5.2 3.1 15.8 9.1 5.2-3z" class="st29"/><path d="M255 289.4l-15.7-9.2c-.4.2-.7.7-.7 1.2l15.7 9.2c0-.5.3-1 .7-1.2z" class="st29"/><path d="M259.1 281.9l-15.7-9.2c-.6 2-1 3.9-1.2 5.9l15.7 9.2c.2-2 .6-4 1.2-5.9zm16.7-25.2l-15.7-9.2c-1.6 1.2-3.1 2.5-4.5 4l15.7 9.2c1.4-1.5 2.9-2.8 4.5-4z" class="st30"/><path d="M276.5 252.2l-15.7-9.2c-.4.2-.7.7-.7 1.2l15.7 9.2c0-.5.3-1 .7-1.2zm-2.3-31.6l15.7 9.2c-.2-.1-.3-.4-.3-.7l-15.7-9.2c-.1.3.1.6.3.7zm61-69.3l-15.7-9.2c-.2-.1-.5-.1-.8.1l15.7 9.2c.3-.2.6-.2.8-.1z" class="st29"/><path d="M265.6 267.7l-15.7-9.2c-1.2 1.8-2.3 3.7-3.3 5.7l15.7 9.2c1-1.9 2.1-3.8 3.3-5.7z" class="st30"/><path d="M240.7 272.5l15.7 9.2c-.2-.1-.3-.5-.1-.9l-15.7-9.2c-.2.4-.1.7.1.9zm29-14l-15.7-9.2c-.1-.1-.3-.1-.5 0l-.3.3 15.7 9.2.3-.3h.5zm-7.4 14.9l-15.7-9.1-2.5-.2 15.7 9.1 2.5.2zm1.9-7.7l-15.8-9.1 1.5 2 15.7 9.1-1.4-2zm-5.3 8.3l-15.7-9.1-2.6 6.7 15.7 9.1 2.6-6.7zm10-15.1l-15.7-9.2-4.5 5.7 15.7 9.1 4.5-5.6z" class="st29"/><path d="M259.8 273.2l-15.7-9.2c-.1 0-.2 0-.3.1-.2.1-.5.4-.6.7l15.7 9.2c.1-.3.3-.6.6-.7.1-.1.2-.1.3-.1z" class="st29"/><path d="M257.9 287.7c.2-1.9.6-3.9 1.2-5.9l-2.5-.2c-.3 0-.4-.4-.2-.9l2.6-6.7c.1-.3.3-.6.6-.7.1-.1.2-.1.3-.1l2.5.2c1-2 2.1-3.9 3.3-5.7l-1.4-2c-.2-.3-.1-.8.2-1.2l4.5-5.6.3-.3c.2-.1.5-.1.6 0l1.5 2c1.4-1.5 2.9-2.8 4.5-4v-3.3c0-.4.3-.9.7-1.2l5.2-3c.4-.2.7 0 .7.4v3.3c1.6-.6 3.1-1 4.5-1.2l1.4-3.7c.1-.3.4-.6.6-.7.1-.1.2-.1.3-.1l4.5.4c.3 0 .4.4.3.9l-1.4 3.7c1.2.4 2.3 1.1 3.3 1.9l2.5-3.1.3-.3c.2-.1.5-.1.6 0l2.6 3.7c.2.3.1.8-.2 1.2l-2.5 3.1c.6 1.3 1 2.8 1.2 4.5l2.9-1.7c.4-.2.7 0 .7.4v6c0 .4-.3.9-.7 1.2l-2.9 1.7c-.2 1.9-.6 3.9-1.2 5.9l2.5.2c.3 0 .4.4.3.9l-2.6 6.7c-.1.3-.3.6-.6.7-.1.1-.2.1-.3.1l-2.6-.2c-1 2-2.1 3.9-3.3 5.7l1.4 2c.2.3.1.8-.2 1.2l-4.5 5.6-.3.3c-.2.1-.5.1-.6 0l-1.4-2c-1.4 1.5-2.9 2.8-4.5 4v3.3c0 .4-.3.9-.7 1.2l-5.2 3c-.4.2-.7 0-.7-.4v-3.3c-1.6.6-3.1 1-4.5 1.2l-1.4 3.7c-.1.3-.3.6-.6.7-.1.1-.2.1-.3.1l-4.5-.4c-.3 0-.4-.4-.2-.9l1.4-3.7c-1.2-.4-2.3-1.1-3.3-1.9l-2.5 3.1-.3.3c-.2.1-.5.1-.6-.1l-2.6-3.7c-.2-.3-.1-.8.2-1.2l2.5-3.1c-.6-1.3-1-2.8-1.2-4.5L255 297c-.4.2-.7 0-.7-.4v-6c0-.4.3-.9.7-1.2l2.9-1.7zm21.3 6.6c7.2-4.2 13.1-14.3 13-22.6 0-8.3-5.9-11.6-13.1-7.5-7.2 4.2-13.1 14.3-13 22.6 0 8.3 5.9 11.6 13.1 7.5z" class="st28"/><path d="M264.4 264.5l-15.7-9.2c-.3.4-.4.9-.2 1.2l15.7 9.2c-.2-.3-.1-.8.2-1.2zm25.2-45.3l-15.8-9.2v9.9l15.8 9.1v-9.8zm5.8-4.7l-15.7-9.1-4.8 2.7 15.8 9.2 4.7-2.8zm29.4-56.3l-15.8-9.1v5.4l15.8 9.2v-5.5zm9.6-6.8l-15.7-9.2-8.6 5 15.8 9.1 8.5-4.9z" class="st29"/><path d="M290.7 217.3l-15.7-9.2c-.6.4-1.1 1.2-1.1 1.9l15.7 9.2c0-.7.5-1.6 1.1-1.9z" class="st29"/><path d="M297.3 204.9l-15.7-9.2c-.9 3.2-1.6 6.4-1.9 9.6l15.7 9.2c.4-3.1 1-6.4 1.9-9.6zm27.5-41.2l-15.7-9.2c-2.6 1.9-5 4.1-7.4 6.5l15.7 9.2c2.4-2.4 4.8-4.6 7.4-6.5z" class="st30"/><path d="M325.9 156.3l-15.7-9.2c-.6.4-1.1 1.2-1.1 1.9l15.7 9.2c0-.7.5-1.5 1.1-1.9z" class="st29"/><path d="M308.1 181.7l-15.7-9.2c-2 3-3.8 6.1-5.4 9.3l15.7 9.2c1.6-3.1 3.4-6.3 5.4-9.3z" class="st30"/><path d="M277.3 195.3l15.7 9.2c-.3-.2-.4-.8-.2-1.4l-15.7-9.2c-.3.7-.2 1.2.2 1.4zm37.6-28.6l-15.7-9.2c-.2-.1-.5-.1-.8.1-.2.1-.4.3-.5.5l15.7 9.2.5-.5c.3-.2.5-.2.8-.1zm-12.2 24.4l-15.8-9.2-4-.3 15.7 9.1 4.1.4zm3-12.7l-15.7-9.1 2.3 3.3 15.8 9.1-2.4-3.3z" class="st29"/><path d="M297.1 192.1l-15.7-9.2-4.3 11 15.7 9.2 4.3-11zm16.4-24.9l-15.7-9.1-7.4 9.2 15.7 9.2 7.4-9.3zm-14.9 23.5l-15.7-9.2c-.2 0-.4 0-.5.1-.4.2-.7.7-.9 1.2l15.7 9.2c.2-.5.6-1 .9-1.2.1 0 .3-.1.5-.1zm7.5-14.2l-15.7-9.2c-.5.7-.7 1.5-.4 2l15.7 9.2c-.3-.5-.1-1.4.4-2z" class="st29"/><path d="M295.4 214.5c.4-3.2 1-6.4 1.9-9.6l-4.1-.3c-.5 0-.7-.7-.4-1.5l4.3-11c.2-.5.6-1 .9-1.2.2-.1.4-.2.5-.1l4.1.4c1.6-3.2 3.4-6.3 5.4-9.3l-2.4-3.3c-.3-.4-.1-1.3.4-2l7.4-9.2.5-.5c.4-.2.8-.2 1 .1l2.4 3.3c2.3-2.4 4.8-4.6 7.4-6.5v-5.4c0-.7.5-1.5 1.1-1.9l8.6-5c.6-.4 1.1-.1 1.1.6v5.4c2.6-1 5-1.7 7.4-2l2.3-6.1c.2-.5.6-1 1-1.2.2-.1.4-.2.5-.1l7.4.6c.5.1.7.7.4 1.5l-2.3 6.1c2 .7 3.8 1.7 5.4 3.1l4.1-5.1.5-.5c.4-.2.8-.2 1 .1l4.3 6.1c.3.4.1 1.3-.4 2l-4.1 5.1c.9 2.2 1.6 4.6 2 7.3l4.7-2.7c.6-.4 1.1-.1 1.1.6v9.9c0 .7-.5 1.5-1.1 1.9l-4.7 2.7c-.4 3.2-1 6.4-1.9 9.6l4.1.4c.5 0 .7.7.4 1.5l-4.3 11c-.2.5-.6 1-1 1.2-.2.1-.4.2-.5.1l-4.1-.4c-1.6 3.2-3.4 6.3-5.4 9.3l2.4 3.3c.3.4.1 1.3-.4 2L347 234l-.5.5c-.4.2-.8.2-1-.1l-2.4-3.3c-2.4 2.4-4.8 4.6-7.4 6.5v5.4c0 .7-.5 1.5-1.1 1.9l-8.6 5c-.6.3-1.1.1-1.1-.6v-5.4c-2.6 1-5 1.7-7.4 2l-2.4 6.1c-.2.5-.6 1-1 1.2-.2.1-.4.2-.5.1l-7.4-.6c-.5 0-.7-.7-.4-1.5l2.3-6.1c-2-.7-3.8-1.7-5.4-3.1l-4.1 5.1-.5.5c-.4.2-.8.2-1-.1l-4.3-6.1c-.3-.4-.1-1.3.4-2l4.1-5.1c-.9-2.2-1.6-4.6-2-7.3l-4.7 2.7c-.6.3-1.1.1-1.1-.6v-9.9c0-.7.5-1.5 1.1-1.9l4.8-2.8zm35 10.7c11.8-6.8 21.4-23.4 21.4-37s-9.7-19.1-21.5-12.2c-11.8 6.8-21.4 23.4-21.4 37s9.6 19.1 21.5 12.2z" class="st28"/></g></svg>