<svg xmlns="http://www.w3.org/2000/svg" xmlns:xlink="http://www.w3.org/1999/xlink" id="Layer_1" viewBox="0 0 300 300"><style>.st2{fill-rule:evenodd;clip-rule:evenodd;fill:#fff}</style><symbol id="vuArixmnmLce634knGqL0i.sym" viewBox="-40 -40 80 80"><g id="j3inbf4og1t_1_"><path id="j3inbf22g1f_1_" fill="#9d5025" fill-rule="evenodd" d="M-40-1.6C-40-22.9-22.2-40 0-40S40-22.9 40-1.6c0 21.3-17.8 38.4-40 38.4S-40 19.7-40-1.6z" clip-rule="evenodd" transform="translate(0 3.1566)"/><path id="j3inbf2ig1g_1_" fill="#f58536" fill-rule="evenodd" d="M-40-1.6C-40-22.9-22.2-40 0-40S40-22.9 40-1.6c0 21.3-17.8 38.4-40 38.4S-40 19.7-40-1.6z" clip-rule="evenodd"/><path id="j3inbf2tg1h_1_" d="M-40-40h14.5v22.4H-40V-40z" class="st2" transform="translate(6.3753 27.2097)"/><path id="j3inbf30g1i_1_" d="M-40-40h13v12.4h-13V-40z" class="st2" transform="translate(52.79 11.894)"/><path id="j3inbf3ag1j_1_" d="M-40-40h13v12.4h-13V-40z" class="st2" transform="translate(52.79 32.197)"/><path id="j3inbf3hg1k_1_" d="M-40-40h13v12.4h-13V-40z" class="st2" transform="translate(52.79 52.5127)"/><path id="j3inbf40g1l_1_" d="M-8.1-18.5l2.2-1 1.4-.7-1.4-.7-1.9-.9-5.8-2.7v2.7H-31l19.7-12.1 1.6 2.3 3.3-5.3 1-1.6 1-1.5-1.8.2-2.1.2-6.2.7 1.5 2.2-24.2 14.9-2.7 1.6 3.2 1.9L-13-3.7l-1.5 2.2 6.2.7 2.1.2 1.8.2-1-1.5-1-1.6-3.3-5.3-1.6 2.3-19.7-12h17.4v2.6l5.5-2.6z" class="st2" transform="translate(17.2988 18.5607)"/></g></symbol><use id="elb" width="80" height="80" x="-40" y="-40" overflow="visible" transform="translate(150 150) scale(3.7375)" xlink:href="#vuArixmnmLce634knGqL0i.sym"/></svg>