<svg xmlns="http://www.w3.org/2000/svg" id="Objects" viewBox="0 0 800 800"><style>.st0{fill:#91c551}.st1{fill:#589107}.st3{fill:none;stroke:#cc3636;stroke-width:2;stroke-miterlimit:10}.st5{fill:#c60202}.st7{fill:#c18408}.st9{fill:none;stroke:#4b4b4b;stroke-miterlimit:10}</style><circle cx="510.3" cy="116.7" r="108.8" class="st0"/><ellipse cx="561.9" cy="86.7" class="st1" rx="10.4" ry="14.6"/><ellipse cx="458.8" cy="86.7" class="st1" rx="10.4" ry="14.6"/><path d="M572.9 135.9c0 34.5-28 62.5-62.5 62.5s-62.5-28-62.5-62.5h125z" class="st1"/><circle cx="510.3" cy="686.3" r="108.8" fill="#ff4b4b"/><path fill="none" stroke="#c60202" stroke-miterlimit="10" stroke-width="2" d="M565.5 750c0-30.5-24.7-55.1-55.1-55.1-30.5 0-55.1 24.7-55.1 55.1"/><path d="M572.2 660.1c0 8-4.6 14.6-10.4 14.6-5.7 0-10.4-6.5-10.4-14.6s4.6-14.6 10.4-14.6c5.8.1 10.4 6.6 10.4 14.6zM469.1 660.1c0 8-4.6 14.6-10.4 14.6-5.7 0-10.4-6.5-10.4-14.6s4.6-14.6 10.4-14.6c5.8.1 10.4 6.6 10.4 14.6z" class="st5"/><g><circle cx="510.3" cy="396.5" r="108.8" fill="#ffc644"/><path d="M572.2 372.6c0 8-4.6 14.6-10.4 14.6-5.7 0-10.4-6.5-10.4-14.6S556 358 561.8 358c5.8 0 10.4 6.5 10.4 14.6zM469.1 372.6c0 8-4.6 14.6-10.4 14.6-5.7 0-10.4-6.5-10.4-14.6s4.6-14.6 10.4-14.6 10.4 6.5 10.4 14.6z" class="st7"/><path fill="none" stroke="#c18408" stroke-miterlimit="10" stroke-width="2" d="M458.8 438.4h103.1"/></g><path d="M184.5 74.7h120v120h-120zM184.5 346.5h120v120h-120zM184.5 626.3h120v120h-120z" class="st9"/><path d="M192 109.1s22.6.3 48.6 29.4c0 0 40.5-77.1 107.9-93 0 0-50.9 21.3-101.1 118.9h-10.6c.1.1-29.2-46.3-44.8-55.3z" class="st0"/></svg>