<svg xmlns="http://www.w3.org/2000/svg" id="Layer_1" viewBox="0 0 300 300"><style>.st0{fill-opacity:0}.st1{fill:#0072c6}.st3{fill:#fff}</style><path d="M26.8 1.6h245.3v297.3H26.8z" class="st0"/><path d="M38.7 1.6h223.7v297.3H38.7z" class="st0"/><path d="M38.7 42.3v216c0 22.1 50.2 40.7 111.9 40.7V42.3H38.7z" class="st1"/><path d="M148.8 298.9h1.8c62.2 0 111.9-17.9 111.9-40.7V42.3H148.8v256.6z" class="st1"/><path fill="#fff" d="M148.8 298.9h1.8c62.2 0 111.9-17.9 111.9-40.7V42.3H148.8v256.6z" opacity=".15"/><path d="M262.5 42.3c0 22.1-50.2 40.7-111.9 40.7S38.7 65 38.7 42.3C38.7 20.2 89 1.6 150.6 1.6s111.9 18.5 111.9 40.7z" class="st3"/><path fill="#7fba00" d="M239.7 40.5c0 14.4-40.1 26.3-89.1 26.3s-89.1-12-89.1-26.3c0-15 40.1-26.9 89.1-26.9s89.1 11.9 89.1 26.9z"/><path fill="#b8d432" d="M221.2 56.6c12-4.8 18.5-10.2 18.5-16.2 0-15-40.1-26.9-89.1-26.9s-89.1 12-89.1 26.9c0 6 7.2 12 18.5 16.2 22.7-7.5 46.6-11 70.6-10.2 24-1 47.9 2.4 70.6 10.2z"/><path d="M26.8 103.3h245.3v131.6H26.8z" class="st0"/><path d="M71.5 196.6v-14c2.5 2.1 5.3 3.7 8.3 4.8 2.9 1 5.9 1.6 9 1.6 1.6 0 3.1-.1 4.6-.5 1.2-.3 2.3-.7 3.3-1.3.8-.5 1.5-1.2 2-2 .4-.8.7-1.7.7-2.5 0-1.2-.4-2.3-1-3.3-.8-1.1-1.8-2-2.9-2.7-1.4-.9-2.8-1.7-4.3-2.4-1.7-.8-3.5-1.5-5.4-2.3-4.2-1.6-8-4.1-11-7.5-2.4-3-3.7-6.8-3.6-10.7-.1-2.9.6-5.8 2-8.4 1.3-2.3 3.1-4.3 5.3-5.8 2.4-1.6 5.1-2.7 7.9-3.3 3.1-.7 6.3-1.1 9.5-1.1 2.9 0 5.8.2 8.7.6 2.4.3 4.7.9 7 1.8v13.1c-1.1-.8-2.3-1.4-3.5-1.9-1.2-.6-2.5-1-3.8-1.4-2.5-.7-5-1.1-7.6-1.1-1.5 0-2.9.1-4.4.5-1.2.2-2.3.7-3.3 1.3-.8.5-1.6 1.2-2.1 2s-.8 1.7-.7 2.6c0 1 .3 2 .8 2.9.6.9 1.4 1.7 2.4 2.4 1.2.8 2.4 1.6 3.7 2.2 1.5.7 3.1 1.4 4.9 2.2 2.3 1 4.6 2.1 6.8 3.4 1.9 1.1 3.6 2.4 5.2 4 1.4 1.5 2.5 3.2 3.3 5.1 1.8 5.1 1.5 10.7-.9 15.5-1.3 2.3-3.2 4.3-5.4 5.8-2.4 1.5-5.1 2.6-8 3.2-3.1.7-6.3 1-9.6 1s-6.6-.3-9.9-.9c-2.7-.8-5.4-1.7-8-2.9zm79.8 3.5c-8.2.3-16.2-2.9-22-8.8-5.8-6.2-8.8-14.4-8.5-22.9-.4-8.9 2.7-17.5 8.6-24.1 5.9-6.2 14.3-9.6 22.9-9.2 8.2-.3 16.1 2.9 21.7 8.8 5.7 6.3 8.7 14.7 8.3 23.2.4 8.8-2.7 17.4-8.6 23.9l-.6.6c-.2.2-.4.4-.6.5l15.9 15.3h-19.8l-8.3-8.5c-2.9.9-6 1.2-9 1.2zm.6-52.8c-4.6-.2-9 1.9-11.8 5.6-3.1 4.3-4.7 9.5-4.4 14.8-.3 5.3 1.3 10.5 4.4 14.8 2.8 3.5 7 5.6 11.5 5.4 4.5.2 8.8-1.8 11.6-5.3 3.1-4.3 4.6-9.4 4.3-14.7.3-5.4-1.1-10.7-4.2-15.2-2.7-3.6-6.9-5.6-11.4-5.4zm78.3 51.7h-37.4v-62.8H207v51.3h23.3V199z" class="st3"/></svg>