<svg xmlns="http://www.w3.org/2000/svg" xmlns:xlink="http://www.w3.org/1999/xlink" id="svg2" viewBox="0 0 300 300"><style>.st1{fill:#394d54}.st2{clip-path:url(#SVGID_2_);fill:#00acd3}.st3{fill:#20c2ef}.st3,.st4,.st5{clip-path:url(#SVGID_2_)}.st5{fill:#394d54}.st10,.st9{clip-path:url(#SVGID_10_);fill:#34464d}.st10{fill:#15a5d7}</style><path id="path12" fill="none" stroke="#394d54" stroke-linecap="round" stroke-linejoin="round" stroke-width="10.5" d="M176.1 266.4v-21.6l-.1-38.7m21.9 16.6l-21.8 22 21.9 21.7M52 245c.1-4.6-1.2-9.4-4-13.2-3.9-5.5-10.3-9.3-17.3-9.4h-1.4c-2.8.2-5.4.6-7.8 1.5-15.6 6.5-18.3 28.1-5.2 37.9 11.4 8.5 27.9 5 33.7-7.9 1.2-2.6 2-6.1 2-8.9v-39.1M157.1 225c-3.2-2.1-7-2.8-10.7-2.8h-1.2c-10.8.5-20.7 8.1-20.7 22.8 0 17.4 18.7 26.9 32.7 18.6m62.8-1.8c11-9.4 33.1-28.3 33.1-28.3s-.8-1.5-1.3-2.2c-4.5-6-11.3-9-18.4-9-17.8-.1-31.1 22.8-13.4 39.5 1.2 1.2 2.9 2.1 4.8 2.8 6.5 2.7 15.3 2.5 20.1-1.1M88.2 222.3c-.5 0-1 .1-1.5.1-13.4.2-23.1 14.2-20.2 27.1 2.9 12.6 16.6 20.1 28.5 15.9 13.9-3.6 19.5-21.1 11.9-32.9-4.1-6.3-11.2-10.3-18.7-10.2zm203.9.4c-5.4 0-10.7 1.9-14.7 5.6-6.2 5.1-7.5 11.6-7.5 19.7l.2 18.5"/><path d="M169.8 67.4h22.9v23.4h11.6c5.3 0 10.8-1 15.9-2.7 2.5-.8 5.3-2 7.7-3.5-3.2-4.2-4.9-9.5-5.4-14.8-.7-7.1.8-16.4 5.6-22l2.4-2.8 2.9 2.3c7.2 5.8 13.3 13.9 14.3 23.1 8.7-2.6 18.9-2 26.5 2.5l3.1 1.8-1.7 3.2c-6.5 12.6-20 16.5-33.2 15.9-19.8 49.3-62.9 72.7-115.2 72.7-27 0-51.8-10.1-65.9-34-.8-1.5-1.5-3-2.3-4.6-4.8-10.5-6.4-22.1-5.3-33.6l.3-3.5h19.6V67.4h22.9V44.5h45.7V21.7h27.4l.2 45.7" class="st1"/><defs><path id="SVGID_1_" d="M98.3 23.7v46h-22v23H57.9c-.1.7-.1 1.3-.2 2-1.2 12.5 1 24.1 6.1 34l1.7 3c1 1.8 2.2 3.5 3.4 5.2 1.2 1.7 1.7 2.6 2.5 3.7 13.3 14.9 33.1 22.1 56 22.1 50.6 0 93.6-22.4 112.7-72.8 13.5 1.4 26.4-2.1 32.3-13.6-9.4-5.4-21.5-3.7-28.4-.2l18.4-52.4-72 46h-23v-46H98.3"/></defs><clipPath id="SVGID_2_"><use overflow="visible" xlink:href="#SVGID_1_"/></clipPath><path d="M146.2 2.6H166v19.8h-19.8z" class="st2"/><path d="M146.2 25.5H166v19.8h-19.8z" class="st3"/><path d="M148.6 43.6V27.1m3 16.5V27.1m3 16.5V27.1m3 16.5V27.1m3 16.5V27.1m3 16.5V27.1" class="st4"/><path d="M149.4 43.6V27.1h-1.6v16.5h1.6zm3 0V27.1h-1.6v16.5h1.6zm3 0V27.1h-1.6v16.5h1.6zm3 0V27.1h-1.6v16.5h1.6zm3 0V27.1h-1.6v16.5h1.6zm2.9 0V27.1h-1.6v16.5h1.6z" class="st5"/><path d="M169 25.5h19.8v19.8H169z" class="st2"/><path d="M169 2.6h19.8v19.8H169z" class="st3"/><path d="M171.5 27.1v16.5m3-16.5v16.5m3-16.5v16.5m3-16.5v16.5m3-16.5v16.5m2.9-16.5v16.5" class="st4"/><path d="M170.7 27.1v16.5h1.6V27.1h-1.6zm3 0v16.5h1.6V27.1h-1.6zm3 0v16.5h1.6V27.1h-1.6zm3 0v16.5h1.6V27.1h-1.6zm3 0v16.5h1.6V27.1h-1.6zm3 0v16.5h1.6V27.1h-1.6z" class="st5"/><path d="M54.7 48.3h19.8v19.8H54.7z" class="st2"/><path d="M54.7 71.2h19.8V91H54.7z" class="st3"/><path d="M57.1 66.5V50m3 16.5V50m3 16.5V50m3 16.5V50m3 16.5V50m3 16.5V50" class="st4"/><path d="M57.9 66.5V50h-1.6v16.5h1.6zm3 0V50h-1.6v16.5h1.6zm3 0V50h-1.6v16.5h1.6zm3 0V50h-1.6v16.5h1.6zm3 0V50h-1.6v16.5h1.6zm3 0V50h-1.6v16.5h1.6z" class="st5"/><path d="M57.1 89.4V72.8m3 16.6V72.8m3 16.6V72.8m3 16.6V72.8m3 16.6V72.8m3 16.6V72.8" class="st4"/><path d="M57.9 89.4V72.8h-1.6v16.5h1.6zm3 0V72.8h-1.6v16.5h1.6zm3 0V72.8h-1.6v16.5h1.6zm3 0V72.8h-1.6v16.5h1.6zm3 0V72.8h-1.6v16.5h1.6zm3 0V72.8h-1.6v16.5h1.6z" class="st5"/><path d="M77.6 71.2h19.8V91H77.6z" class="st2"/><path d="M77.6 48.3h19.8v19.8H77.6z" class="st3"/><path d="M80 72.8v16.5m3-16.5v16.5m3-16.5v16.5m3-16.5v16.5m3-16.5v16.5m3-16.5v16.5" class="st4"/><path d="M79.2 72.8v16.5h1.6V72.8h-1.6zm3 0v16.5h1.6V72.8h-1.6zm3 0v16.5h1.6V72.8h-1.6zm3 0v16.5h1.6V72.8h-1.6zm3 0v16.5h1.6V72.8h-1.6zm3 0v16.5h1.6V72.8h-1.6z" class="st5"/><path d="M80 50v16.5M83 50v16.5M86 50v16.5M89 50v16.5M92 50v16.5M95 50v16.5" class="st4"/><path d="M79.2 50v16.5h1.6V50h-1.6zm3 0v16.5h1.6V50h-1.6zm3 0v16.5h1.6V50h-1.6zm3 0v16.5h1.6V50h-1.6zm3 0v16.5h1.6V50h-1.6zm3 0v16.5h1.6V50h-1.6z" class="st5"/><path d="M100.4 48.3h19.8v19.8h-19.8z" class="st2"/><path d="M100.4 71.2h19.8V91h-19.8z" class="st3"/><path d="M102.9 66.5V50m3 16.5V50m3 16.5V50m3 16.5V50m3 16.5V50m2.9 16.5V50" class="st4"/><path d="M103.7 66.5V50h-1.6v16.5h1.6zm2.9 0V50H105v16.5h1.6zm3 0V50H108v16.5h1.6zm3 0V50H111v16.5h1.6zm3 0V50H114v16.5h1.6zm3 0V50H117v16.5h1.6z" class="st5"/><path d="M102.9 89.4V72.8m3 16.6V72.8m3 16.6V72.8m3 16.6V72.8m3 16.6V72.8m2.9 16.6V72.8" class="st4"/><path d="M103.7 89.4V72.8h-1.6v16.5h1.6zm2.9 0V72.8H105v16.5h1.6zm3 0V72.8H108v16.5h1.6zm3 0V72.8H111v16.5h1.6zm3 0V72.8H114v16.5h1.6zm3 0V72.8H117v16.5h1.6z" class="st5"/><path d="M123.3 71.2h19.8V91h-19.8z" class="st2"/><path d="M123.3 48.3h19.8v19.8h-19.8z" class="st3"/><path d="M125.7 72.8v16.5m3-16.5v16.5m3-16.5v16.5m3-16.5v16.5m3-16.5v16.5m3-16.5v16.5" class="st4"/><path d="M125 72.8v16.5h1.6V72.8H125zm2.9 0v16.5h1.6V72.8h-1.6zm3 0v16.5h1.6V72.8h-1.6zm3 0v16.5h1.6V72.8h-1.6zm3 0v16.5h1.6V72.8h-1.6zm3 0v16.5h1.6V72.8h-1.6z" class="st5"/><path d="M125.7 50v16.5m3-16.5v16.5m3-16.5v16.5m3-16.5v16.5m3-16.5v16.5m3-16.5v16.5" class="st4"/><path d="M125 50v16.5h1.6V50H125zm2.9 0v16.5h1.6V50h-1.6zm3 0v16.5h1.6V50h-1.6zm3 0v16.5h1.6V50h-1.6zm3 0v16.5h1.6V50h-1.6zm3 0v16.5h1.6V50h-1.6z" class="st5"/><path d="M146.2 48.3H166v19.8h-19.8z" class="st2"/><path d="M146.2 71.2H166V91h-19.8z" class="st3"/><path d="M148.6 66.5V50m3 16.5V50m3 16.5V50m3 16.5V50m3 16.5V50m3 16.5V50" class="st4"/><path d="M149.4 66.5V50h-1.6v16.5h1.6zm3 0V50h-1.6v16.5h1.6zm3 0V50h-1.6v16.5h1.6zm3 0V50h-1.6v16.5h1.6zm3 0V50h-1.6v16.5h1.6zm2.9 0V50h-1.6v16.5h1.6z" class="st5"/><path d="M148.6 89.4V72.8m3 16.6V72.8m3 16.6V72.8m3 16.6V72.8m3 16.6V72.8m3 16.6V72.8" class="st4"/><path d="M149.4 89.4V72.8h-1.6v16.5h1.6zm3 0V72.8h-1.6v16.5h1.6zm3 0V72.8h-1.6v16.5h1.6zm3 0V72.8h-1.6v16.5h1.6zm3 0V72.8h-1.6v16.5h1.6zm2.9 0V72.8h-1.6v16.5h1.6z" class="st5"/><path d="M169 71.2h19.8V91H169z" class="st2"/><path d="M169 48.3h19.8v19.8H169z" class="st3"/><path d="M171.5 72.8v16.5m3-16.5v16.5m3-16.5v16.5m3-16.5v16.5m3-16.5v16.5m2.9-16.5v16.5" class="st4"/><path d="M170.7 72.8v16.5h1.6V72.8h-1.6zm3 0v16.5h1.6V72.8h-1.6zm3 0v16.5h1.6V72.8h-1.6zm3 0v16.5h1.6V72.8h-1.6zm3 0v16.5h1.6V72.8h-1.6zm3 0v16.5h1.6V72.8h-1.6z" class="st5"/><path d="M171.5 50v16.5m3-16.5v16.5m3-16.5v16.5m3-16.5v16.5m3-16.5v16.5m2.9-16.5v16.5" class="st4"/><path d="M170.7 50v16.5h1.6V50h-1.6zm3 0v16.5h1.6V50h-1.6zm3 0v16.5h1.6V50h-1.6zm3 0v16.5h1.6V50h-1.6zm3 0v16.5h1.6V50h-1.6zm3 0v16.5h1.6V50h-1.6z" class="st5"/><g><defs><path id="SVGID_3_" d="M98.3 23.7v46h-22v23H57.9c-.1.7-.1 1.3-.2 2-1.2 12.5 1 24.1 6.1 34l1.7 3c1 1.8 2.2 3.5 3.4 5.2 1.2 1.7 1.7 2.6 2.5 3.7 13.3 14.9 33.1 22.1 56 22.1 50.6 0 93.6-22.4 112.7-72.8 13.5 1.4 26.4-2.1 32.3-13.6-9.4-5.4-21.5-3.7-28.4-.2l18.4-52.4-72 46h-23v-46H98.3"/></defs><clipPath id="SVGID_4_"><use overflow="visible" xlink:href="#SVGID_3_"/></clipPath><path fill="#17b5eb" d="M243.9 76c1.5-11.9-7.4-21.3-12.9-25.7-6.4 7.4-7.4 26.7 2.6 34.8-5.6 5-17.3 9.4-29.4 9.4H56.3c-1.2 12.6 0 73.1 0 73.1h217l-1-91.4c-9.4-5.4-21.5-3.7-28.4-.2" clip-path="url(#SVGID_4_)"/></g><g><defs><path id="SVGID_5_" d="M98.3 23.7v46h-22v23H57.9c-.1.7-.1 1.3-.2 2-1.2 12.5 1 24.1 6.1 34l1.7 3c1 1.8 2.2 3.5 3.4 5.2 1.2 1.7 1.7 2.6 2.5 3.7 13.3 14.9 33.1 22.1 56 22.1 50.6 0 93.6-22.4 112.7-72.8 13.5 1.4 26.4-2.1 32.3-13.6-9.4-5.4-21.5-3.7-28.4-.2l18.4-52.4-72 46h-23v-46H98.3"/></defs><clipPath id="SVGID_6_"><use overflow="visible" xlink:href="#SVGID_5_"/></clipPath><path fill="#1396c3" d="M209.9 110.7h-142c2.7 11.4 8.8 20.4 17.7 26.6.8.5 1.6 1 2.5 1.5l20.5-.9c1.3 3 3 6 5 8.8 2.2.2 4.4.3 6.7.3 12.5 0 26.6-2.8 41.8-8.6 16.8-6.6 33.1-16.2 47.8-27.7m19.9 0c-20.9 34.1-55.9 50.4-96.3 51.9-2.1.1-4.1.1-6.2.1-22.9 0-42.7-7.2-56-22.1-.2-.3-.5-.7-.7-1-.5-.7-.9-1.5-1.8-2.7-1.2-1.7-2.4-3.4-3.4-5.2l-1.7-3c-2.8-5.5-4.7-11.5-5.7-18 1 6.4 2.9 12.5 5.7 18l1.7 3c1 1.8 2.2 3.5 3.4 5.2 1.2 1.7 1.7 2.6 2.5 3.7 13.3 14.9 33.1 22.1 56 22.1 43.1 0 80.6-16.3 102.5-52" clip-path="url(#SVGID_6_)"/></g><g><defs><path id="SVGID_7_" d="M98.3 23.7v46h-22v23H57.9c-.1.7-.1 1.3-.2 2-1.2 12.5 1 24.1 6.1 34l1.7 3c1 1.8 2.2 3.5 3.4 5.2 1.2 1.7 1.7 2.6 2.5 3.7 13.3 14.9 33.1 22.1 56 22.1 50.6 0 93.6-22.4 112.7-72.8 13.5 1.4 26.4-2.1 32.3-13.6-9.4-5.4-21.5-3.7-28.4-.2l18.4-52.4-72 46h-23v-46H98.3"/></defs><clipPath id="SVGID_8_"><use overflow="visible" xlink:href="#SVGID_7_"/></clipPath><path fill="#d4edf1" d="M133.6 162.5c-13.5-6.4-21-15.2-25.1-24.7l-41.1 1.8 21 28 45.2-5.1" clip-path="url(#SVGID_8_)"/></g><g><defs><path id="SVGID_9_" d="M98.3 23.7v46h-22v23H57.9c-.1.7-.1 1.3-.2 2-1.2 12.5 1 24.1 6.1 34l1.7 3c1 1.8 2.2 3.5 3.4 5.2 1.2 1.7 1.7 2.6 2.5 3.7 13.3 14.9 33.1 22.1 56 22.1 50.6 0 93.6-22.4 112.7-72.8 13.5 1.4 26.4-2.1 32.3-13.6-9.4-5.4-21.5-3.7-28.4-.2l18.4-52.4-72 46h-23v-46H98.3"/></defs><clipPath id="SVGID_10_"><use overflow="visible" xlink:href="#SVGID_9_"/></clipPath><path d="M258.5 72.8c-5.1 0-10 1.2-13.6 2.8 3.6-1.7 8.5-2.8 13.6-2.8 4.7 0 9.5 1 13.8 3.5-4.3-2.6-9.1-3.5-13.8-3.5" class="st9"/><path d="M258.5 72.8c-5.1 0-10 1.2-13.7 2.8-9.9 12.7-21.7 24.7-34.9 35h19.9c3.9-6.3 7.3-13.3 10.1-20.8 1.8.2 3.7.3 5.5.3 11.4 0 21.8-3.9 26.9-13.9-4.3-2.5-9.1-3.4-13.8-3.4" class="st10"/><path d="M66.4 94.6h-8.7v.1c-.2 2.2-.3 4.4-.3 6.5 0-2.1.1-4.3.3-6.5v-.1h8.7" class="st9"/><path d="M66.4 94.6h-8.7v.1c-.2 2.2-.3 4.4-.3 6.5 0 3.3.2 6.4.7 9.5h9.8c-1.2-5-1.7-10.3-1.5-16.1" class="st10"/><path fill="#1189b2" d="M67.9 110.7h-9.8c1 6.4 2.9 12.5 5.7 18l1.7 3c1 1.8 2.2 3.5 3.4 5.2.9 1.1 1.3 1.9 1.8 2.7l17.3-.8c-.8-.5-1.6-1-2.5-1.5-8.8-6.2-14.9-15.2-17.6-26.6m161.9 0h-19.9c-14.7 11.6-31 21.2-48 27.7-15.1 5.8-29.3 8.6-41.8 8.6-2.3 0-4.5-.1-6.7-.3 4.4 6.1 10.8 11.5 20.1 15.9 40.5-1.6 75.4-17.9 96.3-51.9" clip-path="url(#SVGID_10_)"/><path fill="#c2d9dc" d="M88 138.7l-17.3.8c.2.3.4.7.7 1 13.3 14.9 33.1 22.1 56 22.1 2.1 0 4.2 0 6.2-.1-9.2-4.4-15.6-9.8-20.1-15.9-8.4-.7-16-2.8-22.4-6.1-1.1-.5-2.1-1.1-3.1-1.8" clip-path="url(#SVGID_10_)"/></g><path d="M67.9 140.4c4.5.2 9.2.4 13.8.4 10 0 20-.8 29.2-3.7.9-.3 1.4-1.2 1.1-2.1-.3-.9-1.2-1.4-2.1-1.1-8.7 2.7-18.4 3.6-28.2 3.6-4.6 0-9.2-.2-13.7-.4-.9-.1-1.7.7-1.8 1.6 0 .8.7 1.6 1.7 1.7z" class="st1"/><path fill="#d4edf1" d="M124.5 128.6c0 3-2.4 5.5-5.5 5.5-3 0-5.5-2.4-5.5-5.5s2.4-5.5 5.5-5.5c3 0 5.5 2.5 5.5 5.5z"/><path d="M120.4 125c-.5.3-.8.8-.8 1.4 0 .9.7 1.6 1.6 1.6.6 0 1.1-.3 1.4-.8.2.5.3 1 .3 1.5 0 2.2-1.8 3.9-3.9 3.9-2.2 0-3.9-1.8-3.9-3.9 0-2.2 1.8-3.9 3.9-3.9.5-.1 1 0 1.4.2zM22.3 111.8h254.3c-5.5-1.4-17.5-3.3-15.5-10.6-10.1 11.7-34.4 8.2-40.5 2.4-6.8 9.9-46.6 6.1-49.3-1.6-8.6 10-35.1 10-43.6 0-2.8 7.7-42.5 11.5-49.3 1.6-6.1 5.7-30.4 9.2-40.5-2.4 1.9 7.3-10 9.2-15.6 10.6" class="st1"/></svg>