<svg xmlns="http://www.w3.org/2000/svg" width="730" height="730"><style>.st0{fill:#13d389}.st1{fill:#004d61}.st3{fill:#006a85}.st5{fill:#fff}.st6{fill:#959594}.st8{fill:#f6f6f6}.st9{fill:#57438e}.st14{fill:#c9c9c9}.st18{fill:#9e917c}.st25{fill:#57934d}.st27{fill:#5da553}.st31{fill:#725849}.st33{fill:#857a68}.st34{fill:#296aae}.st37{fill:#b265c4}.st38{fill:#7b4987}.st39{fill:#8d539b}.st42{fill:#dbc64f}.st43{fill:#9e8c41}.st44{fill:#ad9945}.st47{fill:#00576e}.st49{fill:#005d75}.st50{fill:#e94e1b}.st51{fill:#a13613}.st54{fill:#8f3011}.st58{fill:#ffc65b}.st60{fill:#6ca3e5}.st61{enable-background:new}.st64{fill:#c1c1c1}.st71{fill:#fa7564}.st72{fill:#d43e3e}.st73{fill:#4ea4ff}.st74{fill:#007cff}.st75{fill:#025ca0}.st80{fill:#f2e279}.st81{fill:#80beff}.st82{fill:#0070e6}.st83{fill:silver}.st84{fill:#de5a6f}.st85{fill:#bf1933}.st86{fill:#ff6780}.st88{fill:#9bd300}.st89{fill:#698e03}.st90{fill:#79a307}</style><g id="Layer_2"><path d="M78.2 609.8c-.4 0-.8-.2-1-.6-.3-.5-.1-1.2.4-1.5l3.9-2.2c.5-.3 1.2-.1 1.5.4.3.5.1 1.2-.4 1.5l-3.9 2.2c-.1.1-.3.2-.5.2zM87.3 604.5c-.4 0-.8-.2-1-.6-.3-.5-.1-1.2.4-1.5l7.9-4.6c.5-.3 1.2-.1 1.5.4.3.5.1 1.2-.4 1.5l-7.9 4.6c-.1.1-.3.2-.5.2zm13.1-7.6c-.4 0-.8-.2-1-.6-.3-.5-.1-1.2.4-1.5l7.9-4.6c.5-.3 1.2-.1 1.5.4.3.5.1 1.2-.4 1.5l-7.9 4.6c-.1.1-.3.2-.5.2zm13.2-7.6c-.4 0-.8-.2-1-.6-.3-.5-.1-1.2.4-1.5l7.9-4.6c.5-.3 1.2-.1 1.5.4.3.5.1 1.2-.4 1.5l-7.9 4.6c-.1.1-.3.2-.5.2zm13.1-7.6c-.4 0-.8-.2-1-.6-.3-.5-.1-1.2.4-1.5l7.9-4.6c.5-.3 1.2-.1 1.5.4.3.5.1 1.2-.4 1.5l-7.9 4.6c-.1.1-.3.2-.5.2zm13.2-7.6c-.4 0-.8-.2-1-.6-.3-.5-.1-1.2.4-1.5l7.9-4.6c.5-.3 1.2-.1 1.5.4.3.5.1 1.2-.4 1.5l-7.9 4.6c-.2.1-.4.2-.5.2zm13.1-7.6c-.4 0-.8-.2-1-.6-.3-.5-.1-1.2.4-1.5l7.9-4.6c.5-.3 1.2-.1 1.5.4.3.5.1 1.2-.4 1.5l-7.9 4.6c-.1.1-.3.2-.5.2zm13.1-7.6c-.4 0-.8-.2-1-.6-.3-.5-.1-1.2.4-1.5l7.9-4.6c.5-.3 1.2-.1 1.5.4.3.5.1 1.2-.4 1.5l-7.9 4.6c-.1.1-.3.2-.5.2zm13.2-7.6c-.4 0-.8-.2-1-.6-.3-.5-.1-1.2.4-1.5l7.9-4.6c.5-.3 1.2-.1 1.5.4.3.5.1 1.2-.4 1.5l-7.9 4.6c-.1.1-.3.2-.5.2zm13.1-7.6c-.4 0-.8-.2-1-.6-.3-.5-.1-1.2.4-1.5l7.9-4.6c.5-.3 1.2-.1 1.5.4.3.5.1 1.2-.4 1.5l-7.9 4.6c-.1.1-.3.2-.5.2zm13.1-7.6c-.4 0-.8-.2-1-.6-.3-.5-.1-1.2.4-1.5l7.9-4.6c.5-.3 1.2-.1 1.5.4.3.5.1 1.2-.4 1.5l-7.9 4.6c-.1.1-.3.2-.5.2zm13.2-7.6c-.4 0-.8-.2-1-.6-.3-.5-.1-1.2.4-1.5l7.9-4.6c.5-.3 1.2-.1 1.5.4.3.5.1 1.2-.4 1.5l-7.9 4.6c-.1.1-.3.2-.5.2zm13.1-7.6c-.4 0-.8-.2-1-.6-.3-.5-.1-1.2.4-1.5l7.9-4.6c.5-.3 1.2-.1 1.5.4.3.5.1 1.2-.4 1.5l-7.9 4.6c-.1.1-.3.2-.5.2zm13.2-7.6c-.4 0-.8-.2-1-.6-.3-.5-.1-1.2.4-1.5l7.9-4.6c.5-.3 1.2-.1 1.5.4.3.5.1 1.2-.4 1.5l-7.9 4.6c-.2.1-.4.2-.5.2zm13.1-7.6c-.4 0-.8-.2-1-.6-.3-.5-.1-1.2.4-1.5l7.9-4.6c.5-.3 1.2-.1 1.5.4.3.5.1 1.2-.4 1.5l-7.9 4.6c-.1.1-.3.2-.5.2zm13.1-7.6c-.4 0-.8-.2-1-.6-.3-.5-.1-1.2.4-1.5l7.9-4.6c.5-.3 1.2-.1 1.5.4.3.5.1 1.2-.4 1.5l-7.9 4.6c-.1.1-.3.2-.5.2zm13.2-7.6c-.4 0-.8-.2-1-.6-.3-.5-.1-1.2.4-1.5l7.9-4.6c.5-.3 1.2-.1 1.5.4.3.5.1 1.2-.4 1.5l-7.9 4.6c-.1.1-.3.2-.5.2zM297.5 482.9c-.4 0-.8-.2-1-.6-.3-.5-.1-1.2.4-1.5l3.9-2.2c.5-.3 1.2-.1 1.5.4.3.5.1 1.2-.4 1.5l-3.9 2.2c-.1.1-.3.2-.5.2zM565.4 578.8c.4 0 .8-.2 1-.6.3-.5.1-1.2-.4-1.5l-3.9-2.2c-.5-.3-1.2-.1-1.5.4-.3.5-.1 1.2.4 1.5l3.9 2.2c.1.1.3.2.5.2zM555.7 573.3l-7.9-4.6c-.5-.3-.7-1-.4-1.5.3-.5 1-.7 1.5-.4l7.9 4.6c.5.3.7 1 .4 1.5-.2.4-.6.6-1 .6-.1 0-.3-.1-.5-.2zm-13.1-7.6l-7.9-4.6c-.5-.3-.7-1-.4-1.5.3-.5 1-.7 1.5-.4l7.9 4.6c.5.3.7 1 .4 1.5-.2.4-.6.6-1 .6-.2 0-.4-.1-.5-.2zm-13.2-7.6l-7.9-4.6c-.5-.3-.7-1-.4-1.5.3-.5 1-.7 1.5-.4l7.9 4.6c.5.3.7 1 .4 1.5-.2.4-.6.6-1 .6-.1 0-.3-.1-.5-.2zm-13.1-7.6l-7.9-4.6c-.5-.3-.7-1-.4-1.5.3-.5 1-.7 1.5-.4l7.9 4.6c.5.3.7 1 .4 1.5-.2.4-.6.6-1 .6-.2 0-.3-.1-.5-.2zm-13.2-7.6l-7.9-4.6c-.5-.3-.7-1-.4-1.5.3-.5 1-.7 1.5-.4l7.9 4.6c.5.3.7 1 .4 1.5-.2.4-.6.6-1 .6-.1 0-.3-.1-.5-.2zm-13.1-7.6l-7.9-4.6c-.5-.3-.7-1-.4-1.5.3-.5 1-.7 1.5-.4l7.9 4.6c.5.3.7 1 .4 1.5-.2.4-.6.6-1 .6-.1 0-.3-.1-.5-.2zm-13.1-7.6l-7.9-4.6c-.5-.3-.7-1-.4-1.5.3-.5 1-.7 1.5-.4l7.9 4.6c.5.3.7 1 .4 1.5-.2.4-.6.6-1 .6-.2 0-.4-.1-.5-.2zm-13.2-7.6l-7.9-4.6c-.5-.3-.7-1-.4-1.5.3-.5 1-.7 1.5-.4l7.9 4.6c.5.3.7 1 .4 1.5-.2.4-.6.6-1 .6-.1 0-.3-.1-.5-.2zm-13.1-7.6l-7.9-4.6c-.5-.3-.7-1-.4-1.5.3-.5 1-.7 1.5-.4l7.9 4.6c.5.3.7 1 .4 1.5-.2.4-.6.6-1 .6-.1 0-.3-.1-.5-.2zm-13.1-7.6l-7.9-4.6c-.5-.3-.7-1-.4-1.5.3-.5 1-.7 1.5-.4l7.9 4.6c.5.3.7 1 .4 1.5-.2.4-.6.6-1 .6-.2 0-.4-.1-.5-.2zm-13.2-7.6l-7.9-4.6c-.5-.3-.7-1-.4-1.5.3-.5 1-.7 1.5-.4l7.9 4.6c.5.3.7 1 .4 1.5-.2.4-.6.6-1 .6-.1 0-.3-.1-.5-.2zm-13.1-7.6l-7.9-4.6c-.5-.3-.7-1-.4-1.5.3-.5 1-.7 1.5-.4l7.9 4.6c.5.3.7 1 .4 1.5-.2.4-.6.6-1 .6-.2 0-.3-.1-.5-.2zm-13.2-7.6l-7.9-4.6c-.5-.3-.7-1-.4-1.5.3-.5 1-.7 1.5-.4l7.9 4.6c.5.3.7 1 .4 1.5-.2.4-.6.6-1 .6-.1 0-.3-.1-.5-.2zm-13.1-7.6L377 470c-.5-.3-.7-1-.4-1.5.3-.5 1-.7 1.5-.4l7.9 4.6c.5.3.7 1 .4 1.5-.2.4-.6.6-1 .6-.1-.1-.3-.2-.5-.3zm-13.1-7.6l-7.9-4.6c-.5-.3-.7-1-.4-1.5.3-.5 1-.7 1.5-.4l7.9 4.6c.5.3.7 1 .4 1.5-.2.4-.6.6-1 .6-.2 0-.4-.1-.5-.2zm-13.2-7.6l-7.9-4.6c-.5-.3-.7-1-.4-1.5.3-.5 1-.7 1.5-.4l7.9 4.6c.5.3.7 1 .4 1.5-.2.4-.6.6-1 .6-.1 0-.3-.1-.5-.2zM346 451.9c.4 0 .8-.2 1-.6.3-.5.1-1.2-.4-1.5l-3.9-2.2c-.5-.3-1.2-.1-1.5.4-.3.5-.1 1.2.4 1.5l3.9 2.2c.2.1.4.2.5.2z" class="st0"/><path d="M381.4 471.8c.4 0 .8-.2 1-.6.3-.5.1-1.2-.4-1.5l-3.9-2.2c-.5-.3-1.2-.1-1.5.4-.3.5-.1 1.2.4 1.5l3.9 2.2c.1.1.3.2.5.2zM371.7 466.3l-7.9-4.6c-.5-.3-.7-1-.4-1.5.3-.5 1-.7 1.5-.4l7.9 4.6c.5.3.7 1 .4 1.5-.2.4-.6.6-1 .6-.1 0-.3-.1-.5-.2zm-13.1-7.6l-7.9-4.6c-.5-.3-.7-1-.4-1.5.3-.5 1-.7 1.5-.4l7.9 4.6c.5.3.7 1 .4 1.5-.2.4-.6.6-1 .6-.2 0-.4-.1-.5-.2zm-13.2-7.6l-7.9-4.6c-.5-.3-.7-1-.4-1.5.3-.5 1-.7 1.5-.4l7.9 4.6c.5.3.7 1 .4 1.5-.2.4-.6.6-1 .6-.1 0-.3-.1-.5-.2zm-13.1-7.6l-7.9-4.6c-.5-.3-.7-1-.4-1.5.3-.5 1-.7 1.5-.4l7.9 4.6c.5.3.7 1 .4 1.5-.2.4-.6.6-1 .6-.2 0-.3-.1-.5-.2zm-13.2-7.6l-7.9-4.6c-.5-.3-.7-1-.4-1.5.3-.5 1-.7 1.5-.4l7.9 4.6c.5.3.7 1 .4 1.5-.2.4-.6.6-1 .6-.1 0-.3-.1-.5-.2zm-13.1-7.6l-7.9-4.6c-.5-.3-.7-1-.4-1.5.3-.5 1-.7 1.5-.4l7.9 4.6c.5.3.7 1 .4 1.5-.2.4-.6.6-1 .6-.1 0-.3-.1-.5-.2zm-13.1-7.6l-7.9-4.6c-.5-.3-.7-1-.4-1.5.3-.5 1-.7 1.5-.4l7.9 4.6c.5.3.7 1 .4 1.5-.2.4-.6.6-1 .6-.2 0-.4-.1-.5-.2zm-13.2-7.6l-7.9-4.6c-.5-.3-.7-1-.4-1.5.3-.5 1-.7 1.5-.4l7.9 4.6c.5.3.7 1 .4 1.5-.2.4-.6.6-1 .6-.1 0-.3-.1-.5-.2zm-13.1-7.6l-7.9-4.6c-.5-.3-.7-1-.4-1.5.3-.5 1-.7 1.5-.4l7.9 4.6c.5.3.7 1 .4 1.5-.2.4-.6.6-1 .6-.1 0-.3-.1-.5-.2zm-13.1-7.6l-7.9-4.6c-.5-.3-.7-1-.4-1.5.3-.5 1-.7 1.5-.4l7.9 4.6c.5.3.7 1 .4 1.5-.2.4-.6.6-1 .6-.2 0-.4-.1-.5-.2zm-13.2-7.6l-7.9-4.6c-.5-.3-.7-1-.4-1.5.3-.5 1-.7 1.5-.4l7.9 4.6c.5.3.7 1 .4 1.5-.2.4-.6.6-1 .6-.1 0-.3-.1-.5-.2zm-13.1-7.6l-7.9-4.6c-.5-.3-.7-1-.4-1.5.3-.5 1-.7 1.5-.4l7.9 4.6c.5.3.7 1 .4 1.5-.2.4-.6.6-1 .6-.2 0-.3-.1-.5-.2zm-13.2-7.6l-7.9-4.6c-.5-.3-.7-1-.4-1.5.3-.5 1-.7 1.5-.4l7.9 4.6c.5.3.7 1 .4 1.5-.2.4-.6.6-1 .6-.1 0-.3-.1-.5-.2zm-13.1-7.6L193 363c-.5-.3-.7-1-.4-1.5.3-.5 1-.7 1.5-.4l7.9 4.6c.5.3.7 1 .4 1.5-.2.4-.6.6-1 .6-.1-.1-.3-.2-.5-.3zm-13.1-7.6l-7.9-4.6c-.5-.3-.7-1-.4-1.5.3-.5 1-.7 1.5-.4l7.9 4.6c.5.3.7 1 .4 1.5-.2.4-.6.6-1 .6-.2 0-.4-.1-.5-.2zm-13.2-7.6l-7.9-4.6c-.5-.3-.7-1-.4-1.5.3-.5 1-.7 1.5-.4l7.9 4.6c.5.3.7 1 .4 1.5-.2.4-.6.6-1 .6-.1 0-.3-.1-.5-.2zM162 344.9c.4 0 .8-.2 1-.6.3-.5.1-1.2-.4-1.5l-3.9-2.2c-.5-.3-1.2-.1-1.5.4-.3.5-.1 1.2.4 1.5l3.9 2.2c.2.1.4.2.5.2z" class="st0"/><g><path d="M232.2 300.4c-.4 0-.8-.2-1-.6-.3-.5-.1-1.2.4-1.5l3.9-2.2c.5-.3 1.2-.1 1.5.4.3.5.1 1.2-.4 1.5l-3.9 2.2c-.1.2-.3.2-.5.2zM170.4 334.5c-.4 0-.8-.2-1-.6-.3-.5-.1-1.2.4-1.5l7.4-4.1c.5-.3 1.2-.1 1.5.4.3.5.1 1.2-.4 1.5l-7.4 4.1c-.2.2-.4.2-.5.2zm12.3-6.8c-.4 0-.8-.2-1-.6-.3-.5-.1-1.2.4-1.5l7.4-4.1c.5-.3 1.2-.1 1.5.4.3.5.1 1.2-.4 1.5l-7.4 4.1c-.1.2-.3.2-.5.2zm12.4-6.8c-.4 0-.8-.2-1-.6-.3-.5-.1-1.2.4-1.5l7.4-4.1c.5-.3 1.2-.1 1.5.4.3.5.1 1.2-.4 1.5l-7.4 4.1c-.1.1-.3.2-.5.2zm12.4-6.8c-.4 0-.8-.2-1-.6-.3-.5-.1-1.2.4-1.5l7.4-4.1c.5-.3 1.2-.1 1.5.4.3.5.1 1.2-.4 1.5l-7.4 4.1c-.2.1-.4.2-.5.2zm12.3-6.8c-.4 0-.8-.2-1-.6-.3-.5-.1-1.2.4-1.5l7.4-4.1c.5-.3 1.2-.1 1.5.4.3.5.1 1.2-.4 1.5l-7.4 4.1c-.1.1-.3.2-.5.2zM161.5 339.4c-.4 0-.8-.2-1-.6-.3-.5-.1-1.2.4-1.5l3.9-2.2c.5-.3 1.2-.1 1.5.4s.1 1.2-.4 1.5l-3.9 2.2c-.2.2-.3.2-.5.2z" class="st0"/></g><g><path d="M411.4 415.2c-.4 0-.8-.2-1-.6-.3-.5-.1-1.2.4-1.5l3.9-2.3c.5-.3 1.2-.1 1.5.4.3.5.1 1.2-.4 1.5l-3.9 2.3c-.2.1-.4.2-.5.2zM420.2 410c-.4 0-.8-.2-1-.6-.3-.5-.1-1.2.4-1.5l7.5-4.4c.5-.3 1.2-.1 1.5.4.3.5.1 1.2-.4 1.5l-7.5 4.4c-.1.1-.3.2-.5.2zm12.5-7.3c-.4 0-.8-.2-1-.6-.3-.5-.1-1.2.4-1.5l7.5-4.4c.5-.3 1.2-.1 1.5.4.3.5.1 1.2-.4 1.5l-7.5 4.4c-.1.1-.3.2-.5.2zm12.5-7.3c-.4 0-.8-.2-1-.6-.3-.5-.1-1.2.4-1.5l7.5-4.4c.5-.3 1.2-.1 1.5.4.3.5.1 1.2-.4 1.5l-7.5 4.4c-.1.1-.3.2-.5.2zm12.5-7.4c-.4 0-.8-.2-1-.6-.3-.5-.1-1.2.4-1.5l7.5-4.4c.5-.3 1.2-.1 1.5.4.3.5.1 1.2-.4 1.5l-7.5 4.4c-.1.2-.3.2-.5.2zm12.5-7.3c-.4 0-.8-.2-1-.6-.3-.5-.1-1.2.4-1.5l7.5-4.4c.5-.3 1.2-.1 1.5.4.3.5.1 1.2-.4 1.5l-7.5 4.4c-.1.2-.3.2-.5.2zm12.5-7.3c-.4 0-.8-.2-1-.6-.3-.5-.1-1.2.4-1.5l7.5-4.4c.5-.3 1.2-.1 1.5.4.3.5.1 1.2-.4 1.5l-7.5 4.4c-.1.2-.3.2-.5.2zm12.5-7.3c-.4 0-.8-.2-1-.6-.3-.5-.1-1.2.4-1.5l7.5-4.4c.5-.3 1.2-.1 1.5.4.3.5.1 1.2-.4 1.5l-7.5 4.4c-.1.1-.3.2-.5.2zm12.5-7.3c-.4 0-.8-.2-1-.6-.3-.5-.1-1.2.4-1.5l7.5-4.4c.5-.3 1.2-.1 1.5.4.3.5.1 1.2-.4 1.5l-7.5 4.4c-.1.1-.3.2-.5.2zm12.5-7.3c-.4 0-.8-.2-1-.6-.3-.5-.1-1.2.4-1.5l7.5-4.4c.5-.3 1.2-.1 1.5.4.3.5.1 1.2-.4 1.5l-7.5 4.4c-.2.1-.4.2-.5.2zm12.4-7.4c-.4 0-.8-.2-1-.6-.3-.5-.1-1.2.4-1.5l7.5-4.4c.5-.3 1.2-.1 1.5.4.3.5.1 1.2-.4 1.5l-7.5 4.4c-.1.2-.3.2-.5.2zm12.5-7.3c-.4 0-.8-.2-1-.6-.3-.5-.1-1.2.4-1.5l7.5-4.4c.5-.3 1.2-.1 1.5.4.3.5.1 1.2-.4 1.5l-7.5 4.4c-.1.2-.3.2-.5.2zM557.6 329.5c-.4 0-.8-.2-1-.6-.3-.5-.1-1.2.4-1.5l3.9-2.3c.5-.3 1.2-.1 1.5.4.3.5.1 1.2-.4 1.5l-3.9 2.3c-.1.2-.3.2-.5.2z" class="st0"/></g><g><path d="M361 206c-.2 0-.4 0-.6-.2l-3.9-2.2c-.5-.3-.7-1-.4-1.5.3-.5 1-.7 1.5-.4l3.9 2.2c.5.3.7 1 .4 1.5-.1.4-.5.6-.9.6zM573.5 328.7c-.2 0-.4 0-.6-.1l-8-4.6c-.5-.3-.7-1-.4-1.5.3-.5 1-.7 1.5-.4l8 4.6c.5.3.7 1 .4 1.5-.1.3-.5.5-.9.5zm-13.2-7.7c-.2 0-.4 0-.6-.1l-8-4.6c-.5-.3-.7-1-.4-1.5.3-.5 1-.7 1.5-.4l8 4.6c.5.3.7 1 .4 1.5-.2.3-.6.5-.9.5zm-13.3-7.7c-.2 0-.4 0-.6-.1l-8-4.6c-.5-.3-.7-1-.4-1.5.3-.5 1-.7 1.5-.4l8 4.6c.5.3.7 1 .4 1.5-.2.3-.5.5-.9.5zm-13.3-7.6c-.2 0-.4 0-.6-.1l-8-4.6c-.5-.3-.7-1-.4-1.5.3-.5 1-.7 1.5-.4l8 4.6c.5.3.7 1 .4 1.5-.1.3-.5.5-.9.5zm-13.3-7.7c-.2 0-.4 0-.6-.2l-8-4.6c-.5-.3-.7-1-.4-1.5.3-.5 1-.7 1.5-.4l8 4.6c.5.3.7 1 .4 1.5-.1.4-.5.6-.9.6zm-13.3-7.7c-.2 0-.4 0-.6-.2l-8-4.6c-.5-.3-.7-1-.4-1.5.3-.5 1-.7 1.5-.4l8 4.6c.5.3.7 1 .4 1.5-.1.4-.5.6-.9.6zm-13.3-7.6c-.2 0-.4 0-.6-.2l-8-4.6c-.5-.3-.7-1-.4-1.5.3-.5 1-.7 1.5-.4l8 4.6c.5.3.7 1 .4 1.5-.1.4-.5.6-.9.6zm-13.2-7.7c-.2 0-.4 0-.6-.2l-8-4.6c-.5-.3-.7-1-.4-1.5.3-.5 1-.7 1.5-.4l8 4.6c.5.3.7 1 .4 1.5-.2.4-.6.6-.9.6zm-13.3-7.7c-.2 0-.4 0-.6-.2l-8-4.6c-.5-.3-.7-1-.4-1.5.3-.5 1-.7 1.5-.4l8 4.6c.5.3.7 1 .4 1.5-.2.4-.5.6-.9.6zm-13.3-7.6c-.2 0-.4 0-.6-.2l-8-4.6c-.5-.3-.7-1-.4-1.5.3-.5 1-.7 1.5-.4l8 4.6c.5.3.7 1 .4 1.5-.1.4-.5.6-.9.6zm-13.3-7.7c-.2 0-.4 0-.6-.2l-8-4.6c-.5-.3-.7-1-.4-1.5.3-.5 1-.7 1.5-.4l8 4.6c.5.3.7 1 .4 1.5-.1.4-.5.6-.9.6zm-13.3-7.7c-.2 0-.4 0-.6-.2l-8-4.6c-.5-.3-.7-1-.4-1.5.3-.5 1-.7 1.5-.4l8 4.6c.5.3.7 1 .4 1.5-.1.4-.5.6-.9.6zm-13.2-7.6c-.2 0-.4 0-.6-.2l-8-4.6c-.5-.3-.7-1-.4-1.5.3-.5 1-.7 1.5-.4l8 4.6c.5.3.7 1 .4 1.5-.2.4-.6.6-.9.6zm-13.3-7.7c-.2 0-.4 0-.6-.2l-8-4.6c-.5-.3-.7-1-.4-1.5.3-.5 1-.7 1.5-.4l8 4.6c.5.3.7 1 .4 1.5-.2.4-.5.6-.9.6zm-13.3-7.7c-.2 0-.4 0-.6-.2l-8-4.6c-.5-.3-.7-1-.4-1.5.3-.5 1-.7 1.5-.4l8 4.6c.5.3.7 1 .4 1.5-.1.4-.5.6-.9.6zm-13.3-7.6c-.2 0-.4 0-.6-.2l-8-4.6c-.5-.3-.7-1-.4-1.5.3-.5 1-.7 1.5-.4l8 4.6c.5.3.7 1 .4 1.5-.1.3-.5.6-.9.6zM582.7 334c-.2 0-.4 0-.6-.1l-3.9-2.2c-.5-.3-.7-1-.4-1.5.3-.5 1-.7 1.5-.4l3.9 2.2c.5.3.7 1 .4 1.5-.1.3-.5.5-.9.5z" class="st0"/></g><g><path d="M495 376.2c-.2 0-.4 0-.6-.1l-3.9-2.2c-.5-.3-.7-1-.4-1.5.3-.5 1-.7 1.5-.4l3.9 2.2c.5.3.7 1 .4 1.5-.1.3-.5.5-.9.5zM631.9 455.2c-.2 0-.4 0-.6-.1l-7.5-4.3c-.5-.3-.7-1-.4-1.5.3-.5 1-.7 1.5-.4l7.5 4.3c.5.3.7 1 .4 1.5-.2.3-.5.5-.9.5zm-12.5-7.1c-.2 0-.4 0-.6-.1l-7.5-4.3c-.5-.3-.7-1-.4-1.5.3-.5 1-.7 1.5-.4l7.5 4.3c.5.3.7 1 .4 1.5-.1.3-.5.5-.9.5zm-12.4-7.2c-.2 0-.4 0-.6-.1l-7.5-4.3c-.5-.3-.7-1-.4-1.5.3-.5 1-.7 1.5-.4l7.5 4.3c.5.3.7 1 .4 1.5-.1.3-.5.5-.9.5zm-12.4-7.2c-.2 0-.4 0-.6-.1l-7.5-4.3c-.5-.3-.7-1-.4-1.5.3-.5 1-.7 1.5-.4l7.5 4.3c.5.3.7 1 .4 1.5-.2.3-.6.5-.9.5zm-12.5-7.2c-.2 0-.4 0-.6-.1l-7.5-4.3c-.5-.3-.7-1-.4-1.5.3-.5 1-.7 1.5-.4l7.5 4.3c.5.3.7 1 .4 1.5-.1.3-.5.5-.9.5zm-12.4-7.2c-.2 0-.4 0-.6-.1l-7.5-4.3c-.5-.3-.7-1-.4-1.5.3-.5 1-.7 1.5-.4l7.5 4.3c.5.3.7 1 .4 1.5-.2.3-.5.5-.9.5zm-12.5-7.2c-.2 0-.4 0-.6-.1l-7.5-4.3c-.5-.3-.7-1-.4-1.5.3-.5 1-.7 1.5-.4l7.5 4.3c.5.3.7 1 .4 1.5-.1.3-.5.5-.9.5zm-12.4-7.1c-.2 0-.4 0-.6-.1l-7.5-4.3c-.5-.3-.7-1-.4-1.5.3-.5 1-.7 1.5-.4l7.5 4.3c.5.3.7 1 .4 1.5-.1.3-.5.5-.9.5zm-12.4-7.2c-.2 0-.4 0-.6-.1l-7.5-4.3c-.5-.3-.7-1-.4-1.5.3-.5 1-.7 1.5-.4l7.5 4.3c.5.3.7 1 .4 1.5-.2.3-.6.5-.9.5zm-12.5-7.2c-.2 0-.4 0-.6-.1l-7.5-4.3c-.5-.3-.7-1-.4-1.5.3-.5 1-.7 1.5-.4l7.5 4.3c.5.3.7 1 .4 1.5-.1.3-.5.5-.9.5zm-12.4-7.2c-.2 0-.4 0-.6-.1l-7.5-4.3c-.5-.3-.7-1-.4-1.5.3-.5 1-.7 1.5-.4l7.5 4.3c.5.3.7 1 .4 1.5-.2.3-.5.5-.9.5zM640.7 460.4c-.2 0-.4 0-.6-.1l-3.9-2.2c-.5-.3-.7-1-.4-1.5.3-.5 1-.7 1.5-.4l3.9 2.2c.5.3.7 1 .4 1.5-.1.3-.5.5-.9.5z" class="st0"/></g><g><path d="M654.2 295.4c-.4 0-.8-.2-1-.6-.3-.5-.1-1.2.4-1.5l3.9-2.2c.5-.3 1.2-.1 1.5.4.3.5.1 1.2-.4 1.5l-3.9 2.2c-.1.2-.3.2-.5.2zM592.4 329.5c-.4 0-.8-.2-1-.6-.3-.5-.1-1.2.4-1.5l7.4-4.1c.5-.3 1.2-.1 1.5.4.3.5.1 1.2-.4 1.5l-7.4 4.1c-.2.2-.4.2-.5.2zm12.3-6.8c-.4 0-.8-.2-1-.6-.3-.5-.1-1.2.4-1.5l7.4-4.1c.5-.3 1.2-.1 1.5.4.3.5.1 1.2-.4 1.5l-7.4 4.1c-.1.2-.3.2-.5.2zm12.4-6.8c-.4 0-.8-.2-1-.6-.3-.5-.1-1.2.4-1.5l7.4-4.1c.5-.3 1.2-.1 1.5.4.3.5.1 1.2-.4 1.5l-7.4 4.1c-.1.1-.3.2-.5.2zm12.4-6.8c-.4 0-.8-.2-1-.6-.3-.5-.1-1.2.4-1.5l7.4-4.1c.5-.3 1.2-.1 1.5.4.3.5.1 1.2-.4 1.5l-7.4 4.1c-.2.1-.4.2-.5.2zm12.3-6.8c-.4 0-.8-.2-1-.6-.3-.5-.1-1.2.4-1.5l7.4-4.1c.5-.3 1.2-.1 1.5.4.3.5.1 1.2-.4 1.5l-7.4 4.1c-.1.1-.3.2-.5.2zM583.5 334.4c-.4 0-.8-.2-1-.6-.3-.5-.1-1.2.4-1.5l3.9-2.2c.5-.3 1.2-.1 1.5.4.3.5.1 1.2-.4 1.5l-3.9 2.2c-.2.2-.3.2-.5.2z" class="st0"/></g><g><path d="M196.2 373.4c-.4 0-.8-.2-1-.6-.3-.5-.1-1.2.4-1.5l3.9-2.2c.5-.3 1.2-.1 1.5.4.3.5.1 1.2-.4 1.5l-3.9 2.2c-.1.2-.3.2-.5.2zM134.4 407.5c-.4 0-.8-.2-1-.6-.3-.5-.1-1.2.4-1.5l7.4-4.1c.5-.3 1.2-.1 1.5.4.3.5.1 1.2-.4 1.5l-7.4 4.1c-.2.2-.4.2-.5.2zm12.3-6.8c-.4 0-.8-.2-1-.6-.3-.5-.1-1.2.4-1.5l7.4-4.1c.5-.3 1.2-.1 1.5.4.3.5.1 1.2-.4 1.5l-7.4 4.1c-.1.2-.3.2-.5.2zm12.4-6.8c-.4 0-.8-.2-1-.6-.3-.5-.1-1.2.4-1.5l7.4-4.1c.5-.3 1.2-.1 1.5.4.3.5.1 1.2-.4 1.5l-7.4 4.1c-.1.1-.3.2-.5.2zm12.4-6.8c-.4 0-.8-.2-1-.6-.3-.5-.1-1.2.4-1.5l7.4-4.1c.5-.3 1.2-.1 1.5.4.3.5.1 1.2-.4 1.5l-7.4 4.1c-.2.1-.4.2-.5.2zm12.3-6.8c-.4 0-.8-.2-1-.6-.3-.5-.1-1.2.4-1.5l7.4-4.1c.5-.3 1.2-.1 1.5.4.3.5.1 1.2-.4 1.5l-7.4 4.1c-.1.1-.3.2-.5.2zM125.5 412.4c-.4 0-.8-.2-1-.6-.3-.5-.1-1.2.4-1.5l3.9-2.2c.5-.3 1.2-.1 1.5.4s.1 1.2-.4 1.5l-3.9 2.2c-.2.2-.3.2-.5.2z" class="st0"/></g></g><g id="Layer_1"><path d="M512.5 614.4h2.6v3.5h-2.6zM717.9 597.6h2.6v3.5h-2.6z" class="st1"/><path fill="#575756" d="M673 572.4c1 .4 2.4.3 3.6-.3 5.1-2.2 9-4.9 12.3-6.5.9-.5 2.1-.6 2.9-.3.2.1 1.4-1.8 1.4-1.6.1.9.3 2.8-.3 3.5-1.7 2.2-5.2 5.1-7.3 8.5-.5.8-.3 1.6.7 2l5.7 2.3c2.9 1.2 2.9 3.9 0 6.1l-2.6 2c-.7.5-1.8.7-2.5.5l-32.6-13.3c-.7-.3-.7-.9 0-1.5l2.6-2c2.9-2.2 7.6-3.1 10.5-1.9l5.6 2.5z"/><path d="M514.2 620.3l83.7 48.3c2.3 1.3 5.9 1.3 8.2 0l112.8-65.1c2.3-1.3 2.3-3.4 0-4.7l-83.7-48.3c-2.3-1.3-5.9-1.3-8.2 0l-112.8 65.1c-2.3 1.3-2.3 3.4 0 4.7z" class="st1"/><path d="M514.2 616.9l83.7 48.3c2.3 1.3 5.9 1.3 8.2 0l112.8-65.1c2.3-1.3 2.3-3.4 0-4.7l-83.7-48.3c-2.3-1.3-5.9-1.3-8.2 0l-112.8 65.1c-2.3 1.3-2.3 3.4 0 4.7z" class="st3"/><path fill="#f2f2f2" d="M631.2 549.4L529 608.3v12.1l73.8 42.6 112.6-65.1z"/><path d="M668.4 600.9l10.7 6.2 9.9-5.8-10.6-6.1zM645.6 614.1l10.7 6.2 9.9-5.8-10.7-6.1zM622.7 627.3l10.7 6.2 10-5.8-10.7-6.1zM599.9 640.5l10.7 6.1 9.9-5.7-10.7-6.2z" class="st5"/><path d="M622.6 565.1l17.9 10.4 3.2-1.9-17.9-10.3zM614.7 569.9l45.9 26.5 3.1-1.8-45.9-26.5zM598.6 579.1l45.9 26.6 3.2-1.9-45.9-26.5zM591.1 583.8l32.3 18.6 3.2-1.8-32.3-18.6zM576.7 591.6l37.8 21.9 3.2-1.8-37.9-21.9zM569 596.3l45.9 26.5 3.1-1.9-45.9-26.5zM552.9 605.5l45.9 26.5 3.2-1.8-45.9-26.5zM545.5 610.2l32.2 18.6 3.2-1.8-32.3-18.7z" class="st6"/><path d="M675.4 603.1c.5.3 1.3.4 2.1.3l14.1-2.8c1-.2 1.6-.9 1.2-1.5-.4-.6-1.5-.9-2.5-.7l-10.2 2.1 5.8-9.6c.4-.6-.2-1.3-1.2-1.5-1-.2-2.2.1-2.5.7l-7.1 11.8c-.4.4-.2.9.3 1.2zM652.5 616.3c.5.3 1.3.4 2.1.3l14.1-2.8c1-.2 1.6-.9 1.2-1.5-.4-.6-1.5-.9-2.5-.7l-10.2 2.1 5.8-9.6c.4-.6-.2-1.3-1.2-1.5-1-.2-2.2.1-2.5.7l-7.1 11.8c-.4.4-.2.9.3 1.2zM629.7 629.5c.5.3 1.3.4 2.1.3l14.1-2.8c1-.2 1.6-.9 1.2-1.5-.4-.6-1.5-.9-2.6-.7l-10.2 2.1 5.8-9.6c.4-.6-.2-1.3-1.2-1.5-1-.2-2.2.1-2.5.7l-7.1 11.8c-.3.4-.1.9.4 1.2zM606.9 642.7c.5.3 1.3.4 2.1.3l14.1-2.8c1-.2 1.6-.9 1.2-1.5-.4-.6-1.5-.9-2.5-.7l-10.2 2.1 5.8-9.6c.4-.6-.2-1.3-1.2-1.5-1-.2-2.2.1-2.5.7l-7.1 11.8c-.4.4-.2.8.3 1.2z" class="st0"/><path fill="#dadada" d="M529 608.3v12.1l10.5-6z"/><g><path d="M672.7 566.2c1 .6 2.4.7 3.7.4 5.2-1.3 9.1-3.3 12.5-4.3 1-.3 2.1-.2 2.9.3.2.1.5.3.7.4.8.5 1 1.2.5 1.7-1.8 1.9-5.3 4.2-7.5 7.2-.5.7-.3 1.6.7 2.1l5.8 3.4c2.9 1.7 2.9 4.4 0 6.1l-2.6 1.5c-.7.4-1.9.4-2.6 0l-33.2-19.1c-.7-.4-.7-1.1 0-1.5l2.6-1.5c2.9-1.7 7.7-1.7 10.6 0l5.9 3.3z" class="st6"/><path d="M686 579.7c-.9.5-.9 1.4 0 1.9s2.4.5 3.3 0c.9-.5.9-1.4 0-1.9s-2.4-.5-3.3 0zM659.2 564.3c-.9.5-.9 1.4 0 1.9s2.4.5 3.3 0c.9-.5.9-1.4 0-1.9-.9-.6-2.3-.6-3.3 0zM664.5 569.7l15.2 8.8c.2.1.6.1.9 0 .2-.1.2-.4 0-.5l-15.2-8.8c-.2-.1-.6-.1-.9 0-.2.2-.2.4 0 .5zM666.8 568.4l15.2 8.8c.2.1.6.1.9 0 .2-.1.2-.4 0-.5l-15.2-8.8c-.2-.1-.6-.1-.9 0-.3.2-.3.4 0 .5zM669 567.1l15.2 8.8c.2.1.6.1.9 0 .2-.1.2-.4 0-.5l-15.2-8.8c-.2-.1-.6-.1-.9 0-.2.2-.2.4 0 .5z" class="st8"/></g><g><path d="M184.5 521l-89.8-51.5c-1.6-.9-3.7-1.4-5.5-.9-2.5.6-4.9 1.4-4.9 3.6l-.1 83.5 7.9 4.7c-2.6 1.3-81.4 39.6-81.6 39.7l-.2 3.2c0 1.4.7 2.7 1.9 3.4 13.4 7.8 92.1 53.2 92.1 53.2 2.6 1.5 5.8 1.5 8.4 0l74.7-43.2c.8-.5 1.3-1.3 1.3-2.2l.1-86.3c-.1-3-1.7-5.8-4.3-7.2z" class="st9"/><path fill="#381e60" d="M186.1 614.2L84 556l-.2-83.3c0-2.4 2.6-3.9 4.7-2.7l94.1 53.9c2 1.2 3.3 3.4 3.3 5.7l.2 84.6z"/><path fill="#f9f9f9" d="M88 474.8l93.4 53.6.2 78.5L88 553.1z"/><path fill="#e8e8e8" d="M186 614.2L84 555.4l-72.1 41.7c-2.1 1.2-2.1 4.2 0 5.4l93.9 54.3c2 1.2 4.6 1.2 6.6 0l73.6-42.6z"/><path d="M157.8 616c2 1.2 3 1.7 5.1 2.9 2.1-1.2 3.1-1.7 5.1-2.9-2-1.2-3-1.7-5.1-2.9-2 1.2-3.1 1.8-5.1 2.9zM150.3 611.7c2 1.2 3 1.7 5.1 2.9 2.1-1.2 3.1-1.7 5.1-2.9-2-1.2-3-1.7-5.1-2.9-2 1.2-3.1 1.8-5.1 2.9zM142.8 607.4c2 1.2 3 1.7 5.1 2.9 2.1-1.2 3.1-1.7 5.1-2.9-2-1.2-3-1.7-5.1-2.9-2 1.2-3.1 1.8-5.1 2.9zM135.3 603.1c2 1.2 3 1.7 5.1 2.9 2.1-1.2 3.1-1.7 5.1-2.9-2-1.2-3-1.7-5.1-2.9-2 1.2-3 1.7-5.1 2.9zM127.8 598.8c2 1.2 3 1.7 5.1 2.9 2.1-1.2 3.1-1.7 5.1-2.9-2-1.2-3-1.7-5.1-2.9-2 1.2-3 1.7-5.1 2.9zM120.3 594.5c2 1.2 3 1.7 5.1 2.9 2.1-1.2 3.1-1.7 5.1-2.9-2-1.2-3-1.7-5.1-2.9-2 1.2-3 1.7-5.1 2.9zM112.8 590.2c2 1.2 3 1.7 5.1 2.9 2.1-1.2 3.1-1.7 5.1-2.9-2-1.2-3-1.7-5.1-2.9-2 1.2-3 1.7-5.1 2.9zM105.3 585.9c2 1.2 3 1.7 5.1 2.9 2.1-1.2 3.1-1.7 5.1-2.9-2-1.2-3-1.7-5.1-2.9-2 1.1-3 1.7-5.1 2.9zM97.8 581.6c2 1.2 3 1.7 5.1 2.9 2.1-1.2 3.1-1.7 5.1-2.9-2-1.2-3-1.7-5.1-2.9-2 1.1-3 1.7-5.1 2.9zM90.3 577.3c2 1.2 3 1.7 5.1 2.9 2.1-1.2 3.1-1.7 5.1-2.9-2-1.2-3-1.7-5.1-2.9-2 1.1-3 1.7-5.1 2.9zM82.8 573c2 1.2 3 1.7 5.1 2.9 2.1-1.2 3.1-1.7 5.1-2.9-2-1.2-3-1.7-5.1-2.9-2 1.1-3 1.7-5.1 2.9zM75.3 568.7c2 1.2 3 1.7 5.1 2.9 2.1-1.2 3.1-1.7 5.1-2.9-2-1.2-3-1.7-5.1-2.9-2 1.1-3 1.7-5.1 2.9zM150.6 620.1c2 1.2 3 1.7 5.1 2.9 2.1-1.2 3.1-1.7 5.1-2.9-2-1.2-3-1.7-5.1-2.9-2 1.2-3.1 1.7-5.1 2.9zM143.1 615.8c2 1.2 3 1.7 5.1 2.9 2.1-1.2 3.1-1.7 5.1-2.9-2-1.2-3-1.7-5.1-2.9-2 1.1-3.1 1.7-5.1 2.9zM135.6 611.5c2 1.2 3 1.7 5.1 2.9 2.1-1.2 3.1-1.7 5.1-2.9-2-1.2-3-1.7-5.1-2.9-2 1.1-3.1 1.7-5.1 2.9zM128.1 607.2c2 1.2 3 1.7 5.1 2.9 2.1-1.2 3.1-1.7 5.1-2.9-2-1.2-3-1.7-5.1-2.9-2 1.1-3.1 1.7-5.1 2.9zM120.6 602.9c2 1.2 3 1.7 5.1 2.9 2.1-1.2 3.1-1.7 5.1-2.9-2-1.2-3-1.7-5.1-2.9-2 1.1-3 1.7-5.1 2.9zM113.1 598.6c2 1.2 3 1.7 5.1 2.9 2.1-1.2 3.1-1.7 5.1-2.9-2-1.2-3-1.7-5.1-2.9-2 1.1-3 1.7-5.1 2.9zM105.6 594.3c2 1.2 3 1.7 5.1 2.9 2.1-1.2 3.1-1.7 5.1-2.9-2-1.2-3-1.7-5.1-2.9-2 1.1-3 1.7-5.1 2.9zM98.1 590c2 1.2 3 1.7 5.1 2.9 2.1-1.2 3.1-1.7 5.1-2.9-2-1.2-3-1.7-5.1-2.9-2 1.1-3 1.7-5.1 2.9zM90.6 585.7c2 1.2 3 1.7 5.1 2.9 2.1-1.2 3.1-1.7 5.1-2.9-2-1.2-3-1.7-5.1-2.9-2 1.1-3 1.7-5.1 2.9zM83.1 581.4c2 1.2 3 1.7 5.1 2.9 2.1-1.2 3.1-1.7 5.1-2.9-2-1.2-3-1.7-5.1-2.9-2 1.1-3 1.7-5.1 2.9zM75.6 577c2 1.2 3 1.7 5.1 2.9 2.1-1.2 3.1-1.7 5.1-2.9-2-1.2-3-1.7-5.1-2.9-2 1.2-3 1.8-5.1 2.9z" class="st9"/><path d="M68.1 572.7c3.4 2 5.1 2.9 8.5 4.9 2.1-1.2 3.1-1.7 5.1-2.9-3.4-2-5.1-2.9-8.5-4.9-2 1.2-3 1.8-5.1 2.9zM140 622.2c3.4 1.9 5.1 2.9 8.4 4.8 2.1-1.2 3.1-1.7 5.1-2.9-3.4-1.9-5.1-2.9-8.4-4.8-2 1.2-3 1.8-5.1 2.9z" class="st9"/><path d="M135.9 619.9c2 1.2 3 1.7 5.1 2.9 2.1-1.2 3.1-1.7 5.1-2.9-2-1.2-3-1.7-5.1-2.9-2 1.1-3.1 1.7-5.1 2.9zM128.4 615.6c2 1.2 3 1.7 5.1 2.9 2.1-1.2 3.1-1.7 5.1-2.9-2-1.2-3-1.7-5.1-2.9-2 1.1-3.1 1.7-5.1 2.9zM120.9 611.3c2 1.2 3 1.7 5.1 2.9 2.1-1.2 3.1-1.7 5.1-2.9-2-1.2-3-1.7-5.1-2.9-2 1.1-3.1 1.7-5.1 2.9zM113.4 606.9c2 1.2 3 1.7 5.1 2.9 2.1-1.2 3.1-1.7 5.1-2.9-2-1.2-3-1.7-5.1-2.9-2 1.2-3.1 1.8-5.1 2.9zM105.9 602.6c2 1.2 3 1.7 5.1 2.9 2.1-1.2 3.1-1.7 5.1-2.9-2-1.2-3-1.7-5.1-2.9-2 1.2-3.1 1.8-5.1 2.9zM98.4 598.3c2 1.2 3 1.7 5.1 2.9 2.1-1.2 3.1-1.7 5.1-2.9-2-1.2-3-1.7-5.1-2.9-2 1.2-3 1.8-5.1 2.9zM90.9 594c2 1.2 3 1.7 5.1 2.9 2.1-1.2 3.1-1.7 5.1-2.9-2-1.2-3-1.7-5.1-2.9-2 1.2-3 1.8-5.1 2.9zM83.4 589.7c2 1.2 3 1.7 5.1 2.9 2.1-1.2 3.1-1.7 5.1-2.9-2-1.2-3-1.7-5.1-2.9-2 1.2-3 1.8-5.1 2.9zM75.9 585.4c2 1.2 3 1.7 5.1 2.9 2.1-1.2 3.1-1.7 5.1-2.9-2-1.2-3-1.7-5.1-2.9-2 1.2-3 1.8-5.1 2.9zM68.4 581.1c2 1.2 3 1.7 5.1 2.9 2.1-1.2 3.1-1.7 5.1-2.9-2-1.2-3-1.7-5.1-2.9-2 1.2-3 1.8-5.1 2.9zM60.9 576.8c2 1.2 3 1.7 5.1 2.9 2.1-1.2 3.1-1.7 5.1-2.9-2-1.2-3-1.7-5.1-2.9-2 1.2-3 1.8-5.1 2.9zM136.2 628.2c2 1.2 3 1.7 5.1 2.9 2.1-1.2 3.1-1.7 5.1-2.9-2-1.2-3-1.7-5.1-2.9-2.1 1.2-3.1 1.8-5.1 2.9zM128.7 623.9c2 1.2 3 1.7 5.1 2.9 2.1-1.2 3.1-1.7 5.1-2.9-2-1.2-3-1.7-5.1-2.9-2 1.2-3.1 1.8-5.1 2.9zM121.2 619.6c2 1.2 3 1.7 5.1 2.9 2.1-1.2 3.1-1.7 5.1-2.9-2-1.2-3-1.7-5.1-2.9-2 1.2-3.1 1.8-5.1 2.9zM113.7 615.3c2 1.2 3 1.7 5.1 2.9 2.1-1.2 3.1-1.7 5.1-2.9-2-1.2-3-1.7-5.1-2.9-2 1.2-3.1 1.8-5.1 2.9zM106.2 611c2 1.2 3 1.7 5.1 2.9 2.1-1.2 3.1-1.7 5.1-2.9-2-1.2-3-1.7-5.1-2.9-2 1.2-3.1 1.8-5.1 2.9zM98.7 606.7c2 1.2 3 1.7 5.1 2.9 2.1-1.2 3.1-1.7 5.1-2.9-2-1.2-3-1.7-5.1-2.9-2 1.2-3.1 1.8-5.1 2.9zM91.2 602.4c2 1.2 3 1.7 5.1 2.9 2.1-1.2 3.1-1.7 5.1-2.9-2-1.2-3-1.7-5.1-2.9-2 1.2-3.1 1.8-5.1 2.9zM83.7 598.1c2 1.2 3 1.7 5.1 2.9 2.1-1.2 3.1-1.7 5.1-2.9-2-1.2-3-1.7-5.1-2.9-2 1.2-3.1 1.7-5.1 2.9zM76.2 593.8c2 1.2 3 1.7 5.1 2.9 2.1-1.2 3.1-1.7 5.1-2.9-2-1.2-3-1.7-5.1-2.9-2 1.2-3 1.7-5.1 2.9zM68.7 589.5c2 1.2 3 1.7 5.1 2.9 2.1-1.2 3.1-1.7 5.1-2.9-2-1.2-3-1.7-5.1-2.9-2 1.2-3 1.7-5.1 2.9zM58 583.3c3.3 1.9 5 2.9 8.3 4.8 2.1-1.2 3.1-1.7 5.1-2.9-3.3-1.9-5-2.9-8.3-4.8-2.1 1.2-3.1 1.8-5.1 2.9z" class="st9"/><path d="M53.7 580.9c2 1.2 3 1.7 5.1 2.9 2.1-1.2 3.1-1.7 5.1-2.9-2-1.2-3-1.7-5.1-2.9-2 1.1-3 1.7-5.1 2.9zM128 632.9c2 1.2 3 1.7 5.1 2.9 2.1-1.2 3.1-1.7 5.1-2.9-2-1.2-3-1.7-5.1-2.9-2.1 1.1-3.1 1.7-5.1 2.9zM120.5 628.6c2 1.2 3 1.7 5.1 2.9 2.1-1.2 3.1-1.7 5.1-2.9-2-1.2-3-1.7-5.1-2.9-2 1.1-3.1 1.7-5.1 2.9zM113 624.3c2 1.2 3 1.7 5.1 2.9 2.1-1.2 3.1-1.7 5.1-2.9-2-1.2-3-1.7-5.1-2.9-2 1.1-3.1 1.7-5.1 2.9zM68 598.4c14.2 8.1 28.4 16.3 42.6 24.4 2.1-1.2 3.1-1.7 5.1-2.9-14.2-8.1-28.4-16.3-42.6-24.4-2 1.2-3.1 1.8-5.1 2.9zM60.5 594.1c2 1.2 3 1.7 5.1 2.9 2.1-1.2 3.1-1.7 5.1-2.9-2-1.2-3-1.7-5.1-2.9-2 1.2-3 1.8-5.1 2.9zM53 589.8c2 1.2 3 1.7 5.1 2.9 2.1-1.2 3.1-1.7 5.1-2.9-2-1.2-3-1.7-5.1-2.9-2 1.2-3 1.8-5.1 2.9zM45.5 585.5c2 1.2 3 1.7 5.1 2.9 2.1-1.2 3.1-1.7 5.1-2.9-2-1.2-3-1.7-5.1-2.9-2 1.2-3 1.8-5.1 2.9zM102.8 625l-35-20.2-20 12.3 35 20.2z" class="st9"/><path fill="#fff9ff" d="M88.5 470l94.1 53.9c2 1.2 3.3 3.4 3.3 5.7l.2 84.6-3.1-1.8c-18.3-27-87.3-129-96.3-142.9.6 0 1.2.1 1.8.5z" opacity=".2"/><g><path d="M94.8 525l57.6 33.2v3.1L94.8 528z" class="st14"/><path d="M120.9 521.5l12.4 7.1v3.1l-9.7-5.6v17l-2.7-1.5z" class="st14"/><path d="M108.3 508.1l2.7 1.5v14l11.2 6.4v3.1l-13.9-8zM138.6 551.8l2.7 1.5v14.9l-13.7-8v-3l11 6.3zM121.3 541.8l2.6 1.5v13.3l-2.6-1.5z" class="st14"/><path fill="#eaf421" d="M144.6 542.6v-11.7l-14.3-8.2v11.6z"/><path fill="#e666ed" d="M116.8 521.4v-11.7l-14.3-8.2v11.6z"/><path d="M129.8 565.8v-11.7l-14.3-8.2v11.6z" class="st0"/><path fill="#41c6e5" d="M105 538.2v-11.6l-14.3-8.3V530z"/><path d="M152.1 533.5l12.4 7.2v3.1l-9.7-5.6v17l-2.7-1.6z" class="st14"/><path d="M178.8 554.6V543l-14.3-8.3v11.7z" class="st18"/><path fill="#c43c18" d="M160.6 570.3v-11.7l-14.3-8.2V562z"/></g></g><g><path d="M246.8 224l-10.1 54.1 4.3 3.9 19.3-34.6-3-17.3z" class="st3"/><path d="M250.4 248.9c1.6-5.2 2.5-9.6 2.5-12.4v-.6c-.1-3.5-.9-6.4-2.3-8.5-1.1-1.7-2.6-2.9-4.3-3.6-3.2-1.3-7.4-.8-12 1.9s-8.8 7-12.1 12.1c-1.7 2.7-3.2 5.6-4.3 8.6-1.4 3.7-2.2 7.5-2.3 11.1v.7c0 2.7 1 6 2.5 9.5 2.4 5.5 21.3 28.7 21.3 28.7s7.9-37.2 11-47.5z" class="st3"/><path fill="#06bacc" d="M244.9 244c-4.5 2.6-8.2 9-8.2 14.2 0 5.2 3.6 7.3 8.1 4.7 4.5-2.6 8.2-9 8.2-14.2 0-5.2-3.6-7.3-8.1-4.7z"/><path fill="#0593a1" d="M261 255c1.6-5.2 2.5-9.6 2.5-12.4v-.6c-.1-3.5-.9-6.4-2.3-8.5-1.1-1.7-2.6-2.9-4.3-3.6-3.2-1.3-7.4-.8-12 1.9s-8.8 7-12.1 12.1c-1.7 2.7-3.2 5.6-4.3 8.6-1.4 3.7-2.2 7.5-2.3 11.1v.7c0 2.7 1 6 2.5 9.5 2.4 5.5 10.7 22.6 10.7 22.6s18.5-31.1 21.6-41.4zm-16.2 11.4c-6.2 3.6-11.2.7-11.2-6.5 0-.9.1-1.7.2-2.6.1-.8.3-1.5.5-2.3 1.6-5.9 5.7-11.8 10.5-14.6 4.8-2.8 8.9-1.7 10.5 2.4.2.5.4 1.1.5 1.7.1.7.2 1.5.2 2.4 0 7.2-5 15.9-11.2 19.5z"/></g><g><path fill="#75ea6e" d="M451.3 420.3l-31.2 18-62.6-36.2 31.2-18z"/><path fill="#63b75a" d="M388.7 387.1l57.5 33.2-26.1 15.1-57.5-33.2 26.1-15.1zm0-3l-31.2 18 62.6 36.1 31.2-18-62.6-36.1z"/><path fill="#69c961" d="M357.5 438.1v-36l62.6 36.2v35.9z"/><path d="M417.6 469.9l-57.5-33.2v-30.1l57.5 33.2v30.1zm2.5 4.3v-36l-62.6-36.1v36l62.6 36.1z" class="st25"/><path d="M366.1 438.2c-.7-.4-1.3-1.4-1.3-2.2v-23.3c0-.8.6-1.1 1.3-.7.7.4 1.3 1.4 1.3 2.2v23.3c0 .7-.6 1.1-1.3.7zM371.8 441.4c-.7-.4-1.3-1.4-1.3-2.2v-23.3c0-.8.6-1.1 1.3-.7.7.4 1.3 1.4 1.3 2.2v23.3c-.1.8-.6 1.1-1.3.7zM377.5 444.7c-.7-.4-1.3-1.4-1.3-2.2v-23.3c0-.8.6-1.1 1.3-.7.7.4 1.3 1.4 1.3 2.2V444c-.1.8-.6 1.1-1.3.7zM383.1 448c-.7-.4-1.3-1.4-1.3-2.2v-23.3c0-.8.6-1.1 1.3-.7.7.4 1.3 1.4 1.3 2.2v23.3c0 .8-.6 1.1-1.3.7zM388.8 451.3c-.7-.4-1.3-1.4-1.3-2.2v-23.3c0-.8.6-1.1 1.3-.7.7.4 1.3 1.4 1.3 2.2v23.3c0 .8-.6 1.1-1.3.7zM394.5 454.6c-.7-.4-1.3-1.4-1.3-2.2v-23.3c0-.8.6-1.1 1.3-.7.7.4 1.3 1.4 1.3 2.2v23.3c0 .7-.6 1.1-1.3.7zM400.2 457.9c-.7-.4-1.3-1.4-1.3-2.2v-23.3c0-.8.6-1.1 1.3-.7.7.4 1.3 1.4 1.3 2.2v23.3c0 .7-.6 1.1-1.3.7zM405.9 461.1c-.7-.4-1.3-1.4-1.3-2.2v-23.3c0-.8.6-1.1 1.3-.7.7.4 1.3 1.4 1.3 2.2v23.3c-.1.8-.6 1.1-1.3.7zM411.6 464.4c-.7-.4-1.3-1.4-1.3-2.2v-23.3c0-.8.6-1.1 1.3-.7.7.4 1.3 1.4 1.3 2.2v23.3c-.1.8-.6 1.1-1.3.7z" class="st25"/><g><path fill="#71d868" d="M451.3 456.3l-31.2 17.9v-35.9l31.2-18z"/><path d="M448.8 424.7v30.1l-26.1 15.1v-30.1l26.1-15.1zm2.5-4.4l-31.2 18v36l31.2-18v-36z" class="st27"/><g><path d="M427.2 465.3c-.7.4-1.3.1-1.3-.7v-23.3c0-.8.6-1.8 1.3-2.2.7-.4 1.3-.1 1.3.7v23.3c-.1.8-.6 1.8-1.3 2.2zM432.9 462c-.7.4-1.3.1-1.3-.7V438c0-.8.6-1.8 1.3-2.2.7-.4 1.3-.1 1.3.7v23.3c-.1.8-.6 1.8-1.3 2.2zM438.5 458.7c-.7.4-1.3.1-1.3-.7v-23.3c0-.8.6-1.8 1.3-2.2s1.3-.1 1.3.7v23.3c0 .8-.6 1.8-1.3 2.2zM444.2 455.4c-.7.4-1.3.1-1.3-.7v-23.3c0-.8.6-1.8 1.3-2.2.7-.4 1.3-.1 1.3.7v23.3c0 .9-.6 1.8-1.3 2.2z" class="st27"/></g></g><g><path fill="#f1e2c9" d="M410.4 443.5l-31.2 17.9-62.6-36.1 31.2-18z"/><path d="M347.8 410.2l57.5 33.2-26.1 15.1-57.5-33.2 26.1-15.1zm0-2.9l-31.2 18 62.6 36.1 31.2-18-62.6-36.1z" class="st18"/><path fill="#8d7e65" d="M316.6 461.3v-36l62.6 36.1v36z"/><path fill="#756c5c" d="M376.7 493l-57.5-33.2v-30.1l57.5 33.2V493zm2.5 4.4v-36l-62.6-36.1v36l62.6 36.1z"/><g><path d="M325.2 461.3c-.7-.4-1.3-1.4-1.3-2.2v-23.3c0-.8.6-1.1 1.3-.7.7.4 1.3 1.4 1.3 2.2v23.3c0 .8-.6 1.1-1.3.7zM330.9 464.6c-.7-.4-1.3-1.4-1.3-2.2v-23.3c0-.8.6-1.1 1.3-.7.7.4 1.3 1.4 1.3 2.2v23.3c-.1.8-.6 1.1-1.3.7zM336.6 467.9c-.7-.4-1.3-1.4-1.3-2.2v-23.3c0-.8.6-1.1 1.3-.7.7.4 1.3 1.4 1.3 2.2v23.3c-.1.8-.6 1.1-1.3.7zM342.2 471.2c-.7-.4-1.3-1.4-1.3-2.2v-23.3c0-.8.6-1.1 1.3-.7.7.4 1.3 1.4 1.3 2.2v23.3c0 .8-.6 1.1-1.3.7zM347.9 474.5c-.7-.4-1.3-1.4-1.3-2.2V449c0-.8.6-1.1 1.3-.7.7.4 1.3 1.4 1.3 2.2v23.3c0 .7-.6 1.1-1.3.7zM353.6 477.7c-.7-.4-1.3-1.4-1.3-2.2v-23.3c0-.8.6-1.1 1.3-.7.7.4 1.3 1.4 1.3 2.2V477c0 .8-.6 1.1-1.3.7zM359.3 481c-.7-.4-1.3-1.4-1.3-2.2v-23.3c0-.8.6-1.1 1.3-.7.7.4 1.3 1.4 1.3 2.2v23.3c0 .8-.6 1.1-1.3.7zM365 484.3c-.7-.4-1.3-1.4-1.3-2.2v-23.3c0-.8.6-1.1 1.3-.7.7.4 1.3 1.4 1.3 2.2v23.3c-.1.8-.6 1.1-1.3.7zM370.7 487.6c-.7-.4-1.3-1.4-1.3-2.2v-23.3c0-.8.6-1.1 1.3-.7s1.3 1.4 1.3 2.2v23.3c-.1.8-.6 1.1-1.3.7z" class="st31"/></g><g><path fill="#d6be98" d="M410.4 479.4l-31.2 18v-36l31.2-17.9z"/><path d="M407.9 447.8v30.1L381.8 493v-30.1l26.1-15.1zm2.5-4.3l-31.2 18v36l31.2-18v-36z" class="st33"/><g><path d="M386.3 488.5c-.7.4-1.3.1-1.3-.7v-23.3c0-.8.6-1.8 1.3-2.2.7-.4 1.3-.1 1.3.7v23.3c-.1.8-.6 1.8-1.3 2.2zM392 485.2c-.7.4-1.3.1-1.3-.7v-23.3c0-.8.6-1.8 1.3-2.2.7-.4 1.3-.1 1.3.7V483c-.1.8-.6 1.8-1.3 2.2zM397.6 481.9c-.7.4-1.3.1-1.3-.7v-23.3c0-.8.6-1.8 1.3-2.2s1.3-.1 1.3.7v23.3c0 .8-.6 1.8-1.3 2.2zM403.3 478.6c-.7.4-1.3.1-1.3-.7v-23.3c0-.8.6-1.8 1.3-2.2s1.3-.1 1.3.7v23.3c0 .8-.6 1.8-1.3 2.2z" class="st33"/></g></g></g><g><path d="M429.9 390.6l-31.1 18-62.6-36.1 31.1-18z" class="st34"/><path d="M367.3 357.4l57.5 33.2-26.1 15.1-57.5-33.2 26.1-15.1zm0-2.9l-31.2 18 62.6 36.1 31.2-18-62.6-36.1z" class="st34"/><path d="M336.2 408.4v-35.9l62.6 36.1v36z" class="st34"/><path d="M396.2 440.2L338.7 407v-30.1l57.6 33.2-.1 30.1zm2.6 4.4v-36l-62.6-36.1v36l62.6 36.1z" class="st34"/><g><path d="M344.7 408.5c-.7-.4-1.3-1.4-1.3-2.2V383c0-.8.6-1.1 1.3-.7.7.4 1.3 1.4 1.3 2.2v23.3c0 .8-.6 1.1-1.3.7zM350.4 411.8c-.7-.4-1.3-1.4-1.3-2.2v-23.3c0-.8.6-1.1 1.3-.7.7.4 1.3 1.4 1.3 2.2v23.3c0 .8-.6 1.1-1.3.7zM356.1 415.1c-.7-.4-1.3-1.4-1.3-2.2v-23.3c0-.8.6-1.1 1.3-.7.7.4 1.3 1.4 1.3 2.2v23.3c0 .7-.6 1.1-1.3.7zM361.8 418.4c-.7-.4-1.3-1.4-1.3-2.2v-23.3c0-.8.6-1.1 1.3-.7.7.4 1.3 1.4 1.3 2.2v23.3c-.1.7-.6 1.1-1.3.7zM367.5 421.6c-.7-.4-1.3-1.4-1.3-2.2v-23.3c0-.8.6-1.1 1.3-.7.7.4 1.3 1.4 1.3 2.2v23.3c-.1.8-.6 1.1-1.3.7zM373.2 424.9c-.7-.4-1.3-1.4-1.3-2.2v-23.3c0-.8.6-1.1 1.3-.7.7.4 1.3 1.4 1.3 2.2v23.3c-.1.8-.6 1.1-1.3.7zM378.8 428.2c-.7-.4-1.3-1.4-1.3-2.2v-23.3c0-.8.6-1.1 1.3-.7.7.4 1.3 1.4 1.3 2.2v23.3c0 .8-.6 1.1-1.3.7zM384.5 431.5c-.7-.4-1.3-1.4-1.3-2.2V406c0-.8.6-1.1 1.3-.7.7.4 1.3 1.4 1.3 2.2v23.3c0 .8-.6 1.1-1.3.7zM390.2 434.8c-.7-.4-1.3-1.4-1.3-2.2v-23.3c0-.8.6-1.1 1.3-.7.7.4 1.3 1.4 1.3 2.2v23.3c0 .7-.6 1.1-1.3.7z" class="st34"/></g><g><path d="M429.9 426.6l-31.1 18v-36l31.1-18z" class="st34"/><path d="M427.4 395v30.1l-26.1 15.1v-30.1l26.1-15.1zm2.5-4.4l-31.2 18v36l31.2-18v-36z" class="st34"/><g><path d="M405.8 435.6c-.7.4-1.3.1-1.3-.7v-23.3c0-.8.6-1.8 1.3-2.2.7-.4 1.3-.1 1.3.7v23.3c0 .8-.6 1.8-1.3 2.2zM411.5 432.4c-.7.4-1.3.1-1.3-.7v-23.3c0-.8.6-1.8 1.3-2.2s1.3-.1 1.3.7v23.3c0 .8-.6 1.7-1.3 2.2zM417.2 429.1c-.7.4-1.3.1-1.3-.7V405c0-.8.6-1.8 1.3-2.2s1.3-.1 1.3.7v23.3c0 .9-.6 1.9-1.3 2.3zM422.9 425.8c-.7.4-1.3.1-1.3-.7v-23.3c0-.8.6-1.8 1.3-2.2s1.3-.1 1.3.7v23.3c-.1.8-.6 1.8-1.3 2.2z" class="st34"/></g></g><g><path fill="#c56ad8" d="M429.9 390.6l-31.1 18-62.6-36.1 31.1-18z"/><path fill="#a15bb2" d="M367.3 357.4l57.5 33.2-26.1 15.1-57.5-33.2 26.1-15.1zm0-2.9l-31.2 18 62.6 36.1 31.2-18-62.6-36.1z"/><path d="M336.2 408.4v-35.9l62.6 36.1v36z" class="st37"/><path d="M396.2 440.2L338.7 407v-30.1l57.6 33.2-.1 30.1zm2.6 4.4v-36l-62.6-36.1v36l62.6 36.1z" class="st38"/><g><path d="M344.7 408.5c-.7-.4-1.3-1.4-1.3-2.2V383c0-.8.6-1.1 1.3-.7.7.4 1.3 1.4 1.3 2.2v23.3c0 .8-.6 1.1-1.3.7zM350.4 411.8c-.7-.4-1.3-1.4-1.3-2.2v-23.3c0-.8.6-1.1 1.3-.7.7.4 1.3 1.4 1.3 2.2v23.3c0 .8-.6 1.1-1.3.7zM356.1 415.1c-.7-.4-1.3-1.4-1.3-2.2v-23.3c0-.8.6-1.1 1.3-.7.7.4 1.3 1.4 1.3 2.2v23.3c0 .7-.6 1.1-1.3.7zM361.8 418.4c-.7-.4-1.3-1.4-1.3-2.2v-23.3c0-.8.6-1.1 1.3-.7.7.4 1.3 1.4 1.3 2.2v23.3c-.1.7-.6 1.1-1.3.7zM367.5 421.6c-.7-.4-1.3-1.4-1.3-2.2v-23.3c0-.8.6-1.1 1.3-.7.7.4 1.3 1.4 1.3 2.2v23.3c-.1.8-.6 1.1-1.3.7zM373.2 424.9c-.7-.4-1.3-1.4-1.3-2.2v-23.3c0-.8.6-1.1 1.3-.7.7.4 1.3 1.4 1.3 2.2v23.3c-.1.8-.6 1.1-1.3.7zM378.8 428.2c-.7-.4-1.3-1.4-1.3-2.2v-23.3c0-.8.6-1.1 1.3-.7.7.4 1.3 1.4 1.3 2.2v23.3c0 .8-.6 1.1-1.3.7zM384.5 431.5c-.7-.4-1.3-1.4-1.3-2.2V406c0-.8.6-1.1 1.3-.7.7.4 1.3 1.4 1.3 2.2v23.3c0 .8-.6 1.1-1.3.7zM390.2 434.8c-.7-.4-1.3-1.4-1.3-2.2v-23.3c0-.8.6-1.1 1.3-.7.7.4 1.3 1.4 1.3 2.2v23.3c0 .7-.6 1.1-1.3.7z" class="st38"/></g><g><path d="M429.9 426.6l-31.1 18v-36l31.1-18z" class="st37"/><path d="M427.4 395v30.1l-26.1 15.1v-30.1l26.1-15.1zm2.5-4.4l-31.2 18v36l31.2-18v-36z" class="st39"/><g><path d="M405.8 435.6c-.7.4-1.3.1-1.3-.7v-23.3c0-.8.6-1.8 1.3-2.2.7-.4 1.3-.1 1.3.7v23.3c0 .8-.6 1.8-1.3 2.2zM411.5 432.4c-.7.4-1.3.1-1.3-.7v-23.3c0-.8.6-1.8 1.3-2.2s1.3-.1 1.3.7v23.3c0 .8-.6 1.7-1.3 2.2zM417.2 429.1c-.7.4-1.3.1-1.3-.7V405c0-.8.6-1.8 1.3-2.2s1.3-.1 1.3.7v23.3c0 .9-.6 1.9-1.3 2.3zM422.9 425.8c-.7.4-1.3.1-1.3-.7v-23.3c0-.8.6-1.8 1.3-2.2s1.3-.1 1.3.7v23.3c-.1.8-.6 1.8-1.3 2.2z" class="st39"/></g></g></g></g><g><path fill="#edda51" d="M340.7 448l-31.2 18-62.6-36.1 31.2-18z"/><path fill="#c1ad4c" d="M278.1 414.8l57.5 33.2-26.1 15.1-57.5-33.2 26.1-15.1zm0-2.9l-31.2 18 62.6 36.1 31.2-18-62.6-36.1z"/><path d="M246.9 465.9v-36l62.6 36.1v36z" class="st42"/><path d="M307 497.6l-57.5-33.2v-30.1l57.5 33.2v30.1zm2.5 4.4v-36l-62.6-36.1v36l62.6 36.1z" class="st43"/><g><path d="M255.5 465.9c-.7-.4-1.3-1.4-1.3-2.2v-23.3c0-.8.6-1.1 1.3-.7.7.4 1.3 1.4 1.3 2.2v23.3c0 .8-.6 1.1-1.3.7zM261.2 469.2c-.7-.4-1.3-1.4-1.3-2.2v-23.3c0-.8.6-1.1 1.3-.7.7.4 1.3 1.4 1.3 2.2v23.3c0 .8-.6 1.1-1.3.7zM266.9 472.5c-.7-.4-1.3-1.4-1.3-2.2V447c0-.8.6-1.1 1.3-.7.7.4 1.3 1.4 1.3 2.2v23.3c-.1.8-.6 1.1-1.3.7zM272.6 475.8c-.7-.4-1.3-1.4-1.3-2.2v-23.3c0-.8.6-1.1 1.3-.7.7.4 1.3 1.4 1.3 2.2V475c-.1.8-.6 1.2-1.3.8zM278.2 479c-.7-.4-1.3-1.4-1.3-2.2v-23.3c0-.8.6-1.1 1.3-.7.7.4 1.3 1.4 1.3 2.2v23.3c0 .8-.6 1.2-1.3.7zM283.9 482.3c-.7-.4-1.3-1.4-1.3-2.2v-23.3c0-.8.6-1.1 1.3-.7.7.4 1.3 1.4 1.3 2.2v23.3c0 .8-.6 1.1-1.3.7zM289.6 485.6c-.7-.4-1.3-1.4-1.3-2.2v-23.3c0-.8.6-1.1 1.3-.7.7.4 1.3 1.4 1.3 2.2v23.3c0 .8-.6 1.1-1.3.7zM295.3 488.9c-.7-.4-1.3-1.4-1.3-2.2v-23.3c0-.8.6-1.1 1.3-.7.7.4 1.3 1.4 1.3 2.2v23.3c0 .8-.6 1.1-1.3.7zM301 492.2c-.7-.4-1.3-1.4-1.3-2.2v-23.3c0-.8.6-1.1 1.3-.7.7.4 1.3 1.4 1.3 2.2v23.3c-.1.8-.6 1.1-1.3.7z" class="st43"/></g><g><path d="M340.7 484l-31.1 18-.1-36 31.2-18z" class="st42"/><path d="M338.2 452.4v30.1l-26.1 15.1v-30.1l26.1-15.1zm2.5-4.4l-31.2 18v36l31.2-18v-36z" class="st44"/><g><path d="M316.6 493c-.7.4-1.3.1-1.3-.7V469c0-.8.6-1.8 1.3-2.2s1.3-.1 1.3.7v23.3c0 .9-.6 1.8-1.3 2.2zM322.3 489.8c-.7.4-1.3.1-1.3-.7v-23.3c0-.8.6-1.8 1.3-2.2s1.3-.1 1.3.7v23.3c-.1.8-.6 1.8-1.3 2.2zM328 486.5c-.7.4-1.3.1-1.3-.7v-23.3c0-.8.6-1.8 1.3-2.2s1.3-.1 1.3.7v23.3c-.1.8-.6 1.8-1.3 2.2zM333.7 483.2c-.7.4-1.3.1-1.3-.7v-23.3c0-.8.6-1.8 1.3-2.2.7-.4 1.3-.1 1.3.7V481c-.1.8-.7 1.8-1.3 2.2z" class="st44"/></g></g></g><g><path d="M375.2 408.9l-31.2 18-62.6-36.2 31.2-18z" class="st34"/><path d="M312.6 375.7l57.5 33.2L344 424l-57.5-33.2 26.1-15.1zm0-3l-31.2 18 62.6 36.1 31.2-18-62.6-36.1zM281.4 426.7v-36l62.6 36.2v35.9z" class="st34"/><path d="M341.5 458.5L284 425.3v-30.1l57.6 33.2-.1 30.1zm2.5 4.3v-36l-62.6-36.1v36l62.6 36.1z" class="st34"/><g><path d="M290 426.8c-.7-.4-1.3-1.4-1.3-2.2v-23.3c0-.8.6-1.1 1.3-.7.7.4 1.3 1.4 1.3 2.2v23.3c-.1.7-.6 1.1-1.3.7zM295.6 430c-.7-.4-1.3-1.4-1.3-2.2v-23.3c0-.8.6-1.1 1.3-.7s1.3 1.4 1.3 2.2v23.3c0 .8-.6 1.2-1.3.7zM301.3 433.3c-.7-.4-1.3-1.4-1.3-2.2v-23.3c0-.8.6-1.1 1.3-.7.7.4 1.3 1.4 1.3 2.2v23.3c0 .8-.6 1.1-1.3.7zM307 436.6c-.7-.4-1.3-1.4-1.3-2.2v-23.3c0-.8.6-1.1 1.3-.7.7.4 1.3 1.4 1.3 2.2v23.3c0 .8-.6 1.1-1.3.7zM312.7 439.9c-.7-.4-1.3-1.4-1.3-2.2v-23.3c0-.8.6-1.1 1.3-.7.7.4 1.3 1.4 1.3 2.2v23.3c0 .8-.6 1.1-1.3.7zM318.4 443.2c-.7-.4-1.3-1.4-1.3-2.2v-23.3c0-.8.6-1.1 1.3-.7.7.4 1.3 1.4 1.3 2.2v23.3c-.1.8-.6 1.1-1.3.7zM324.1 446.5c-.7-.4-1.3-1.4-1.3-2.2V421c0-.8.6-1.1 1.3-.7.7.4 1.3 1.4 1.3 2.2v23.3c-.1.7-.6 1.1-1.3.7zM329.7 449.7c-.7-.4-1.3-1.4-1.3-2.2v-23.3c0-.8.6-1.1 1.3-.7.7.4 1.3 1.4 1.3 2.2V449c0 .8-.6 1.1-1.3.7zM335.4 453c-.7-.4-1.3-1.4-1.3-2.2v-23.3c0-.8.6-1.1 1.3-.7s1.3 1.4 1.3 2.2v23.3c0 .8-.6 1.1-1.3.7z" class="st34"/></g><g><path d="M375.2 444.9L344 462.8v-35.9l31.2-18z" class="st34"/><path d="M372.6 413.3v30.1l-26.1 15.1v-30.1l26.1-15.1zm2.6-4.4l-31.2 18v36l31.2-18v-36z" class="st34"/><g><path d="M351 453.9c-.7.4-1.3.1-1.3-.7v-23.3c0-.8.6-1.8 1.3-2.2.7-.4 1.3-.1 1.3.7v23.3c0 .8-.6 1.8-1.3 2.2zM356.7 450.6c-.7.4-1.3.1-1.3-.7v-23.3c0-.8.6-1.8 1.3-2.2.7-.4 1.3-.1 1.3.7v23.3c0 .8-.6 1.8-1.3 2.2zM362.4 447.3c-.7.4-1.3.1-1.3-.7v-23.3c0-.8.6-1.8 1.3-2.2.7-.4 1.3-.1 1.3.7v23.3c0 .8-.6 1.8-1.3 2.2zM368.1 444c-.7.4-1.3.1-1.3-.7V420c0-.8.6-1.8 1.3-2.2.7-.4 1.3-.1 1.3.7v23.3c0 .9-.6 1.8-1.3 2.2z" class="st34"/></g></g><g><path fill="#008bad" d="M375.2 408.9l-31.2 18-62.6-36.2 31.2-18z"/><path fill="#006b87" d="M312.6 375.7l57.5 33.2L344 424l-57.5-33.2 26.1-15.1zm0-3l-31.2 18 62.6 36.1 31.2-18-62.6-36.1z"/><path d="M281.4 426.7v-36l62.6 36.2v35.9z" class="st3"/><path d="M341.5 458.5L284 425.3v-30.1l57.6 33.2-.1 30.1zm2.5 4.3v-36l-62.6-36.1v36l62.6 36.1z" class="st47"/><g><path d="M290 426.8c-.7-.4-1.3-1.4-1.3-2.2v-23.3c0-.8.6-1.1 1.3-.7.7.4 1.3 1.4 1.3 2.2v23.3c-.1.7-.6 1.1-1.3.7zM295.6 430c-.7-.4-1.3-1.4-1.3-2.2v-23.3c0-.8.6-1.1 1.3-.7s1.3 1.4 1.3 2.2v23.3c0 .8-.6 1.2-1.3.7zM301.3 433.3c-.7-.4-1.3-1.4-1.3-2.2v-23.3c0-.8.6-1.1 1.3-.7.7.4 1.3 1.4 1.3 2.2v23.3c0 .8-.6 1.1-1.3.7zM307 436.6c-.7-.4-1.3-1.4-1.3-2.2v-23.3c0-.8.6-1.1 1.3-.7.7.4 1.3 1.4 1.3 2.2v23.3c0 .8-.6 1.1-1.3.7zM312.7 439.9c-.7-.4-1.3-1.4-1.3-2.2v-23.3c0-.8.6-1.1 1.3-.7.7.4 1.3 1.4 1.3 2.2v23.3c0 .8-.6 1.1-1.3.7zM318.4 443.2c-.7-.4-1.3-1.4-1.3-2.2v-23.3c0-.8.6-1.1 1.3-.7.7.4 1.3 1.4 1.3 2.2v23.3c-.1.8-.6 1.1-1.3.7zM324.1 446.5c-.7-.4-1.3-1.4-1.3-2.2V421c0-.8.6-1.1 1.3-.7.7.4 1.3 1.4 1.3 2.2v23.3c-.1.7-.6 1.1-1.3.7zM329.7 449.7c-.7-.4-1.3-1.4-1.3-2.2v-23.3c0-.8.6-1.1 1.3-.7.7.4 1.3 1.4 1.3 2.2V449c0 .8-.6 1.1-1.3.7zM335.4 453c-.7-.4-1.3-1.4-1.3-2.2v-23.3c0-.8.6-1.1 1.3-.7s1.3 1.4 1.3 2.2v23.3c0 .8-.6 1.1-1.3.7z" class="st47"/></g><g><path fill="#007c9c" d="M375.2 444.9L344 462.8v-35.9l31.2-18z"/><path d="M372.6 413.3v30.1l-26.1 15.1v-30.1l26.1-15.1zm2.6-4.4l-31.2 18v36l31.2-18v-36z" class="st49"/><g><path d="M351 453.9c-.7.4-1.3.1-1.3-.7v-23.3c0-.8.6-1.8 1.3-2.2.7-.4 1.3-.1 1.3.7v23.3c0 .8-.6 1.8-1.3 2.2zM356.7 450.6c-.7.4-1.3.1-1.3-.7v-23.3c0-.8.6-1.8 1.3-2.2.7-.4 1.3-.1 1.3.7v23.3c0 .8-.6 1.8-1.3 2.2zM362.4 447.3c-.7.4-1.3.1-1.3-.7v-23.3c0-.8.6-1.8 1.3-2.2.7-.4 1.3-.1 1.3.7v23.3c0 .8-.6 1.8-1.3 2.2zM368.1 444c-.7.4-1.3.1-1.3-.7V420c0-.8.6-1.8 1.3-2.2.7-.4 1.3-.1 1.3.7v23.3c0 .9-.6 1.8-1.3 2.2z" class="st49"/></g></g></g></g><g><path d="M287 365.7l31.2 18 62.6-36.2-31.2-18z" class="st50"/><path d="M349.6 332.4l26.1 15.1-57.5 33.2-26.1-15.1 57.5-33.2zm0-2.9L287 365.7l31.2 18 62.6-36.1-31.2-18.1z" class="st51"/><path fill="#bd3f16" d="M380.8 383.5v-36l-62.6 36.2v35.9z"/><path fill="#963312" d="M320.7 415.3v-30.1l57.5-33.2v30.1l-57.5 33.2zm-2.5 4.3l62.6-36.1v-36l-62.6 36.1v36z"/><g><path d="M372.2 383.6c.7-.4 1.3-1.4 1.3-2.2v-23.3c0-.8-.6-1.1-1.3-.7-.7.4-1.3 1.4-1.3 2.2v23.3c.1.7.6 1.1 1.3.7zM366.5 386.8c.7-.4 1.3-1.4 1.3-2.2v-23.3c0-.8-.6-1.1-1.3-.7-.7.4-1.3 1.4-1.3 2.2v23.3c.1.8.6 1.1 1.3.7zM360.9 390.1c.7-.4 1.3-1.4 1.3-2.2v-23.3c0-.8-.6-1.1-1.3-.7-.7.4-1.3 1.4-1.3 2.2v23.3c0 .8.6 1.1 1.3.7zM355.2 393.4c.7-.4 1.3-1.4 1.3-2.2v-23.3c0-.8-.6-1.1-1.3-.7-.7.4-1.3 1.4-1.3 2.2v23.3c0 .8.6 1.1 1.3.7zM349.5 396.7c.7-.4 1.3-1.4 1.3-2.2v-23.3c0-.8-.6-1.1-1.3-.7s-1.3 1.4-1.3 2.2V396c0 .8.6 1.1 1.3.7zM343.8 400c.7-.4 1.3-1.4 1.3-2.2v-23.3c0-.8-.6-1.1-1.3-.7s-1.3 1.4-1.3 2.2v23.3c0 .7.6 1.1 1.3.7zM338.1 403.2c.7-.4 1.3-1.4 1.3-2.2v-23.3c0-.8-.6-1.1-1.3-.7-.7.4-1.3 1.4-1.3 2.2v23.3c.1.8.6 1.1 1.3.7zM332.4 406.5c.7-.4 1.3-1.4 1.3-2.2V381c0-.8-.6-1.1-1.3-.7s-1.3 1.4-1.3 2.2v23.3c.1.8.6 1.1 1.3.7zM326.8 409.8c.7-.4 1.3-1.4 1.3-2.2v-23.3c0-.8-.6-1.1-1.3-.7-.7.4-1.3 1.4-1.3 2.2v23.3c0 .8.6 1.1 1.3.7z" class="st54"/></g><g><path fill="#ab3914" d="M287 401.6l31.2 18v-35.9l-31.2-18z"/><path d="M289.6 370.1l26.1 15.1v30.1l-26.1-15.1v-30.1zm-2.6-4.4v36l31.2 18v-36l-31.2-18z" class="st54"/><g><path d="M311.1 410.7c.7.4 1.3.1 1.3-.7v-23.3c0-.8-.6-1.8-1.3-2.2-.7-.4-1.3-.1-1.3.7v23.3c.1.8.6 1.8 1.3 2.2zM305.5 407.4c.7.4 1.3.1 1.3-.7v-23.3c0-.8-.6-1.8-1.3-2.2s-1.3-.1-1.3.7v23.3c0 .8.6 1.8 1.3 2.2zM299.8 404.1c.7.4 1.3.1 1.3-.7v-23.3c0-.8-.6-1.8-1.3-2.2-.7-.4-1.3-.1-1.3.7v23.3c0 .8.6 1.8 1.3 2.2zM294.1 400.8c.7.4 1.3.1 1.3-.7v-23.3c0-.8-.6-1.8-1.3-2.2-.7-.4-1.3-.1-1.3.7v23.3c0 .9.6 1.8 1.3 2.2z" class="st54"/></g></g></g></g><g><path d="M319.5 149.7v19.1l-55.3-7.7V142z" class="st51"/><path d="M319.5 149.7l-55.4-7.7c5.4-12.6 23.7-22.4 46.5-24.4l8.9 32.1z" class="st50"/><path fill="#ffb92c" d="M304.6 152.2v22.9l-31 27.2v-22.9z"/><path fill="#ff9f2c" d="M269.8 165.1l3.8 14.4v22.9c-15.6-5.8-26-15.8-26-27.2V153l22.2 12.1z"/><path d="M273.6 179.4c-15.6-5.8-26-15.8-26-27.2 0-2.7.6-5.2 1.6-7.7l55.4 7.7-31 27.2z" class="st58"/><g><path fill="#527aaa" d="M288.5 176.9l88-27.2v22.9c0 17.9-25.5 32.5-57 32.5-11.4 0-22.1-1.9-31-5.2v-23z"/></g><path d="M310.7 117.6c2.9-.3 5.8-.4 8.8-.4 31.5 0 57 14.5 57 32.5 0 17.9-25.5 32.5-57 32.5-11.4 0-22.1-1.9-31-5.2l31-27.2-8.8-32.2z" class="st60"/><g><path d="M343.8 97.7V115l9.1-5.3 2.7 2.6 5-7.1 6.9-4V83.9z" class="st60"/><path d="M348.1 104.9v-2.1c0-1.4.8-2.5 2.2-3.4 1.4-.8 2.1-.5 2.1.5l-1.3.7c0-.3-.3-.5-.9-.2-.6.4-.9.9-.9 1.6v.6c.3-.5.8-.9 1.3-1.2 1.1-.7 1.8-.3 1.8.9 0 1.4-.7 2.5-2.2 3.3-1.4.9-2.1.7-2.1-.7zm3.1-1.7c0-.6-.3-.7-.8-.4-.5.3-.8.7-1 1.2v.1c0 .6.3.8.9.5.6-.4.9-.8.9-1.4zM353.3 102.1l1.3-.7c0 .4.4.5.9.2.6-.4 1-.9 1-1.5s-.3-.8-.9-.4c-.4.2-.7.5-.9.9l-1.1.7.2-3.6 3.8-2.2v1.1l-2.7 1.5-.1 1.3c.3-.4.7-.8 1.2-1 1.2-.7 1.8-.4 1.8.9 0 1.4-.8 2.5-2.3 3.4-1.4.8-2.2.6-2.2-.6zM358.4 96.9v-1c0-.8.5-1.5 1.3-2 .9-.5 1.3-.4 1.3.4v1c0 .8-.5 1.5-1.3 2-.8.6-1.3.4-1.3-.4zm4.6-4.8l.9-.5-3.6 8.3-.9.5 3.6-8.3zm-2.8 3.8V95c0-.3-.1-.4-.4-.2-.3.2-.4.4-.4.7v.9c0 .3.1.4.4.2.3-.2.4-.4.4-.7zm2 1.7v-1c0-.8.5-1.5 1.3-2 .9-.5 1.4-.4 1.4.4v1c0 .8-.5 1.5-1.4 2-.9.6-1.3.4-1.3-.4zm1.7-1v-.9c0-.3-.1-.4-.4-.2-.3.2-.4.4-.4.7v.9c0 .3.1.4.4.2.3-.2.4-.4.4-.7z" class="st5"/></g><g><path d="M289.2 75.6v17.3l9.2-5.3 2.7 2.6 5-7.1 6.9-4V61.8z" class="st50"/><path d="M293.5 84.2c0-1.1.5-2.1 1.9-3.5.9-.9 1.2-1.4 1.2-1.9 0-.4-.3-.6-.8-.2-.6.3-.9.8-.9 1.4v.2l-1.2.7v-.3c0-1.3.8-2.3 2.1-3.1 1.4-.8 2.1-.6 2.1.6 0 1-.5 1.9-1.8 3.3-.8.8-1.1 1.2-1.2 1.7l3.1-1.8v1.1l-4.4 2.5v-.7zM298.8 79.8v-2.2c0-1.3.8-2.5 2.2-3.3s2.2-.6 2.2.8v2.2c0 1.3-.8 2.5-2.2 3.3s-2.2.5-2.2-.8zm3.1-1.8v-2.1c0-.7-.3-.8-.9-.5s-.9.8-.9 1.5V79c0 .7.3.8.9.5s.9-.8.9-1.5zM303.9 74.8v-1c0-.8.5-1.5 1.3-2 .9-.5 1.3-.4 1.3.4v1c0 .8-.5 1.5-1.3 2-.8.6-1.3.4-1.3-.4zm4.6-4.8l.9-.5-3.6 8.3-.9.5 3.6-8.3zm-2.8 3.8v-.9c0-.3-.1-.4-.4-.2-.3.2-.4.4-.4.7v.9c0 .3.1.4.4.2.2-.2.4-.4.4-.7zm1.9 1.7v-1c0-.8.5-1.5 1.3-2s1.3-.4 1.3.4v1c0 .8-.5 1.5-1.3 2s-1.3.4-1.3-.4zm1.8-1v-.9c0-.3-.1-.4-.4-.2s-.4.4-.4.7v.9c0 .3.1.4.4.2s.4-.4.4-.7z" class="st5"/></g><g><path d="M247.4 106.6v17.3l9.2-5.2 2.7 2.6 5-7.1 6.9-4V92.9z" class="st58"/><path d="M252.1 114.5l1.4-.8v-3.3c-.5.4-1.1.8-1.6 1.1v-1c.8-.5 1.3-1 1.7-1.8l1.3-.7v4.9l1.4-.8v1.1l-4.2 2.4v-1.1zM257 111.1l1.3-.7c0 .4.4.5.9.2.6-.4 1-.9 1-1.5s-.3-.8-.9-.4c-.4.2-.7.5-.9.9l-1.1.7.2-3.6 3.8-2.2v1.1l-2.7 1.5-.1 1.3c.3-.4.7-.8 1.2-1 1.2-.7 1.8-.4 1.8.9 0 1.4-.8 2.5-2.3 3.4-1.4.8-2.2.6-2.2-.6zM262.1 105.9v-1c0-.8.5-1.5 1.4-2 .9-.5 1.3-.4 1.3.4v1c0 .8-.5 1.5-1.3 2-.9.5-1.4.4-1.4-.4zm4.6-4.8l.9-.5-3.6 8.3-.9.5 3.6-8.3zm-2.8 3.8v-.9c0-.3-.1-.4-.4-.2-.3.2-.4.4-.4.7v.9c0 .3.1.4.4.2.2-.2.4-.4.4-.7zm1.9 1.7v-1c0-.8.5-1.5 1.3-2s1.3-.4 1.3.4v1c0 .8-.5 1.5-1.3 2s-1.3.4-1.3-.4zm1.8-1v-.9c0-.3-.1-.4-.4-.2s-.4.4-.4.7v.9c0 .3.1.4.4.2s.4-.4.4-.7z" class="st5"/></g></g><g><g class="st61"><path d="M608.1 228.5c2.5-1.4 5.5-1.9 9-1.1 2.1.4 4.4 1.3 6.7 2.7 2.2 1.3 4.4 2.9 6.4 4.8l-9.9 5.8c-2-1.9-4.2-3.5-6.4-4.8-2.3-1.3-4.6-2.2-6.7-2.7-3.4-.7-6.5-.3-9 1.1l9.9-5.8zM637.3 222.7c2.9-1.7 6.4-2.2 10.4-1.3 2.4.5 5.1 1.5 7.8 3.1 4.5 2.6 8.7 6.4 12.4 10.8 6.7 8.2 11.6 18.8 12.8 28.6 2 .5 4.2 1.3 6.4 2.6 3.9 2.2 7.5 5.5 10.7 9.3 6.8 8.2 11.3 19.2 11.3 28.7 0 6.9-2.5 11.8-6.4 14.1l-9.9 5.8c4-2.3 6.4-7.2 6.4-14.1 0-9.5-4.5-20.5-11.3-28.7-3.2-3.8-6.8-7.1-10.7-9.3-2.2-1.3-4.4-2.2-6.4-2.6-1.2-9.8-6-20.4-12.8-28.6-3.7-4.5-7.9-8.2-12.4-10.8-2.7-1.6-5.3-2.6-7.8-3.1-4-.8-7.5-.3-10.4 1.3l9.9-5.8z" class="st14"/><g><path fill="#ededed" d="M645.5 230.3c-12.8-7.4-23.4-2.7-25.3 10.3-2-1.9-4.2-3.5-6.4-4.8-12.2-7-22.1-1.4-22.1 12.6s9.8 31 22 38.1L677 323c12.2 7 22.1 1.4 22.1-12.6s-9.8-31-22-38.1c-2.2-1.3-4.4-2.2-6.4-2.6-1.9-15.2-12.4-32.1-25.2-39.4z"/></g></g><path fill="#a3a0a0" d="M633.6 137l.2 1.7c0 .4.4 2.7 1.1 6.5.1.5.2 1.1.3 1.7.2.8.3 1.6.5 2.5 2.8 12.6 9.1 34 21.9 51.2l.2.2 1.6 2.1 1.8-.3c1-.2 1.9-.4 2.7-.7.9-.3 1.7-.7 2.5-1.1 1-.5 1.9-1 2.7-1.6 12.3-8.8 15.7-29.7 15.8-30.8l.2-1.5-2.4-4.8-2.2-.2c-1.6-.1-3.4-.7-5.2-1.7-5.3-3.1-10-9.4-11.9-16.2l-.8-2.7-6.5-3.8-.8 1.8c-.9 2-2.3 3.3-4.1 3.9-.9.3-1.8.4-2.8.3h-.3c-1.5-.2-3.1-.7-4.8-1.7-1.8-1.1-3.6-2.5-5.2-4.3L636 135l-2.4 2z"/><path d="M655.4 145.5l2.1 10 6.2 7.7 8 4.3 3.9-1.1 7.3-4.3-2.2-.2c-1.6-.1-3.4-.7-5.2-1.7-5.3-3.1-10-9.4-11.9-16.2l-.8-2.7-7.4 4.2z" class="st64"/><path fill="#5b5b5b" d="M660.4 203.3v1.2l6-3.7 2.7-1.6c12.3-8.8 15.7-29.7 15.8-30.8l.2-1.5-7.3 4.3-6.1 17.4-6.9 10.5-3.8 3.4-.6.8z"/><path d="M628.7 139.3l2.1 5 4.4 2.6.8.5 4.6 2.4 7.2-3.2.7-3.1.4-1.7-.7 1.6c-1.5-.2-3.1-.7-4.8-1.7-1.8-1.1-3.6-2.5-5.2-4.3L636 135l-7.3 4.3z" class="st64"/><path fill="#828282" d="M626.3 141.4l.2 1.7c.2 1.5 4.8 36.2 23.8 61.8l1.8 2.4 1.8-.3c3.9-.7 7.3-2.6 10-5.1 10.7-9.5 13.6-28.2 13.8-29.2l.2-1.5-2.4-4.8-2.2-.2c-1.6-.1-3.4-.7-5.2-1.7-5.3-3.1-10-9.4-11.9-16.2l-.8-2.7-4.1-2.4-2.4-1.4-.7 1.6-.1.2c-1.9 4.5-6.6 5.5-11.9 2.4-.4-.2-.9-.5-1.3-.8-1.4-.9-2.7-2.1-3.9-3.5l-2.2-2.4-2.5 2.1z"/><path fill="#0084c2" d="M629.6 145.5s.7 5.4 2.7 13.4c1.4 5.7 3.4 12.7 6.3 20 3.3 8.4 7.7 17.3 13.6 25.2.7-.1 1.3-.3 1.9-.5 1.7-.5 3.3-1.3 4.8-2.3 1.4-.9 2.7-2 3.9-3.2 2.1-2.2 3.9-4.8 5.4-7.5.9-1.6 1.6-3.1 2.3-4.7.9-2.2 1.7-4.4 2.3-6.3 1.4-4.6 1.9-8.1 1.9-8.1v-.1c-2-.1-4.2-.8-6.5-2.2-1.1-.6-2.2-1.4-3.3-2.3-5.3-4.3-9.6-11.1-11.6-17.9l-1.1-.6-1.1-.6c-.6 1.4-1.4 2.5-2.4 3.3-1.1 1-2.5 1.6-4.1 1.8-2.4.3-5.3-.3-8.4-2.1-2.2-1.3-4.3-3-6.2-5.1-.2 0-.3-.1-.4-.2z"/><path fill="#e2e2e2" d="M648.9 141.8l2.4 1.4 4.1 2.3 7.2-4.3-6.5-3.8z"/><path fill="#547203" d="M644.1 171.4v10.9c0 1 .5 1.8 1.3 2.3l11.5 6.7c1 .6 2.2-.1 2.2-1.3v-10.9c0-1-.5-1.8-1.3-2.3l-.7-.4v-8.8c0-.7-.4-1.3-.9-1.6l-7.6-4.4c-.8-.5-1.9.1-1.9 1.1v7.7l-.4-.3c-1-.6-2.2.1-2.2 1.3zm5.3 11.4l.7-3c-.1-.2-.2-.4-.2-.7-.2-.9.2-1.5.8-1.5.3 0 .6.2.8.5.1.2.3.4.3.7v.1c0 .4-.1.8-.3 1l-.1.1.5 4.1-2.5-1.3zm-1.3-19.2c0-.4.4-.6.8-.4l6.2 3.6c.4.2.7.7.7 1.2v7.5l-7.7-4.5v-7.4z"/><path fill="#84d9f4" d="M643.3 171.7v10.9c0 1 .5 1.8 1.3 2.3l11.5 6.7c1 .6 2.2-.1 2.2-1.3v-10.9c0-1-.5-1.8-1.3-2.3l-.7-.4v-8.8c0-.7-.4-1.3-.9-1.6l-7.6-4.4c-.8-.5-1.9.1-1.9 1.1v7.7l-.4-.3c-.9-.6-2.2.1-2.2 1.3zm5.3 11.4l.7-3c-.1-.2-.2-.4-.2-.7-.2-.9.2-1.5.8-1.5.3 0 .6.2.8.5.1.2.3.4.3.7v.1c0 .4-.1.8-.3 1l-.1.1.5 4.1-2.5-1.3zm-1.3-19.1c0-.4.4-.6.8-.4l6.2 3.6c.4.2.7.7.7 1.2v7.5l-7.7-4.5V164z"/></g><g><g class="st61"><g class="st61"><path d="M705.5 465.7v11.2c0 4.6-3.1 9.2-9.1 12.8-12.2 7.1-32.1 7.1-44.3 0-6.2-3.6-9.3-8.2-9.2-12.9v-11.2c0 4.7 3.1 9.4 9.2 12.9 12.3 7.1 32.1 7.1 44.3 0 6.1-3.6 9.1-8.2 9.1-12.8z" class="st71"/></g><path d="M696.2 452.8c12.3 7.1 12.3 18.6.1 25.7-12.2 7.1-32.1 7.1-44.3 0-12.3-7.1-12.3-18.6-.1-25.7 12.2-7.1 32.1-7.1 44.3 0z" class="st72"/></g><g class="st61"><g class="st61"><path d="M705.5 451.8V463c0 4.6-3.1 9.2-9.1 12.8-12.2 7.1-32.1 7.1-44.3 0-6.2-3.6-9.3-8.2-9.2-12.9v-11.2c0 4.7 3.1 9.4 9.2 12.9 12.3 7.1 32.1 7.1 44.3 0 6.1-3.6 9.1-8.2 9.1-12.8z" class="st71"/></g><path d="M696.2 438.8c12.3 7.1 12.3 18.6.1 25.7-12.2 7.1-32.1 7.1-44.3 0-12.3-7.1-12.3-18.6-.1-25.7 12.2-7 32.1-7 44.3 0z" class="st72"/></g><g class="st61"><g class="st61"><path d="M705.5 437.9v11.2c0 4.6-3.1 9.2-9.1 12.8-12.2 7.1-32.1 7.1-44.3 0-6.2-3.6-9.3-8.2-9.2-12.9v-11.2c0 4.7 3.1 9.4 9.2 12.9 12.3 7.1 32.1 7.1 44.3 0 6.1-3.6 9.1-8.2 9.1-12.8z" class="st71"/></g><path d="M696.2 424.9c12.3 7.1 12.3 18.6.1 25.7-12.2 7.1-32.1 7.1-44.3 0-12.3-7.1-12.3-18.6-.1-25.7 12.2-7 32.1-7.1 44.3 0z" class="st72"/></g><g class="st61"><g class="st61"><path d="M705.5 423.9v11.2c0 4.6-3.1 9.2-9.1 12.8-12.2 7.1-32.1 7.1-44.3 0-6.2-3.6-9.3-8.2-9.2-12.9v-11.2c0 4.7 3.1 9.4 9.2 12.9 12.3 7.1 32.1 7.1 44.3 0 6.1-3.5 9.1-8.1 9.1-12.8z" class="st71"/></g><path d="M696.2 411c12.3 7.1 12.3 18.6.1 25.7-12.2 7.1-32.1 7.1-44.3 0-12.3-7.1-12.3-18.6-.1-25.7 12.2-7.1 32.1-7.1 44.3 0z" class="st72"/></g></g><g><path d="M80.9 441.3l-2.9-1.7 18.2-10.4.5 2zM136.4 349l-1.2-.8c-.5-.3-1-.3-1.7.1L113.2 360c-.8.5-1.6 1.4-2 2.6l-4 9.6c-.5 1.1-1.2 2.1-2 2.6l-25.8 14.9c-1.4.8-2.5 3-2.5 4.8V439l59.1-34.1v-54.6c0-.4-.1-.8-.2-1.1l.6-.2z" class="st73"/><path d="M112.3 363.3l-4 9.6c-.5 1.1-1.2 2.1-2 2.6l-25.8 14.9c-1.4.8-2.5 3-2.5 4.8v44.5l59.1-34.1V351c0-1.9-1.1-2.7-2.5-1.9l-20.3 11.7c-.7.4-1.5 1.4-2 2.5z" class="st74"/><path d="M78 395.1l-1.2-.7V439l1.2.6z" class="st75"/><path fill="#d5d0ad" d="M136.4 404.7l-56.8 32.9V383l56.8-32.8z"/><path fill="#dfd9b5" d="M137.2 405l-56.8 32.8v-54.5l56.8-32.9z"/><path fill="#e8e3bc" d="M138 405.2l-56.8 32.9v-54.6l56.8-32.8z"/><path fill="#f2ecc4" d="M138.8 350.9v54.6L82 438.4v-54.6z"/><path d="M135.6 359.8v5.8l-49.2 28.3v-5.8zM135.6 369.2v5.8l-49.2 28.3v-5.8zM135.6 378.7v5.8l-49.2 28.3V407zM135.6 388.2v5.8l-49.2 28.3v-5.8zM135.6 397.6v5.8l-49.2 28.3v-5.8z" class="st80"/><path d="M154.3 366c-.3-.2-.7-.1-1.4.2l-20 11.6c-.8.5-1.4.5-1.6 0l-1.6-3.5.6-.2-1-.6-.1-.1c-.3-.1-.7 0-1.3.3L102 388.6c-1.4.8-3 2.8-3.6 4.4l-17.5 48.3 59.1-34.1 14.3-39.4c.1-.3.2-.5.2-.7l.9-.4-1.1-.7z" class="st73"/><path d="M155.5 368.4l-1.4 4-8.7 23.9-4.2 11.6-7.9 4.5-16.2 9.4-8.5 4.9-24.5 14.1L82 442l3.6-9.9 8.7-23.9 5.3-14.5c.6-1.6 2.2-3.6 3.6-4.4l9.3-5.4 16.2-9.3.2-.1c.8-.5 1.4-.5 1.6 0l1.2 2.7.6 1.4c.2.5.8.5 1.6 0l18.7-10.8 1.3-.7c1.5-1 2.2-.3 1.6 1.3z" class="st74"/><path d="M82 442l-1.1-.7 17.5-48.2 1.2.6z" class="st75"/><path d="M141.1 385.6l-34.3 19.9 2.1-4.1 34.4-20zM139.4 390.3l-34.4 20 1.2-2.3 34.4-19.9zM134.7 401.7l-34.3 19.9 1.2-2.2 34.4-20zM136.4 397l-34.3 20 2.1-4.2 34.4-19.9z" class="st81"/></g><g><path d="M683.4 383.8V380l-1.9-1.1c-.1-1.5-.4-3-.8-4.5l1.7-.3-1.4-4.1-1.7.3c-.6-1.5-1.3-2.9-2.2-4.2l1-1.7-2.5-3.3-1 1.7c-.9-1.1-1.9-2.1-3-2.9v-2.6l-2.9-1.7v2.5c-1-.4-2-.7-2.9-.7l-1-2.8-2.5.4.9 2.8c-.5.2-1 .5-1.4.8-.3.2-.6.5-.8.8l-1.7-2.3-.4.7-1 1.7.7.9 1 1.3c-.4 1-.7 2.2-.9 3.5l-1.9-1.1v3.8l1.9 1.1c.1 1.5.4 3 .7 4.5l-1.7.3 1.4 4.1h1.4c.6 1.5 1.6 2.6 2.4 3.9l-1 1.7 2.5 3.4 1-1.6c.9 1.1 1.9 2.1 3 2.9v2.6l2.9 1.7V390c1.1.5 2.1.7 3 .8l.3.8.7 2 2.5-.5-.2-.7-.7-2.1c.4-.2.7-.3 1.1-.6.4-.3.8-.6 1.2-1l1.7 2.3 1.4-2.5-1.6-2.2c.4-1 .7-2.2.9-3.5l1.8 1zm-11-.1c-1.1 2.1-3.4 2.8-5.9 1.3-3.7-2.1-6.7-7.9-6.7-12.8 0-3.9 1.9-6.1 4.4-5.8 1.1-2.1 3.4-2.8 5.9-1.3 1.3.8 2.5 2 3.6 3.4.1.1.1.2.2.3.7 1.1 1.4 2.3 1.8 3.6.7 1.8 1.1 3.7 1.1 5.5 0 3.8-1.8 6.1-4.4 5.8z" class="st73"/><path d="M681.5 378.9l-3.6 2.1-.8-2v-2.4l3.6-2.1c.4 1.4.7 2.9.8 4.4zM679.3 370.3l-3.6 2h-.1l-2-3.9-.2-.3 3.6-2.1c1 1.4 1.7 2.8 2.3 4.3zM668.9 358.1l-3.6 2.1h-2.5l-.4-.7 3.6-2.1c.9.1 1.9.3 2.9.7z" class="st82"/><path d="M662.4 359.5l-1-2.8 3.7-2.1.9 2.8z" class="st75"/><path d="M674.7 362.7l-3.6 2.1-3-2.9 3.6-2.1c1.1.9 2.1 1.8 3 2.9zM681.4 382.7c-.2 1.3-.4 2.5-.9 3.5l-3.6 2.1.9-3.5 3.6-2.1zM655.9 359.1l3.7-2 1.6 2.3-3.6 2z" class="st82"/><path d="M653.3 366.1l3.6-2 2 1.1-3.7 2.1z" class="st73"/><path d="M654.2 375.8l3.8-2.1 1.5-.3-3.6 2.1z" class="st82"/><path d="M660.9 388.9l3.6-2.1 1-1.6-3.6 2.1zM667.7 394.4l3.6-2.1v-2.5l-3.6 2.1zM674.2 395l3.6-2.1-1.1-3.1-3.5 2.4z" class="st75"/><path d="M679.7 385.9v-3.8l-1.9-1.1c-.1-1.5-.4-3-.8-4.5l1.7-.3-1.4-4.1-1.6.3h-.1c-.5-1.2-1.1-2.5-1.8-3.6-.1-.2-.2-.4-.4-.6l1-1.7-2.5-3.3-1 1.7c-.9-1.1-1.9-2.1-3-2.9v-2.6l-2.9-1.6v2.5c-1-.4-2-.7-2.9-.7l-.3-.9-.6-1.9-2.5.4.2.6.7 2.1c-.4.1-.7.3-1.1.6-.4.3-.8.6-1.2 1l-1.7-2.3-1.5 2.4 1.6 2.2c-.4 1-.7 2.2-.9 3.5l-1.9-1.1v3.8l1.9 1.1c.1 1.5.4 3 .7 4.5l-1.7.3 1.4 4.1 1.7-.3c.6 1.5 1.3 2.9 2.1 4.2l-1 1.7 2.5 3.4 1-1.6c.9 1.1 1.9 2.1 3 2.9v2.6l2.9 1.7v-2.5c1.1.5 2.1.7 3 .7l1 2.8 2.5-.5-.9-2.8c.5-.2 1-.5 1.4-.8.3-.2.6-.5.8-.8l1.7 2.3.4-.7 1-1.7-.7-.9-1-1.3c.4-1 .7-2.2.9-3.5l2.2 1zm-15.5-19.6c.7.1 1.5.3 2.3.8 3.7 2.1 6.7 7.9 6.7 12.8 0 1.5-.3 2.8-.8 3.8-1.1 2.1-3.4 2.8-5.9 1.3-3.7-2.1-6.7-7.9-6.7-12.8 0-3.9 1.9-6.1 4.4-5.9z" class="st74"/><path d="M672.4 383.7c-1.1 2.1-3.4 2.8-5.9 1.3-3.7-2.1-6.7-7.9-6.7-12.8 0-3.9 1.9-6.1 4.4-5.8-.5 1-.8 2.2-.8 3.8 0 4.9 3 10.7 6.7 12.8.8.4 1.6.6 2.3.7z" class="st75"/><path d="M665.2 357.7l3.7-2.1 2.8 1.7-3.6 2z" class="st73"/><path d="M671.7 359.8l-3.6 2.1v-2.6l3.6-2z" class="st83"/><path d="M668.1 361.9l3.6-2.1v-2.5l-3.6 2z" class="st75"/><path d="M672 363.1l2.5 3.4 3.6-2.1-2.4-3.3z" class="st73"/><path d="M673.5 368.1l3.7-2 .9-1.7-3.6 2.1z" class="st75"/><path d="M658.9 357.1l2.5-.4 3.7-2.1-2.5.4zM677.4 372.1l3.6-2.1-1.7.3-3.6 2.1z" class="st73"/><path d="M678.8 376.2l3.6-2.1-1.4-4.1-3.6 2.1z" class="st75"/><path d="M677.8 381l1.9 1.1 3.7-2.1-1.9-1.1z" class="st73"/><path d="M679.7 385.9v-3.8l3.7-2.1v3.8z" class="st75"/><path d="M678.6 390.5l3.6-2.1-1.6-2.2-3.7 2z" class="st73"/><path d="M677.1 392.9l3.7-2 1.4-2.5-3.6 2.1z" class="st75"/><g><path d="M693.2 395.4v-1.8l-.9-.5c-.1-.7-.2-1.4-.4-2.2l.8-.2-.7-2-.8.2c-.3-.7-.7-1.4-1-2l.5-.8-1.2-1.6-.5.8c-.5-.5-.9-1-1.5-1.4v-1.3l-1.4-.8v1.2c-.5-.2-1-.3-1.4-.3l-.5-1.4-1.2.2.5 1.3c-.2.1-.5.2-.7.4-.1.1-.3.2-.4.4l-.8-1.1-.2.3-.5.8.3.4.5.6c-.2.5-.4 1-.4 1.7l-.9-.6v1.8l.9.5c.1.7.2 1.4.4 2.2l-.8.1.7 2h.7c.3.7.8 1.2 1.2 1.9l-.5.8 1.2 1.6.5-.8c.5.5.9 1 1.4 1.4v1.3l1.4.8v-1.2c.5.2 1 .3 1.5.4l.1.4.3 1 1.2-.2-.1-.3-.3-1c.2-.1.4-.2.5-.3.2-.1.4-.3.6-.5l.8 1.1.7-1.2-.8-1.1c.2-.5.3-1.1.4-1.7l.8.7zm-5.3-.1c-.5 1-1.6 1.3-2.9.6-1.8-1-3.2-3.8-3.2-6.2 0-1.9.9-3 2.2-2.8.6-1 1.6-1.3 2.9-.6.6.4 1.2 1 1.7 1.7l.1.1c.4.5.7 1.1.9 1.7.3.9.5 1.8.5 2.7 0 1.9-.9 2.9-2.2 2.8z" class="st73"/><path d="M692.3 393l-1.8 1-.4-1v-1.2l1.8-1c.2.7.3 1.5.4 2.2zM691.3 388.8l-1.7 1-1-1.9-.1-.2 1.8-1c.3.7.7 1.4 1 2.1zM686.2 382.9l-1.8 1h-1.2l-.2-.3 1.8-1c.4 0 .9.1 1.4.3z" class="st84"/><path d="M683 383.6l-.4-1.4 1.7-1 .5 1.4z" class="st85"/><path d="M689 385.1l-1.8 1-1.5-1.4 1.8-1c.6.4 1.1.9 1.5 1.4zM692.3 394.8c-.1.6-.2 1.2-.4 1.7l-1.8 1 .4-1.7 1.8-1zM679.9 383.4l1.8-1 .8 1.1-1.8 1z" class="st84"/><path d="M678.6 386.8l1.8-1 .9.6-1.7 1z" class="st86"/><path d="M679.1 391.5l1.8-1 .8-.2-1.8 1z" class="st82"/><path d="M682.3 397.8l1.8-1 .4-.8-1.7 1zM685.6 400.5l1.8-1v-1.2l-1.8 1zM688.7 400.8l1.8-1-.5-1.5-1.7 1.1z" class="st85"/><path fill="#ed6077" d="M691.5 396.4v-1.8l-.9-.5c-.1-.7-.2-1.4-.4-2.2l.8-.2-.7-2-.8.1c-.3-.6-.5-1.2-.9-1.7-.1-.1-.1-.2-.2-.3l.5-.8-1.2-1.6-.5.8c-.5-.5-.9-1-1.5-1.4v-1.3l-1.4-.8v1.2c-.5-.2-1-.3-1.4-.3l-.1-.4-.3-.9-1.2.2.1.3.3 1c-.2.1-.4.2-.5.3-.2.1-.4.3-.6.5l-.8-1.1-.7 1.2.8 1.1c-.2.5-.4 1-.4 1.7l-.9-.6v1.8l.9.5c.1.7.2 1.4.4 2.2l-.8.1.7 2 .8-.1c.3.7.6 1.4 1 2.1l-.5.8 1.2 1.6.5-.8c.5.5.9 1 1.4 1.4v1.3l1.4.8v-1.2c.5.2 1 .3 1.5.4l.5 1.4 1.2-.2-.5-1.3c.2-.1.5-.2.7-.4.1-.1.3-.2.4-.4l.8 1.1.2-.3.5-.8-.3-.4-.5-.7c.2-.5.3-1.1.4-1.7l1 .3zm-7.6-9.5c.3 0 .7.2 1.1.4 1.8 1 3.3 3.8 3.3 6.2 0 .7-.1 1.4-.4 1.8-.5 1-1.6 1.3-2.9.6-1.8-1-3.2-3.8-3.2-6.2 0-1.8.9-2.9 2.1-2.8z"/><path d="M687.9 395.3c-.5 1-1.6 1.3-2.9.6-1.8-1-3.2-3.8-3.2-6.2 0-1.9.9-3 2.2-2.8-.2.5-.4 1.1-.4 1.8 0 2.4 1.5 5.2 3.2 6.2.4.3.8.4 1.1.4z" class="st85"/><path d="M684.4 382.7l1.8-1 1.4.8-1.8 1z" class="st86"/><path d="M687.6 383.8l-1.8 1v-1.3l1.8-1z" class="st83"/><path d="M685.8 384.8l1.8-1v-1.3l-1.8 1z" class="st85"/><path d="M687.7 385.3l1.2 1.7 1.8-1-1.2-1.7z" class="st86"/><path d="M688.4 387.8l1.8-1 .5-.8-1.8 1z" class="st85"/><path d="M681.4 382.4l1.2-.2 1.7-1-1.2.2zM690.3 389.7l1.8-1-.8.1-1.8 1z" class="st86"/><path d="M691 391.7l1.7-1-.6-2-1.8 1z" class="st85"/><path d="M690.5 394l1 .5 1.7-1-.9-.5z" class="st86"/><path d="M691.5 396.4v-1.9l1.7-1v1.9z" class="st85"/><path d="M690.9 398.6l1.8-1-.8-1.1-1.8 1z" class="st86"/><path d="M690.2 399.8l1.8-1 .7-1.2-1.8 1z" class="st85"/></g><g><path d="M676.1 357.8l.9 1.8 2.3.1-.9-1.8zM675.1 361.1l1.2 1.6 2.7.5-1.2-1.5zM675 365.3l1.4 1.1 2.8-1.6-1.4-1.1zM676 369.8l1.4.5 2.7-1.6-1.4-.5zM677.8 374.2l2.7-1.5 1.3-.1-2.7 1.5z" class="st88"/><path d="M681.8 379.8l2.8-1.6 1-.8-2.8 1.6zM684.9 382.2l2.7-1.6.7-1.3-2.8 1.6z" class="st89"/><path d="M696.2 370.2l1.4 1.1-.5-2.4-1.3-1.1c-.1-.5-.3-1.1-.5-1.6l1.4.5-1-2.3-1.3-.5c-.2-.5-.5-1-.8-1.5l1.2-.1-1.3-2-1.2.1c-.3-.5-.6-.9-1-1.3l1-.7-1.5-1.6-.9.7c-.4-.3-.7-.6-1.1-.9l.6-1.2-1.6-.9-.6 1.2c-.4-.2-.7-.3-1.1-.4l.2-1.6-1.6-.2-.2 1.6h-1l-.2-1.9-1.3.5.2 1.8c-.3.2-.6.3-.8.6l-.6-2-1 1.2.6 1.9c-.2.3-.4.6-.5 1l-1-1.9-.5 1.8.9 1.8c-.1.4-.2.9-.2 1.4l-1.2-1.6v2.2l1.2 1.5c0 .5.1 1 .1 1.6l-1.4-1.1.5 2.4 1.4 1.1c.1.5.3 1.1.5 1.6l-1.4-.5 1 2.3-.9.9c.2.5.6 1 .8 1.5l.8 1 1.5.8 1.3-.1c.3.4.6.9 1 1.3l-1 .8 1.5 1.6 1-.8c.3.3.7.6 1.1.9l-.7 1.4 1.6.9.7-1.3c.4.2.7.3 1.1.4l-.2 1.8 1.6.2.2-1.8c.3 0 .7 0 1-.1l.2 2.1 1.3-.5-.2-2c.3-.1.5-.3.8-.5l.7 2.1 1-1.2-.6-2.1c.2-.3.4-.6.5-1l1 2 .5-1.8-1-1.9c.1-.4.2-.9.2-1.3l1.3 1.6v-2.2l-1.2-1.5c-.4-.8-.4-1.3-.5-1.8zm-9.3 3.3l-4-2.3V366l1.5.9v3.2l2.5 1.4v2zm0-10.7l-2.5-1.4v3.2l-1.5-.9v-5.2l4 2.3v2zm5.5 13.9l-3.8-2.2v-2l2.3 1.3v-3.2l1.5.9v5.2zm0-7.5l-1.5-.9v-3.2l-2.3-1.3v-2l3.8 2.2v5.2z" class="st88"/><path d="M685.8 376l2.8-1.5-2.8-.5zM688.1 381.6l-.2 1.7 2.8-1.5.2-1.8z" class="st89"/><path d="M690.7 383.1l-.2-2 1.4-1.2.2 2.1zM692.2 379.4l.6-1 2.7-1.6-.5 1z" class="st89"/><path d="M692.2 379.4l2.8-1.6.6 2.1-2.7 1.6z" class="st90"/><path d="M694.3 378.6l-1-1.9 2.8-1.5 1 1.8z" class="st90"/><path d="M693.5 375.4l-.2 1.3 2.8-1.5.2-1.4z" class="st89"/><path d="M693.4 371.8l.2 1.5 2.7-1.6-.1-1.5zM692.5 367.8l.5 1.7 2.8-1.6-.5-1.6z" class="st90"/><path d="M691.6 365.5l-.7-1.5 2.7-1.6.8 1.6z" class="st89"/><path d="M692.4 360.4l-2.8 1.6-1-1.3 2.8-1.6c.3.4.7.8 1 1.3zM689.9 357.5l-2.8 1.6-1.1-.9 2.8-1.6c.3.3.7.6 1.1.9zM687.2 355.6l-2.8 1.6-1.1-.4 2.8-1.6c.3 0 .7.2 1.1.4zM684.5 354.8l-2.8 1.6h-1l2.8-1.6h1zM678 355.5l2.7-1.6.6 2-2.7 1.6z" class="st90"/><path d="M685 356l1.6.9 2.8-1.6-1.7-.9z" class="st88"/><path d="M683.3 353l.2 1.9-2.8 1.6-.2-1.9z" class="st89"/><path d="M683.5 355.1l2.8-1.6-1.6-.2-2.7 1.5zM688 358.4l1.6 1.6 2.7-1.6-1.5-1.6z" class="st88"/><path d="M690.8 361.9l1.3 2 2.7-1.6-1.3-2z" class="st90"/><path d="M680.5 354.6l2.8-1.6-1.3.5-2.8 1.6z" class="st88"/><path d="M693.9 368.3l-1-2.3 2.8-1.5 1 2.3z" class="st89"/><path d="M694.8 374.9l2.8-1.6-1.3-1.6-2.7 1.6z" class="st88"/><path d="M694.8 372.9l2.8-1.6-.5-2.4-2.8 1.6zM694.8 374.9l2.8-1.6v2.1l-2.8 1.6zM694.3 378.6l2.8-1.6-.5 1.8-2.8 1.6zM683.3 356.7l.2-1.6 2.8-1.6-.2 1.6zM686 358.1l2.8-1.5.6-1.3-2.8 1.6zM692.3 358.4l-.9.7-2.8 1.6 1-.7z" class="st89"/><path d="M690.8 361.9l-1.2.1 2.8-1.6 1.1-.1z" class="st88"/><path d="M680.1 360.1v5.2l2.8-1.1v-2.5z" class="st89"/><path fill="#7fb50a" d="M693.4 371.8l1.4 1.1-.5-2.4-1.3-1.1c-.1-.5-.3-1.1-.5-1.6l1.4.5-1-2.3-1.3-.5c-.2-.5-.5-1-.8-1.5l1.2-.1-1.3-2-1.2.1c-.3-.5-.6-.9-1-1.3l1-.7-1.5-1.6-.9.7c-.4-.3-.7-.6-1.1-.9l.6-1.2-1.6-1-.6 1.2c-.4-.2-.7-.3-1.1-.4l.2-1.6-1.6-.2-.2 1.6h-1l-.2-1.9-1.3.5.2 1.8c-.3.2-.6.3-.8.6l-.6-2-1 1.2.6 1.9c-.2.3-.4.6-.5 1l-1-1.9-.5 1.8.9 1.8c-.1.4-.2.9-.2 1.4l-1.2-1.6v2.2l1.2 1.5c0 .5.1 1 .1 1.6l-1.4-1.1.5 2.4 1.4 1.1c.1.5.3 1.1.5 1.6l-1.4-.5 1 2.3 1.4.5c.2.5.5 1 .8 1.5l-1.3.1 1.3 2 1.3-.1c.3.4.6.9 1 1.3l-1 .8 1.5 1.6 1-.8c.4.3.7.6 1.1.9l-.7 1.4 1.6.9.7-1.3c.4.2.7.3 1.1.4l-.2 1.8 1.5.2.2-1.8c.3 0 .7 0 1-.1l.2 2.1 1.3-.5-.2-2c.3-.1.5-.3.8-.5l.7 2.1 1-1.2-.6-2.1c.2-.3.4-.6.5-1l1 2 .5-1.8-1-1.9c.1-.4.2-.9.2-1.3l1.3 1.6v-2.2l-1.2-1.5c-.3-.6-.3-1.1-.4-1.6zm-7.6 2.2l2.3 1.3v-3.2l1.5.9v5.2l-3.8-2.2v-2zm3.9-3.2l-1.5-.9v-3.2l-2.3-1.3v-2l3.8 2.2v5.2zm-9.6-10.7l4 2.3v2l-2.5-1.4v3.2l-1.5-.9v-5.2zm0 7.4l1.5.9v3.2l2.5 1.4v2l-4-2.3v-5.2z"/><path d="M680.1 367.5v5.3l1.6-1.2v-3.2z" class="st89"/><path d="M695.7 364.5l-2.8 1.5-1.3-.5 2.8-1.5z" class="st90"/><path d="M697.1 368.9l-1.3-1-2.8 1.6 1.3 1z" class="st88"/><path d="M691.9 382.7l1-1.2 2.7-1.6-.9 1.2zM688.1 366.7l1.6-1.1v5.2l-1.6-.9z" class="st89"/><path d="M680.1 372.8l1.6-1.2 2.4 1.4v2.1zM681.7 362.9l1.6-1 .8.5v2z" class="st88"/><path d="M685.8 365.4l1.8-1-1.8-1.1zM688.1 369.9l1.6-.8v1.7z" class="st89"/><path d="M680.1 365.3l1.6-.6v1.4z" class="st88"/><path d="M688.1 375.4l1.6-.9V373l-1.6-.8z" class="st89"/></g></g></g></svg>