<svg xmlns="http://www.w3.org/2000/svg" id="Layer_1" width="1400" height="1400"><style>.st1{display:none}.st3{display:inline}.st6{fill:#0084c2}.st8{fill:#f965a8}.st9{fill:#fed22c}.st10{fill:#326de6}.st11{fill:#db382c}.st12{fill:#6fa64b}.st15{fill:#2b4c89}.st16{fill:#94b5dd}.st17{fill:#fff}.st18{fill:#dda378}.st19{fill:#de5844}.st20{fill:#e8a3fb}.st21{fill:#fff;stroke:#de5844;stroke-miterlimit:10}.st22{fill:#537b35}.st23{fill:#90bf4f}.st26,.st28{opacity:.9608;fill:#b5b5b5;enable-background:new}.st28{fill:#fff}.st29{fill:#89c1ce}.st30{fill:#d3ebef}.st36{fill:#92d7fe}.st37{fill:#cecece}.st38{fill:#2dfc68}.st39{fill:#e2e2e2}</style><g class="st1"><path fill="#ccc" d="M806.4 1382.5l1.2-528.6 11.5-6.7-1.2 528.6c0 5.5-2 9.5-5.1 11.3l-11.5 6.7c3.1-1.9 5.1-5.8 5.1-11.3z"/><path fill="#f2f2f2" d="M807.6 853.9l-.1 40.3-286.4-165.4-1.1 488.3c0 11.2 7.8 24.8 17.5 30.4l251.2 145c9.7 5.6 17.6 1.1 17.6-10.1l1.3-528.5z"/><path fill="#31a3dd" d="M532.6 722.1l274.9 158.7.1-27c0-11.2-7.8-24.8-17.5-30.4l-251.2-145c-4.9-2.8-9.3-3.1-12.5-1.2l11.5-6.7c3.2-1.9 7.6-1.6 12.5 1.2l251.2 145c9.7 5.6 17.6 19.2 17.5 30.4l-.1 40.3-11.5 6.7-286.4-165.3 11.5-6.7z"/><g class="st3"><path d="M538.9 678.5c-9.7-5.6-17.6-1.1-17.6 10.1l-.1 40.3 286.4 165.3.1-40.3c0-11.2-7.8-24.8-17.5-30.4l-251.3-145z" class="st6"/></g><g class="st3"><path fill="#77bdfb" d="M778.3 838.8c-3.4-1.9-6.1-.4-6.1 3.5s2.7 8.6 6.1 10.5c3.4 1.9 6.1.4 6.1-3.5s-2.7-8.6-6.1-10.5z"/><path d="M757.5 826.8c-3.4-1.9-6.1-.4-6.1 3.5s2.7 8.6 6.1 10.5c3.4 1.9 6.1.4 6.1-3.5s-2.7-8.6-6.1-10.5z" class="st8"/><path d="M736.7 814.8c-3.4-1.9-6.1-.4-6.1 3.5s2.7 8.6 6.1 10.5c3.4 1.9 6.1.4 6.1-3.5s-2.7-8.6-6.1-10.5z" class="st9"/></g></g><path d="M628.6 791.2c1.3-2.1 2.6-3.4 3.9-4 1.3-.6 2.6-.5 4 .3 1.3.8 2 2 2 3.4 0 1.5-.6 3.2-1.9 5.3-1.3 2.1-2.6 3.5-3.9 4.1-1.3.6-2.6.5-3.9-.3-1.3-.8-2-2-2-3.5-.1-1.6.6-3.3 1.8-5.3zm6.6 4.1c1.1-1.8 1.7-3.2 1.8-4.2.1-1.1-.3-1.9-1.2-2.4-.9-.6-1.8-.6-2.7 0-.9.6-1.9 1.7-3 3.4s-1.7 3.1-1.8 4.2.3 1.9 1.2 2.4c.9.6 1.8.6 2.7 0 .9-.5 1.9-1.7 3-3.4z" class="st10"/><path d="M638.3 745.6l-.5-1.5 9.5-3.5c.8-.3 1.5-.5 2.3-.7l-.6-.3c-.2-.1-1.1-.6-2.6-1.5l.7-1.2 4 2.5.5 1.3-13.3 4.9z" class="st11"/><path d="M646.3 771.2c-1.4-.1-2.4-.9-3.1-2.2-.7-1.3-.7-2.6 0-3.8s2.1-2.3 4.2-3.4c2-1 3.8-1.5 5.1-1.3s2.4.9 3.1 2.2c.7 1.4.7 2.6 0 3.8-.7 1.2-2.1 2.3-4.2 3.4-2 1-3.7 1.4-5.1 1.3zm-1.7-5.4c-.6.8-.6 1.7-.2 2.6.5.9 1.2 1.4 2.2 1.4s2.4-.4 4.1-1.3c1.7-.9 2.9-1.7 3.5-2.6s.7-1.7.2-2.6c-.5-.9-1.2-1.4-2.2-1.4s-2.4.4-4.1 1.3-3 1.8-3.5 2.6z" class="st12"/><path d="M631.6 772.3l1.1-1.1 7.2 7.2c.6.6 1.1 1.2 1.6 1.7v-.6c0-.2.1-1.2.3-3l1.4.2-.6 4.7-1 1-10-10.1z" class="st11"/><path d="M649.2 721.3c-2.2 1.5-4.1 2.3-5.7 2.3s-2.9-.7-3.8-2.1c-.9-1.4-1.1-2.8-.4-4.3.6-1.5 2.1-3 4.2-4.4 2.3-1.5 4.2-2.3 5.7-2.3s2.8.7 3.8 2.1c.9 1.4 1.1 2.9.4 4.3-.7 1.5-2.1 3-4.2 4.4zm-4.8-7c-1.9 1.3-3.1 2.4-3.7 3.4-.6 1-.5 2 .1 3 .7 1 1.6 1.4 2.7 1.2 1.2-.1 2.7-.8 4.5-2.1 1.9-1.3 3.1-2.4 3.6-3.4.6-1 .5-2-.1-3-.7-1-1.6-1.4-2.7-1.3-1 .2-2.5.9-4.4 2.2z" class="st12"/><path d="M633.5 731.9l-.9 1.3-8.5-5.5c-.7-.5-1.4-.9-2-1.4 0 .2.1.4.1.6 0 .2.1 1.2.3 3l-1.4.1-.4-4.7.7-1.1 12.1 7.7zM623.7 748.1c1.3-.8 2.6-.9 4-.2s2.2 1.7 2.4 3.1c.2 1.4-.2 3.2-1.3 5.5-1 2.2-2.1 3.7-3.4 4.4-1.2.8-2.6.9-3.9.2-1.4-.7-2.3-1.7-2.5-3.1-.2-1.4.2-3.3 1.3-5.5 1-2.1 2.1-3.6 3.4-4.4zm4.9 3.3c0-1.1-.5-1.8-1.5-2.3-1-.5-1.9-.4-2.7.3-.8.7-1.7 1.9-2.6 3.8-.9 1.8-1.3 3.3-1.2 4.4 0 1.1.5 1.8 1.5 2.3 1 .4 1.9.3 2.7-.3.8-.6 1.7-1.9 2.6-3.8.8-1.9 1.2-3.4 1.2-4.4z" class="st10"/><path d="M662.5 738.2l-1.3-.8 5.1-8.2c.4-.7.8-1.3 1.3-1.9-.2 0-.4.1-.6.1-.2 0-1.2.2-2.8.4l-.1-1.3 4.5-.4 1.1.7-7.2 11.4z" class="st11"/><path d="M656.5 794.5l.5 1.4-9.1 3.3c-.8.3-1.5.5-2.2.7.2.1.3.2.5.3.2.1 1 .6 2.5 1.5l-.7 1.1-3.8-2.4-.4-1.2 12.7-4.7zM672.6 760.9l-1.1 1.1-7.2-7.2c-.6-.6-1.1-1.2-1.6-1.7v.6c0 .2-.1 1.2-.3 3l-1.4-.2.6-4.7 1-1 10 10.1z" class="st12"/><path d="M652.8 810.7c2-1.4 3.8-2.1 5.2-2.1 1.4 0 2.6.6 3.5 1.9.9 1.3 1 2.6.4 3.9s-1.9 2.7-3.9 4c-2.1 1.4-3.8 2.1-5.2 2.1-1.4 0-2.6-.6-3.5-1.9-.9-1.3-1-2.6-.4-4s2-2.6 3.9-3.9zm4.4 6.4c1.7-1.2 2.8-2.2 3.3-3.1.5-.9.5-1.8-.1-2.7-.6-.9-1.4-1.3-2.5-1.1-1.1.1-2.4.8-4.1 1.9s-2.8 2.2-3.3 3.1c-.5.9-.5 1.8.1 2.7.6.9 1.4 1.3 2.5 1.1 1-.1 2.4-.7 4.1-1.9z" class="st11"/><path d="M667.5 787.4c-1.3.8-2.6.9-4 .2s-2.2-1.7-2.4-3.1c-.2-1.4.2-3.2 1.3-5.5 1-2.2 2.1-3.7 3.4-4.4s2.6-.9 3.9-.2c1.4.7 2.3 1.7 2.5 3.1.2 1.4-.2 3.3-1.3 5.5-1 2.1-2.1 3.6-3.4 4.4zm-4.9-3.3c0 1.1.5 1.8 1.5 2.3 1 .5 1.9.4 2.7-.3s1.7-1.9 2.6-3.8 1.3-3.3 1.2-4.4c0-1.1-.5-1.8-1.5-2.3-1-.4-1.9-.3-2.7.3-.8.6-1.7 1.9-2.6 3.8-.8 1.9-1.2 3.3-1.2 4.4z" class="st10"/><linearGradient id="SVGID_1_" x1="510.6307" x2="650.6484" y1="673.4344" y2="590.8978" gradientUnits="userSpaceOnUse"><stop offset="0" stop-color="#00c8e2"/><stop offset=".040107" stop-color="#31a3dd" stop-opacity=".1"/><stop offset="1" stop-color="#0084c2"/></linearGradient><path fill="url(#SVGID_1_)" d="M768.3 541.9H523.2l93.3 112.3v31.9c0 13.6 10.3 24.6 22.9 24.6H652c12.7 0 22.9-11 22.9-24.6v-31.9l93.4-112.3z"/><path d="M771.4 532.3c0 21.6-56.1 39.1-125.3 39.1s-125.3-17.5-125.3-39.1c0-4.8-2.2-27.1.1-31.1 11.8-20.6 71.4-8 125.3-8 53.4 0 104.8-12.8 122.8 1.8 5.2 4.4 2.4 32.4 2.4 37.3z" class="st6"/><linearGradient id="SVGID_2_" x1="551.3805" x2="741.1484" y1="558.9665" y2="447.1035" gradientUnits="userSpaceOnUse"><stop offset="0" stop-color="#fcfcfc"/><stop offset=".040107" stop-color="#fcfcfc"/><stop offset="1" stop-color="#4b4b4b"/></linearGradient><ellipse cx="646.3" cy="503" fill="url(#SVGID_2_)" stroke="#0084c2" stroke-miterlimit="10" stroke-width=".5" rx="125.9" ry="37.9"/><path d="M674.8 685.3c0 9.5-13.1 17.2-29.2 17.2s-29.2-7.7-29.2-17.2l.1 12c0 9.5 13.1 17.2 29.2 17.2s29.2-7.7 29.2-17.2l-.1-12z" class="st6"/><path d="M437.1 106.6l83.4-46.3v98.4l-83.4 47.6z" class="st15"/><path d="M437.1 106.6l83.4-46.3-80.8-46.1-82.5 47.3z" class="st16"/><path d="M437.1 106.6l-79.9-45.1v100.4l79.9 44.4z" class="st10"/><path d="M520.5 60.3l-82.4 47.4-1 98.6-1.1-98.8-78.8-46 79.9 45.1z" class="st17"/><path d="M386.1 155.5c-1.3-.6-2.5-1.8-3.3-3.2l-12.4-21.5c-.8-1.4-1.1-2.9-.8-4l4.4-17c.3-1.1 1.1-1.7 2.3-1.7l18 .3c.6 0 1.2.2 1.8.5.6.3 1.3.8 1.8 1.3l18 17.4c1.2 1.1 2 2.6 2.3 4l4.4 21.4c.3 1.4 0 2.6-.8 3.2l-12.4 9.3c-.8.6-2 .6-3.3 0l-20-10z" class="st17"/><path d="M414.1 147.3c-.1 0-.1 0 0 0-.1 0-.1-.1-.1-.1-.1 0-.1-.1-.2-.1-.2-.2-.5-.3-.7-.4-.1-.1-.2-.1-.4-.2-.7-.4-1.3-.8-1.9-1.3-.2-.2-.3-.4-.4-.6v-.1l-.5-.4c.2-1.6.1-3.3-.2-5.1-.4-1.8-1.1-3.7-2-5.6l.4-.1v-.1c0-.2 0-.3.2-.4.4-.2 1-.2 1.6-.3h.3c.2 0 .4 0 .6-.1 0 0 .1 0 .2-.1h.1c.5-.2.6-.8.2-1.5-.2-.3-.5-.6-.8-.8-.3-.1-.5-.2-.8-.1h-.1c-.1 0-.1.1-.2.1-.2.1-.3.2-.5.3-.1 0-.1.1-.2.1-.5.3-1 .5-1.4.6-.1 0-.2 0-.3-.1-.1 0-.1-.1-.2-.1h-.1l-.4.1-1.5-2.1c-2.1-2.7-4.7-5-7.4-6.6v-.5l-.1-.1c-.1-.2-.2-.3-.3-.6 0-.6 0-1.2.1-1.9 0-.1 0-.2.1-.3 0-.2.1-.4.1-.6v-.3c0-.6-.5-1.4-1.1-1.7-.3-.1-.6-.1-.8 0-.2.1-.3.3-.3.7v.3c0 .2 0 .5.1.7 0 .1 0 .2.1.4.1.7.2 1.4.1 2 0 .2-.2.3-.3.3h-.1v.4c-.6-.2-1.3-.5-1.9-.7-2.7-.7-5.1-.6-7 .5l-.4-.4h-.1c-.1 0-.1 0-.2-.1s-.2-.1-.3-.3c-.5-.5-.9-1.2-1.4-2-.1-.1-.1-.2-.2-.4s-.3-.5-.5-.7c0-.1-.1-.1-.2-.2 0-.1-.1-.1-.1-.1-.2-.3-.5-.5-.8-.7-.3-.2-.6-.2-.8 0-.4.3-.2 1 .2 1.7 0 0 0 .1.1.1.1.1.1.2.2.2.2.2.4.4.6.7l.3.3c.6.7 1.2 1.3 1.6 1.9.2.3.2.4.2.6v.1l.4.5-.2.2c-1.8 1.9-2.4 4.9-2 8.3l-.5-.1v.1c-.1.1-.2.2-.4.2-.5-.1-1.2-.3-1.9-.6-.1-.1-.2-.1-.4-.1-.2-.1-.4-.2-.7-.3-.1 0-.1 0-.2-.1h-.1c-.6-.2-1 .2-.9.9.1.5.6 1.1 1.1 1.4.1.1.2.1.3.1h.1c.1 0 .1 0 .2.1.2.1.4.1.6.1h.3c.7.1 1.3.2 1.8.4h.1c.2.1.4.3.5.4 0 0 0 .1.1.1l.5.2c.9 3 2.5 6.2 4.6 8.9l1.5 1.8-.2.4v.1c.1.2.1.4.1.6-.2.4-.5.8-.9 1.2l-.2.2-.4.4-.1.1v.1c-.3.5-.1 1.2.5 1.7.1.1.3.2.4.3.4.2.9.1 1.1-.1v-.1c0-.1.1-.1.1-.1.1-.2.1-.4.2-.5l.1-.3c.2-.6.4-1.1.7-1.4.1-.1.3-.1.5-.1h.1l.2-.3c1.6 1.4 3.3 2.5 5 3.4 1 .5 2.1.9 3.1 1.2.6.2 1.2.3 1.8.4l.2.5.1.1c.2.1.3.3.5.5.3.6.5 1.3.7 2.1l.1.4c.1.2.1.5.2.7 0 .1.1.1.1.2v.1c.2.5.6 1 1.1 1.2.1.1.3.1.4.1.2 0 .5-.1.5-.4.1-.2.1-.6-.1-.9v-.1c0-.1-.1-.2-.1-.2-.1-.3-.2-.5-.4-.8-.1-.1-.1-.2-.2-.4-.4-.8-.7-1.5-.9-2.1-.1-.3 0-.4 0-.5v-.1l-.2-.5c1.9-.2 3.5-.9 4.7-2.3.6-.7 1.1-1.5 1.5-2.4l.4.3h.1c.1 0 .2-.1.5.1h.1c.6.4 1.2.9 1.8 1.4l.3.3.6.6c.1 0 .1.1.2.1 0 0 .1 0 .1.1.1.1.2.1.3.2.5.3 1 .1 1.1-.3.2-.6-.2-1.4-.8-1.9zm-16.5-9.8H396l-1.6-1.5-.4-1.9 1.1-.8 1.7.9 1.1 1.9-.3 1.4zm9.3.9c.3 1.3.4 2.5.2 3.7l-5.4-4.2c-.5-.4-.8-1-.7-1.5 0-.1.1-.2.2-.3l4.3-1.7c.7 1.3 1.1 2.6 1.4 4zm-3.1-7l-4.6 1c-.4.1-.9-.3-1.2-.8-.1-.2-.1-.3-.2-.5l-.3-5.9c2.4 1.5 4.6 3.7 6.3 6.2zm-10.2-7.9c.4.1.7.2 1.1.3l-.3 5.5c0 .5-.4.7-1 .4-.1-.1-.3-.2-.4-.3l-4.7-5.7c1.4-.7 3.2-.8 5.3-.2zm-7 1.6l4.2 5.8c.4.5.4 1.1.1 1.4-.1.1-.2.1-.4.1l-5.5-1.1c-.2-2.6.3-4.8 1.6-6.2zm-1 9.1l5.6 1.8c.5.2.9.7 1 1.2v.5l-2.2 4.1c-1.9-2.2-3.5-4.9-4.4-7.6zm13 13.4c-.8-.2-1.6-.5-2.5-.9-1.2-.6-2.4-1.4-3.6-2.3l2.8-3.7c.3-.2.7-.1 1.1.3.2.2.3.4.4.6l2.7 6.3c-.2-.2-.6-.3-.9-.3zm6.9-1.5c-.9 1-2.1 1.5-3.4 1.8l-2.2-6.4c-.1-.5.1-.8.5-.9.1 0 .3.1.5.1l5.7 3.7c-.3.7-.7 1.2-1.1 1.7z" class="st10"/><path d="M853.4 105.8l83.4-46.3v98.4l-83.4 47.6z" class="st11"/><path d="M853.4 105.8l83.4-46.3L856 13.4l-82.5 47.3z" class="st18"/><path d="M853.4 105.8l-79.9-45.1v100.4l79.9 44.4z" class="st19"/><path d="M936.8 59.5l-82.4 47.4-1 98.6-1.1-98.8-78.8-46 79.9 45.1z" class="st20"/><path d="M815 146.2l-32.2-18.4 17.1-9.6 32.9 18z" class="st21"/><path d="M798.3 136.8l-15.4-9.1 19-10.8 16.3 8.7zM847 144.1l-32 18.5v-10.8l32-18.5zM782.9 144.1l32 18.5v-10.8l-32-18.5z" class="st21"/><path d="M815 146.3l-32.1-18.5v5.5l32.1 18.4zM815 146.3l16.2-9.3v5.4l-16.2 9.3zM847 128v-5.4l-15.8 8.9v10.9l15.8-9z" class="st21"/><path d="M831.2 131.6l-16.3-9.5v5.4l16.3 9.5zM814.8 122.1l-15.8-9v5.4l15.8 9zM782.9 122.3l16.1-9.2v5.4l-16.1 9.2z" class="st21"/><path d="M798.7 131.3l16.1-9.2v5.4l-16.1 9.3zM831.3 131.5l-32.2-18.4 15.1-8.5 32.8 18zM798.7 131.4l-15.8-9.1v5.5l15.8 9z" class="st21"/><g><path d="M640.6 105.8L724 59.5v98.4l-83.4 47.6z" class="st22"/><path d="M640.6 105.8L724 59.5l-80.8-46.1-82.5 47.3z" class="st23"/><path d="M640.6 105.8l-79.9-45.1v100.4l79.9 44.4z" class="st12"/><path d="M724 59.5l-82.4 47.4-1 98.6-1.1-98.8-78.8-46 79.9 45.1z" class="st17"/><path d="M586.1 140.6c-1.7-1-3.2-3.3-3.2-5.1 0-1.8 1.4-2.4 3.2-1.3 1.9 1.1 3.2 3.3 3.2 5.1.1 1.7-1.5 2.3-3.2 1.3zm39.8 5.8c-.3-2.7-1.9-5.7-3.9-8.5l-.8-1.1-.6.4c-1.2.7-1.7 3-1.5 5 .2 1.5.6 3.2 1.4 4.8-.6 0-1.4-.2-2-.2-1.4-.3-2.8-1-4.2-1.8l-40-23.4-.2.9c-.3 2.9.2 6.3 1.4 9.9l.6 1.5v.2c3.7 8.6 10.3 15.3 17.6 19.6 13.9 8.1 25.3 8.5 30.7-1.7 3.5 2.2 7.1 3.3 8.8.8l.5-.5-.8-.9c-1.9-2.5-4.6-4.3-7-5zM606 132.2l-6-3.5v6.2l6 3.5v-6.2zm0-7.8l-6-3.5v6.2l6 3.5v-6.2zm0-8l-6-3.5v6.2l6 3.5v-6.2zm7.4 20.1l-6-3.5v6.2l6 3.5v-6.2zm-22.3-13l-6-3.5v6.2l6 3.5v-6.2zm7.5 4.4l-6-3.5v6.2l6 3.5v-6.2zm-14.9-8.8l-6-3.5v6.2l6 3.5v-6.2zm14.9.9l-6-3.5v6.2l6 3.5V120zm-7.5-4.4l-6-3.5v6.2l6 3.5v-6.2z" class="st17"/></g><g><path d="M560.3 441.9l19.4-10.8V454l-19.4 11.1z" class="st15"/><path d="M560.3 441.9l19.4-10.8-18.8-10.8-19.3 11.1z" class="st16"/><path d="M560.3 441.9l-18.7-10.5v23.4l18.7 10.3z" class="st10"/><path d="M579.7 431.1l-19.2 11-.2 23-.3-23-18.4-10.7 18.7 10.5z" class="st17"/></g><g><path d="M688.1 442.7l19.5-10.8v23L688.1 466z" class="st11"/><path d="M688.1 442.7l19.5-10.8-18.9-10.7-19.2 11z" class="st18"/><path d="M688.1 442.7l-18.6-10.5v23.4l18.6 10.4z" class="st19"/><path d="M707.6 431.9L688.4 443l-.3 23-.2-23-18.4-10.8 18.6 10.5z" class="st20"/></g><g><path d="M629.8 494.1l16.6-9.2v19.7l-16.6 9.5z" class="st22"/><path d="M629.8 494.1l16.6-9.2-16.1-9.2-16.5 9.4z" class="st23"/><path d="M629.8 494.1l-16-9v20.1l16 8.9z" class="st12"/><path d="M646.4 484.9l-16.4 9.5-.2 19.7-.3-19.8-15.7-9.2 16 9z" class="st17"/></g><g><path d="M640.2 369.8l22.2-12.3v26.2l-22.2 12.7z" class="st11"/><path d="M640.2 369.8l22.2-12.3-21.6-12.3-21.9 12.6z" class="st18"/><path d="M640.2 369.8l-21.3-12v26.8l21.3 11.8z" class="st19"/><path d="M662.4 357.5l-22 12.6-.2 26.3-.3-26.3-21-12.3 21.3 12z" class="st20"/></g><g><path d="M620.3 274.3l24.5-13.6v28.9l-24.5 13.9z" class="st22"/><path d="M620.3 274.3l24.5-13.6-23.7-13.5-24.2 13.8z" class="st23"/><path d="M620.3 274.3L596.9 261v29.5l23.4 13z" class="st12"/><path d="M644.8 260.7l-24.2 13.9-.3 28.9-.3-28.9-23.1-13.6 23.4 13.3z" class="st17"/></g><g><path d="M705.7 349.4L728 337v26.3L705.7 376z" class="st22"/><path d="M705.7 349.4L728 337l-21.6-12.3-22 12.7z" class="st23"/><path d="M705.7 349.4l-21.3-12v26.7l21.3 11.9z" class="st12"/><path d="M728 337l-22 12.7-.3 26.3-.3-26.4-21-12.2 21.3 12z" class="st17"/></g><g><path fill="#f2f2f2" d="M402.6 703.6c-7.9-4-18.8 2.3-23.5 5.7-1.3.9-2.1 2.5-2.1 4.1l3.8 374.5c0 10.9 7.9 26.9 17.6 31.7L922 1384.4c2.5 1.3 5.6 1 8.1-.6 9-6 12.7-9.2 12.7-18.8l-3.9-370.5c0-10.9-7.9-23.8-17.6-28.6L402.6 703.6z" opacity=".9608"/><path fill="#ccc" d="M389.5 702.7c1.8-1.2 4-1.7 6.5-1.4h.2c.4 0 .8.1 1.1.2.2 0 .3.1.5.1.4.1.7.2 1.1.3.1 0 .2.1.3.1.8.3 522.4 263.8 522.4 263.8l.1-.1c.1 0 .1.1.2.1h.1c9.5 4.7 17.2 17.2 17.5 28l3.8 373.6c0 5.8-2.8 10-3.8 10.9-.4.3-.7.6-1.1.9l-8.7 5.5c1.6-1.1 1.3-8.5 1.3-9l-3.7-373.2c-.1-1.2-.2-2.3-.3-3.6-.2-1.6-.6-3.2-1.2-4.8l-.3-.9c-.1-.4-.3-.8-.4-1.2-.2-.6-.5-1.2-.8-1.8 0-.1-.1-.2-.1-.3-.3-.7-.6-1.3-1-1.9-.7-1.3-1.5-2.6-2.4-3.8 0-.1-.1-.1-.1-.2-.4-.5-.8-1.1-1.2-1.6l-1.5-1.8c-.6-.7-1.2-1.3-1.8-1.9-.3-.3-.6-.6-1-.9-.7-.6-1.3-1.2-2.1-1.7-1.2-.9-2.2-1.6-3.7-2.3h.1S390.4 711.6 390 711.4c-4.4-1.8-8.9-2.4-11.6-.6l11.1-8.1z" opacity=".9608"/><path d="M378.8 734.8l548.6 276.5v-3.8L378.6 730.9z" class="st26"/></g><g class="st1"><path fill="#474180" d="M563.6 765.4l3.8 476.8c.1 7 5.2 15.3 11.3 18.4l467.8 235.8c6.1 3.1 11.1-.1 11.1-7.2l-3.8-476.8-490.2-247z"/></g><path d="M478.8 1160.2l-81.2-40.9c-7.1-3.6-17.2-11.3-16.4-38.9l-3.5-350.3L477.8 782l1 378.2z" class="st26"/><path d="M440.4 836.6c0-1.9-1.3-4.1-3-5l-44.7-23.7c-.9-.4-1.7-.5-2.3-.1-.6.4-1 1.2-1 2.1 0 1 .3 2 .9 2.9.5.9 1.3 1.6 2.1 2.1l44.7 23.7c.9.4 1.7.5 2.3.1.6-.4 1-1.2 1-2.1zM440.4 853c0-1.9-1.3-4.1-3-5l-44.7-23.7c-.9-.4-1.7-.5-2.3-.1-.6.4-1 1.2-1 2.1 0 1 .3 2 .9 2.9.5.9 1.3 1.6 2.1 2.1l44.7 23.7c.9.4 1.7.5 2.3.1.6-.4 1-1.1 1-2.1zM440.4 869.8c0-1.9-1.3-4.1-3-5l-44.7-23.7c-.9-.4-1.7-.5-2.3-.1-.6.4-1 1.2-1 2.1 0 1 .3 2 .9 2.9.5.9 1.3 1.6 2.1 2.1l44.7 23.7c.9.4 1.7.5 2.3.1.6-.4 1-1.1 1-2.1zM440.4 886.3c0-1.9-1.3-4.1-3-5l-44.7-23.7c-.9-.4-1.7-.5-2.3-.1-.6.4-1 1.2-1 2.1 0 1 .3 2 .9 2.9.5.9 1.3 1.6 2.1 2.1l44.7 23.7c.9.4 1.7.5 2.3.1.7-.4 1-1.1 1-2.1zM440.5 903.2c0-1.9-1.3-4.1-3-5l-44.7-23.7c-.9-.4-1.7-.5-2.3-.1-.6.4-1 1.2-1 2.1 0 1 .3 2 .9 2.9.5.9 1.3 1.6 2.1 2.1l44.7 23.7c.9.4 1.7.5 2.3.1.6-.4 1-1.2 1-2.1zM440.5 919.7c0-1.9-1.3-4.1-3-5L392.8 891c-.9-.4-1.7-.5-2.3-.1-.6.4-1 1.2-1 2.1 0 1 .3 2 .9 2.9.5.9 1.3 1.6 2.1 2.1l44.7 23.7c.9.4 1.7.5 2.3.1.6-.4 1-1.2 1-2.1zM440.5 936.4c0-1.9-1.3-4.1-3-5l-44.7-23.7c-.9-.4-1.7-.5-2.3-.1-.6.4-1 1.2-1 2.1 0 1 .3 2 .9 2.9.5.9 1.3 1.6 2.1 2.1l44.7 23.7c.9.4 1.7.5 2.3.1.7-.4 1-1.1 1-2.1zM440.5 952.9c0-1.9-1.3-4.1-3-5l-44.7-23.7c-.9-.4-1.7-.5-2.3-.1-.6.4-1 1.2-1 2.1 0 1 .3 2 .9 2.9.5.9 1.3 1.6 2.1 2.1l44.7 23.7c.9.4 1.7.5 2.3.1.6-.4 1-1.1 1-2.1zM440.5 969.2c0-1.9-1.3-4.1-3-5l-44.7-23.7c-.9-.4-1.7-.5-2.3-.1-.6.4-1 1.2-1 2.1 0 1 .3 2 .9 2.9.5.9 1.3 1.6 2.1 2.1l44.7 23.7c.9.4 1.7.5 2.3.1.7-.4 1-1.1 1-2.1zM440.6 986c0-1.9-1.3-4.1-3-5l-44.7-23.7c-.9-.4-1.7-.5-2.3-.1-.6.4-1 1.2-1 2.1 0 1 .3 2 .9 2.9.5.9 1.3 1.6 2.1 2.1l44.7 23.7c.9.4 1.7.5 2.3.1.6-.4 1-1.2 1-2.1zM440.6 1002.4c0-1.9-1.3-4.1-3-5L393 973.7c-.9-.4-1.7-.5-2.3-.1-.6.4-1 1.2-1 2.1 0 1 .3 2 .9 2.9.5.9 1.3 1.6 2.1 2.1l44.7 23.7c.9.4 1.7.5 2.3.1.6-.3.9-1.1.9-2.1zM467.7 815.5c0-1.9-1.3-4.1-3-5l-70.2-37c-.9-.4-1.7-.5-2.3-.1-.6.4-1 1.2-1 2.1 0 1 .3 2 .9 2.9.5.9 1.3 1.6 2.1 2.1l70.2 37c.9.4 1.7.5 2.3.1.7-.4 1-1.1 1-2.1z" class="st28"/><path d="M652.2 1014.8c0-3.5-2.4-7.6-5.5-9.2l-141.1-73c-1.6-.8-3.1-.9-4.2-.1-1.2.7-1.8 2.1-1.8 3.9 0 1.8.6 3.7 1.6 5.4 1 1.6 2.3 3 3.8 3.8l141.1 73c1.6.8 3.1.9 4.2.1 1.3-.7 1.9-2.1 1.9-3.9z" class="st29"/><path d="M567.8 1164.3c0-1.5-1.1-3.3-2.4-4l-53.9-28.3c-.7-.4-1.3-.4-1.9-.1-.5.3-.8.9-.8 1.7 0 .8.3 1.6.7 2.4.4.7 1 1.3 1.7 1.7l53.9 28.3c.7.4 1.3.4 1.8.1.6-.4.9-1 .9-1.8zM567.8 1177.3c0-1.5-1.1-3.3-2.4-4l-53.9-28.3c-.7-.4-1.3-.4-1.9-.1-.5.3-.8.9-.8 1.7 0 .8.3 1.6.7 2.4.4.7 1 1.3 1.7 1.7l53.9 28.3c.7.4 1.3.4 1.8.1.6-.4.9-1 .9-1.8z" class="st30"/><path d="M551.9 1136.8c0-2.6-1.8-5.7-4.1-6.9l-36.5-19.3c-1.2-.6-2.3-.7-3.2-.1-.9.5-1.4 1.6-1.4 2.9 0 1.3.5 2.8 1.2 4 .7 1.2 1.8 2.3 2.9 2.9l36.5 19.3c1.2.6 2.3.7 3.2.1.9-.6 1.4-1.6 1.4-2.9z" class="st29"/><g><path fill="#0ab1f2" d="M558.1 1067.7c-3.9-2.6-7.4-6.5-10.1-10.9-3.2-5.3-5.2-11.4-5.2-17s2-10 5.5-12.2c3.3-2 7.4-2.1 11.8-.1l1.4-33.3c-12.5-6.3-24.3-6.6-33.6-.8-9.4 5.9-14.6 17.4-14.6 32.3 0 14.7 5.3 30.8 13.8 44.8 7.7 12.9 18.2 24 29.7 30.7"/><path fill="#f3a35a" d="M574.2 1068.6c2.4 4 13.4 21.6 21.1 33.8 7.4-5.5 11.8-14.7 12.7-26.4l-29.6-15.2c-.6 3.4-2 6-4.2 7.8z"/><path fill="#f75439" d="M578.7 1057.1v1.3l29.4 15.1v-2.1c0-12.5-3.9-26.1-10.2-38.5-8.1-15.9-20.4-29.9-34.2-37.6l-1.4 33.3c9.1 5.3 16.4 17.9 16.4 28.5z"/><path fill="#031cff" d="M558.8 1102.2c12.8 6.9 25.1 7.4 34.6 1.5-1.3-2-6-9.5-10.7-17-4.9-7.8-7.6-12.2-9.2-14.8-.5-.9-.9-1.5-1.2-2.1-3.5 1.7-7.8 1.4-12.3-1l-1.2 33.4z"/></g><g><path fill="#4367c7" d="M677.8 1021.3c-5.2-2.7-9.5 0-9.5 6l-.6 194.9c0 6 4.2 13.1 9.5 15.8l227.6 118c5.2 2.7 9.5 0 9.5-6l.6-194.9c0-6-4.2-13.1-9.5-15.8l-227.6-118z"/><path d="M886.1 1203.6c1.4.7 2.5 0 2.5-1.6s-1.1-3.4-2.5-4.1l-195-101c-1.4-.7-2.5 0-2.5 1.6s1.1 3.4 2.5 4.1l195 101z" class="st36"/><path d="M835.9 1268.3c1.4.7 2.5 0 2.5-1.6s-1.1-3.4-2.5-4.1l-54.8-28.4c-1.4-.7-2.5 0-2.5 1.6s1.1 3.4 2.5 4.1l54.8 28.4zM771.5 1234.9c1.4.7 2.5 0 2.5-1.6s-1.1-3.4-2.5-4.1l-49.1-25.5c-1.4-.7-2.5 0-2.5 1.6s1.1 3.4 2.5 4.1l49.1 25.5z" class="st37"/><path d="M713.3 1204.8c1.4.7 2.5 0 2.5-1.6s-1.1-3.4-2.5-4.1l-22.4-11.6c-1.4-.7-2.5 0-2.5 1.6s1.1 3.4 2.5 4.1l22.4 11.6z" class="st38"/><path d="M885.9 1294.2c1.1.6 2 0 2-1.3v-1.1c0-1.3-.9-2.8-2-3.3l-40.1-20.8c-1.1-.6-2 0-2 1.3v1.1c0 1.3.9 2.8 2 3.3l40.1 20.8zM835.9 1192.8c1.4.7 2.5 0 2.5-1.6s-1.1-3.4-2.5-4.1l-54.8-28.4c-1.4-.7-2.5 0-2.5 1.6s1.1 3.4 2.5 4.1l54.8 28.4zM771.5 1159.4c1.4.7 2.5 0 2.5-1.6s-1.1-3.4-2.5-4.1l-49.1-25.5c-1.4-.7-2.5 0-2.5 1.6s1.1 3.4 2.5 4.1l49.1 25.5z" class="st37"/><path d="M713.3 1129.3c1.4.7 2.5 0 2.5-1.6s-1.1-3.4-2.5-4.1l-22.4-11.6c-1.4-.7-2.5 0-2.5 1.6s1.1 3.4 2.5 4.1l22.4 11.6z" class="st38"/><path d="M885.9 1218.7c1.1.6 2 0 2-1.3v-1.1c0-1.3-.9-2.8-2-3.3l-40.1-20.8c-1.1-.6-2 0-2 1.3v1.1c0 1.3.9 2.8 2 3.3l40.1 20.8zM835.9 1205.2c1.4.7 2.5 0 2.5-1.6s-1.1-3.4-2.5-4.1l-54.8-28.4c-1.4-.7-2.5 0-2.5 1.6s1.1 3.4 2.5 4.1l54.8 28.4zM771.5 1171.8c1.4.7 2.5 0 2.5-1.6s-1.1-3.4-2.5-4.1l-49.1-25.5c-1.4-.7-2.5 0-2.5 1.6s1.1 3.4 2.5 4.1l49.1 25.5z" class="st37"/><path d="M713.3 1141.6c1.4.7 2.5 0 2.5-1.6s-1.1-3.4-2.5-4.1l-22.4-11.6c-1.4-.7-2.5 0-2.5 1.6s1.1 3.4 2.5 4.1l22.4 11.6z" class="st9"/><path d="M885.9 1231.1c1.1.6 2 0 2-1.3v-1.1c0-1.3-.9-2.8-2-3.3l-40.1-20.8c-1.1-.6-2 0-2 1.3v1.1c0 1.3.9 2.8 2 3.3l40.1 20.8z" class="st37"/><g><path d="M835.9 1217.5c1.4.7 2.5 0 2.5-1.6s-1.1-3.4-2.5-4.1l-54.8-28.4c-1.4-.7-2.5 0-2.5 1.6s1.1 3.4 2.5 4.1l54.8 28.4zM771.5 1184.1c1.4.7 2.5 0 2.5-1.6s-1.1-3.4-2.5-4.1l-49.1-25.5c-1.4-.7-2.5 0-2.5 1.6s1.1 3.4 2.5 4.1l49.1 25.5z" class="st37"/><path d="M713.3 1154c1.4.7 2.5 0 2.5-1.6s-1.1-3.4-2.5-4.1l-22.4-11.6c-1.4-.7-2.5 0-2.5 1.6s1.1 3.4 2.5 4.1l22.4 11.6z" class="st38"/><path d="M885.9 1243.4c1.1.6 2 0 2-1.3v-1.1c0-1.3-.9-2.8-2-3.3l-40.1-20.8c-1.1-.6-2 0-2 1.3v1.1c0 1.3.9 2.8 2 3.3l40.1 20.8z" class="st37"/></g><g><path d="M835.9 1229.9c1.4.7 2.5 0 2.5-1.6s-1.1-3.4-2.5-4.1l-54.8-28.4c-1.4-.7-2.5 0-2.5 1.6s1.1 3.4 2.5 4.1l54.8 28.4zM771.5 1196.5c1.4.7 2.5 0 2.5-1.6s-1.1-3.4-2.5-4.1l-49.1-25.5c-1.4-.7-2.5 0-2.5 1.6s1.1 3.4 2.5 4.1l49.1 25.5z" class="st37"/><path d="M713.3 1166.3c1.4.7 2.5 0 2.5-1.6s-1.1-3.4-2.5-4.1l-22.4-11.6c-1.4-.7-2.5 0-2.5 1.6s1.1 3.4 2.5 4.1l22.4 11.6z" class="st38"/><path d="M885.9 1255.8c1.1.6 2 0 2-1.3v-1.1c0-1.3-.9-2.8-2-3.3l-40.1-20.8c-1.1-.6-2 0-2 1.3v1.1c0 1.3.9 2.8 2 3.3l40.1 20.8z" class="st37"/></g><g><path d="M886.1 1279.1c1.4.7 2.5 0 2.5-1.6s-1.1-3.4-2.5-4.1l-195-101c-1.4-.7-2.5 0-2.5 1.6s1.1 3.4 2.5 4.1l195 101z" class="st36"/></g><g><path d="M835.9 1279.7c1.4.7 2.5 0 2.5-1.6s-1.1-3.4-2.5-4.1l-54.8-28.4c-1.4-.7-2.5 0-2.5 1.6s1.1 3.4 2.5 4.1l54.8 28.4zM771.5 1246.3c1.4.7 2.5 0 2.5-1.6s-1.1-3.4-2.5-4.1l-49.1-25.5c-1.4-.7-2.5 0-2.5 1.6s1.1 3.4 2.5 4.1l49.1 25.5z" class="st37"/><path d="M713.3 1216.2c1.4.7 2.5 0 2.5-1.6s-1.1-3.4-2.5-4.1l-22.4-11.6c-1.4-.7-2.5 0-2.5 1.6s1.1 3.4 2.5 4.1l22.4 11.6z" class="st9"/><path d="M885.9 1305.6c1.1.6 2 0 2-1.3v-1.1c0-1.3-.9-2.8-2-3.3l-40.1-20.8c-1.1-.6-2 0-2 1.3v1.1c0 1.3.9 2.8 2 3.3l40.1 20.8z" class="st37"/></g><g><path d="M835.9 1291.1c1.4.7 2.5 0 2.5-1.6s-1.1-3.4-2.5-4.1l-54.8-28.4c-1.4-.7-2.5 0-2.5 1.6s1.1 3.4 2.5 4.1l54.8 28.4zM771.5 1257.7c1.4.7 2.5 0 2.5-1.6s-1.1-3.4-2.5-4.1l-49.1-25.5c-1.4-.7-2.5 0-2.5 1.6s1.1 3.4 2.5 4.1l49.1 25.5z" class="st37"/><path d="M713.3 1227.6c1.4.7 2.5 0 2.5-1.6s-1.1-3.4-2.5-4.1l-22.4-11.6c-1.4-.7-2.5 0-2.5 1.6s1.1 3.4 2.5 4.1l22.4 11.6z" class="st8"/><path d="M885.9 1317c1.1.6 2 0 2-1.3v-1.1c0-1.3-.9-2.8-2-3.3l-40.1-20.8c-1.1-.6-2 0-2 1.3v1.1c0 1.3.9 2.8 2 3.3l40.1 20.8z" class="st37"/></g><g><path d="M835.9 1302.5c1.4.7 2.5 0 2.5-1.6s-1.1-3.4-2.5-4.1l-54.8-28.4c-1.4-.7-2.5 0-2.5 1.6s1.1 3.4 2.5 4.1l54.8 28.4zM771.5 1269.1c1.4.7 2.5 0 2.5-1.6s-1.1-3.4-2.5-4.1l-49.1-25.5c-1.4-.7-2.5 0-2.5 1.6s1.1 3.4 2.5 4.1l49.1 25.5z" class="st37"/><path d="M713.3 1238.9c1.4.7 2.5 0 2.5-1.6s-1.1-3.4-2.5-4.1l-22.4-11.6c-1.4-.7-2.5 0-2.5 1.6s1.1 3.4 2.5 4.1l22.4 11.6z" class="st8"/><path d="M885.9 1328.4c1.1.6 2 0 2-1.3v-1.1c0-1.3-.9-2.8-2-3.3l-40.1-20.8c-1.1-.6-2 0-2 1.3v1.1c0 1.3.9 2.8 2 3.3l40.1 20.8z" class="st37"/></g><g><path d="M835.9 1151.6c1.4.7 2.5 0 2.5-1.6s-1.1-3.4-2.5-4.1l-54.8-28.4c-1.4-.7-2.5 0-2.5 1.6s1.1 3.4 2.5 4.1l54.8 28.4zM771.5 1118.2c1.4.7 2.5 0 2.5-1.6s-1.1-3.4-2.5-4.1l-49.1-25.5c-1.4-.7-2.5 0-2.5 1.6s1.1 3.4 2.5 4.1l49.1 25.5z" class="st39"/><path d="M713.3 1088.1c1.4.7 2.5 0 2.5-1.6s-1.1-3.4-2.5-4.1l-22.4-11.6c-1.4-.7-2.5 0-2.5 1.6s1.1 3.4 2.5 4.1l22.4 11.6z" class="st38"/><path d="M885.9 1177.5c1.1.6 2 0 2-1.3v-1.1c0-1.3-.9-2.8-2-3.3l-40.1-20.8c-1.1-.6-2 0-2 1.3v1.1c0 1.3.9 2.8 2 3.3l40.1 20.8z" class="st39"/></g><g><path d="M886.1 1161.8c1.4.7 2.5 0 2.5-1.6s-1.1-3.4-2.5-4.1l-195-101c-1.4-.7-2.5 0-2.5 1.6s1.1 3.4 2.5 4.1l195 101z" class="st36"/></g></g><g><path fill="#98f766" d="M862.3 1006.5c-5.8-3-11.3-4.1-16-3.6l3 6.9c3.9-.4 8.3.6 13 3 15.4 8 27.8 28.7 27.7 46.4 0 10.3-4.3 17.2-10.8 19.7l3 6.9c8.1-2.8 13.3-11.2 13.3-23.7 0-21.2-14.8-46-33.2-55.6z"/><path fill="#13a028" d="M842.2 1003.9c-8.1 2.8-13.3 11.2-13.3 23.7-.1 21.1 14.8 46 33.2 55.5 5.8 3 11.3 4.1 16.1 3.6l-3-6.9c-3.9.4-8.3-.6-13.1-3-15.4-8-27.8-28.7-27.7-46.4 0-10.3 4.3-17.2 10.8-19.7l-3-6.8z"/></g><g><path fill="#66f0f7" d="M678.6 953.6c-1.3 15.7-13.2 22.4-27.8 14.8-8.7-4.5-16.4-13-21.5-22.8l-4.6 1.2c6.1 11.9 15.5 22.4 26 27.9 17.6 9.1 32 .9 33.3-18.3l-5.4-2.8z"/><path fill="#c644c0" d="M651 898.2c-18.4-9.5-33.4-.1-33.4 21 0 7 1.6 14.5 4.5 21.7l4.6-1.2c-2.3-5.8-3.6-11.9-3.6-17.6.1-17.7 12.5-25.5 27.9-17.5 14.6 7.5 26.5 26.6 27.6 43.6l5.5 2.9c-1.1-20.7-15.5-43.8-33.1-52.9z"/></g><g><path fill="#f7aa66" d="M555 877.2l-.1 46.6 7.3 3.8.2-46.6z"/><path fill="#2da9fc" d="M542.5 841l-.2 76.3 6.9 3.6.2-76.4z"/><path fill="#c6dd3c" d="M527.1 843.6l-.2 65.7 8.1 4.2.2-65.6z"/><path fill="#4444c6" d="M568.7 902.7v28.1l7.3 3.8.1-28.1z"/><path fill="#66f7c7" d="M513.5 855.8l-.2 46.6 7.4 3.8.1-46.6z"/></g><g><path fill="#3c89dd" d="M724.8 976.1c1.2 20.5 15.5 43.6 33.1 52.7 17.6 9.1 32 .9 33.3-18.3l-5.5-2.9c-1.3 15.7-13.2 22.4-27.8 14.8-14.6-7.5-26.5-26.6-27.6-43.6l-5.5-2.7z"/><path d="M758.2 952.3c-17.6-9.1-32-.9-33.3 18.3l5.5 2.9c1.3-15.7 13.2-22.4 27.8-14.8 14.6 7.5 26.5 26.6 27.6 43.6l5.5 2.9c-1.2-20.7-15.6-43.8-33.1-52.9z" class="st9"/></g><g><path d="M499.1 248.7l24.4-13.6V264l-24.4 13.9z" class="st15"/><path d="M499.1 248.7l24.4-13.6-23.7-13.5-24.2 13.8z" class="st16"/><path d="M499.1 248.7l-23.5-13.3v29.5l23.5 13z" class="st10"/><path d="M523.5 235.1L499.4 249l-.3 28.9-.3-29-23.2-13.5 23.5 13.3z" class="st17"/></g><g><path d="M749.3 259.7l22.2-12.3v26.2l-22.2 12.7z" class="st11"/><path d="M749.3 259.7l22.2-12.3-21.5-12.3-22 12.6z" class="st18"/><path d="M749.3 259.7l-21.3-12v26.8l21.3 11.8z" class="st19"/><path d="M771.5 247.4l-22 12.6-.2 26.3-.3-26.3-21-12.3 21.3 12z" class="st20"/></g><g><path d="M568.3 355.8l19.4-10.8v23l-19.4 11.1z" class="st15"/><path d="M568.3 355.8l19.4-10.8-18.8-10.7-19.3 11z" class="st16"/><path d="M568.3 355.8l-18.7-10.5v23.4l18.7 10.4z" class="st10"/><path d="M587.7 345l-19.2 11.1-.2 23-.3-23.1-18.4-10.7 18.7 10.5z" class="st17"/></g></svg>