<svg xmlns="http://www.w3.org/2000/svg" id="Layer_1" viewBox="0 0 300 300"><style>.st3{fill:#394d54}</style><path fill="#fff" stroke="#fff" stroke-miterlimit="10" stroke-width="5" d="M211.7 54.6c-.9-2.7-2.9-4.9-5.5-6.3l-52-24.9c-1.4-.7-2.9-.9-4.3-.9s-2.9 0-4.3.3l-52 25c-2.6 1.2-4.4 3.4-5.1 6.3l-12.8 56c-.5 2.9.2 5.8 1.9 8.2l35.9 44.5c2 2 4.9 3.4 7.8 3.6h57.2c3.1.3 6-1 7.8-3.6l35.9-44.5c1.7-2.4 2.4-5.3 2-8.2l-12.5-55.5z"/><path fill="#326de6" d="M211.7 54.6c-.9-2.7-2.9-4.9-5.5-6.3l-52-24.9c-1.4-.7-2.9-.9-4.3-.9s-2.9 0-4.3.3l-52 25c-2.6 1.2-4.4 3.4-5.1 6.3l-12.8 56c-.5 2.9.2 5.8 1.9 8.2l35.9 44.5c2 2 4.9 3.4 7.8 3.6h57.2c3.1.3 6-1 7.8-3.6l35.9-44.5c1.7-2.4 2.4-5.3 2-8.2l-12.5-55.5z"/><path fill="#fff" d="M203.6 108.1c-.2 0-.3 0-.3-.2s-.3-.2-.7-.2c-.7-.2-1.4-.2-2-.2-.3 0-.7 0-1-.2h-.2c-1.9-.2-3.9-.5-5.8-1-.5-.2-1-.7-1.2-1.2.2 0 0 0 0 0l-1.4-.3c.7-4.9.3-10.1-.7-15-1.2-4.9-3.2-9.7-6-14l1-1v-.2c0-.5.2-1.2.5-1.5 1.5-1.4 3.1-2.4 4.8-3.4.3-.2.7-.3 1-.5.7-.3 1.2-.7 1.9-1 .2-.2.3-.2.5-.3.2-.2 0-.2 0-.3 1.5-1.2 1.9-3.2.7-4.8-.5-.7-1.5-1.2-2.4-1.2s-1.7.3-2.4.9l-.2.2c-.2.2-.3.3-.5.3-.5.5-1 1-1.4 1.5-.2.3-.5.5-.7.7-1.2 1.4-2.7 2.7-4.3 3.7-.3.2-.7.3-1 .3-.2 0-.5 0-.7-.2h-.2l-1.4.9c-1.4-1.4-2.9-2.7-4.3-4.1-6.3-4.9-14.1-8-22.1-8.9l-.2-1.4v.2c-.5-.3-.7-.9-.9-1.4 0-1.9 0-3.7.3-5.8v-.2c0-.3.2-.7.2-1 .2-.7.2-1.4.3-2v-1c.2-1.7-1.2-3.4-2.9-3.6-1-.2-2 .3-2.9 1.2-.7.7-1 1.5-1 2.4v.9c0 .7.2 1.4.3 2 .2.3.2.7.2 1v.2c.3 1.9.3 3.7.3 5.8-.2.5-.3 1-.9 1.4v.4l-.2 1.4c-1.9.2-3.7.5-5.8.9-8 1.7-15.3 6-21 11.9l-1-.7h-.2c-.2 0-.3.2-.7.2s-.7-.2-1-.3c-1.5-1.2-3.1-2.6-4.3-3.9-.2-.3-.5-.5-.7-.7-.5-.5-.9-1-1.4-1.5-.2-.2-.3-.2-.5-.3s-.2-.2-.2-.2c-.7-.5-1.5-.9-2.4-.9-1 0-1.9.3-2.4 1.2-1 1.5-.7 3.6.7 4.8.2 0 .2.2.2.2s.3.3.5.3c.5.3 1.2.7 1.9 1 .3.2.7.3 1 .5 1.7 1 3.4 2 4.8 3.4.3.3.7 1 .5 1.5v-.2l1 1c-.2.3-.3.5-.5.9-5.3 8.3-7.5 18.2-6 27.9l-1.4.3c0 .2-.2.2-.2.2-.2.5-.7.9-1.2 1.2-1.9.5-3.7.9-5.8 1-.3 0-.7 0-1 .2-.7 0-1.4.2-2 .2-.2 0-.3.2-.7.2-.2 0-.2 0-.3.2-1.9.3-3.1 2-2.7 3.9.3 1.5 1.9 2.6 3.4 2.4.3 0 .5 0 .9-.2.2 0 .2 0 .2-.2s.5 0 .7 0c.7-.2 1.4-.5 1.9-.7.3-.2.7-.3 1-.3h.2c1.9-.7 3.6-1.2 5.6-1.5h.2c.5 0 1 .2 1.4.5.2 0 .2.2.2.2l1.5-.2c2.6 7.8 7.3 14.8 14 19.9 1.5 1.2 2.9 2.2 4.6 3.1l-.9 1.2c0 .2.2.2.2.2.3.5.3 1.2.2 1.7-.7 1.7-1.7 3.4-2.7 4.9v.2c-.2.3-.3.5-.7.9s-.7 1-1.2 1.7c-.2.2-.2.3-.3.5 0 0 0 .2-.2.2-.9 1.7-.2 3.7 1.4 4.6.3.2.9.3 1.2.3 1.4 0 2.6-.9 3.2-2 0 0 0-.2.2-.2 0-.2.2-.3.3-.5.2-.7.5-1.2.7-1.9l.3-1c.5-1.9 1.4-3.6 2.2-5.3.3-.5.9-.9 1.4-1 .2 0 .2 0 .2-.2l.7-1.4c4.8 1.9 9.7 2.7 14.8 2.7 3.1 0 6.1-.3 9.2-1.2 1.9-.3 3.7-1 5.5-1.5l.7 1.2c.2 0 .2 0 .2.2.5.2 1 .5 1.4 1 .9 1.7 1.7 3.4 2.2 5.3v.2l.3 1c.2.7.3 1.4.7 1.9.2.2.2.3.3.5 0 0 0 .2.2.2.7 1.2 1.9 2 3.2 2 .5 0 .9-.2 1.4-.3.7-.3 1.4-1 1.5-1.9.2-.9.2-1.7-.2-2.6 0-.2-.2-.2-.2-.2 0-.2-.2-.3-.3-.5-.3-.7-.7-1.2-1.2-1.7-.2-.3-.3-.5-.7-.9v-.3c-1.2-1.5-2-3.2-2.7-4.9-.2-.5-.2-1.2.2-1.7 0-.2.2-.2.2-.2l-.5-1.4c8.7-5.3 15.3-13.5 18.4-23.2l1.4.2c.2 0 .2-.2.2-.2.3-.3.9-.5 1.4-.5h.2c1.9.3 3.7.9 5.5 1.5h.2c.3.2.7.3 1 .3.7.3 1.2.7 1.9.9.2 0 .3.2.7.2.2 0 .2 0 .3.2.3.2.5.2.9.2 1.5 0 2.9-1 3.4-2.4-.1-2-1.4-3.4-3-3.7zm-49.2-5.3l-4.6 2.2-4.6-2.2-1.2-4.9 3.2-4.1h5.1l3.2 4.1-1.1 4.9zm27.8-11c.9 3.6 1 7.2.7 10.7l-16.2-4.6c-1.5-.3-2.4-1.9-2-3.4.2-.5.3-.9.7-1.2l12.8-11.6c1.8 3.1 3.1 6.5 4 10.1zM173 75.4l-14 9.9c-1.2.7-2.9.5-3.7-.7-.3-.3-.5-.7-.5-1.2l-1-17.2c7.4.9 14.1 4.1 19.2 9.2zm-30.9-8.7l3.4-.7-.9 17c0 1.5-1.4 2.7-2.9 2.7-.5 0-.9-.2-1.4-.3l-14.1-10.1c4.5-4.2 10-7.2 15.9-8.6zm-20.7 15L134 92.9c1.2 1 1.4 2.7.3 3.9-.3.5-.7.7-1.4.9l-16.5 4.8c-.5-7.2 1.2-14.5 5-20.8zm-2.9 28.8l16.9-2.9c1.4 0 2.7.9 2.9 2.2.2.5.2 1.2-.2 1.7l-6.5 15.7c-6-3.9-10.7-9.9-13.1-16.7zm38.6 21.1c-2.4.5-4.8.9-7.3.9-3.6 0-7.3-.7-10.7-1.7l8.3-15.2c.9-1 2.2-1.4 3.4-.7.5.3.9.7 1.4 1.2l8.2 14.8c-1 .2-2.1.4-3.3.7zm20.8-14.8c-2.6 4.1-6.1 7.7-10.2 10.2l-6.6-16c-.3-1.4.3-2.7 1.5-3.2.5-.2 1-.3 1.5-.3l17 2.9c-.8 2.3-1.8 4.5-3.2 6.4z"/><g id="layer1"><g id="text4373"><path id="path2985" d="M9.3 246.8c.8-.9 1.6-1.9 2.5-2.8.8-1 1.7-1.9 2.5-2.9s1.6-1.9 2.3-2.7c.7-.8 1.4-1.6 1.9-2.2h9.9c-2 2.2-3.9 4.5-5.8 6.6-1.9 2.1-3.9 4.2-6.2 6.4 1.2 1.2 2.4 2.3 3.5 3.6 1.2 1.4 2.3 2.8 3.5 4.3 1.1 1.5 2.2 3 3.1 4.5.9 1.5 1.7 2.9 2.3 4.1h-9.6c-.6-1-1.3-2-2.1-3.2-.8-1.2-1.6-2.3-2.4-3.6-.8-1.2-1.8-2.3-2.8-3.4-.8-1-1.8-1.9-2.8-2.7v12.9H1v-42.3l8.3-1.3v24.7" class="st3"/><path id="path2987" d="M58 264.6c-1.8.5-3.6.8-5.5 1.1-2.3.4-4.7.5-7 .5-2.2.1-4.2-.3-6.3-1-1.5-.6-2.9-1.5-3.9-2.8-1-1.3-1.7-2.8-2.1-4.4-.5-1.8-.6-3.7-.6-5.6v-16.3h8.3v15.4c0 2.7.4 4.6 1.1 5.8.7 1.2 2 1.8 3.9 1.8.6 0 1.2 0 1.9-.1s1.2-.1 1.8-.2v-22.6H58v28.4" class="st3"/><path id="path2989" d="M84.7 250.7c0-5.4-2-8-5.9-8-.8 0-1.7.1-2.5.3-.7.2-1.4.5-2 .8V259c.4.1.9.2 1.5.2s1.3.1 2.1.1c2 .2 3.9-.7 5.2-2.3 1.1-1.9 1.7-4.1 1.6-6.3m8.5.3c0 2.2-.3 4.3-1.1 6.4-.6 1.9-1.6 3.5-2.9 4.9-1.4 1.4-3 2.5-4.8 3.2-2.1.8-4.2 1.1-6.5 1.1-1 0-2.1-.1-3.2-.2s-2.2-.2-3.2-.3c-1-.2-2-.3-3-.5s-1.9-.4-2.5-.7v-41.3l8.3-1.3V237c.9-.4 1.9-.7 2.9-.9 1.1-.2 2.2-.3 3.2-.3 1.9 0 3.8.3 5.6 1.2 1.5.7 2.9 1.8 4 3.1 1.2 1.5 2 3.1 2.5 4.9.5 1.7.7 3.8.7 6" class="st3"/><path id="path2991" d="M98.2 251.2c-.1-2.3.4-4.6 1.2-6.8.7-1.9 1.8-3.5 3.2-4.9 1.3-1.3 2.8-2.3 4.5-2.9 1.7-.7 3.5-1 5.3-1 4.2 0 7.5 1.3 9.9 3.9 2.4 2.5 3.6 6.3 3.6 11.2 0 .5 0 1-.1 1.6-.1.6-.1 1.1-.1 1.5h-18.9c.2 1.6 1 3.2 2.4 4.1 1.7 1.1 3.7 1.6 5.7 1.5 1.5 0 3-.2 4.5-.4 1.2-.2 2.5-.6 3.6-1.1l1.2 6.8c-.5.3-1.2.5-1.8.7-.8.2-1.7.5-2.5.5-.9.2-1.9.3-2.9.5-1 .1-2.1.2-3.2.2-2.4.1-4.7-.3-7-1.2-1.9-.7-3.5-1.8-4.9-3.2-1.3-1.4-2.2-3.1-2.9-4.9-.4-2.1-.8-4.1-.8-6.1m19.7-3.2c0-.7-.2-1.4-.4-2.1-.2-.7-.5-1.2-.9-1.8-.5-.5-1-1-1.6-1.3-.8-.4-1.5-.5-2.4-.5s-1.6.2-2.4.5c-.6.3-1.2.7-1.7 1.2s-.8 1.2-1.1 1.9c-.2.7-.4 1.4-.5 2.1h11" class="st3"/><path id="path2993" d="M150.1 243.6c-.8-.2-1.6-.4-2.6-.5-1.1-.2-2.2-.3-3.2-.3-.6 0-1.2.1-1.9.2-.5.1-1.1.2-1.6.3v22.5h-8.3v-28c1.7-.6 3.5-1.1 5.3-1.5 2.2-.5 4.6-.8 6.8-.7.5 0 1.1.1 1.6.1.6 0 1.2.1 1.9.2.6.1 1.2.2 1.9.3.5.1 1.1.2 1.6.5l-1.5 6.9" class="st3"/><path id="path2995" d="M155.9 237.2c1.8-.5 3.6-.8 5.5-1.2 2.3-.4 4.7-.5 7-.5 2.1-.1 4.2.3 6.2 1 1.5.5 2.9 1.5 3.9 2.7 1 1.2 1.7 2.7 2.1 4.2.5 1.8.6 3.6.6 5.5v16.6H173V250c0-2.7-.4-4.6-1.1-5.7-.7-1.1-2-1.7-3.9-1.7-.6 0-1.2 0-1.9.1-.7 0-1.2.1-1.8.2v22.7H156l-.1-28.4" class="st3"/><path id="path2997" d="M187.6 251.2c-.1-2.3.4-4.6 1.2-6.8.7-1.9 1.8-3.5 3.2-4.9 1.3-1.3 2.8-2.3 4.5-2.9 1.7-.7 3.5-1 5.3-1 4.2 0 7.5 1.3 9.9 3.9s3.6 6.3 3.6 11.3c0 .5 0 1-.1 1.6-.1.6-.1 1.1-.1 1.5h-18.9c.2 1.6 1 3.2 2.4 4.1 1.7 1.1 3.7 1.6 5.7 1.5 1.5 0 3-.2 4.5-.4 1.2-.2 2.5-.6 3.7-1.2l1.2 6.8c-.5.3-1.2.5-1.8.7-.8.2-1.7.5-2.5.5-.9.2-1.9.3-2.9.5-1 .1-2.1.2-3.2.2-2.4.1-4.7-.3-7-1.2-1.9-.7-3.5-1.8-4.9-3.2-1.3-1.4-2.2-3.1-2.9-4.9-.7-2.1-1-4.1-.9-6.1m19.6-3.2c0-.7-.2-1.4-.4-2.1-.2-.7-.5-1.2-.9-1.8-.5-.5-1-1-1.6-1.3-.8-.4-1.5-.5-2.4-.5-.8 0-1.6.2-2.4.5-.6.3-1.2.7-1.6 1.2s-.8 1.2-1.1 1.9c-.2.7-.4 1.4-.5 2.1h10.9" class="st3"/><path id="path2999" d="M221.4 228.8l8.3-1.3v8.7h10v7h-10v10.3c-.1 1.5.2 2.9.9 4.2.6 1 1.9 1.5 3.8 1.5.9 0 1.9-.1 2.7-.2.9-.2 1.8-.4 2.6-.7l1.2 6.5c-1.1.5-2.2.8-3.4 1.1-1.5.3-3 .5-4.6.5-1.9.1-3.9-.2-5.6-.9-1.4-.5-2.6-1.5-3.6-2.5-.9-1.2-1.5-2.5-1.9-4-.4-1.7-.5-3.5-.5-5.2v-25" class="st3"/><path id="path3001" d="M244 251.2c-.1-2.3.4-4.6 1.2-6.8.7-1.9 1.8-3.5 3.2-4.9 1.3-1.3 2.8-2.3 4.5-2.9 1.7-.7 3.5-1 5.3-1 4.2 0 7.5 1.3 9.9 3.9s3.6 6.3 3.6 11.3c0 .5 0 1-.1 1.6 0 .6-.1 1.1-.1 1.5h-18.8c.2 1.6 1 3.2 2.4 4.1 1.7 1.1 3.7 1.6 5.7 1.5 1.5 0 3-.2 4.5-.4 1.2-.2 2.5-.6 3.6-1.2l1.2 6.8c-.5.3-1.2.5-1.8.7-.8.2-1.7.5-2.5.5-.9.2-1.9.3-2.9.5-1 .1-2.1.2-3.2.2-2.4.1-4.7-.3-7-1.2-1.9-.7-3.5-1.8-4.9-3.2-1.3-1.4-2.2-3.1-2.9-4.9-.6-2.1-.9-4.1-.9-6.1m19.5-3.2c0-.7-.2-1.4-.4-2.1-.2-.7-.5-1.2-.9-1.8-.5-.5-1-1-1.6-1.3-.8-.4-1.5-.5-2.4-.5-.8 0-1.6.2-2.4.5-.6.3-1.2.7-1.7 1.2s-.8 1.2-1.1 1.9-.4 1.4-.5 2.1h11" class="st3"/><path id="path3003" d="M286.6 259.7c1.1.1 2.2-.1 3.2-.5.6-.3 1-1 .9-1.7-.1-.8-.5-1.5-1.2-1.7-1.2-.7-2.5-1.3-3.8-1.7-1.3-.5-2.5-1-3.6-1.5-1-.5-1.9-1.1-2.7-1.9-.8-.8-1.3-1.6-1.7-2.6-.5-1.2-.6-2.4-.6-3.6-.1-2.5 1.1-5 3.1-6.6 2.1-1.6 4.9-2.4 8.4-2.4 1.7 0 3.5.2 5.2.5 1.3.2 2.6.5 3.9 1l-1.5 6.6c-1.1-.4-2.1-.6-3.2-.9-1.2-.3-2.5-.4-3.8-.4-2.6 0-3.9.7-3.9 2.2 0 .3.1.6.2.9.2.3.4.5.7.8.3.2.8.5 1.3.8s1.3.6 2.2.9c1.5.5 3.1 1.2 4.5 2 1.1.5 2 1.2 2.8 2.2.7.7 1.2 1.5 1.5 2.5.3 1.1.5 2.2.5 3.2.2 2.6-1.1 5.2-3.3 6.6-2.2 1.5-5.3 2.2-9.3 2.2-2.2.1-4.4-.2-6.6-.7-1.2-.3-2.4-.7-3.6-1.1l1.4-6.8c1.4.5 2.9 1 4.3 1.3 1.6.2 3.1.4 4.7.4" class="st3"/></g></g></svg>