<svg xmlns="http://www.w3.org/2000/svg" id="Layer_1" viewBox="0 0 480 480"><style>.st1{fill:#defcee}.st2{fill:#13d389}</style><circle cx="242" cy="242.5" r="230" fill="none" stroke="#13d389" stroke-miterlimit="10" stroke-width="10"/><g id="surface1"><path d="M137.8 246.8c-23 0-41.7-18.5-41.7-41.2 0-18.7 27.3-70.9 41.6-96.2 14.3 25.5 41.7 78.2 41.7 96.2.1 22.7-18.6 41.2-41.6 41.2z" class="st1"/><path d="M137.8 117.9c16.8 30.6 37.5 73.2 37.5 87.7 0 20.4-16.8 37-37.5 37s-37.5-16.6-37.5-37c0-15.1 20.7-57.4 37.5-87.7m0-16.9S92 179.5 92 205.6c0 25.1 20.5 45.4 45.8 45.4s45.8-20.3 45.8-45.4S137.8 101 137.8 101z" class="st2"/><path d="M237.8 396.8c-23 0-41.7-18.5-41.7-41.2 0-18.7 27.3-70.9 41.6-96.2 14.3 25.5 41.7 78.2 41.7 96.2.1 22.7-18.6 41.2-41.6 41.2z" class="st1"/><path d="M237.8 267.9c16.8 30.6 37.5 73.2 37.5 87.7 0 20.4-16.8 37-37.5 37s-37.5-16.6-37.5-37c0-15.1 20.7-57.4 37.5-87.7m0-16.9S192 329.5 192 355.6c0 25.1 20.5 45.4 45.8 45.4s45.8-20.3 45.8-45.4c.1-25.1-45.8-104.6-45.8-104.6z" class="st2"/><path d="M346.2 271.8c-23 0-41.7-18.5-41.7-41.2 0-18.7 27.3-70.9 41.6-96.2 14.3 25.5 41.7 78.2 41.7 96.2 0 22.7-18.7 41.2-41.6 41.2z" class="st1"/><path d="M346.1 142.9c16.8 30.6 37.5 73.2 37.5 87.7 0 20.4-16.8 37-37.5 37s-37.5-16.6-37.5-37c.1-15.1 20.8-57.4 37.5-87.7m.1-16.9s-45.8 78.5-45.8 104.6c0 25.1 20.5 45.4 45.8 45.4 25.3 0 45.8-20.3 45.8-45.4S346.2 126 346.2 126z" class="st2"/></g></svg>