<svg xmlns="http://www.w3.org/2000/svg" id="Layer_1" viewBox="0 0 480 480"><style>.st2{fill:#788b9c}.st4{fill:#c74343}</style><circle cx="242" cy="242.5" r="230" fill="none" stroke="#c74343" stroke-miterlimit="10" stroke-width="10"/><path fill="#e1ebf2" d="M240 257.5c-19.6 0-35.5-15.9-35.5-35.5v-92.5c0-19.6 15.9-35.5 35.5-35.5s35.5 15.9 35.5 35.5V222c0 19.5-15.9 35.5-35.5 35.5z"/><path d="M240 97.9c17.4 0 31.6 14.2 31.6 31.6V222c0 17.4-14.2 31.6-31.6 31.6s-31.6-14.2-31.6-31.6v-92.5c0-17.4 14.2-31.6 31.6-31.6m0-7.9c-21.7 0-39.5 17.8-39.5 39.5V222c0 21.7 17.8 39.5 39.5 39.5s39.5-17.8 39.5-39.5v-92.5c0-21.7-17.8-39.5-39.5-39.5z" class="st2"/><path fill="#f78f8f" d="M240 386.1c-32.7 0-59.2-26.6-59.2-59.2 0-18 8.1-34.9 22.2-46.2l1.5-1.2v-75h71.1v75l1.5 1.2c14.1 11.3 22.2 28.2 22.2 46.2-.1 32.6-26.6 59.2-59.3 59.2z"/><path d="M271.6 208.4v73l3 2.4c13.2 10.6 20.7 26.3 20.7 43.1 0 30.5-24.8 55.3-55.3 55.3s-55.3-24.8-55.3-55.3c0-16.8 7.6-32.5 20.7-43.1l3-2.4v-73h63.2m7.9-7.9h-78.9v77.1c-14.4 11.6-23.7 29.3-23.7 49.3 0 34.9 28.3 63.2 63.2 63.2s63.2-28.3 63.2-63.2c0-19.9-9.3-37.7-23.7-49.3v-77.1h-.1z" class="st4"/><path d="M232.1 232.1h47.4v7.9h-47.4zM232.1 263.7h47.4v7.9h-47.4z" class="st4"/><path d="M232.1 168.9h47.4v7.9h-47.4zM232.1 137.4h47.4v7.9h-47.4z" class="st2"/></svg>