<svg xmlns="http://www.w3.org/2000/svg" id="Layer_1" viewBox="0 0 480 480"><style>.st2{fill:#4788c7}</style><circle cx="242" cy="242.5" r="230" fill="none" stroke="#4788c7" stroke-miterlimit="10" stroke-width="10"/><g id="surface1"><path fill="#dff0fe" d="M203.8 366.7c-47.2 0-85.5-38.6-85.5-86 0-49.4 71.1-138.1 85.5-155.6 14.4 17.6 85.6 107.4 85.6 155.6-.1 47.4-38.4 86-85.6 86z"/><path d="M203.8 130.4c18.6 23.1 82.3 105.7 82.3 150.4 0 45.6-36.9 82.7-82.2 82.7s-82.2-37.1-82.2-82.7c-.1-46 63.5-127.6 82.1-150.4m0-10.4S115 224.2 115 280.7c0 49.3 39.8 89.3 88.8 89.3s88.8-40 88.8-89.3c0-55.1-88.8-160.7-88.8-160.7z" class="st2"/><path fill="#98ccfd" d="M203.8 366.7c-47.2 0-85.5-38.6-85.5-86 0-13.1 5.1-30.3 15.2-51 8.3-3.7 19.5-7.8 33.6-7.8 12.1 0 22.9 6.2 34.4 12.7 11.8 6.7 24 13.6 38 13.6 12.5 0 25.1-4.1 37.3-12.3 8.3 18.1 12.5 33.1 12.5 44.7 0 47.5-38.3 86.1-85.5 86.1z"/><path d="M167.2 225.3c11.2 0 21.7 5.9 32.7 12.2 12.1 6.9 24.7 14.1 39.6 14.1 12.1 0 24.1-3.6 35.8-10.7 7.1 16.1 10.7 29.5 10.7 39.9 0 45.6-36.9 82.7-82.2 82.7s-82.2-37.1-82.2-82.7c0-12.4 4.8-28.7 14.4-48.5 7.8-3.5 18.2-7 31.2-7m0-6.6c-15.3 0-27.5 4.6-36.1 8.5-9.5 19.3-16.1 38.2-16.1 53.5 0 49.3 39.8 89.3 88.8 89.3s88.8-40 88.8-89.3c0-14.1-5.8-31.5-14.5-49.6-8.4 6.1-21.8 13.9-38.6 13.9-26.3 0-46.3-26.3-72.3-26.3zM358.4 133.2h6.6v217.1h-6.6V133.2z" class="st2"/><path d="M361.7 350.3h-39.5c-1.8 0-3.3-1.5-3.3-3.3 0-1.8 1.5-3.3 3.3-3.3h39.5c1.8 0 3.3 1.5 3.3 3.3 0 1.8-1.5 3.3-3.3 3.3zM361.7 245h-39.5c-1.8 0-3.3-1.5-3.3-3.3s1.5-3.3 3.3-3.3h39.5c1.8 0 3.3 1.5 3.3 3.3s-1.5 3.3-3.3 3.3zM361.7 139.7h-39.5c-1.8 0-3.3-1.5-3.3-3.3s1.5-3.3 3.3-3.3h39.5c1.8 0 3.3 1.5 3.3 3.3s-1.5 3.3-3.3 3.3zM361.7 323.9H342c-1.8 0-3.3-1.5-3.3-3.3 0-1.8 1.5-3.3 3.3-3.3h19.7c1.8 0 3.3 1.5 3.3 3.3 0 1.9-1.5 3.3-3.3 3.3zM361.7 297.6H342c-1.8 0-3.3-1.5-3.3-3.3 0-1.8 1.5-3.3 3.3-3.3h19.7c1.8 0 3.3 1.5 3.3 3.3 0 1.9-1.5 3.3-3.3 3.3zM361.7 271.3H342c-1.8 0-3.3-1.5-3.3-3.3 0-1.8 1.5-3.3 3.3-3.3h19.7c1.8 0 3.3 1.5 3.3 3.3 0 1.9-1.5 3.3-3.3 3.3zM361.7 218.7H342c-1.8 0-3.3-1.5-3.3-3.3 0-1.8 1.5-3.3 3.3-3.3h19.7c1.8 0 3.3 1.5 3.3 3.3 0 1.8-1.5 3.3-3.3 3.3zM361.7 192.4H342c-1.8 0-3.3-1.5-3.3-3.3s1.5-3.3 3.3-3.3h19.7c1.8 0 3.3 1.5 3.3 3.3s-1.5 3.3-3.3 3.3z" class="st2"/><path d="M358.4 133.2h6.6v59.2h-6.6v-59.2z" class="st2"/><path d="M361.7 166.1H342c-1.8 0-3.3-1.5-3.3-3.3s1.5-3.3 3.3-3.3h19.7c1.8 0 3.3 1.5 3.3 3.3s-1.5 3.3-3.3 3.3z" class="st2"/></g></svg>