<svg xmlns="http://www.w3.org/2000/svg" viewBox="0 0 480 480"><circle cx="242" cy="242.5" r="230" fill="none" stroke="#dd2c00" stroke-miterlimit="10" stroke-width="10"/><path fill="#dd2c00" d="M350.5 274.5c0 61.9-48.7 110.5-110.5 110.5s-110.5-48.7-110.5-110.5S228.8 161 217.6 105c22.4 0 132.9 79.9 132.9 169.5z"/><path fill="#ff5722" d="M306.3 303.9c0-56-66.3-110.5-66.3-110.5 0 44.8-66.3 65.7-66.3 110.5 0 37.1 29.2 66.3 66.3 66.3s66.3-29.2 66.3-66.3z"/><path fill="#ffc107" d="M203.2 329c0-25.1 36.8-39.5 36.8-61.9 0 0 36.8 28.2 36.8 61.9 0 18.6-16.5 33.7-36.8 33.7-20.4.1-36.9-15-36.8-33.7z"/></svg>