<svg xmlns="http://www.w3.org/2000/svg" id="Layer_1" viewBox="0 0 480 480"><style>.st3{fill:#fff}</style><circle cx="242" cy="242.5" r="230" fill="none" stroke="#0084c2" stroke-miterlimit="10" stroke-width="10"/><g id="surface1"><path fill="#b3ebff" stroke="#0084c2" stroke-miterlimit="10" stroke-width="3" d="M240 377c-72.8 0-132-59.3-132-132s59.2-132 132-132 132 59.2 132 132-59.2 132-132 132z"/><path fill="#0084c2" d="M240 112.4c73.1 0 132.6 59.5 132.6 132.6S313.1 377.6 240 377.6 107.4 318.1 107.4 245 166.9 112.4 240 112.4m0-7.4c-77.3 0-140 62.7-140 140s62.7 140 140 140 140-62.7 140-140-62.7-140-140-140z"/><path d="M240 326.1h-1.2c-44-.6-79.9-37-79.9-81V244c.3-20.8 8.4-40.5 22.9-55.4 2.8-2.9 7.5-3 10.4-.1 2.9 2.8 3 7.5.1 10.4-11.8 12.2-18.5 28.3-18.7 45.3v.9c0 36 29.3 65.8 65.4 66.3h.9c36 0 65.8-29.3 66.3-65.4v-1c0-17.4-6.6-33.8-18.8-46.2-2.8-2.9-2.8-7.6.1-10.4 2.9-2.8 7.6-2.8 10.4.1 14.8 15.2 22.9 35.3 22.9 56.5v1.2c-.4 44-36.7 79.9-80.8 79.9z" class="st3"/><path d="M240 237.6c-4.1 0-7.4-3.3-7.4-7.4v-73.7c0-4.1 3.3-7.4 7.4-7.4s7.4 3.3 7.4 7.4v73.7c0 4.1-3.3 7.4-7.4 7.4z" class="st3"/></g></svg>