<svg xmlns="http://www.w3.org/2000/svg" viewBox="0 0 480 480"><style>.st1{fill:#8c72dd}.st2{fill:#d9d2ff}</style><g id="Layer_1"><circle cx="242" cy="242.5" r="230" fill="none" stroke="#8c72dd" stroke-miterlimit="10" stroke-width="10"/><path d="M90 221.3v-7.9c10.3 0 18.9-4.7 28.4-10.3 9.5-5.5 18.2-11.1 30.8-13.4l1.6 7.9c-10.3 2.4-19.7 7.1-27.6 11.8-11.1 6.4-20.6 11.9-33.2 11.9zm0 47.4v-7.9c10.3 0 18.9-4.7 28.4-10.3s18.2-11.1 30.8-13.4l1.6 7.9c-10.3 2.4-19.7 7.1-27.6 11.8-11.1 6.4-20.6 11.9-33.2 11.9zm0 47.4v-7.9c10.3 0 18.9-4.7 28.4-10.3 9.5-5.5 18.2-11.1 30.8-13.4l1.6 7.9c-10.3 2.4-19.7 7.1-27.6 11.8-11.1 6.3-20.6 11.9-33.2 11.9z" class="st1"/><path d="M141.3 106.8h197.4v276.3H141.3V106.8z" class="st2"/><path d="M334.7 110.8v268.4H145.3V110.8h189.4m7.9-7.9H137.4v284.2h205.3V102.9h-.1z" class="st1"/><path d="M318.9 166.1h23.7V324h-23.7V166.1z" class="st2"/><path d="M390 221.3c-11.1 0-23.7-6.3-35.5-11.8s-22.9-11.8-33.2-11.8c-9.5 0-22.1 6.3-33.2 11.8-11.8 5.5-24.5 11.8-34.7 11.8-11.1 0-23.7-6.3-35.5-11.8s-23.7-11.8-33.2-11.8v-7.9c11.1 0 23.7 6.3 36.3 12.6 11.1 5.5 22.9 11.1 32.4 11.1 8.7 0 20.5-5.5 31.6-11.1 12.6-6.3 25.3-12.6 37.1-12.6s24.5 6.3 36.3 12.6c11.1 5.5 22.9 11.1 31.6 11.1v7.8zm0 47.4c-11.1 0-23.7-6.3-35.5-11.8s-22.9-11.8-33.2-11.8c-9.5 0-22.1 6.3-33.2 11.8-11.8 5.5-24.5 11.8-34.7 11.8-11.1 0-23.7-6.3-35.5-11.8s-23.7-11.8-33.2-11.8v-7.9c11.1 0 23.7 6.3 36.3 12.6 11.1 5.5 22.9 11.1 32.4 11.1 8.7 0 20.5-5.5 31.6-11.1 12.6-6.3 25.3-12.6 37.1-12.6s24.5 6.3 36.3 12.6c11.1 5.5 22.9 11.1 31.6 11.1v7.8zm0 47.4c-11.1 0-23.7-6.3-35.5-11.8s-22.9-11.8-33.2-11.8c-9.5 0-22.1 6.3-33.2 11.8-11.8 5.5-24.5 11.8-34.7 11.8-11.1 0-23.7-6.3-35.5-11.8s-23.7-11.8-33.2-11.8v-7.9c11.1 0 23.7 6.3 36.3 12.6 11.1 5.5 22.9 11.1 32.4 11.1 8.7 0 20.5-5.5 31.6-11.1 12.6-6.3 25.3-12.6 37.1-12.6s24.5 6.3 36.3 12.6c11.1 5.5 22.9 11.1 31.6 11.1v7.8z" class="st1"/></g></svg>