<svg xmlns="http://www.w3.org/2000/svg" width="115" height="30" viewBox="0 0 2500 670.5"><path fill="#234b8d" fill-rule="evenodd" d="M1119.8 263.2v184.7s67.2 16.7 172.5 16.7c104.6 0 172.6-16.6 172.6-16.6v-62.7s-73.1 14.3-173.2 14.3c-48.6 0-80.9-5.7-98.2-7.5-.1-15 0-57.8 0-73 19.4-1.9 52-7.5 98.9-7.5 97.5.4 172.6 14.9 172.6 14.9v-63.2s-66.9-16.7-172.6-16.7c-106.5-.1-172.6 16.6-172.6 16.6zm427 197.2h75.6V250h-75.6v210.4zm-1011 0h75.6V250h-75.6v210.4zM963 380.8s-54.6-40.4-134.9-82C757.8 262.4 696 250.3 696 250.3v210.1h73.1V348.1c17.6 7.1 36.5 14.9 58.9 26.5 80.3 41.6 135 85.8 135 85.8h73.4V250H963v130.8zm-665.1-8.3C281 356.7 166.4 246.4 166.4 246.4l-56.1 51.1L297.9 466l187.5-168.4-56-51.2S314.8 356.7 297.9 372.5z" clip-rule="evenodd"/><path fill="#cc2131" fill-rule="evenodd" d="M2142.2 217.3c16.2 0 29.3-13.1 29.3-29.3V74c0-16.2-13.1-29.3-29.3-29.4h-114c-16.2 0-29.3 13.1-29.3 29.3v87.5c0 27.2-20.7 50.5-29.6 59.8-9 9.3-33 28.9-71.4 29h-105.1v173.4h173.3V318.3c.1-38.4 19.6-62.4 28.9-71.4 9.3-8.9 32.6-29.6 59.7-29.6h87.5zm218.5 54c-18-18.1-43.1-29.1-70.9-29.1-57 0-102.5 46.4-102.5 101.8 0 10.2 4.4 29.3 4.4 37.4 0 43.6-35.3 78.9-78.9 78.9h-84.6c-16.2 0-29.3 13.2-29.3 29.4v114c0 16.2 13.1 29.3 29.3 29.4h114c16.2 0 29.3-13.2 29.3-29.4v-84.6c0-43.6 35.4-78.9 79-78.9 8.2 0 27.3 4.4 37.5 4.4 55.4 0 101.7-45.4 101.7-102.4 0-26.5-10.4-52-29-70.9z" clip-rule="evenodd"/></svg>