<svg xmlns="http://www.w3.org/2000/svg" width="90" height="30"><path fill="#023d6b" d="M54 23h-.3c-.1 0-.1.1-.1.1v1.6c0 .4-.2.7-.6.7s-.6-.2-.6-.7v-1.6c0-.1-.1-.1-.2-.1h-.3c-.1 0-.1.1-.1.1v1.5c0 .8.3 1.3 1 1.3.3 0 .6-.1.8-.4v.2c0 .1.1.1.1.1h.3c.1 0 .1-.1.1-.1V23c0 .1 0 0-.1 0zm-4.5 0c-.3 0-.6.1-.8.4V22c0-.1-.1-.2-.2-.2h-.3c-.1 0-.1.1-.1.1v3.8c0 .1.1.1.1.1h.4c.1 0 .1-.1.1-.1v-1.6c0-.4.2-.7.6-.7.4 0 .6.3.6.7v1.6c0 .1.1.1.1.1h.3c.1 0 .1-.1.1-.1v-1.5c.2-.7-.2-1.2-.9-1.2zm1-16.4h-1.4c-.3 0-.5.2-.5.5v6.8c0 1.8-.8 2.5-2 2.5s-2-.7-2-2.5V7.2c0-.3-.2-.5-.5-.5h-1.4c-.3 0-.5.2-.5.5V14c0 3 1.8 4.8 4.5 4.8s4.5-1.8 4.5-4.8V7.2c-.2-.3-.5-.6-.7-.6zM40.5 23c-.4 0-.7.2-.9.4v-.3c0-.1-.1-.1-.1-.1h-.3c-.1 0-.1.1-.1.1v2.7c0 .1.1.1.1.1h.3c.1 0 .1-.1.2-.1v-1.4c0-.6.2-.8.7-.8h.1c.1 0 .1-.1.1-.1v-.3c0-.1 0-.2-.1-.2zm5.4.5c.3 0 .6.2.6.5 0 .1.1.1.1.1h.4c.1 0 .1-.1.1-.1-.1-.6-.6-1-1.2-1-.7 0-1.2.6-1.2 1.2v.5c-.1.7.4 1.2 1.1 1.3h.1c.6 0 1.1-.4 1.2-1v-.1c0 .1-.1.1-.1.1h-.4c-.1 0-.1.1-.1.1 0 .3-.3.6-.6.5-.3 0-.6-.2-.6-.7v-.5c-.1-.6.2-.9.6-.9zm-3.8.3c0-.2.2-.3.4-.3.2-.1.5.1.6.3 0 .1.1.1.1.1h.4c.1 0 .1-.1.1-.1v-.1c-.1-.5-.6-.8-1.1-.8-.6 0-1.1.2-1.1.8 0 1.2 1.6.7 1.6 1.3 0 .3-.2.4-.6.4-.3.1-.5-.1-.6-.4.1 0 .1 0 0 0h-.3c-.1 0-.1.1-.1.1v.1c.1.5.6.8 1.1.8.6 0 1.1-.2 1.1-.9.1-1.1-1.6-.6-1.6-1.3zm2.6-18.2c.7 0 1.3-.6 1.3-1.2 0-.7-.6-1.2-1.2-1.2s-1.2.6-1.2 1.2c-.1.6.4 1.1 1.1 1.2zm3.6 0c.7 0 1.2-.6 1.2-1.2 0-.7-.6-1.2-1.2-1.2-.7 0-1.2.6-1.2 1.2-.1.6.4 1.1 1 1.2h.2zm-8.9 1.6c0-.3-.2-.5-.5-.5h-1.4c-.3 0-.5.2-.5.5v7.6c.1.8-.6 1.5-1.4 1.5-.8.1-1.5-.6-1.5-1.4v-.4c0-.3-.2-.5-.5-.5h-1.4c-.3 0-.5.2-.5.5v.1c0 2.2 1.8 3.8 3.8 3.8 2.2 0 3.8-1.8 3.8-3.8l.1-7.4zM9.7 13l4.2-10.9c-5.3-.5-10.4 2.2-12.8 7v.1l-.2.4c-1.2 3.3.7 5.7 2.6 6.5 2.5.9 5.3-.5 6.2-2.9V13zm27.1 10c-.7 0-1.2.6-1.2 1.2v.5c0 .7.6 1.2 1.2 1.2.7 0 1.2-.6 1.2-1.2v-.4c.1-.7-.4-1.3-1.1-1.4 0 .1-.1.1-.1.1zm.7 1.8c0 .4-.3.7-.6.7s-.6-.2-.6-.7v-.5c0-.4.3-.7.6-.7s.6.3.6.7v.5zm-20.2-9c-2.5 6.5-8.5 9-14 8.1 4.9 5.1 13.1 5.2 18.2.3s5.2-13.1.3-18.2c-.1-.2-.3-.3-.4-.4l-4.1 10.2zm17.6 6.1h-2.3c-.1 0-.1.1-.1.1v3.8c0 .1.1.1.1.1h.4c.1 0 .1-.1.1-.1v-1.5h1.4c.1 0 .1-.1.1-.1v-.3c0-.1-.1-.1-.1-.2h-1.4v-1.3h1.8c.1 0 .1-.1.2-.1V22c0-.1-.1-.1-.2-.1zM83.4 23h-.3c-.1 0-.1.1-.1.1v1.6c0 .4-.2.7-.6.7s-.6-.2-.6-.7v-1.6c0-.1-.1-.1-.2-.1h-.3c-.1 0-.1.1-.1.1v1.5c0 .8.3 1.3 1 1.3.3 0 .6-.1.8-.4v.2c0 .1.1.1.1.1h.3c.1 0 .1-.1.1-.1V23c0 .1 0 0-.1 0zm-6-8.7h-1.8c-.3 0-.4.3-.4.5-.1 1-1 1.7-1.9 1.6-1.2 0-2.3-.9-2.3-2.7v-2.3c0-1.8 1-2.7 2.3-2.7 1-.1 1.8.7 1.9 1.6.1.3.2.4.4.4h1.8c.2 0 .3-.1.4-.3v-.1c-.2-2.3-2.2-4.1-4.5-4-2.7 0-4.7 2-4.7 5v2.3c0 3 2 5 4.7 5 2.3.1 4.4-1.7 4.5-4 0-.2-.2-.3-.4-.3zM80 23c-.4 0-.7.2-.9.4v-.3c0-.1-.1-.1-.1-.1h-.3c-.1 0-.1.1-.1.1v2.7c0 .1.1.1.1.1h.3c.1 0 .1-.1.2-.1v-1.3c0-.6.2-.8.7-.8h.1c.1 0 .1-.1.1-.1v-.3c0-.2 0-.3-.1-.3zm-2.7 0h-.6v-.6c0-.1-.1-.1-.1-.1h-.3c-.1 0-.1.1-.1.1v.2c0 .3-.1.4-.4.4-.1 0-.1.1-.1.1v.3c0 .1.1.1.1.1h.4V25c0 .6.2 1 .9 1h.3c.1 0 .1-.1.1-.1v-.3c0-.1-.1-.1-.1-.1h-.2c-.3 0-.4-.1-.4-.4v-1.4h.6c.1 0 .1-.1.1-.1v-.3c0-.2-.1-.3-.2-.3zm10.6 0c-.3 0-.7.2-.9.4-.2-.3-.5-.5-.8-.4-.3 0-.6.1-.7.4v-.2c0-.1-.1-.1-.2-.1h-.4c-.1 0-.1.1-.1.1v2.7c0 .1.1.1.1.1h.3c.1 0 .1-.1.2-.1v-1.5c0-.4.1-.8.6-.8.4 0 .6.3.6.8v1.5c0 .1.1.1.1.1h.3c.1 0 .1-.1.1-.1v-1.5c0-.5.1-.8.6-.8s.6.3.6.8v1.5c0 .1.1.1.1.1h.4c.1 0 .1-.1.2-.1v-1.4c-.1-1-.2-1.5-1.1-1.5zm-14.2 0c-.3 0-.6.1-.8.4v-.2c0-.1-.1-.1-.1-.1h-.3c-.1 0-.1.1-.1.1v2.6c0 .1.1.1.1.1h.3c.1 0 .1-.1.1-.1v-1.6c0-.4.3-.7.6-.7s.6.3.6.7v1.6c0 .1.1.1.1.1h.3c.1 0 .1-.1.1-.1v-1.5c.2-.8-.2-1.3-.9-1.3zM88.5 6.6H87c-.3 0-.5.2-.5.5v4.2h-4.1V7.1c0-.3-.2-.5-.5-.5h-1.4c-.3 0-.5.2-.5.5v10.8c0 .3.2.5.5.5h1.4c.3 0 .5-.2.5-.5v-4.3h4v4.3c0 .3.2.5.5.5h1.4c.3 0 .5-.2.5-.5V7.2c.2-.3-.1-.6-.3-.6zM56.8 23c-.3 0-.6.1-.8.4v-.2c0-.1-.1-.1-.1-.1h-.3c-.1 0-.1.1-.1.1v2.6c0 .1.1.1.1.1h.3c.1 0 .1-.1.1-.1v-1.6c0-.4.3-.7.6-.7s.6.3.6.7v1.6c0 .1.1.1.1.1h.3c.1 0 .1-.1.2-.1v-1.5c.1-.8-.3-1.3-1-1.3zm3.8 2.4h-.7c-.2 0-.3-.1-.3-.2s.1-.2.2-.2h.7c.5.1 1-.3 1.1-.8v-1.4c0-.1-.1-.1-.1-.1h-.3c-.1 0-.1.1-.1.1v.4c-.2-.1-.4-.2-.6-.2h-.2c-.6-.1-1.1.3-1.1.8v.2c0 .3.1.6.4.7-.4.1-.6.3-.6.5s.1.3.3.4c-.2.1-.4.4-.4.7 0 .5.4.9.9.9H60.6c.5.1 1-.3 1-.8.1-.5-.3-1-.8-1h-.2zm-.4-2h.2c.3-.1.5.2.6.4.1.3-.2.5-.4.6H60.3c-.3.1-.5-.2-.6-.4v-.1c0-.3.2-.5.4-.5h.1zm.2 3.3H60c-.4 0-.5-.2-.5-.4s.2-.4.5-.4h.4c.4 0 .6.2.6.4 0 .3-.2.4-.6.4zm2.7-2.9c0-.2.2-.3.4-.3.2-.1.5.1.6.3 0 .1.1.1.1.1h.4c.1 0 .1-.1.1-.1v-.1c-.1-.5-.6-.8-1.1-.8-.6 0-1.1.2-1.1.8 0 1.2 1.6.7 1.6 1.3 0 .3-.2.4-.5.4-.3.1-.5-.1-.6-.4 0-.1-.1-.1-.1-.1h-.3c-.1 0-.1.1-.1.1v.1c.1.5.6.9 1.2.8.6 0 1.1-.2 1.1-.9 0-1-1.7-.5-1.7-1.2zM61.3 18v-1.2c0-.3-.2-.5-.5-.5h-4.5V7.2c0-.3-.2-.5-.5-.5h-1.4c-.3 0-.5.2-.5.5v10.9c0 .3.2.5.5.5h6.5c.2 0 .4-.3.4-.6zm4.7 0V7.2c0-.3-.2-.5-.5-.5h-1.4c-.3 0-.5.2-.5.5V18c0 .3.2.5.5.5h1.4c.2 0 .5-.2.5-.5zm1.7 5h-1.9c-.1 0-.1.1-.2.1v.3c0 .1.1.1.1.1h1.4l-1.4 1.8c-.1.1-.1.2-.1.3v.2c0 .1.1.1.1.1h1.9c.1 0 .1-.1.1-.1v-.3c0-.1-.1-.1-.1-.1h-1.4l1.4-1.8c.1-.1.1-.2.1-.2v-.3c.1 0 .1-.1 0-.1zm2.3 0c-.7 0-1.2.6-1.2 1.2v.5c-.1.7.4 1.3 1.2 1.3h.1c.5 0 1-.3 1.1-.8v-.1c0-.1-.1-.1-.1-.1h-.4c-.1 0-.1.1-.1.1-.1.2-.3.4-.6.3-.3 0-.6-.3-.6-.6v-.2h1.8c.1.1.2 0 .2-.1v-.4c.1-.7-.4-1.3-1.2-1.3l-.2.2zm.6 1.3h-1.2v-.1c0-.3.3-.6.6-.6s.6.3.6.7z"/></svg>