<?xml version="1.0" encoding="UTF-8" standalone="no"?>
<!-- Created with Inkscape (http://www.inkscape.org/) -->
<svg
   xmlns:svg="http://www.w3.org/2000/svg"
   xmlns="http://www.w3.org/2000/svg"
   xmlns:xlink="http://www.w3.org/1999/xlink"
   version="1.0"
   width="432.06454"
   height="497.77884"
   id="svg3408">
  <defs
     id="defs3410">
    <linearGradient
       x1="0"
       y1="0"
       x2="1"
       y2="0"
       id="linearGradient497"
       gradientUnits="userSpaceOnUse"
       gradientTransform="matrix(50.401367,0,0,-50.401367,239.72754,205.10156)"
       spreadMethod="pad">
      <stop
         id="stop499"
         style="stop-color:#ffffff;stop-opacity:1"
         offset="0" />
      <stop
         id="stop501"
         style="stop-color:#717a87;stop-opacity:1"
         offset="0.93258399" />
      <stop
         id="stop503"
         style="stop-color:#717a87;stop-opacity:1"
         offset="0.93258399" />
      <stop
         id="stop505"
         style="stop-color:#717a87;stop-opacity:1"
         offset="1" />
    </linearGradient>
    <linearGradient
       x1="0"
       y1="0"
       x2="1"
       y2="0"
       id="linearGradient3369"
       xlink:href="#linearGradient497"
       gradientUnits="userSpaceOnUse"
       gradientTransform="matrix(50.401367,0,0,-50.401367,239.72754,205.10156)"
       spreadMethod="pad" />
    <linearGradient
       x1="0"
       y1="0"
       x2="1"
       y2="0"
       id="linearGradient473"
       gradientUnits="userSpaceOnUse"
       gradientTransform="matrix(16.552734,0,0,-16.552734,188.80176,240.55078)"
       spreadMethod="pad">
      <stop
         id="stop475"
         style="stop-color:#ffffff;stop-opacity:1"
         offset="0" />
      <stop
         id="stop477"
         style="stop-color:#717a87;stop-opacity:1"
         offset="0.53932601" />
      <stop
         id="stop479"
         style="stop-color:#717a87;stop-opacity:1"
         offset="0.53932601" />
      <stop
         id="stop481"
         style="stop-color:#717a87;stop-opacity:1"
         offset="1" />
    </linearGradient>
    <linearGradient
       x1="0"
       y1="0"
       x2="1"
       y2="0"
       id="linearGradient3367"
       xlink:href="#linearGradient473"
       gradientUnits="userSpaceOnUse"
       gradientTransform="matrix(16.552734,0,0,-16.552734,188.80176,240.55078)"
       spreadMethod="pad" />
    <linearGradient
       x1="0"
       y1="0"
       x2="1"
       y2="0"
       id="linearGradient449"
       gradientUnits="userSpaceOnUse"
       gradientTransform="matrix(0,37.145996,37.145996,0,284.5415,234.24805)"
       spreadMethod="pad">
      <stop
         id="stop451"
         style="stop-color:#ffffff;stop-opacity:1"
         offset="0" />
      <stop
         id="stop453"
         style="stop-color:#717a87;stop-opacity:1"
         offset="0.56179798" />
      <stop
         id="stop455"
         style="stop-color:#717a87;stop-opacity:1"
         offset="0.56179798" />
      <stop
         id="stop457"
         style="stop-color:#717a87;stop-opacity:1"
         offset="1" />
    </linearGradient>
    <linearGradient
       x1="0"
       y1="0"
       x2="1"
       y2="0"
       id="linearGradient3365"
       xlink:href="#linearGradient449"
       gradientUnits="userSpaceOnUse"
       gradientTransform="matrix(0,37.145996,37.145996,0,284.5415,234.24805)"
       spreadMethod="pad" />
    <linearGradient
       x1="0"
       y1="0"
       x2="1"
       y2="0"
       id="linearGradient425"
       gradientUnits="userSpaceOnUse"
       gradientTransform="matrix(32.231445,0,0,-32.231445,207.53809,284.22266)"
       spreadMethod="pad">
      <stop
         id="stop427"
         style="stop-color:#ffffff;stop-opacity:1"
         offset="0" />
      <stop
         id="stop429"
         style="stop-color:#717a87;stop-opacity:1"
         offset="0.78651702" />
      <stop
         id="stop431"
         style="stop-color:#717a87;stop-opacity:1"
         offset="0.78651702" />
      <stop
         id="stop433"
         style="stop-color:#717a87;stop-opacity:1"
         offset="1" />
    </linearGradient>
    <linearGradient
       x1="0"
       y1="0"
       x2="1"
       y2="0"
       id="linearGradient3363"
       xlink:href="#linearGradient425"
       gradientUnits="userSpaceOnUse"
       gradientTransform="matrix(32.231445,0,0,-32.231445,207.53809,284.22266)"
       spreadMethod="pad" />
    <linearGradient
       x1="0"
       y1="0"
       x2="1"
       y2="0"
       id="linearGradient401"
       gradientUnits="userSpaceOnUse"
       gradientTransform="matrix(22.694336,0,0,-22.694336,188.58105,279.44727)"
       spreadMethod="pad">
      <stop
         id="stop403"
         style="stop-color:#ffffff;stop-opacity:1"
         offset="0" />
      <stop
         id="stop405"
         style="stop-color:#717a87;stop-opacity:1"
         offset="0.86516798" />
      <stop
         id="stop407"
         style="stop-color:#717a87;stop-opacity:1"
         offset="0.86516798" />
      <stop
         id="stop409"
         style="stop-color:#717a87;stop-opacity:1"
         offset="1" />
    </linearGradient>
    <linearGradient
       x1="0"
       y1="0"
       x2="1"
       y2="0"
       id="linearGradient3361"
       xlink:href="#linearGradient401"
       gradientUnits="userSpaceOnUse"
       gradientTransform="matrix(22.694336,0,0,-22.694336,188.58105,279.44727)"
       spreadMethod="pad" />
    <linearGradient
       x1="0"
       y1="0"
       x2="1"
       y2="0"
       id="linearGradient375"
       gradientUnits="userSpaceOnUse"
       gradientTransform="matrix(31.939453,0,0,-31.939453,239.40527,282.21094)"
       spreadMethod="pad">
      <stop
         id="stop377"
         style="stop-color:#ffffff;stop-opacity:1"
         offset="0" />
      <stop
         id="stop379"
         style="stop-color:#717a87;stop-opacity:1"
         offset="0.78651702" />
      <stop
         id="stop381"
         style="stop-color:#717a87;stop-opacity:1"
         offset="0.78651702" />
      <stop
         id="stop383"
         style="stop-color:#717a87;stop-opacity:1"
         offset="1" />
    </linearGradient>
    <linearGradient
       x1="0"
       y1="0"
       x2="1"
       y2="0"
       id="linearGradient3359"
       xlink:href="#linearGradient375"
       gradientUnits="userSpaceOnUse"
       gradientTransform="matrix(31.939453,0,0,-31.939453,239.40527,282.21094)"
       spreadMethod="pad" />
    <linearGradient
       x1="0"
       y1="0"
       x2="1"
       y2="0"
       id="linearGradient351"
       gradientUnits="userSpaceOnUse"
       gradientTransform="matrix(49.277344,0,0,-49.277344,190.70898,195.09668)"
       spreadMethod="pad">
      <stop
         id="stop353"
         style="stop-color:#ffffff;stop-opacity:1"
         offset="0" />
      <stop
         id="stop355"
         style="stop-color:#717a87;stop-opacity:1"
         offset="0.51123601" />
      <stop
         id="stop357"
         style="stop-color:#717a87;stop-opacity:1"
         offset="0.51123601" />
      <stop
         id="stop359"
         style="stop-color:#717a87;stop-opacity:1"
         offset="1" />
    </linearGradient>
    <linearGradient
       x1="0"
       y1="0"
       x2="1"
       y2="0"
       id="linearGradient3357"
       xlink:href="#linearGradient351"
       gradientUnits="userSpaceOnUse"
       gradientTransform="matrix(49.277344,0,0,-49.277344,190.70898,195.09668)"
       spreadMethod="pad" />
    <clipPath
       id="clipPath335">
      <path
         d="M 266.843,286.581 L 263.071,283.453 C 259.816,280.761 256.517,279.682 252.981,280.149 C 249.222,280.649 246.354,282.813 244.61,284.539 L 239.748,289.352 L 234.884,284.541 C 232.563,282.244 229.193,280.562 226.095,280.149 C 222.557,279.682 219.256,280.761 216.005,283.453 L 208.455,289.705 L 205.067,280.432 C 203.607,276.434 201.172,273.91 197.83,272.924 L 190.146,270.658 L 193.412,263.241 C 194.731,260.249 196.304,255.472 196.304,249.728 C 196.304,245.059 195.275,240.378 193.252,235.809 C 191.16,231.126 190.101,226.24 190.101,221.285 C 190.101,216.458 191.108,211.768 193.101,207.345 C 197.585,197.345 206.66,189.891 218.004,186.905 C 221.676,185.939 224.8,185.365 227.555,184.86 C 230.183,184.36 232.825,183.754 234.049,183.379 C 234.751,182.639 239.732,177.241 239.732,177.241 C 239.732,177.241 244.825,182.728 245.509,183.442 C 246.838,183.938 248.615,184.317 251.539,184.862 C 254.298,185.371 257.433,185.951 261.063,186.905 C 272.402,189.891 281.481,197.347 285.97,207.352 C 287.957,211.772 288.965,216.46 288.965,221.285 C 288.965,226.241 287.91,231.126 285.829,235.813 C 283.794,240.376 282.768,245.053 282.768,249.72 C 282.768,255.505 284.333,260.255 285.65,263.22 L 288.944,270.643 L 281.245,272.919 C 277.901,273.904 275.462,276.434 274.005,280.429 L 270.616,289.706 L 266.843,286.581 z"
         id="path337" />
    </clipPath>
    <linearGradient
       x1="0"
       y1="0"
       x2="1"
       y2="0"
       id="linearGradient527"
       gradientUnits="userSpaceOnUse"
       gradientTransform="matrix(-56.512405,80.708069,80.708069,56.512405,267.86035,197.08496)"
       spreadMethod="pad">
      <stop
         id="stop529"
         style="stop-color:#76797e;stop-opacity:1"
         offset="0" />
      <stop
         id="stop531"
         style="stop-color:#e1e1e1;stop-opacity:1"
         offset="0.25280899" />
      <stop
         id="stop533"
         style="stop-color:#76797e;stop-opacity:1"
         offset="1" />
    </linearGradient>
    <linearGradient
       x1="0"
       y1="0"
       x2="1"
       y2="0"
       id="linearGradient3351"
       xlink:href="#linearGradient527"
       gradientUnits="userSpaceOnUse"
       gradientTransform="matrix(-56.512405,80.708069,80.708069,56.512405,267.86035,197.08496)"
       spreadMethod="pad" />
  </defs>
  <g
     transform="translate(-279.682,-443.47274)"
     id="layer1">
    <path
       d="M 615.89265,464.66116 L 585.7156,489.65087 C 574.15392,499.21434 562.57225,503.07489 550.2912,501.43635 C 537.02301,499.67792 526.77618,491.90885 520.50578,485.70239 L 496.58312,462.03151 L 472.65643,485.68641 C 464.3159,493.93505 452.25866,499.96567 441.17654,501.43635 C 428.8915,503.07489 417.30184,499.21434 405.76014,489.65087 C 405.74415,489.64687 368.62527,458.9063 368.62527,458.9063 L 351.95611,504.51361 C 346.87267,518.44118 338.55609,527.19338 327.25817,530.5264 L 289.47188,541.67646 L 305.53752,578.14792 C 310.55704,589.53776 316.53574,607.68557 316.53574,629.49012 C 316.53574,647.2183 312.61523,665.02642 304.89412,682.43489 C 296.16591,701.98944 291.74182,722.43121 291.74182,743.16071 C 291.74182,763.39067 295.97408,783.04913 304.31064,801.59259 C 323.03394,843.34734 360.8522,874.43161 408.06209,886.86851 C 422.98877,890.79701 435.59749,893.11094 446.70761,895.14913 C 455.59169,896.83962 465.0712,898.97771 470.33054,900.44041 C 472.43266,902.71038 496.51118,928.6912 496.51118,928.6912 L 501.21099,923.6557 C 501.21099,923.6557 521.18917,902.19884 523.1354,900.09671 C 527.96712,898.46217 534.5972,897.05542 544.86005,895.14113 C 556.0141,893.07098 568.65083,890.74905 583.37769,886.86851 C 630.58358,874.43161 668.40184,843.34334 687.14911,801.53664 C 695.47366,783.02915 699.69792,763.37868 699.69792,743.16071 C 699.69792,722.42721 695.29385,701.98944 686.59361,682.43089 C 678.85651,665.0424 674.93201,647.23429 674.93201,629.52209 C 674.93201,607.56168 680.8907,589.51778 685.88624,578.25183 L 702.08376,541.7364 L 664.21357,530.55438 C 652.90363,527.20936 644.59108,518.44518 639.51558,504.53359 C 639.51558,504.51361 622.85847,458.89031 622.85847,458.89031 L 615.89265,464.66116 z"
       id="path329"
       style="fill:#231f20;fill-opacity:1;fill-rule:nonzero;stroke:none" />
    <g
       transform="matrix(3.9964348,0,0,-3.9964348,-461.50619,1627.5118)"
       clip-path="url(#clipPath335)"
       id="g333">
      <g
         id="g339">
        <g
           id="g341">
          <g
             id="g347">
            <g
               id="g349">
              <path
                 d="M 190.709,210.85 L 192.329,213.857 L 199.769,213.657 L 203.933,204.874 L 216.448,196.164 L 230.053,191.813 L 239.921,188.458 L 239.986,176.336 L 233.88,182.188 L 214.653,186.904 L 201.955,193.798 L 194.334,202.505 L 190.709,210.85 z"
                 id="path361"
                 style="fill:url(#linearGradient3357);stroke:none" />
            </g>
          </g>
        </g>
      </g>
      <g
         id="g363">
        <g
           id="g365">
          <g
             id="g371">
            <g
               id="g373">
              <path
                 d="M 268.6,288.961 L 259.996,282.371 L 254.509,280.725 L 249.014,282.371 L 242.428,288.044 L 239.405,290.058 L 239.585,280.359 L 255.501,273.813 L 268.167,280.325 L 271.345,290.608 L 268.6,288.961 z"
                 id="path385"
                 style="fill:url(#linearGradient3359);stroke:none" />
            </g>
          </g>
        </g>
      </g>
      <path
         d="M 283.606,273.038 C 281.854,273.647 279.509,274.116 277.933,275.783 C 276.708,277.081 275.843,279.009 275.003,280.725 C 273.77,283.25 272.985,285.351 272.443,287.496 C 271.852,289.822 270.979,291.34 270.979,291.34 L 268.641,282.292 L 270.555,273.782 L 282.39,267.453 L 289.436,270.855 C 289.436,270.855 287.817,271.572 283.606,273.038"
         id="path387"
         style="fill:#e7e7e7;fill-opacity:1;fill-rule:nonzero;stroke:none" />
      <g
         id="g389">
        <g
           id="g391">
          <g
             id="g397">
            <g
               id="g399">
              <path
                 d="M 207.104,288.595 L 204.726,280.725 L 199.966,274.504 L 194.291,273.038 L 188.581,271.169 L 196.387,267.373 L 205.243,271.635 L 211.275,280.628 L 208.202,291.522 L 207.104,288.595 z"
                 id="path411"
                 style="fill:url(#linearGradient3361);stroke:none" />
            </g>
          </g>
        </g>
      </g>
      <g
         id="g413">
        <g
           id="g415">
          <g
             id="g421">
            <g
               id="g423">
              <path
                 d="M 237.303,288.229 L 231.262,282.921 L 224.673,280.725 L 216.621,284.201 L 210.765,289.145 L 207.538,293.014 L 210.411,282.686 L 218.886,275.432 L 236.083,277.697 L 239.77,280.313 L 239.77,290.608 L 237.303,288.229 z"
                 id="path435"
                 style="fill:url(#linearGradient3363);stroke:none" />
            </g>
          </g>
        </g>
      </g>
      <g
         id="g437">
        <g
           id="g439">
          <g
             id="g445">
            <g
               id="g447">
              <path
                 d="M 280.987,266.908 C 280.987,266.908 275.919,254.553 280.312,236.433 C 280.623,232.607 287.448,234.968 287.448,234.968 C 287.448,234.968 277.564,249.611 290.563,271.39 C 290.667,271.544 280.987,266.908 280.987,266.908"
                 id="path459"
                 style="fill:url(#linearGradient3365);stroke:none" />
            </g>
          </g>
        </g>
      </g>
      <g
         id="g461">
        <g
           id="g463">
          <g
             id="g469">
            <g
               id="g471">
              <path
                 d="M 193.56,261.506 L 188.802,271.39 L 198.842,266.552 C 198.842,266.552 207.906,258.193 204.647,244.587 C 201.393,230.981 198.709,230.375 199.719,216.019 C 201.891,212.864 199.603,207.558 198.175,211.135 C 196.212,216.058 192.04,210.639 191.977,209.774 C 191.958,209.528 190.632,210.076 190.632,210.076 L 188.984,218.497 L 189.898,228.746 L 191.731,234.787 L 194.842,241.74 L 195.574,249.795 L 193.56,261.506 z"
                 id="path483"
                 style="fill:url(#linearGradient3367);stroke:none" />
            </g>
          </g>
        </g>
      </g>
      <g
         id="g485">
        <g
           id="g487">
          <g
             id="g493">
            <g
               id="g495">
              <path
                 d="M 239.747,186.468 L 248.83,189.946 L 257.433,191.409 L 272.259,197.814 C 272.259,197.814 283.059,211.178 283.24,218.497 C 283.409,225.136 281.595,235.15 281.595,235.15 L 287.269,235.335 C 287.269,235.335 290.371,230.278 290.114,221.732 C 289.828,212.274 289.911,210.304 278.663,194.703 L 266.17,187.267 L 246.215,182.55 L 239.728,174.867 L 239.747,186.468 z"
                 id="path507"
                 style="fill:url(#linearGradient3369);stroke:none" />
            </g>
          </g>
        </g>
      </g>
    </g>
    <path
       d="M 444.27375,526.70182 C 465.70666,523.84436 484.48591,509.93677 490.04092,504.44167 C 490.04092,504.44167 495.4841,498.55493 497.46633,496.60067 C 499.44856,498.55493 506.12657,505.7525 506.12657,505.7525 C 511.66163,511.2556 527.93115,523.84436 549.41599,526.70182 C 567.39994,529.08769 585.45983,526.78974 601.37763,513.6095 C 601.37763,513.6095 609.27858,502.90305 613.75056,499.21034 C 615.15331,503.07889 617.44729,516.23116 617.44729,516.23116 C 622.50678,530.09879 634.88371,545.02147 657.03598,551.56364 C 657.03598,551.56364 664.87299,554.517 668.17005,555.49213 C 666.72334,558.7732 661.98756,571.21011 661.98756,571.21011 C 656.21268,584.21451 654.71402,604.24864 654.71402,629.61401 C 654.71402,650.09174 663.75798,671.05704 672.62607,690.9353 C 680.19931,708.00008 684.04788,725.75624 684.04788,743.7322 C 684.04788,761.17265 680.40713,778.11353 673.20955,794.09528 C 656.94806,830.37091 620.20084,856.07598 578.94964,866.95028 C 564.79027,870.65098 552.14155,870.35524 541.95464,872.22558 C 541.88271,872.24156 541.42312,872.32549 541.42312,872.32549 C 529.61365,874.51553 519.41875,876.42982 511.98138,879.55903 C 511.98138,879.55903 498.56535,893.48661 496.47921,895.79655 C 494.94455,894.10206 494.97255,894.12604 486.30029,884.55458 C 485.48102,883.63939 463.39273,874.53152 451.59525,872.32549 L 451.2076,874.87921 C 441.05266,873.02886 428.41993,870.72292 414.02477,866.95028 C 372.75758,856.07598 335.01925,831.98547 318.76974,795.73781 C 311.57216,779.75207 307.1641,761.72415 307.1641,744.27572 C 307.1641,726.33173 312.79108,709.35487 320.3923,692.27011 C 329.22442,672.35188 337.46507,649.22851 337.46507,628.76277 C 337.46507,603.55326 337.49304,583.01957 331.70617,569.89928 C 331.70617,569.89928 328.20533,560.09602 326.77061,556.80296 C 330.05967,555.83183 340.36248,551.56364 340.36248,551.56364 C 362.51069,545.05344 371.167,528.79994 376.24647,514.92432 C 376.24647,514.92432 380.38278,506.11218 382.42895,500.52517 C 385.50221,503.07489 393.55902,509.68899 393.55902,509.68899 C 409.47283,522.86524 426.29782,529.08769 444.27375,526.70182"
       id="path509"
       style="fill:#ffffff;fill-opacity:1;fill-rule:nonzero;stroke:none" />
    <path
       d="M 486.89972,500.48121 C 475.40997,511.85506 459.31237,519.86791 443.87813,521.92608 C 425.97411,524.29996 408.8334,518.83284 392.94357,505.66458 L 377.86502,493.16373 L 371.09107,511.7032 C 365.96764,525.72669 355.20124,543.82254 332.99305,550.3727 L 317.63875,554.89267 L 324.16893,569.71145 C 329.9917,582.93165 336.93354,604.04482 336.93354,629.49012 C 336.93354,650.15568 332.41757,670.82524 323.49353,690.92731 C 315.96824,707.80825 312.14765,725.39256 312.14765,743.16071 C 312.14765,760.39734 315.75244,777.18236 322.87408,792.99626 C 339.03966,829.07207 371.97824,856.00405 413.22545,866.87835 C 427.41282,870.60302 439.61794,872.84103 450.40032,874.81926 C 450.35636,874.81127 474.5148,879.38319 481.47659,882.39251 C 483.51078,884.27083 496.59511,898.51013 496.59511,898.51013 C 496.59511,898.51013 509.89924,884.14694 511.8135,882.35254 C 519.00312,879.17538 527.85922,877.31304 541.23525,874.81127 C 552.18152,872.80106 564.33065,870.55507 578.33019,866.87835 C 619.56541,856.00405 652.49603,829.07207 668.68156,792.97228 C 675.79921,777.17037 679.39203,760.39734 679.39203,743.16071 C 679.39203,725.36459 675.58343,707.79626 668.09811,690.91133 L 668.08609,690.90333 C 659.16205,670.84922 654.63012,650.19165 654.63012,629.52209 C 654.63012,603.90494 661.56793,582.8797 667.38272,569.7634 L 673.97686,554.93663 L 658.5826,550.39268 C 636.36642,543.82254 625.59603,525.72669 620.48459,511.71119 L 613.71862,493.16373 L 598.63208,505.66458 C 582.71428,518.82484 565.59355,524.29996 547.69752,521.92208 C 528.8903,519.42031 514.82681,508.8977 506.33841,500.49719 L 496.62708,490.87777 L 486.89972,500.48121 z"
       id="path511"
       style="fill:#231f20;fill-opacity:1;fill-rule:nonzero;stroke:none" />
    <path
       d="M 421.53806,852.78292 C 383.66785,842.99965 353.50276,818.90514 338.80387,786.71786 C 332.37358,772.69437 329.14848,757.78767 329.14848,742.74109 C 329.14848,727.19496 332.05389,711.63684 338.71995,696.42241 C 345.62579,680.68045 347.04452,667.90385 348.751,654.60372 C 346.7328,670.39763 342.32473,682.55078 336.45397,695.51921 C 329.49617,710.85353 325.96333,726.75135 325.96333,742.74109 C 325.96333,758.24726 329.26838,773.30982 335.78257,787.52913 C 350.96502,820.7515 381.33393,844.4024 421.05849,854.66524 C 430.3502,857.0631 464.89139,863.19363 464.89139,863.19363 C 464.89139,863.19363 439.51403,857.21896 421.53806,852.78292"
       id="path513"
       style="fill:#ffffff;fill-opacity:1;fill-rule:nonzero;stroke:none" />
    <g
       transform="matrix(3.9964348,0,0,-3.9964348,-461.50619,1627.5118)"
       id="g517">
      <g
         id="g523">
        <g
           id="g525">
          <path
             d="M 279.478,232.903 C 276.772,238.972 275.8,244.663 275.8,249.72 C 275.8,256.624 277.607,262.316 279.296,266.125 C 272.863,268.027 269.265,273.058 267.471,277.971 C 261.701,273.196 256.116,272.6 252.076,273.135 C 246.843,273.83 242.637,276.609 239.744,279.475 C 236.847,276.608 232.22,273.83 227,273.135 C 222.961,272.6 217.367,273.196 211.601,277.971 C 209.805,273.058 206.205,268.027 199.773,266.13 C 201.453,262.316 203.273,256.626 203.273,249.728 C 203.273,244.669 202.299,238.975 199.603,232.903 C 197.916,229.121 197.069,225.182 197.069,221.285 C 197.069,217.523 197.859,213.793 199.438,210.284 C 203.049,202.231 210.455,196.203 219.754,193.754 C 223.159,192.856 226.153,192.307 228.799,191.822 C 232.442,191.14 235.526,190.612 237.845,189.486 C 237.845,189.486 239.224,188.222 239.747,187.644 C 240.272,188.222 241.648,189.486 241.648,189.486 C 243.963,190.612 246.628,190.956 250.278,191.639 C 252.913,192.125 255.911,192.674 259.316,193.569 C 268.61,196.02 276.016,202.231 279.625,210.284 C 281.202,213.793 281.996,217.523 281.996,221.285 C 281.996,225.182 281.157,229.121 279.478,232.903"
             id="path535"
             style="fill:url(#linearGradient3351);stroke:none" />
        </g>
      </g>
    </g>
    <path
       d="M 495.98365,531.39363 C 481.51256,542.64759 465.63073,549.4775 448.77776,551.68753 C 435.4017,553.47393 414.75611,552.83051 392.464,539.60231 L 391.55681,539.06279 L 391.01729,539.98596 C 382.68073,554.58894 371.45874,565.69103 357.67504,572.96055 L 356.85577,573.38817 L 357.1555,574.28736 C 363.41791,592.71892 366.60307,611.60607 366.60307,630.41729 C 366.60307,654.79554 361.3078,679.06989 350.86911,702.54894 L 350.86911,702.55294 C 348.59514,707.70035 346.7328,713.04358 345.31406,718.43078 L 344.53076,721.41212 L 571.47627,550.99215 L 567.30802,551.57962 C 559.67084,552.66665 551.9817,552.70262 544.44042,551.68753 C 523.40719,548.918 507.16967,539.13073 497.25851,531.39363 L 496.61509,530.89807 L 495.98365,531.39363 z"
       id="path537"
       style="fill:#231f20;fill-opacity:1;fill-rule:nonzero;stroke:none" />
    <path
       d="M 606.07744,548.0148 L 342.24081,745.79836 L 342.26478,746.37784 C 342.76434,758.02345 345.43396,769.32937 350.23367,779.96388 C 359.25759,800.15787 375.19541,816.7111 396.31653,827.84117 L 396.90804,828.1449 L 628.54137,655.48693 L 628.4295,654.83551 C 627.25455,646.68278 626.64306,638.45412 626.64306,630.37733 C 626.64306,611.50616 629.82425,592.635 636.07867,574.28736 L 636.3904,573.39216 L 635.56313,572.96055 C 624.6129,567.17371 615.18931,558.85713 607.5441,548.2466 L 606.92069,547.37937 L 606.07744,548.0148 z"
       id="path539"
       style="fill:#231f20;fill-opacity:1;fill-rule:nonzero;stroke:none" />
    <path
       d="M 642.99247,779.96388 L 642.99247,779.96388 L 642.99247,779.95589 L 642.99247,779.96388 z M 631.07111,674.87363 L 416.53852,836.22169 L 418.99234,836.94905 L 421.73789,837.73235 C 434.53047,841.08136 445.95628,843.21146 456.03529,845.0738 L 456.53484,845.16971 C 470.41443,847.72743 481.36869,849.75762 491.23988,853.93389 C 491.96723,854.22563 495.0285,857.11506 495.85976,857.97829 L 496.61509,858.7496 L 497.3864,857.97829 C 498.35354,856.94721 501.06712,854.31755 501.69456,854.0338 C 511.78156,849.72165 523.34321,847.60754 536.74329,845.16971 L 537.53458,845.01785 C 547.53766,843.15551 558.85956,841.05738 571.47627,837.73235 C 604.35897,829.06008 630.43171,807.99488 642.99247,779.96388 C 648.36368,768.10246 651.08529,755.48572 651.08529,742.48931 C 651.08529,729.04131 648.1519,715.6053 642.36107,702.54894 C 638.43257,693.67286 635.18344,684.56499 632.72566,675.46111 L 632.30204,673.95046 L 631.07111,674.87363 z"
       id="path541"
       style="fill:#231f20;fill-opacity:1;fill-rule:nonzero;stroke:none" />
    <path
       d="M 397.8432,809.66139 L 417.30184,795.49802 L 417.28586,745.93424 L 439.20227,779.0487 L 459.97574,763.41864 L 459.97574,675.11741 L 440.50514,690.00014 L 440.34129,745.74241 L 415.91908,708.34377 L 388.2038,728.73758 C 388.2038,728.73758 397.77127,729.00934 397.77127,739.11632 L 397.8432,809.66139 z"
       id="path543"
       style="fill:#e7e7e7;fill-opacity:1;fill-rule:nonzero;stroke:none" />
    <path
       d="M 467.91666,668.83502 C 467.91666,668.83502 477.48416,669.11477 477.48416,679.20577 L 477.45218,750.14648 L 497.41438,735.37966 L 497.41438,703.22434 L 519.33482,686.86294 L 519.29486,718.93033 L 538.34986,704.60311 L 538.34986,616.18599 L 519.34678,630.55317 L 519.34678,663.06417 L 497.41438,679.6214 L 497.41438,646.80267 L 467.91666,668.83502 z"
       id="path545"
       style="fill:#e7e7e7;fill-opacity:1;fill-rule:nonzero;stroke:none" />
    <path
       d="M 545.49548,610.9027 C 545.49548,610.9027 555.06694,611.17446 555.06694,621.27745 L 554.93506,692.64578 C 554.93506,692.64578 603.90335,656.45806 610.05389,651.76625 C 608.83098,637.38707 610.05389,628.81072 610.05389,628.81072 L 574.97718,654.79954 L 574.89725,588.86236 L 545.49548,610.9027 z"
       id="path547"
       style="fill:#e7e7e7;fill-opacity:1;fill-rule:nonzero;stroke:none" />
  </g>
</svg>
