<?xml version="1.0" encoding="UTF-8" standalone="no"?>
<!-- Created with Inkscape (http://www.inkscape.org/) -->
<svg
   xmlns:svg="http://www.w3.org/2000/svg"
   xmlns="http://www.w3.org/2000/svg"
   version="1.0"
   width="801.53998"
   height="177.49001"
   id="svg2">
  <defs
     id="defs4">
    <clipPath
       id="clipPath2478">
      <path
         d="M 0,19.49762 L 0,0 L 88.08539,0 L 88.08539,19.49762 L 0,19.49762 z"
         id="path2480" />
    </clipPath>
    <clipPath
       id="clipPath2448">
      <path
         d="M 22.67717,-147.40158 L 22.67717,-127.90398 L 110.76266,-127.90398 L 110.76266,-147.40158 L 22.67717,-147.40158 z"
         id="path2450" />
    </clipPath>
    <clipPath
       id="clipPath2434">
      <path
         d="M 4.56,61.67999 L 4.56,231.60001 L 360.72,231.60001 L 360.72,61.67999 L 4.56,61.67999 z"
         id="path2436" />
    </clipPath>
    <clipPath
       id="clipPath2426">
      <path
         d="M -34.01575,-99.2126 L -34.01575,147.40158 L 487.55905,147.40158 L 487.55905,-99.2126 L -34.01575,-99.2126 z"
         id="path2428" />
    </clipPath>
    <clipPath
       id="clipPath2418">
      <path
         d="M 0,0 L 527.24409,0 L 527.24409,357.16536 L 0,357.16536 L 0,0 z"
         id="path2420" />
    </clipPath>
  </defs>
  <g
     transform="translate(-2.0895036,-6.9822507)"
     id="layer1">
    <g
       transform="matrix(7.0979822,0,0,7.0979822,-2375.4935,-2547.2929)"
       id="g2751">
      <path
         d="M 377.35968,367.28388 C 377.35968,368.4118 378.23854,368.85127 379.23589,368.85127 C 379.88893,368.85127 380.88694,368.6614 380.88694,367.79474 C 380.88694,366.87979 379.61618,366.7254 378.36915,366.39334 C 377.11069,366.06074 375.83994,365.57368 375.83994,363.98249 C 375.83994,362.24905 377.47869,361.41775 379.01064,361.41775 C 380.78005,361.41775 382.40668,362.18924 382.40668,364.14847 L 380.60179,364.14847 C 380.54205,363.12739 379.81813,362.86612 378.92705,362.86612 C 378.33379,362.86612 377.64463,363.11575 377.64463,363.82803 C 377.64463,364.4811 378.0488,364.56412 380.17404,365.11042 C 380.79164,365.2648 382.69166,365.65664 382.69166,367.58048 C 382.69166,369.13625 381.46856,370.3002 379.16505,370.3002 C 377.28891,370.3002 375.53103,369.37369 375.5549,367.28388 L 377.35968,367.28388 z"
         id="path2454"
         style="fill:#231f20;fill-opacity:1;fill-rule:nonzero;stroke:none" />
      <path
         d="M 385.87465,363.95868 L 387.10939,363.95868 L 387.10939,365.08719 L 385.87465,365.08719 L 385.87465,368.12674 C 385.87465,368.6968 386.01694,368.83963 386.58693,368.83963 C 386.76515,368.83963 386.93116,368.82745 387.10939,368.79201 L 387.10939,370.10977 C 386.82444,370.15738 386.45628,370.16961 386.12368,370.16961 C 385.09104,370.16961 384.18829,369.93215 384.18829,368.70901 L 384.18829,365.08719 L 383.16716,365.08719 L 383.16716,363.95868 L 384.18829,363.95868 L 384.18829,362.11848 L 385.87465,362.11848 L 385.87465,363.95868 z"
         id="path2456"
         style="fill:#231f20;fill-opacity:1;fill-rule:nonzero;stroke:none" />
      <path
         d="M 392.15516,367.09402 C 391.87078,367.34304 391.27691,367.35529 390.75441,367.44985 C 390.23191,367.5567 389.75653,367.73489 389.75653,368.35256 C 389.75653,368.98184 390.24355,369.13625 390.78978,369.13625 C 392.10813,369.13625 392.15516,368.09138 392.15516,367.72333 L 392.15516,367.09402 z M 388.26055,365.84708 C 388.3558,364.26748 389.76865,363.79263 391.14629,363.79263 C 392.3694,363.79263 393.84153,364.06545 393.84153,365.53824 L 393.84153,368.73282 C 393.84153,369.29072 393.90143,369.84854 394.05515,370.09818 L 392.34568,370.09818 C 392.28579,369.90835 392.23879,369.70637 392.22665,369.5043 C 391.69253,370.06277 390.9089,370.26419 390.16054,370.26419 C 388.99668,370.26419 388.07065,369.68257 388.07065,368.42398 C 388.07065,367.0342 389.11565,366.70218 390.16054,366.55935 C 391.1939,366.40498 392.15516,366.44094 392.15516,365.75185 C 392.15516,365.02737 391.65655,364.9206 391.06329,364.9206 C 390.42176,364.9206 390.00616,365.18183 389.94691,365.84708 L 388.26055,365.84708 z"
         id="path2458"
         style="fill:#231f20;fill-opacity:1;fill-rule:nonzero;stroke:none" />
      <path
         d="M 398.11765,365.06338 C 397.01303,365.06338 396.63279,366.01313 396.63279,367.02261 C 396.63279,367.98453 397.07216,368.99408 398.11765,368.99408 C 399.2334,368.99408 399.56541,368.01997 399.56541,367.0104 C 399.56541,366.01313 399.2103,365.06338 398.11765,365.06338 z M 399.58991,369.31451 L 399.56541,369.31451 C 399.17368,369.97919 398.48516,370.26419 397.70139,370.26419 C 395.84901,370.26419 394.94691,368.673 394.94691,366.975 C 394.94691,365.32465 395.8613,363.79263 397.66603,363.79263 C 398.38991,363.79263 399.10278,364.1015 399.48241,364.70694 L 399.50693,364.70694 L 399.50693,361.61917 L 401.19266,361.61917 L 401.19266,370.09818 L 399.58991,370.09818 L 399.58991,369.31451 z"
         id="path2460"
         style="fill:#231f20;fill-opacity:1;fill-rule:nonzero;stroke:none" />
      <path
         d="M 404.83893,363.95868 L 406.07305,363.95868 L 406.07305,365.08719 L 404.83893,365.08719 L 404.83893,368.12674 C 404.83893,368.6968 404.98054,368.83963 405.55054,368.83963 C 405.72878,368.83963 405.89478,368.82745 406.07305,368.79201 L 406.07305,370.10977 C 405.78865,370.15738 405.41991,370.16961 405.0879,370.16961 C 404.05515,370.16961 403.15189,369.93215 403.15189,368.70901 L 403.15189,365.08719 L 402.13143,365.08719 L 402.13143,363.95868 L 403.15189,363.95868 L 403.15189,362.11848 L 404.83893,362.11848 L 404.83893,363.95868 z"
         id="path2462"
         style="fill:#231f20;fill-opacity:1;fill-rule:nonzero;stroke:none" />
      <path
         d="M 410.28929,368.62539 L 414.83764,363.18716 L 410.64579,363.18716 L 410.64579,361.61917 L 417.31941,361.61917 L 417.31941,363.09194 L 412.77103,368.53083 L 417.43778,368.53083 L 417.43778,370.09818 L 410.28929,370.09818 L 410.28929,368.62539 z"
         id="path2464"
         style="fill:#231f20;fill-opacity:1;fill-rule:nonzero;stroke:none" />
      <path
         d="M 421.77254,361.61917 L 423.37528,361.61917 L 423.37528,363.00894 L 421.77254,363.00894 L 421.77254,361.61917 z M 419.32615,361.61917 L 420.92903,361.61917 L 420.92903,363.00894 L 419.32615,363.00894 L 419.32615,361.61917 z M 424.22979,370.09818 L 422.62703,370.09818 L 422.62703,369.2431 L 422.59155,369.2431 C 422.16429,369.93215 421.42828,370.26419 420.7154,370.26419 C 418.92215,370.26419 418.47053,369.25528 418.47053,367.73489 L 418.47053,363.95868 L 420.15753,363.95868 L 420.15753,367.42605 C 420.15753,368.43562 420.45415,368.93423 421.23778,368.93423 C 422.15218,368.93423 422.54404,368.42398 422.54404,367.17703 L 422.54404,363.95868 L 424.22979,363.95868 L 424.22979,370.09818 z"
         id="path2466"
         style="fill:#231f20;fill-opacity:1;fill-rule:nonzero;stroke:none" />
      <path
         d="M 425.74953,363.95868 L 427.35353,363.95868 L 427.35353,365.09878 L 427.37678,365.09878 C 427.68554,364.32673 428.51691,363.79263 429.33603,363.79263 C 429.45441,363.79263 429.59716,363.81643 429.70464,363.85183 L 429.70464,365.41922 C 429.54968,365.38381 429.30054,365.36002 429.09915,365.36002 C 427.86379,365.36002 427.43654,366.25052 427.43654,367.33149 L 427.43654,370.09818 L 425.74953,370.09818 L 425.74953,363.95868 z"
         id="path2468"
         style="fill:#231f20;fill-opacity:1;fill-rule:nonzero;stroke:none" />
      <path
         d="M 430.7129,363.95868 L 432.39991,363.95868 L 432.39991,370.09818 L 430.7129,370.09818 L 430.7129,363.95868 z M 432.39991,363.00894 L 430.7129,363.00894 L 430.7129,361.61917 L 432.39991,361.61917 L 432.39991,363.00894 z"
         id="path2470"
         style="fill:#231f20;fill-opacity:1;fill-rule:nonzero;stroke:none" />
      <path
         d="M 437.96879,366.1199 C 437.8614,365.43143 437.42191,365.06338 436.72129,365.06338 C 435.6409,365.06338 435.28443,366.15595 435.28443,367.05802 C 435.28443,367.93691 435.62866,368.99408 436.68579,368.99408 C 437.46954,368.99408 437.92118,368.49478 438.02741,367.74714 L 439.65451,367.74714 C 439.44091,369.37369 438.31304,370.26419 436.69804,370.26419 C 434.84504,370.26419 433.59866,368.95804 433.59866,367.11725 C 433.59866,365.20563 434.7388,363.79263 436.7334,363.79263 C 438.18241,363.79263 439.51178,364.55251 439.61914,366.1199 L 437.96879,366.1199 z"
         id="path2472"
         style="fill:#231f20;fill-opacity:1;fill-rule:nonzero;stroke:none" />
      <path
         d="M 440.72265,361.61917 L 442.40966,361.61917 L 442.40966,364.81379 L 442.44516,364.81379 C 442.87243,364.12531 443.60841,363.79263 444.23828,363.79263 C 446.03153,363.79263 446.48191,364.80215 446.48191,366.32193 L 446.48191,370.09818 L 444.79616,370.09818 L 444.79616,366.63076 C 444.79616,365.62128 444.49953,365.12259 443.71591,365.12259 C 442.80153,365.12259 442.40966,365.63284 442.40966,366.87979 L 442.40966,370.09818 L 440.72265,370.09818 L 440.72265,361.61917 z"
         id="path2482"
         style="fill:#231f20;fill-opacity:1;fill-rule:nonzero;stroke:none" />
      <path
         d="M 366.52231,373.34768 L 366.01926,371.41165 C 365.82529,370.66584 366.07915,369.93582 366.71876,369.876 C 367.22776,369.82839 367.63803,370.36554 367.63803,370.84037 C 367.63803,371.79617 367.08616,372.57013 366.87143,372.88015 C 366.81764,372.95831 366.68703,373.13044 366.52231,373.34768 z M 366.38304,381.7962 C 366.40268,381.86696 366.40268,381.95249 366.40268,381.9792 C 366.40268,382.30647 366.15603,382.55785 365.78489,382.55785 C 365.4199,382.55785 365.21619,382.22349 365.21619,381.9792 C 365.21619,381.65213 365.46518,381.36648 365.81789,381.37621 L 365.85329,381.37621 L 365.51641,380.85623 L 365.4199,380.7012 L 364.47153,379.21324 L 364.27491,378.90562 L 363.65728,377.93749 C 363.65728,377.93749 363.54979,377.763 363.4974,377.59935 L 363.49366,377.58848 C 363.48394,377.56773 363.47901,377.54198 363.47414,377.51883 C 363.47166,377.50174 363.46804,377.48839 363.46315,377.47736 C 363.4559,377.43098 363.45216,377.3821 363.45216,377.33698 C 363.45216,376.88535 363.81719,376.52525 364.26393,376.52525 C 364.41294,376.52525 364.55331,376.56424 364.67528,376.63512 L 364.57529,376.41047 L 362.22166,371.29447 L 363.39968,370.41922 L 366.38304,381.7962 z M 360.82529,381.37388 L 360.72752,381.513 L 360.38816,381.99274 C 360.38816,381.99274 360.13425,382.32835 360.02928,382.41637 C 359.91941,382.51887 359.7754,382.57983 359.62042,382.57983 C 359.29563,382.57983 359.0333,382.31371 359.0333,381.98785 C 359.0333,381.66185 359.29563,381.39821 359.62042,381.39821 C 359.8353,381.39821 360.00005,381.47509 360.10255,381.60334 L 360.14407,381.66433 L 360.33941,381.10773 L 360.36138,381.04425 C 360.8814,379.56347 362.15578,375.93924 362.21566,375.79035 C 362.28403,375.60599 362.45493,375.2971 362.83326,375.21894 C 363.07504,375.16772 363.2057,375.21299 363.27028,375.25073 L 363.65854,376.08938 C 363.08844,376.08938 362.61843,376.56187 362.61843,377.26984 C 362.61843,377.57009 362.78444,377.92284 363.01279,378.28783 L 360.82529,381.37388 z M 361.09739,371.23464 L 360.49566,371.68024 L 359.5154,372.409 C 359.41415,372.47736 359.28839,372.52126 359.13943,372.52126 C 359.09066,372.52126 359.0418,372.51394 358.99415,372.50055 C 358.72075,372.42117 358.4778,372.14167 358.47166,371.8963 C 358.46193,371.55692 358.66941,371.22733 359.11627,371.23464 L 359.12478,371.23713 C 359.30055,371.24196 359.4629,371.30912 359.58379,371.42023 L 360.18553,370.97585 L 360.44192,370.78543 L 362.97616,368.91287 L 362.78691,368.10843 L 361.46982,369.1033 C 361.32566,368.45633 361.34279,367.58719 361.79815,366.7156 C 361.98366,366.37992 362.47075,365.62429 363.37278,365.16043 C 363.53765,365.07745 363.6963,365.01028 363.83916,364.96026 C 364.11253,364.97 364.39943,364.9761 364.63754,364.97125 C 365.33453,364.95535 365.58714,364.53054 365.65554,364.25714 C 365.70066,364.08376 365.76418,363.6712 365.78866,363.11942 C 365.79591,362.93147 365.79718,362.68484 365.79591,362.43582 C 366.72003,362.72513 367.5659,363.67853 367.6489,364.73807 C 367.74778,366.03693 367.04103,366.81814 366.52464,367.20266 L 361.09739,371.23464 z M 345.48585,368.12552 L 345.71656,370.46317 C 345.58721,370.47049 345.4627,370.49978 345.3467,370.54133 L 344.22125,369.6929 L 346.6419,364.49393 L 346.86407,367.15994 L 352.21441,367.15994 L 352.69652,367.15994 L 358.04205,367.15994 L 358.26544,364.49393 L 360.68605,369.6929 L 359.55941,370.54133 C 359.44468,370.49978 359.3189,370.47049 359.19192,370.46317 L 359.42014,368.12552 L 345.48585,368.12552 z M 358.29965,370.64387 C 357.92479,370.90022 357.67828,371.32742 357.67828,371.81574 C 357.67828,372.21857 357.84666,372.58719 358.11891,372.84113 L 358.06768,373.47101 L 357.9529,374.8821 L 357.71982,377.70075 C 357.69041,378.13162 357.60991,378.5491 357.48182,378.94335 L 347.04352,368.90803 L 358.44492,368.90803 L 358.29965,370.64387 z M 347.74054,379.70873 C 347.65264,379.49397 347.56719,379.26195 347.49152,379.0056 L 356.29518,379.0056 L 357.02516,379.70873 L 347.74054,379.70873 z M 356.0523,381.20299 L 348.7171,381.20299 C 348.51202,381.00023 348.32282,380.76345 348.14947,380.49986 L 356.66505,380.49986 C 356.50152,380.71585 356.30994,380.95274 356.0523,381.20299 z M 352.49643,382.78246 C 351.60528,382.78246 350.64703,382.60424 349.65944,381.9951 L 355.20265,381.9951 C 354.51544,382.46511 353.39116,382.78246 352.49643,382.78246 z M 347.17043,377.51147 L 354.74363,377.51147 L 355.47492,378.21348 L 347.2962,378.21348 C 347.24733,377.98998 347.2083,377.75073 347.17043,377.51147 z M 346.9898,376.01862 L 353.19215,376.01862 L 353.92092,376.71923 L 347.06183,376.71923 C 347.03493,376.48863 347.00811,376.25662 346.9898,376.01862 z M 346.87871,374.5281 L 351.64317,374.5281 L 352.36944,375.2276 L 346.92999,375.2276 C 346.91408,374.99323 346.89703,374.76012 346.87871,374.5281 z M 346.77252,373.03152 L 350.0879,373.03152 L 350.81915,373.73464 L 346.82253,373.73464 C 346.80669,373.49662 346.78957,373.25613 346.77252,373.03152 z M 347.2315,371.53742 L 348.53765,371.53742 L 349.26768,372.23807 L 347.20705,372.23807 C 347.24615,372.11355 347.27297,371.9866 347.27297,371.84744 C 347.27297,371.74001 347.25591,371.63629 347.2315,371.53742 z M 346.60528,370.68412 C 346.5125,370.04328 346.45513,369.40115 346.45513,369.40115 L 347.71368,370.74514 L 346.68096,370.74514 C 346.65655,370.72683 346.6321,370.69998 346.60528,370.68412 z M 345.91433,372.50055 C 345.86554,372.51394 345.8167,372.52126 345.7691,372.52126 C 345.61769,372.52126 345.492,372.47736 345.39064,372.409 L 344.41287,371.68024 L 343.80986,371.23464 L 338.38384,367.20266 C 337.86867,366.81814 337.15822,366.03693 337.25958,364.73807 C 337.34259,363.67853 338.18853,362.72513 339.11013,362.43582 C 339.11013,362.68484 339.11013,362.93147 339.1187,363.11942 C 339.1419,363.6712 339.21027,364.08376 339.25295,364.25714 C 339.32013,364.53054 339.57403,364.95535 340.26983,364.97125 C 340.50905,364.9761 340.79595,364.97 341.06935,364.96026 C 341.20978,365.01028 341.3709,365.07745 341.5357,365.16043 C 342.43658,365.62429 342.92238,366.37992 343.10915,366.7156 C 343.56573,367.58719 343.58157,368.45633 343.43634,369.1033 L 342.12038,368.10843 L 341.92995,368.91287 L 344.4666,370.78543 L 344.72414,370.97585 L 345.32473,371.42023 C 345.44313,371.30912 345.60553,371.24196 345.78249,371.23713 L 345.79103,371.23464 C 346.23785,371.22733 346.44899,371.55692 346.438,371.8963 C 346.43068,372.14167 346.18658,372.42117 345.91433,372.50055 z M 340.33209,376.41047 L 340.23321,376.63512 C 340.35407,376.56424 340.49322,376.52525 340.64214,376.52525 C 341.09259,376.52525 341.45509,376.88535 341.45509,377.33698 C 341.45509,377.3821 341.45269,377.43098 341.44415,377.47736 C 341.44049,377.48839 341.43557,377.50174 341.43316,377.51883 C 341.42824,377.54198 341.42339,377.56773 341.41485,377.58848 L 341.41242,377.59935 C 341.35866,377.763 341.25005,377.93749 341.25005,377.93749 L 340.63357,378.90562 L 340.4358,379.21324 L 339.48614,380.7012 L 339.3897,380.85623 L 339.05519,381.37621 L 339.08941,381.37621 C 339.44098,381.36648 339.69122,381.65213 339.69122,381.9792 C 339.69122,382.22349 339.48614,382.55785 339.12359,382.55785 C 338.7525,382.55785 338.50588,382.30647 338.50588,381.9792 C 338.50588,381.95249 338.50348,381.86696 338.523,381.7962 L 341.5088,370.41922 L 342.68434,371.29447 L 340.33209,376.41047 z M 342.07403,375.21894 C 342.45363,375.2971 342.62209,375.60599 342.69415,375.79035 C 342.75152,375.93924 344.02468,379.56347 344.54595,381.04425 L 344.56793,381.10773 L 344.76568,381.66433 L 344.80353,381.60334 C 344.90724,381.47509 345.07204,381.39821 345.28692,381.39821 C 345.61036,381.39821 345.87404,381.66185 345.87404,381.98785 C 345.87404,382.31371 345.61036,382.57983 345.28692,382.57983 C 345.13189,382.57983 344.98782,382.51887 344.87677,382.41637 C 344.773,382.32835 344.52154,381.99274 344.52154,381.99274 L 344.17849,381.513 L 344.08086,381.37388 L 341.8958,378.28783 C 342.12285,377.92284 342.2925,377.57009 342.2925,377.26984 C 342.2925,376.56187 341.8189,376.08938 341.2488,376.08938 L 341.63824,375.25073 C 341.70172,375.21299 341.83474,375.16772 342.07403,375.21894 z M 345.11964,364.46463 C 344.94268,364.3572 344.82428,364.16433 344.82428,363.94339 C 344.82428,363.63699 345.10866,363.3367 345.41994,363.3367 C 345.74953,363.3367 346.01813,363.60769 346.01813,363.94339 C 346.01813,364.04959 345.99123,364.14728 345.94854,364.23518 L 344.18214,368.07673 C 344.16875,367.97419 344.14434,367.82156 344.1065,367.59451 C 344.06862,367.36501 343.99172,367.11112 343.88918,366.85358 L 345.11964,364.46463 z M 347.77102,362.2405 L 347.81495,363.2073 L 348.37042,363.2073 L 348.32525,362.2405 L 348.89165,362.2405 L 348.96117,363.73953 L 347.29254,363.73953 L 347.19854,362.2405 L 347.77102,362.2405 z M 349.01979,365.06281 L 347.37917,365.06281 L 347.32915,364.28396 L 348.98191,364.28396 L 349.01979,365.06281 z M 349.95241,362.2405 L 349.98544,363.2073 L 350.53469,363.2073 L 350.50291,362.2405 L 351.04005,362.2405 L 351.07054,363.73953 L 349.51307,363.73953 L 349.46417,362.2405 L 349.95241,362.2405 z M 351.09992,365.06281 L 349.55941,365.06281 L 349.53253,364.28396 L 351.08278,364.28396 L 351.09992,365.06281 z M 352.15578,362.2405 L 352.1594,363.2073 L 352.75393,363.2073 L 352.75393,362.2405 L 353.27032,362.2405 L 353.25079,363.73953 L 352.55254,363.73953 L 352.35715,363.73953 L 351.65652,363.73953 L 351.63705,362.2405 L 352.15578,362.2405 z M 353.82452,364.28396 L 355.37478,364.28396 L 355.34918,365.06281 L 353.80613,365.06281 L 353.82452,364.28396 z M 353.86732,362.2405 L 354.40428,362.2405 L 354.37143,363.2073 L 354.92193,363.2073 L 354.95493,362.2405 L 355.44443,362.2405 L 355.39317,363.73953 L 353.83554,363.73953 L 353.86732,362.2405 z M 351.66143,364.28396 L 352.35715,364.28396 L 352.55254,364.28396 L 353.2459,364.28396 L 353.23491,365.06281 L 352.55254,365.06281 L 352.35715,365.06281 L 351.67368,365.06281 L 351.66143,364.28396 z M 352.35715,365.60964 L 352.55254,365.60964 L 357.49518,365.60964 L 357.43528,366.56912 L 352.69652,366.56912 L 352.21441,366.56912 L 347.47198,366.56912 L 347.41213,365.60964 L 352.35715,365.60964 z M 355.92532,364.28396 L 357.57814,364.28396 L 357.53054,365.06281 L 355.88754,365.06281 L 355.92532,364.28396 z M 356.01568,362.2405 L 356.58201,362.2405 L 356.53814,363.2073 L 357.0923,363.2073 L 357.13865,362.2405 L 357.70879,362.2405 L 357.61477,363.73953 L 355.94603,363.73953 L 356.01568,362.2405 z M 359.48729,363.3367 C 359.79979,363.3367 360.08303,363.63699 360.08303,363.94339 C 360.08303,364.16433 359.96705,364.3572 359.78765,364.46463 L 361.0193,366.85358 C 360.91554,367.11112 360.83994,367.36501 360.79969,367.59451 C 360.76307,367.82156 360.7385,367.97419 360.72268,368.07673 L 358.95879,364.23518 C 358.91603,364.14728 358.88914,364.04959 358.88914,363.94339 C 358.88914,363.60769 359.1578,363.3367 359.48729,363.3367 z M 338.88799,371.41165 L 338.38503,373.34768 C 338.22149,373.13044 338.08965,372.95831 338.03594,372.88015 C 337.82228,372.57013 337.27174,371.79617 337.27174,370.84037 C 337.27174,370.36554 337.6795,369.82839 338.18975,369.876 C 338.8294,369.93582 339.08083,370.66584 338.88799,371.41165 z M 367.42315,375.76098 C 367.3438,375.76349 367.26568,375.7781 367.19366,375.7976 L 366.80544,374.3987 L 367.00319,374.14488 C 367.59279,373.3758 367.94679,372.93143 368.21169,372.42117 C 368.62066,371.64114 368.56691,370.86478 368.43504,370.37527 C 368.13966,369.27424 367.27179,369.0154 366.75416,369.04227 C 365.97901,369.07889 365.50543,369.50861 365.30768,370.00174 C 365.0953,370.53152 365.13304,371.07839 365.22955,371.4715 L 365.9094,374.17661 C 365.70066,374.44762 365.52004,374.73321 365.39679,374.88825 L 364.11016,369.87967 L 366.98129,367.76297 C 368.62916,366.55329 368.61455,364.60745 368.07741,363.55643 C 367.56479,362.5506 366.83718,362.04275 366.20729,361.81204 C 366.01926,361.74001 365.89475,361.70339 365.77764,361.67654 C 365.7728,361.59113 365.77028,361.52888 365.76791,361.50198 C 365.75693,361.3714 365.60304,361.31281 365.47129,361.28592 C 365.17954,361.22244 365.0953,361.34451 365.0953,361.38845 L 365.08665,361.56302 C 364.38478,361.48612 362.88705,361.49465 362.88705,361.49465 L 362.88943,361.90607 L 362.88943,362.93264 L 363.48394,363.00223 C 363.54128,363.0047 363.61704,363.0633 363.61704,363.1695 C 363.61581,363.28177 363.53029,363.34402 363.44854,363.36478 C 363.37655,363.38557 363.34226,363.3904 363.31304,363.38797 L 363.3069,363.38797 L 361.46982,363.18412 L 361.69439,363.88361 C 362.40854,363.96418 362.97133,364.01297 363.38506,364.03617 C 363.40451,364.03742 363.42169,364.03742 363.44114,364.03742 C 363.92091,364.03742 364.30665,363.64924 364.30665,363.1695 C 364.30665,362.70682 363.94289,362.32839 363.48394,362.30398 L 363.48394,362.1343 C 363.73178,362.14044 364.03566,362.15261 364.36529,362.18192 C 364.39703,362.30643 364.46054,362.45779 364.59478,362.59455 C 364.73643,362.74588 364.88779,362.86307 365.02206,362.94852 L 365.01589,363.16335 C 365.01589,363.16335 365.03416,363.51858 365.00128,363.81277 C 364.96954,364.11067 364.79379,364.33279 364.14804,364.35599 C 363.53276,364.37674 362.77719,364.25714 362.77719,364.25714 L 362.81866,364.71125 C 362.56964,364.8504 362.32179,365.053 362.00441,365.3362 C 361.79568,365.52542 361.58941,365.7879 361.40757,366.08328 L 360.63604,364.59158 C 360.79714,364.36942 360.89602,364.10085 360.89602,363.80912 C 360.89602,363.07303 360.21978,362.47488 359.51178,362.47488 C 359.03692,362.47488 358.63653,362.6885 358.38991,363.01688 L 358.50718,361.6155 L 352.56357,361.6155 L 352.34255,361.6155 L 346.40139,361.6155 L 346.51739,363.01688 C 346.27203,362.6885 345.87164,362.47488 345.39557,362.47488 C 344.68634,362.47488 344.01129,363.07303 344.01129,363.80912 C 344.01129,364.10085 344.1089,364.36942 344.2737,364.59158 L 343.49982,366.08328 C 343.3167,365.7879 343.11163,365.52542 342.90167,365.3362 C 342.58429,365.053 342.3377,364.8504 342.08742,364.71125 L 342.13018,364.25714 C 342.13018,364.25714 341.3733,364.37674 340.75933,364.35599 C 340.11354,364.33279 339.93658,364.11067 339.9048,363.81277 C 339.8731,363.51858 339.89381,363.16335 339.89381,363.16335 L 339.88409,362.94852 C 340.01833,362.86307 340.17095,362.74588 340.31495,362.59455 C 340.44679,362.45779 340.51153,362.30643 340.54202,362.18192 C 340.87408,362.15261 341.17438,362.14044 341.42339,362.1343 L 341.42339,362.30398 C 340.96441,362.32839 340.59942,362.70682 340.59942,363.1695 C 340.59942,363.64924 340.9876,364.03742 341.46734,364.03742 C 341.48565,364.03742 341.50397,364.03742 341.52105,364.03617 C 341.93609,364.01297 342.49884,363.96418 343.2129,363.88361 L 343.43634,363.18412 L 341.60162,363.38797 L 341.59429,363.38797 C 341.565,363.3904 341.5296,363.38557 341.45875,363.36478 C 341.37579,363.34402 341.29157,363.28177 341.29034,363.1695 C 341.28908,363.0633 341.36599,363.0047 341.42339,363.00223 L 342.0191,362.93264 L 342.0191,361.90607 L 342.02398,361.49465 C 342.02398,361.49465 340.5237,361.48612 339.81939,361.56302 L 339.81085,361.38845 C 339.81085,361.34451 339.72901,361.22244 339.43486,361.28592 C 339.30422,361.31281 339.1504,361.3714 339.13824,361.50198 C 339.13577,361.52888 339.13458,361.59113 339.12969,361.67654 C 339.0125,361.70339 338.88799,361.74001 338.69997,361.81204 C 338.0689,362.04275 337.3438,362.5506 336.83229,363.55643 C 336.29396,364.60745 336.27932,366.55329 337.92608,367.76297 L 340.79718,369.87967 L 339.51178,374.88825 C 339.38727,374.73321 339.21027,374.44762 339.00027,374.17661 L 339.67775,371.4715 C 339.77297,371.07839 339.81085,370.53152 339.59966,370.00174 C 339.40069,369.50861 338.93194,369.07889 338.15313,369.04227 C 337.63555,369.0154 336.76763,369.27424 336.471,370.37527 C 336.34039,370.86478 336.28545,371.64114 336.69439,372.42117 C 336.96173,372.93143 337.31329,373.3758 337.9041,374.14488 L 338.10064,374.3987 L 337.71611,375.7976 C 337.64288,375.7781 337.56472,375.76349 337.48415,375.76098 C 337.00323,375.74633 336.66509,376.12723 336.66509,376.54223 C 336.66509,376.99884 337.03253,377.36135 337.48415,377.36135 C 337.77712,377.36135 338.03347,377.2112 338.17629,376.97924 C 338.30205,376.79373 338.4168,376.31273 338.55108,375.84898 L 338.73174,375.22398 L 339.26393,375.91234 C 338.93316,377.15022 337.72585,381.68634 337.70754,381.75585 C 337.50005,382.63971 338.29103,383.39899 339.10773,383.39536 C 339.8377,383.38545 340.53716,382.79959 340.50787,381.9792 C 340.49322,381.59361 340.34185,381.31037 340.09889,381.1236 L 341.43316,379.01174 L 343.94537,382.56521 C 344.14313,382.84849 344.29568,382.97533 344.32257,382.99734 C 344.57525,383.25373 344.92682,383.41234 345.3174,383.41234 C 346.01568,383.41234 346.73464,382.78738 346.73464,382.01098 C 346.73464,381.23709 346.12307,380.5816 345.315,380.72683 C 345.29424,380.73172 345.27471,380.73424 345.25514,380.74023 L 343.47662,375.65725 C 343.33375,375.27273 343.13844,374.9761 342.95782,374.80647 C 342.70025,374.56236 342.32545,374.56473 342.17657,374.57209 C 342.10939,374.57445 342.0191,374.59284 341.93243,374.61363 L 343.26544,371.73391 L 344.93535,372.99245 C 345.17824,373.18903 345.48585,373.30374 345.82037,373.30374 C 345.87897,373.30374 345.93755,373.30255 345.99123,373.29398 L 346.45265,378.0242 C 346.60162,379.61112 347.37184,381.00271 348.50835,381.98424 L 348.50835,381.9951 L 348.52174,381.9951 C 349.57892,382.89973 350.94728,383.45637 352.45366,383.45637 C 355.59205,383.45637 358.17018,381.08698 358.45468,378.0242 L 358.91603,373.29398 C 358.97219,373.30255 359.02842,373.30374 359.08453,373.30374 C 359.42267,373.30374 359.73032,373.18903 359.97194,372.99245 L 361.64068,371.73391 L 362.97365,374.61363 C 362.88943,374.59284 362.7979,374.57445 362.73076,374.57209 C 362.5818,374.56473 362.20701,374.56236 361.94955,374.80647 C 361.76878,374.9761 361.57354,375.27273 361.4319,375.65725 L 359.65215,380.74023 C 359.63266,380.73424 359.61428,380.73172 359.59227,380.72683 C 358.78416,380.5816 358.17267,381.23709 358.17267,382.01098 C 358.17267,382.78738 358.89291,383.41234 359.59119,383.41234 C 359.98053,383.41234 360.33201,383.25373 360.58603,382.99734 C 360.6104,382.97533 360.76414,382.84849 360.96315,382.56521 L 363.47776,379.01174 L 364.8084,381.1236 C 364.5643,381.31037 364.41294,381.59361 364.39943,381.9792 C 364.37018,382.79959 365.07078,383.38545 365.79965,383.39536 C 366.61741,383.39899 367.4109,382.63971 367.19854,381.75585 C 367.18504,381.68634 365.9754,377.15022 365.64455,375.91234 L 366.17441,375.22398 L 366.35629,375.84898 C 366.49179,376.31273 366.60654,376.79373 366.73105,376.97924 C 366.87628,377.2112 367.13266,377.36135 367.42315,377.36135 C 367.87729,377.36135 368.24228,376.99884 368.24228,376.54223 C 368.24228,376.12723 367.90293,375.74633 367.42315,375.76098 z"
         id="path2484"
         style="fill:#231f20;fill-opacity:1;fill-rule:nonzero;stroke:none" />
    </g>
  </g>
</svg>
