<svg xmlns="http://www.w3.org/2000/svg" id="Ebene_1" width="90" height="30" viewBox="0 0 368.6 135.1"><style>.st1{fill:#fff}</style><path fill="#f45334" d="M366.8 75.5c0 31.4-25.4 56.7-56.7 56.7s-56.7-25.4-56.7-56.7 25.4-56.7 56.7-56.7c31.3 0 56.7 25.3 56.7 56.7z"/><path d="M316.4 99.7c-1.7-.7-3.7-1.1-5.5-1.2-3-.1-5.7.2-8.6.8s-5.8 1.2-8.7 1.7c-2.8.5-5.6 1.4-8.4 1.6-4.9.4-3.7-.1-.9-5.4 2.8-5.2 6.5-11.8 9.9-18.2 4.5-8.4 7.6-17.4 3.1-26.8-6.1-13-24.3-3.6-30.5 4.3-2.4 3 6.7 4.1 8.8 2.1 4.5-6 12.3-10.1 13.3-.8.4 3.8-.8 7.9-2.3 11.4-3.8 8.8-9 16.4-13.8 24.4-3.2 5.2-5.1 11.3 1.6 13.5 2.1.7 4.3 1.1 6.5 1 2.6-.1 5.1-.7 7.6-1.2 3.8-.8 7.6-1.5 11.4-2.2 2-.3 3.9-.7 5.9-.9 2.5-.2 5.1-.2 7.6.1 1 .1 2 .4 3 .5.9.1 3-1.4 3.1-2.4.1-1.1-2.2-2-3.1-2.3z" class="st1"/><path d="M356.3 70.7c-1.9-.2-3.9 0-5.7.3-.6.1-1.3.2-1.9.3-1.2.2-2.4.5-3.7.8 1-5.4 2.3-11.3 3.4-16.1.8-3.7.4-8.5-1-10.9-.4-.7-2.6-1.3-3.8-.9-.9.3-2.3 1.7-3 2.9-.9 1.5-2 4-2.4 5-2.4 7.4-3.6 14.1-5.2 21.8-.1.3-.1.7-.2 1-.7.2-1.5.3-2.2.5-2.5.5-5 1.4-7.6 1.7-1.1.1-2.5.6-3.1-.5-.4-.8.1-2.4.3-3.2.6-2.4 1.3-4.8 2.2-7.2 3.9-10.3 5.1-12.1 6.1-18.4.2-1.4.2-2.9-.4-4.3-.5-1.2-1.3-1.4-2.3-1.4-1.1 0-2.6.1-3.6.6-.3.2-.7.4-1 .6-.7.6-1.3 1.3-1.9 2-.2.2-.4.5-.5.8-1.2 2-2.5 3.9-3.4 6-.9 2.2-1.8 4.3-2.7 6.6-1.6 4.3-3 8.8-4.1 13.3-.2.7-.3 1.4-.5 2.2-1.2 5.1-1.3 9.9 6.9 9.2 5.7-.5 11.3-2 16.8-3.6l-.6 3.9c-.2 1.7-1.3 9.7-1.4 11.4-.2 2.1-.4 4.4-.3 6.6 0 .8 0 1.5.1 2.3.1.5.2 1.3.6 1.8.6.7 1.9.9 3.1.7 1.4-.3 2.2-.4 3.3-1.4.9-.8 1.5-2.2 2.1-3.4.8-1.8 1.4-3.6 1.9-6.1.8-3.8 2.4-13.7 3-17.5.1-.4.2-.9.2-1.4 1-.2 2-.5 3-.7 2.2-.5 4.4-.8 6.6-.9 1.3-.1 2.7-.1 4-.1.7 0 3.8.6 3.7-1 .1-2.5-3-3.1-4.8-3.3z" class="st1"/><path fill="#354044" d="M243.7 94.2c-.1.1-.2.1-.2.2-3.9 3.5-16.1 12-20 3.7-1.6-3.4-1.4-7.9-1.4-11.6 0-3.1.3-6.4.5-9.7 5.6-.1 13.6-5.2 13.7-17.7 0-7.9-7.6-8.4-9.6-8.4-16.1-.1-19.5 24.1-19.6 35.1v1.1c-4.1 7.5-8.6 14.2-12.8 14.3-2.1.1-3-3.3-3-7.4 0-7.2 2.4-15.2 3.5-22.8s0-12.7-5.9-13c-14-.7-21.9 18.5-22.6 19.6.3-10.1-2.7-16.1-12-16.3-6.5-.2-13.1 9.9-13.1 9.9v-2.1c.1-4.3-.4-14.1-8.4-14.1h-.1c-2.1 0-5.8 2-9.2 3.9-5 2.8-15.6 5.8-16.2 4.9-4.4-6.5-10.4-8-14.4-8.5-8.5-1-15.3 2.4-15.8 7-.1 1.5.5 2.8 1.1 3.6-2 1.3-3.7 3.5-5.3 6.3-1.8 2.9-3.4 8.4-4.3 11.2-1 3-2.1 5.4-3.8 8.4-2.2 4.1-5.9 10.3-9.3 12-1.1.5-3 1.2-3.9-.2-1-1.6-.3-6.3.3-8.7.8-3.2 2-8.6 2.8-11.8 1-4 1.8-8.9 2.4-12.5.7-5.1.3-10.7-4.4-13.4-6.4-3.7-14.3-2-19.8 2.6-3.5 2.9-5.7 6.5-8.3 11.1-.8 1.4-2.4 4.8-2.4 4.8s1.3-9.3 1.6-11.8c2.1-15.8 4-31.2 7.3-46.8.7-3.5 1.9-6.4 1.8-10.1-.1-2-.5-3.3-1.3-3.9-2.7-2.4-9 3.4-10.9 6.5-4.2 7-6.2 15.3-8 23.2-5.2 23.6-9.8 72.6-9.9 73.6-.1 2.4.2 6.7 4.1 7 2.1.1 3.3.1 6.5-1.2s5-4.1 6.5-7.8c1.7-4 3.8-9.5 5.5-14s2.7-7.7 4.7-11.4c1.6-3 4.3-6.6 7.8-7.7 1.3-.4 4-.9 3.5 1.3-.2.9-3.2 11.7-3.9 14.8-.5 2.1-1 4.6-1.4 6.7-2 11.2 5.4 22.3 17.9 18.5 5.9-1.8 10.4-5.8 13.8-10.6.5-.7 1-1.5 1.5-2.3 3.1 10.1 12.2 13.4 16.7 13.6 7.8.4 24.4-5 24.5-34.6 0-2.1-.3-5.4-.5-7.1 0 .2 6.5-.8 11.3-2.4 1.3-.4 2.4-.9 3.4-1.4-2.5 11.6-3 28.5-3.2 34.7-.2 9.3 1.8 10.8 5 10.9 1.5 0 3.5-.3 3.5-.3 7.4-2.1 7.4-7.4 7.4-7.4.5-24.8 13.5-37.4 16.4-37.3.9 0 1.1 1.1 1.2 2.7.1 5.5-1 11-3.6 20.7-1.4 5.1-2.3 9.1-2.3 11.6-.2 8.2 4.7 8.8 5.6 8.9h.1c4.8.1 5.7-4.3 5.7-4.3 10.3-32.4 19.4-36.7 19.4-36.7-1.8 8.3-3.8 17-4 24.3-.2 9.6 3.4 18.1 14.4 17.6 6.5-.3 12.8-7.5 17.7-15.1 3.3 14.1 12.5 15.4 16.3 15.4 6.6 0 13-3 17.4-7.8 1.3-1.4 2.6-2.9 3.7-4.4.9-1.2 3.1-3.8 3.2-5.3.3-3.4-3.2-3.1-4.9-1.8zm-19-35c.6-1.1 2.1-2.3 3.2-2.3.9 0 1.6.7 1.6 2.6-.1 9.1-5.3 10.1-6.2 10.3.5-3.9.1-7.8 1.4-10.6zM96.9 83.8c-.6 10.8-3 21.7-7.8 21.5-4.1-.1-6.1-7.8-6.1-15.4 0-9 3.8-20 3.8-20s3 .7 4.5.9c1.4.2 4.6.4 4.6.4.8 3.1 1.3 7.2 1 12.6z"/></svg>