<svg version="1.1" id="Layer_1" xmlns="http://www.w3.org/2000/svg" xmlns:xlink="http://www.w3.org/1999/xlink" x="0px" y="0px"
     viewBox="0 0 113.3 29.5" style="enable-background:new 0 0 113.3 29.5;" xml:space="preserve">
<style type="text/css">
	.st0{fill:#00B0B9;}
	.st1{fill:#002A3A;}
</style>
	<g>
		<g>
			<path class="st0" d="M16.4,2.2c0,1.2-1,2.2-2.2,2.2S12,3.4,12,2.2S13,0,14.2,0S16.4,1,16.4,2.2z M14.2,6.2c-1.3,0-2.3,1-2.3,2.3
				s1,2.3,2.3,2.3s2.3-1,2.3-2.3S15.5,6.2,14.2,6.2z M14.2,12.4c-1.3,0-2.4,1.1-2.4,2.4s1.1,2.4,2.4,2.4s2.4-1.1,2.4-2.4
				S15.5,12.4,14.2,12.4z M14.2,18.7c-1.3,0-2.3,1-2.3,2.3c0,1.3,1,2.3,2.3,2.3s2.3-1,2.3-2.3C16.5,19.8,15.5,18.7,14.2,18.7z
				 M14.2,25.1c-1.2,0-2.2,1-2.2,2.2c0,1.2,1,2.2,2.2,2.2s2.2-1,2.2-2.2C16.4,26.1,15.4,25.1,14.2,25.1z M20.3,5.9
				c-1.4,0-2.6,1.2-2.6,2.6s1.2,2.6,2.6,2.6s2.6-1.2,2.6-2.6S21.7,5.9,20.3,5.9z M20.3,12.1c-1.5,0-2.7,1.2-2.7,2.7
				c0,1.5,1.2,2.7,2.7,2.7s2.7-1.2,2.7-2.7C23,13.3,21.8,12.1,20.3,12.1z M20.3,18.4c-1.4,0-2.6,1.2-2.6,2.6c0,1.4,1.2,2.6,2.6,2.6
				s2.6-1.2,2.6-2.6C22.9,19.6,21.7,18.4,20.3,18.4z M26.6,11.8c-1.6,0-3,1.3-3,3c0,1.6,1.3,3,3,3s3-1.3,3-3
				C29.5,13.1,28.2,11.8,26.6,11.8z M8,6.5c-1.1,0-2,0.9-2,2s0.9,2,2,2s2-0.9,2-2S9.1,6.5,8,6.5z M8,12.7c-1.2,0-2.1,0.9-2.1,2.1
				c0,1.2,0.9,2.1,2.1,2.1s2.1-0.9,2.1-2.1C10.1,13.6,9.2,12.7,8,12.7z M8,19c-1.1,0-2,0.9-2,2c0,1.1,0.9,2,2,2s2-0.9,2-2
				C10,19.9,9.1,19,8,19z M1.8,13c-1,0-1.8,0.8-1.8,1.8s0.8,1.8,1.8,1.8s1.8-0.8,1.8-1.8S2.8,13,1.8,13z"/>
		</g>
	</g>
    <g>
		<g>
			<path class="st1" d="M52.2,10.9c-0.2,0-0.4,0.2-0.4,0.4v15.7c0,0.2,0.2,0.4,0.4,0.4h1.9c0.2,0,0.4-0.2,0.4-0.4V11.3
				c0-0.2-0.2-0.4-0.4-0.4H52.2z"/>
            <g>
				<g>
					<path class="st1" d="M53.2,4.3c-1,0-1.8,0.8-1.8,1.8c0,1,0.8,1.8,1.8,1.8c1,0,1.8-0.8,1.8-1.8C55,5.1,54.2,4.3,53.2,4.3z"/>
				</g>
			</g>
            <path class="st1" d="M92.5,10.9c-0.2,0-0.4,0.2-0.4,0.4v15.7c0,0.2,0.2,0.4,0.4,0.4h1.9c0.2,0,0.4-0.2,0.4-0.4V11.3
				c0-0.2-0.2-0.4-0.4-0.4H92.5z"/>
            <g>
				<g>
					<path class="st1" d="M93.4,4.3c-1,0-1.8,0.8-1.8,1.8c0,1,0.8,1.8,1.8,1.8c1,0,1.8-0.8,1.8-1.8C95.2,5.1,94.4,4.3,93.4,4.3z"/>
				</g>
			</g>
            <path class="st1" d="M112.4,25.9c0.1-0.1,0.1-0.2,0.1-0.3v0c0-0.1,0-0.1,0-0.1c0,0,0-0.1-0.1-0.1c0,0-0.1-0.1-0.2-0.1
				c-0.1,0-0.1,0-0.2,0h-0.5v1.4h0.2v-0.5h0.3h0l0.4,0.5h0.2l-0.5-0.6C112.3,26.1,112.4,26,112.4,25.9z M111.7,26v-0.5h0.4
				c0.1,0,0.2,0,0.3,0.1c0.1,0,0.1,0.1,0.1,0.2v0c0,0.1,0,0.2-0.1,0.2c-0.1,0-0.2,0.1-0.3,0.1H111.7z"/>
            <path class="st1" d="M112,24.7c-0.7,0-1.3,0.6-1.3,1.3c0,0.7,0.6,1.3,1.3,1.3s1.3-0.6,1.3-1.3C113.3,25.3,112.7,24.7,112,24.7z
				 M112,27.2c-0.7,0-1.2-0.5-1.2-1.2c0-0.7,0.5-1.2,1.2-1.2c0.7,0,1.2,0.5,1.2,1.2C113.2,26.7,112.6,27.2,112,27.2z"/>
            <path class="st1" d="M67.8,13.5c0.2,0,0.4-0.2,0.4-0.4v-1.9c0-0.2-0.2-0.4-0.4-0.4h-4v-6c0-0.2-0.2-0.4-0.4-0.4h-1.9
				c-0.2,0-0.4,0.2-0.4,0.4v6h-2c-0.2,0-0.4,0.2-0.4,0.4v1.9c0,0.2,0.2,0.4,0.4,0.4h2v9.1c0,2.8,1.9,4.6,4.6,4.6h2
				c0.2,0,0.4-0.2,0.4-0.4v-1.9c0-0.2-0.2-0.4-0.4-0.4H66c-1.3,0-2.2-0.9-2.2-2.3v-8.8H67.8z"/>
            <path class="st1" d="M107.6,13.5c0.2,0,0.4-0.2,0.4-0.4v-1.9c0-0.2-0.2-0.4-0.4-0.4h-4v-6c0-0.2-0.2-0.4-0.4-0.4h-1.9
				c-0.2,0-0.4,0.2-0.4,0.4v6h-2c-0.2,0-0.4,0.2-0.4,0.4v1.9c0,0.2,0.2,0.4,0.4,0.4h2v9.1c0,2.8,1.9,4.6,4.6,4.6h2
				c0.2,0,0.4-0.2,0.4-0.4v-1.9c0-0.2-0.2-0.4-0.4-0.4h-1.8c-1.3,0-2.2-0.9-2.2-2.3v-8.8H107.6z"/>
            <path class="st1" d="M40.3,13.5v13.4c0,0.2,0.2,0.4,0.4,0.4h1.9c0.2,0,0.4-0.2,0.4-0.4V13.5h4.4c0.2,0,0.4-0.2,0.4-0.4v-1.9
				c0-0.2-0.2-0.4-0.4-0.4H43V7.3c0-1.4,1-2.4,2.2-2.4h2.2c0.2,0,0.4-0.2,0.4-0.4V2.6c0-0.2-0.2-0.4-0.4-0.4h-2.1c-2.8,0-5,2.3-5,5
				v3.6h-2c-0.2,0-0.4,0.2-0.4,0.4v1.9c0,0.2,0.2,0.4,0.4,0.4H40.3z"/>
		</g>
            <path class="st1" d="M86.1,12.8c-1.5-1.6-3.6-2.5-5.8-2.5c-2.1,0-4.2,0.9-5.5,2.2v-10c0-0.2-0.2-0.4-0.4-0.4h-1.9
			c-0.2,0-0.4,0.2-0.4,0.4v16.5c0,6.1,4.1,8.8,8.1,8.8s8.1-2.7,8.1-8.8C88.4,16.6,87.6,14.4,86.1,12.8z M80.3,25.3
			c-4,0-5.5-3.2-5.5-6.2c0-3.7,2.2-6.1,5.5-6.1s5.5,2.5,5.5,6.1C85.7,22.1,84.3,25.3,80.3,25.3z"/>
	</g>
</svg>
