<svg xmlns="http://www.w3.org/2000/svg" width="160" height="30" viewBox="0 0 131.1 30"><path fill="#60a9dd" d="M3.3 2.5h24.4v24.4H3.3V2.5z"/><path fill="#fff" d="M9.1 24.5H6.4V12.2l2.7-.4v12.7zm4.7 0h-2.7v-7.8h2.5v1.4c.3-.5.7-.9 1.1-1.2.4-.2.9-.4 1.6-.4h.2v2.9h-.6c-.8 0-1.4.1-1.7.3-.3.2-.4.7-.4 1.4v3.4zm3.4 0l3.5-5.7h-3l.5-2H25l-3.5 5.7h3.4l-.3 2h-7.4z"/><path d="M32.3 18.8v-6.4h.7v5.8h2.4v.6h-3.1zm7.4-2.5h-3.1c0 1.4.5 2 1.6 2 .5 0 1-.1 1.4-.3l.1.6c-.4.2-1 .3-1.6.3-1.4 0-2.2-.8-2.2-2.4 0-1.4.8-2.5 2.1-2.5s1.8.9 1.8 1.9c-.1.1-.1.2-.1.4zm-1.8-1.8c-.7 0-1.1.5-1.2 1.2H39c0-.7-.4-1.2-1.1-1.2zm4.1 4.3h-.7v-4.1c-.2 0-.5-.1-.8-.1v-.4c.4-.1 1-.1 1.5-.1v4.7zm-.4-5.6c-.3 0-.5-.2-.5-.5s.2-.5.5-.5.5.2.5.5-.2.5-.5.5zm2.9 1c0 .3 0 .6-.1.9.3-.7.9-1.1 1.6-1.1 1.1 0 1.7.8 1.7 2.2 0 1.7-.9 2.6-2.4 2.6-.6 0-1.1 0-1.6-.2v-6.2c-.2 0-.5-.1-.8-.1v-.4c.4-.1 1-.1 1.5-.1v2.4zm1.4.4c-.9 0-1.4 1.1-1.4 1.9v1.6c.3.1.6.1.9.1 1 0 1.6-.6 1.6-2 0-1-.3-1.6-1.1-1.6zm4 .5c.3-.7.9-1.1 1.7-1.1 1.1 0 1.4.7 1.4 1.5v3.3h-.7v-3c0-.7-.2-1.2-.9-1.2-.8 0-1.4.8-1.4 2v2.3h-.7v-4.1c-.2 0-.5-.1-.8-.1v-.4c.4-.1 1-.1 1.5-.1 0 .2 0 .6-.1.9zm5.8 3.7H55v-4.1c-.2 0-.5-.1-.8-.1v-.4c.4-.1 1-.1 1.5-.1v4.7zm-.4-5.6c-.3 0-.5-.2-.5-.5s.2-.5.5-.5.5.2.5.5-.2.5-.5.5zm1.7 5.6v-.5l2.4-3.6h-2.3V14h3.2v.5l-2.4 3.6h2.5v.7H57zm4.1-2.1v-.6h2.2v.6h-2.2zm6.5 2.1l-2.3-2.9v2.9h-.7v-6.4h1.5c1.2 0 2.1.4 2.1 1.6 0 1.1-.9 1.8-2.1 1.8.2.2.4.5.6.7l1.9 2.3h-1zm-1.7-5.9h-.6v2.3h.6c1 0 1.6-.5 1.6-1.2-.1-.8-.6-1.1-1.6-1.1zm7.1 3.4h-3.1c0 1.4.5 2 1.6 2 .5 0 1-.1 1.4-.3l.1.6c-.4.2-1 .3-1.6.3-1.4 0-2.2-.8-2.2-2.4 0-1.4.8-2.5 2.1-2.5s1.8.9 1.8 1.9c-.1.1-.1.2-.1.4zm-1.9-1.8c-.7 0-1.1.5-1.2 1.2h2.4c0-.7-.5-1.2-1.2-1.2zm4.8 4.3c-1.1 0-2-.5-2-2.2 0-1.5.8-2.6 2.3-2.6.4 0 .8.1 1.1.2l-.1.6c-.3-.1-.7-.2-1.1-.2-1 0-1.5.7-1.5 1.9 0 1 .3 1.8 1.4 1.8.4 0 .9-.1 1.2-.3l.1.6c-.3.1-.8.2-1.4.2zm1.8-6.5v-.4c.4-.1 1-.1 1.5-.1v2.3c0 .3 0 .7-.1.9.3-.7.9-1.1 1.7-1.1 1.1 0 1.4.7 1.4 1.5v3.3h-.7v-3c0-.7-.2-1.2-.9-1.2-.8 0-1.4.8-1.4 2v2.3h-.7v-6.3c-.2-.1-.5-.1-.8-.2zm9.7 4h-3.1c0 1.4.5 2 1.6 2 .5 0 1-.1 1.4-.3l.1.6c-.4.2-1 .3-1.6.3-1.4 0-2.2-.8-2.2-2.4 0-1.4.8-2.5 2.1-2.5s1.8.9 1.8 1.9c-.1.1-.1.2-.1.4zm-1.8-1.8c-.7 0-1.1.5-1.2 1.2h2.4c-.1-.7-.5-1.2-1.2-1.2zm4 .6c.3-.7.9-1.1 1.7-1.1 1.1 0 1.4.7 1.4 1.5v3.3H92v-3c0-.7-.2-1.2-.9-1.2-.8 0-1.4.8-1.4 2v2.3H89v-4.1c-.2 0-.5-.1-.8-.1v-.4c.4-.1 1-.1 1.5-.1 0 .2 0 .6-.1.9zm4.4 3.7v-.5l2.4-3.6h-2.3V14h3.2v.5l-2.4 3.6h2.5v.7H94zm8-2.5h-3.1c0 1.4.5 2 1.6 2 .5 0 1-.1 1.4-.3l.1.6c-.4.2-1 .3-1.6.3-1.4 0-2.2-.8-2.2-2.4 0-1.4.8-2.5 2.1-2.5s1.8.9 1.8 1.9c-.1.1-.1.2-.1.4zm-1.9-1.8c-.7 0-1.1.5-1.2 1.2h2.4c0-.7-.5-1.2-1.2-1.2zm4 .6c.3-.7.9-1.1 1.7-1.1 1.1 0 1.4.7 1.4 1.5v3.3h-.7v-3c0-.7-.2-1.2-.9-1.2-.8 0-1.4.8-1.4 2v2.3h-.7v-4.1c-.2 0-.5-.1-.8-.1v-.4c.4-.1 1-.1 1.5-.1 0 .2 0 .6-.1.9zm6.2 3.7c-.9 0-1.2-.4-1.2-1.4v-2.8h-1V14h1v-1.6l.7-.2V14h1.4v.6h-1.4v2.5c0 .8.2 1.1.7 1.1.2 0 .5 0 .7-.1v.6c-.3.1-.6.1-.9.1zm2.9-3.5c.2-.7.7-1.4 1.7-1.3v.7c-1-.2-1.5.6-1.5 2.2v1.9h-.7v-4.1c-.2 0-.5-.1-.8-.1v-.4c.4-.1 1-.1 1.5-.1-.1.3-.1.7-.2 1.2zm6 3.5c0-.3 0-.7.1-1-.3.7-.9 1.1-1.7 1.1-1.1 0-1.4-.7-1.4-1.5v-2.7c-.2 0-.5-.1-.8-.1v-.4c.4-.1 1.1-.1 1.5-.1v3c0 .7.2 1.2.9 1.2.8 0 1.4-.8 1.4-2V14h.7v4.1c.2 0 .5.1.8.1v.4c-.4.2-1 .2-1.5.2zm8.7 0v-3c0-.7-.2-1.2-.8-1.2-.7 0-1.4.7-1.4 2v2.2h-.7v-3c0-.6-.1-1.2-.8-1.2-.8 0-1.4.8-1.4 2v2.2h-.8v-4.1c-.2 0-.5-.1-.8-.1v-.4c.4-.1 1-.1 1.5-.1 0 .3 0 .7-.1 1 .3-.7.9-1.1 1.7-1.1 1.1 0 1.3.8 1.3 1.1.2-.4.7-1.1 1.6-1.1.9 0 1.4.5 1.4 1.5v3.3h-.7zM34 24.5V24c-.1.3-.4.6-.8.6-.6 0-.9-.4-.9-1.1 0-.8.5-1.3 1.2-1.3h.4v-.8h-.4v-.2h.8v3.2h.4v.2c-.2-.1-.5-.1-.7-.1zm0-2c-.2 0-.3-.1-.5-.1-.5 0-.8.3-.8 1 0 .5.2.9.6.9.5 0 .7-.5.7-1v-.8zm3 .8h-1.6c0 .7.3 1 .8 1 .2 0 .5-.1.7-.2v.3c-.2.1-.5.1-.8.1-.7 0-1.1-.4-1.1-1.2 0-.7.4-1.2 1-1.2s.9.5.9 1c.1 0 .1.2.1.2zm-.9-.9c-.3 0-.6.2-.6.6h1.2c-.1-.4-.3-.6-.6-.6zm2 .3c.1-.4.4-.7.9-.6v.4c-.5-.1-.8.3-.8 1.1v.9h-.4v-2.1h-.4v-.2h.8c-.1.1-.1.3-.1.5zm3.2 1.8h-.8v-3.2h.9c.7 0 1 .3 1 .8 0 .4-.2.7-.6.8.5.1.7.4.7.7 0 .3-.2.9-1.2.9zm0-2.9h-.5v1.1h.3c.6 0 .9-.2.9-.6 0-.3-.1-.5-.7-.5zm-.1 1.4h-.3v1.2h.4c.6 0 .8-.3.8-.7 0-.4-.4-.5-.9-.5zm3.2 1.5V24c-.1.3-.4.5-.8.5s-.6-.2-.6-.6c0-.5.5-.8 1.4-.8v-.2c0-.4-.1-.6-.5-.6-.2 0-.5.1-.7.2v-.3c.2-.1.5-.2.8-.2.7 0 .8.3.8.8v1.4h.4v.2c-.2.1-.5.1-.8.1zm0-1.1c-.9 0-1.1.3-1.1.5s.2.4.4.4c.4 0 .7-.4.7-.9zm2.1 1.4c-.3.7-.5 1-1 1h-.3v-.3h.3c.3 0 .4-.1.6-.6l.1-.3-.9-2.4h.4l.5 1.4c.1.2.1.4.2.6 0-.2.1-.4.2-.7l.4-1.2h.4c.1-.1-.9 2.5-.9 2.5zm3.2-1.5h-1.6c0 .7.3 1 .8 1 .2 0 .5-.1.7-.2v.3c-.2.1-.5.1-.8.1-.7 0-1.1-.4-1.1-1.2 0-.7.4-1.2 1-1.2.7 0 .9.5.9 1 .1 0 .1.1.1.2zm-1-.9c-.3 0-.6.2-.6.6h1.2c0-.4-.2-.6-.6-.6zm2 .3c.1-.4.4-.7.9-.6v.4c-.5-.1-.8.3-.8 1.1v.9h-.4v-2.1H50v-.2h.8c0 .1 0 .3-.1.5zm1.9 1.8h-.4v-2.1h-.4v-.2h.8v2.3zm-.2-2.8c-.1 0-.2-.1-.2-.2s.1-.2.2-.2.2.1.2.2c.1.1 0 .2-.2.2zm1.4 2.9h-.5v-.3c.2 0 .3.1.5.1.3 0 .6-.2.6-.4 0-.6-1.1-.2-1.1-1.1 0-.4.3-.7.9-.7h.5v.3c-.2 0-.3-.1-.5-.1-.4 0-.5.1-.5.4 0 .6 1.2.2 1.2 1.1-.1.3-.4.7-1.1.7zm2.5-.1c-.5 0-1-.2-1-1.1 0-.8.4-1.3 1.2-1.3.2 0 .4 0 .6.1v.3c-.2-.1-.3-.1-.5-.1-.5 0-.8.4-.8.9s.2.9.7.9c.2 0 .4 0 .6-.1v.3c-.2.1-.5.1-.8.1zm.9-3.2v-.2h.8v1.7c.1-.4.4-.6.8-.6.5 0 .7.3.7.8v1.6h-.4V23c0-.4-.1-.6-.4-.6-.4 0-.7.4-.7 1v1.1h-.4v-3.2h-.4zm4.9 2h-1.6c0 .7.3 1 .8 1 .2 0 .5-.1.7-.2v.3c-.2.1-.5.1-.8.1-.7 0-1.1-.4-1.1-1.2 0-.7.4-1.2 1-1.2.7 0 .9.5.9 1 .1 0 .1.2.1.2zm-.9-.9c-.3 0-.6.2-.6.6h1.2c0-.4-.3-.6-.6-.6zm2 .3c.2-.3.4-.6.9-.6s.7.3.7.8v1.6h-.4V23c0-.4-.1-.6-.4-.6-.4 0-.7.4-.7 1v1.1h-.4v-2.1h-.4v-.2h.8c0 .1 0 .3-.1.5zm5.5 1.8l-.3-.8H67l-.3.8h-.4l1.2-3.2h.4l1.2 3.2h-.4zm-.9-2.3c-.1-.2-.1-.3-.1-.5 0 .2-.1.3-.1.5l-.5 1.3h1.2l-.5-1.3zm3.1 2.3l-.9-1.2v1.2h-.4v-3.2h-.4v-.2h.8v2.2l.9-1.1h.4l-.9 1.1 1 1.3c0-.1-.5-.1-.5-.1zm2.2 0V24c-.1.3-.4.5-.8.5s-.6-.2-.6-.6c0-.5.5-.8 1.4-.8v-.2c0-.4-.1-.6-.5-.6-.2 0-.5.1-.7.2v-.3c.2-.1.5-.2.8-.2.7 0 .8.3.8.8v1.4h.4v.2c-.3.1-.6.1-.8.1zm0-1.1c-.9 0-1.1.3-1.1.5s.2.4.4.4c.4 0 .7-.4.7-.9zm2.7 1.1V24c-.1.3-.4.6-.8.6-.6 0-.9-.4-.9-1.1 0-.8.5-1.3 1.2-1.3h.4v-.8h-.4v-.2h.8v3.2h.4v.2c-.2-.1-.5-.1-.7-.1zm0-2c-.2 0-.3-.1-.5-.1-.5 0-.8.3-.8 1 0 .5.2.9.6.9.5 0 .7-.5.7-1v-.8zm3 .8h-1.6c0 .7.3 1 .8 1 .2 0 .5-.1.7-.2v.3c-.2.1-.5.1-.8.1-.7 0-1.1-.4-1.1-1.2 0-.7.4-1.2 1-1.2.7 0 .9.5.9 1 .1 0 .1.1.1.2zm-.9-.9c-.3 0-.6.2-.6.6h1.2c-.1-.4-.3-.6-.6-.6zm4.7 2.1V23c0-.4-.1-.6-.4-.6-.4 0-.7.4-.7 1v1.1h-.4V23c0-.3-.1-.6-.4-.6-.4 0-.7.4-.7 1v1.1h-.4v-2.1h-.4v-.2h.8v.5c.1-.4.4-.6.8-.6.5 0 .6.4.7.6.1-.2.4-.6.8-.6s.7.2.7.8v1.6h-.4zm1.6 0h-.4v-2.1h-.4v-.2h.8v2.3zm-.1-2.8c-.1 0-.2-.1-.2-.2s.1-.2.2-.2.2.1.2.2-.1.2-.2.2zm2.7 1.6h-1.6c0 .7.3 1 .8 1 .2 0 .5-.1.7-.2v.3c-.2.1-.5.1-.8.1-.7 0-1.1-.4-1.1-1.2 0-.7.4-1.2 1-1.2s.9.5.9 1c.2 0 .2.1.1.2zm-.9-.9c-.3 0-.6.2-.6.6h1.2c0-.4-.2-.6-.6-.6zm4.1 2.1V24c-.1.3-.4.6-.8.6-.6 0-.9-.4-.9-1.1 0-.8.5-1.3 1.2-1.3h.4v-.8h-.4v-.2h.8v3.2h.4v.2c-.2-.1-.5-.1-.7-.1zm0-2c-.2 0-.3-.1-.5-.1-.5 0-.8.3-.8 1 0 .5.2.9.6.9.5 0 .7-.5.7-1v-.8zm3 .8h-1.6c0 .7.3 1 .8 1 .2 0 .5-.1.7-.2v.3c-.2.1-.5.1-.8.1-.7 0-1.1-.4-1.1-1.2 0-.7.4-1.2 1-1.2.7 0 .9.5.9 1 .1 0 .1.2.1.2zm-.9-.9c-.3 0-.6.2-.6.6h1.2c-.1-.4-.3-.6-.6-.6zm2 .3c.1-.4.4-.7.9-.6v.4c-.5-.1-.8.3-.8 1.1v.9h-.4v-2.1h-.4v-.2h.8c-.1.1-.1.3-.1.5zm5.2 1.8h-.5l-.7-2.3c0-.2-.1-.4-.1-.5 0 .2-.1.3-.1.5l-.7 2.3h-.4l-.8-3.2h.4l.6 2.2c.1.2.1.4.1.6 0-.2.1-.4.1-.6l.6-2.2h.4l.7 2.3c0 .2.1.4.1.5 0-.2.1-.3.1-.5l.6-2.3h.4l-.8 3.2zm1.9 0h-.4v-2.1h-.4v-.2h.8v2.3zm-.1-2.8c-.1 0-.2-.1-.2-.2s.1-.2.2-.2.2.1.2.2-.1.2-.2.2zm1.4 2.9h-.5v-.3c.2 0 .3.1.5.1.3 0 .6-.2.6-.4 0-.6-1.1-.2-1.1-1.1 0-.4.3-.7.9-.7h.5v.3c-.2 0-.3-.1-.5-.1-.4 0-.5.1-.5.4 0 .6 1.2.2 1.2 1.1-.1.3-.5.7-1.1.7zm2 0h-.5v-.3c.2 0 .3.1.5.1.3 0 .6-.2.6-.4 0-.6-1.1-.2-1.1-1.1 0-.4.3-.7.9-.7h.5v.3c-.2 0-.3-.1-.5-.1-.4 0-.5.1-.5.4 0 .6 1.2.2 1.2 1.1-.1.3-.5.7-1.1.7zm3.4-1.3h-1.6c0 .7.3 1 .8 1 .2 0 .5-.1.7-.2v.3c-.2.1-.5.1-.8.1-.7 0-1.1-.4-1.1-1.2 0-.7.4-1.2 1-1.2s.9.5.9 1c.1 0 .1.1.1.2zm-.9-.9c-.3 0-.6.2-.6.6h1.2c0-.4-.3-.6-.6-.6zm2 .3c.2-.3.4-.6.9-.6s.7.3.7.8v1.6h-.4V23c0-.4-.1-.6-.4-.6-.4 0-.7.4-.7 1v1.1h-.4v-2.1h-.4v-.2h.8c0 .1-.1.3-.1.5zm2.8 1.9h-.5v-.3c.2 0 .3.1.5.1.3 0 .6-.2.6-.4 0-.6-1.1-.2-1.1-1.1 0-.4.3-.7.9-.7h.5v.3c-.2 0-.3-.1-.5-.1-.4 0-.5.1-.5.4 0 .6 1.2.2 1.2 1.1-.1.3-.5.7-1.1.7zm2.5-.1c-.5 0-1-.2-1-1.1 0-.8.4-1.3 1.2-1.3.2 0 .4 0 .6.1v.3c-.2-.1-.3-.1-.5-.1-.5 0-.8.4-.8.9s.2.9.7.9c.2 0 .4 0 .6-.1v.3c-.3.1-.5.1-.8.1zm.9-3.2v-.2h.8v1.7c.1-.4.4-.6.8-.6.5 0 .7.3.7.8v1.6h-.4V23c0-.4-.1-.6-.4-.6-.4 0-.7.4-.7 1v1.1h-.4v-3.2h-.4zm4.4 3.2V24c-.1.3-.4.5-.8.5s-.6-.2-.6-.6c0-.5.5-.8 1.4-.8v-.2c0-.4-.1-.6-.5-.6-.2 0-.5.1-.7.2v-.3c.2-.1.5-.2.8-.2.7 0 .8.3.8.8v1.4h.4v.2c-.3.1-.6.1-.8.1zm0-1.1c-.9 0-1.1.3-1.1.5s.2.4.4.4c.4 0 .7-.4.7-.9zm2.6-2h-.4c-.4 0-.5.2-.5.7v.2h.7v.3h-.7v2.1h-.3v-2.1h-.5v-.3h.5V22c0-.7.3-1 .9-1h.4c0 .1-.1.4-.1.4z"/><path d="M123.1 24.6c-.5 0-.6-.2-.6-.7v-1.4h-.5v-.3h.5v-.8l.4-.1v.9h.7v.3h-.7v1.3c0 .4.1.5.4.5h.3v.3c-.1-.1-.3 0-.5 0zm2.8-1.3h-1.6c0 .7.3 1 .8 1 .2 0 .5-.1.7-.2v.3c-.2.1-.5.1-.8.1-.7 0-1.1-.4-1.1-1.2 0-.7.4-1.2 1-1.2.7 0 .9.5.9 1 .1 0 .1.2.1.2zm-.9-.9c-.3 0-.6.2-.6.6h1.2c0-.4-.2-.6-.6-.6zm2 .3c.2-.3.4-.6.9-.6s.7.3.7.8v1.6h-.4V23c0-.4-.1-.6-.4-.6-.4 0-.7.4-.7 1v1.1h-.4v-2.1h-.4v-.2h.8c0 .1 0 .3-.1.5z"/></svg>
