<svg xmlns="http://www.w3.org/2000/svg" id="Layer_1" width="110" height="30" viewBox="0 0 365 130"><style>.st0{fill:#fd0001}.st1{fill:#fff}.st2{fill:#010101}</style><path d="M0 0h130.2v130.2H0z" class="st0"/><path d="M24.5 24.9H33v71.4h12.7v8.8H24.5zM84.2 25h21.6v8.7h-13v25.7H105v9.4H92.8v27.5h13v8.8H84.2zM53.2 105.1V96.3h2.7c3.5 0 9.5-2.5 10.4-8 .8-5.4.2-9.3-6.7-21.1l-.1-.2c-4.8-7.8-9.4-14.7-7.7-25.4 1.8-11.7 11-16.8 19.3-16.7h2.7V33.7h-2.7c-3.5 0-9.6 2.4-10.5 8-.8 5.4-.3 8.9 6.5 20.5l.2.3c5 8 9.5 15.2 7.8 25.9-1.9 11.7-10.8 16.9-19.1 16.7h-2.8" class="st1"/><path d="M157.8 32.8h-3.4v-1.4h8.3v1.4h-3.3v9.4h-1.6zM164.3 31.4h1.6v4.5h5.1v-4.5h1.6v10.8H171v-4.9h-5.1v4.9h-1.6zM175.4 31.4h6.1v1.4H177v3.1h4.1v1.4H177v3.6h4.5v1.3h-6.1zM190.4 24.9h2.5v15.2h7.3v2.1h-9.8zM201.7 35c0 4.4 2.5 7.4 6.9 7.4s6.9-3.1 6.9-7.4c0-4.3-2.6-7.4-6.9-7.4-4.4 0-6.9 3.2-6.9 7.4m2.2 0c0-2.9 1.6-5.6 4.8-5.6 3.2 0 4.8 2.7 4.8 5.6 0 2.9-1.4 5.6-4.8 5.6-3.4.1-4.8-2.7-4.8-5.6M218.4 27.8h2.8l6.4 11.6h.1V27.8h2v14.4h-2.6l-6.6-11.8v11.8h-2.1zM233.2 42.2h4.2c4.7 0 7.7-2.5 7.7-7.3 0-4.4-3.4-7.1-7.7-7.1h-4.2v14.4zm2-12.6h2.4c3 0 5.3 2 5.3 5.3 0 3.7-2 5.4-5.5 5.4h-2.2V29.6zM247.4 35c0 4.4 2.5 7.4 6.9 7.4s6.9-3.1 6.9-7.4c0-4.3-2.5-7.4-6.9-7.4s-6.9 3.2-6.9 7.4m2.2 0c0-2.9 1.6-5.6 4.8-5.6 3.2 0 4.8 2.7 4.8 5.6 0 2.9-1.4 5.6-4.8 5.6-3.4.1-4.8-2.7-4.8-5.6M264.1 27.8h2.8l6.4 11.6h.1V27.8h2v14.4h-2.6l-6.6-11.8v11.8h-2.1zM292.9 27.5c-1.3-.5-2-.7-3.3-.7-1.4 0-3 .5-3 2.3 0 3.3 7.5 2.6 7.5 8.3 0 3.7-2.8 5.2-6.3 5.2-1.2 0-2.4-.3-3.6-.7l.2-2.3c.8.3 2.3.8 3.6.8 1.4 0 3.4-.8 3.4-2.8 0-3.9-7.5-2.8-7.5-8.2 0-3.1 2.4-4.7 5.6-4.7 1.2 0 2.5.2 3.7.6l-.3 2.2zM307 30.2c-.9-.5-1.9-.8-3-.8-3.3 0-5.5 2.4-5.5 5.6 0 3.4 2.4 5.6 5.4 5.6 1 0 2.4-.3 3.1-.7l.1 2c-1.1.5-2.4.5-3.3.5-4.6 0-7.6-2.9-7.6-7.5 0-4.4 3.2-7.4 7.6-7.4 1.1 0 2.2.2 3.2.6v2.1zM309.7 27.8h2.1v6h6.9v-6h2v14.4h-2v-6.5h-6.9v6.5h-2.1zM323.7 35c0 4.4 2.5 7.4 6.9 7.4s6.9-3.1 6.9-7.4c0-4.3-2.6-7.4-6.9-7.4-4.3 0-6.9 3.2-6.9 7.4m2.2 0c0-2.9 1.6-5.6 4.8-5.6 3.2 0 4.8 2.7 4.8 5.6 0 2.9-1.4 5.6-4.8 5.6-3.4.1-4.8-2.7-4.8-5.6M339.7 35c0 4.4 2.5 7.4 6.9 7.4s6.9-3.1 6.9-7.4c0-4.3-2.6-7.4-6.9-7.4-4.3 0-6.9 3.2-6.9 7.4m2.2 0c0-2.9 1.6-5.6 4.8-5.6 3.2 0 4.8 2.7 4.8 5.6 0 2.9-1.4 5.6-4.8 5.6-3.4.1-4.8-2.7-4.8-5.6M356.4 27.8h2.1v12.6h6v1.8h-8.1zM154.5 105.1h2.5v-6.9h2.4c3.1 0 6.1-1.4 6.1-5.2 0-4-2.9-5.2-6.5-5.2h-4.6v17.3zm2.5-15.2h2.1c1.5 0 3.8.8 3.8 3 0 2.3-1.9 3.1-3.5 3.1H157v-6.1zM167.4 97.9c0 4.4 2.5 7.4 6.9 7.4s6.9-3.1 6.9-7.4c0-4.3-2.6-7.4-6.9-7.4s-6.9 3.1-6.9 7.4m2.2 0c0-2.9 1.6-5.6 4.8-5.6 3.2 0 4.8 2.7 4.8 5.6 0 2.9-1.4 5.6-4.8 5.6s-4.8-2.7-4.8-5.6M184.3 90.7h2v12.6h6v1.8h-8zM194.7 90.7h2.1v14.4h-2.1zM203.3 92.5h-4.5v-1.8h11.1v1.8h-4.5v12.6h-2.1zM212 90.7h2.1v14.4H212zM227.7 93.1c-.9-.5-1.9-.8-3-.8-3.3 0-5.5 2.4-5.5 5.6 0 3.4 2.4 5.6 5.4 5.6 1 0 2.4-.3 3.1-.7l.1 2c-1.1.5-2.4.5-3.3.5-4.6 0-7.6-2.9-7.6-7.5 0-4.4 3.2-7.4 7.6-7.4 1.1 0 2.2.2 3.2.6v2.1zM228.8 105.1h2.2l1.5-3.6h7.1l1.5 3.6h2.3l-6.1-14.4H235l-6.2 14.4zm10-5.3h-5.7l2.9-7.1 2.8 7.1zM245.3 90.7h2.1v12.6h6v1.8h-8.1zM269.8 90.4c-1.3-.5-2-.7-3.3-.7-1.4 0-3 .5-3 2.3 0 3.3 7.5 2.6 7.5 8.3 0 3.7-2.8 5.2-6.3 5.2-1.2 0-2.4-.3-3.5-.7l.2-2.3c.8.3 2.3.8 3.6.8 1.4 0 3.4-.8 3.4-2.8 0-3.9-7.5-2.8-7.5-8.2 0-3.1 2.4-4.7 5.6-4.7 1.1 0 2.5.2 3.7.6l-.4 2.2zM283.9 93.1c-.9-.5-1.9-.8-3-.8-3.3 0-5.5 2.4-5.5 5.6 0 3.4 2.4 5.6 5.4 5.6 1 0 2.4-.3 3.1-.7l.1 2c-1.1.5-2.4.5-3.3.5-4.6 0-7.6-2.9-7.6-7.5 0-4.4 3.2-7.4 7.6-7.4 1.1 0 2.2.2 3.2.6v2.1zM286.7 90.7h2.1v14.4h-2.1zM292.5 90.7h8.1v1.8h-6v4.2h5.5v1.8h-5.5v4.8h6v1.8h-8.1zM303.9 90.7h2.9l6.3 11.6h.1V90.7h2v14.4h-2.6L306 93.2v11.9h-2.1zM328.9 93.1c-.9-.5-1.9-.8-3-.8-3.3 0-5.5 2.4-5.5 5.6 0 3.4 2.4 5.6 5.4 5.6 1 0 2.4-.3 3.1-.7l.1 2c-1.1.5-2.4.5-3.3.5-4.6 0-7.6-2.9-7.6-7.5 0-4.4 3.2-7.4 7.6-7.4 1.1 0 2.2.2 3.2.6v2.1zM331.7 90.7h8.1v1.8h-6.1v4.2h5.5v1.8h-5.5v4.8h6.1v1.8h-8.1zM154.5 68.2c0 3.3 1.9 5.6 5.2 5.6 3.3 0 5.2-2.3 5.2-5.6 0-3.2-1.9-5.6-5.2-5.6-3.3 0-5.2 2.4-5.2 5.6m1.6 0c0-2.2 1.2-4.2 3.6-4.2 2.4 0 3.6 2 3.6 4.2s-1.1 4.2-3.6 4.2-3.6-2-3.6-4.2M168.3 62.8h5.8v1.4h-4.2v3.1h4v1.4h-4v4.9h-1.6zM186 56.3h9.7v2.1h-7.2v5.1h6.6v2.2h-6.6v5.7h7.2v2.2H186zM211.4 61.6c-.9-.5-1.9-.8-3-.8-3.3 0-5.5 2.4-5.5 5.6 0 3.4 2.4 5.6 5.4 5.6 1 0 2.4-.3 3.1-.7l.1 2c-1.1.5-2.4.5-3.3.5-4.6 0-7.6-2.9-7.6-7.5 0-4.4 3.2-7.4 7.6-7.4 1.1 0 2.2.2 3.2.6v2.1zM215.1 66.4c0 4.4 2.5 7.4 6.9 7.4s6.9-3.1 6.9-7.4c0-4.3-2.6-7.4-6.9-7.4s-6.9 3.1-6.9 7.4m2.2 0c0-2.9 1.6-5.6 4.8-5.6 3.2 0 4.8 2.7 4.8 5.6 0 2.9-1.4 5.6-4.8 5.6s-4.8-2.7-4.8-5.6M233.7 59.2h2.8l6.4 11.6V59.2h2.1v14.4h-2.7l-6.5-11.8h-.1v11.8h-2zM249.6 66.4c0 4.4 2.5 7.4 6.9 7.4s6.9-3.1 6.9-7.4c0-4.3-2.6-7.4-6.9-7.4-4.3 0-6.9 3.1-6.9 7.4m2.2 0c0-2.9 1.6-5.6 4.8-5.6 3.2 0 4.8 2.7 4.8 5.6 0 2.9-1.4 5.6-4.8 5.6s-4.8-2.7-4.8-5.6M268.2 59.2h3.4l4.6 12 4.4-12h3.4v14.4h-2V61.1h-.1l-4.8 12.5h-2l-4.8-12.5v12.5h-2.1zM289.5 59.2h2.1v14.4h-2.1zM307 61.6c-.9-.5-1.9-.8-3-.8-3.3 0-5.5 2.4-5.5 5.6 0 3.4 2.4 5.6 5.4 5.6 1 0 2.4-.3 3.1-.7l.1 2c-1.1.5-2.4.5-3.3.5-4.6 0-7.6-2.9-7.6-7.5 0-4.4 3.2-7.4 7.6-7.4 1.1 0 2.2.2 3.2.6v2.1zM318 61.4c-1-.4-1.6-.6-2.7-.6-1.2 0-2.5.4-2.5 1.9 0 2.8 6.2 2.1 6.2 6.9 0 3.1-2.4 4.3-5.3 4.3-1 0-2-.3-3-.6l.2-1.9c.7.3 1.9.7 3 .7 1.2 0 2.9-.7 2.9-2.4 0-3.2-6.2-2.3-6.2-6.8 0-2.6 2-3.9 4.6-3.9 1 0 2.1.2 3.1.5l-.3 1.9zM329.4 73.6h1.6l1.1-2.7h5.3l1.1 2.7h1.7l-4.6-10.8H334l-4.6 10.8zm7.5-4h-4.3l2.2-5.4 2.1 5.4zM343.1 62.8h2.1l4.8 8.7v-8.7h1.5v10.8h-1.9l-4.9-8.9h-.1v8.9h-1.5zM355.5 73.6h3.2c3.6 0 5.7-1.9 5.7-5.5 0-3.3-2.5-5.3-5.7-5.3h-3.2v10.8zm1.6-9.4h1.8c2.2 0 3.9 1.5 3.9 4 0 2.8-1.5 4.1-4.1 4.1h-1.6v-8.1z" class="st2"/><path d="M350 90.6h14.4V105H350z" class="st0"/><path fill="none" d="M389.2-30.9H-42.9V154h432.1V-30.9"/></svg>
