<svg xmlns="http://www.w3.org/2000/svg" id="Layer_1" width="60" height="30" viewBox="0 0 2500 1378"><style>.st0{fill-rule:evenodd;clip-rule:evenodd;fill:#bf0e88}</style><path d="M25.7 649.5h244.6v247.8H25.7V649.5z" class="st0"/><path d="M614.1 1047.4c0 164.1 28 190.6 202.1 192.4v69.6H224.7v-69.6c174.2-1.8 202.1-28.3 202.1-192.4v-902c-200.3 3.5-317 137.8-334.5 383l-64.5-10.6L40.1 87h961l12.2 430.8-64.3 10.6c-17.5-245.3-136-379.5-334.6-383l-.3 902z" class="st0"/><path d="M767.8 649.5h244.6v247.8H767.8V649.5zm730.1 0h244.6v247.8h-244.6V649.5zm731.8 0h244.6v247.8h-244.6V649.5z" class="st0"/></svg>