<svg xmlns="http://www.w3.org/2000/svg" id="Layer_1" width="125" height="30" viewBox="0 0 652 182"><style>.st2{fill:#0c0407}.st3{fill:#ff8700}</style><path d="M217 100.4l10.1-29.9 10.1 29.9H217zm3.3-45.5l-24.9 71.8h13l4.6-13.8h28.2l4.6 13.8h13.5l-24.9-71.8h-14.1zM297.2 112.8c-1.8 2.3-4.5 4.1-8.4 4.1-9.8 0-11.8-9.2-11.8-16.7s2-16.8 11.8-16.8c3.9 0 6.6 1.8 8.4 4.1 2.6 3.4 3.3 8.2 3.3 12.7s-.7 9.2-3.3 12.6m6.7-35.5c-3.2-2.6-7.4-4.4-12.6-4.4-5.7 0-11.5 2.2-14.6 7l-.8-5.6h-10.3v70.4H278v-22.3c1.4 2.9 7.2 5.1 13.4 5.1 5.3 0 9.4-1.6 12.6-4.2 6.2-5.1 9.2-13 9.2-23.2.1-9.9-3.1-17.7-9.3-22.8M351.3 112.8c-1.8 2.3-4.5 4.1-8.4 4.1-9.8 0-11.8-9.2-11.8-16.7s2-16.8 11.8-16.8c3.9 0 6.6 1.8 8.4 4.1 2.6 3.4 3.3 8.2 3.3 12.7s-.7 9.2-3.3 12.6m6.7-35.5c-3.2-2.6-7.4-4.4-12.6-4.4-5.7 0-11.5 2.2-14.6 7l-.8-5.6h-10.6v70.4h12.4v-22.4c2.8 2.9 7.3 5.1 13.5 5.1 5.3 0 9.5-1.6 12.7-4.2 6.2-5.1 9.3-13 9.3-23.2 0-9.8-3.1-17.6-9.3-22.7M418.7 103.2l-29.9-48.3h-14.3v71.8h13.8V77.4l30.2 49.3h14V54.9h-13.8zM453.6 86.8c1.8-2.4 4.9-4 8.7-4 3.6 0 6.2 1.2 7.9 3 2 2.2 3.1 5 3.2 9.1h-22.5c.1-4.1.9-5.8 2.7-8.1m16.5 27.9c-1.8 1.8-4 2.6-7.6 2.6-3.4 0-5.9-1.1-7.7-2.8-2.5-2.4-3.9-7.1-3.8-9.8h34.8c0-1.4.1-3.8.1-3.8.2-6.5-.7-12.6-4.5-18.3-4.3-6.5-11.3-9.7-19-9.7-7.1 0-12.7 2.6-16.6 6.6-5 5.1-7.5 12.5-7.5 20.8 0 8.5 2.8 15.8 8 20.8 4.1 3.9 9.3 6.4 16.4 6.4 6.6 0 13.1-2.3 17.5-7.5 2-2.4 4.1-5.6 4.4-9.8h-12c-.5 2.7-1.4 3.4-2.5 4.5"/><path d="M522.9 74.2L511.6 91 500 74.2h-14.4l18.3 25.8-18.2 26.7h13.7l11.4-17.4 11.6 17.4h14.1l-17.8-26.6 17.9-25.9zM573.3 101.6c0 4.2-.9 8.9-3.9 11.7-1.5 1.5-3.5 2.6-6.4 2.6-6.6 0-9-3.8-9-9.9V74.3h-12.4v34.5c0 11.1 6.9 18.6 18 18.6 6.6 0 12.4-2.7 14.9-7.8l.9 7.1h10.5V74.3h-12.4v27.3h-.2zM622.5 95.3c-5.1-.8-6.4-.9-11.1-1.5-2.8-.4-6-1.5-6-5.2 0-2.7 1.8-4.6 4-5.5 1.9-.8 3.6-.8 5.4-.8 2.6 0 5.3.8 6.8 2.3 1.2 1.3 2.1 3.4 2.1 4.8h11.9c0-4.1-1.8-7.6-4.6-10.6-3.8-4.1-10.1-6.1-16.3-6.1-6.5 0-12 1.9-15.8 5.2-3.1 2.7-5.3 6.4-5.3 11.7 0 6.6 4.8 12.4 11.9 13.9 4.6 1 9.8 1.3 14.4 2 3.2.5 5.2 2.5 5.2 5.5 0 5.7-6.4 6.6-10.6 6.6-3.6 0-5.9-1-7.9-2.6-1.6-1.3-2.8-3.6-2.8-6.4h-11.7c0 5.5 2.5 9.5 5.5 12.4 4.3 4.1 10.2 6.1 16.8 6.1 7.1 0 13.6-1.7 17.8-5.9 2.7-2.7 4.5-6.4 4.5-11.4 0-8.1-6-13.2-14.2-14.5"/><path d="M159.4 54.9V19.1h-35.9c0 19.7 16.1 35.8 35.9 35.8" class="st3"/><path d="M159.4 67.4c-26.6 0-48.3-21.7-48.3-48.3h-47c.3 25.3 10.3 49.1 28.3 67 17.9 17.9 41.7 27.9 67 28.2V67.4zM123.5 162.6h35.9v-35.9c-16.6 0-32.3-3.9-46.3-10.6 6.7 14 10.4 29.8 10.4 46.5M51.7 162.6c0-19.8-16-35.8-35.8-35.9v35.9h35.8z" class="st3"/><path d="M15.9 67.4v46.8c26.6 0 48.3 21.8 48.3 48.4h47c-.3-25.3-10.3-49.1-28.2-67-18-17.9-41.9-28-67.1-28.2M51.7 19.1H15.9V55c16.5 0 32.3 3.9 46.4 10.6-6.8-14.1-10.6-29.9-10.6-46.5" class="st3"/></svg>