<?xml version="1.0" encoding="utf-8"?>
<!-- Generator: Adobe Illustrator 23.0.1, SVG Export Plug-In . SVG Version: 6.00 Build 0)  -->
<svg version="1.1" id="Layer_1" xmlns="http://www.w3.org/2000/svg" xmlns:xlink="http://www.w3.org/1999/xlink" x="0px" y="0px"
	 viewBox="0 0 100 47" style="enable-background:new 0 0 100 47;" xml:space="preserve">
<style type="text/css">
	.st0{fill-rule:evenodd;clip-rule:evenodd;fill:#5B5B5B;}
</style>
<g>
	<polygon class="st0" points="71.6,18 69.6,18 69.6,30.4 79.1,30.4 80.4,28.3 71.6,28.3 71.6,18 71.6,18 	"/>
	<path class="st0" d="M43.8,18.6l-7.4,11.8h2.5l2.2-3.6h4.8l1.3-2h-4.8l2.6-4.1l6.1,9.7h2.5L46,18.5l0,0
		C45.5,17.8,44.3,17.8,43.8,18.6L43.8,18.6L43.8,18.6L43.8,18.6z"/>
	<path class="st0" d="M58.2,20h8.5l1.3-2l-9.8,0l0,0c-3.4,0-5.7,2.8-5.7,6.2c0,3.4,2.3,6.2,5.7,6.2l0,0l8.3,0l1.3-2h-9.6l0,0
		c-2.3,0-3.7-1.9-3.7-4.2C54.5,21.9,55.9,20,58.2,20L58.2,20L58.2,20L58.2,20z"/>
	<path class="st0" d="M14.7,18H5.9l0,0c-3.4,0-5.7,2.8-5.7,6.2c0,3.4,2.3,6.2,5.7,6.2l0,0h8.8l0,0c3.4,0,5.7-2.8,5.7-6.2
		C20.4,20.7,18.1,18,14.7,18L14.7,18L14.7,18L14.7,18z M14.7,28.3H5.9l0,0c-2.3,0-3.7-1.9-3.7-4.2c0-2.3,1.3-4.2,3.7-4.2l0,0h8.8
		l0,0c2.3,0,3.7,1.9,3.7,4.2C18.4,26.5,17,28.3,14.7,28.3L14.7,28.3L14.7,28.3L14.7,28.3z"/>
	<path class="st0" d="M86.2,20h8.5l1.3-2l-9.8,0l0,0c-3.4,0-5.7,2.8-5.7,6.2c0,3.4,2.3,6.2,5.7,6.2l0,0l8.3,0l1.3-2h-9.6l0,0
		c-2,0-3.2-1.4-3.6-3.2l0,0h10.7l1.3-2h-12l0,0C83,21.3,84.2,20,86.2,20L86.2,20L86.2,20L86.2,20z"/>
	<path class="st0" d="M31.9,25.3c2,0,3.7-1.6,3.7-3.7c0-2-1.6-3.7-3.7-3.7l0,0l-10.3,0v12.4h2.3V20h8.1l0,0c0.9,0,1.7,0.7,1.7,1.7
		c0,0.9-0.7,1.7-1.7,1.7l0,0h-6.5l7.3,7h2.9l-5.2-5L31.9,25.3L31.9,25.3L31.9,25.3z"/>
	<path class="st0" d="M98.1,17.8c-0.6,0-1.1,0.5-1.1,1.1c0,0.6,0.5,1.1,1.1,1.1c0.6,0,1.1-0.5,1.1-1.1
		C99.2,18.3,98.7,17.8,98.1,17.8L98.1,17.8L98.1,17.8L98.1,17.8z M98.1,19.8c-0.5,0-0.9-0.4-0.9-0.9c0-0.5,0.4-0.9,0.9-0.9
		c0.5,0,0.9,0.4,0.9,0.9C99,19.4,98.6,19.8,98.1,19.8L98.1,19.8L98.1,19.8L98.1,19.8z"/>
	<path class="st0" d="M98.3,19c0.2,0,0.3-0.1,0.3-0.4c0-0.3-0.1-0.4-0.5-0.4l0,0h-0.5v1.3h0.2V19h0.2l0.3,0.6h0.2L98.3,19L98.3,19
		L98.3,19z M97.9,18.8v-0.4h0.3l0,0c0.1,0,0.3,0,0.3,0.2c0,0.2-0.1,0.2-0.3,0.2l0,0H97.9L97.9,18.8L97.9,18.8z"/>
</g>
</svg>
