<svg xmlns="http://www.w3.org/2000/svg" width="90" height="30" viewBox="0 0 1024 288"><path fill="#6982a2" d="M55.2 8.4c-35 1.8-47 17.2-47 46.8v94s17.3-15 50.1-15h149.1c29.4 0 58.8-9.7 58.8-44.2V51c0-30.4-11-42.7-45.9-42.7H62.6c-2.5.1-5 0-7.4.1zm307.3 2.4v52h18.7c5.4 0 10.1-1.6 13.5-5 5.8-5.8 5.2-13.3 5.2-21.1 0-7.8.6-15-5.2-20.9-3.4-3.4-8.1-5-13.5-5h-18.7zm227.5 0v52h9.4V39.5c0-5 3.1-6.5 6.1-6.5 3 0 6.3 1.5 6.3 6.5v23.3h9.4V38.2c0-8-4.4-13.9-12.6-13.9-3.3 0-6.6 1.5-9.1 4.1V10.8H590zm-97.1 3.9v11.1H489v7.4h3.9v18.7c0 5.4 3.4 10.9 11.1 10.9h5v-8.1h-3.3c-2.2 0-3.3-1.3-3.3-3.5v-18h6.5v-7.4h-6.5V14.7h-9.5zm-120.3 5.2h7.6c3.5 0 5.9 1.2 7.6 3.3 1.9 2.3 2.2 5.6 2.2 13.5s-.3 11.6-2.2 13.9c-1.7 2.1-4.1 3.3-7.6 3.3h-7.6v-34zm51.7 4.4c-9.8 0-16.5 7.2-16.5 19.6 0 15.4 8.7 19.4 17.6 19.4 6.8 0 10.5-2 14.4-5.9l-5.9-5.7c-2.4 2.4-4.4 3.5-8.5 3.5-5.3 0-8.3-3.6-8.3-8.5h23.7v-4.1c.1-10.5-5.9-18.3-16.5-18.3zm107.6 0c-7.7 0-14.6 4.3-14.6 12.2 0 7 4.3 10 11.1 10.7l5.9.6c3 .3 4.1 1.6 4.1 3.5 0 2.8-3.5 3.9-6.7 3.9-2.9 0-6.9-.6-10-3.7l-6.3 6.3c4.8 4.8 10.2 5.4 16.1 5.4 8.9 0 16.1-4 16.1-12.4 0-6.4-3.8-10.4-11.3-11.1l-5.9-.6c-3.3-.3-3.9-1.9-3.9-3.3 0-1.9 1.7-3.7 5.4-3.7 3.3 0 6.5.6 8.7 2.6l5.9-5.9c-3.7-3.4-8.8-4.5-14.6-4.5zm38.5 0c-7.6 0-16.8 4.2-16.8 19.6s9.2 19.4 16.8 19.4c5.2 0 9.3-1.7 12.6-5.2l-6.5-6.3c-2 2.1-3.6 3.1-6.1 3.1-2.3 0-3.8-.9-5.2-2.6-1.4-1.8-2.2-4.3-2.2-8.3s.7-6.7 2.2-8.5c1.4-1.7 3-2.4 5.2-2.4 2.5 0 4.1.7 6.1 2.8l6.5-6.3c-3.3-3.6-7.4-5.3-12.6-5.3zm75.3 0c-9.8 0-16.3 7.2-16.3 19.6 0 15.4 8.5 19.4 17.4 19.4 6.8 0 10.5-2 14.4-5.9l-5.7-5.7c-2.4 2.4-4.6 3.5-8.7 3.5-5.3 0-8.3-3.6-8.3-8.5h23.7v-4.1c0-10.5-6-18.3-16.5-18.3zm-196.8.4v24.4c0 4.2.9 7.8 3.9 10.9 2.1 2.1 5.2 3.3 8.9 3.3 3.5 0 6.9-1.3 9.4-3.9v3.5h9.4V24.7h-9.6v23.1c0 5.2-3.3 7-6.3 7s-6.1-1.8-6.1-7V24.7h-9.6zm-24.6 7.6c3.2 0 5.3 1.7 6.3 3.9.6 1.4.8 2.2.9 3.9h-14.4c.1-1.7.3-2.5.9-3.9 1-2.2 3.1-3.9 6.3-3.9zm221.4 0c3.2 0 5.3 1.7 6.3 3.9.6 1.4.8 2.2.9 3.9h-14.4c.1-1.7.3-2.5.9-3.9 1-2.2 3.1-3.9 6.3-3.9zm92 49.6v7.6h9.6v-7.6h-9.6zm-375.2.3v52h10v-20.7h7.4l10 20.7h11.7l-11.5-22.4c5-1.8 9.4-6.4 9.4-13.7 0-8.7-6.2-15.9-16.8-15.9h-20.2zm429.6 0v52h9.6v-23.3c0-5 3.1-6.5 6.1-6.5s6.1 1.5 6.1 6.5v23.3h9.4v-24.6c0-8-4.4-13.9-12.6-13.9-3.3 0-6.4 1.3-8.9 3.9V82.2h-9.7zm-300.7 3.9v11.1h-3.9v7.4h3.9v18.7c0 5.4 3.4 10.9 11.1 10.9h5v-8.1h-3.3c-2.2 0-3.3-1.3-3.3-3.5v-18.1h6.5v-7.4h-6.5v-11h-9.5zm-118.8 5.2h9.6c4.4 0 7.4 2.7 7.4 6.7s-3 7-7.4 7h-9.6V91.3zm50.2 4.3c-9.8 0-16.5 7-16.5 19.4 0 15.4 8.7 19.6 17.6 19.6 6.8 0 10.5-2 14.4-5.9l-5.9-5.7c-2.4 2.4-4.4 3.5-8.5 3.5-5.3 0-8.3-3.6-8.3-8.5h23.7v-4.1c.1-10.4-6-18.3-16.5-18.3zm43.8 0c-3.5 0-6.9 1.3-9.4 3.9V96h-9.4v38.1h9.6V111c0-5.2 3.3-6.7 6.3-6.7s6.1 1.6 6.1 6.7v23.1h9.6v-24.4c0-4.2-.9-7.6-3.9-10.7-2.1-2-5.2-3.4-8.9-3.4zm63.7 0c-9.8 0-16.5 7-16.5 19.4 0 15.4 8.7 19.6 17.6 19.6 6.8 0 10.5-2 14.4-5.9l-5.9-5.7c-2.4 2.4-4.3 3.5-8.5 3.5-5.3 0-8.3-3.6-8.3-8.5h23.7v-4.1c.1-10.4-5.9-18.3-16.5-18.3zm43.8 0c-3.5 0-6.9 1.3-9.4 3.9V96h-9.4v38.1h9.6V111c0-5.2 3.3-6.7 6.3-6.7s6.1 1.6 6.1 6.7v23.1h9.6v-24.4c0-4.2-.9-7.6-3.9-10.7-2.1-2-5.1-3.4-8.9-3.4zm72.9 0c-9.8 0-16.5 7-16.5 19.4 0 15.4 8.5 19.6 17.4 19.6 6.8 0 10.5-2 14.4-5.9l-5.7-5.7c-2.4 2.4-4.4 3.5-8.5 3.5-5.3 0-8.3-3.6-8.3-8.5h23.5v-4.1c0-10.4-5.8-18.3-16.3-18.3zm43.7 0c-4.1 0-7.8 2-9.6 4.1V96H672v38.1h9.4v-22.8c0-4.8 3.2-7 6.1-7 1.7 0 2.9.3 3.9 1.1l6.3-7.8c-2-1.4-4.2-2-7-2zm23.7 0c-7.7 0-14.6 4.3-14.6 12.2 0 7 4.1 10 10.9 10.7l6.1.6c3 .3 3.9 1.6 3.9 3.5 0 2.8-3.5 3.9-6.7 3.9-2.9 0-6.9-.6-10-3.7l-6.1 6.3c4.8 4.8 10.2 5.4 16.1 5.4 8.9 0 15.9-4 15.9-12.4 0-6.4-3.6-10.4-11.1-11.1l-6.1-.6c-3.4-.3-3.9-1.9-3.9-3.3 0-1.9 1.7-3.7 5.4-3.7 3.3 0 6.5.6 8.7 2.6l5.9-5.9c-3.6-3.3-8.5-4.5-14.4-4.5zm58.4 0c-7.6 0-17 4-17 19.4 0 15.4 9.4 19.6 17 19.6 5.2 0 9.1-1.7 12.4-5.2l-6.3-6.3c-2 2.1-3.6 3.1-6.1 3.1-2.3 0-4.1-.9-5.4-2.6-1.4-1.8-2.2-4.5-2.2-8.5s.7-6.4 2.2-8.3c1.4-1.7 3.2-2.4 5.4-2.4 2.5 0 4.1.7 6.1 2.8l6.3-6.3c-3.4-3.5-7.2-5.3-12.4-5.3zm75.3 0c-9.8 0-16.5 7-16.5 19.4 0 15.4 8.5 19.6 17.4 19.6 6.8 0 10.5-2 14.4-5.9l-5.7-5.7c-2.4 2.4-4.4 3.5-8.5 3.5-5.3 0-8.3-3.6-8.3-8.5h23.5v-4.1c0-10.4-5.8-18.3-16.3-18.3zm43.7 0c-4.1 0-7.8 2-9.6 4.1V96h-9.1v38.1h9.4v-22.8c0-4.8 3.2-7 6.1-7 1.7 0 2.9.3 3.9 1.1l6.3-7.8c-2-1.4-4.2-2-7-2zm71.4 0c-3.5 0-7.1 1.3-9.6 3.9V96h-9.1v38.1h9.4V111c0-5.2 3.3-6.7 6.3-6.7s6.3 1.6 6.3 6.7v23.1h9.4v-24.4c0-4.2-.6-7.6-3.7-10.7-2.2-2-5.2-3.4-9-3.4zm34.4 0c-3.7 0-7 1.4-9.1 3.5-3.5 3.6-3.9 8.4-3.9 15 0 6.7.3 11.4 3.9 15 2.1 2.1 5.2 3.5 8.9 3.5s6.7-1.1 9.1-3.9v3.9c0 3.9-2 7.8-7.6 7.8-3.2 0-5.3-.8-7.4-2.8l-5.9 5.9c3.9 3.8 7.9 5 13.7 5 10.2 0 16.5-6.6 16.5-15.7V96.1h-9.1v3.7c-2.6-2.9-5.1-4.2-9.1-4.2zm-405.7.5l13.9 38.1h7.4l13.9-38.1h-10l-7.6 23.5-7.6-23.5h-10zm146.1 0v38.1h9.4V96.1H738zm165.1 0v24.4c0 4.2.9 7.8 3.9 10.9 2.1 2.1 5.1 3.3 8.9 3.3 3.5 0 7.1-1.3 9.6-3.9v3.5h9.1V96.1H925v23.1c0 5.2-3.3 7-6.3 7s-6.1-1.8-6.1-7V96.1h-9.5zm-480.3 7.4c3.2 0 5.3 1.9 6.3 4.1.6 1.4.8 2.2.9 3.9h-14.4c.1-1.7.3-2.5.9-3.9 1-2.3 3.1-4.1 6.3-4.1zm107.5 0c3.2 0 5.3 1.9 6.3 4.1.6 1.4.8 2.2.9 3.9h-14.4c.1-1.7.3-2.5.9-3.9 1-2.3 3.1-4.1 6.3-4.1zm116.7 0c3.2 0 5.3 1.9 6.3 4.1.6 1.4.8 2.2.9 3.9h-14.4c.1-1.7.3-2.5.9-3.9 1-2.3 3.1-4.1 6.3-4.1zm201.1 0c3.2 0 5.3 1.9 6.3 4.1.6 1.4.8 2.2.9 3.9h-14.4c.1-1.7.3-2.5.9-3.9 1-2.3 3.1-4.1 6.3-4.1zm152.1.8c5.6 0 6.3 4.8 6.3 9.8 0 5-.7 9.8-6.3 9.8s-6.3-4.7-6.3-9.8c0-5 .7-9.8 6.3-9.8z"/><path fill="#d2db2d" d="M266.1 138.7v94.1c0 31.6-13.9 46.9-54.5 46.9H54c-34.9 0-45.9-12.5-45.9-42.8v-39c0-34.5 29.4-44.2 58.8-44.2h149c32.8-.1 50.2-15 50.2-15"/></svg>