<svg xmlns="http://www.w3.org/2000/svg" viewBox="0 0 140 40"><path fill="#00205b" d="M80.61520693 27.23000732h-8.91130992v-5.01261183h8.91130992c1.67087061 0 2.78478435 1.11391374 2.78478435 2.22782748-.55695687 1.67087061-1.67087061 2.78478435-2.78478435 2.78478435M71.70389701 12.7491287h8.35435305c1.11391374 0 2.22782748 1.11391374 2.22782748 2.22782748s-1.11391374 2.22782748-2.22782748 2.22782748h-8.35435305V12.7491287zm13.36696488 7.24043931c1.67087061-1.11391374 2.22782748-2.78478435 2.22782748-5.01261183 0-3.89869809-3.34174122-6.68348244-7.24043931-6.68348244H65.57737144v24.50610228h15.03783549c4.45565496 0 7.79739618-3.34174122 7.79739618-7.24043931 0-2.78478435-1.67087061-5.01261183-3.34174122-5.5695687m22.2782748-12.25305114v13.92392175c0 4.45565496-2.22782748 6.12652557-5.5695687 6.12652557-2.78478435 0-5.5695687-1.67087061-5.5695687-6.12652557V7.73651687h-6.12652557v13.92392175c0 8.91130992 5.01261183 11.69609427 11.69609427 11.69609427s11.69609427-2.78478435 11.69609427-11.69609427V7.73651687h-6.12652557zm21.72131793 9.46826679c-5.01261183-1.11391374-6.68348244-1.67087061-6.68348244-3.34174122 0-1.11391374 1.67087061-2.22782748 4.45565496-2.22782748 2.78478435 0 6.12652557 1.11391374 7.79739618 2.22782748l1.67087061-5.01261183c-2.78478435-1.11391374-6.12652557-2.22782748-11.1391374-2.22782748-6.12652557 0-10.02522366 3.34174122-10.02522366 7.79739618s3.34174122 6.12652557 9.46826679 7.24043931c5.01261183 1.11391374 6.12652557 1.67087061 6.12652557 3.34174122s-1.67087061 2.22782748-4.45565496 2.22782748c-3.34174122 0-6.68348244-1.11391374-9.46826679-2.22782748l-1.67087061 5.01261183c3.34174122 1.67087061 7.24043931 2.78478435 11.69609427 2.78478435 7.24043931 0 10.58218053-3.34174122 10.58218053-7.79739618.55695687-3.34174122-2.22782748-6.12652557-8.35435305-7.79739618M13.78038253 7.73651687L1.52733139 32.24261915H8.7677707l1.67087061-3.89869809h8.35435305l-2.78478435-5.5695687h-3.34174122l3.34174122-6.68348244 7.79739618 16.15174923h7.24043931L18.23603749 7.73651687h-4.45565496zm49.56916143 8.35435305c0-4.45565496-3.34174122-8.35435305-9.46826679-8.35435305H41.07126916v24.50610228h6.12652557V12.7491287h7.24043931c2.22782748 0 2.78478435 1.11391374 2.78478435 2.78478435 0 1.67087061-1.11391374 2.78478435-3.34174122 2.78478435h-5.01261183l7.79739618 13.92392175h6.12652557l-5.01261183-8.91130992c3.89869809-1.11391374 5.5695687-3.89869809 5.5695687-7.24043931M32.71691611 32.24261915h6.12652557V7.73651687h-6.12652557v24.50610228z"/></svg>