<svg xmlns="http://www.w3.org/2000/svg" width="985.96063" height="336.72046" version="1"><path fill="#003867" fill-rule="evenodd" d="M394.89999 131.54471c-18.50216-4.90871-35.68274-8.30705-51.63613-8.30705-16.80298 0-30.1132 7.1743-30.1132 18.31335 0 10.47824 9.91187 16.70859 27.56444 16.70859 18.12456 0 36.53231-11.23346 54.18489-26.71489m-54.37369 36.34358c-33.03957 0-53.80729-9.8175-53.80729-24.16609 0-20.48454 32.75637-31.15158 71.27106-31.15158 15.95339 0 33.32276 1.9823 51.63613 5.00311 7.1743-7.2687 14.2542-15.00941 21.05092-22.56132 13.59342-15.10381 33.60596-36.81551 50.31454-49.65374 31.71799-24.26049 72.21506-41.81869 114.9777-41.81869 53.1465 0 95.72035 17.93581 95.72035 44.74502 0 15.38703-15.10381 28.69727-42.10186 29.73562l-.84958-4.90871c5.66392-2.6432 12.64943-7.3631 12.64943-21.9005 0-19.06857-21.42852-38.04274-60.7928-38.04274-37.85391 0-59.47123 17.74701-83.82611 43.04585-12.74383 13.21584-26.43166 29.64122-38.89229 42.47944-9.34548 9.53429-19.35175 18.31335-29.73561 26.14847 42.66824 8.59026 87.79085 18.59656 129.51511 18.59656 42.95144 0 62.49198-11.13906 72.49825-20.39013l2.73756 3.96475c-10.76146 22.08931-43.32903 40.87468-84.95889 40.87468-53.3353 0-100.91228-15.00942-142.63653-27.56444-29.16922 17.46373-59.37682 27.56444-84.77009 27.56444M119.53879 295.60981H89.803177v35.11634H73.944185v-81.0886h15.858992v33.41717h29.735613v-33.41717h15.85899v81.0886h-15.85899v-35.11634zm-77.973382 35.11634H25.8008137V263.3254H5.316284v-13.68785h56.639257v13.68785H41.565408v67.40075zm115.260892-81.0886h48.33217v12.6495H172.4965v20.10693h28.03643V294.949H172.4965v23.03333h33.32276v12.74382H156.8263v-81.0886zm250.62872 81.0886V273.0485c0-11.70548-4.15354-25.20452-28.69722-25.01572-13.02703.09441-23.97729 2.83201-31.24599 6.32475v76.36862h15.76459v-66.83433c3.49275-1.51037 8.87348-2.7376 14.44301-2.6432 12.64944.28321 13.87662 6.89109 13.87662 14.5374v54.94013h15.85899zm529.48265-30.77404v30.77404h-15.67015v-76.46302l1.03835-.56642c6.79669-3.49274 16.51978-5.66393 25.39325-5.66393 20.57894 0 32.94523 9.9119 32.94523 26.33728 0 15.85903-13.21584 26.14846-34.92753 26.14846-3.02081 0-6.23035-.2832-8.77915-.56641m0-37.57066v25.29885c2.35999.2832 5.47513.47201 8.21273.47201 13.78218 0 19.63491-5.75833 19.63491-13.78225 0-8.77907-5.47512-13.78218-17.08619-13.78218-3.68155 0-8.02385.84955-10.76145 1.79357m-97.2307 41.44101v-54.18491h15.85899v54.37372c0 9.06227 5.85272 14.5374 15.0094 14.5374s15.10381-5.47513 15.10381-14.5374v-54.37372h15.85896v54.18491c0 17.275-12.55502 28.50846-30.96277 28.50846s-30.86839-11.23346-30.86839-28.50846m-244.58721-13.59337c0-24.8269 14.53742-42.19631 39.93069-42.19631 8.87348 0 17.18057 2.07679 22.9389 5.75834l1.51038.94402-5.19193 11.611-1.98238-1.22716c-3.77595-2.35999-9.72307-4.24797-16.42539-4.24797-16.04778 0-24.92127 11.32786-24.92127 29.16928 0 17.84134 8.96788 29.54681 23.41089 29.54681 4.71994 0 8.40149-.75522 10.85586-1.69917v-21.23976h-15.0094v-12.08301h30.1132v41.44101l-.94398.56642c-5.94713 3.68155-14.82061 5.75833-24.63808 5.75833-25.11007 0-39.64749-16.99179-39.64749-42.10183m105.91542.47194c10.85586 0 21.42852-4.81431 21.42852-15.95336 0-7.55191-4.62554-14.6318-15.76459-14.6318-4.24795 0-8.40149.66074-11.79985 1.98238v68.6279h-15.4814v-76.46302l1.03839-.56642c6.51351-3.49274 17.36937-5.66393 26.24286-5.66393 20.48453 0 31.34039 10.28951 31.34039 26.33728 0 12.83822-10.19507 20.57894-16.70859 22.65572l19.82374 33.70037H722.4637l-21.42852-40.02512zm51.06973-.66074c0-23.88288 12.17744-42.85705 35.49393-42.85705 23.3165 0 35.49395 18.97417 35.49395 42.85705 0 23.97728-12.17745 43.14018-35.49395 43.14018-23.31649 0-35.49393-19.1629-35.49393-43.14018m15.859-.09441c0 18.03015 7.0799 29.35801 19.63493 29.35801 12.64944 0 19.63495-11.32786 19.63495-29.35801 0-18.03022-6.98551-29.07487-19.63495-29.07487-12.55503 0-19.63493 11.04465-19.63493 29.07487m-259.8798-40.30833h48.33216v12.6495H523.8487v20.10693h28.03643V294.949H523.8487v23.03333h33.32276v12.74382h-49.08735v-81.0886zm-197.57662 0h15.85899v81.0886h-15.85899v-81.0886zm-57.48884 0h15.85899v67.40075h28.98041v13.68785h-44.8394v-81.0886zm190.1191 13.12144v54.75133c2.54877 1.03835 6.13592 1.69917 10.00627 1.69917 13.78222 0 22.37252-9.62869 22.37252-29.1692 0-19.44619-8.6847-29.07488-22.37252-29.07488-3.87035 0-7.3631.75522-10.00627 1.79358m-14.915 63.7192l-1.13279-.56642v-71.64864l1.13279-.56642c6.98551-3.58714 15.95339-5.66393 24.82688-5.66393 24.16608 0 38.3259 16.42538 38.3259 42.00751 0 25.67645-14.15982 42.10183-38.3259 42.10183-8.87349 0-17.84137-2.07679-24.82688-5.66393"/></svg>