<svg xmlns="http://www.w3.org/2000/svg" id="VARG" width="80" height="30" viewBox="0 0 351 165"><style>.st0{fill:#ef3b24}.st1{fill:#fff}.st2{fill:#959599}</style><path d="M72.2 52.9c0-16.7 10.1-28.1 26.5-28.1 15.5 0 24.1 7.6 24.1 18.7h-15.5c0-3.4-2.5-6-8.6-6-6.3 0-9.8 7.3-9.8 14.8 0 6.7 3.1 13.4 9.6 13.4 5.5 0 8.5-1.9 8.5-5.9h-6.7v-11h22.8v28.6h-10.7v-4.2c-.7.6-5 5.3-14.4 5.3-15.3-.1-25.8-10.1-25.8-25.6zM38.1 77.3H21.8L40.3 26h16.1l18.4 51.3H58.4l-2.3-6.4H40.3l-2.2 6.4zm10.1-34.7l-5.1 17.5h10.5l-5.4-17.5M128.9 26h39.7v13.6h-23.4v7.5h18.7v12.7h-18.7v17.6h-16.3V26zm50 51.3h-16.3L181.2 26h16.1l18.4 51.3h-16.2l-2.8-6.4H181l-2.1 6.4zM189 42.6l-5.1 17.6h10.4L189 42.6"/><path d="M234.2 52.6l51.6-40.7 50 40.9-50 37-51.6-37.2" class="st0"/><path d="M256.2 50.1c-4.8 6.5-5.9 6-8.4 6.3v2.3c.3 0 3.6.6 5.6-1.2.9-.7 3-3.1 3-3.1h6.7l-1.6 4.7h6.4l5.9-18.1c-.2.2-6.2 0-8.7.6-3.6.9-4.4 2.5-8.9 8.5M278.1 59.5c2.7 0 4.5-1.4 4.5-1.4-.3 1.5-1.4 3-2.6 3.7-2 1.4-4.7.3-6.3 0l-1.1 2.2s4.3 1.4 7.4 1.4c4 0 6.9-3.8 7.9-7.6.5-1.9 2.5-10.8 2.5-10.8h-4.9l-.6 2.2c-.3-1-1.7-2.6-4.2-2.6-4.8 0-7.8 3.6-7.8 7.3-.1 3.9 3 5.6 5.2 5.6M299.7 49.2h2.5l.6-2.2h-2.2s.7-2.5 2.5-3.2c2-.8 4.1-.5 4.1-.5V41h-4.1c-4.3 0-6.8 3.1-7.6 6h-2.8l-.3 2.2h2.5L292 59h5.1l2.6-9.8M312.6 56.7L312 59h4.5l3.4-12.1H315l-.8 2.4s-1.4-2.6-4.2-2.6c-4.3 0-7.8 3.4-7.8 7.5 0 3.2 2.4 5.3 4.7 5.3 2.3 0 4.4-1.1 5.7-2.8" class="st1"/><path d="M283.5 52.8c0 2.6-2.3 4.5-4.7 4.5-1.8 0-3.3-1.1-3.3-3.4 0-2 1.9-4.8 4.8-4.8 2.5-.1 3.2 1.8 3.2 3.7M264.1 44.5c.9-.4 2.6-.3 2.6-.3l-2.9 7.6h-5.6c0 .1 3.8-6.4 5.9-7.3M312.7 52.2c0 2.6-2.2 5-4.8 5-1.6 0-2.9-1.4-2.9-3.1 0-2.6 2.3-4.9 4.8-4.9 1.6-.1 2.9 1.3 2.9 3" class="st0"/><path d="M48.3 142h-5.6v-17H26.9v17h-5.6v-37.7h5.6v15.4h15.8v-15.4h5.6V142zM74.9 142.5c-3.9 0-7-1.3-9.3-3.8-2.2-2.5-3.3-6-3.3-10.5 0-4.6 1-8.1 3.1-10.8 2.1-2.7 4.9-3.9 8.5-3.9 3.4 0 6 1.1 7.9 3.4 1.9 2.2 2.9 5.3 2.9 9.2v3.2H67.9c.1 2.7.7 4.8 2 6.2 1.3 1.5 3 2.2 5.3 2.2 1.5 0 2.9-.2 4.2-.5 1.3-.3 2.7-.8 4.2-1.6v4.8c-1.3.7-2.6 1.2-4 1.5-1.4.5-2.9.6-4.7.6zm-1-24.4c-1.7 0-3.1.6-4.1 1.8-1 1.2-1.6 2.9-1.8 5.2h11.5c0-2.3-.5-4.1-1.5-5.2-1-1.2-2.3-1.8-4.1-1.8zM113.9 142l-1.1-3.9h-.2c-1.2 1.7-2.5 2.9-3.7 3.5s-2.8.9-4.8.9c-2.5 0-4.4-.7-5.8-2.2s-2.1-3.6-2.1-6.3c0-2.9 1-5 2.9-6.5s4.9-2.3 8.9-2.4l4.4-.2v-1.5c0-1.8-.4-3.1-1.1-4-.8-.9-1.9-1.3-3.5-1.3-1.3 0-2.5.2-3.7.6s-2.3.9-3.4 1.5L99 116c1.4-.8 2.9-1.4 4.5-1.8s3.2-.6 4.6-.6c3.2 0 5.7.8 7.3 2.3 1.6 1.5 2.5 4 2.5 7.3V142h-4zm-8.1-4c2 0 3.5-.6 4.7-1.8s1.8-2.9 1.8-5.1v-2.4l-3.3.2c-2.5.1-4.4.6-5.5 1.4s-1.7 2.1-1.7 3.8c0 1.2.3 2.2 1 2.9.7.6 1.7 1 3 1zM137.7 142h-5.4v-39.3h5.4V142zM161.9 137.7c1.3 0 2.6-.2 3.9-.7v4.5c-.6.3-1.4.5-2.3.7-.9.2-1.9.3-2.9.3-5.1 0-7.7-3-7.7-8.9v-15h-3.5V116l3.7-2.2 1.8-5.9h3.3v6.2h7.2v4.5h-7.2v14.9c0 1.4.3 2.5 1 3.2.8.7 1.6 1 2.7 1zM200.3 142h-5.4v-17.2c0-2.2-.4-3.8-1.2-4.8-.8-1.1-2-1.6-3.8-1.6-2.3 0-3.9.7-5 2.2s-1.6 4-1.6 7.5V142H178v-39.3h5.4v10c0 1.6-.1 3.3-.3 5.1h.3c.7-1.3 1.8-2.4 3.1-3.1s2.8-1.1 4.6-1.1c6.2 0 9.2 3.4 9.2 10.2V142zM230.1 109.1c-3.2 0-5.8 1.3-7.6 3.8s-2.8 6-2.8 10.4c0 4.6.9 8.1 2.7 10.5s4.3 3.6 7.7 3.6c1.5 0 2.9-.2 4.2-.5 1.4-.3 2.8-.7 4.2-1.2v5.3c-2.7 1.1-5.7 1.7-9.1 1.7-5 0-8.9-1.7-11.6-5-2.7-3.3-4-8.1-4-14.3 0-3.9.7-7.3 2-10.3s3.2-5.2 5.7-6.8c2.5-1.6 5.4-2.3 8.7-2.3 3.5 0 6.7.8 9.7 2.4l-2 5.1c-1.2-.6-2.4-1.1-3.7-1.6-1.3-.6-2.7-.8-4.1-.8zM268.4 142l-1.1-3.9h-.2c-1.2 1.7-2.5 2.9-3.7 3.5s-2.8.9-4.8.9c-2.5 0-4.4-.7-5.8-2.2-1.4-1.5-2.1-3.6-2.1-6.3 0-2.9 1-5 2.9-6.5s4.9-2.3 8.9-2.4l4.4-.2v-1.5c0-1.8-.4-3.1-1.1-4-.8-.9-1.9-1.3-3.5-1.3-1.3 0-2.5.2-3.7.6s-2.3.9-3.4 1.5l-1.7-4.2c1.4-.8 2.9-1.4 4.5-1.8 1.6-.4 3.2-.6 4.6-.6 3.2 0 5.7.8 7.3 2.3 1.6 1.5 2.5 4 2.5 7.3V142h-4zm-8.1-4c2 0 3.5-.6 4.7-1.8s1.8-2.9 1.8-5.1v-2.4l-3.3.2c-2.5.1-4.4.6-5.5 1.4s-1.7 2.1-1.7 3.8c0 1.2.3 2.2 1 2.9.7.6 1.7 1 3 1zM299.7 113.6c1.1 0 2 .1 2.7.3l-.5 5.5c-.8-.2-1.6-.3-2.4-.3-2.2 0-3.9.8-5.2 2.3-1.3 1.5-2 3.6-2 6V142h-5.4v-27.9h4.2l.7 4.9h.3c.8-1.7 1.9-3 3.3-4 1.2-.9 2.7-1.4 4.3-1.4zM325.2 142.5c-3.9 0-7-1.3-9.3-3.8-2.2-2.5-3.3-6-3.3-10.5 0-4.6 1-8.1 3.1-10.8 2.1-2.6 4.9-3.9 8.5-3.9 3.4 0 6 1.1 7.9 3.4 1.9 2.2 2.9 5.3 2.9 9.2v3.2h-16.9c.1 2.7.7 4.8 2 6.2 1.3 1.5 3 2.2 5.3 2.2 1.5 0 2.9-.2 4.2-.5 1.3-.3 2.7-.8 4.2-1.6v4.8c-1.3.7-2.6 1.2-4 1.5-1.4.5-2.9.6-4.6.6zm-1-24.4c-1.7 0-3.1.6-4.1 1.8-1 1.2-1.6 2.9-1.8 5.2h11.5c0-2.3-.5-4.1-1.5-5.2-1-1.2-2.4-1.8-4.1-1.8z" class="st2"/></svg>