<svg xmlns="http://www.w3.org/2000/svg" viewBox="0 0 140 40"><path d="M135.8 23.3c-.4-.6-.7-1-1.1-1.2 1.7-.6 2.4-1.5 2.4-3.2 0-2.6-1.6-3.8-4.8-3.8h-4.9V28h3.3v-5.1h.4c.7 0 1 .2 1.6 1.2L135 28h3.6l-2.8-4.7zm-5.1-5.7h1.5c1.3 0 1.7.4 1.7 1.5s-.5 1.6-1.7 1.6h-1.5v-3.1m-11.4 7.8v-2.7h4.4v-2.5h-4.4v-2.5h5.5v-2.6H116V28h9.1l.2-2.6h-6m-10-4.2c.1-.2 4.8-6.1 4.8-6.1h-3.4s-3.8 5-4.2 5.5v-5.5h-3.3V28h3.3v-5.5c.4.6 4.1 5.5 4.1 5.5h3.9s-5.1-6.7-5.2-6.8m-11.7-6.1v7.1c-.4-.6-5.3-7.1-5.3-7.1h-2.8V28h2.8v-7.8c.4.6 5.8 7.8 5.8 7.8h2.2V15.1h-2.7M81.5 25.4v-2.7h4.4v-2.5h-4.4v-2.5H87v-2.6h-8.8V28h9.1l.2-2.6h-6m-9.4-10.3v5h-4.5v-5h-3.3V28h3.3v-5.3h4.5V28h3.3V15.1h-3.3M62 25.1c-1.2.5-2 .6-3 .6-2.1 0-3-1.1-3-4.1 0-3.1.8-4.2 3-4.2 1 0 1.9.2 2.9.6l.2.1v-2.7H62c-1-.4-2-.5-3.1-.5-1.8 0-3.3.5-4.4 1.5-1.4 1.2-2 2.9-2 5.4 0 2.1.4 3.6 1.3 4.7 1.1 1.3 2.8 2 4.9 2 1.2 0 2.3-.2 3.3-.7h.1V25l-.1.1m-14.1-4.8l-.2-.1c-1.3-.6-1.4-.6-1.7-.8-.4-.3-.6-.5-.6-.9 0-.7.6-1.1 1.7-1.1 1 0 1.8.2 2.9.7l.2.1v-2.7h-.1c-1.1-.4-2.1-.6-3.2-.6-2.9 0-4.6 1.4-4.6 3.9 0 1.9.8 3 3 3.8 2.3 1 2.5 1.2 2.5 1.9 0 .8-.7 1.2-2 1.2-1.2 0-2-.2-3.3-.9l-.2-.1v2.7h.1c1.2.6 2.3.8 3.7.8 3.2 0 5-1.4 5-4 0-2-.8-3-3.2-3.9"/><path fill="red" d="M11.5 28H6V12.8h5.5c3.9 0 6 2.5 6 7.5 0 4.4-1.4 7.6-6 7.7zm2.4-7.4c0-3.1-.3-5.5-3.6-5.5h-.7v10.4h1.3c1.9 0 3-1.5 3-4.9m11 7.4h-5.8V12.8h6.1c2.9 0 4.4 1.2 4.4 4.1 0 1.5-1.2 2.5-2.5 3.2 1.8.5 3.1 1.7 3.1 3.6-.1 3-2.6 4.3-5.3 4.3zm-2.3-9.2h1.2c1.2 0 2-.5 2-1.8 0-1.4-1.1-1.8-2.3-1.8h-1v3.6zm3.7 4.7c0-1.6-1-1.9-2.4-1.9h-1.3v3.9h1.3c1.3 0 2.4-.4 2.4-2M31 8.7H4.8C3 8.7 1.5 10.1 1.5 12v16.6C1.5 30.5 3 32 4.8 32H31c1.8 0 3.3-1.5 3.3-3.3V12.1c-.1-1.9-1.6-3.4-3.3-3.4zm.8 20c0 .5-.3 1-.9 1H4.8c-.5 0-.9-.4-.9-1V12.1c0-.5.4-1 .9-1H31c.5 0 .9.4.9 1v16.6"/></svg>