<svg xmlns="http://www.w3.org/2000/svg" id="Layer_1" viewBox="0 0 140 40"><style>.st0{fill:#ee3023}</style><g id="g3721" transform="matrix(.27561 0 0 .27561 .63625548 139.7108)"><path id="path2333-2" d="M123.9-432.6c0 33.9-27.4 61.3-61.3 61.3S1.3-398.8 1.3-432.6c0-33.9 27.4-61.3 61.3-61.3s61.3 27.4 61.3 61.3" class="st0"/><path id="path2337-8" fill="#fff" d="M63.1-398.4c-16.8.1-34.4-14.3-34.4-37.4-.1-15.3 8.2-30 18.7-38.7 10.3-8.5 24.3-14 37.1-14 1.6 0 3.4.1 4.4.5-11.1 2.3-20 12.7-20 24.5 0 .4 0 .8.1 1 18.7 4.5 27.1 15.8 27.2 31.4 0 15.5-12.3 32.6-33.1 32.7"/><path id="path2339-2" d="M163.5-407.2l-18.7-44.7H157l11.7 29.7 11.3-29.7h11.7l-18.2 44.7h-10z" class="st0"/><path id="path2341-0" d="M224.3-429.8c0-1.9-.2-3.6-.7-5.3-.4-1.7-1.1-3.1-1.9-4.3-.9-1.2-1.9-2.2-3.2-2.9-1.2-.7-2.7-1.1-4.4-1.1-1.7 0-3.1.4-4.4 1.1-1.2.7-2.3 1.7-3.2 2.9-.9 1.2-1.5 2.6-1.9 4.3-.4 1.7-.7 3.4-.7 5.3s.2 3.7.7 5.4c.4 1.6 1.1 3.1 1.9 4.3.8 1.2 1.9 2.2 3.2 2.9 1.3.7 2.7 1.1 4.4 1.1 1.7 0 3.1-.4 4.4-1.1 1.2-.7 2.3-1.7 3.2-2.9.9-1.2 1.5-2.7 1.9-4.3.5-1.7.7-3.5.7-5.4m11.3 0c0 2.9-.5 5.8-1.3 8.6-.9 2.8-2.2 5.3-4 7.6-1.8 2.2-4 4-6.7 5.4-2.7 1.4-5.8 2-9.4 2-3.6 0-6.7-.7-9.4-2-2.7-1.4-4.9-3.2-6.7-5.4-1.8-2.2-3.1-4.7-4-7.6-.9-2.8-1.3-5.7-1.3-8.6 0-2.9.5-5.7 1.3-8.5.9-2.8 2.2-5.3 4-7.5 1.8-2.2 4-4 6.7-5.3 2.7-1.3 5.8-2 9.4-2 3.6 0 6.7.7 9.4 2s4.9 3.1 6.7 5.3c1.8 2.2 3.1 4.7 4 7.5.9 2.8 1.3 5.6 1.3 8.5" class="st0"/><path id="path2343-6" d="M270.2-442.1c-2.2-.9-4.3-1.3-6.2-1.3-2 0-3.7.4-5.1 1.1-1.4.7-2.6 1.7-3.5 3-.9 1.3-1.6 2.7-2.1 4.3-.5 1.6-.7 3.2-.7 4.9 0 1.9.2 3.6.6 5.3.4 1.7 1 3.2 1.8 4.5.8 1.3 1.9 2.3 3.1 3.1 1.3.8 2.8 1.2 4.5 1.2 1.4 0 2.9-.4 4.3-1.2 1.5-.8 2.5-1.7 3.1-2.7l.2-22.2zm.9 34.9l-.5-3.4c-1 1.2-2.4 2.2-4.2 3.1-1.7.9-3.8 1.4-6.1 1.4-3.1 0-5.8-.7-8.1-1.9-2.4-1.3-4.3-3-5.9-5.2-1.6-2.2-2.8-4.7-3.7-7.5-.8-2.8-1.2-5.8-1.2-8.9 0-2.9.4-5.8 1.3-8.5.9-2.8 2.2-5.3 3.9-7.5 1.8-2.2 4-4 6.6-5.3 2.6-1.3 5.8-2 9.3-2 2.3 0 4.9.4 7.6 1.3v-17.3h11.5v61.9l-10.5-.2z" class="st0"/><path id="path2345-7" d="M314.1-428.2c-1.2.1-2.5.2-3.8.3-1.3.2-2.5.4-3.7.6-2.5.5-4.2 1.3-5.2 2.5s-1.4 2.5-1.4 4 .5 2.7 1.6 3.6c1.1.9 2.6 1.3 4.6 1.3 1.5 0 3-.3 4.3-.9 1.4-.6 2.6-1.4 3.6-2.3v-9.1zm.9 20.9l-.5-3.3c-1.2 1.4-2.8 2.5-4.8 3.2-1.9.8-4 1.2-6.3 1.2-1.9 0-3.8-.3-5.5-1-1.8-.6-3.3-1.6-4.7-2.8-1.4-1.2-2.5-2.7-3.3-4.4-.8-1.8-1.3-3.8-1.3-6s.4-4.2 1.3-5.9c.9-1.7 2-3.1 3.5-4.3 1.5-1.2 3.2-2.1 5.1-2.9 1.9-.7 3.9-1.3 6-1.7 1.5-.3 3.1-.5 4.9-.7 1.8-.2 3.2-.3 4.4-.4v-.7c0-2.5-.6-4.2-1.9-5.3-1.3-1-3-1.6-5.3-1.6-1.3 0-2.6.2-3.7.5-1.2.3-2.2.7-3.2 1.1-.9.5-1.8.9-2.5 1.4-.7.5-1.3.9-1.7 1.2l-3.8-8.1c.5-.4 1.2-1 2.3-1.6 1-.6 2.3-1.2 3.7-1.8 1.5-.6 3.1-1.1 4.9-1.5 1.8-.4 3.8-.6 5.9-.6 2.5 0 4.7.3 6.8 1s3.8 1.7 5.3 3.1c1.5 1.4 2.6 3.1 3.5 5.3.8 2.1 1.3 4.7 1.3 7.7v28.7l-10.4.2z" class="st0"/><path id="path2347-3" d="M361-458.9c-.4-.2-1.1-.5-2.2-.8-1.1-.3-2.5-.5-4.3-.5-1.6 0-3 .5-4 1.4-1.1 1-1.6 2.5-1.6 4.7v2.1h9.7v9.3H349v35.4h-11.5v-35.4h-5.9v-9.3h5.9v-2.4c0-2.9.4-5.4 1.1-7.4.7-2 1.8-3.6 3.1-4.9 1.3-1.3 2.9-2.2 4.7-2.8 1.8-.6 3.7-.9 5.9-.9 2.8 0 5.1.3 6.9.8 1.8.5 2.9.9 3.2 1.1l-1.4 9.6z" class="st0"/><path id="path2349-9" d="M392.4-429.8c0-1.9-.2-3.6-.7-5.3-.4-1.7-1.1-3.1-1.9-4.3-.9-1.2-1.9-2.2-3.2-2.9-1.2-.7-2.7-1.1-4.4-1.1-1.7 0-3.1.4-4.4 1.1-1.2.7-2.3 1.7-3.2 2.9-.9 1.2-1.5 2.6-1.9 4.3-.4 1.7-.6 3.4-.6 5.3s.2 3.7.6 5.4c.4 1.6 1.1 3.1 1.9 4.3.8 1.2 1.9 2.2 3.2 2.9 1.3.7 2.7 1.1 4.4 1.1s3.1-.4 4.4-1.1c1.2-.7 2.3-1.7 3.2-2.9.9-1.2 1.5-2.7 1.9-4.3.5-1.7.7-3.5.7-5.4m11.3 0c0 2.9-.5 5.8-1.4 8.6-.9 2.8-2.2 5.3-4 7.6-1.8 2.2-4 4-6.7 5.4-2.7 1.4-5.8 2-9.4 2-3.6 0-6.7-.7-9.4-2-2.7-1.4-4.9-3.2-6.7-5.4-1.8-2.2-3.1-4.7-4-7.6-.9-2.8-1.3-5.7-1.3-8.6 0-2.9.4-5.7 1.3-8.5s2.2-5.3 4-7.5c1.8-2.2 4-4 6.7-5.3 2.7-1.3 5.8-2 9.4-2 3.6 0 6.7.7 9.4 2s4.9 3.1 6.7 5.3c1.8 2.2 3.1 4.7 4 7.5 1 2.8 1.4 5.6 1.4 8.5" class="st0"/><path id="path2351-6" d="M439.4-407.2v-25.5c0-3.4-.7-6-2.1-7.9-1.4-1.8-3.4-2.8-5.9-2.8-1.8 0-3.4.5-5 1.4-1.5.9-2.8 1.9-4 3.1v31.7h-11.5v-44.7h10.5l.6 3.5c1.8-1.5 3.8-2.6 6.1-3.4 2.3-.8 4.5-1.2 6.8-1.2 2.4 0 4.5.3 6.5 1.1 2 .7 3.7 1.8 5.1 3.4 1.4 1.5 2.5 3.6 3.3 6 .8 2.5 1.2 5.5 1.2 8.9v26.4h-11.6z" class="st0"/><path id="path2353-4" d="M486.7-435c-.1-1.5-.5-2.9-1-4s-1.2-2.1-2-2.8c-.8-.7-1.6-1.2-2.5-1.6-.9-.3-1.8-.5-2.8-.5-2 0-3.9.7-5.7 2.2-1.8 1.5-2.9 3.7-3.2 6.7h17.2zm-17.3 8.3c.2 3.8 1.4 6.5 3.5 8.2 2.1 1.7 4.8 2.5 8.2 2.5 1.6 0 3-.1 4.4-.4 1.4-.3 2.6-.6 3.6-1.1 1.1-.4 2-.9 2.7-1.3.7-.4 1.3-.8 1.7-1.2l3.1 9.4c-.4.3-1.1.7-2.1 1.2s-2.2 1-3.6 1.5-3.1.9-5 1.2c-1.9.3-4 .5-6.3.5-2.9 0-5.7-.5-8.3-1.4-2.6-.9-4.9-2.4-6.9-4.3s-3.6-4.4-4.7-7.3c-1.2-2.9-1.8-6.4-1.8-10.4 0-3.8.5-7.1 1.6-10 1.1-2.9 2.6-5.3 4.4-7.3 1.9-2 4.1-3.5 6.6-4.5s5.2-1.6 8-1.6 5.5.5 7.9 1.4c2.4.9 4.5 2.4 6.3 4.3 1.8 1.9 3.2 4.5 4.2 7.6 1 3.1 1.5 6.8 1.5 11v2h-29z" class="st0"/></g></svg>