<svg xmlns="http://www.w3.org/2000/svg" id="Layer_1" width="100" height="30" viewBox="0 0 104.9 43.1"><style>.st3,.st4,.st5{opacity:.15;fill:#231f20;enable-background:new}.st4,.st5{opacity:.1}.st5{opacity:.2;fill:#fff}</style><linearGradient id="path23_1_" x1="1079.5474" x2="1047.1774" y1="-1209.2906" y2="-1286.9106" gradientTransform="matrix(.2413 0 0 -.2413 -175.5856 -281.4045)" gradientUnits="userSpaceOnUse"><stop offset="0" stop-color="#1cce28"/><stop offset=".21" stop-color="#20c52b"/><stop offset=".56" stop-color="#2aad33"/><stop offset="1" stop-color="#3b8640"/></linearGradient><path id="path23" fill="url(#path23_1_)" d="M78.2 19.8c1 2.1-.3 6.5-.4 7h2.6c2.1-3.3 2.4-4.8 2.4-4.8-2.3-2.1-4.6-2.2-4.6-2.2z"/><linearGradient id="path25_1_" x1="1013.8535" x2="986.5235" y1="-1221.2767" y2="-1287.6467" gradientTransform="matrix(.2413 0 0 -.2413 -175.5856 -281.4045)" gradientUnits="userSpaceOnUse"><stop offset="0" stop-color="#1cce28"/><stop offset=".21" stop-color="#20c52b"/><stop offset=".56" stop-color="#2aad33"/><stop offset="1" stop-color="#3b8640"/></linearGradient><path id="path25" fill="url(#path25_1_)" d="M64.6 17.6c-.2 3.9-1.8 8.9-1.9 9.2h2.5c1.8-1.8 2.6-4.4 2.6-4.4-.3-2.8-3.2-4.8-3.2-4.8z"/><linearGradient id="path27_1_" x1="1076.0454" x2="1043.2854" y1="-1195.1798" y2="-1272.6099" gradientTransform="matrix(.2413 0 0 -.2413 -175.5856 -281.4045)" gradientUnits="userSpaceOnUse"><stop offset="0" stop-color="#1cce28"/><stop offset=".21" stop-color="#20c52b"/><stop offset=".56" stop-color="#2aad33"/><stop offset="1" stop-color="#3b8640"/></linearGradient><path id="path27" fill="url(#path27_1_)" d="M92.9 15.5c.1-6.3-3.5-9.2-3.5-9.2-2.9-1.4-4.1-1.4-4.1-1.4C82.4 3.1 80.9 3 80.1 3c-.2 0-.4 0-.6.1 0 0-.3.3-.3.4-.6.7-1.8 2.6-2.2 6.5.5 1.8 3.7 4.2 3.7 4.2-2.7-.8-4.4-3.9-4.4-3.9-.3-2.5.3-4.7.3-4.8-5.3.7-8.9 2.8-8.9 2.8-2.4 1.5-4.1 5.2-4.1 5.2s-.8 1.4-1.1 4c-.2 1.2-.8 3.7-.8 3.7.1 0 .2 0 .3-.1 1.2-3.1 2.3-4.4 2.3-4.4 5.6 2.3 4.8 9.7 4.7 10.2h2.6c1.2-2.7 1.2-6.4 1.2-6.4 10.5-4.7 13.4 5.9 13.5 6.4h2.5c0-.6-1.1-5.3-2.5-8.4-1.4-2.9.2-3.8.4-3.9 1.1-.2 2.2.3 2.8.7.8.5 1 1.3 1.2 2.4.4 2.2.7 5.2 2.9 5.2 1.7 0 2.4-1.6 2.4-2l-.4-.1c-.5.5-1 .8-1.4.7-1.1-.2-1.3-1.8-1.3-6zm-3.2-4.3c-.3 0-.6-.3-.6-.6s.3-.6.6-.6.6.3.6.6-.3.6-.6.6z"/><path id="path29" d="M64.6 17.6c0 .3-.1.9-.1 1.2 2.1 2.2 2.5 5.5 2.5 5.5.3-.6.6-1.3.9-1.9-.4-2.8-3.3-4.8-3.3-4.8z" class="st3"/><path id="path31" d="M81.7 14.6c1.6.9 2.7 1.7 4.7 4.4-1.5-2.9-.5-4.1.1-4.4 0 0-2.6.7-4.8 0z" class="st3"/><path id="path33" d="M79.2 16.9c-4.8-2.8-10.4-2.5-14.2.1 4.5 2.7 3.8 9.2 3.8 9.7h2.5c1.2-2.7 1.2-6.4 1.2-6.4C83 15.6 85.9 26.2 86 26.7c-.4-3.8-2.8-7.5-6.8-9.8z" class="st4"/><path id="path35" d="M77.7 9.8c.5-3.6 1.3-5.2 2-5.8.4-.3.8-.4 1.2-.4 1.3 0 2.7.5 4.4 1.3C82.4 3.1 80.9 3 80.1 3c-.2 0-.4 0-.6.1 0 0-.3.3-.3.4-.6.7-1.8 2.6-2.2 6.5.5 1.8 3.7 4.2 3.7 4.2s-3.1-3-3-4.4z" class="st5"/><path id="path37" d="M69.9 15.2c1.8.9 2.9 3 2.7 5.2 0 0 .6-.3 1.2-.5-.2-2.1-1.9-4-3.9-4.7z" class="st4"/><linearGradient id="path39_1_" x1="945.8599" x2="919.9699" y1="-1222.9117" y2="-1285.0017" gradientTransform="matrix(.2413 0 0 -.2413 -175.5856 -281.4045)" gradientUnits="userSpaceOnUse"><stop offset="0" stop-color="#1cce28"/><stop offset=".21" stop-color="#20c52b"/><stop offset=".56" stop-color="#2aad33"/><stop offset="1" stop-color="#3b8640"/></linearGradient><path id="path39" fill="url(#path39_1_)" d="M47.3 21.2c.8 1.7-.2 5.2-.3 5.6h2c1.7-2.6 1.9-3.9 1.9-3.9-1-.9-2.3-1.5-3.6-1.7z"/><linearGradient id="path41_1_" x1="893.3289" x2="871.4689" y1="-1232.5112" y2="-1285.6013" gradientTransform="matrix(.2413 0 0 -.2413 -175.5856 -281.4045)" gradientUnits="userSpaceOnUse"><stop offset="0" stop-color="#1cce28"/><stop offset=".21" stop-color="#20c52b"/><stop offset=".56" stop-color="#2aad33"/><stop offset="1" stop-color="#3b8640"/></linearGradient><path id="path41" fill="url(#path41_1_)" d="M36.4 19.4c-.1 3.1-1.4 7.1-1.5 7.4h2c1.4-1.5 2.1-3.5 2.1-3.5-.3-2.3-2.6-3.9-2.6-3.9z"/><linearGradient id="path43_1_" x1="943.0295" x2="916.8295" y1="-1211.6089" y2="-1273.5588" gradientTransform="matrix(.2413 0 0 -.2413 -175.5856 -281.4045)" gradientUnits="userSpaceOnUse"><stop offset="0" stop-color="#1cce28"/><stop offset=".21" stop-color="#20c52b"/><stop offset=".56" stop-color="#2aad33"/><stop offset="1" stop-color="#3b8640"/></linearGradient><path id="path43" fill="url(#path43_1_)" d="M59.1 17.7c.1-5.1-2.8-7.4-2.8-7.4-2.4-1-3.3-1.1-3.3-1.1-2.3-1.4-3.5-1.5-4.2-1.5-.2 0-.3 0-.5.1l-.3.3c-.4.6-1.4 2.1-1.8 5.2.4 1.4 3 3.4 3 3.4-2.2-.6-3.5-3.1-3.5-3.1-.2-2 .3-3.8.2-3.9-2.5.3-4.9 1-7.2 2.2-1.9 1.2-3.3 4.2-3.3 4.2s-.6 1.1-.9 3.2c-.1 1-.6 2.9-.6 2.9.1 0 .2 0 .2-.1 1-2.5 1.8-3.5 1.8-3.5 4.5 1.9 3.8 7.7 3.8 8.2h2c1-2.2 1-5.1 1-5.1 8.4-3.8 10.7 4.7 10.8 5.1h2c0-.5-.9-4.2-2-6.7-1.1-2.3.1-3 .3-3.1.8-.1 1.7.2 2.3.6.6.4.8 1.1 1 1.9.3 1.8.6 4.1 2.3 4.1.9 0 1.8-.7 1.9-1.6l-.3-.1c-.4.4-.8.6-1.2.6-.6-.1-.8-1.4-.7-4.8zm-2.6-3.4c-.3 0-.5-.2-.5-.5s.2-.5.5-.5.5.2.5.5c-.1.3-.3.5-.5.5z"/><path id="path45" d="M36.4 19.4c0 .3-.1.7-.1 1 1.7 1.8 2 4.4 2 4.4.3-.5.5-1 .7-1.6-.3-2.2-2.6-3.8-2.6-3.8z" class="st3"/><path id="path47" d="M50.1 17c1.3.7 2.1 1.4 3.8 3.5-1.2-2.3-.4-3.3.1-3.5-.1 0-2.2.6-3.9 0z" class="st3"/><path id="path49" d="M48.1 18.9c-3.8-2.2-8.3-2-11.3.1 3.6 2.2 3.1 7.4 3 7.8h2c1-2.2 1-5.1 1-5.1 8.4-3.8 10.7 4.7 10.8 5.1-.4-3.1-2.3-6.1-5.5-7.9z" class="st4"/><path id="path51" d="M46.8 13.2c.4-2.9 1.1-4.2 1.6-4.7.3-.2.6-.3 1-.3 1 0 2.2.4 3.5 1-2.3-1.4-3.5-1.5-4.2-1.5-.2 0-.3 0-.5.1l-.3.3c-.4.6-1.4 2.1-1.8 5.2.4 1.4 3 3.4 3 3.4s-2.3-2.4-2.3-3.5z" class="st5"/><path id="path53" d="M40.6 17.5c1.5.7 2.3 2.4 2.2 4.2 0 0 .5-.2.9-.4-.1-1.7-1.4-3.2-3.1-3.8z" class="st4"/><linearGradient id="path55_1_" x1="838.9485" x2="818.2285" y1="-1233.8011" y2="-1283.4812" gradientTransform="matrix(.2413 0 0 -.2413 -175.5856 -281.4045)" gradientUnits="userSpaceOnUse"><stop offset="0" stop-color="#1cce28"/><stop offset=".21" stop-color="#20c52b"/><stop offset=".56" stop-color="#2aad33"/><stop offset="1" stop-color="#3b8640"/></linearGradient><path id="path55" fill="url(#path55_1_)" d="M22.5 22.3c.7 1.3-.2 4.2-.3 4.5h1.6c1.4-2.1 1.5-3.1 1.5-3.1-.6-.8-1.7-1.3-2.8-1.4z"/><linearGradient id="path57_1_" x1="796.9191" x2="779.4391" y1="-1241.4813" y2="-1283.9614" gradientTransform="matrix(.2413 0 0 -.2413 -175.5856 -281.4045)" gradientUnits="userSpaceOnUse"><stop offset="0" stop-color="#1cce28"/><stop offset=".21" stop-color="#20c52b"/><stop offset=".56" stop-color="#2aad33"/><stop offset="1" stop-color="#3b8640"/></linearGradient><path id="path57" fill="url(#path57_1_)" d="M13.9 20.9c-.1 2.5-1.1 5.7-1.2 5.9h1.6c.7-.8 1.3-1.8 1.6-2.8-.2-1.8-2-3.1-2-3.1z"/><linearGradient id="path59_1_" x1="836.7111" x2="815.741" y1="-1224.7822" y2="-1274.3323" gradientTransform="matrix(.2413 0 0 -.2413 -175.5856 -281.4045)" gradientUnits="userSpaceOnUse"><stop offset="0" stop-color="#1cce28"/><stop offset=".21" stop-color="#20c52b"/><stop offset=".56" stop-color="#2aad33"/><stop offset="1" stop-color="#3b8640"/></linearGradient><path id="path59" fill="url(#path59_1_)" d="M32 19.6c.1-4.1-2.3-5.9-2.3-5.9-1.8-.9-2.6-.9-2.6-.9-1.8-1.1-2.8-1.2-3.4-1.2h-.4l-.2.2c-.4.5-1.2 1.6-1.4 4.2.3 1.1 2.4 2.7 2.4 2.7-1.7-.5-2.8-2.5-2.8-2.5-.2-1.6.2-3 .2-3.1-2 .2-3.9.8-5.7 1.8-1.6 1-2.6 3.3-2.6 3.3-.4.8-.6 1.7-.7 2.6-.1.8-.5 2.3-.5 2.3.1 0 .1 0 .2-.1.8-2 1.5-2.8 1.5-2.8 3.6 1.5 3.1 6.2 3 6.5h1.6c.8-1.7.8-4.1.8-4.1 6.7-3 8.6 3.8 8.7 4.1h1.6c-.3-1.8-.9-3.6-1.6-5.4-.9-1.9.1-2.4.2-2.5.7-.1 1.4.2 1.8.4.5.3.7.8.8 1.5.3 1.4.5 3.3 1.9 3.3.8 0 1.4-.5 1.6-1.3l-.2-.1c-.2.3-.6.4-.9.5-.9.2-1.1-.8-1-3.5zm-2.1-2.8c-.2 0-.4-.2-.4-.4s.2-.4.4-.4.4.2.4.4-.2.4-.4.4z"/><path id="path61" d="M13.9 20.9c0 .2 0 .6-.1.8 1.4 1.4 1.6 3.5 1.6 3.5L16 24c-.3-1.8-2.1-3.1-2.1-3.1z" class="st3"/><path id="path63" d="M24.8 19c1 .6 1.7 1.1 3 2.8-1-1.8-.3-2.6.1-2.8 0 0-1.7.4-3.1 0z" class="st3"/><path id="path65" d="M23.2 20.5c-3.1-1.8-6.6-1.6-9.1.1 2.9 1.7 2.5 5.9 2.4 6.2h1.6c.8-1.7.8-4.1.8-4.1 6.7-3 8.6 3.8 8.7 4.1-.3-2.5-1.9-4.9-4.4-6.3z" class="st4"/><path id="path67" d="M22.2 15.9c.3-2.3.9-3.4 1.3-3.7.2-.2.5-.2.8-.3.8 0 1.7.3 2.8.8-1.8-1.1-2.8-1.2-3.3-1.2h-.4l-.2.2c-.4.5-1.2 1.6-1.4 4.2.3 1.1 2.4 2.7 2.4 2.7s-2-1.8-2-2.7z" class="st5"/><path id="path69" d="M17.2 19.3c1.2.6 1.8 1.9 1.7 3.3 0 0 .4-.2.8-.3-.1-1.3-1.2-2.5-2.5-3z" class="st4"/><path id="path71" d="M7.4 38.9V35H4.8v3.9H2.4V29h2.4v3.8h2.6V29h2.4v9.9H7.4z"/><path id="path73" d="M18 37.9c-.7.7-1.7 1.2-2.8 1.1-1 0-2-.4-2.8-1.1-1-1-1-2.4-1-3.9s0-2.9 1-3.9c.7-.7 1.7-1.2 2.8-1.1 1 0 2 .4 2.8 1.1 1 1 1 2.4 1 3.9s.1 2.9-1 3.9zm-1.8-6.3c-.5-.5-1.3-.6-1.9-.1l-.1.1c-.2.3-.4.6-.4 2.4s.1 2.1.4 2.4c.5.5 1.3.6 1.8.1l.1-.1c.2-.3.4-.6.4-2.4s0-2.2-.3-2.4z"/><path id="path75" d="M25.7 38.9L24 35.2h-.8v3.7h-2.4V29h3.9c2.2 0 3.4 1.6 3.4 3.2 0 1.1-.6 2.1-1.6 2.6l2.1 4.1h-2.9zm-1.2-7.7h-1.4v2h1.4c.6 0 1-.4 1-.9.1-.6-.4-1.1-1-1.1.1 0 0 0 0 0z"/><path id="path77" d="M34 31.2v7.7h-2.4v-7.7h-2.4V29h7.3v2.2H34z"/><path id="path79" d="M43.8 37.9c-1.5 1.5-4 1.5-5.5 0-1-1-1-2.4-1-3.9s0-2.9 1-3.9c1.5-1.5 4-1.5 5.5 0 1 1 1 2.4 1 3.9s0 2.9-1 3.9zM42 31.6c-.5-.5-1.3-.6-1.9-.1l-.1.1c-.2.3-.4.6-.4 2.4s.1 2.1.4 2.4c.5.5 1.3.6 1.8.1l.1-.1c.2-.3.4-.6.4-2.4s-.1-2.2-.3-2.4z"/><path id="path81" d="M52 38.9l-3.2-5v5h-2.4V29h2.1l3.2 5v-5h2.4v9.9H52z"/><path id="path83" d="M65 38.9h-2L61.4 34l-1.6 4.9h-2L55.1 29h2.5l1.3 5.2 1.6-5.2h1.7l1.6 5.2 1.3-5.2h2.5L65 38.9z"/><path id="path85" d="M74.8 37.9c-1.5 1.5-4 1.5-5.5 0-1-1-1-2.4-1-3.9s0-2.9 1-3.9c1.5-1.5 4-1.5 5.5 0 1 1 1 2.4 1 3.9s0 2.9-1 3.9zM73 31.6c-.5-.5-1.3-.6-1.9-.1l-.1.1c-.2.3-.4.6-.4 2.4s.1 2.1.4 2.4c.5.5 1.3.6 1.8.1l.1-.1c.2-.3.4-.6.4-2.4s-.1-2.2-.3-2.4z"/><path id="path87" d="M82.4 38.9l-1.7-3.7h-.8v3.7h-2.4V29h3.9c2.2 0 3.4 1.6 3.4 3.2 0 1.1-.6 2.1-1.6 2.6l2.1 4.1h-2.9zm-1.2-7.7h-1.4v2h1.4c.6 0 1-.4 1.1-.9 0-.6-.4-1-1.1-1.1.1 0 .1 0 0 0z"/><path id="path89" d="M92 38.9l-2.3-4-.8 1V39h-2.4V29h2.4v3.5l2.9-3.5h3l-3.4 4 3.5 5.9H92z"/><path id="path91" d="M98.6 39c-1.5 0-2.7-.3-3.7-1.3l1.6-1.6c.5.5 1.4.7 2.2.7 1 0 1.4-.3 1.4-.9 0-.2-.1-.4-.2-.6-.2-.2-.4-.2-.7-.3l-1.2-.1c-.9-.1-1.5-.4-2-.9-.4-.5-.7-1.1-.7-2 0-1.8 1.4-3.1 3.6-3.1 1.4 0 2.5.3 3.3 1.2l-1.5 1.5c-.6-.6-1.4-.6-1.9-.6-.8 0-1.2.5-1.2.9 0 .2.1.3.2.5.2.2.4.3.7.3l1.2.2c.9.1 1.5.4 1.9.8.5.5.7 1.2.7 2.2.1 2-1.6 3.1-3.7 3.1z"/></svg>
