<svg xmlns="http://www.w3.org/2000/svg" id="Layer_1" width="90" height="30" viewBox="0 0 444 128"><style>.st0{fill:#231f20}</style><path d="M428.4 75.1h-56.5v-1.9h56.5v1.9zm-28.3-10.8l5.3-5.1 2.2 2.2-5.7 4.9c-.5.6-.8 1.5-1.1 2.1h-4.2c.2-1.6 2.4-3.6 3.5-4.1m-17.7-32.5c-.2.1-4.4 1.2-4.4 1.2s-2 .8-2.8 1.3c-.9.6-1.8 1.6-1.9 2.1l3.8.9c.6-.6 1.2-1.3 1.8-1.8l.9-.4 3.1-3.2c-.1 0-.2-.1-.5-.1m25.5 10.4c-2.4-2.7-4.5-5.1-6.4-8.1 1.3-2.4 2.2-8.8 1.6-11.3-.2-.8-2.3-3.5-2.7-3.9-.5-.5-2.2-2.4-3-2.4-.2 0-.3.1-.4.1l.2 2.1c-2.3 1.4-5.2 3.4-7.9 5.4 0 .8.1 1.9.1 2.3.4.3.9.6 1.4.8 1-.2 4.3-1 5.1-.9l-3.2 4.8-3.6 2.6-4.6-1.4c-.3-.1-.6 0-.8.2l-3.4 3.6c-.2.2-.3.3-.3.8l-.1 4.1s-.1.6-.1 1.3c0 2.9 1.3 4.3 1.3 4.3l2.2-3.2c-.3-.5-.8-1.7-.9-2.3 0-.1.1-3.5.1-3.5l2.1-1.6 5.7 4s1.6 2.9 3.1 4.6c1 1.2 5.9 4.5 8.3 5.9.2 1.3.8 3.4 1.2 4.5l6.9 7.1-4.1 5.1c-1.4.9-2.8 2.6-2.7 4.2h4.7l.5-2.7 5.7-6.3c.3-.3.3-.5.1-1l-1.6-5.4c.8-.9 2.5-3.2 2.5-6 .3-5.1-5.2-6.4-7-7.8m8.9 8.4c-.3-1.3-.9-2.8-1.3-3.6 0 0 .2-.2.7.1.5.3 3.4 2.3 3.4 2.3 1.5 2.2 2.4 11.2 2.5 14.5-1.4-.6-3.4-1.7-4.6-2.9l-.7-10.4zM352.6 97.2h-1.8v14.4h2.8v-10.8c1.2-.7 2.6-1.4 4.2-1.4 1.4 0 2.2.5 2.2 2.3v10h2.8v-10.6c0-3.1-1.7-4-3.7-4-2.1 0-4.1.9-5.5 2 0-1.6-.3-1.9-1-1.9m-12.3 12.4c-2.4 0-4-1.7-4-5.2s1.6-5.3 4-5.3 4 1.9 4 5.3-1.5 5.2-4 5.2m0 2.1c3.9 0 6.9-2.7 6.9-7.3s-3-7.4-6.9-7.4-6.9 2.9-6.9 7.4 3 7.3 6.9 7.3m-12-16.1c.9 0 1.6-.7 1.6-1.6s-.8-1.6-1.6-1.6c-.9 0-1.7.7-1.7 1.6.1.9.8 1.6 1.7 1.6m1.4 15.9V99.3c0-1.8-.1-2.1-1.2-2.1h-1.6v14.4l2.8-.1zm-14.9-12.4h1.7v8.8c0 2.7 1.4 3.7 3.9 3.7 1 0 1.8-.1 2.3-.3v-1.8h-1.3c-1.4 0-2.1-.4-2.1-2v-8.4h3.2v-2h-3.2v-3.9h-2.8v3.9h-1.7v2zm-9.1 10.5c-2.4 0-4-1.7-4-5.2s1.6-5.3 4-5.3 4 1.9 4 5.3c.1 3.4-1.5 5.2-4 5.2m0 2.1c3.9 0 6.9-2.7 6.9-7.3s-3-7.4-6.9-7.4-6.9 2.9-6.9 7.4c.1 4.5 3 7.3 6.9 7.3m-29-.2h2.5V95.8h.1l5.4 15.7h1.9l5.5-15.7h.1v15.7h3V92.3h-4.1l-5.1 14.6-5.1-14.6h-4.1l-.1 19.2zm-21.8-14.3h-1.8v14.4h2.8v-10.8c1.2-.7 2.6-1.4 4.2-1.4 1.4 0 2.2.5 2.2 2.3v10h2.8v-10.6c0-3.1-1.7-4-3.7-4-2.1 0-4.1.9-5.5 2 0-1.6-.3-1.9-1-1.9m-7.9-1.6c.9 0 1.6-.7 1.6-1.6s-.8-1.6-1.6-1.6-1.6.7-1.6 1.6.7 1.6 1.6 1.6m1.4 15.9V99.3c0-1.8-.1-2.1-1.2-2.1h-1.6v14.4l2.8-.1zM229 98.9c2 0 3.2 1.1 3.2 4.2h-6.9c.3-3.1 1.8-4.2 3.7-4.2m6 6v-1c0-4.7-2.2-7-6-7-3.7 0-6.6 2.9-6.6 7.4s2.4 7.3 6.8 7.3c2.7 0 4.3-.8 5.3-1.5v-2h-.9c-.9.7-2.1 1.3-4 1.3-2.7 0-4.2-1.3-4.4-4.7h9.8v.2zm-15.3-5.5h.6v-2.3c-.2-.1-.4-.1-.8-.1-1.8 0-3.2 1-4.1 2.1-.1-1.7-.4-2-1-2h-1.8v14.4h2.8V101c.9-.8 2.3-1.6 4.3-1.6m-18.8 10.1c-1.3 0-2.2-.4-2.2-2.3V97.1h-2.8v10.7c0 2.9 1.7 3.8 3.9 3.8 1.9 0 3.8-.8 5.2-1.8.1 1.4.4 1.6 1 1.6h1.8V97H205v11c-1.1.8-2.6 1.5-4.1 1.5m-16.3-10.4h1.7v8.8c0 2.7 1.4 3.7 3.9 3.7 1 0 1.8-.1 2.3-.3v-1.8h-1.3c-1.4 0-2.1-.4-2.1-2v-8.4h3.2v-2h-3.2v-3.9h-2.8v3.9h-1.7v2zm-10.5 10.4c-1.3 0-2.2-.4-2.2-2.3V97.1H169v10.7c0 2.9 1.7 3.8 3.9 3.8 1.9 0 3.8-.8 5.2-1.8.1 1.4.4 1.6 1 1.6h1.8V97h-2.8v11c-1.1.8-2.6 1.5-4 1.5m-16.3 2v-8.3h6.7V101h-6.7v-6.4h8.9v-2.3h-11.8v19.2h2.9zM138 98.9c2 0 3.2 1.1 3.2 4.2h-6.9c.4-3.1 1.8-4.2 3.7-4.2m6 6v-1c0-4.7-2.2-7-6-7-3.7 0-6.6 2.9-6.6 7.4s2.4 7.3 6.8 7.3c2.7 0 4.3-.8 5.3-1.5v-2h-.9c-.9.7-2.1 1.3-4 1.3-2.7 0-4.2-1.3-4.4-4.7h9.8v.2zm-25.4-10.7c0-1.6-.2-1.9-1.3-1.9h-1.5v19.2h2.8v-10.8c1.2-.7 2.6-1.4 4.2-1.4 1.4 0 2.2.5 2.2 2.3v10h2.8V101c0-3.1-1.7-4-3.7-4-2.1 0-4.1.9-5.5 2v-4.8zm-11.5 17.3v-17h5.5v-2.2h-14v2.2h5.5v17h3zM270.1 48.6c0-3.5-1.1-6.2-4.1-6.2s-4.2 2.7-4.2 6.2v22.8h3.5V75H246v-3.6h3.6V39.9H246v-3.5h15.2v5.9h.2c1.4-3.2 4.8-6.6 10.2-6.6 5.7 0 9.1 3.5 10.2 8 .4 1.8.5 4.7.5 6.2v21.5h4.6V75h-16.8V48.6zm-78 0c0-3.5-1.1-6.2-4.1-6.2s-4.2 2.7-4.2 6.2v22.8h3.5V75H168v-3.6h3.6V39.9H168v-3.5h15.2v5.9h.2c1.4-3.2 4.8-6.6 10.2-6.6 5.7 0 9.1 3.5 10.2 8 .4 1.8.5 4.7.5 6.2v21.5h4.6V75h-16.8V48.6zM303.3 40v28.6c0 2 1.3 2.4 2.5 2.4s2.3-.4 2.3-.4v3.5s-2.3 1.4-7.5 1.4c-6 0-9.5-3-9.5-9.2V39.9H287v-2.6c4.6-3.6 9.9-7.8 14.1-11.3h2.3v10.4h5.9v3.5h-6v.1zm-241-23.6s9.3 9.3 13.6 14.1v3.6c-4-4.2-12.3-7.7-19.9-7.7-17.4 0-28.3 13.1-28.3 29.4C27.7 72 38.1 85.1 56 85.1c9 0 16.1-4.2 20.1-8.6V80c-5.4 7.5-15.4 12.3-27.8 12.3-22.1 0-37.4-16.1-37.4-36.5 0-20.5 16.9-36.5 37.4-36.5 5.2 0 9.9.9 14 2.3v-5.2zm178.1 48.4c-1.7 2-4.5 3.6-8.5 3.6-3.5 0-9-2-9.2-10.9h20.6c.1-.7.1-2.1.1-2.8 0-10.9-4.5-19-16.1-19-11.7 0-17.6 9-17.6 20.1 0 11.2 6 19.9 17.6 19.9 7.5 0 12.3-3.5 15-9.1l-1.9-1.8zm-17.7-11.1c0-10.2.8-14 4.3-14s4.2 3.7 4.3 14h-8.6zM52.2 55.6c0-11.8 1.1-17 5.1-17s5.1 5.2 5.1 17-1.1 17-5.1 17-5.1-5.2-5.1-17m-14.3.2c0 11.7 7.2 21.2 19.4 21.2 12.3 0 19.4-9.5 19.4-21.2s-7.2-21.2-19.4-21.2-19.4 9.5-19.4 21.2m66.2-7.2c0-3.5-1.1-6.2-4.1-6.2s-4.2 2.7-4.2 6.2v22.8h3.5V75H80v-3.6h3.6V39.9H80v-3.5h15.2v5.9h.2c1.4-3.2 4.8-6.6 10.2-6.6 5.7 0 9.1 3.5 10.2 8 .4 1.8.5 4.7.5 6.2v21.5h4.6V75h-16.8V48.6zm43.7-22.4c0 3.4 3.1 5.7 7.5 5.7s7.5-2.3 7.5-5.7c0-3.4-3.1-5.7-7.5-5.7s-7.5 2.3-7.5 5.7M137.3 40v28.6c0 2 1.3 2.4 2.5 2.4s2.3-.4 2.3-.4v3.5s-2.3 1.4-7.5 1.4c-6 0-9.5-3-9.5-9.2V39.9H121v-2.6c4.6-3.6 9.9-7.8 14.1-11.3h2.3v10.4h4.7v3.5h-4.8v.1zm225.5 31.4h4.7V75h-16.9V25.6h-4.2v-3.5h16.4v49.3zm-32.6-15.5c-.3-.3-1.1-.8-2.7-.8-3.6 0-4.5 3.6-4.5 7.3 0 3.6 1.1 6.6 4.2 6.6 1.5 0 2.4-.6 2.9-1.2V55.9h.1zm.5 14.5h-.2c-2.3 3.2-5.3 5.3-9.9 5.3-6.3 0-10.2-5.4-10.2-11.8 0-7.7 5.5-12.7 14.3-12.7 3.6 0 5.5.8 5.5.8v-2.4c0-4.7-2.9-7.2-7.1-7.2-5.8 0-8.8 4.5-8.8 4.5l-2.1-2.6c3.9-6 9.8-8.7 15.4-8.7 9.4 0 14.9 5.6 14.9 14v21.7h3.9v3.6h-15.6l-.1-4.5zm-185.1 4.7v-3.6h3.5V40h-3.5v-3.5h15.7v35h3.6v3.6h-19.3z" class="st0"/></svg>