<svg xmlns="http://www.w3.org/2000/svg" xmlns:xlink="http://www.w3.org/1999/xlink" id="layer" width="90" height="30" viewBox="0 0 652 310"><style>.st0{fill:#605350}</style><path d="M275.2 144.3c-1.7-.2-3.5-.3-5.2-.3h-7.2c-1.7 0-3.5.1-5.2.3-6 .7-12.1 2.9-17.2 6.7-5.1-3.8-11.1-5.9-17.1-6.7-1.7-.2-3.5-.3-5.2-.3h-7.2c-1.7 0-3.5.1-5.2.3-15.1 1.9-30.4 12.4-30.4 36.1v59h26.6v-59.9c0-6 3.2-9.3 8.9-9.3h7.2c5.8 0 8.9 3.3 8.9 9.3v59.9h26.8v-59.9c0-6 3.2-9.3 8.9-9.3h7.2c5.8 0 8.9 3.3 8.9 9.3v59.9h26.6v-59c.3-23.7-15-34.3-30.1-36.1m325.1 22.8h26.2v-23h-26.2c-1.7 0-2.3-.7-2.3-2.2V121h-28.4v94.8c0 18.1 5.7 23.7 28.6 23.7h28.3v-23.7h-21.2c-4.8 0-7.3-2.4-7.3-8v-38.3c0-1.4 1-2.4 2.3-2.4m-467.2 72.3h26.7v-93.1h-26.7v93.1zm287.3 0h26.1V120.9h-26.1v118.5zm96.2-95h-17.2c-25.6.8-37.6 6.7-37.6 47 0 39.6 12.7 49 37.6 49h17.2c24.9 0 37.6-9.3 37.6-49 0-40.2-12.1-46.1-37.6-47m-8.7 72.9c-15.2-.5-17.7-4-17.7-25.6 0-20.4 2.2-23.8 17.7-24.4 15.5.6 17.7 4 17.7 24.4 0 21.6-2.4 25-17.7 25.6m-159.8-73c-17.5 0-27-.1-27-.1v137.3l26.9-.1v-40.5c35.9 0 57.3.1 57.3-49.4-.1-49.5-18.1-47.2-57.2-47.2m0 73.1v-50.3c25.7 0 28.6 0 28.6 24.6 0 26.1-3.3 25.7-28.6 25.7M86.2 165.5h-37c-4.6 0-7.8-3.5-7.8-7.8v-3.3c0-4.3 3.3-7.8 7.8-7.8H114v-26H51.6c-23.7 0-34.3 14.5-36.1 29.8-.2 1.7-.3 3.5-.3 5.3 0 1.7.1 3.4.4 5.4 1.8 15.1 12.3 32.9 36.1 32.9h34c4.6 0 7.8 3.5 7.8 7.8v3.4c0 4.3-3.3 7.8-7.8 7.8H17.8v26.6h65.5c23.7 0 34.3-15.9 36.1-31.2.2-1.8.3-3.5.3-5.3 0-1.7-.1-3.4-.3-5.4-1.6-14.6-11.4-31.6-33.2-32.2" class="st0"/><g opacity=".5"><defs><path id="SVGID_1_" d="M242.5 18.4H404v110.1H242.5z"/></defs><clipPath id="SVGID_2_"><use overflow="visible" xlink:href="#SVGID_1_"/></clipPath><g clip-path="url(#SVGID_2_)"><defs><path id="SVGID_3_" d="M242.5 18.4H404v110.1H242.5z"/></defs><clipPath id="SVGID_4_"><use overflow="visible" xlink:href="#SVGID_3_"/></clipPath></g></g><path fill="#ffd108" d="M394.5 69.7c-.2 0-14 49.8-73.8 49.8s-73.8-48.9-73.8-49.6c39.3-5.4 52.9 7.1 52.9 7.1s0-35.9 21.1-54.3c20 18.1 20 54.3 20 54.3s14.1-12.4 53.6-7.3"/><path fill="none" stroke="#fff" stroke-linecap="round" stroke-linejoin="round" stroke-width=".922" d="M394.5 69.7c-.2 0-14 49.8-73.8 49.8s-73.8-48.9-73.8-49.6c39.3-5.4 52.9 7.1 52.9 7.1s0-35.9 21.1-54.3c20 18.1 20 54.3 20 54.3s14.1-12.4 53.6-7.3"/><g opacity=".6"><defs><path id="SVGID_5_" d="M247.6 23.4H394v96H247.6z"/></defs><clipPath id="SVGID_6_"><use overflow="visible" xlink:href="#SVGID_5_"/></clipPath><g clip-path="url(#SVGID_6_)"><defs><path id="SVGID_7_" d="M394 69.9c-.2 0-13.9 49.5-73.2 49.5s-73.2-48.5-73.2-49.2c38.9-5.4 52.4 7.1 52.4 7.1s0-35.6 20.9-53.9c19.8 18 19.8 53.9 19.8 53.9s14.1-12.5 53.3-7.4"/></defs><clipPath id="SVGID_8_"><use overflow="visible" xlink:href="#SVGID_7_"/></clipPath><linearGradient id="SVGID_9_" x1="-294.867" x2="-289.88" y1="-219.693" y2="-219.693" gradientTransform="translate(8904.707 6521.475) scale(29.3594)" gradientUnits="userSpaceOnUse"><stop offset="0" stop-color="#ffd108"/><stop offset=".544" stop-color="#fccf0c"/><stop offset=".74" stop-color="#f5ca15"/><stop offset=".879" stop-color="#ebc11e"/><stop offset=".991" stop-color="#dcb626"/><stop offset="1" stop-color="#dbb527"/></linearGradient><path fill="url(#SVGID_9_)" d="M247.6 23.4H394v96H247.6z" clip-path="url(#SVGID_8_)"/></g></g><g><defs><path id="SVGID_10_" d="M302.1 81.7s-17.6-14-50.8-9c0 .6 12.6 30 44.8 40.8 4.9-22.1 20.4-40.1 40.9-48.7-2-11.7-6.4-27.3-16-36.8-18 17-18.9 53.7-18.9 53.7"/></defs><clipPath id="SVGID_11_"><use overflow="visible" xlink:href="#SVGID_10_"/></clipPath><linearGradient id="SVGID_12_" x1="-310.311" x2="-305.325" y1="-234.553" y2="-234.553" gradientTransform="rotate(45 -5241.618 3477.286) scale(12.1328)" gradientUnits="userSpaceOnUse"><stop offset="0" stop-color="#ffeab5"/><stop offset=".115" stop-color="#ffe9ae"/><stop offset=".298" stop-color="#ffe59c"/><stop offset=".524" stop-color="#ffdf7f"/><stop offset=".783" stop-color="#ffd74f"/><stop offset="1" stop-color="#ffd108"/></linearGradient><path fill="url(#SVGID_12_)" d="M294.1-14.8l85.5 85.6-85.5 85.5-85.6-85.5z" clip-path="url(#SVGID_11_)"/></g><g><path fill="none" stroke="#fff" stroke-linecap="round" stroke-linejoin="round" stroke-width=".788" d="M394.5 69.7c-.2 0-14 49.8-73.8 49.8s-73.8-48.9-73.8-49.6c39.3-5.4 52.9 7.1 52.9 7.1s0-35.9 21.1-54.3c20 18.1 20 54.3 20 54.3s14.1-12.4 53.6-7.3"/><path d="M633.3 239.7c-1.3 0-1.8-.3-2.2-.7-.5-.5-.9-1.4-.9-4s.4-3.5.9-4c.4-.5.9-.7 2.2-.7h2.4c1.4 0 1.8.3 2.2.7.5.5.9 1.4.9 4s-.4 3.5-.9 4c-.4.4-.9.7-2.2.7h-2.4zm2.2-.8c1 0 1.4-.1 1.7-.5.4-.4.6-1.1.6-3.5 0-2.3-.2-3.1-.6-3.4-.3-.3-.7-.5-1.7-.5h-2.1c-1 0-1.4.2-1.7.5-.4.4-.7 1.1-.7 3.4s.3 3.1.7 3.5c.3.3.7.5 1.7.5h2.1zm-.3-3.2c-.1-.1-.2-.1-.5-.1h-1v1.9h-1.3v-5.1h3.1c.4 0 .7.1.8.2.2.2.3.5.3 1.2 0 .9-.2 1.2-.9 1.3.6.1.8.2.8 1 0 .6 0 1 .1 1.3h-1.3c-.1-.3-.1-.7-.1-1.2.1-.4.1-.5 0-.5m.1-2.3c-.1-.1-.1-.1-.3-.1h-1.2v1.3h1.2c.2 0 .3 0 .3-.1s.1-.2.1-.6-.1-.4-.1-.5" class="st0"/></g></svg>