<svg xmlns="http://www.w3.org/2000/svg" id="Layer_1" viewBox="0 0 140 40"><style>.st0{fill:#53a318}</style><path d="M69.2 31.5c4.6 0 7.7-3 7.7-8.1V10.5h-5.1v12.7c0 2.4-.8 3.5-2.6 3.5-1.7 0-2.4-1.2-2.4-3.5V10.5h-5.1v12.9c0 5.2 2.8 8.1 7.5 8.1zM90.5 11.6c-1.4-1-3.1-1.1-5.2-1.1h-6.9v20.7h5.1v-6.7H85c2.2 0 3.8-.1 5.1-.9 2.1-1.3 3.3-3.5 3.3-6.1-.1-2.6-1.1-4.6-2.9-5.9zM84.4 20h-.9v-4.9h1.3c2.2 0 3.3.7 3.3 2.4.1 1.9-1.2 2.5-3.7 2.5zM121.3 19.7l7.7 11.5h4.4V10.5h-5V22l-7.6-11.5h-4.6v20.7h5.1zM57.2 13.2c-2-2-4.6-3.1-7.4-3.1-2.9 0-5.5 1-7.5 3s-3.1 4.6-3.1 7.5c0 3.1 1 5.6 2.9 7.7 2 2.2 4.7 3.3 7.7 3.3 2.9 0 5.6-1.1 7.6-3.2 1.9-2 3-4.7 3-7.6 0-2.9-1.1-5.6-3.2-7.6zm-7.4 13.2c-2.9 0-5.4-2.5-5.4-5.8 0-3 2.4-5.4 5.5-5.4 2.9 0 5.3 2.4 5.3 5.4 0 3.4-2.4 5.8-5.4 5.8zM112 13.2c-2-2-4.6-3.1-7.4-3.1-2.9 0-5.5 1-7.5 3S94 17.7 94 20.6c0 3.1 1 5.6 2.9 7.7 2 2.2 4.7 3.3 7.7 3.3 2.9 0 5.6-1.1 7.6-3.2 1.9-2 3-4.7 3-7.6 0-2.9-1.1-5.6-3.2-7.6zm-7.4 13.2c-2.9 0-5.4-2.5-5.4-5.8 0-3 2.4-5.4 5.5-5.4 2.9 0 5.3 2.4 5.3 5.4 0 3.4-2.5 5.8-5.4 5.8zM3.9 28.3c2 2.2 4.6 3.3 7.7 3.3 3.5 0 6.8-1.7 8.8-4.6 1.2-1.7 1.8-3.7 1.8-6.1 0-.4 0-.9-.1-1.4H10.4v4.1h5.9c-1 1.8-2.7 2.8-4.7 2.8-2.9 0-5.4-2.5-5.4-5.8 0-3 2.4-5.4 5.4-5.4 1.6 0 3 .7 4.2 2h5.8c-1.7-4.4-5.5-7.1-9.9-7.1-2.9 0-5.5 1-7.5 3.1-2 2-3.1 4.6-3.1 7.5-.1 3 .9 5.5 2.8 7.6zM33.7 24.1c2.9-.8 4.7-3.3 4.7-6.7 0-2.6-1-4.5-2.8-5.8-1.4-1-3.1-1.1-5.2-1.1h-6.9v20.7h5.1v-6.7l4 6.7h6.3l-5.2-7.1zM29.5 20h-1v-4.9h1.4c2.2 0 3.3.7 3.3 2.4 0 1.9-1.2 2.5-3.7 2.5zM136.4 13.1c.4 0 .8-.2 1.1-.5.3-.3.5-.7.5-1.1 0-.4-.2-.8-.5-1.1-.3-.3-.7-.5-1.1-.5-.4 0-.8.2-1.1.5-.3.3-.5.7-.5 1.1 0 .4.2.8.5 1.1.3.4.7.5 1.1.5zm-.9-2.5c.3-.3.6-.4 1-.4s.7.1 1 .4c.3.3.4.6.4 1s-.1.7-.4 1c-.3.3-.6.4-1 .4s-.7-.1-1-.4c-.3-.3-.4-.6-.4-1s.1-.7.4-1z" class="st0"/><path d="M137.1 12.4s0-.1 0 0V12c0-.1 0-.2-.1-.3-.1-.1-.2-.1-.3-.2.1 0 .2 0 .2-.1.1-.1.2-.2.2-.3 0-.2-.1-.4-.3-.4-.1 0-.3-.1-.5-.1h-.6v1.7h.3v-.7h.2c.2 0 .3 0 .3.1.1.1.2.2.2.4v.2l.4.1zm-.4-.9h-.6v-.6h.3c.2 0 .3 0 .4.1.1 0 .1.1.1.3l-.2.2z" class="st0"/></svg>