<?xml version="1.0" encoding="UTF-8" standalone="no"?>
<!-- Created with Inkscape (http://www.inkscape.org/) -->
<svg xmlns:rdf="http://www.w3.org/1999/02/22-rdf-syntax-ns#" xmlns="http://www.w3.org/2000/svg" height="78.9213" width="329.195" version="1.1" xmlns:cc="http://creativecommons.org/ns#" xmlns:dc="http://purl.org/dc/elements/1.1/">
 <metadata>
  <rdf:RDF>
   <cc:Work rdf:about="">
    <dc:format>image/svg+xml</dc:format>
    <dc:type rdf:resource="http://purl.org/dc/dcmitype/StillImage"/>
    <dc:title/>
   </cc:Work>
  </rdf:RDF>
 </metadata>
 <g fill-rule="nonzero" transform="translate(-52.238464,-671.81585)">
  <path fill="#000" d="m371.433,716.924-28.8312,0,0-15.0425-3.7625,0,0-5.01512,3.7625,0,0-15.043,28.8312,0,0,8.77499-5.0125,0,0-3.76024-18.805,0,0,10.0282,10.0288,0,0,5.01512-10.0288,0,0,10.0279,18.805,0,0-3.75975,5.0125,0,0,8.77437m-42.1688,0.005-25.0725-22.5693,0,22.5644-5.015,0,0-35.1074,25.0712,22.5702,0-22.5635,5.01625,0,0,35.1055m-51.4812-15.0415-4.65125-9.52874-4.61875,9.5195,9.27,0.009zm12.8988,15.0366-5.52,0.002-4.96-10.0312-14.0288,0-5.07125,10.0312-5.52-0.002,5.01375-10.0288-2.50625,0,0-5.01375,5.0675,0.001,9.975-20.0664,17.55,35.1074m-42.2188,0.0005-6.51125-0.007-13.05-15.0318-3.75625-0.003,0,15.0425-5.015,0,0-15.0425-3.76125,0,0-5.01512,3.76125,0,0-15.043,5.015,0,0,15.043,3.75625-0.004,13.05-15.0332,6.51-0.006-15.0438,17.5499,15.045,17.5508m-45.7412-25.0722c0-1.42037-0.50625-2.61187-1.51875-3.57325-1.0125-0.9605-2.1775-1.44087-3.4975-1.44087h-13.7946v10.0282h13.7946c1.38625,0,2.57-0.497,3.5475-1.49113,0.98-0.99513,1.46875-2.1695,1.46875-3.523zm5.0175,0.001c0,2.726-0.97625,5.079-2.925,7.06-1.94875,1.9805-4.32375,2.97175-7.1175,2.97175l7.52375,15.0424-6.0125-0.004-7.75-15.0425h-7.54712v15.0425h-5.01413v-15.0425h-3.76075v-5.01512h3.76075v-15.043h18.8088c2.74,0,5.1,0.98587,7.0725,2.959,1.9725,1.97274,2.96125,4.33062,2.96125,7.07137m-52.7712,10.0342-4.65137-9.52874-4.61763,9.5195,9.269,0.009zm12.8984,15.0366-5.52,0.002-4.959-10.0312-14.0288,0-5.07125,10.0312-5.52063-0.002,5.01375-10.0288-2.50737,0,0-5.01375,5.06937,0.001,9.97413-20.0664,17.5498,35.1074"/>
  <path fill="#ff8a00" d="m370.706,730.398-1.15,1.11084c-0.315-0.39893-0.75375-0.72853-1.31875-0.98634-0.5625-0.26025-1.1075-0.38817-1.635-0.38817-0.64375,0-1.2375,0.15136-1.785,0.45898-0.48875,0.27929-0.94375,0.68262-1.36,1.20849l7.1575,4.95606c-0.435,1.21094-1.12125,2.17529-2.06,2.89453-0.94,0.72363-2.00125,1.08496-3.1825,1.08496-0.83125,0-1.6125-0.18652-2.3475-0.55664-0.6875-0.34668-1.27375-0.82128-1.755-1.41944l1.18-1.10986c0.33125,0.40772,0.765,0.74073,1.2975,0.99609,0.53125,0.25147,1.0725,0.37989,1.625,0.37989,0.6625,0,1.265-0.15039,1.80375-0.45313,0.47875-0.26855,0.92125-0.66063,1.33125-1.18017l-7.175-4.95264c0.42375-1.1875,1.09875-2.14452,2.02625-2.87354,0.97-0.76513,2.05-1.14501,3.24125-1.14501,0.78,0,1.53375,0.17724,2.26375,0.5288,0.73125,0.35499,1.345,0.83496,1.8425,1.4463m-38.025,4.08691c0-1.23047-0.39625-2.27783-1.18625-3.14551-0.7925-0.8667-1.74625-1.30274-2.86625-1.30274-1.11125,0-2.06,0.43701-2.84375,1.30615-0.78375,0.87159-1.17625,1.91652-1.17625,3.1421,0,1.22705,0.3925,2.27442,1.17625,3.14453,0.78375,0.86913,1.7325,1.30371,2.84375,1.30371,1.12,0,2.07375-0.4331,2.86625-1.30029,0.79-0.86621,1.18625-1.91651,1.18625-3.14795zm1.5375,0c0,1.70019-0.54625,3.15283-1.6375,4.35449-1.09375,1.20215-2.40875,1.80518-3.9525,1.80518-1.54125,0-2.8575-0.60303-3.95125-1.80518-1.09125-1.20166-1.6375-2.6543-1.6375-4.35449,0-1.7002,0.54625-3.14941,1.6375-4.35058,1.09375-1.20362,2.41-1.80518,3.95125-1.80518,1.54375,0,2.85875,0.60156,3.9525,1.80518,1.09125,1.20117,1.6375,2.65038,1.6375,4.35058m-44.9888,5.98633,1.55372,0,0-11.9712-1.55372,0,0,11.9712zm-34.185-5.98633c0-1.18066-0.37875-2.1875-1.1375-3.02246-0.7575-0.83496-1.6725-1.25245-2.7425-1.25245h-2.345v8.55127h2.345c1.07,0,1.985-0.41649,2.7425-1.25389,0.75875-0.83399,1.1375-1.8418,1.1375-3.02247zm1.5375,0.009c0,1.66455-0.52125,3.07861-1.56375,4.23779-1.0425,1.16113-2.33125,1.73975-3.8625,1.73975h-3.89v-11.9712h3.89875c1.5,0,2.7775,0.58349,3.83375,1.75244,1.05625,1.16845,1.58375,2.58447,1.58375,4.24121m-38.2762,0.84647c0,1.4419-0.45625,2.68798-1.3725,3.73193-0.915,1.04736-2.0125,1.57227-3.2925,1.57227-1.28125,0-2.38-0.52491-3.29375-1.57227-0.915-1.04395-1.3725-2.29003-1.3725-3.73193v-6.84033h1.555v6.84033c0,0.97412,0.3025,1.8169,0.90625,2.52587,0.60375,0.7129,1.33875,1.0669,2.205,1.0669,0.855,0,1.58625-0.354,2.19625-1.0669,0.60875-0.70897,0.91375-1.55175,0.91375-2.52587v-6.84033h1.555v6.84033m-37.9502-3.84863-1.55525,0,0-1.28175-2.335,0,0,10.2612-1.55412,0,0-10.2612-2.333,0,0,1.28175-1.55525,0,0-2.9917,9.33262,0,0,2.9917m-37.7192-1.09375-1.15,1.11084c-0.31787-0.39893-0.75675-0.72853-1.31925-0.98634-0.5615-0.26025-1.10837-0.38817-1.63725-0.38817-0.643,0-1.23675,0.15136-1.78075,0.45898-0.49312,0.27929-0.94625,0.68262-1.36137,1.20849l7.15575,4.95606c-0.435,1.21094-1.1215,2.17529-2.0605,2.89453-0.9395,0.72363-1.999,1.08496-3.18113,1.08496-0.83012,0-1.61325-0.18652-2.34912-0.55664-0.6895-0.34668-1.27488-0.82128-1.75738-1.41944l1.18213-1.10986c0.33112,0.40772,0.76375,0.74073,1.29787,0.99609,0.53425,0.25147,1.07613,0.37989,1.626,0.37989,0.66363,0,1.26463-0.15039,1.80425-0.45313,0.477-0.26855,0.92038-0.66063,1.3295-1.18017l-7.17862-4.95264c0.42675-1.1875,1.1025-2.14452,2.03075-2.87354,0.96875-0.76513,2.05025-1.14501,3.24262-1.14501,0.77838,0,1.53125,0.17724,2.26363,0.5288,0.73,0.35499,1.34475,0.83496,1.84287,1.4463"/>
  <path fill="#000" d="m92.7512,691.049c3.20312,0,7.30175,12.6558,10.0361,20.1714,2.73437,7.51512,8.47362,28.7198,8.47362,28.7198s-2.61425-20.0635-5.34862-30.376c-2.73438-10.3125-6.67675-19.8432-9.0205-23.2808-2.34375-3.4375-4.14062-4.46676-4.14062-4.46676s-1.79688,1.02926-4.14062,4.46676c-2.34375,3.4375-6.64062,12.9682-9.375,23.2808-2.73438,10.3125-5.70318,30.376-5.70318,30.376s6.0938-21.2046,8.82818-28.7198c2.73438-7.51563,7.1875-20.1714,10.3906-20.1714"/>
  <path fill="#000" d="m70.9934,706.201c1.0166-3.03763,14.3189-2.90826,22.314-3.11725,7.99412-0.208,29.9243,1.07762,29.9243,1.07762s-19.8559-3.88662-30.5029-4.56637c-10.648-0.67913-20.937,0.0356-24.9409,1.16699-4.00341,1.13238-5.54931,2.50976-5.54931,2.50976s0.405761,2.03025,2.92188,5.34375c2.5166,3.31349,10.1914,10.4121,19.103,16.2779,8.91212,5.86376,26.9976,15.0459,26.9976,15.0459s-18.1759-12.5059-24.4351-17.4854c-6.25975-4.9765-16.8491-13.2148-15.8325-16.2529"/>
 </g>
</svg>
