<?xml version="1.0" encoding="utf-8"?>
<!-- Generator: Adobe Illustrator 21.0.0, SVG Export Plug-In . SVG Version: 6.00 Build 0)  -->
<svg version="1.1" id="Layer_1" xmlns="http://www.w3.org/2000/svg" xmlns:xlink="http://www.w3.org/1999/xlink" x="0px" y="0px"
	 viewBox="0 0 224 96.9" style="enable-background:new 0 0 224 96.9;" xml:space="preserve">
<style type="text/css">
	.st0{fill:#716FB3;}
	.st1{fill:#455560;}
</style>
<g>
	<path class="st0" d="M221.6-0.3h-7.5c-1.9,0.1-3.6,1.4-4.1,3.2l-9.7,41.2c4.4,1.3,8.8,3,13,5l10.9-46.3c0.4-1.3-0.4-2.7-1.7-3.1
		C222.1-0.3,221.9-0.3,221.6-0.3z M201.2,12.6h-7.5c-1.9,0.1-3.6,1.4-4.1,3.2l-5.8,24.6c4.5,0.7,9,1.7,13.5,2.9l6.4-27.5
		c0.4-1.3-0.4-2.7-1.7-3.1C201.8,12.7,201.5,12.6,201.2,12.6L201.2,12.6z M163,28.6h-7.5c-1.9,0.1-3.6,1.4-4.1,3.2l-1.6,6.8
		c1.2-0.1,2.4-0.1,3.6-0.2c3.7,0,7.2,0,10.5,0.1l1.6-6.8c0.4-1.3-0.4-2.7-1.7-3.1C163.6,28.6,163.3,28.6,163,28.6z M182.6,20h-7.5
		c-1.9,0.1-3.6,1.4-4.1,3.2l-3.6,15.5c5,0.3,9.6,0.7,13.8,1.3l4-16.8c0.4-1.3-0.4-2.7-1.7-3.1C183.1,20,182.9,20,182.6,20z"/>
	<path class="st1" d="M8.8,55.5c0.5-2,2.3-3.4,4.4-3.5h7.4c1.9,0,3.5,1.5,3.5,3.4c0,0.1,0,0.1,0,0.2L24,60.7c-0.1,2-0.2,5.2-0.2,7.2
		c0,0-0.1,2.9-0.1,4.1c-0.2,3.7-0.4,6.8-0.6,10.8c0.9-2,1.9-4.6,3.1-7.3c0.9-2.2,2.2-5.3,2.9-6.8l6-13.5c1-1.9,2.9-3.2,5.1-3.3h7.4
		c1.5-0.1,2.8,1.1,2.9,2.6c0,0.3,0,0.6-0.1,0.9l-8.5,36.8c-0.5,2-2.3,3.4-4.4,3.5h-2.7c-1.5,0.1-2.7-1-2.8-2.5c0-0.3,0-0.7,0.1-1
		l6.5-25.6c0.5-1.9,0.2-2-0.6-0.2L26.2,92.4c-1,1.9-2.9,3.2-5.1,3.3h-1.6c-2,0-3.6-1.6-3.6-3.6c0,0,0,0,0,0l0.2-25.3
		c0-2-0.3-2-0.7-0.1l-5.3,25.4c-0.5,2-2.3,3.4-4.3,3.5H3.2c-1.5,0.1-2.8-1.1-2.9-2.6c0-0.3,0-0.6,0.1-0.9L8.8,55.5z"/>
	<path class="st1" d="M72.3,92c-0.1,0.5-0.2,1-0.2,1.5c-0.1,0.9,0.2,1.7,0.9,2.3h-7.7c-2,0-3.4-0.8-3.2-1.7s-0.8-0.7-2.3,0.6
		c-1.8,1.3-4,2-6.2,2c-0.7,0-6.6,0-6.6-6c0-2,1.3-7.9,3.4-10.2s5-3.2,16.6-6.6c0.3-1.3,0.6-2.6,0.7-3.9c0-1.7-1.6-1.9-2.7-1.9
		c-2.8,0-3.3,1.5-4.2,4.8h-5.8c-1.4,0.1-2.7-1-2.8-2.4c0-0.4,0-0.8,0.2-1.1c0,0,1.2-4.2,4.2-5.8c2.8-1.3,5.9-1.8,8.9-1.7
		c5.7,0,11.6,1.4,11.6,7.2v1.2c-0.3,1.4-0.9,4.1-1.4,6L72.3,92z M65.6,80.2c-2.2,0.7-5.1,1.5-6.3,2.5c-1.6,1.3-2,4.8-2,5.5
		c-0.1,1,0.7,1.9,1.7,2c0.2,0,0.3,0,0.5,0h1.7c1.5-1.5,2.6-3.4,3.2-5.4L65.6,80.2z"/>
	<path class="st1" d="M92.8,69.2c2.7-5.2,4.8-6.4,10-7.2l-1.6,5.8c-0.5,1.9-1.5,3.5-2.3,3.4h-0.7c-5.5,0-6.5,2.4-7.9,8.4l-3,12.7
		c-0.5,2-2.3,3.4-4.4,3.5h-2.6c-1.5,0.1-2.8-1.1-2.9-2.6c0-0.3,0-0.6,0.1-0.9L83.7,66c0.5-2,2.3-3.4,4.4-3.5h2.6
		c1.5-0.1,2.8,1.1,2.9,2.6c0,0.3,0,0.6-0.1,1L92.8,69.2z"/>
	<path class="st1" d="M113.9,52c1.5-0.1,2.8,1.1,2.9,2.6c0,0.3,0,0.6-0.1,0.9l-3.7,16c-0.5,1.9,0.2,2.3,1.5,0.7l5.7-7
		c1.5-1.7,3.6-2.7,5.9-2.8h3.9c2,0,2.5,1.2,1.2,2.7l-8.1,9c-1.4,1.7-1.9,4-1.4,6.1l3.6,12c0.5,1.3-0.1,2.8-1.4,3.3
		c-0.4,0.1-0.7,0.2-1.1,0.2h-3c-2.1-0.1-3.9-1.5-4.5-3.5l-2.8-10.8c-0.5-1.9-1.3-1.9-1.7,0l-2.5,10.8c-0.5,2-2.3,3.4-4.4,3.5h-2.7
		c-1.5,0.1-2.8-1.1-2.9-2.6c0-0.3,0-0.6,0.1-0.9l8.5-36.8c0.5-2,2.3-3.4,4.4-3.5L113.9,52L113.9,52z"/>
	<path class="st1" d="M157.1,85c-0.6,2.5-1.3,5.4-3.4,7.6s-5.3,4-11.1,4c-1.7,0-6.3-0.2-9.2-2.5c-1.4-1.1-2.7-2.9-2.7-6.4
		c0-4.4,3.2-16.6,4.2-19.1c1.1-2.7,3.7-6.9,12.8-6.9c4,0,11.7,0.7,11.7,8.1c0,1.4-0.2,2.8-0.6,4.2c-0.5,2.4-1,4.6-1.6,7.4h-12.3
		c-2.1,0.1-3.9,1.5-4.4,3.5c-0.2,0.8-0.3,1.7-0.3,2.6c0,0.3,0.1,0.7,0.2,1c0.6,0.9,1.7,1.3,2.7,1.2c2.8,0,3.1-1.3,3.1-1.3
		c0.5-2,2.3-3.4,4.4-3.5L157.1,85L157.1,85z M149.1,75.4c0.4-1.5,0.7-3,0.9-4.5c0-0.6-0.1-1.2-0.5-1.7c-0.6-0.6-1.5-0.9-2.4-0.9
		c-3,0-3.7,3.5-3.7,3.5c-0.4,1.5,0.6,3.1,2.1,3.5c0.3,0.1,0.5,0.1,0.8,0.1L149.1,75.4L149.1,75.4z"/>
	<path class="st1" d="M169.5,55.4c0.5-2,2.3-3.4,4.4-3.5h2.5c1.5-0.1,2.8,1.1,2.9,2.6c0,0.3,0,0.6-0.1,1l-0.8,3.6
		c-0.5,1.9,0.2,3.5,1.4,3.5s1.9,1.3,1.5,3s-1.7,3-2.9,3s-2.5,1.6-3,3.5l-2.4,10.3c-0.5,1.9-0.9,4.1-1.1,4.9v0.5c0,1.7,1.2,1.7,4,1.7
		l-0.6,2.8c-0.5,2-2.3,3.4-4.4,3.5c0,0-9.6,0-9.6-5c0-1.1,0.2-2.2,0.6-3.2l3.8-15.6c0.5-1.9,0-3.5-1.1-3.5s-1.7-1.3-1.3-3
		s1.6-3,2.7-3s2.4-1.6,2.8-3.5L169.5,55.4z"/>
	<path class="st1" d="M209,70.8c0,3.5-2.7,14.5-3.6,17.4c-1.2,3.5-3.1,8.4-13,8.4c-7.4,0-12.2-2.5-12.2-9c0-3.6,2.8-14.6,3.4-16.3
		c1-3.5,3.2-9.5,12.7-9.5C201.2,61.7,209,62.5,209,70.8z M199.2,72.1c0.1-0.4,0.2-0.9,0.2-1.3c0.1-1.3-1-2.4-2.3-2.5
		c-0.1,0-0.2,0-0.4,0c-2.7,0-3.2,2.3-3.5,3.8l-2.3,9.8c-0.5,1.9-0.9,4.1-1.1,4.8v0.7c-0.1,1.3,0.9,2.5,2.3,2.6c0.1,0,0.3,0,0.4,0
		c2.7,0,2.9-1,2.9-1c0.5-1.9,1.2-5.1,1.6-7L199.2,72.1z"/>
	<path class="st1" d="M216,61.7c2.4,0,4.3,1.9,4.3,4.3c0,2.4-1.9,4.3-4.3,4.3s-4.3-1.9-4.3-4.3c0,0,0,0,0,0
		C211.7,63.6,213.6,61.7,216,61.7C215.9,61.7,216,61.7,216,61.7L216,61.7z M216,62.6c-1.9-0.1-3.5,1.4-3.6,3.3s1.4,3.5,3.3,3.6
		c1.9,0.1,3.5-1.4,3.6-3.3c0,0,0-0.1,0-0.1C219.3,64.2,217.9,62.6,216,62.6C216,62.6,216,62.6,216,62.6L216,62.6z M215.2,68.5h-1
		v-4.7c0.5-0.1,1-0.1,1.5-0.1c0.6-0.1,1.1,0.1,1.6,0.4c0.3,0.2,0.5,0.6,0.4,1c0,0.5-0.4,1-0.9,1.1l0,0c0.5,0.2,0.8,0.6,0.8,1.2
		c0,0.4,0.1,0.8,0.2,1.2h-1c-0.2-0.4-0.3-0.8-0.3-1.2c0-0.4-0.4-0.8-0.8-0.7c0,0,0,0-0.1,0h-0.4L215.2,68.5L215.2,68.5z M215.2,65.7
		h0.5c0.6,0,1.1-0.2,1.1-0.7s-0.3-0.7-1-0.7c-0.2,0-0.4,0-0.5,0L215.2,65.7L215.2,65.7z"/>
</g>
</svg>
