<?xml version="1.0" encoding="UTF-8" standalone="no"?>
<!-- Created with Inkscape (http://www.inkscape.org/) -->

<svg
   xmlns:dc="http://purl.org/dc/elements/1.1/"
   xmlns:cc="http://creativecommons.org/ns#"
   xmlns:rdf="http://www.w3.org/1999/02/22-rdf-syntax-ns#"
   xmlns:svg="http://www.w3.org/2000/svg"
   xmlns="http://www.w3.org/2000/svg"
   xmlns:xlink="http://www.w3.org/1999/xlink"
   xmlns:sodipodi="http://sodipodi.sourceforge.net/DTD/sodipodi-0.dtd"
   xmlns:inkscape="http://www.inkscape.org/namespaces/inkscape"
   width="199.00557"
   height="94.369698"
   id="svg3450"
   sodipodi:version="0.32"
   inkscape:version="0.48.5 r10040"
   version="1.0"
   sodipodi:docname="BT_logo.svg"
   inkscape:output_extension="org.inkscape.output.svg.inkscape">
  <defs
     id="defs3452">
    <linearGradient
       x1="0"
       y1="0"
       x2="1"
       y2="0"
       gradientUnits="userSpaceOnUse"
       gradientTransform="matrix(2.91991,8.02234,8.02234,-2.91991,527.68791,758.15614)"
       spreadMethod="pad"
       id="linearGradient2702">
      <stop
         style="stop-opacity:1;stop-color:#165154"
         offset="0"
         id="stop2704" />
      <stop
         style="stop-opacity:1;stop-color:#24ada7"
         offset="0.54494"
         id="stop2706" />
      <stop
         style="stop-opacity:1;stop-color:#24ada7"
         offset="0.54494"
         id="stop2708" />
      <stop
         style="stop-opacity:1;stop-color:#42c0c6"
         offset="1"
         id="stop2710" />
    </linearGradient>
    <clipPath
       clipPathUnits="userSpaceOnUse"
       id="clipPath2686">
      <path
         d="m 534.91498,764.44196 c -3.34802,-0.35999 -6.47998,-0.94501 -8.36102,-1.638 -3.969,-1.46698 -3.33899,-2.529 -1.62,-3.38398 0.54004,-0.26098 1.08905,-0.50403 1.64703,-0.729 2.448,-0.97199 6.74097,-1.27802 8.33399,5.75098"
         id="path2688"
         inkscape:connector-curvature="0" />
    </clipPath>
    <linearGradient
       x1="0"
       y1="0"
       x2="1"
       y2="0"
       gradientUnits="userSpaceOnUse"
       gradientTransform="matrix(0,8.55594,8.55594,0,537.94818,756.84909)"
       spreadMethod="pad"
       id="linearGradient2674">
      <stop
         style="stop-opacity:1;stop-color:#055e27"
         offset="0"
         id="stop2676" />
      <stop
         style="stop-opacity:1;stop-color:#32b667"
         offset="1"
         id="stop2678" />
    </linearGradient>
    <clipPath
       clipPathUnits="userSpaceOnUse"
       id="clipPath2658">
      <path
         d="m 546.69598,764.52295 c -2.83502,0.47705 -7.48797,0.37805 -11.781,-0.081 -1.59302,-7.029 -5.88599,-6.72297 -8.33399,-5.75098 -0.55798,0.22497 -1.07098,0.45001 -1.61102,0.70203 3.24902,-1.59302 6.92102,-2.448 10.79102,-2.448 5.27398,0 10.16101,1.63794 14.19299,4.41894 1.55701,1.08002 1.76398,2.32202 -3.258,3.159"
         id="path2660"
         inkscape:connector-curvature="0" />
    </clipPath>
    <radialGradient
       fx="0"
       fy="0"
       cx="0"
       cy="0"
       r="1"
       gradientUnits="userSpaceOnUse"
       gradientTransform="matrix(19.23969,0,0,-19.23969,525.51785,785.98337)"
       spreadMethod="pad"
       id="radialGradient2646">
      <stop
         style="stop-opacity:1;stop-color:#5c93d0"
         offset="0"
         id="stop2648" />
      <stop
         style="stop-opacity:1;stop-color:#3a4ea7"
         offset="1"
         id="stop2650" />
    </radialGradient>
    <clipPath
       clipPathUnits="userSpaceOnUse"
       id="clipPath2630">
      <path
         d="m 522.909,779.13 c 0,-6.50701 5.26501,-11.781 11.781,-11.781 0.21601,0 0.43201,0.009 0.64801,0.018 0.27899,5.21998 -1.68304,11.48395 -3.64502,16.01996 -0.98101,2.26801 -2.08801,4.167 -3.22198,5.75104 -3.33002,-2.07904 -5.56201,-5.77801 -5.56201,-10.008"
         id="path2632"
         inkscape:connector-curvature="0" />
    </clipPath>
    <radialGradient
       fx="0"
       fy="0"
       cx="0"
       cy="0"
       r="1"
       gradientUnits="userSpaceOnUse"
       gradientTransform="matrix(26.83942,0,0,-26.83942,524.54314,786.05476)"
       spreadMethod="pad"
       id="radialGradient2614">
      <stop
         style="stop-opacity:1;stop-color:#66b4e2"
         offset="0"
         id="stop2616" />
      <stop
         style="stop-opacity:1;stop-color:#4261b3"
         offset="0.5955"
         id="stop2618" />
      <stop
         style="stop-opacity:1;stop-color:#253a78"
         offset="0.91573"
         id="stop2620" />
      <stop
         style="stop-opacity:1;stop-color:#253a78"
         offset="1"
         id="stop2622" />
    </radialGradient>
    <clipPath
       clipPathUnits="userSpaceOnUse"
       id="clipPath2598">
      <path
         d="m 526.55396,762.80396 c 1.88104,0.69299 5.013,1.27801 8.36102,1.638 0.09,0.39599 0.17102,0.81903 0.24298,1.26001 0.09,0.54003 0.14404,1.09802 0.18005,1.66503 -0.216,-0.009 -0.432,-0.018 -0.64801,-0.018 -6.51599,0 -11.781,5.27399 -11.781,11.781 0,4.22999 2.23199,7.92896 5.56201,10.008 -2.55603,3.61798 -5.20203,5.58899 -6.552,6.37195 -2.37604,1.38605 -6.09302,2.33105 -8.50501,-2.41199 -1.70102,-3.34796 -2.62802,-7.15497 -2.62802,-11.169 0,-9.909 5.76901,-18.47699 14.14798,-22.50898 -1.71899,0.85498 -2.349,1.917 1.62,3.38398"
         id="path2600"
         inkscape:connector-curvature="0" />
    </clipPath>
    <radialGradient
       fx="-0.074199997"
       fy="-0.23747"
       cx="0"
       cy="0"
       r="1"
       gradientUnits="userSpaceOnUse"
       gradientTransform="matrix(17.86525,0,0,-17.86525,535.05582,771.79701)"
       spreadMethod="pad"
       id="radialGradient2584">
      <stop
         style="stop-opacity:1;stop-color:#d1c2e6"
         offset="0"
         id="stop2586" />
      <stop
         style="stop-opacity:1;stop-color:#5d52ab"
         offset="1"
         id="stop2588" />
      <stop
         style="stop-opacity:1;stop-color:#5d52ab"
         offset="1"
         id="stop2590" />
    </radialGradient>
    <clipPath
       clipPathUnits="userSpaceOnUse"
       id="clipPath2568">
      <path
         d="m 535.33801,767.367 c 6.20996,0.33295 11.133,5.47199 11.133,11.763 0,6.50696 -5.27405,11.78095 -11.78101,11.78095 -2.28601,0 -4.41003,-0.64795 -6.21899,-1.77295 1.13397,-1.58404 2.24097,-3.48303 3.22198,-5.75104 1.96198,-4.53601 3.92401,-10.79998 3.64502,-16.01996"
         id="path2570"
         inkscape:connector-curvature="0" />
    </clipPath>
    <linearGradient
       x1="0"
       y1="0"
       x2="1"
       y2="0"
       gradientUnits="userSpaceOnUse"
       gradientTransform="matrix(5.90244,10.22333,10.22333,-5.90244,547.01852,792.73947)"
       spreadMethod="pad"
       id="linearGradient2556">
      <stop
         style="stop-opacity:1;stop-color:#f14049"
         offset="0"
         id="stop2558" />
      <stop
         style="stop-opacity:1;stop-color:#d22027"
         offset="1"
         id="stop2560" />
    </linearGradient>
    <clipPath
       clipPathUnits="userSpaceOnUse"
       id="clipPath2540">
      <path
         d="m 455.43597,806.45398 0,-49.50897 104.409,0 0,49.50897 -104.409,0"
         id="path2542"
         inkscape:connector-curvature="0" />
    </clipPath>
    <clipPath
       clipPathUnits="userSpaceOnUse"
       id="clipPath2532">
      <path
         d="m 557.96399,786.56396 c 0.12598,1.72803 -0.27899,3.753 -1.26001,5.69703 -2.07001,4.11297 -5.90399,6.354 -8.56799,5.013 -1.03498,-0.52204 -1.737,-1.51203 -2.08802,-2.763 l 0,-0.009 0,0.009 c -5.31897,5.10296 -8.54101,10.19696 -7.24499,11.59198 0.28802,0.30603 0.78302,0.414 1.43103,0.32403 9.40497,-1.737 16.96496,-8.75702 19.48498,-17.87402 0.20697,-0.75598 0.16199,-1.341 -0.16198,-1.69202 -0.31501,-0.33301 -0.86402,-0.42297 -1.59302,-0.297"
         id="path2534"
         inkscape:connector-curvature="0" />
    </clipPath>
    <linearGradient
       x1="0"
       y1="0"
       x2="1"
       y2="0"
       gradientUnits="userSpaceOnUse"
       gradientTransform="matrix(11.94443,0,0,-11.94443,546.01083,792.11243)"
       spreadMethod="pad"
       id="linearGradient2520">
      <stop
         style="stop-opacity:1;stop-color:#fedd03"
         offset="0"
         id="stop2522" />
      <stop
         style="stop-opacity:1;stop-color:#e06c42"
         offset="1"
         id="stop2524" />
    </linearGradient>
    <clipPath
       clipPathUnits="userSpaceOnUse"
       id="clipPath2504">
      <path
         d="m 557.96399,786.56396 c -2.41199,0.41401 -6.82202,3.21302 -11.22302,7.29004 -0.23401,0.22498 -0.46796,0.44098 -0.693,0.65699 0.35102,1.25097 1.05304,2.24096 2.08802,2.763 2.664,1.341 6.49798,-0.90003 8.56799,-5.013 0.98102,-1.94403 1.38599,-3.969 1.26001,-5.69703"
         id="path2506"
         inkscape:connector-curvature="0" />
    </clipPath>
    <radialGradient
       fx="0"
       fy="0"
       cx="0"
       cy="0"
       r="1"
       gradientUnits="userSpaceOnUse"
       gradientTransform="matrix(9.92966,0,0,-9.92966,550.90306,792.78932)"
       spreadMethod="pad"
       id="radialGradient2490">
      <stop
         style="stop-opacity:1;stop-color:#fff980"
         offset="0"
         id="stop2492" />
      <stop
         style="stop-opacity:1;stop-color:#fedd03"
         offset="0.80899"
         id="stop2494" />
      <stop
         style="stop-opacity:1;stop-color:#f1bc23"
         offset="1"
         id="stop2496" />
    </radialGradient>
    <clipPath
       clipPathUnits="userSpaceOnUse"
       id="clipPath2474">
      <path
         d="m 557.96399,786.56396 c -0.14398,-1.90795 -0.93604,-3.45599 -2.33099,-4.15795 -2.66401,-1.34101 -6.49799,0.89996 -8.55903,5.00396 -1.26898,2.51099 -1.58398,5.13898 -1.026,7.10102 0.22504,-0.21601 0.45899,-0.43201 0.693,-0.65699 4.401,-4.07702 8.81103,-6.87603 11.22302,-7.29004"
         id="path2476"
         inkscape:connector-curvature="0" />
    </clipPath>
    <linearGradient
       x1="0"
       y1="0"
       x2="1"
       y2="0"
       gradientUnits="userSpaceOnUse"
       gradientTransform="matrix(10.09515,0,0,-10.09515,522.04265,803.62114)"
       spreadMethod="pad"
       id="linearGradient2458">
      <stop
         style="stop-opacity:1;stop-color:#8f1455"
         offset="0"
         id="stop2460" />
      <stop
         style="stop-opacity:1;stop-color:#ed088a"
         offset="0.03932"
         id="stop2462" />
      <stop
         style="stop-opacity:1;stop-color:#ed1795"
         offset="0.4382"
         id="stop2464" />
      <stop
         style="stop-opacity:1;stop-color:#ed1795"
         offset="1"
         id="stop2466" />
    </linearGradient>
    <clipPath
       clipPathUnits="userSpaceOnUse"
       id="clipPath2442">
      <path
         d="m 532.13397,805.57196 c 0.30603,-0.79199 -1.68298,-2.30395 -4.46399,-3.38397 -2.763,-1.08002 -5.25598,-1.31403 -5.57098,-0.52204 -0.30603,0.792 1.69195,2.30402 4.46399,3.38404 2.763,1.08001 5.26501,1.31396 5.57098,0.52197"
         id="path2444"
         inkscape:connector-curvature="0" />
    </clipPath>
    <clipPath
       clipPathUnits="userSpaceOnUse"
       id="clipPath2434">
      <path
         d="m 455.43597,807.87598 0,-51.96601 105.82203,0 0,51.96601 -105.82203,0"
         id="path2436"
         inkscape:connector-curvature="0" />
    </clipPath>
    <inkscape:perspective
       sodipodi:type="inkscape:persp3d"
       inkscape:vp_x="0 : 526.18109 : 1"
       inkscape:vp_y="0 : 1000 : 0"
       inkscape:vp_z="744.09448 : 526.18109 : 1"
       inkscape:persp3d-origin="372.04724 : 350.78739 : 1"
       id="perspective3458" />
    <inkscape:perspective
       id="perspective3467"
       inkscape:persp3d-origin="372.04724 : 350.78739 : 1"
       inkscape:vp_z="744.09448 : 526.18109 : 1"
       inkscape:vp_y="0 : 1000 : 0"
       inkscape:vp_x="0 : 526.18109 : 1"
       sodipodi:type="inkscape:persp3d" />
    <linearGradient
       inkscape:collect="always"
       xlink:href="#linearGradient2458"
       id="linearGradient3741"
       gradientUnits="userSpaceOnUse"
       gradientTransform="matrix(10.09515,0,0,-10.09515,522.04265,803.62114)"
       spreadMethod="pad"
       x1="0"
       y1="0"
       x2="1"
       y2="0" />
    <radialGradient
       inkscape:collect="always"
       xlink:href="#radialGradient2490"
       id="radialGradient3743"
       gradientUnits="userSpaceOnUse"
       gradientTransform="matrix(9.92966,0,0,-9.92966,550.90306,792.78932)"
       spreadMethod="pad"
       cx="0"
       cy="0"
       fx="0"
       fy="0"
       r="1" />
    <linearGradient
       inkscape:collect="always"
       xlink:href="#linearGradient2520"
       id="linearGradient3745"
       gradientUnits="userSpaceOnUse"
       gradientTransform="matrix(11.94443,0,0,-11.94443,546.01083,792.11243)"
       spreadMethod="pad"
       x1="0"
       y1="0"
       x2="1"
       y2="0" />
    <linearGradient
       inkscape:collect="always"
       xlink:href="#linearGradient2556"
       id="linearGradient3747"
       gradientUnits="userSpaceOnUse"
       gradientTransform="matrix(5.90244,10.22333,10.22333,-5.90244,547.01852,792.73947)"
       spreadMethod="pad"
       x1="0"
       y1="0"
       x2="1"
       y2="0" />
    <radialGradient
       inkscape:collect="always"
       xlink:href="#radialGradient2584"
       id="radialGradient3749"
       gradientUnits="userSpaceOnUse"
       gradientTransform="matrix(17.86525,0,0,-17.86525,535.05582,771.79701)"
       spreadMethod="pad"
       cx="0"
       cy="0"
       fx="-0.074199997"
       fy="-0.23747"
       r="1" />
    <radialGradient
       inkscape:collect="always"
       xlink:href="#radialGradient2614"
       id="radialGradient3751"
       gradientUnits="userSpaceOnUse"
       gradientTransform="matrix(26.83942,0,0,-26.83942,524.54314,786.05476)"
       spreadMethod="pad"
       cx="0"
       cy="0"
       fx="0"
       fy="0"
       r="1" />
    <radialGradient
       inkscape:collect="always"
       xlink:href="#radialGradient2646"
       id="radialGradient3753"
       gradientUnits="userSpaceOnUse"
       gradientTransform="matrix(19.23969,0,0,-19.23969,525.51785,785.98337)"
       spreadMethod="pad"
       cx="0"
       cy="0"
       fx="0"
       fy="0"
       r="1" />
    <linearGradient
       inkscape:collect="always"
       xlink:href="#linearGradient2674"
       id="linearGradient3755"
       gradientUnits="userSpaceOnUse"
       gradientTransform="matrix(0,8.55594,8.55594,0,537.94818,756.84909)"
       spreadMethod="pad"
       x1="0"
       y1="0"
       x2="1"
       y2="0" />
    <linearGradient
       inkscape:collect="always"
       xlink:href="#linearGradient2702"
       id="linearGradient3757"
       gradientUnits="userSpaceOnUse"
       gradientTransform="matrix(2.91991,8.02234,8.02234,-2.91991,527.68791,758.15614)"
       spreadMethod="pad"
       x1="0"
       y1="0"
       x2="1"
       y2="0" />
    <radialGradient
       inkscape:collect="always"
       xlink:href="#radialGradient2584"
       id="radialGradient3837"
       gradientUnits="userSpaceOnUse"
       gradientTransform="matrix(17.86525,0,0,-17.86525,535.05582,771.79701)"
       spreadMethod="pad"
       cx="0"
       cy="0"
       fx="-0.074199997"
       fy="-0.23747"
       r="1" />
    <radialGradient
       inkscape:collect="always"
       xlink:href="#radialGradient2614"
       id="radialGradient3953"
       cx="581.91156"
       cy="712.60486"
       fx="581.91156"
       fy="712.60486"
       r="23.397724"
       gradientTransform="matrix(2.1863304,1.2796709e-6,-1.2796719e-6,2.1863322,-690.33847,-850.59273)"
       gradientUnits="userSpaceOnUse" />
    <linearGradient
       inkscape:collect="always"
       xlink:href="#linearGradient2458"
       id="linearGradient4014"
       x1="577.19415"
       y1="673.92206"
       x2="596.43872"
       y2="673.92206"
       gradientUnits="userSpaceOnUse" />
    <linearGradient
       inkscape:collect="always"
       xlink:href="#linearGradient2556"
       id="linearGradient4074"
       x1="624.74902"
       y1="694.65808"
       x2="635.9989"
       y2="675.17267"
       gradientUnits="userSpaceOnUse" />
    <linearGradient
       inkscape:collect="always"
       xlink:href="#linearGradient2520"
       id="linearGradient4113"
       x1="622.89917"
       y1="695.85162"
       x2="645.65332"
       y2="695.85162"
       gradientUnits="userSpaceOnUse" />
    <radialGradient
       inkscape:collect="always"
       xlink:href="#radialGradient2490"
       id="radialGradient4163"
       cx="632.15283"
       cy="694.77893"
       fx="632.15283"
       fy="694.77893"
       r="11.608233"
       gradientTransform="matrix(1.6303638,6.8647308e-7,-6.8647397e-7,1.6303659,-398.48581,-438.18126)"
       gradientUnits="userSpaceOnUse" />
    <radialGradient
       inkscape:collect="always"
       xlink:href="#radialGradient2646"
       id="radialGradient4208"
       cx="583.76935"
       cy="713.85406"
       fx="583.76935"
       fy="713.85406"
       r="11.87003"
       gradientTransform="matrix(3.0893174,9.9877257e-7,-9.9877322e-7,3.0893194,-1219.6787,-1497.7888)"
       gradientUnits="userSpaceOnUse" />
    <linearGradient
       inkscape:collect="always"
       xlink:href="#linearGradient2702"
       id="linearGradient4249"
       x1="587.90546"
       y1="760.57288"
       x2="593.4707"
       y2="745.28253"
       gradientUnits="userSpaceOnUse" />
    <linearGradient
       inkscape:collect="always"
       xlink:href="#linearGradient2674"
       id="linearGradient4288"
       x1="607.46118"
       y1="763.06409"
       x2="607.46118"
       y2="746.75671"
       gradientUnits="userSpaceOnUse" />
  </defs>
  <sodipodi:namedview
     id="base"
     pagecolor="#ffffff"
     bordercolor="#666666"
     borderopacity="1.0"
     gridtolerance="10000"
     guidetolerance="10"
     objecttolerance="10"
     inkscape:pageopacity="0.0"
     inkscape:pageshadow="2"
     inkscape:zoom="1.4142136"
     inkscape:cx="-69.637097"
     inkscape:cy="156.77733"
     inkscape:document-units="px"
     inkscape:current-layer="layer1"
     showgrid="false"
     inkscape:window-width="1920"
     inkscape:window-height="1018"
     inkscape:window-x="-8"
     inkscape:window-y="-8"
     inkscape:window-maximized="1"
     inkscape:snap-bbox="true"
     inkscape:bbox-paths="true"
     inkscape:bbox-nodes="true"
     inkscape:snap-bbox-edge-midpoints="true"
     inkscape:snap-bbox-midpoints="true"
     inkscape:object-paths="true"
     inkscape:snap-intersection-paths="true"
     inkscape:object-nodes="true"
     inkscape:snap-smooth-nodes="true"
     inkscape:snap-object-midpoints="true"
     inkscape:snap-center="true"
     showguides="false"
     inkscape:guide-bbox="true"
     fit-margin-top="0"
     fit-margin-left="0"
     fit-margin-right="0"
     fit-margin-bottom="0">
    <sodipodi:guide
       orientation="0,1"
       position="-112.71107,140.08677"
       id="guide3562" />
    <sodipodi:guide
       orientation="0,1"
       position="41.42587,172.32696"
       id="guide3583" />
  </sodipodi:namedview>
  <metadata
     id="metadata3455">
    <rdf:RDF>
      <cc:Work
         rdf:about="">
        <dc:format>image/svg+xml</dc:format>
        <dc:type
           rdf:resource="http://purl.org/dc/dcmitype/StillImage" />
      </cc:Work>
    </rdf:RDF>
  </metadata>
  <g
     inkscape:label="Layer 1"
     inkscape:groupmode="layer"
     id="layer1"
     transform="translate(-450.18975,-668.51157)">
    <g
       id="g4290">
      <path
         style="fill:url(#linearGradient4014)"
         inkscape:connector-curvature="0"
         d="m 596.37949,670.19971 c 0.58329,1.50951 -3.20771,4.39126 -8.50823,6.44974 -5.2662,2.05849 -10.01775,2.50451 -10.61813,0.995 -0.58328,-1.50953 3.22481,-4.3914 8.50824,-6.44988 5.2662,-2.05847 10.03495,-2.50437 10.61812,-0.99486"
         id="path3985" />
      <path
         style="fill:url(#radialGradient4163)"
         inkscape:connector-curvature="0"
         d="m 645.61076,706.4284 c -0.27442,3.6365 -1.78406,6.58702 -4.4428,7.92493 -5.07752,2.55593 -12.38498,-1.71529 -16.31326,-9.5374 -2.41864,-4.78587 -3.01902,-9.79474 -1.95552,-13.53434 0.42892,0.41171 0.87482,0.8234 1.32083,1.25221 8.38818,7.77068 16.79357,13.10551 21.39075,13.8946"
         id="path4130" />
      <path
         style="fill:url(#linearGradient4113)"
         inkscape:connector-curvature="0"
         d="m 645.61076,706.4284 c -4.59718,-0.78909 -13.00257,-6.12392 -21.39075,-13.8946 -0.44601,-0.42881 -0.89191,-0.8405 -1.32083,-1.25221 0.66903,-2.38431 2.00706,-4.2712 3.9797,-5.26619 5.07751,-2.55591 12.38496,1.71543 16.33034,9.55463 1.8698,3.70526 2.64166,7.5648 2.40154,10.85837"
         id="path4084" />
      <path
         style="fill:url(#linearGradient4074)"
         inkscape:connector-curvature="0"
         d="m 645.61076,706.4284 c 0.24012,-3.29357 -0.53174,-7.15311 -2.40154,-10.85837 -3.94538,-7.8392 -11.25283,-12.11054 -16.33034,-9.55463 -1.97264,0.99499 -3.31067,2.88188 -3.9797,5.26619 l 0,0.0172 0,-0.0172 c -10.13781,-9.72609 -16.27892,-19.43511 -13.80875,-22.09397 0.54896,-0.58329 1.49242,-0.78908 2.72751,-0.6176 17.9256,3.31068 32.33472,16.69063 37.1378,34.06737 0.39448,1.44087 0.30875,2.55591 -0.30873,3.22494 -0.6004,0.63471 -1.64679,0.80617 -3.03625,0.56607"
         id="path4026" />
      <g
         transform="matrix(1.905971,0,0,-1.905971,-417.85242,2205.5965)"
         id="g3309">
        <g
           id="g3311"
           clip-path="url(#clipPath2568)">
          <g
             id="g3313">
            <g
               id="g3315">
              <g
                 id="g3317">
                <g
                   id="g3319">
                  <path
                     inkscape:connector-curvature="0"
                     d="m 528.47461,767.3653 0,23.54827 17.99615,0 0,-23.54827 -17.99615,0 z"
                     style="fill:url(#radialGradient3837);stroke:none"
                     id="path3321" />
                </g>
              </g>
            </g>
          </g>
        </g>
      </g>
      <path
         style="fill:url(#radialGradient3953)"
         inkscape:connector-curvature="0"
         d="m 585.74416,751.71427 c 3.58521,-1.32082 9.55463,-2.43585 15.93586,-3.12198 0.17157,-0.75474 0.32596,-1.56104 0.46311,-2.40154 0.1716,-1.02928 0.27454,-2.09279 0.34317,-3.1735 -0.41169,0.0172 -0.82338,0.0343 -1.23509,0.0343 -12.41928,0 -22.45424,-10.05207 -22.45424,-22.45425 0,-8.06223 4.25411,-15.11236 10.60103,-19.07495 -4.87172,-6.89577 -9.91492,-10.65246 -12.48792,-12.14475 -4.52867,-2.64178 -11.61312,-4.44292 -16.21031,4.59718 -3.24209,6.38111 -5.00892,13.63716 -5.00892,21.28779 0,18.88626 10.99556,35.21661 26.96563,42.90146 -3.27634,-1.62957 -4.47712,-3.65375 3.08768,-6.44977"
         id="path3922" />
      <path
         style="fill:url(#radialGradient4208)"
         inkscape:connector-curvature="0"
         d="m 578.79697,720.59731 c 0,12.40218 10.03496,22.45425 22.45424,22.45425 0.41171,0 0.8234,-0.0171 1.23509,-0.0343 0.53175,-9.94913 -3.20782,-21.88807 -6.9473,-30.53358 -1.86978,-4.32276 -3.97969,-7.94218 -6.141,-10.96131 -6.34692,3.96259 -10.60103,11.01272 -10.60103,19.07495"
         id="path4179" />
      <path
         style="fill:url(#linearGradient4288)"
         inkscape:connector-curvature="0"
         d="m 624.13426,748.43793 c -5.40346,-0.90925 -14.27185,-0.72055 -22.45424,0.15436 -3.03625,13.39707 -11.21853,12.81379 -15.88434,10.9612 -1.0635,-0.42878 -2.04126,-0.8577 -3.07056,-1.33804 6.19254,3.03625 13.19126,4.66581 20.56737,4.66581 10.05205,0 19.36659,-3.12186 27.05143,-8.42237 2.96761,-2.05849 3.36209,-4.4257 -6.20966,-6.02096"
         id="path4259" />
      <path
         style="fill:url(#linearGradient4249)"
         inkscape:connector-curvature="0"
         d="m 601.68002,748.59229 c -6.38123,0.68613 -12.35065,1.80116 -15.93586,3.12198 -7.5648,2.79602 -6.36402,4.8202 -3.08768,6.44977 1.02931,0.49742 2.0757,0.96067 3.1392,1.38945 4.66581,1.85259 12.84809,2.43587 15.88434,-10.9612"
         id="path4218" />
      <path
         inkscape:connector-curvature="0"
         d="m 478.95323,734.23471 -13.05584,0 0,-11.4513 16.72266,0 c 9.46862,0.004 9.55877,11.4513 -3.66682,11.4513 z m -13.05584,-27.97127 16.1802,0 c 9.2259,0 8.77145,10.00913 -1.22757,10.00913 l -14.95263,0 0,-10.00913 z m 26.33169,12.10972 c 7.74347,-4.70489 6.25763,-18.58112 -7.6653,-18.58112 l -30.10258,0 c -2.33396,0 -4.27145,1.92133 -4.27145,4.2583 l 0,32.84659 c 0,2.33361 1.93749,4.26518 4.27145,4.26518 l 26.21676,0 c 20.8479,0 23.45128,-18.54971 11.55112,-22.78895"
         style="fill:#214498;fill-opacity:1;fill-rule:nonzero;stroke:none"
         id="path3379" />
      <path
         inkscape:connector-curvature="0"
         d="m 545.07964,699.79879 -43.65522,0 c -1.90469,0 -3.87657,1.55024 -3.87657,3.46075 0,1.90538 1.97188,3.45165 3.87657,3.45165 l 14.49981,0 0,30.18574 c 0,2.32222 1.93698,4.26518 4.27278,4.26518 l 6.78602,0 c 2.34984,0 4.26848,-1.94296 4.26848,-4.26518 l 0,-30.18574 13.82813,0 c 1.89568,0 3.8609,-1.54627 3.8609,-3.45165 0,-1.91051 -1.96522,-3.46075 -3.8609,-3.46075"
         style="fill:#214498;fill-opacity:1;fill-rule:nonzero;stroke:none"
         id="path3381" />
    </g>
    <flowRoot
       xml:space="preserve"
       id="flowRoot3137"
       style="font-size:10px;font-style:normal;font-weight:normal;text-align:end;line-height:1000%;letter-spacing:-2px;word-spacing:0px;text-anchor:end;fill:#000000;fill-opacity:1;stroke:none;font-family:sans-serif"
       transform="translate(409.49062,445.1793)"><flowRegion
         id="flowRegion3139"><rect
           id="rect3141"
           width="117.1777"
           height="114.14724"
           x="-227.28432"
           y="64.695427" /></flowRegion><flowPara
         id="flowPara3143"></flowPara></flowRoot>    <flowRoot
       xml:space="preserve"
       id="flowRoot3172"
       style="font-size:10px;font-style:normal;font-weight:normal;text-align:end;line-height:1000%;letter-spacing:-2px;word-spacing:0px;text-anchor:end;fill:#000000;fill-opacity:1;stroke:none;font-family:sans-serif"
       transform="translate(409.49062,445.1793)"><flowRegion
         id="flowRegion3174"><rect
           id="rect3176"
           width="230.81985"
           height="170.21071"
           x="-224.75894"
           y="50.048214" /></flowRegion><flowPara
         id="flowPara3178"></flowPara></flowRoot>    <flowRoot
       xml:space="preserve"
       id="flowRoot3222"
       style="font-size:10px;font-style:normal;font-weight:normal;text-align:end;line-height:1000%;letter-spacing:-2px;word-spacing:0px;text-anchor:end;fill:#000000;fill-opacity:1;stroke:none;font-family:sans-serif"
       transform="translate(409.49062,445.1793)"><flowRegion
         id="flowRegion3224"><rect
           id="rect3226"
           width="44.743732"
           height="27.581753"
           x="42.904949"
           y="-17.983032" /></flowRegion><flowPara
         id="flowPara3228"></flowPara></flowRoot>  </g>
</svg>
