<?xml version="1.0" encoding="UTF-8" standalone="no"?>
<svg
   xmlns:svg="http://www.w3.org/2000/svg"
   xmlns="http://www.w3.org/2000/svg"
   version="1.1"
   width="568.56512"
   height="246.51343"
   id="svg3425">
  <defs
     id="defs3427" />
  <g
     transform="translate(-100.28887,-444.39119)"
     id="layer1">
    <path
       d="m 227.35026,609.67943 6.01689,0 0,80.22519 -14.03941,0 0,-80.22519 8.02252,0 z"
       id="path68"
       style="fill:#f8d100;fill-opacity:1;fill-rule:nonzero;stroke:none" />
    <path
       d="m 227.35026,529.05272 6.01689,0 0,80.62631 -14.03941,0 0,-80.62631 8.02252,0 z"
       id="path72"
       style="fill:#e2001a;fill-opacity:1;fill-rule:nonzero;stroke:none" />
    <path
       d="m 182.79363,477.27266 c 4.10352,6.49423 7.32055,6.38593 12.17418,6.38593 -4.01528,-3.08065 -6.67073,-7.01971 -7.93829,-9.03336 l -7.50105,-12.00169 c -0.73406,-3.71041 -2.65144,-7.17213 -5.51949,-9.75137 0.9627,-0.36502 1.76495,-0.7501 2.25031,-1.11513 -4.89775,0 -9.75137,-2.48698 -12.42287,-2.48698 -1.71682,0 -2.82393,1.02287 -2.82393,2.38269 0.11232,1.50823 1.66869,3.04856 4.54476,3.04856 0.64983,0 1.48417,-0.0842 2.39873,-0.23667 1.55637,2.17009 2.8119,4.1316 2.8119,6.93146 0,5.25475 -6.28163,9.35024 -12.62745,9.35024 -0.357,0 -0.69796,-0.016 -1.05496,-0.0441 -0.57762,-1.29965 -2.48698,-3.48979 -2.48698,-5.97276 0,-4.17572 2.72365,-7.58931 2.72365,-11.72491 0,-2.56721 -1.25553,-4.15968 -1.73688,-4.82154 0.7822,-0.72203 1.63258,-1.61253 1.82914,-2.21823 -0.44927,0.19254 -0.98677,0.22062 -1.77298,0.22062 -3.03652,0 -5.51548,-0.79423 -7.93427,-0.79423 -1.37586,0 -1.74891,0.42921 -1.74891,0.83434 0,0.14441 0.0241,0.29684 0.0642,0.37305 -0.51344,-0.20457 -0.99479,-0.33293 -1.57242,-0.44124 -0.70999,-0.13638 -1.48015,-0.20457 -2.29444,-0.20457 -2.93624,0 -3.98318,1.23145 -3.98318,2.28642 0,0.89451 0.70599,2.52308 1.50021,3.76256 1.14722,-0.57361 2.51908,-0.96672 3.14884,-0.96672 1.55637,0 2.94427,1.48818 3.67833,3.24511 -1.04694,0.12435 -1.2475,0.17249 -2.31049,0.17249 -2.85601,0 -4.80147,-1.02287 -5.2026,-1.02287 -0.0401,0 -0.11633,0.0201 -0.11633,0.0802 0,0.40113 0.81028,1.4601 2.41077,2.04574 2.1019,0.77016 5.25876,1.09107 5.78424,1.1753 0,0.0923 -0.5335,1.09106 -1.13118,1.27959 -0.12836,0.0401 -0.22463,0.0441 -0.37305,0.0161 -2.19817,-0.43321 -2.81189,-0.61773 -5.59971,-1.68071 -0.0882,-0.0321 -0.13639,0.0241 -0.13639,0.11231 0,1.1031 2.85602,3.53793 5.4152,4.46854 -2.138,2.72766 -4.8095,5.5195 -6.06502,9.77544 -0.357,0.0281 -0.70197,0.0441 -1.05897,0.0441 -6.34181,0 -12.62745,-4.09549 -12.62745,-9.35024 0,-2.79986 1.25954,-4.76137 2.81591,-6.93146 0.91456,0.15243 1.74489,0.23667 2.39873,0.23667 2.87206,0 4.43244,-1.54033 4.54476,-3.04856 0,-1.35982 -1.1031,-2.38269 -2.82794,-2.38269 -2.6715,0 -7.52111,2.48698 -12.42287,2.48698 0.48536,0.36503 1.28761,0.75011 2.25031,1.11513 -2.86805,2.57924 -4.78543,6.04096 -5.51949,9.75137 l -7.49704,12.00169 c -1.26355,2.01365 -3.92703,5.95271 -7.9423,9.03336 4.85363,0 8.07066,0.1083 12.17819,-6.38593 l 3.84278,-6.15327 c 0.28881,0.79824 0.63779,1.57642 1.05095,2.33856 l -7.64947,12.23836 c -1.27558,2.02568 -3.91098,5.93666 -7.94229,9.03335 4.85362,0 8.07065,0.11232 12.17417,-6.3779 l 6.58649,-10.54159 c 0.49338,0.52547 1.01084,1.03892 1.55637,1.52829 l -9.29008,14.87375 c -1.27959,2.0297 -3.89894,5.92864 -7.94229,9.02533 4.85362,0 8.07065,0.11633 12.17818,-6.3779 l 9.05742,-14.5007 c 0.59768,0.37305 1.20739,0.74208 1.83716,1.08705 l -11.05503,17.68965 c -1.27558,2.03772 -3.89894,5.92463 -7.93828,9.02534 4.85362,0 8.07065,0.11231 12.17818,-6.37791 l 11.38396,-18.22315 c 0.66988,0.26073 1.3558,0.50542 2.04975,0.73005 l -12.86411,20.5898 c -1.25552,2.00563 -3.93906,5.96073 -7.93427,9.02533 4.84961,0 8.06664,0.1083 12.17417,-6.3779 l 13.71049,-21.9456 c 0.13638,0.0241 0.27677,0.0481 0.41316,0.0762 0.37304,1.18733 0.63377,2.29043 0.63377,3.39753 0,6.89135 -4.5247,12.98445 -9.95594,17.68565 0.34497,0.15243 0.95067,0.20457 1.51224,0.20457 1.11914,0 1.84518,-0.0602 2.3506,-0.15243 -1.25953,2.86003 -3.95911,6.5544 -5.32294,8.46777 -1.781,-0.3209 -4.36425,-0.57361 -6.06101,-0.57361 -1.76897,0 -1.96953,1.03892 -1.96953,1.96151 0,1.61252 0.7501,2.89212 1.62857,3.60612 0.32892,-0.82231 0.99078,-1.9254 4.26397,-1.9254 0.0642,0 0.17649,0.008 0.32892,0.0201 -0.95869,1.06699 -3.9551,3.48578 -3.9551,5.43926 0,1.29163 1.41999,3.22506 3.28522,3.22506 -0.11231,-0.41316 -0.0963,-0.79824 -0.0963,-1.08304 0,-1.58445 1.39993,-3.43364 2.58325,-4.72126 -0.0361,0.38508 -0.0201,0.34497 -0.0201,0.79022 0,3.7385 0.34096,5.45531 2.71161,5.45531 1.16327,0 1.96552,-0.63779 2.2423,-0.83033 -1.54434,-1.41998 -1.62055,-2.5311 -1.62055,-4.62899 0.004,-0.54152 0.004,-1.07502 0.012,-1.81309 0.008,-0.47734 0,-1.11112 -0.0802,-1.5684 0.85039,-0.12034 1.19535,-0.12034 1.84518,-0.12034 0,0 3.36946,-0.26474 4.17973,1.48818 0.91457,-0.83835 2.24229,-2.02168 2.24229,-3.32935 0,-0.85841 -0.40914,-1.83715 -2.14201,-1.83715 -0.65784,0 -2.72364,0.40513 -4.4525,0.40513 0.4613,-1.0349 2.53111,-4.05939 4.32414,-6.25355 0.26876,0.85039 0.69395,1.77298 1.63258,2.52308 0.12836,-1.40795 0.95869,-5.87649 3.16489,-8.48381 0.25672,1.76495 0.60169,3.57403 0.60169,7.38874 0,9.27804 -2.23026,16.13328 -6.96756,17.44095 0.61773,1.07502 1.91738,2.03772 3.27319,2.03772 1.72885,0 2.67551,-1.95749 3.63821,-3.80668 0.50141,1.36383 1.88529,4.70922 3.27319,4.70922 1.38789,0 2.77178,-3.34539 3.27318,-4.70922 0.96271,1.84919 1.90535,3.80668 3.64223,3.80668 1.35179,0 2.65545,-0.9627 3.27319,-2.03772 -4.7373,-1.30767 -6.97157,-8.16291 -6.97157,-17.44095 0,-3.81471 0.34496,-5.62379 0.60169,-7.38874 2.20619,2.60732 3.03652,7.07586 3.16488,8.48381 0.93863,-0.7501 1.36383,-1.67269 1.63659,-2.52308 1.78902,2.19416 3.85883,5.21865 4.32414,6.25355 -1.73286,0 -3.79866,-0.40513 -4.4525,-0.40513 -1.73286,0 -2.14602,0.97874 -2.14602,1.83715 0,1.30767 1.32773,2.491 2.2463,3.32935 0.80627,-1.75292 4.17974,-1.48818 4.17974,-1.48818 0.64982,0 0.99479,0 1.84116,0.12034 -0.0762,0.45728 -0.0842,1.09106 -0.0802,1.5684 0.008,0.73807 0.012,1.27157 0.012,1.81309 0,2.09789 -0.0762,3.20901 -1.61653,4.62899 0.27677,0.19254 1.07903,0.83033 2.24229,0.83033 2.37065,0 2.7076,-1.71681 2.7076,-5.45531 0,-0.44525 0.0161,-0.40514 -0.016,-0.79022 1.17931,1.28762 2.58325,3.13681 2.58325,4.72126 0,0.2848 0.012,0.66988 -0.10028,1.08304 1.86925,0 3.28923,-1.93343 3.28923,-3.22506 0,-1.95348 -3.00042,-4.37227 -3.95911,-5.43926 0.15644,-0.012 0.26875,-0.0201 0.32892,-0.0201 3.2772,0 3.93906,1.10309 4.26798,1.9254 0.87446,-0.714 1.62456,-1.9936 1.62456,-3.60612 0,-0.92259 -0.19655,-1.96151 -1.96953,-1.96151 -1.69275,0 -4.28001,0.25271 -6.06101,0.57361 -1.36383,-1.91337 -4.0634,-5.60774 -5.32294,-8.46777 0.50542,0.0923 1.23547,0.15243 2.3506,0.15243 0.56157,0 1.16728,-0.0521 1.51625,-0.20457 -5.43124,-4.7012 -9.95995,-10.7943 -9.95995,-17.68565 0,-1.1071 0.26474,-2.2102 0.63779,-3.39753 0.13237,-0.0281 0.27276,-0.0521 0.41316,-0.0762 l 13.71048,21.9456 c 4.10352,6.4862 7.32456,6.3779 12.17417,6.3779 -3.99521,-3.0646 -6.67874,-7.0197 -7.93427,-9.02533 L 160.71162,486.29 c 0.69796,-0.22463 1.37987,-0.46932 2.05377,-0.73005 l 11.38395,18.22315 c 4.10753,6.49022 7.32055,6.37791 12.17818,6.37791 -4.04335,-3.10071 -6.6627,-6.98762 -7.93828,-9.02534 L 167.3302,483.44602 c 0.62977,-0.34497 1.24349,-0.714 1.83716,-1.08705 l 9.06143,14.5007 c 4.10753,6.49423 7.32055,6.3779 12.17016,6.3779 -4.03533,-3.09669 -6.65869,-6.99563 -7.93828,-9.02533 l -9.28607,-14.87375 c 0.54553,-0.48937 1.067,-1.00282 1.55236,-1.52829 l 6.58649,10.54159 c 4.10753,6.49022 7.32456,6.3779 12.17818,6.3779 -4.03532,-3.09669 -6.66671,-7.00767 -7.94229,-9.03335 l -7.64947,-12.23836 c 0.41316,-0.76214 0.76214,-1.54032 1.05095,-2.33856 l 3.84278,6.15327 z M 121.3973,463.18111 c 0,-4.57284 3.32132,-8.19099 4.49261,-9.20985 0.2848,0.0682 0.56558,0.13638 0.84236,0.19655 -1.24349,1.51625 -3.43765,4.05939 -3.43765,7.43286 0,6.68677 7.14807,12.49909 15.24279,12.49909 -0.0521,0.57361 -0.0802,1.17529 -0.0802,1.79303 0,0.98677 0.0522,1.90936 0.15243,2.77579 -9.1537,-0.0562 -17.21232,-7.48501 -17.21232,-15.48747 m 12.40282,54.84595 -0.0521,0.15644 0.15643,0 c 2.57122,0 3.82273,-0.18452 4.65307,-0.30486 0.43321,-0.0562 0.74609,-0.10028 1.08304,-0.10028 0.66185,0 1.17128,0.0602 1.17128,0.87445 0,0.55356 -0.64581,1.424 -1.26755,1.92942 -0.94666,-0.89451 -2.25834,-1.07101 -4.18375,-1.07101 -0.89852,0 -2.07783,0.16045 -2.7076,0.25271 l -0.10028,0.012 -0.11231,0.016 0.0361,0.30085 c 0.0762,0.53349 0.16446,1.19535 0.16446,2.08585 l -0.008,0.81028 -0.012,1.00682 c 0,2.18213 0.30084,3.42963 1.06298,4.36826 -0.19655,0.0762 -0.51745,0.13639 -0.72203,0.13639 -1.3558,0 -1.74891,-0.59367 -1.74891,-4.50064 0,-0.78219 -0.0441,-1.51625 -0.0722,-2.00964 l -0.0361,-0.72202 -0.17248,0.13237 c -2.01365,1.53631 -4.08747,4.276 -4.21182,6.32977 -0.6057,-0.39311 -1.26355,-1.26756 -1.26355,-1.94145 0,-1.12316 1.68072,-2.80387 3.63019,-4.74934 l 1.12313,-1.11914 0.1404,-0.1444 -0.36503,-0.0923 c -0.42118,-0.10831 -1.19936,-0.30486 -1.86122,-0.30486 -2.18614,0 -3.55398,0.41316 -4.40035,1.33174 -0.30085,-0.43723 -0.55356,-1.4601 -0.55356,-2.06179 0,-0.38508 0.0762,-0.66186 0.22865,-0.81829 0.19254,-0.18452 0.48937,-0.18452 0.7501,-0.18452 l 0.0521,0 c 2.41077,0 5.28684,0.43722 6.414,0.61773 l 0.0642,0.016 0.0441,-0.0562 c 0.19254,-0.26073 4.78544,-6.3779 5.97678,-9.619 0.27678,-0.10429 0.51344,-0.18051 0.99078,-0.18051 0.90655,0 1.15524,0.60972 1.41598,1.54033 -2.87207,3.48578 -4.65708,6.19739 -5.3069,8.06263 m 24.76552,-9.60295 c 0.48135,0 0.714,0.0762 0.99078,0.18051 1.19535,3.2411 5.78423,9.35827 5.97677,9.619 l 0.0441,0.0562 0.0682,-0.016 c 1.12316,-0.18051 4.00324,-0.61774 6.41,-0.61774 l 0.0521,0 c 0.26474,0 0.56157,0 0.7501,0.18452 0.15243,0.15644 0.23265,0.43322 0.23265,0.8183 0,0.60169 -0.2527,1.62456 -0.55756,2.06179 -0.84638,-0.91858 -2.2102,-1.33174 -4.40035,-1.33174 -0.65785,0 -1.43603,0.19655 -1.85721,0.30485 l -0.17249,0.0401 -0.20056,0.0521 1.26756,1.26355 c 1.94947,1.94546 3.6342,3.62618 3.6342,4.74933 0,0.67389 -0.65785,1.54835 -1.26355,1.94145 -0.12836,-2.05376 -2.19817,-4.79345 -4.21583,-6.32977 l -0.17249,-0.12836 -0.0321,0.71802 c -0.0321,0.49338 -0.0722,1.22744 -0.0722,2.00964 0,3.90697 -0.39711,4.50063 -1.74891,4.50063 -0.20858,0 -0.52547,-0.0602 -0.72202,-0.13638 0.75812,-0.93863 1.06298,-2.18614 1.06298,-4.36826 l -0.012,-1.00683 -0.012,-0.81027 c 0,-0.8905 0.0923,-1.55236 0.16446,-2.08586 l 0.0401,-0.30084 -0.2126,-0.0281 c -0.63377,-0.0923 -1.80907,-0.25271 -2.7076,-0.25271 -1.92941,0 -3.23708,0.17649 -4.18775,1.071 -0.62175,-0.50541 -1.26355,-1.37586 -1.26355,-1.92941 0,-0.81429 0.50542,-0.87446 1.17129,-0.87446 0.33695,0 0.64982,0.0441 1.08304,0.10029 0.83033,0.12033 2.07783,0.30485 4.64905,0.30485 l 0.15644,0 -0.0481,-0.15644 c -0.65384,-1.86524 -2.43885,-4.57685 -5.31091,-8.06263 0.26073,-0.93062 0.51344,-1.54033 1.41598,-1.54033 m -10.62984,-53.35376 c -0.28881,-1.18733 -0.89451,-2.40675 -1.6727,-3.32533 -0.70197,-0.83033 -1.86924,-1.82111 -3.44166,-1.82111 -0.71801,0 -1.92139,0.33694 -2.68754,0.65784 -0.28881,-0.51745 -0.84638,-1.77699 -0.84638,-2.34257 0,-0.58164 0.98677,-1.17129 2.86805,-1.17129 4.13561,0 6.61056,1.87326 6.61056,5.01006 0,1.09909 -0.43723,2.10591 -0.83033,2.9924 m 1.85721,-4.07945 c -0.14841,-0.88649 -0.48536,-1.68874 -0.9988,-2.37467 0.0241,-0.81027 0.357,-1.58444 1.66066,-0.94665 -0.70197,0.72202 -0.16045,1.9976 -0.16045,1.9976 0,0 1.44405,-0.66988 1.14722,-1.62054 2.14201,0.51344 0.60169,3.38951 -1.64863,2.94426 m 8.05461,27.67769 c 0.10831,-0.89852 0.17249,-1.82512 0.17249,-2.77579 0,-0.51745 0.004,-1.11513 -0.0602,-1.79705 7.99444,-0.11231 15.00612,-5.87248 15.00612,-12.49507 0,-3.37347 -2.19817,-5.91661 -3.44166,-7.43286 0.28078,-0.0602 0.56157,-0.12836 0.84236,-0.19655 1.17129,1.01886 4.49662,4.63701 4.49662,9.20985 0,7.9463 -7.94229,15.32301 -17.01576,15.48747"
       id="path84"
       style="fill:#000000;fill-opacity:1;fill-rule:nonzero;stroke:none" />
    <path
       d="m 233.36719,449.23115 0,80.22519 -6.01689,0 -8.02252,0 0,-80.22519 14.03941,0 z"
       id="path88"
       style="fill:#000000;fill-opacity:1;fill-rule:nonzero;stroke:none" />
    <path
       d="m 263.07275,448.53602 0,32.78125 8.03125,0 c 3.53392,0 6.15417,-0.83533 7.875,-2.5 1.41999,-1.35982 2.35923,-3.60918 2.8125,-6.75 0.24068,-1.66467 0.34375,-4.21058 0.34375,-7.65625 0,-4.19979 -0.20382,-7.21816 -0.625,-9.03125 -0.51344,-2.1741 -1.52302,-3.82237 -3.03125,-4.9375 -1.69275,-1.27157 -4.14192,-1.90625 -7.375,-1.90625 l -8.03125,0 z m 118.375,0 0,32.78125 3.59375,0 0,-13.875 c 0,-4.50063 1.54435,-6.75 4.625,-6.75 1.57241,0 2.60755,0.66826 3.125,2 0.26875,0.75412 0.40625,2.09782 0.40625,4.03125 l 0,14.59375 3.59375,0 0,-16.1875 c 0,-4.7734 -2.0088,-7.15625 -6,-7.15625 -2.35461,0 -4.26985,1.03915 -5.75,3.125 l 0,-12.5625 -3.59375,0 z m -114.53125,3.0625 4,0 c 1.9936,0 3.50437,0.37004 4.53125,1.15625 1.26756,0.90654 2.07248,2.78503 2.4375,5.625 0.14842,1.23948 0.21875,3.38577 0.21875,6.40625 0,3.05257 -0.0655,5.23393 -0.25,6.59375 -0.38909,2.87206 -1.23244,4.78012 -2.5,5.71875 -0.9988,0.75412 -2.30492,1.125 -3.9375,1.125 l -4.5,0 0,-26.625 z m 68.71875,1.0625 -3.59375,1.59375 0,4.21875 -3.375,0 0,2.625 3.375,0 0,14.78125 c 0,2.08585 0.33497,3.52629 0.96875,4.3125 0.75412,0.87445 2.16097,1.3125 4.21875,1.3125 0.63378,0 1.50586,-0.0672 2.625,-0.1875 l 0,-2.8125 c -0.90654,0.12034 -1.44449,0.1875 -1.625,0.1875 -0.99479,0 -1.70149,-0.21902 -2.0625,-0.65625 -0.36502,-0.43723 -0.53125,-1.29093 -0.53125,-2.5625 l 0,-14.375 4.09375,0 0,-2.625 -4.09375,0 0,-5.8125 z m -39.9375,5.3125 c -3.47375,0 -5.78944,1.37729 -6.96875,4.125 -0.75412,1.75292 -1.125,4.66738 -1.125,8.71875 0,3.56601 0.43805,6.14951 1.3125,7.75 1.17931,2.14602 3.32709,3.21875 6.5,3.21875 4.89775,0 7.4749,-2.55076 7.6875,-7.625 l -3.5625,0 c -0.12034,3.35341 -1.49361,5.03125 -4.125,5.03125 -1.74891,0 -2.92555,-0.73458 -3.53125,-2.21875 -0.42118,-1.02688 -0.625,-2.70472 -0.625,-5.03125 l 0,-1.53125 11.96875,0 0,-1.0625 c 0,-3.65426 -0.33413,-6.24177 -1,-7.75 -1.08705,-2.41879 -3.26608,-3.625 -6.53125,-3.625 z m 54.53125,0 c -2.02167,0 -3.63235,0.49803 -4.84375,1.46875 -1.29965,1.02688 -1.96875,2.50724 -1.96875,4.46875 0,1.75292 0.59877,3.15978 1.75,4.21875 0.57361,0.54553 1.91648,1.38403 4.0625,2.53125 1.5684,0.84638 2.57798,1.51865 3.03125,2 0.72604,0.72604 1.09375,1.73244 1.09375,3 0,2.35862 -1.13905,3.53125 -3.4375,3.53125 -2.02167,0 -3.13115,-1.20705 -3.34375,-3.59375 -0.0281,-0.3931 -0.0625,-0.79673 -0.0625,-1.25 l -3.5625,0 c -0.0923,4.92583 2.18985,7.375 6.875,7.375 4.7734,0 7.15625,-2.21579 7.15625,-6.65625 0,-1.72083 -0.53795,-3.16528 -1.625,-4.3125 -0.69395,-0.69796 -1.96732,-1.53646 -3.8125,-2.53125 -1.69275,-0.90654 -2.76548,-1.57882 -3.21875,-2 -0.87847,-0.72604 -1.3125,-1.59812 -1.3125,-2.625 0,-0.93462 0.27098,-1.70764 0.8125,-2.28125 0.54553,-0.57361 1.28413,-0.84375 2.21875,-0.84375 2.14602,0 3.21875,1.41003 3.21875,4.25 l 3.59375,0 c -0.0602,-2.29845 -0.59896,-3.99065 -1.59375,-5.09375 -0.9988,-1.1031 -2.67263,-1.65625 -5.03125,-1.65625 z m 19.1875,0 c -3.3855,0 -5.66528,1.27654 -6.8125,3.84375 -0.75813,1.66066 -1.125,4.47839 -1.125,8.4375 0,3.95911 0.40764,6.74326 1.25,8.34375 1.11914,2.11393 3.32858,3.1875 6.59375,3.1875 4.74532,0 7.09375,-2.54759 7.09375,-7.59375 l -3.53125,0 c -0.0321,1.57241 -0.23106,2.74588 -0.65625,3.5 -0.57361,0.9988 -1.58001,1.5 -3,1.5 -1.60049,0 -2.70764,-0.73944 -3.28125,-2.1875 -0.51344,-1.29965 -0.75,-3.67933 -0.75,-7.125 0,-3.02048 0.16707,-5.10194 0.5,-6.28125 0.57361,-2.02569 1.78299,-3.03125 3.65625,-3.03125 2.35862,0 3.53125,1.58027 3.53125,4.78125 l 3.53125,0 c 0,-2.56721 -0.46995,-4.41528 -1.46875,-5.5625 -1.08705,-1.2114 -2.93597,-1.8125 -5.53125,-1.8125 z m 41.3125,0 c -3.47375,0 -5.78944,1.37729 -6.96875,4.125 -0.75412,1.75292 -1.125,4.66738 -1.125,8.71875 0,3.56601 0.43805,6.14951 1.3125,7.75 1.17931,2.14602 3.35834,3.21875 6.53125,3.21875 4.89775,0 7.44365,-2.55076 7.65625,-7.625 l -3.53125,0 c -0.12034,3.35341 -1.49361,5.03125 -4.125,5.03125 -1.75292,0 -2.92555,-0.73458 -3.53125,-2.21875 -0.42519,-1.02688 -0.65625,-2.70472 -0.65625,-5.03125 l 0,-1.53125 11.96875,0 0,-1.0625 c 0,-3.65426 -0.33413,-6.24177 -1,-7.75 -1.08705,-2.41879 -3.26608,-3.625 -6.53125,-3.625 z m 19.125,0 c -2.02167,0 -3.63636,0.49803 -4.84375,1.46875 -1.29965,1.02688 -1.9375,2.50724 -1.9375,4.46875 0,1.75292 0.56752,3.15978 1.71875,4.21875 0.57361,0.54553 1.94773,1.38403 4.09375,2.53125 1.5684,0.84638 2.57798,1.51865 3.03125,2 0.72604,0.72604 1.09375,1.73244 1.09375,3 0,2.35862 -1.1703,3.53125 -3.46875,3.53125 -2.02569,0 -3.13115,-1.20705 -3.34375,-3.59375 -0.0321,-0.3931 -0.0312,-0.79673 -0.0312,-1.25 l -3.59375,0 c -0.0923,4.92583 2.2211,7.375 6.90625,7.375 4.7734,0 7.15625,-2.21579 7.15625,-6.65625 0,-1.72083 -0.5692,-3.16528 -1.65625,-4.3125 -0.69395,-0.69796 -1.94008,-1.53646 -3.78125,-2.53125 -1.69275,-0.90654 -2.76548,-1.57882 -3.21875,-2 -0.87847,-0.72604 -1.3125,-1.59812 -1.3125,-2.625 0,-0.93462 0.27098,-1.70764 0.8125,-2.28125 0.54553,-0.57361 1.28413,-0.84375 2.21875,-0.84375 2.14602,0 3.21875,1.41003 3.21875,4.25 l 3.5625,0 c -0.0602,-2.29845 -0.56771,-3.99065 -1.5625,-5.09375 -0.9988,-1.1031 -2.70388,-1.65625 -5.0625,-1.65625 z m -120.90625,0.5 0,16.1875 c 0,4.68515 2.04555,7.03125 6.125,7.03125 2.44687,0 4.35809,-1.10715 5.75,-3.28125 l 0.0312,2.90625 3.59375,0 c -0.12034,-1.57241 -0.1875,-3.25025 -0.1875,-5.03125 l 0,-17.8125 -3.625,0 0,13.875 c 0,4.44046 -1.5076,6.65625 -4.5,6.65625 -1.60049,0 -2.64281,-0.63785 -3.15625,-1.9375 -0.30084,-0.78621 -0.46875,-2.12273 -0.46875,-4 l 0,-14.59375 -3.5625,0 z m -13.28125,2.09375 c 1.781,0 2.92322,0.90566 3.46875,2.71875 0.30084,0.90654 0.46875,2.45006 0.46875,4.65625 l -8.34375,0 c 0,-0.93863 0.0672,-1.91062 0.1875,-2.9375 0.33293,-2.96031 1.73979,-4.4375 4.21875,-4.4375 z m 115.03125,0 c 1.781,0 2.95447,0.90566 3.5,2.71875 0.30084,0.90654 0.4375,2.45006 0.4375,4.65625 l -8.34375,0 c 0,-0.93863 0.0672,-1.91062 0.1875,-2.9375 0.33293,-2.96031 1.73979,-4.4375 4.21875,-4.4375 z m -147.625,36.125 0,32.75 3.84375,0 0,-14.75 2.6875,0 c 3.5981,0 6.08001,-0.5012 7.5,-1.5 1.90535,-1.32773 2.875,-3.91122 2.875,-7.75 0,-3.29324 -0.76901,-5.60576 -2.28125,-6.9375 -1.41999,-1.20739 -3.76926,-1.8125 -7.0625,-1.8125 l -7.5625,0 z m 189.59375,0 0,12.09375 c -1.15123,-1.781 -2.86181,-2.6875 -5.15625,-2.6875 -2.75172,0 -4.69019,1.23979 -5.78125,3.71875 -0.81429,1.78501 -1.21875,4.4325 -1.21875,7.90625 0,3.68635 0.36855,6.40333 1.0625,8.15625 1.08705,2.63139 3.09902,3.9375 6.03125,3.9375 2.26636,0 4.0441,-1.0064 5.34375,-3 l 0.0312,2.625 3.5,0 c -0.12034,-2.05376 -0.1875,-3.46696 -0.1875,-4.28125 l 0,-28.46875 -3.625,0 z m 21.90625,0 0,32.75 3.46875,0 0,-29.90625 8.4375,29.90625 4.3125,0 8.4375,-29.90625 0,29.90625 3.75,0 0,-32.75 -6.34375,0 -7.84375,28.875 -7.875,-28.875 -6.34375,0 z m 70.15625,0 0,32.75 3.59375,0 0,-32.75 -3.59375,0 z m -277.8125,3.0625 3.125,0 c 2.20619,0 3.76174,0.4317 4.65625,1.25 0.8905,0.81429 1.34375,2.29465 1.34375,4.46875 0,2.32653 -0.47163,3.93805 -1.40625,4.8125 -0.93863,0.87847 -2.57972,1.3125 -4.90625,1.3125 l -2.8125,0 0,-11.84375 z m 41.25,1.0625 -3.59375,1.5625 0,4.21875 -3.375,0 0,2.625 3.375,0 0,14.78125 c 0,2.08585 0.33096,3.5303 0.96875,4.3125 0.75412,0.87847 2.16097,1.3125 4.21875,1.3125 0.63378,0 1.50586,-0.0672 2.625,-0.1875 l 0,-2.8125 c -0.90654,0.12034 -1.44449,0.1875 -1.625,0.1875 -0.99479,0 -1.70149,-0.21902 -2.0625,-0.65625 -0.36502,-0.44124 -0.53125,-1.29093 -0.53125,-2.5625 l 0,-14.375 4.09375,0 0,-2.625 -4.09375,0 0,-5.78125 z m 55.84375,0 -3.59375,1.5625 0,4.21875 -3.375,0 0,2.625 3.375,0 0,14.78125 c 0,2.08585 0.33096,3.5303 0.96875,4.3125 0.75412,0.87847 2.16097,1.3125 4.21875,1.3125 0.63378,0 1.50586,-0.0672 2.625,-0.1875 l 0,-2.8125 c -0.90654,0.12034 -1.44449,0.1875 -1.625,0.1875 -0.99479,0 -1.70149,-0.21902 -2.0625,-0.65625 -0.36502,-0.44124 -0.53125,-1.29093 -0.53125,-2.5625 l 0,-14.375 4.09375,0 0,-2.625 -4.09375,0 0,-5.78125 z m 299.625,0 -3.59375,1.5625 0,4.21875 -3.40625,0 0,2.625 3.40625,0 0,14.78125 c 0,2.08585 0.33096,3.5303 0.96875,4.3125 0.75412,0.87847 2.12972,1.3125 4.1875,1.3125 0.63378,0 1.53711,-0.0672 2.65625,-0.1875 l 0,-2.8125 c -0.90654,0.12034 -1.47574,0.1875 -1.65625,0.1875 -0.99479,0 -1.67024,-0.21902 -2.03125,-0.65625 -0.36502,-0.44124 -0.53125,-1.29093 -0.53125,-2.5625 l 0,-14.375 4.0625,0 0,-2.625 -4.0625,0 0,-5.78125 z M 290.479,506.09852 c -2.20619,0 -3.95035,0.46846 -5.25,1.375 -1.51224,1.03089 -2.25,2.57441 -2.25,4.65625 l 0,0.25 3.5625,0 0,-0.25 c 0,-1.08705 0.36771,-1.92956 1.09375,-2.53125 0.72604,-0.6057 1.6317,-0.90625 2.71875,-0.90625 1.5684,0 2.6124,0.6011 3.09375,1.8125 0.30084,0.72203 0.4375,2.03299 0.4375,3.90625 l 0,1 c -3.74652,0.0321 -6.42992,0.39812 -8.0625,1.15625 -2.47896,1.11513 -3.71875,3.29817 -3.71875,6.53125 0,1.9936 0.47163,3.6011 1.40625,4.8125 1.05897,1.26756 2.56657,1.90625 4.5,1.90625 2.53913,0 4.54942,-1.10547 6.09375,-3.34375 l 0.0625,2.96875 3.5,0 c -0.15243,-2.11393 -0.25,-4.53354 -0.25,-7.28125 l 0,-8.4375 c 0,-2.65946 -0.47079,-4.57153 -1.4375,-5.71875 -1.02688,-1.26756 -2.87263,-1.90625 -5.5,-1.90625 z m 33.59375,0 c -3.47375,0 -5.78944,1.37729 -6.96875,4.125 -0.75412,1.75292 -1.125,4.66738 -1.125,8.71875 0,3.56601 0.43805,6.14951 1.3125,7.75 1.17931,2.14602 3.32709,3.21875 6.5,3.21875 4.89775,0 7.4749,-2.55076 7.6875,-7.625 l -3.5625,0 c -0.12034,3.35341 -1.49361,5.03125 -4.125,5.03125 -1.74891,0 -2.92555,-0.73458 -3.53125,-2.21875 -0.42118,-1.02688 -0.625,-2.70472 -0.625,-5.03125 l 0,-1.53125 11.96875,0 0,-1.0625 c 0,-3.65426 -0.33413,-6.24177 -1,-7.75 -1.08705,-2.41879 -3.26608,-3.625 -6.53125,-3.625 z m 22.53125,0 c -2.68754,0 -4.66994,1.21022 -5.9375,3.625 l 0,-3.125 -3.53125,0 c 0.12034,1.29965 0.1875,2.97431 0.1875,5 l 0,17.84375 3.5625,0 0,-13.71875 c 0,-1.781 0.36855,-3.32535 1.0625,-4.625 0.84638,-1.50823 2.02218,-2.28125 3.5625,-2.28125 1.57241,0 2.61156,0.66826 3.125,2 0.26875,0.72203 0.40625,2.06974 0.40625,4.03125 l 0,14.59375 3.59375,0 0,-16.21875 c 0,-4.74532 -2.01197,-7.125 -6.03125,-7.125 z m 82.03125,0 c -2.68754,0 -4.66994,1.21022 -5.9375,3.625 l 0,-3.125 -3.53125,0 c 0.12034,1.29965 0.1875,2.97431 0.1875,5 l 0,17.84375 3.59375,0 0,-13.71875 c 0,-1.781 0.3373,-3.32535 1.03125,-4.625 0.84638,-1.50823 2.05343,-2.28125 3.59375,-2.28125 1.57241,0 2.61156,0.66826 3.125,2 0.26875,0.72203 0.40625,2.06974 0.40625,4.03125 l 0,14.59375 3.5625,0 0,-16.21875 c 0,-4.74532 -2.01197,-7.125 -6.03125,-7.125 z m 88.6875,0 c -2.20619,0 -3.9816,0.46846 -5.28125,1.375 -1.51224,1.03089 -2.25,2.57441 -2.25,4.65625 l 0,0.25 3.5625,0 0,-0.25 c 0,-1.08705 0.36771,-1.92956 1.09375,-2.53125 0.72604,-0.6057 1.6317,-0.90625 2.71875,-0.90625 1.5684,0 2.6124,0.6011 3.09375,1.8125 0.30084,0.72203 0.4375,2.03299 0.4375,3.90625 l 0,1 c -3.74652,0.0321 -6.42992,0.39812 -8.0625,1.15625 -2.47896,1.11513 -3.71875,3.29817 -3.71875,6.53125 0,1.9936 0.47163,3.6011 1.40625,4.8125 1.05897,1.26756 2.56657,1.90625 4.5,1.90625 2.53913,0 4.58067,-1.10547 6.125,-3.34375 l 0.0312,2.96875 3.5,0 c -0.15243,-2.11393 -0.25,-4.53354 -0.25,-7.28125 l 0,-8.4375 c 0,-2.65946 -0.47079,-4.57153 -1.4375,-5.71875 -1.02688,-1.26756 -2.84138,-1.90625 -5.46875,-1.90625 z m 53.875,0 c -3.47375,0 -5.78944,1.37729 -6.96875,4.125 -0.75412,1.75292 -1.125,4.66738 -1.125,8.71875 0,3.56601 0.43805,6.14951 1.3125,7.75 1.17931,2.14602 3.32709,3.21875 6.5,3.21875 4.89775,0 7.4749,-2.55076 7.6875,-7.625 l -3.5625,0 c -0.12034,3.35341 -1.49361,5.03125 -4.125,5.03125 -1.74891,0 -2.92555,-0.73458 -3.53125,-2.21875 -0.42118,-1.02688 -0.625,-2.70472 -0.625,-5.03125 l 0,-1.53125 11.96875,0 0,-1.0625 c 0,-3.65426 -0.33413,-6.24177 -1,-7.75 -1.08705,-2.41879 -3.26608,-3.625 -6.53125,-3.625 z m 22.53125,0 c -2.68754,0 -4.66994,1.21022 -5.9375,3.625 l 0,-3.125 -3.53125,0 c 0.12435,1.29965 0.1875,2.97431 0.1875,5 l 0,17.84375 3.5625,0 0,-13.71875 c 0,-1.781 0.36855,-3.32535 1.0625,-4.625 0.84638,-1.50823 2.02218,-2.28125 3.5625,-2.28125 1.57241,0 2.61156,0.66826 3.125,2 0.26875,0.72203 0.40625,2.06974 0.40625,4.03125 l 0,14.59375 3.59375,0 0,-16.21875 c 0,-4.74532 -2.01197,-7.125 -6.03125,-7.125 z m 19.75,0 c -2.20619,0 -3.95035,0.46846 -5.25,1.375 -1.51224,1.03089 -2.25,2.57441 -2.25,4.65625 l 0,0.25 3.5625,0 0,-0.25 c 0,-1.08705 0.36771,-1.92956 1.09375,-2.53125 0.72203,-0.6057 1.62769,-0.90625 2.71875,-0.90625 1.5684,0 2.6124,0.6011 3.09375,1.8125 0.30084,0.72203 0.4375,2.03299 0.4375,3.90625 l 0,1 c -3.74652,0.0321 -6.43393,0.39812 -8.0625,1.15625 -2.47896,1.11513 -3.71875,3.29817 -3.71875,6.53125 0,1.9936 0.47163,3.6011 1.40625,4.8125 1.05897,1.26756 2.56657,1.90625 4.5,1.90625 2.53913,0 4.54942,-1.10547 6.09375,-3.34375 l 0.0625,2.96875 3.5,0 c -0.15243,-2.11393 -0.25,-4.53354 -0.25,-7.28125 l 0,-8.4375 c 0,-2.65946 -0.47079,-4.57153 -1.4375,-5.71875 -1.02688,-1.26756 -2.87263,-1.90625 -5.5,-1.90625 z m 22.40625,0 c -2.3867,0 -4.19886,1.16946 -5.40625,3.5 l 0,-3 -3.5625,0 c 0.12034,1.26756 0.15625,2.60893 0.15625,3.96875 l 0,18.875 3.59375,0 0,-14 c 0,-1.87326 0.33497,-3.38319 0.96875,-4.5625 0.72604,-1.32773 1.76518,-2 3.125,-2 1.41999,0 2.32882,0.56836 2.75,1.6875 0.24469,0.63378 0.375,1.74326 0.375,3.34375 l 0,15.53125 3.5625,0 0,-14.34375 c 0,-4.13962 1.34371,-6.21875 4.03125,-6.21875 1.35982,0 2.26548,0.56836 2.71875,1.6875 0.30486,0.69395 0.46875,1.87059 0.46875,3.53125 l 0,15.34375 3.59375,0 0,-15.53125 c 0,-2.65946 -0.40129,-4.57069 -1.1875,-5.75 -0.87445,-1.35982 -2.35165,-2.0625 -4.4375,-2.0625 -2.44687,0 -4.35576,1.16946 -5.6875,3.5 -0.78621,-2.33054 -2.4632,-3.5 -5.0625,-3.5 z m -95.8125,0.0625 c -2.63139,0 -4.57302,1.14306 -5.8125,3.4375 l 0,-3 -3.53125,0 c 0.0883,1.23948 0.125,2.64718 0.125,4.1875 l 0,18.65625 3.625,0 0,-14.125 c 0,-1.75292 0.45008,-3.15978 1.3125,-4.21875 0.85841,-1.05897 2.15417,-1.59375 3.875,-1.59375 0.15243,0 0.38899,0.0336 0.75,0.0937 0,-2.29444 -0.10307,-3.4375 -0.34375,-3.4375 z m -142.78125,0.4375 0,16.1875 c 0,4.68515 2.0143,7.03125 6.09375,7.03125 2.44687,0 4.39335,-1.0759 5.78125,-3.25 l 0.0312,2.875 3.59375,0 c -0.12034,-1.57241 -0.1875,-3.25025 -0.1875,-5.03125 l 0,-17.8125 -3.625,0 0,13.875 c 0,4.44046 -1.5076,6.65625 -4.5,6.65625 -1.60049,0 -2.64281,-0.63785 -3.15625,-1.9375 -0.30084,-0.78621 -0.46875,-2.12273 -0.46875,-4 l 0,-14.59375 -3.5625,0 z m 158,0 -6.84375,10.0625 7.53125,12.78125 4.21875,0 -7.84375,-12.875 7.09375,-9.96875 -4.15625,0 z m -231.25,2.09375 c 1.781,0 2.92322,0.90566 3.46875,2.71875 0.30084,0.90654 0.46875,2.48131 0.46875,4.6875 l -8.34375,0 c 0,-0.93863 0.0672,-1.94187 0.1875,-2.96875 0.33293,-2.96031 1.73979,-4.4375 4.21875,-4.4375 z m 247.125,0 c 1.781,0 2.92322,0.90566 3.46875,2.71875 0.30084,0.90654 0.46875,2.48131 0.46875,4.6875 l -8.34375,0 c 0,-0.93863 0.0672,-1.94187 0.1875,-2.96875 0.33293,-2.96031 1.73979,-4.4375 4.21875,-4.4375 z m -122.71875,0.0625 c 1.81309,0 3.05372,0.9384 3.6875,2.84375 0.45327,1.32773 0.6875,3.54351 0.6875,6.65625 0,2.80788 -0.23106,4.82302 -0.65625,6.0625 -0.63378,1.90535 -1.91032,2.875 -3.84375,2.875 -1.63258,0 -2.76846,-0.93523 -3.40625,-2.8125 -0.48135,-1.3879 -0.71875,-3.5701 -0.71875,-6.5625 0,-2.75172 0.19981,-4.7941 0.625,-6.09375 0.63378,-1.99761 1.83999,-2.96875 3.625,-2.96875 z m -76.96875,6.96875 0,3.125 9.34375,0 0,-3.125 -4.625,0 -4.71875,0 z m -78.5,2.1875 0.90625,0 0,2.71875 c 0,1.781 -0.30372,3.22377 -0.9375,4.375 -0.8183,1.44806 -2.0885,2.1875 -3.78125,2.1875 -2.23828,0 -3.34375,-1.47402 -3.34375,-4.40625 0,-3.26517 2.38285,-4.875 7.15625,-4.875 z m 226.8125,0 0.90625,0 0,2.71875 c 0,1.781 -0.30372,3.22377 -0.9375,4.375 -0.8183,1.44806 -2.0885,2.1875 -3.78125,2.1875 -2.23828,0 -3.34375,-1.47402 -3.34375,-4.40625 0,-3.26517 2.38285,-4.875 7.15625,-4.875 z m 96.1875,0 0.90625,0 0,2.71875 c 0,1.781 -0.30372,3.22377 -0.9375,4.375 -0.8183,1.44806 -2.0885,2.1875 -3.78125,2.1875 -2.23828,0 -3.34375,-1.47402 -3.34375,-4.40625 0,-3.26517 2.38285,-4.875 7.15625,-4.875 z"
       id="path200"
       style="fill:#000000;fill-opacity:1;fill-rule:nonzero;stroke:none" />
  </g>
</svg>
