<svg xmlns="http://www.w3.org/2000/svg" viewBox="0 0 140 40"><path d="M47.7 29.9H35.9c-.4 0-.7-.3-.7-.7v-1.5c0-.4.1-.5.3-.8L45 15.7h-9.2c-.4 0-.7-.3-.7-.7v-1c0-.4.3-.7.7-.7h11.9c.4 0 .7.3.7.7v1.5c0 .3-.1.5-.3.7l-9.4 11.2h9.1c.4 0 .7.3.7.7v1c-.1.4-.4.8-.8.8zm23.3.3c.9 0 1.5-.2 1.7-.5.1-.1.1-.2.1-.3 0-.1 0-.1-.2-1.2 0-.3-.3-.4-.4-.4h-.4c-.6 0-1.1-.1-1.1-1v-19c0-.3-.2-.6-.5-.6h-.1l-1.6.4c-.3 0-.6.2-.6.6v18.5c-.2 2.2 1 3.5 3.1 3.5zm33.2-.3h-1.5c-.4 0-.7-.3-.7-.7V17.8c0-1.9-.6-2.5-2.6-2.5-2.3 0-4.6.6-5.4.8v13c0 .4-.3.7-.7.7h-1.5c-.4 0-.7-.3-.7-.7V16.4c0-1.2.1-2 1.7-2.5 1.6-.6 4.6-1 6.6-1 3.8 0 5.4 1.4 5.4 4.7v11.6c.1.3-.2.7-.6.7zM119 15.8c-.5-.1-2.1-.5-3.8-.5-3.2 0-4.5.9-4.5 6.3 0 5.9 1.8 6.2 4.6 6.3v.1-.1c1.7 0 3.2-.4 3.8-.5l-.1-11.6zm.8 13.8h-.2c-.9.2-2.2.6-4.5.6-6.2 0-7.4-3.2-7.4-8.7 0-6.3 2-8.7 7.2-8.7 1.9 0 3.1.3 4 .5V8.2c0-.2.1-.5.6-.6l1.6-.4h.1c.4 0 .5.4.5.6V27c.2 1.2 0 2.2-1.9 2.6zm11.9-1.8c-4 0-4.3-2.2-4.3-6.2 0-4.1.2-6.2 4.3-6.3 4 0 4.3 2.2 4.3 6.3 0 4-.2 6.2-4.3 6.2zm0-15c-6.7 0-7.2 4.5-7.3 8.7 0 4.2.6 8.7 7.3 8.7s7.2-4.5 7.3-8.7c0-4.4-.6-8.7-7.3-8.7zm-46.3 8.8c-.7 0-3.9.1-5.2.3h-.1c-1.5.3-2.6.6-2.6 2.8 0 2.8 2.1 3 4.2 3v.3-.1c1.3 0 2.6-.2 3.7-.6v-5.7zm2.9-4v8.8c0 2.2-.5 2.9-2.7 3.4-.9.2-2.4.4-4 .4-2.3 0-7.1 0-7.1-5.3 0-4.2 2.4-4.9 5.4-5.4 1.9-.3 3.9-.4 4.9-.4h.5v-1.5c0-1 0-1.6-.9-2-.6-.2-1.4-.4-2.6-.4-2 0-3.9.5-5.1.8l-.5.1H76c-.2 0-.5-.1-.5-.4l-.3-1.4v-.1c0-.3.2-.5.5-.6 1-.4 3.6-1 6.3-1 2 0 3.5.3 4.5.8 1.8 1.2 1.8 2.8 1.8 4.2zm-26.8 9.7c-1.1.4-2.4.6-3.7.6v.1-.1c-2.1 0-4.2-.3-4.2-3 0-2.2 1.2-2.5 2.6-2.8h.1c1.3-.3 4.5-.3 5.2-.3v5.5zm1.1-13.6c-1-.6-2.5-.8-4.5-.8-2.8 0-5.4.6-6.3 1-.2.1-.5.3-.5.6v.1l.3 1.4c.1.3.3.4.5.4h.2l.5-.1c1.2-.3 3-.8 5.1-.8 1.2 0 2.1.1 2.6.4.9.4.9 1 .9 2v1.5h-.6c-1 0-3 0-4.9.4-3 .5-5.4 1.2-5.4 5.4 0 5.3 4.8 5.3 7.1 5.3 1.6 0 3-.2 4-.4 2.2-.5 2.7-1.2 2.7-3.4v-8.8c0-1.7 0-3.3-1.7-4.2z"/><path fill="#ff6900" d="M26.9 17.7c-1.9-2.4-4.6-4.8-8.2-6.9-3.5-2.1-6.9-3.3-9.9-3.8-1.9-.3-2.8 0-3.2.3-.4.2-1.2.8-1.8 2.7C2.7 12.9 2 16.5 2 20.7c0 4.2.7 7.8 1.8 10.7.7 1.8 1.4 2.4 1.8 2.7.4.2 1.3.6 3.2.3 3-.5 6.4-1.7 9.9-3.8 3.5-2.1 6.2-4.5 8.2-6.9 1.2-1.5 1.3-2.5 1.3-3s0-1.5-1.3-3"/></svg>