<svg xmlns="http://www.w3.org/2000/svg" id="layer" width="200" height="30" viewBox="0 0 652 111"><style>.st0{fill:#bac50d}</style><path d="M225.1 39.8V21.5h-47.4V60.9c0 20.2 13.9 34.4 33.9 34.4h13.2V77.1h-13.2c-9.8 0-15.5-5.9-15.5-16.1V39.9l29-.1zM264.5 19.3c-21.6 0-39.2 17.4-39.2 38.7s17.6 38.7 39.2 38.7 39.2-17.4 39.2-38.7-17.5-38.7-39.2-38.7m0 61.6c-12.6 0-22.9-10.3-22.9-22.9s10.3-22.9 22.9-22.9c12.6 0 22.8 10.3 22.8 22.9s-10.2 22.9-22.8 22.9M496.6 96.7c-7.3 0-14.5-2.7-20-7.5-4.6-4-10.1-11.5-10.1-24.1V21.4h7.1v43.7c0 18.1 13.8 24.6 23.1 24.6s23.1-6.6 23.1-24.6V21.4h7.1l-.1 43.7c0 12.6-5.5 20.1-10.1 24.1-5.6 4.8-12.9 7.5-20.1 7.5M150.4 21.4v34.5c0 15.4-11.6 19.5-17.8 19.5-6.1 0-17.8-4.1-17.8-19.5V21.4H93.9l.1 34.5c0 15.8 7.1 25.4 13 30.5 7 6.1 16.3 9.6 25.6 9.6s18.7-3.5 25.6-9.6c5.9-5.2 13-14.7 13-30.5l.1-34.5h-20.9zM377 94.4l-.1-39.1c0-14.2-6.3-22.8-11.6-27.4-6.2-5.5-14.5-8.6-22.8-8.6s-16.6 3.1-22.8 8.6c-5.3 4.6-11.6 13.1-11.6 27.4v39.1h12.7l-.1-39.1c0-18.5 14.2-23.3 21.7-23.3s21.7 4.9 21.7 23.3l-.1 39.1h13zM611.4 19.5c-8.5 0-20.2 4.6-25.1 16.3-4.9-11.7-16.6-16.3-25.1-16.3-11 0-27.5 7.7-27.5 28.9v46h4.8v-46c0-17.8 13.6-24.2 22.7-24.2s22.6 6.4 22.7 24.1v46.1h4.8V48.3c.1-17.7 13.6-24.1 22.7-24.1s22.7 6.4 22.7 24.2v46h4.8v-46c0-21.2-16.4-28.9-27.5-28.9M460.3 62.2c2.1-19.5-11.4-38-31.1-42-21-4.3-41.9 9.2-46.2 30.1-4.3 20.9 9.6 41.4 30.7 45.7 19 3.9 37.9-6.8 44.5-24.3h-10.9c-5.9 11.2-18.5 17.8-31.6 15.1-12.5-2.5-21.3-12.6-22.9-24.5l67.5-.1zm-33-32.7c12.2 2.5 20.8 12 22.8 23.5l-57.3.1.1-.7c3.3-15.8 18.5-26.1 34.4-22.9M22.1 90.5c4.3 4 10.6 6.1 18.1 6.1h1c7.6-.2 13.2-2 18.8-6.1l3.6-2.6 1.1-.8V94.5h23.5V79.1l-.1-31.6c0-1.4-.1-2.8-.3-4.1-1-7.8-4.3-13.9-9.6-17.9-5.6-4.2-13.6-6.3-23.8-6.3h-.3c-10.7 0-18.7 1.7-24.3 5.3-5.3 3.3-8.7 8.4-10.3 15.5l-.8 3.4h24.1l.1-.5c.6-4.6 4.4-7.5 10.2-7.5h.7c.6 0 1.1.1 1.6.1h.1c2.4.4 4.4 1.2 5.6 2.5 1.2 1.3 1.8 2.9 1.5 4.6-.5 3.3-2.7 4.1-13.7 6.5l-.6.1c-.8.2-1.7.4-2.6.6-1.9.4-3.7.8-5.5 1.2-18.6 4.3-25.3 10.7-25 23.4.2 6.6 2.6 12.2 6.9 16.1m25.2-25.4l15.2-4.9.9-.3V72.4l-.2.2-2.2 1.8c-.7.7-1.6 1.3-2.6 1.8-3 1.8-5.9 2.6-9.3 2.8h-.5c-4.3 0-7.1-2.5-7.3-6.6-.3-3.7 1.5-5.8 6-7.3" class="st0"/></svg>