<?xml version="1.0" encoding="UTF-8" standalone="no"?>
<!-- Created with Inkscape (http://www.inkscape.org/) -->

<svg
   xmlns:dc="http://purl.org/dc/elements/1.1/"
   xmlns:cc="http://creativecommons.org/ns#"
   xmlns:rdf="http://www.w3.org/1999/02/22-rdf-syntax-ns#"
   xmlns:svg="http://www.w3.org/2000/svg"
   xmlns="http://www.w3.org/2000/svg"
   version="1.1"
   width="892.91339"
   height="432.28345"
   id="svg32144">
  <defs
     id="defs32146">
    <clipPath
       id="clipPath20628">
      <path
         d="m 81.799,651.528 41.91,0 0,27.566 -41.91,0 0,-27.566 z"
         id="path20630" />
    </clipPath>
  </defs>
  <metadata
     id="metadata32149">
    <rdf:RDF>
      <cc:Work
         rdf:about="">
        <dc:format>image/svg+xml</dc:format>
        <dc:type
           rdf:resource="http://purl.org/dc/dcmitype/StillImage" />
        <dc:title></dc:title>
      </cc:Work>
    </rdf:RDF>
  </metadata>
  <g
     transform="translate(36.471211,-250.72868)"
     id="layer1">
    <g
       transform="matrix(24.955046,0,0,-24.955046,-2124.7522,17187.825)"
       id="g20624">
      <g
         clip-path="url(#clipPath20628)"
         id="g20626">
        <g
           transform="translate(112.0331,676.7114)"
           id="g20632">
          <path
             d="m 0,0 c -0.128,-0.741 -0.323,-1.83 -0.323,-1.83 -1.336,-7.574 -5.046,-6.795 -5.88,-6.799 -0.216,0.08 -0.727,0.203 -1.342,0.58 0.014,-0.017 0.029,-0.033 0.043,-0.048 -1.176,0.948 -2.387,2.996 -1.605,7.542 l 0.318,1.8 c 1.497,0.576 3.165,0.765 4.86,0.466 C -2.415,1.444 -1.101,0.822 0,0"
             id="path20634"
             style="fill:#e2001a;fill-opacity:1;fill-rule:nonzero;stroke:none" />
        </g>
        <g
           transform="translate(84.7247,663.3093)"
           id="g20636">
          <path
             d="m 0,0 c -0.002,-0.007 -0.003,-0.024 -0.003,-0.057 l 0,-1.443 c 0,-0.074 -0.009,-0.132 -0.035,-0.164 -0.027,-0.032 -0.073,-0.044 -0.128,-0.044 l -0.438,0 c -0.063,0 -0.122,0.017 -0.131,0.074 -0.006,0.035 -0.009,0.085 -0.009,0.151 l 0,3.766 c 0,0.054 0.007,0.098 0.027,0.128 0.024,0.036 0.076,0.046 0.136,0.046 l 1.201,0 C 1.128,2.457 1.518,2.353 1.785,2.139 2.053,1.926 2.186,1.622 2.186,1.233 2.186,1.084 2.161,0.948 2.111,0.824 2.061,0.702 1.998,0.595 1.921,0.503 1.845,0.411 1.761,0.336 1.67,0.278 1.581,0.221 1.495,0.182 1.412,0.162 1.394,0.157 1.38,0.153 1.37,0.149 1.373,0.141 1.379,0.13 1.386,0.118 L 2.16,-1.471 C 2.197,-1.543 2.218,-1.604 2.207,-1.645 2.194,-1.694 2.141,-1.708 2.085,-1.708 l -0.5,0 c -0.055,0 -0.102,0.013 -0.127,0.049 -0.018,0.027 -0.039,0.067 -0.061,0.12 l -0.718,1.503 c -0.014,0.027 -0.035,0.04 -0.07,0.04 l -0.579,0 C 0.017,0.004 0.008,0.003 0.003,0.001 L 0,0 z M 1.378,1.543 C 1.333,1.627 1.273,1.693 1.197,1.743 1.119,1.793 1.029,1.83 0.925,1.854 0.82,1.878 0.709,1.89 0.592,1.89 l -0.522,0 C 0.033,1.886 0.018,1.876 0.012,1.867 0.002,1.85 -0.003,1.834 -0.003,1.817 l 0,-1.145 c 0,-0.025 0.002,-0.043 0.005,-0.056 C 0.013,0.6 0.035,0.594 0.081,0.594 l 0.69,0 c 0.197,0 0.358,0.052 0.485,0.156 0.124,0.102 0.189,0.261 0.189,0.483 0,0.124 -0.023,0.227 -0.067,0.31"
             id="path20638"
             style="fill:#5f6062;fill-opacity:1;fill-rule:evenodd;stroke:none" />
        </g>
        <g
           transform="translate(90.094,661.6248)"
           id="g20640">
          <path
             d="m 0,0 c -0.029,-0.015 -0.061,-0.023 -0.095,-0.023 l -2.133,0 c -0.043,0 -0.081,0.013 -0.111,0.041 -0.034,0.031 -0.046,0.085 -0.046,0.15 l 0,3.76 c 0,0.054 0.005,0.101 0.015,0.139 0.014,0.054 0.062,0.075 0.12,0.075 l 2.032,0 c 0.065,0 0.115,-0.004 0.14,-0.018 0.032,-0.018 0.039,-0.06 0.039,-0.1 l 0,-0.331 c 0,-0.06 -0.034,-0.097 -0.093,-0.107 C -0.18,3.579 -0.244,3.574 -0.325,3.574 l -1.246,0 c -0.065,0 -0.092,-0.01 -0.1,-0.018 C -1.683,3.542 -1.689,3.528 -1.689,3.513 l 0,-1.084 c 0,-0.051 0.01,-0.074 0.019,-0.083 0.011,-0.009 0.034,-0.018 0.077,-0.018 l 1.111,0 c 0.076,0 0.136,-0.006 0.165,-0.027 0.034,-0.025 0.039,-0.065 0.031,-0.107 L -0.325,1.882 C -0.334,1.809 -0.377,1.766 -0.448,1.759 -0.507,1.753 -0.563,1.75 -0.617,1.75 l -0.931,0 C -1.607,1.75 -1.64,1.741 -1.654,1.729 -1.667,1.718 -1.677,1.695 -1.677,1.649 l 0,-0.987 c 0,-0.065 0.016,-0.08 0.025,-0.083 0.026,-0.008 0.062,-0.013 0.109,-0.013 l 1.358,0 c 0.076,0 0.134,-0.006 0.171,-0.021 C 0.032,0.526 0.051,0.484 0.051,0.432 l 0,-0.326 C 0.051,0.06 0.037,0.02 0,0"
             id="path20642"
             style="fill:#5f6062;fill-opacity:1;fill-rule:nonzero;stroke:none" />
        </g>
        <g
           transform="translate(93.7779,662.402)"
           id="g20644">
          <path
             d="m 0,0 c -0.029,-0.159 -0.092,-0.305 -0.19,-0.436 -0.099,-0.132 -0.244,-0.237 -0.433,-0.317 -0.19,-0.081 -0.444,-0.12 -0.76,-0.12 -0.313,0 -0.573,0.035 -0.781,0.108 -0.207,0.072 -0.373,0.173 -0.497,0.302 -0.123,0.128 -0.208,0.279 -0.256,0.452 -0.048,0.171 -0.071,0.355 -0.071,0.552 l 0,1.285 c 0,0.216 0.02,0.419 0.059,0.609 0.04,0.194 0.122,0.364 0.245,0.512 0.123,0.149 0.296,0.265 0.516,0.351 0.222,0.086 0.514,0.128 0.875,0.128 0.185,0 0.347,-0.014 0.485,-0.04 C -0.67,3.359 -0.553,3.328 -0.456,3.294 -0.36,3.259 -0.282,3.223 -0.225,3.186 -0.171,3.15 -0.132,3.121 -0.111,3.1 -0.096,3.085 -0.092,3.063 -0.092,3.043 -0.092,3.021 -0.097,2.996 -0.104,2.968 -0.12,2.911 -0.142,2.854 -0.171,2.796 -0.2,2.738 -0.231,2.689 -0.264,2.648 -0.281,2.627 -0.298,2.61 -0.315,2.601 -0.333,2.591 -0.357,2.588 -0.377,2.6 -0.41,2.625 -0.452,2.652 -0.502,2.68 -0.551,2.707 -0.61,2.733 -0.679,2.757 -0.749,2.78 -0.831,2.8 -0.924,2.814 -1.019,2.829 -1.128,2.836 -1.254,2.836 -1.428,2.836 -1.576,2.821 -1.699,2.79 -1.82,2.759 -1.92,2.704 -2.001,2.626 -2.081,2.548 -2.14,2.443 -2.178,2.311 -2.217,2.178 -2.236,2.008 -2.236,1.8 l 0,-1.199 c 0,-0.338 0.065,-0.572 0.189,-0.712 0.123,-0.139 0.338,-0.212 0.653,-0.212 0.125,0 0.233,0.011 0.324,0.033 0.09,0.021 0.165,0.058 0.224,0.109 0.06,0.05 0.105,0.119 0.135,0.207 0.031,0.087 0.046,0.199 0.046,0.335 l 0,0.528 c 0,0.027 -0.004,0.051 -0.012,0.071 -0.002,0.006 -0.014,0.019 -0.066,0.019 l -0.382,0.005 c -0.042,0 -0.077,0.005 -0.101,0.018 -0.032,0.018 -0.039,0.063 -0.039,0.106 l 0,0.28 c 0,0.032 0.003,0.059 0.009,0.081 0.012,0.041 0.058,0.049 0.097,0.049 l 0.921,0 c 0.11,0 0.193,-0.013 0.23,-0.051 C 0.029,1.43 0.043,1.356 0.043,1.259 l 0,-0.791 C 0.043,0.313 0.028,0.157 0,0"
             id="path20646"
             style="fill:#5f6062;fill-opacity:1;fill-rule:nonzero;stroke:none" />
        </g>
        <g
           transform="translate(97.0168,661.6248)"
           id="g20648">
          <path
             d="m 0,0 c -0.029,-0.015 -0.061,-0.023 -0.095,-0.023 l -2.132,0 c -0.044,0 -0.082,0.013 -0.112,0.041 -0.034,0.031 -0.046,0.085 -0.046,0.15 l 0,3.76 c 0,0.054 0.005,0.101 0.015,0.139 0.014,0.054 0.062,0.075 0.12,0.075 l 2.032,0 c 0.065,0 0.115,-0.004 0.14,-0.018 0.032,-0.018 0.039,-0.06 0.039,-0.1 l 0,-0.331 c 0,-0.06 -0.034,-0.097 -0.093,-0.107 C -0.18,3.579 -0.244,3.574 -0.325,3.574 l -1.246,0 c -0.065,0 -0.092,-0.01 -0.1,-0.018 C -1.683,3.542 -1.689,3.528 -1.689,3.513 l 0,-1.084 c 0,-0.051 0.01,-0.074 0.019,-0.083 0.011,-0.009 0.034,-0.018 0.077,-0.018 l 1.111,0 c 0.076,0 0.136,-0.006 0.165,-0.027 0.034,-0.025 0.039,-0.065 0.031,-0.107 L -0.325,1.882 C -0.334,1.809 -0.377,1.766 -0.448,1.759 -0.507,1.753 -0.563,1.75 -0.617,1.75 l -0.931,0 C -1.607,1.75 -1.64,1.741 -1.654,1.729 -1.667,1.718 -1.677,1.695 -1.677,1.649 l 0,-0.987 c 0,-0.065 0.016,-0.08 0.025,-0.083 0.026,-0.008 0.062,-0.013 0.109,-0.013 l 1.359,0 c 0.075,0 0.133,-0.006 0.17,-0.021 C 0.032,0.526 0.051,0.484 0.051,0.432 l 0,-0.326 C 0.051,0.06 0.037,0.02 0,0"
             id="path20650"
             style="fill:#5f6062;fill-opacity:1;fill-rule:nonzero;stroke:none" />
        </g>
        <g
           transform="translate(100.2261,662.7755)"
           id="g20652">
          <path
             d="M 0,0 C 0.002,0.006 0.004,0.014 0.005,0.024 0.01,0.053 0.012,0.093 0.012,0.145 l 0,2.638 c 0,0.044 0.006,0.087 0.018,0.131 0.014,0.051 0.048,0.081 0.1,0.077 l 0.432,0 C 0.616,2.991 0.661,2.974 0.68,2.929 0.696,2.894 0.702,2.842 0.702,2.778 l 0,-3.727 c 0,-0.076 -0.007,-0.135 -0.024,-0.174 -0.022,-0.05 -0.071,-0.066 -0.129,-0.062 l -0.402,0.006 c -0.056,0 -0.102,0.01 -0.135,0.037 -0.031,0.023 -0.061,0.064 -0.092,0.117 L -1.713,1.713 C -1.734,1.75 -1.753,1.777 -1.768,1.797 -1.782,1.791 -1.784,1.762 -1.784,1.722 l 0,-2.671 c 0,-0.075 -0.007,-0.133 -0.026,-0.168 -0.022,-0.042 -0.07,-0.057 -0.125,-0.057 l -0.365,0 c -0.034,0 -0.069,0.007 -0.107,0.018 -0.058,0.019 -0.073,0.093 -0.073,0.179 l 0,3.76 c 0,0.008 10e-4,0.022 0.003,0.042 0.002,0.02 0.006,0.041 0.012,0.064 0.007,0.024 0.018,0.046 0.033,0.066 0.02,0.025 0.049,0.036 0.081,0.036 l 0.393,0 c 0.047,0 0.083,-0.002 0.111,-0.006 0.028,-0.004 0.053,-0.012 0.071,-0.025 0.016,-0.011 0.03,-0.026 0.041,-0.044 0.009,-0.014 0.022,-0.031 0.04,-0.053 L -0.053,0.075 C -0.033,0.04 -0.017,0.017 -0.004,0.004 L 0,0 z"
             id="path20654"
             style="fill:#5f6062;fill-opacity:1;fill-rule:nonzero;stroke:none" />
        </g>
        <g
           transform="translate(104.3391,662.1392)"
           id="g20656">
          <path
             d="m 0,0 c -0.094,-0.155 -0.216,-0.279 -0.366,-0.371 -0.149,-0.092 -0.318,-0.155 -0.506,-0.191 -0.187,-0.036 -0.377,-0.054 -0.569,-0.054 -0.331,0 -0.596,0.025 -0.796,0.077 -0.197,0.05 -0.337,0.103 -0.416,0.158 -0.016,0.013 -0.024,0.033 -0.028,0.053 -0.004,0.02 -0.006,0.046 -0.006,0.077 0,0.061 0.005,0.126 0.017,0.195 0.011,0.07 0.027,0.13 0.046,0.182 0.01,0.027 0.021,0.049 0.035,0.064 0.014,0.017 0.034,0.028 0.058,0.024 L -2.382,0.157 C -2.325,0.134 -2.257,0.112 -2.177,0.09 -2.098,0.068 -2.005,0.049 -1.9,0.032 c 0.105,-0.017 0.228,-0.025 0.369,-0.025 0.125,0 0.244,0.01 0.357,0.031 0.112,0.02 0.207,0.052 0.286,0.095 0.079,0.043 0.141,0.099 0.187,0.168 0.045,0.067 0.068,0.152 0.068,0.256 0,0.087 -0.013,0.164 -0.038,0.232 -0.024,0.066 -0.066,0.129 -0.125,0.189 -0.059,0.059 -0.138,0.115 -0.238,0.169 -0.1,0.054 -0.224,0.11 -0.373,0.17 -0.15,0.06 -0.294,0.126 -0.432,0.197 C -1.977,1.586 -2.1,1.671 -2.207,1.768 -2.314,1.866 -2.4,1.982 -2.463,2.116 -2.527,2.252 -2.558,2.413 -2.558,2.6 c 0,0.15 0.029,0.291 0.089,0.424 0.06,0.133 0.152,0.249 0.275,0.347 0.123,0.098 0.277,0.175 0.461,0.232 0.185,0.057 0.4,0.086 0.645,0.086 0.173,0 0.316,-0.005 0.429,-0.015 0.114,-0.009 0.207,-0.02 0.281,-0.034 0.074,-0.013 0.132,-0.027 0.174,-0.041 0.042,-0.013 0.078,-0.025 0.108,-0.037 0.049,-0.018 0.063,-0.073 0.063,-0.134 0,-0.059 -0.008,-0.123 -0.026,-0.191 C -0.076,3.169 -0.099,3.108 -0.129,3.055 -0.157,3.004 -0.197,2.964 -0.248,2.977 -0.329,3.003 -0.444,3.03 -0.591,3.058 c -0.146,0.028 -0.293,0.041 -0.441,0.041 -0.302,0 -0.503,-0.048 -0.61,-0.136 -0.109,-0.09 -0.164,-0.211 -0.164,-0.368 0,-0.083 0.014,-0.153 0.042,-0.212 0.028,-0.059 0.073,-0.115 0.136,-0.167 0.063,-0.052 0.143,-0.103 0.239,-0.151 0.096,-0.048 0.212,-0.098 0.345,-0.15 C -0.664,1.761 -0.371,1.58 -0.167,1.371 0.039,1.16 0.141,0.897 0.141,0.583 0.141,0.352 0.095,0.157 0,0"
             id="path20658"
             style="fill:#5f6062;fill-opacity:1;fill-rule:nonzero;stroke:none" />
        </g>
        <g
           transform="translate(107.729,661.8949)"
           id="g20660">
          <path
             d="m 0,0 c -0.227,-0.197 -0.591,-0.293 -1.086,-0.293 l -1.254,0 c -0.052,0 -0.1,0.01 -0.122,0.048 -0.017,0.029 -0.023,0.073 -0.023,0.126 l 0,3.766 c 0,0.064 0.004,0.116 0.015,0.153 0.014,0.053 0.065,0.071 0.125,0.071 l 1.094,0 c 0.242,0 0.457,-0.018 0.646,-0.056 0.19,-0.038 0.35,-0.099 0.481,-0.184 C 0.007,3.546 0.107,3.436 0.175,3.3 0.243,3.164 0.276,2.999 0.276,2.805 0.276,2.542 0.215,2.324 0.09,2.152 -0.019,2.002 -0.155,1.893 -0.319,1.824 -0.248,1.797 -0.179,1.765 -0.114,1.726 -0.025,1.674 0.053,1.608 0.121,1.527 0.189,1.445 0.242,1.345 0.28,1.228 0.319,1.111 0.338,0.972 0.338,0.813 0.338,0.469 0.226,0.197 0,0 m -0.656,3.205 c -0.137,0.091 -0.34,0.139 -0.614,0.139 l -0.441,0 C -1.748,3.34 -1.763,3.329 -1.768,3.32 -1.779,3.304 -1.784,3.288 -1.784,3.271 l 0,-1.083 c 0,-0.04 0.008,-0.058 0.015,-0.065 0.006,-0.006 0.025,-0.014 0.069,-0.014 l 0.453,0 c 0.292,0 0.495,0.052 0.614,0.148 0.118,0.096 0.179,0.248 0.179,0.464 0,0.238 -0.07,0.396 -0.202,0.484 M -0.602,1.363 C -0.751,1.474 -0.96,1.531 -1.234,1.531 l -0.454,0 c -0.045,0 -0.064,-0.008 -0.07,-0.014 C -1.765,1.51 -1.773,1.492 -1.773,1.452 l 0,-1.139 c 0,-0.017 0.005,-0.034 0.016,-0.053 0.006,-0.01 0.02,-0.02 0.058,-0.02 l 0.443,0 c 0.297,0 0.517,0.045 0.662,0.131 0.139,0.083 0.213,0.241 0.213,0.487 0,0.228 -0.075,0.395 -0.221,0.505"
             id="path20662"
             style="fill:#5f6062;fill-opacity:1;fill-rule:evenodd;stroke:none" />
        </g>
        <g
           transform="translate(111.5871,662.1836)"
           id="g20664">
          <path
             d="m 0,0 c -0.095,-0.179 -0.217,-0.319 -0.366,-0.417 -0.147,-0.098 -0.308,-0.162 -0.482,-0.192 -0.172,-0.031 -0.333,-0.046 -0.485,-0.046 -0.159,0 -0.324,0.02 -0.494,0.06 -0.172,0.04 -0.329,0.109 -0.47,0.206 -0.142,0.098 -0.259,0.23 -0.351,0.394 -0.093,0.166 -0.138,0.373 -0.138,0.62 l 0,2.784 c 0,0.052 0.006,0.096 0.024,0.124 0.02,0.031 0.057,0.046 0.098,0.05 l 0.428,0 c 0.053,0 0.097,-0.013 0.127,-0.046 0.031,-0.033 0.041,-0.093 0.041,-0.168 l 0,-2.531 c 0,-0.287 0.07,-0.503 0.206,-0.651 0.137,-0.15 0.312,-0.224 0.529,-0.224 0.155,0 0.279,0.021 0.374,0.062 0.095,0.041 0.169,0.099 0.224,0.173 0.055,0.075 0.094,0.166 0.116,0.275 0.022,0.111 0.033,0.236 0.033,0.376 l 0,2.56 c 0,0.052 0.006,0.096 0.024,0.124 0.02,0.031 0.057,0.046 0.098,0.05 l 0.439,0 C 0.028,3.583 0.073,3.57 0.102,3.537 0.133,3.504 0.144,3.444 0.144,3.369 l 0,-2.649 C 0.144,0.422 0.096,0.181 0,0"
             id="path20666"
             style="fill:#5f6062;fill-opacity:1;fill-rule:nonzero;stroke:none" />
        </g>
        <g
           transform="translate(113.3385,663.3093)"
           id="g20668">
          <path
             d="m 0,0 c -0.002,-0.007 -0.003,-0.024 -0.003,-0.057 l 0,-1.443 c 0,-0.074 -0.009,-0.132 -0.035,-0.164 -0.027,-0.032 -0.074,-0.044 -0.128,-0.044 l -0.438,0 c -0.063,0 -0.122,0.017 -0.132,0.074 -0.005,0.035 -0.008,0.085 -0.008,0.151 l 0,3.766 c 0,0.054 0.007,0.098 0.027,0.128 0.024,0.036 0.076,0.046 0.136,0.046 l 1.201,0 C 1.128,2.457 1.518,2.353 1.785,2.139 2.053,1.926 2.186,1.622 2.186,1.233 2.186,1.084 2.161,0.948 2.111,0.824 2.061,0.702 1.998,0.595 1.921,0.503 1.844,0.411 1.761,0.336 1.67,0.278 1.58,0.221 1.495,0.182 1.412,0.162 1.394,0.157 1.38,0.153 1.37,0.149 1.373,0.141 1.379,0.13 1.385,0.118 L 2.16,-1.471 C 2.197,-1.543 2.218,-1.604 2.207,-1.645 2.194,-1.694 2.14,-1.708 2.084,-1.708 l -0.499,0 c -0.055,0 -0.102,0.013 -0.127,0.049 -0.018,0.027 -0.039,0.067 -0.061,0.12 l -0.718,1.503 c -0.014,0.027 -0.035,0.04 -0.071,0.04 l -0.578,0 C 0.017,0.004 0.008,0.003 0.003,0.001 L 0,0 z M 1.378,1.543 C 1.333,1.627 1.273,1.693 1.196,1.743 1.119,1.793 1.029,1.83 0.925,1.854 0.82,1.878 0.709,1.89 0.592,1.89 l -0.522,0 C 0.033,1.886 0.018,1.876 0.012,1.867 0.002,1.85 -0.003,1.834 -0.003,1.817 l 0,-1.145 c 0,-0.025 0.001,-0.043 0.005,-0.056 C 0.013,0.6 0.035,0.594 0.081,0.594 l 0.69,0 c 0.197,0 0.358,0.052 0.485,0.156 0.124,0.102 0.189,0.261 0.189,0.483 0,0.124 -0.023,0.227 -0.067,0.31"
             id="path20670"
             style="fill:#5f6062;fill-opacity:1;fill-rule:evenodd;stroke:none" />
        </g>
        <g
           transform="translate(119.2776,662.402)"
           id="g20672">
          <path
             d="m 0,0 c -0.029,-0.159 -0.092,-0.305 -0.19,-0.436 -0.099,-0.132 -0.244,-0.237 -0.433,-0.317 -0.19,-0.081 -0.444,-0.12 -0.76,-0.12 -0.313,0 -0.573,0.035 -0.781,0.108 -0.207,0.072 -0.373,0.173 -0.497,0.302 -0.123,0.128 -0.208,0.279 -0.256,0.452 -0.048,0.171 -0.071,0.355 -0.071,0.552 l 0,1.285 c 0,0.216 0.02,0.419 0.059,0.609 0.04,0.194 0.122,0.364 0.245,0.512 0.123,0.149 0.296,0.265 0.516,0.351 0.222,0.086 0.514,0.128 0.875,0.128 0.185,0 0.347,-0.014 0.485,-0.04 C -0.67,3.359 -0.552,3.328 -0.456,3.294 -0.359,3.259 -0.282,3.223 -0.225,3.186 -0.171,3.15 -0.133,3.121 -0.111,3.1 -0.096,3.085 -0.092,3.063 -0.092,3.043 -0.092,3.021 -0.096,2.996 -0.104,2.968 -0.12,2.911 -0.142,2.854 -0.171,2.796 -0.2,2.738 -0.231,2.689 -0.264,2.648 -0.281,2.627 -0.298,2.61 -0.315,2.601 -0.333,2.591 -0.357,2.588 -0.377,2.6 -0.41,2.625 -0.452,2.652 -0.501,2.68 -0.551,2.707 -0.61,2.733 -0.679,2.757 -0.749,2.78 -0.831,2.8 -0.924,2.814 -1.019,2.829 -1.128,2.836 -1.254,2.836 -1.428,2.836 -1.576,2.821 -1.699,2.79 -1.82,2.759 -1.92,2.704 -2,2.626 -2.081,2.548 -2.14,2.443 -2.178,2.311 -2.217,2.178 -2.236,2.008 -2.236,1.8 l 0,-1.199 c 0,-0.338 0.065,-0.572 0.189,-0.712 0.123,-0.139 0.338,-0.212 0.653,-0.212 0.125,0 0.233,0.011 0.324,0.033 0.09,0.021 0.165,0.058 0.224,0.109 0.06,0.05 0.105,0.119 0.135,0.207 0.031,0.087 0.046,0.199 0.046,0.335 l 0,0.528 c 0,0.027 -0.004,0.051 -0.012,0.071 -0.002,0.006 -0.014,0.019 -0.066,0.019 l -0.382,0.005 c -0.042,0 -0.077,0.005 -0.101,0.018 -0.032,0.018 -0.039,0.063 -0.039,0.106 l 0,0.28 c 0,0.032 0.003,0.059 0.009,0.081 0.012,0.041 0.058,0.049 0.097,0.049 l 0.921,0 c 0.11,0 0.193,-0.013 0.23,-0.051 C 0.029,1.43 0.043,1.356 0.043,1.259 l 0,-0.791 C 0.043,0.313 0.028,0.157 0,0"
             id="path20674"
             style="fill:#5f6062;fill-opacity:1;fill-rule:nonzero;stroke:none" />
        </g>
        <g
           transform="translate(86.5107,668.4453)"
           id="g20676">
          <path
             d="m 0,0 c -0.094,-0.155 -0.216,-0.279 -0.366,-0.371 -0.149,-0.092 -0.318,-0.155 -0.506,-0.191 -0.187,-0.036 -0.377,-0.054 -0.569,-0.054 -0.331,0 -0.596,0.025 -0.796,0.077 -0.197,0.05 -0.337,0.103 -0.416,0.158 -0.016,0.012 -0.024,0.033 -0.028,0.052 -0.004,0.021 -0.006,0.047 -0.006,0.078 0,0.061 0.005,0.126 0.017,0.195 0.011,0.07 0.027,0.13 0.046,0.182 0.01,0.027 0.021,0.049 0.035,0.064 0.014,0.016 0.034,0.028 0.058,0.024 L -2.382,0.157 C -2.325,0.134 -2.257,0.112 -2.177,0.09 -2.098,0.068 -2.005,0.049 -1.9,0.032 c 0.105,-0.017 0.228,-0.025 0.369,-0.025 0.125,0 0.244,0.01 0.357,0.03 0.112,0.021 0.207,0.053 0.286,0.096 0.079,0.043 0.141,0.099 0.187,0.167 0.045,0.068 0.068,0.153 0.068,0.257 0,0.087 -0.013,0.164 -0.038,0.232 -0.024,0.066 -0.066,0.129 -0.125,0.189 -0.059,0.059 -0.138,0.115 -0.238,0.169 -0.1,0.054 -0.224,0.11 -0.373,0.17 -0.15,0.06 -0.294,0.126 -0.432,0.197 C -1.977,1.586 -2.1,1.671 -2.207,1.768 -2.314,1.866 -2.4,1.982 -2.463,2.116 -2.527,2.252 -2.558,2.414 -2.558,2.6 c 0,0.15 0.03,0.291 0.089,0.424 0.06,0.133 0.152,0.249 0.275,0.347 0.123,0.098 0.277,0.175 0.461,0.232 0.185,0.057 0.4,0.086 0.645,0.086 0.173,0 0.316,-0.005 0.429,-0.014 0.114,-0.01 0.207,-0.021 0.281,-0.035 0.074,-0.013 0.133,-0.027 0.175,-0.04 0.041,-0.014 0.077,-0.026 0.108,-0.038 0.048,-0.018 0.063,-0.073 0.063,-0.134 0,-0.059 -0.009,-0.123 -0.027,-0.191 C -0.076,3.169 -0.099,3.108 -0.129,3.055 -0.157,3.004 -0.197,2.964 -0.248,2.977 -0.329,3.003 -0.444,3.03 -0.591,3.058 c -0.146,0.027 -0.293,0.041 -0.441,0.041 -0.302,0 -0.502,-0.048 -0.61,-0.136 -0.109,-0.089 -0.164,-0.211 -0.164,-0.368 0,-0.083 0.014,-0.153 0.042,-0.212 0.028,-0.059 0.073,-0.115 0.136,-0.167 0.063,-0.052 0.143,-0.103 0.239,-0.151 0.096,-0.048 0.212,-0.098 0.345,-0.15 C -0.663,1.761 -0.37,1.58 -0.167,1.371 0.039,1.159 0.142,0.896 0.142,0.583 0.142,0.352 0.095,0.157 0,0"
             id="path20678"
             style="fill:#5f6062;fill-opacity:1;fill-rule:nonzero;stroke:none" />
        </g>
        <g
           transform="translate(89.7403,671.5261)"
           id="g20680">
          <path
             d="m 0,0 c -0.023,-0.026 -0.069,-0.032 -0.119,-0.032 l -0.91,0 c -0.058,0 -0.082,-0.008 -0.088,-0.013 -0.004,-0.004 -0.013,-0.02 -0.013,-0.066 l 0,-3.294 c 0,-0.074 -0.007,-0.132 -0.026,-0.164 -0.024,-0.038 -0.079,-0.049 -0.142,-0.049 l -0.387,0 c -0.063,0 -0.117,0.009 -0.143,0.041 -0.024,0.029 -0.031,0.092 -0.031,0.172 l 0,3.294 c 0,0.046 -0.009,0.062 -0.013,0.066 -0.006,0.005 -0.03,0.013 -0.088,0.013 l -0.898,0 c -0.05,0 -0.096,0.005 -0.118,0.028 -0.021,0.021 -0.028,0.051 -0.028,0.084 l 0,0.348 c 0,0.044 0.012,0.086 0.051,0.102 0.028,0.012 0.074,0.016 0.134,0.016 l 2.655,0 c 0.056,0 0.101,-0.004 0.131,-0.012 0.043,-0.013 0.06,-0.051 0.06,-0.095 l 0,-0.359 C 0.027,0.049 0.019,0.021 0,0"
             id="path20682"
             style="fill:#5f6062;fill-opacity:1;fill-rule:nonzero;stroke:none" />
        </g>
        <g
           transform="translate(92.8091,668.0143)"
           id="g20684">
          <path
             d="m 0,0 c 0.001,-0.03 -0.007,-0.061 -0.034,-0.077 -0.034,-0.021 -0.08,-0.03 -0.135,-0.03 l -0.387,0 c -0.028,0 -0.052,0.003 -0.071,0.009 -0.019,0.005 -0.037,0.016 -0.047,0.035 C -0.685,-0.042 -0.699,0 -0.718,0.059 l -0.235,0.766 -1.356,0 -0.23,-0.766 C -2.557,0 -2.575,-0.045 -2.594,-0.068 -2.618,-0.097 -2.659,-0.107 -2.706,-0.107 l -0.46,0 c -0.037,0 -0.073,0.011 -0.09,0.044 -0.009,0.018 -0.007,0.045 -0.003,0.07 0.004,0.028 0.013,0.063 0.027,0.108 l 1.139,3.743 c 0.019,0.066 0.044,0.117 0.077,0.15 0.036,0.035 0.091,0.05 0.158,0.05 l 0.46,0 c 0.066,0 0.121,-0.014 0.155,-0.051 0.03,-0.032 0.056,-0.083 0.079,-0.148 l 1.14,-3.744 C -0.009,0.069 -0.001,0.031 0,0 m -1.628,3.127 -0.513,-1.746 1.02,0 -0.507,1.746 z"
             id="path20686"
             style="fill:#5f6062;fill-opacity:1;fill-rule:evenodd;stroke:none" />
        </g>
        <g
           transform="translate(96.2713,668.5223)"
           id="g20688">
          <path
             d="m 0,0 c -0.099,-0.172 -0.223,-0.304 -0.371,-0.397 -0.147,-0.092 -0.304,-0.151 -0.472,-0.178 -0.166,-0.026 -0.317,-0.04 -0.453,-0.04 l -1.299,0 c -0.046,0 -0.085,0.018 -0.118,0.051 -0.037,0.036 -0.051,0.098 -0.051,0.174 l 0,3.727 c 0,0.058 0.007,0.106 0.022,0.144 0.019,0.05 0.066,0.069 0.124,0.069 l 1.137,0 c 0.211,0 0.414,-0.019 0.608,-0.057 0.195,-0.038 0.37,-0.106 0.522,-0.206 0.154,-0.1 0.276,-0.239 0.366,-0.415 0.09,-0.177 0.134,-0.403 0.134,-0.675 l 0,-1.504 C 0.149,0.406 0.1,0.174 0,0 m -0.58,2.151 c 0,0.299 -0.082,0.504 -0.238,0.624 -0.16,0.123 -0.376,0.186 -0.651,0.186 l -0.464,0 C -1.996,2.961 -2.016,2.95 -2.019,2.945 -2.027,2.933 -2.034,2.91 -2.034,2.871 l 0,-2.795 c 0,-0.038 0.008,-0.063 0.02,-0.079 0.007,-0.01 0.033,-0.022 0.097,-0.022 l 0.453,0 c 0.107,0 0.214,0.008 0.32,0.025 0.105,0.016 0.199,0.052 0.283,0.108 0.083,0.055 0.15,0.134 0.202,0.239 0.052,0.104 0.079,0.243 0.079,0.421 l 0,1.383 z"
             id="path20690"
             style="fill:#5f6062;fill-opacity:1;fill-rule:evenodd;stroke:none" />
        </g>
        <g
           transform="translate(99.6873,671.5261)"
           id="g20692">
          <path
             d="m 0,0 c -0.023,-0.026 -0.069,-0.032 -0.119,-0.032 l -0.91,0 c -0.058,0 -0.082,-0.008 -0.088,-0.013 -0.004,-0.004 -0.013,-0.02 -0.013,-0.066 l 0,-3.294 c 0,-0.074 -0.007,-0.132 -0.026,-0.164 -0.024,-0.038 -0.079,-0.049 -0.142,-0.049 l -0.387,0 c -0.063,0 -0.117,0.009 -0.143,0.041 -0.024,0.029 -0.031,0.092 -0.031,0.172 l 0,3.294 c 0,0.046 -0.009,0.062 -0.013,0.066 -0.006,0.005 -0.03,0.013 -0.088,0.013 l -0.898,0 c -0.05,0 -0.096,0.005 -0.118,0.028 -0.021,0.021 -0.028,0.051 -0.028,0.084 l 0,0.348 c 0,0.044 0.012,0.086 0.051,0.102 0.028,0.012 0.074,0.016 0.134,0.016 l 2.655,0 c 0.056,0 0.101,-0.004 0.131,-0.012 0.043,-0.013 0.06,-0.051 0.06,-0.095 l 0,-0.359 C 0.027,0.049 0.019,0.021 0,0"
             id="path20694"
             style="fill:#5f6062;fill-opacity:1;fill-rule:nonzero;stroke:none" />
        </g>
        <g
           transform="translate(111.5719,672.0989)"
           id="g20696">
          <path
             d="m 0,0 c -0.427,-1.24 -1.003,-2.182 -1.557,-2.81 -0.754,-0.83 -1.515,-1.207 -2.168,-1.385 -0.448,-0.122 -0.829,-0.147 -1.144,-0.147 l -0.051,0 c -0.135,0.002 -0.267,0.013 -0.363,0.013 -0.018,0 -0.035,0 -0.051,-0.001 l 0.008,-0.004 c 0.166,-0.03 0.482,-0.087 0.93,-0.087 0.745,0 1.856,0.157 3.242,0.854 2.13,1.07 3.224,2.675 2.507,3.054 C 0.901,-0.275 0.435,-0.111 0,0"
             id="path20698"
             style="fill:#c4c5c7;fill-opacity:1;fill-rule:nonzero;stroke:none" />
        </g>
        <g
           transform="translate(112.194,674.5228)"
           id="g20700">
          <path
             d="m 0,0 c -1.371,-7.58 -5.578,-6.715 -5.954,-6.755 -0.155,0.072 -0.99,0.224 -1.813,0.933 0.643,-0.407 1.18,-0.535 1.403,-0.618 0.834,0.003 4.544,-0.775 5.88,6.799 0,0 0.195,1.088 0.323,1.83 0,0 0.224,-0.168 0.478,-0.39 C 0.189,1.058 0,0 0,0"
             id="path20702"
             style="fill:#8b2412;fill-opacity:1;fill-rule:nonzero;stroke:none" />
        </g>
        <g
           transform="translate(109.0382,674.8293)"
           id="g20704">
          <path
             d="M 0,0 C 0.02,0.022 0.019,0.056 -0.003,0.076 L -0.168,0.23 C -0.19,0.25 -0.224,0.249 -0.244,0.228 l -0.357,-0.383 c -0.02,-0.022 -0.054,-0.023 -0.076,-0.002 l -0.103,0.096 c -0.022,0.02 -0.023,0.054 -0.003,0.076 L -0.236,0.6 c 0.02,0.021 0.054,0.022 0.076,0.002 L 0.368,0.11 C 0.39,0.089 0.391,0.055 0.371,0.033 L 0.014,-0.349 c -0.02,-0.021 -0.019,-0.056 0.003,-0.076 l 0.165,-0.154 c 0.022,-0.02 0.056,-0.019 0.076,0.003 l 0.357,0.382 c 0.02,0.022 0.054,0.023 0.076,0.003 L 0.794,-0.287 C 0.816,-0.308 0.817,-0.342 0.797,-0.364 L 0.25,-0.948 C 0.23,-0.97 0.196,-0.971 0.174,-0.951 l -0.528,0.493 c -0.022,0.02 -0.023,0.054 -0.003,0.076 L 0,0 z M 0.601,0.644 0.957,1.027 C 0.977,1.049 1.011,1.05 1.033,1.03 L 1.561,0.537 C 1.583,0.517 1.585,0.483 1.564,0.461 L 1.019,-0.125 C 0.999,-0.147 0.965,-0.148 0.943,-0.128 L 0.84,-0.032 C 0.818,-0.011 0.817,0.023 0.837,0.045 L 1.194,0.427 C 1.214,0.449 1.213,0.483 1.191,0.503 L 1.026,0.657 C 1.004,0.678 0.97,0.676 0.95,0.655 L 0.593,0.272 C 0.573,0.25 0.539,0.249 0.517,0.269 l -0.528,0.493 c -0.022,0.02 -0.023,0.054 -0.003,0.076 L 0.531,1.424 C 0.552,1.446 0.586,1.447 0.607,1.427 L 0.711,1.33 C 0.732,1.31 0.734,1.276 0.713,1.254 L 0.357,0.872 C 0.336,0.85 0.338,0.816 0.36,0.796 L 0.525,0.642 C 0.546,0.621 0.581,0.623 0.601,0.644 m -5.741,-4.229 0.491,-0.458 c 0.072,-0.067 0.09,-0.164 0.041,-0.216 -0.049,-0.053 -0.147,-0.041 -0.218,0.026 l -0.491,0.458 c -0.072,0.066 -0.091,0.164 -0.041,0.216 0.048,0.052 0.146,0.04 0.218,-0.026 m -0.123,1.248 c -0.067,-0.072 -0.166,-0.087 -0.221,-0.036 -0.055,0.052 -0.046,0.152 0.021,0.223 l 0.494,0.529 c 0.066,0.071 0.165,0.087 0.221,0.036 0.055,-0.051 0.046,-0.152 -0.021,-0.224 l -0.494,-0.528 z m 2.104,-1.781 c -0.066,-0.072 -0.165,-0.088 -0.221,-0.036 -0.055,0.051 -0.046,0.151 0.022,0.223 l 0.493,0.528 c 0.067,0.072 0.166,0.088 0.221,0.037 0.055,-0.052 0.046,-0.151 -0.021,-0.223 l -0.494,-0.529 z m -1.211,2.163 0.473,0.024 c 0.392,0.021 0.725,-0.28 0.746,-0.671 l 0.025,-0.473 c 0.02,-0.391 -0.281,-0.725 -0.672,-0.746 l -0.473,-0.025 c -0.392,-0.02 -0.725,0.28 -0.746,0.672 l -0.025,0.473 c -0.02,0.391 0.281,0.725 0.672,0.746 m -0.324,-0.54 0.044,-0.848 c 0.005,-0.091 0.082,-0.16 0.173,-0.156 l 0.849,0.045 c 0.09,0.005 0.16,0.082 0.155,0.172 l -0.045,0.849 c -0.005,0.091 -0.082,0.16 -0.172,0.155 l -0.849,-0.044 c -0.091,-0.005 -0.16,-0.082 -0.155,-0.173 m 1.159,5.129 0.109,0.051 c 0.053,0.025 0.118,0.002 0.143,-0.052 l 1.395,-2.978 2.246,2.401 C 0.399,2.099 0.467,2.102 0.51,2.061 L 0.598,1.98 C 0.641,1.939 0.644,1.871 0.603,1.827 l -2.332,-2.512 0.588,-1.255 c 0,0 0.614,0 0.572,-0.116 -0.059,-0.159 -0.34,-0.157 -0.583,-0.271 -0.211,-0.099 -0.512,-0.393 -0.55,-0.257 -0.038,0.136 0.244,0.481 0.244,0.481 l -0.528,1.141 -0.855,-0.921 c 0,0 0.162,-0.416 0.084,-0.534 -0.078,-0.117 -0.274,0.256 -0.445,0.414 -0.196,0.184 -0.463,0.269 -0.47,0.439 -0.004,0.123 0.58,-0.067 0.58,-0.067 l 0.947,1.012 -1.442,3.11 c -0.025,0.054 -0.002,0.118 0.052,0.143 m 3.651,-5.891 c 0.032,0.085 -0.01,0.18 -0.095,0.213 l -0.793,0.304 c -0.085,0.032 -0.179,-0.009 -0.212,-0.094 l -0.305,-0.794 c -0.032,-0.084 0.01,-0.179 0.095,-0.212 l 0.793,-0.304 c 0.085,-0.033 0.18,0.009 0.212,0.094 l 0.305,0.793 z m -0.142,0.614 C 0.34,-2.784 0.523,-3.194 0.382,-3.56 l -0.17,-0.443 c -0.14,-0.365 -0.55,-0.548 -0.917,-0.408 l -0.441,0.17 c -0.366,0.141 -0.549,0.551 -0.409,0.917 l 0.17,0.442 c 0.14,0.366 0.551,0.549 0.917,0.408 l 0.442,-0.169 z m -1.82,-1.683 -0.306,0.655 c -0.042,0.09 -0.02,0.187 0.048,0.219 0.069,0.032 0.158,-0.014 0.2,-0.103 l 0.305,-0.654 c 0.042,-0.09 0.02,-0.188 -0.048,-0.22 -0.069,-0.032 -0.158,0.014 -0.199,0.103 m 2.551,1.044 -0.306,0.655 C 0.357,-2.538 0.38,-2.44 0.448,-2.408 0.517,-2.376 0.606,-2.422 0.647,-2.511 L 0.953,-3.166 C 0.995,-3.255 0.973,-3.353 0.904,-3.385 0.836,-3.417 0.747,-3.371 0.705,-3.282 M 0.203,-4.432 C 0.292,-4.39 0.388,-4.409 0.418,-4.474 0.449,-4.539 0.401,-4.626 0.312,-4.667 l -0.608,-0.284 c -0.089,-0.041 -0.185,-0.023 -0.216,0.043 -0.03,0.065 0.017,0.151 0.106,0.193 l 0.609,0.283 z M -3.95,1.365 c 0.012,-0.027 0.044,-0.039 0.071,-0.026 l 0.205,0.095 c 0.027,0.013 0.039,0.045 0.026,0.072 L -3.869,1.98 c -0.012,0.027 -10e-4,0.059 0.026,0.072 l 0.128,0.059 c 0.027,0.013 0.059,10e-4 0.072,-0.026 L -3.306,1.36 C -3.293,1.333 -3.305,1.3 -3.332,1.288 L -3.987,0.983 C -4.013,0.97 -4.046,0.982 -4.058,1.009 L -4.279,1.483 C -4.291,1.51 -4.323,1.521 -4.35,1.509 L -4.555,1.413 C -4.582,1.401 -4.594,1.369 -4.581,1.342 L -4.36,0.868 C -4.348,0.841 -4.359,0.809 -4.386,0.796 L -4.514,0.737 C -4.541,0.724 -4.573,0.736 -4.586,0.763 l -0.337,0.725 c -0.013,0.027 -0.001,0.059 0.026,0.072 l 0.655,0.305 c 0.027,0.013 0.059,0.001 0.071,-0.026 L -3.95,1.365 z M -3.578,0.567 -3.357,0.093 C -3.344,0.066 -3.356,0.034 -3.383,0.021 l -0.654,-0.305 c -0.027,-0.013 -0.059,-0.001 -0.072,0.026 l -0.339,0.725 c -0.013,0.027 -10e-4,0.059 0.026,0.072 l 0.128,0.059 c 0.027,0.013 0.059,0.001 0.072,-0.026 L -4.001,0.098 C -3.989,0.071 -3.957,0.06 -3.93,0.072 l 0.205,0.096 c 0.027,0.012 0.039,0.044 0.026,0.071 L -3.92,0.713 C -3.933,0.74 -3.921,0.772 -3.894,0.785 L -3.24,1.09 c 0.027,0.013 0.059,10e-4 0.072,-0.026 L -2.829,0.339 C -2.816,0.312 -2.828,0.28 -2.855,0.267 L -2.983,0.208 C -3.01,0.195 -3.042,0.207 -3.055,0.234 L -3.276,0.708 C -3.288,0.735 -3.32,0.746 -3.347,0.734 L -3.552,0.638 C -3.579,0.626 -3.59,0.594 -3.578,0.567"
             id="path20706"
             style="fill:#ffffff;fill-opacity:1;fill-rule:nonzero;stroke:none" />
        </g>
      </g>
    </g>
  </g>
</svg>
