<svg xmlns="http://www.w3.org/2000/svg" id="Layer_1" viewBox="0 0 480 480"><style>.st1,.st2{fill:#13d389}.st2{opacity:.5}</style><path fill="#13d389" d="M138.2 398.4h203.7c0-101.6-101.8-135.8-101.8-135.8s-101.9 34.9-101.9 135.8z" opacity=".25"/><path d="M353.2 92.1v42.2c0 41.2-26 78.8-66.2 96l-22.5 9.6 22.5 9.6c40.2 17.2 66.2 54.8 66.2 96v42.2H126.8v-42.2c0-41.2 26-78.8 66.2-96l22.5-9.6-22.5-9.6c-40.2-17.2-66.2-54.8-66.2-96V92.1h226.4m11.3-10.5h-249v52.8c0 46.9 29.9 87.3 72.8 105.6-43 18.3-72.8 58.7-72.8 105.6v52.8h248.9v-52.8c0-46.9-29.9-87.3-72.8-105.6 43-18.3 72.8-58.7 72.8-105.6V81.6z" class="st1"/><path d="M121.2 87.2V64.6h-34V30.7h305.5v33.9h-33.9v22.6H121.2z" class="st2"/><path d="M387.1 36.3v22.6h-33.9v22.6H126.8V58.9H92.9V36.3h294.2M398.4 25H81.6v45.3h33.9v22.6h248.9V70.3h33.9V25z" class="st1"/><path d="M87.2 449.3v-33.9h33.9v-22.6h237.6v22.6h33.9v33.9H87.2z" class="st2"/><path d="M353.2 398.4V421h33.9v22.6H92.9V421h33.9v-22.6h226.4m11.3-11.3h-249v22.6H81.6V455h316.8v-45.3h-33.9v-22.6z" class="st1"/></svg>