<svg xmlns="http://www.w3.org/2000/svg" viewBox="0 0 480 480"><path fill="#ffeecf" d="M374.2 35.8h81.7v408.3h-81.7V35.8z"/><path fill="#ffae10" d="M450 41.7v396.7h-70V41.7h70M461.7 30h-93.3v420h93.3V30z"/><path fill="#ffeecf" d="M257.5 199.2h81.7v245h-81.7v-245z" opacity=".75"/><path fill="#ffae10" d="M333.3 205v233.3h-70V205h70m11.7-11.7h-93.3V450H345V193.3z" opacity=".75"/><path fill="#ffeecf" d="M140.8 280.8h81.7v163.3h-81.7V280.8z" opacity=".5"/><path fill="#ffae10" d="M216.7 286.7v151.7h-70V286.7h70m11.6-11.7H135v175h93.3V275z" opacity=".5"/><path fill="#ffeecf" d="M24.2 350.8h81.7v93.3H24.2v-93.3z" opacity=".25"/><path fill="#ffae10" d="M100 356.7v81.7H30v-81.7h70m11.7-11.7H18.3v105h93.3V345z" opacity=".25"/><path fill="#f1c40f" d="M203.6 87.7l-128.9 129c-4.6 4.6-11.9 4.6-16.5 0s-4.6-11.9 0-16.5l128.9-129L145.9 30h99v99l-41.3-41.3z"/></svg>