<svg xmlns="http://www.w3.org/2000/svg" id="Layer_1" viewBox="0 0 480 480"><style>.st1{fill:#6f93b7}</style><path fill="#a8bed3" d="M55 444.2c-4.9 0-9.4-1.9-12.9-5.4-3.4-3.4-5.3-8.1-5.3-13s1.9-9.5 5.3-13l165.8-159.7 18 18.3L67.7 438.9c-3.3 3.4-7.9 5.3-12.7 5.3z"/><path d="M208.9 260.2l11.9 11.9-157 164.7c-2.6 2.6-6.1 4-9.8 4-3.7 0-7.2-1.4-9.8-4-5.4-5.4-5.4-14.2-.1-19.4l164.8-157.2m.2-12.9L37.7 410.7c-9 9-9 23.6 0 32.6 4.5 4.5 10.4 6.7 16.3 6.7s11.8-2.2 16.3-6.7L233.7 272l-24.6-24.7z" class="st1"/><path fill="#e2e9f0" d="M311.3 300.2c-73 0-132.4-59.4-132.4-132.4S238.2 35.3 311.3 35.3s132.4 59.4 132.4 132.4-59.4 132.5-132.4 132.5z"/><path d="M311.3 40.6c70.1 0 127.1 57 127.1 127.1s-57 127.1-127.1 127.1-127.1-57-127.1-127.1 57-127.1 127.1-127.1m0-10.6c-76.1 0-137.7 61.7-137.7 137.7s61.7 137.7 137.7 137.7S449 243.8 449 167.7 387.4 30 311.3 30z" class="st1"/></svg>