<svg xmlns="http://www.w3.org/2000/svg" xmlns:xlink="http://www.w3.org/1999/xlink" id="Layer_1" viewBox="0 0 400 400"><style>.st0{fill:#8c8c8c}.st1{fill:#7d7d7d}.st2{fill:#9b9b9b}.st3{fill:#b0b0b0}.st4{fill:#c9c9c9}.st5{fill:#e1e1e1}.st7{fill:#ef3b29}.st9{fill:#ab5e5f}.st11{fill:#71943d}.st13{fill:#249e56}.st14{fill:#81ccf1}.st15{fill:#57addd}.st16{fill:#478fb6}.st19{fill:#c59f2d}.st21{fill:#fff}.st22{fill:#b4b4b4}.st24{fill:#a3a3a2}.st31{fill:#b2b2b2}.st33{fill:#595a5a}.st47{fill:#f0f7fc}.st48{fill:#cfcfce}.st54{fill:#f5f6f6}.st59{fill:#37375a}.st95{fill:#37bae6}.st96{fill:#14afe6}.st97{fill:#0fa8e1}</style><path d="M293.3 175.4v11c0 6.7 6.9 12.5 16.8 15.2 1.1.3 2.2.6 3.3.8.4.1.9.2 1.3.2.3.1.7.1 1 .2.4.1.7.1 1.1.2.9.1 1.9.2 2.9.3.4 0 .8.1 1.3.1h4.4c.4 0 .8 0 1.2-.1 1-.1 1.9-.1 2.9-.3.4 0 .8-.1 1.2-.2.3 0 .7-.1 1-.2.5-.1.9-.2 1.3-.2 1.1-.2 2.3-.5 3.4-.8.6-.2 1.1-.3 1.7-.5 1.1-.3 2.1-.7 3-1.1.3-.1.7-.3 1-.4.8-.4 1.6-.8 2.3-1.2.3-.2.7-.4 1-.6 1-.6 1.9-1.3 2.8-2 .2-.2.5-.4.7-.6l1.4-1.4c.4-.5.8-.9 1.1-1.4.2-.4.5-.7.7-1.1.2-.4.4-.8.5-1.2 0 0 .1-.1.1-.2.1-.2.1-.4.2-.6 0 0 .1-.2.1-.3.2-.8.3-1.6.3-2.5v-11c0-5.7-5-10.8-12.7-13.8-.9-.4-1.8-.7-2.8-1-.4-.2-.9-.3-1.3-.4-4-1.1-8.5-1.7-13.2-1.7s-9.2.6-13.2 1.7c-9.9 2.6-16.8 8.4-16.8 15.1z" class="st0"/><path d="M310.2 160.2c.2 0 .3 0 .5-.1v41.7c-.2-.1-.3-.1-.5-.1-10-2.8-16.8-8.6-16.8-15.2v-11c-.1-6.8 6.8-12.6 16.8-15.3z" class="st1"/><path d="M328 159.1c3 .3 6 .4 8.6 1.1.4.1.9.3 1.3.4 1 .3 1.9.6 2.8 1 7.7 3 12.7 8.1 12.7 13.8v11c0 .8-.1 1.7-.3 2.5 0 .1-.1.2-.1.2-.1.3-.2.5-.2.7 0 .1-.1.2-.1.2-.2.4-.3.8-.6 1.2-.2.4-.4.7-.7 1.1-.3.5-.7 1-1.1 1.4-.4.5-.9 1-1.4 1.4-.2.2-.4.4-.7.6-.8.7-1.8 1.4-2.8 2-.3.2-.7.4-1 .6-.7.4-1.5.8-2.3 1.2-.3.2-.7.3-1 .4-1 .4-2 .8-3 1.1-.6.2-1.1.4-1.7.5-1.1.3-2.2.6-3.4.8-.5.1-.9.2-1.3.2-.3.1-.7.1-1 .2-.4.1-.8.1-1.2.2-.6.1-1.1.1-1.7.2v-44z" class="st2"/><path d="M344.2 163.8c5.4 3.1 9.2 7 9.2 11.6v11c0 .8-.1 1.7-.3 2.5 0 .1-.1.2-.1.2-.1.3-.2.5-.2.7 0 .1-.1.2-.1.2-.2.4-.3.8-.6 1.2-.2.4-.4.7-.7 1.1-.3.5-.7 1-1.1 1.4-.4.5-.9 1-1.4 1.4-.2.2-.4.4-.7.6-.8.7-1.8 1.4-2.8 2-.3.2-.7.4-1 .6-.1.1-.3.1-.4.2v-34.7z" class="st3"/><ellipse cx="323.6" cy="173.9" class="st4" rx="30.1" ry="17"/><path d="M293.3 160.1v11c0 6.7 6.9 12.5 16.8 15.2 1.1.3 2.2.6 3.3.8.4.1.9.2 1.3.2.3.1.7.1 1 .2.4.1.7.1 1.1.2.9.1 1.9.2 2.9.3.4 0 .8.1 1.3.1h4.4c.4 0 .8 0 1.2-.1 1-.1 1.9-.1 2.9-.3.4 0 .8-.1 1.2-.2.3 0 .7-.1 1-.2.5-.1.9-.2 1.3-.2 1.1-.2 2.3-.5 3.4-.8.6-.2 1.1-.3 1.7-.5 1.1-.3 2.1-.7 3-1.1.3-.1.7-.3 1-.4.8-.4 1.6-.8 2.3-1.2.3-.2.7-.4 1-.6 1-.6 1.9-1.3 2.8-2 .2-.2.5-.4.7-.6l1.4-1.4c.4-.5.8-.9 1.1-1.4.2-.4.5-.7.7-1.1.2-.4.4-.8.5-1.2 0 0 .1-.1.1-.2.1-.2.1-.4.2-.6 0 0 .1-.2.1-.3.2-.8.3-1.6.3-2.5v-11c0-5.7-5-10.8-12.7-13.8-.9-.4-1.8-.7-2.8-1-.4-.2-.9-.3-1.3-.4-4-1.1-8.5-1.7-13.2-1.7s-9.2.6-13.2 1.7c-9.9 2.7-16.8 8.4-16.8 15.1z" class="st0"/><path d="M310.2 144.9c.2 0 .3 0 .5-.1v41.7c-.2-.1-.3-.1-.5-.1-10-2.8-16.8-8.6-16.8-15.2v-11c-.1-6.8 6.8-12.5 16.8-15.3z" class="st1"/><path d="M328 143.8c3 .3 6 .4 8.6 1.1.4.1.9.3 1.3.4 1 .3 1.9.6 2.8 1 7.7 3 12.7 8.1 12.7 13.8v11c0 .8-.1 1.7-.3 2.5 0 .1-.1.2-.1.2-.1.3-.2.5-.2.7 0 .1-.1.2-.1.2-.2.4-.3.8-.6 1.2-.2.4-.4.7-.7 1.1-.3.5-.7 1-1.1 1.4-.4.5-.9 1-1.4 1.4-.2.2-.4.4-.7.6-.8.7-1.8 1.4-2.8 2-.3.2-.7.4-1 .6-.7.4-1.5.8-2.3 1.2-.3.2-.7.3-1 .4-1 .4-2 .8-3 1.1-.6.2-1.1.4-1.7.5-1.1.3-2.2.6-3.4.8-.5.1-.9.2-1.3.2-.3.1-.7.1-1 .2-.4.1-.8.1-1.2.2-.6.1-1.1.1-1.7.2v-44z" class="st2"/><path d="M344.2 148.5c5.4 3.1 9.2 7 9.2 11.6v11c0 .8-.1 1.7-.3 2.5 0 .1-.1.2-.1.2-.1.3-.2.5-.2.7 0 .1-.1.2-.1.2-.2.4-.3.8-.6 1.2-.2.4-.4.7-.7 1.1-.3.5-.7 1-1.1 1.4-.4.5-.9 1-1.4 1.4-.2.2-.4.4-.7.6-.8.7-1.8 1.4-2.8 2-.3.2-.7.4-1 .6-.1.1-.3.1-.4.2v-34.7z" class="st3"/><ellipse cx="323.6" cy="158.6" class="st4" rx="30.1" ry="17"/><path d="M293.3 144.9v11c0 6.7 6.9 12.5 16.8 15.2 1.1.3 2.2.6 3.3.8.4.1.9.2 1.3.2.3.1.7.1 1 .2.4.1.7.1 1.1.2.9.1 1.9.2 2.9.3.4 0 .8.1 1.3.1h4.4c.4 0 .8 0 1.2-.1 1-.1 1.9-.1 2.9-.3.4 0 .8-.1 1.2-.2.3 0 .7-.1 1-.2.5-.1.9-.2 1.3-.2 1.1-.2 2.3-.5 3.4-.8.6-.2 1.1-.3 1.7-.5 1.1-.3 2.1-.7 3-1.1.3-.1.7-.3 1-.4.8-.4 1.6-.8 2.3-1.2.3-.2.7-.4 1-.6 1-.6 1.9-1.3 2.8-2 .2-.2.5-.4.7-.6l1.4-1.4c.4-.5.8-.9 1.1-1.4.2-.4.5-.7.7-1.1.2-.4.4-.8.5-1.2 0 0 .1-.1.1-.2.1-.2.1-.4.2-.6 0 0 .1-.2.1-.3.2-.8.3-1.6.3-2.5v-11c0-5.7-5-10.8-12.7-13.8-.9-.4-1.8-.7-2.8-1-.4-.2-.9-.3-1.3-.4-4-1.1-8.5-1.7-13.2-1.7s-9.2.6-13.2 1.7c-9.9 2.6-16.8 8.4-16.8 15.1z" class="st0"/><path d="M310.2 129.6c.2 0 .3 0 .5-.1v41.7c-.2-.1-.3-.1-.5-.1-10-2.8-16.8-8.6-16.8-15.2v-11c-.1-6.7 6.8-12.5 16.8-15.3z" class="st1"/><path d="M328 128.5c3 .3 6 .4 8.6 1.1.4.1.9.3 1.3.4 1 .3 1.9.6 2.8 1 7.7 3 12.7 8.1 12.7 13.8v11c0 .8-.1 1.7-.3 2.5 0 .1-.1.2-.1.2-.1.3-.2.5-.2.7 0 .1-.1.2-.1.2-.2.4-.3.8-.6 1.2-.2.4-.4.7-.7 1.1-.3.5-.7 1-1.1 1.4-.4.5-.9 1-1.4 1.4-.2.2-.4.4-.7.6-.8.7-1.8 1.4-2.8 2-.3.2-.7.4-1 .6-.7.4-1.5.8-2.3 1.2-.3.2-.7.3-1 .4-1 .4-2 .8-3 1.1-.6.2-1.1.4-1.7.5-1.1.3-2.2.6-3.4.8-.5.1-.9.2-1.3.2-.3.1-.7.1-1 .2-.4.1-.8.1-1.2.2-.6.1-1.1.1-1.7.2v-44z" class="st2"/><path d="M344.2 133.2c5.4 3.1 9.2 7 9.2 11.6v11c0 .8-.1 1.7-.3 2.5 0 .1-.1.2-.1.2-.1.3-.2.5-.2.7 0 .1-.1.2-.1.2-.2.4-.3.8-.6 1.2-.2.4-.4.7-.7 1.1-.3.5-.7 1-1.1 1.4-.4.5-.9 1-1.4 1.4-.2.2-.4.4-.7.6-.8.7-1.8 1.4-2.8 2-.3.2-.7.4-1 .6-.1.1-.3.1-.4.2v-34.7z" class="st3"/><ellipse cx="323.6" cy="143.3" class="st5" rx="30.1" ry="17"/><path fill="#32a2dc" d="M302.3 142.5c0-6.6 9.5-12 21.3-12s21.3 5.4 21.3 12-9.5 12-21.3 12-21.3-5.4-21.3-12z"/><path d="M323.6 151.7c-10.9 0-18.4-4.8-18.4-9.2 0-4.3 7.6-9.2 18.4-9.2 10.9 0 18.4 4.8 18.4 9.2 0 4.3-7.5 9.2-18.4 9.2z" class="st5"/><g><path d="M45.6 175.4v11c0 6.7 6.9 12.5 16.8 15.2 1.1.3 2.2.6 3.3.8.4.1.9.2 1.3.2.3.1.7.1 1 .2.4.1.7.1 1.1.2.9.1 1.9.2 2.9.3.4 0 .8.1 1.3.1h4.4c.4 0 .8 0 1.2-.1 1-.1 1.9-.1 2.9-.3.4 0 .8-.1 1.2-.2.3 0 .7-.1 1-.2.5-.1.9-.2 1.3-.2 1.1-.2 2.3-.5 3.4-.8.6-.2 1.1-.3 1.7-.5 1.1-.3 2.1-.7 3-1.1.3-.1.7-.3 1-.4.8-.4 1.6-.8 2.3-1.2.3-.2.7-.4 1-.6 1-.6 1.9-1.3 2.8-2 .2-.2.5-.4.7-.6l1.4-1.4c.4-.5.8-.9 1.1-1.4.2-.4.5-.7.7-1.1.2-.4.4-.8.5-1.2 0 0 .1-.1.1-.2.1-.2.1-.4.2-.6 0 0 .1-.2.1-.3.2-.8.3-1.6.3-2.5v-11c0-5.7-5-10.8-12.7-13.8-.9-.4-1.8-.7-2.8-1-.4-.2-.9-.3-1.3-.4-4-1.1-8.5-1.7-13.2-1.7-4.8 0-9.2.6-13.2 1.7-9.9 2.6-16.8 8.4-16.8 15.1z" class="st0"/><path d="M62.5 160.1c.2 0 .3 0 .5-.1v41.7c-.2-.1-.3-.1-.5-.1-10-2.8-16.8-8.6-16.8-15.2v-11c-.1-6.7 6.8-12.5 16.8-15.3z" class="st1"/><path d="M80.3 159c3 .3 6 .4 8.6 1.1.4.1.9.3 1.3.4 1 .3 1.9.6 2.8 1 7.7 3 12.7 8.1 12.7 13.8v11c0 .8-.1 1.7-.3 2.5 0 .1-.1.2-.1.2-.1.3-.2.5-.2.7 0 .1-.1.2-.1.2-.2.4-.3.8-.6 1.2-.2.4-.4.7-.7 1.1-.3.5-.7 1-1.1 1.4-.4.5-.9 1-1.4 1.4-.2.2-.4.4-.7.6-.8.7-1.8 1.4-2.8 2-.3.2-.7.4-1 .6-.7.4-1.5.8-2.3 1.2-.3.2-.7.3-1 .4-1 .4-2 .8-3 1.1-.6.2-1.1.4-1.7.5-1.1.3-2.2.6-3.4.8-.5.1-.9.2-1.3.2-.3.1-.7.1-1 .2-.4.1-.8.1-1.2.2-.6.1-1.1.1-1.7.2v-44z" class="st2"/><path d="M96.5 163.8c5.4 3.1 9.2 7 9.2 11.6v11c0 .8-.1 1.7-.3 2.5 0 .1-.1.2-.1.2-.1.3-.2.5-.2.7 0 .1-.1.2-.1.2-.2.4-.3.8-.6 1.2-.2.4-.4.7-.7 1.1-.3.5-.7 1-1.1 1.4-.4.5-.9 1-1.4 1.4-.2.2-.4.4-.7.6-.8.7-1.8 1.4-2.8 2-.3.2-.7.4-1 .6-.1.1-.3.1-.4.2v-34.7z" class="st3"/><ellipse cx="75.9" cy="173.8" class="st4" rx="30.1" ry="17"/><path d="M45.6 160.1v11c0 6.7 6.9 12.5 16.8 15.2 1.1.3 2.2.6 3.3.8.4.1.9.2 1.3.2.3.1.7.1 1 .2.4.1.7.1 1.1.2.9.1 1.9.2 2.9.3.4 0 .8.1 1.3.1h4.4c.4 0 .8 0 1.2-.1 1-.1 1.9-.1 2.9-.3.4 0 .8-.1 1.2-.2.3 0 .7-.1 1-.2.5-.1.9-.2 1.3-.2 1.1-.2 2.3-.5 3.4-.8.6-.2 1.1-.3 1.7-.5 1.1-.3 2.1-.7 3-1.1.3-.1.7-.3 1-.4.8-.4 1.6-.8 2.3-1.2.3-.2.7-.4 1-.6 1-.6 1.9-1.3 2.8-2 .2-.2.5-.4.7-.6l1.4-1.4c.4-.5.8-.9 1.1-1.4.2-.4.5-.7.7-1.1.2-.4.4-.8.5-1.2 0 0 .1-.1.1-.2.1-.2.1-.4.2-.6 0 0 .1-.2.1-.3.2-.8.3-1.6.3-2.5v-11c0-5.7-5-10.8-12.7-13.8-.9-.4-1.8-.7-2.8-1-.4-.2-.9-.3-1.3-.4-4-1.1-8.5-1.7-13.2-1.7-4.8 0-9.2.6-13.2 1.7-9.9 2.6-16.8 8.4-16.8 15.1z" class="st0"/><path d="M62.5 144.9c.2 0 .3 0 .5-.1v41.7c-.2-.1-.3-.1-.5-.1-10-2.8-16.8-8.6-16.8-15.2v-11c-.1-6.8 6.8-12.6 16.8-15.3z" class="st1"/><path d="M80.3 143.8c3 .3 6 .4 8.6 1.1.4.1.9.3 1.3.4 1 .3 1.9.6 2.8 1 7.7 3 12.7 8.1 12.7 13.8v11c0 .8-.1 1.7-.3 2.5 0 .1-.1.2-.1.2-.1.3-.2.5-.2.7 0 .1-.1.2-.1.2-.2.4-.3.8-.6 1.2-.2.4-.4.7-.7 1.1-.3.5-.7 1-1.1 1.4-.4.5-.9 1-1.4 1.4-.2.2-.4.4-.7.6-.8.7-1.8 1.4-2.8 2-.3.2-.7.4-1 .6-.7.4-1.5.8-2.3 1.2-.3.2-.7.3-1 .4-1 .4-2 .8-3 1.1-.6.2-1.1.4-1.7.5-1.1.3-2.2.6-3.4.8-.5.1-.9.2-1.3.2-.3.1-.7.1-1 .2-.4.1-.8.1-1.2.2-.6.1-1.1.1-1.7.2v-44z" class="st2"/><path d="M96.5 148.5c5.4 3.1 9.2 7 9.2 11.6v11c0 .8-.1 1.7-.3 2.5 0 .1-.1.2-.1.2-.1.3-.2.5-.2.7 0 .1-.1.2-.1.2-.2.4-.3.8-.6 1.2-.2.4-.4.7-.7 1.1-.3.5-.7 1-1.1 1.4-.4.5-.9 1-1.4 1.4-.2.2-.4.4-.7.6-.8.7-1.8 1.4-2.8 2-.3.2-.7.4-1 .6-.1.1-.3.1-.4.2v-34.7z" class="st3"/><ellipse cx="75.9" cy="158.6" class="st4" rx="30.1" ry="17"/><g><path d="M45.6 144.8v11c0 6.7 6.9 12.5 16.8 15.2 1.1.3 2.2.6 3.3.8.4.1.9.2 1.3.2.3.1.7.1 1 .2.4.1.7.1 1.1.2.9.1 1.9.2 2.9.3.4 0 .8.1 1.3.1h4.4c.4 0 .8 0 1.2-.1 1-.1 1.9-.1 2.9-.3.4 0 .8-.1 1.2-.2.3 0 .7-.1 1-.2.5-.1.9-.2 1.3-.2 1.1-.2 2.3-.5 3.4-.8.6-.2 1.1-.3 1.7-.5 1.1-.3 2.1-.7 3-1.1.3-.1.7-.3 1-.4.8-.4 1.6-.8 2.3-1.2.3-.2.7-.4 1-.6 1-.6 1.9-1.3 2.8-2 .2-.2.5-.4.7-.6l1.4-1.4c.4-.5.8-.9 1.1-1.4.2-.4.5-.7.7-1.1.2-.4.4-.8.5-1.2 0 0 .1-.1.1-.2.1-.2.1-.4.2-.6 0 0 .1-.2.1-.3.2-.8.3-1.6.3-2.5v-11c0-5.7-5-10.8-12.7-13.8-.9-.4-1.8-.7-2.8-1-.4-.2-.9-.3-1.3-.4-4-1.1-8.5-1.7-13.2-1.7-4.8 0-9.2.6-13.2 1.7-9.9 2.7-16.8 8.4-16.8 15.1z" class="st0"/><path d="M62.5 129.6c.2 0 .3 0 .5-.1v41.7c-.2-.1-.3-.1-.5-.1-10-2.8-16.8-8.6-16.8-15.2v-11c-.1-6.8 6.8-12.5 16.8-15.3z" class="st1"/><path d="M80.3 128.5c3 .3 6 .4 8.6 1.1.4.1.9.3 1.3.4 1 .3 1.9.6 2.8 1 7.7 3 12.7 8.1 12.7 13.8v11c0 .8-.1 1.7-.3 2.5 0 .1-.1.2-.1.2-.1.3-.2.5-.2.7 0 .1-.1.2-.1.2-.2.4-.3.8-.6 1.2-.2.4-.4.7-.7 1.1-.3.5-.7 1-1.1 1.4-.4.5-.9 1-1.4 1.4-.2.2-.4.4-.7.6-.8.7-1.8 1.4-2.8 2-.3.2-.7.4-1 .6-.7.4-1.5.8-2.3 1.2-.3.2-.7.3-1 .4-1 .4-2 .8-3 1.1-.6.2-1.1.4-1.7.5-1.1.3-2.2.6-3.4.8-.5.1-.9.2-1.3.2-.3.1-.7.1-1 .2-.4.1-.8.1-1.2.2-.6.1-1.1.1-1.7.2v-44z" class="st2"/><path d="M96.5 133.2c5.4 3.1 9.2 7 9.2 11.6v11c0 .8-.1 1.7-.3 2.5 0 .1-.1.2-.1.2-.1.3-.2.5-.2.7 0 .1-.1.2-.1.2-.2.4-.3.8-.6 1.2-.2.4-.4.7-.7 1.1-.3.5-.7 1-1.1 1.4-.4.5-.9 1-1.4 1.4-.2.2-.4.4-.7.6-.8.7-1.8 1.4-2.8 2-.3.2-.7.4-1 .6-.1.1-.3.1-.4.2v-34.7z" class="st3"/></g><ellipse cx="75.9" cy="143.3" class="st5" rx="30.1" ry="17"/><path d="M54.6 142.5c0-6.6 9.5-12 21.3-12s21.3 5.4 21.3 12-9.5 12-21.3 12-21.3-5.4-21.3-12z" class="st7"/><path d="M75.9 151.6c-10.9 0-18.4-4.8-18.4-9.2 0-4.3 7.6-9.2 18.4-9.2 10.9 0 18.4 4.8 18.4 9.2 0 4.4-7.5 9.2-18.4 9.2z" class="st5"/></g><g><path fill="#dd7676" d="M67.6 245.7l-13.2 7.6v-15.6l4.4-9.2 8.8-5.1z"/><path d="M54.4 237.7l4.4-9.2v6.7zM55.5 240v-.3l7.5-4.3v.3zM55.5 238.5v-.2L63 234v.2zM55.5 241.1l7.5-4.3v.3l-7.5 4.3z" class="st9"/><g><path d="M55.5 244.5v-.2L63 240v.2zM55.5 243.1v-.3l7.5-4.3v.3zM55.5 245.7l7.5-4.3v.3l-7.5 4.3z" class="st9"/></g><g><path d="M55.5 249.1v-.3l7.5-4.3v.3zM55.5 247.7v-.3l7.5-4.3v.3zM55.5 250.3L63 246v.2l-7.5 4.3z" class="st9"/></g><g><path fill="#a2ce4c" d="M79.4 249.1l-16.5 9.5v-19.5l5.5-11.5 11-6.4z"/><path d="M62.9 239.1l5.5-11.5v8.3zM64.4 241.9v-.3l9.3-5.4v.4zM64.4 240.1v-.3l9.3-5.4v.4zM64.4 243.4l9.3-5.4v.3l-9.3 5.4z" class="st11"/><g><path d="M64.4 247.6v-.3l9.3-5.4v.4zM64.4 245.8v-.3l9.3-5.4v.4zM64.4 249.1l9.3-5.4v.3l-9.3 5.4z" class="st11"/></g><g><path d="M64.4 253.3v-.3l9.3-5.4v.4zM64.4 251.5v-.3l9.3-5.4v.4zM64.4 254.8l9.3-5.4v.3l-9.3 5.4z" class="st11"/></g></g><g><path fill="#6dc38b" d="M92.2 252l-19.6 11.3v-23.2l6.5-13.6 13.1-7.6z"/><path d="M72.6 240.1l6.5-13.6v9.9zM86.6 234.4l4.2-2.4v4.7l-4.2 2.4zM86.6 247.7l4.2-2.4v4.7l-4.2 2.4zM74.3 243.5v-.4l11.1-6.4v.4zM74.3 241.4v-.4l11.1-6.4v.4zM74.3 245.2l11.1-6.3v.4l-11.1 6.3z" class="st13"/><g><path d="M74.3 250.3v-.4l11.1-6.4v.4zM74.3 248.2v-.4l11.1-6.4v.4zM74.3 252l11.1-6.4v.4l-11.1 6.4z" class="st13"/></g><g><path d="M74.3 257.1v-.4l11.1-6.4v.4zM74.3 254.9v-.4l11.1-6.3v.4zM74.3 258.8l11.1-6.4v.4l-11.1 6.4z" class="st13"/></g></g></g><g><path d="M297.2 187.8l-57 33.2 2 3.5 2.2 3.8 57-33.2c1.1-.7 1.1-2.8 0-4.8-1.2-2-3-3.1-4.2-2.5z" class="st14"/><path d="M301.4 190.3l-59.2 34.2 2.2 3.8 57-33.2c1.2-.7 1.1-2.8 0-4.8z" class="st15"/><path d="M240.2 221c-1.1.7-1.1 2.8 0 4.8 1.2 2 3 3.1 4.1 2.4 1.1-.7 1.1-2.8 0-4.8-1.1-1.9-3-3-4.1-2.4z" class="st16"/></g><g><path d="M102.5 187.6l66 38.8-2 3.5-2.2 3.8-66-38.8c-1.1-.7-1.1-2.8 0-4.8 1.2-2 3-3.1 4.2-2.5z" class="st14"/><path d="M98.3 190.1l68.2 39.8-2.2 3.8-66-38.8c-1.2-.7-1.2-2.8 0-4.8z" class="st15"/><path d="M168.5 226.4c1.1.7 1.1 2.8 0 4.8-1.2 2-3 3.1-4.1 2.4-1.1-.7-1.1-2.8 0-4.8 1.1-1.9 2.9-3 4.1-2.4z" class="st16"/></g><g><path fill="#c0902d" d="M336.2 219.5l-18.1 41.2-1.6-.9v-21.5l6.1-12.7 12.1-7z"/><path fill="#b1812c" d="M318.1 239.2v21.5l-1.6-.9v-21.5z"/><path d="M336.2 250.2l-18.1 10.5v-21.5l6-12.7 12.1-7z" class="st19"/><path fill="#b68b2d" d="M318.1 239.2l-1.6-.9 6.1-12.7 1.5.9v9.2z"/><path d="M331 233.9l3.9-2.3v4.4l-3.9 2.3zM331 246.2l3.9-2.3v4.4l-3.9 2.3zM319.7 242.3v-.4l10.2-5.9v.4zM319.7 240.4v-.4l10.2-5.9v.3zM319.7 243.9l10.2-5.9v.4l-10.2 5.9z" class="st21"/><g><path d="M319.7 248.6v-.4l10.2-5.9v.4zM319.7 246.6v-.3l10.2-5.9v.3zM319.7 250.2l10.2-5.9v.4l-10.2 5.9z" class="st21"/></g><g><path d="M319.7 254.9v-.4l10.2-5.9v.4zM319.7 252.9v-.4l10.2-5.9v.4zM319.7 256.5l10.2-5.9v.3l-10.2 6z" class="st21"/></g><g><path d="M326.1 227.3c-.9-.6-2.6-1.1-3.7-.9-1.8.3-3.8 1.5-5.7 3.3-.9.8-1.7 1.8-2.4 2.9-.7 1-1.2 2-1.7 3-1 2.1-1.4 4.2-1.4 6 0 1.9.6 3.4 1.7 4.3l.1.1 2.2 1.3 1.1-1.6c.4-.1.7-.3 1.1-.5 1.6-.8 3.3-2.2 4.8-4 .4-.4.7-.9 1-1.4 1.1-1.6 1.9-3.3 2.5-4.9.5-1.6.7-3.1.7-4.5l.8-1.2.6-.9-1.7-1z" class="st22"/><path fill="#bdbdbd" d="M327.1 229.2l-4.7-2.7c-1.8.3-3.8 1.5-5.7 3.3l8.9 5.2c.5-1.6.7-3.1.7-4.5l.8-1.3z"/><path d="M325.6 234.9l-8.9-5.2c-.9.8-1.7 1.8-2.4 2.9-.7 1-1.2 2-1.7 3l9.6 5.5c.4-.4.7-.9 1-1.4 1-1.5 1.9-3.2 2.4-4.8z" class="st22"/><path d="M322.1 241.2l-9.6-5.5c-1 2.1-1.4 4.2-1.4 6l6.3 3.6c1.6-.9 3.2-2.3 4.7-4.1z" class="st24"/><path fill="#858585" d="M317.3 245.2l-6.2-3.6c0 1.9.6 3.4 1.7 4.3l.1.1 2.6 1.5.7-1.9c.4 0 .8-.2 1.1-.4z"/><ellipse cx="321.6" cy="237.9" fill="#cbd0d5" rx="11.4" ry="6.3" transform="matrix(.5402 -.8416 .8416 .5402 -52.3449 380.0295)"/><path d="M317.3 234.6c-3.2 4.7-3.8 10-1.3 12 2.5 1.9 7.1-.3 10.3-4.9 3.2-4.7 3.8-10 1.3-12s-7.1.2-10.3 4.9z" class="st24"/><path fill="#a2bccc" d="M317.8 234.9c-2.9 4.3-3.5 9.2-1.2 11s6.5-.2 9.5-4.5c2.9-4.3 3.5-9.2 1.2-11-2.4-1.9-6.6.2-9.5 4.5z"/><path fill="#dea239" d="M317.3 234.6c-2.5 3.6-3.3 7.6-2.4 10.1.2.6.6 1.2 1.1 1.6 2.4 1.9 6.9-.3 10-4.8 3.1-4.5 3.7-9.7 1.3-11.6-2.4-2-6.9.1-10 4.7z"/><path fill="#efc662" d="M317.3 234.6c-2.5 3.6-3.3 7.6-2.4 10.1 2.6 1.2 6.7-1.1 9.7-5.4 2.3-3.3 3.2-6.9 2.7-9.5-2.4-1.9-6.9.2-10 4.8z"/><g><path fill="#959494" d="M312.9 242.4c.4.7.4 1.4 0 1.6l-1.8 1.1-1.4-2.4 1.8-1.1c.3-.2 1 .1 1.4.8z"/><path d="M312.9 242.4c.4.7.4 1.4 0 1.6l-1.8 1.1-.8-1.3 2.6-1.4c-.1 0-.1 0 0 0z" class="st31"/><path fill="#959595" d="M309.6 242.7c-.4.2-.4.9 0 1.6.4.7 1 1 1.4.8.4-.2.4-.9 0-1.6-.4-.7-1-1.1-1.4-.8z"/><path d="M311.3 243.3c.5.8.5 1.8 0 2l-3.3 1.9-1.8-3.1 3.3-1.9c.6-.2 1.3.3 1.8 1.1z" class="st33"/><path fill="#717373" d="M311.3 243.3c.5.8.5 1.8 0 2l-3.3 1.9-1-1.8 4.1-2.4c.1.1.2.2.2.3z"/><path d="M306.3 244.2c-.5.3-.5 1.2 0 2s1.3 1.3 1.7 1 .5-1.2 0-2c-.4-.8-1.2-1.3-1.7-1z" class="st33"/><g><path fill="#686868" d="M307.6 243.1l-12.3 7.2 1 1.7 1.1 1.8 12.3-7.2c.5-.3.5-1.3 0-2.3-.7-.9-1.6-1.5-2.1-1.2z"/><path fill="#848484" d="M309.6 244.3l-13.3 7.7 1.1 1.8 12.3-7.2c.5-.3.5-1.3-.1-2.3z"/><path fill="#b45a27" d="M295.3 250.4c-.5.3-.5 1.4 0 2.3.6 1 1.5 1.5 2 1.2.5-.3.5-1.4 0-2.3-.6-1-1.5-1.5-2-1.2z"/></g><g><path fill="#8b8b8b" d="M297.3 251.5c.6 1 .6 2 0 2.3l-.8.5-2-3.5.8-.5c.5-.2 1.4.3 2 1.2z"/><path d="M297.3 251.5c.6 1 .6 2 0 2.3l-.8.5-1.1-2 1.8-1.1c0 .2 0 .3.1.3z" class="st31"/><path fill="#616262" d="M294.4 250.9c-.5.3-.5 1.4 0 2.3.6 1 1.5 1.5 2 1.2.5-.3.5-1.4 0-2.3-.5-1-1.4-1.6-2-1.2z"/></g></g></g><g><defs><path id="SVGID_1_" d="M317.5 234.7c-2.9 4.3-3.4 9.2-1.2 11 2.3 1.8 6.5-.2 9.4-4.5 2.9-4.3 3.4-9.2 1.2-11-2.2-1.8-6.4.3-9.4 4.5z"/></defs><clipPath id="SVGID_2_"><use overflow="visible" xlink:href="#SVGID_1_"/></clipPath><g clip-path="url(#SVGID_2_)"><path fill="#2ec2e1" d="M338 201.3l-31 70.4-2.7-1.5v-36.8l10.4-21.7 20.7-12z"/><path fill="#25489e" d="M307 234.9v36.8l-2.7-1.5v-36.8z"/><path fill="#c7952c" d="M338 253.8l-31 17.9v-36.8l10.3-21.6 20.7-12z"/><path fill="#455da1" d="M307 236.3v1-2.4l10.3-5.9v1.4z"/><path fill="#1e98ca" d="M307 234.9l-2.7-1.5 10.4-21.7 2.6 1.6V229z"/><path fill="#3b6cb4" d="M307 234.9l10.3-21.6V229z"/><path d="M313.5 234.3c-.1-.1-.2-.3-.2-.7 0-.3.1-.6.2-.9.1-.3.3-.5.6-.7.3-.2.5-.2.6-.1.1.1.2.3.2.7 0 .3-.1.6-.2.9-.1.3-.3.5-.6.7-.3.2-.5.2-.6.1zm.3-1.5c-.1.2-.1.4-.1.6s0 .4.1.4c.1.1.2.1.3 0 .1-.1.2-.2.3-.4.1-.2.1-.3.1-.6s0-.4-.1-.4c-.1-.1-.2-.1-.3 0-.1.1-.2.3-.3.4zM315.2 231.9v-.4l.8-.5v2.1l-.4.3v-1.7l-.4.2zM316.7 232.4c-.1-.1-.2-.3-.2-.7 0-.3.1-.6.2-.9.1-.3.3-.5.6-.7.3-.2.5-.2.6-.1.1.1.2.3.2.7 0 .3-.1.6-.2.9-.1.3-.3.5-.6.7-.3.2-.5.3-.6.1zm.3-1.4c-.1.2-.1.4-.1.6 0 .2 0 .4.1.4.1.1.2.1.3 0 .1-.1.2-.2.3-.4.1-.2.1-.3.1-.6s0-.4-.1-.4c-.1-.1-.2-.1-.3 0-.1.1-.2.2-.3.4zM318.4 230v-.4l.8-.5v2.1l-.4.3v-1.7l-.4.2zM319.9 230.6c-.1-.1-.2-.3-.2-.7 0-.3.1-.6.2-.9.1-.3.3-.5.6-.7.3-.2.5-.2.6-.1.1.1.2.3.2.7 0 .3-.1.6-.2.9-.1.3-.3.5-.6.7-.3.2-.5.2-.6.1zm.3-1.5c-.1.2-.1.4-.1.6s0 .4.1.4c.1.1.2.1.3 0 .1-.1.2-.2.3-.4.1-.2.1-.3.1-.6 0-.2 0-.4-.1-.4-.1-.1-.2-.1-.3 0-.1.1-.2.2-.3.4zM321.6 228.2v-.4l.8-.5v2.1l-.4.3V228l-.4.2zM323.1 228.7c-.1-.1-.2-.3-.2-.7 0-.3.1-.6.2-.9.1-.3.3-.5.6-.7.3-.2.5-.2.6-.1.1.1.2.3.2.7 0 .3-.1.6-.2.9-.1.3-.3.5-.6.7-.3.2-.5.2-.6.1zm.3-1.5c-.1.2-.1.4-.1.6 0 .2 0 .4.1.4.1.1.2.1.3 0 .1-.1.2-.2.3-.4.1-.2.1-.4.1-.6s0-.4-.1-.4c-.1-.1-.2-.1-.3 0-.1.2-.2.3-.3.4zM324.8 226.3v-.4l.8-.5v2.1l-.4.3v-1.7l-.4.2zM326.3 226.9c-.1-.1-.2-.3-.2-.7 0-.3.1-.6.2-.9.1-.3.3-.5.6-.7.3-.2.5-.2.6-.1.1.1.2.3.2.7 0 .3-.1.6-.2.9-.1.3-.3.5-.6.7-.3.1-.5.2-.6.1zm.3-1.5c-.1.2-.1.4-.1.6s0 .4.1.4c.1.1.2.1.3 0 .1-.1.2-.2.3-.4.1-.2.1-.4.1-.6 0-.2 0-.4-.1-.4-.1-.1-.2-.1-.3 0-.1.1-.2.2-.3.4zM328 224.4v-.4l.8-.5v2.1l-.4.3v-1.7l-.4.2zM313.5 237.9c-.1-.1-.2-.3-.2-.7 0-.3.1-.6.2-.9.1-.3.3-.5.6-.7.3-.2.5-.2.6-.1.1.1.2.3.2.7 0 .3-.1.6-.2.9-.1.3-.3.5-.6.7-.3.2-.5.2-.6.1zm.3-1.5c-.1.2-.1.4-.1.6s0 .4.1.4c.1.1.2.1.3 0 .1-.1.2-.2.3-.4.1-.2.1-.4.1-.6s0-.4-.1-.4c-.1-.1-.2-.1-.3 0-.1.1-.2.2-.3.4zM315.2 235.4v-.4l.8-.5v2.1l-.4.3v-1.7l-.4.2zM316.7 236c-.1-.1-.2-.3-.2-.7 0-.3.1-.6.2-.9.1-.3.3-.5.6-.7.3-.2.5-.2.6-.1.1.1.2.3.2.7 0 .3-.1.6-.2.9-.1.3-.3.5-.6.7-.3.2-.5.2-.6.1zm.3-1.5c-.1.2-.1.4-.1.6 0 .2 0 .4.1.4.1.1.2.1.3 0 .1-.1.2-.2.3-.4.1-.2.1-.4.1-.6s0-.4-.1-.4c-.1-.1-.2-.1-.3 0-.1.1-.2.3-.3.4zM318.4 233.6v-.4l.8-.5v2.1l-.4.3v-1.7l-.4.2zM319.9 234.1c-.1-.1-.2-.3-.2-.7 0-.3.1-.6.2-.9.1-.3.3-.5.6-.7.3-.2.5-.2.6-.1.1.1.2.3.2.7 0 .3-.1.6-.2.9-.1.3-.3.5-.6.7-.3.2-.5.3-.6.1zm.3-1.4c-.1.2-.1.4-.1.6s0 .4.1.4c.1.1.2.1.3 0 .1-.1.2-.2.3-.4.1-.2.1-.4.1-.6 0-.2 0-.4-.1-.4-.1-.1-.2-.1-.3 0-.1.1-.2.2-.3.4zM321.6 231.7v-.4l.8-.5v2.1l-.4.3v-1.7l-.4.2zM323.1 232.3c-.1-.1-.2-.3-.2-.7 0-.3.1-.6.2-.9.1-.3.3-.5.6-.7.3-.2.5-.2.6-.1.1.1.2.3.2.7 0 .3-.1.6-.2.9-.1.3-.3.5-.6.7-.3.2-.5.2-.6.1zm.3-1.5c-.1.2-.1.4-.1.6 0 .2 0 .4.1.4.1.1.2.1.3 0 .1-.1.2-.2.3-.4.1-.2.1-.3.1-.6s0-.4-.1-.4c-.1-.1-.2-.1-.3 0-.1.1-.2.2-.3.4zM324.8 229.9v-.4l.8-.5v2.1l-.4.3v-1.7l-.4.2zM326.3 230.4c-.1-.1-.2-.3-.2-.7 0-.3.1-.6.2-.9.1-.3.3-.5.6-.7.3-.2.5-.2.6-.1.1.1.2.3.2.7 0 .3-.1.6-.2.9-.1.3-.3.5-.6.7-.3.2-.5.2-.6.1zm.3-1.5c-.1.2-.1.4-.1.6s0 .4.1.4c.1.1.2.1.3 0 .1-.1.2-.2.3-.4.1-.2.1-.3.1-.6 0-.2 0-.4-.1-.4-.1-.1-.2-.1-.3 0-.1.2-.2.3-.3.4zM328 228v-.4l.8-.5v2.1l-.4.3v-1.7l-.4.2zM313.5 241.4c-.1-.1-.2-.3-.2-.7 0-.3.1-.6.2-.9.1-.3.3-.5.6-.7.3-.2.5-.2.6-.1.1.1.2.3.2.7 0 .3-.1.6-.2.9-.1.3-.3.5-.6.7-.3.2-.5.2-.6.1zm.3-1.4c-.1.2-.1.4-.1.6s0 .4.1.4c.1.1.2.1.3 0 .1-.1.2-.2.3-.4.1-.2.1-.4.1-.6s0-.4-.1-.4c-.1-.1-.2-.1-.3 0-.1.1-.2.2-.3.4zM315.2 239v-.4l.8-.5v2.1l-.4.3v-1.7l-.4.2zM316.7 239.6c-.1-.1-.2-.3-.2-.7 0-.3.1-.6.2-.9.1-.3.3-.5.6-.7.3-.2.5-.2.6-.1.1.1.2.3.2.7 0 .3-.1.6-.2.9-.1.3-.3.5-.6.7-.3.2-.5.2-.6.1zm.3-1.5c-.1.2-.1.4-.1.6 0 .2 0 .4.1.4.1.1.2.1.3 0 .1-.1.2-.2.3-.4.1-.2.1-.4.1-.6s0-.4-.1-.4c-.1-.1-.2-.1-.3 0-.1.1-.2.2-.3.4zM318.4 237.1v-.4l.8-.5v2.1l-.4.3v-1.7l-.4.2zM319.9 237.7c-.1-.1-.2-.3-.2-.7 0-.3.1-.6.2-.9.1-.3.3-.5.6-.7.3-.2.5-.2.6-.1.1.1.2.3.2.7 0 .3-.1.6-.2.9-.1.3-.3.5-.6.7-.3.2-.5.2-.6.1zm.3-1.5c-.1.2-.1.4-.1.6s0 .4.1.4c.1.1.2.1.3 0 .1-.1.2-.2.3-.4.1-.2.1-.4.1-.6 0-.2 0-.4-.1-.4-.1-.1-.2-.1-.3 0-.1.1-.2.3-.3.4zM321.6 235.3v-.4l.8-.5v2.1l-.4.3v-1.7l-.4.2zM323.1 235.8c-.1-.1-.2-.3-.2-.7 0-.3.1-.6.2-.9.1-.3.3-.5.6-.7.3-.2.5-.2.6-.1.1.1.2.3.2.7 0 .3-.1.6-.2.9-.1.3-.3.5-.6.7-.3.2-.5.3-.6.1zm.3-1.4c-.1.2-.1.4-.1.6 0 .2 0 .4.1.4.1.1.2.1.3 0 .1-.1.2-.2.3-.4.1-.2.1-.3.1-.6s0-.4-.1-.4c-.1-.1-.2-.1-.3 0-.1.1-.2.2-.3.4zM324.8 233.4v-.4l.8-.5v2.1l-.4.3v-1.7l-.4.2zM326.3 234c-.1-.1-.2-.3-.2-.7 0-.3.1-.6.2-.9.1-.3.3-.5.6-.7.3-.2.5-.2.6-.1.1.1.2.3.2.7 0 .3-.1.6-.2.9-.1.3-.3.5-.6.7-.3.2-.5.2-.6.1zm.3-1.5c-.1.2-.1.4-.1.6s0 .4.1.4c.1.1.2.1.3 0 .1-.1.2-.2.3-.4.1-.2.1-.3.1-.6 0-.2 0-.4-.1-.4-.1-.1-.2-.1-.3 0-.1.1-.2.2-.3.4zM328 231.6v-.4l.8-.5v2.1l-.4.3v-1.7l-.4.2zM313.5 245c-.1-.1-.2-.3-.2-.7 0-.3.1-.6.2-.9.1-.3.3-.5.6-.7.3-.2.5-.2.6-.1.1.1.2.3.2.7 0 .3-.1.6-.2.9-.1.3-.3.5-.6.7-.3.2-.5.2-.6.1zm.3-1.5c-.1.2-.1.4-.1.6s0 .4.1.4c.1.1.2.1.3 0 .1-.1.2-.2.3-.4.1-.2.1-.3.1-.6s0-.4-.1-.4c-.1-.1-.2-.1-.3 0-.1.1-.2.3-.3.4zM315.2 242.6v-.4l.8-.5v2.1l-.4.3v-1.7l-.4.2zM316.7 243.1c-.1-.1-.2-.3-.2-.7 0-.3.1-.6.2-.9.1-.3.3-.5.6-.7.3-.2.5-.2.6-.1.1.1.2.3.2.7 0 .3-.1.6-.2.9-.1.3-.3.5-.6.7-.3.2-.5.2-.6.1zm.3-1.4c-.1.2-.1.4-.1.6 0 .2 0 .4.1.4.1.1.2.1.3 0 .1-.1.2-.2.3-.4.1-.2.1-.3.1-.6s0-.4-.1-.4c-.1-.1-.2-.1-.3 0-.1.1-.2.2-.3.4zM318.4 240.7v-.4l.8-.5v2.1l-.4.3v-1.7l-.4.2zM319.9 241.3c-.1-.1-.2-.3-.2-.7 0-.3.1-.6.2-.9.1-.3.3-.5.6-.7.3-.2.5-.2.6-.1.1.1.2.3.2.7 0 .3-.1.6-.2.9-.1.3-.3.5-.6.7-.3.2-.5.2-.6.1zm.3-1.5c-.1.2-.1.4-.1.6 0 .2 0 .4.1.4.1.1.2.1.3 0 .1-.1.2-.2.3-.4.1-.2.1-.3.1-.6 0-.2 0-.4-.1-.4-.1-.1-.2-.1-.3 0-.1.1-.2.2-.3.4zM321.6 238.8v-.4l.8-.5v2.1l-.4.3v-1.7l-.4.2zM323.1 239.4c-.1-.1-.2-.3-.2-.7 0-.3.1-.6.2-.9.1-.3.3-.5.6-.7.3-.2.5-.2.6-.1.1.1.2.3.2.7 0 .3-.1.6-.2.9-.1.3-.3.5-.6.7-.3.2-.5.2-.6.1zm.3-1.5c-.1.2-.1.4-.1.6 0 .2 0 .4.1.4.1.1.2.1.3 0 .1-.1.2-.2.3-.4.1-.2.1-.4.1-.6s0-.4-.1-.4c-.1-.1-.2-.1-.3 0-.1.1-.2.3-.3.4zM324.8 237v-.4l.8-.5v2.1l-.4.3v-1.7l-.4.2zM326.3 237.5c-.1-.1-.2-.3-.2-.7 0-.3.1-.6.2-.9.1-.3.3-.5.6-.7.3-.2.5-.2.6-.1.1.1.2.3.2.7 0 .3-.1.6-.2.9-.1.3-.3.5-.6.7-.3.2-.5.3-.6.1zm.3-1.4c-.1.2-.1.4-.1.6s0 .4.1.4c.1.1.2.1.3 0 .1-.1.2-.2.3-.4.1-.2.1-.4.1-.6 0-.2 0-.4-.1-.4-.1-.1-.2-.1-.3 0-.1.1-.2.2-.3.4zM328 235.1v-.4l.8-.5v2.1l-.4.3v-1.7l-.4.2zM313.5 248.6c-.1-.1-.2-.3-.2-.7 0-.3.1-.6.2-.9.1-.3.3-.5.6-.7.3-.2.5-.2.6-.1.1.1.2.3.2.7 0 .3-.1.6-.2.9-.1.3-.3.5-.6.7-.3.1-.5.2-.6.1zm.3-1.5c-.1.2-.1.4-.1.6s0 .4.1.4c.1.1.2.1.3 0 .1-.1.2-.2.3-.4.1-.2.1-.3.1-.6s0-.4-.1-.4c-.1-.1-.2-.1-.3 0-.1.1-.2.2-.3.4zM315.2 246.1v-.4l.8-.5v2.1l-.4.3v-1.7l-.4.2zM316.7 246.7c-.1-.1-.2-.3-.2-.7 0-.3.1-.6.2-.9.1-.3.3-.5.6-.7.3-.2.5-.2.6-.1s.2.3.2.7c0 .3-.1.6-.2.9-.1.3-.3.5-.6.7-.3.2-.5.2-.6.1zm.3-1.5c-.1.2-.1.4-.1.6 0 .2 0 .4.1.4.1.1.2.1.3 0 .1-.1.2-.2.3-.4.1-.2.1-.3.1-.6s0-.4-.1-.4c-.1-.1-.2-.1-.3 0-.1.1-.2.3-.3.4zM318.4 244.3v-.4l.8-.5v2.1l-.4.3V244l-.4.3zM319.9 244.8c-.1-.1-.2-.3-.2-.7 0-.3.1-.6.2-.9.1-.3.3-.5.6-.7.3-.2.5-.2.6-.1.1.1.2.3.2.7 0 .3-.1.6-.2.9-.1.3-.3.5-.6.7-.3.2-.5.2-.6.1zm.3-1.4c-.1.2-.1.4-.1.6s0 .4.1.4c.1.1.2.1.3 0 .1-.1.2-.2.3-.4.1-.2.1-.3.1-.6 0-.2 0-.4-.1-.4-.1-.1-.2-.1-.3 0-.1.1-.2.2-.3.4zM321.6 242.4v-.4l.8-.5v2.1l-.4.3v-1.7l-.4.2zM323.1 243c-.1-.1-.2-.3-.2-.7 0-.3.1-.6.2-.9.1-.3.3-.5.6-.7.3-.2.5-.2.6-.1.1.1.2.3.2.7 0 .3-.1.6-.2.9-.1.3-.3.5-.6.7-.3.2-.5.2-.6.1zm.3-1.5c-.1.2-.1.4-.1.6 0 .2 0 .4.1.4.1.1.2.1.3 0 .1-.1.2-.2.3-.4.1-.2.1-.4.1-.6 0-.2 0-.4-.1-.4-.1-.1-.2-.1-.3 0-.1.1-.2.2-.3.4zM324.8 240.5v-.4l.8-.5v2.1l-.4.3v-1.7l-.4.2zM326.3 241.1c-.1-.1-.2-.3-.2-.7 0-.3.1-.6.2-.9.1-.3.3-.5.6-.7.3-.2.5-.2.6-.1.1.1.2.3.2.7 0 .3-.1.6-.2.9-.1.3-.3.5-.6.7-.3.2-.5.2-.6.1zm.3-1.5c-.1.2-.1.4-.1.6s0 .4.1.4c.1.1.2.1.3 0 .1-.1.2-.2.3-.4.1-.2.1-.4.1-.6 0-.2 0-.4-.1-.4-.1-.1-.2-.1-.3 0-.1.2-.2.3-.3.4zM328 238.7v-.4l.8-.5v2.1l-.4.3v-1.7l-.4.2zM313.5 252.1c-.1-.1-.2-.3-.2-.7 0-.3.1-.6.2-.9.1-.3.3-.5.6-.7.3-.2.5-.2.6-.1.1.1.2.3.2.7 0 .3-.1.6-.2.9-.1.3-.3.5-.6.7-.3.2-.5.2-.6.1zm.3-1.5c-.1.2-.1.4-.1.6s0 .4.1.4c.1.1.2.1.3 0 .1-.1.2-.2.3-.4.1-.2.1-.4.1-.6s0-.4-.1-.4c-.1-.1-.2-.1-.3 0-.1.2-.2.3-.3.4zM315.2 249.7v-.4l.8-.5v2.1l-.4.3v-1.7l-.4.2zM316.7 250.3c-.1-.1-.2-.3-.2-.7 0-.3.1-.6.2-.9.1-.3.3-.5.6-.7.3-.2.5-.2.6-.1.1.1.2.3.2.7 0 .3-.1.6-.2.9-.1.3-.3.5-.6.7-.3.1-.5.2-.6.1zm.3-1.5c-.1.2-.1.4-.1.6 0 .2 0 .4.1.4.1.1.2.1.3 0 .1-.1.2-.2.3-.4.1-.2.1-.4.1-.6s0-.4-.1-.4c-.1-.1-.2-.1-.3 0-.1.1-.2.2-.3.4zM318.4 247.8v-.4l.8-.5v2.1l-.4.3v-1.7l-.4.2zM319.9 248.4c-.1-.1-.2-.3-.2-.7 0-.3.1-.6.2-.9.1-.3.3-.5.6-.7.3-.2.5-.2.6-.1.1.1.2.3.2.7 0 .3-.1.6-.2.9-.1.3-.3.5-.6.7-.3.2-.5.2-.6.1zm.3-1.5c-.1.2-.1.4-.1.6s0 .4.1.4c.1.1.2.1.3 0 .1-.1.2-.2.3-.4.1-.2.1-.4.1-.6 0-.2 0-.4-.1-.4-.1-.1-.2-.1-.3 0-.1.1-.2.3-.3.4zM321.6 246v-.4l.8-.5v2.1l-.4.3v-1.7l-.4.2zM323.1 246.5c-.1-.1-.2-.3-.2-.7 0-.3.1-.6.2-.9.1-.3.3-.5.6-.7.3-.2.5-.2.6-.1.1.1.2.3.2.7 0 .3-.1.6-.2.9-.1.3-.3.5-.6.7-.3.2-.5.3-.6.1zm.3-1.4c-.1.2-.1.4-.1.6 0 .2 0 .4.1.4.1.1.2.1.3 0 .1-.1.2-.2.3-.4.1-.2.1-.3.1-.6s0-.4-.1-.4c-.1-.1-.2-.1-.3 0-.1.1-.2.2-.3.4zM324.8 244.1v-.4l.8-.5v2.1l-.4.3v-1.7l-.4.2zM326.3 244.7c-.1-.1-.2-.3-.2-.7 0-.3.1-.6.2-.9.1-.3.3-.5.6-.7.3-.2.5-.2.6-.1.1.1.2.3.2.7 0 .3-.1.6-.2.9-.1.3-.3.5-.6.7-.3.2-.5.2-.6.1zm.3-1.5c-.1.2-.1.4-.1.6s0 .4.1.4c.1.1.2.1.3 0 .1-.1.2-.2.3-.4.1-.2.1-.3.1-.6 0-.2 0-.4-.1-.4-.1-.1-.2-.1-.3 0-.1.1-.2.2-.3.4zM328 242.2v-.4l.8-.5v2.1l-.4.3V242l-.4.2zM313.5 255.7c-.1-.1-.2-.3-.2-.7s.1-.6.2-.9c.1-.3.3-.5.6-.7.3-.2.5-.2.6-.1.1.1.2.3.2.7 0 .3-.1.6-.2.9-.1.3-.3.5-.6.7-.3.2-.5.2-.6.1zm.3-1.5c-.1.2-.1.4-.1.6s0 .4.1.4c.1.1.2.1.3 0 .1-.1.2-.2.3-.4.1-.2.1-.4.1-.6s0-.4-.1-.4c-.1-.1-.2-.1-.3 0-.1.1-.2.2-.3.4zM315.2 253.3v-.4l.8-.5v2.1l-.4.3V253l-.4.3zM316.7 253.8c-.1-.1-.2-.3-.2-.7 0-.3.1-.6.2-.9.1-.3.3-.5.6-.7.3-.2.5-.2.6-.1.1.1.2.3.2.7 0 .3-.1.6-.2.9-.1.3-.3.5-.6.7-.3.2-.5.2-.6.1zm.3-1.5c-.1.2-.1.4-.1.6 0 .2 0 .4.1.4.1.1.2.1.3 0 .1-.1.2-.2.3-.4.1-.2.1-.4.1-.6s0-.4-.1-.4c-.1-.1-.2-.1-.3 0-.1.2-.2.3-.3.4zM318.4 251.4v-.4l.8-.5v2.1l-.4.3v-1.7l-.4.2zM319.9 252c-.1-.1-.2-.3-.2-.7 0-.3.1-.6.2-.9.1-.3.3-.5.6-.7.3-.2.5-.2.6-.1.1.1.2.3.2.7s-.1.6-.2.9c-.1.3-.3.5-.6.7-.3.2-.5.2-.6.1zm.3-1.5c-.1.2-.1.4-.1.6s0 .4.1.4c.1.1.2.1.3 0 .1-.1.2-.2.3-.4.1-.2.1-.4.1-.6 0-.2 0-.4-.1-.4-.1-.1-.2-.1-.3 0-.1.1-.2.2-.3.4zM321.6 249.5v-.4l.8-.5v2.1l-.4.3v-1.7l-.4.2zM323.1 250.1c-.1-.1-.2-.3-.2-.7 0-.3.1-.6.2-.9.1-.3.3-.5.6-.7.3-.2.5-.2.6-.1.1.1.2.3.2.7 0 .3-.1.6-.2.9-.1.3-.3.5-.6.7-.3.2-.5.2-.6.1zm.3-1.5c-.1.2-.1.4-.1.6 0 .2 0 .4.1.4.1.1.2.1.3 0 .1-.1.2-.2.3-.4.1-.2.1-.3.1-.6s0-.4-.1-.4c-.1-.1-.2-.1-.3 0-.1.1-.2.3-.3.4zM324.8 247.7v-.4l.8-.5v2.1l-.4.3v-1.7l-.4.2zM326.3 248.2c-.1-.1-.2-.3-.2-.7 0-.3.1-.6.2-.9.1-.3.3-.5.6-.7.3-.2.5-.2.6-.1.1.1.2.3.2.7 0 .3-.1.6-.2.9-.1.3-.3.5-.6.7-.3.2-.5.3-.6.1zm.3-1.4c-.1.2-.1.4-.1.6s0 .4.1.4c.1.1.2.1.3 0 .1-.1.2-.2.3-.4.1-.2.1-.3.1-.6 0-.2 0-.4-.1-.4-.1-.1-.2-.1-.3 0-.1.1-.2.2-.3.4zM328 245.8v-.4l.8-.5v2.1l-.4.3v-1.7l-.4.2z" class="st47"/></g></g></g><g><path d="M56.3 87.3h40.1v.7H56.3z" class="st48" transform="rotate(-53.58 76.38694358 87.67567438)"/><path d="M76 66.7h.7v44.2H76z" class="st48" transform="matrix(1 -.0052 .0052 1 -.4606 .3982)"/><path d="M76.1 75.9h.7v24.2h-.7z" class="st48" transform="rotate(-79.74 76.39009135 87.99300415)"/><path d="M76.6 111.3L64.1 104V85.7L76 66.2l12.6 5.1v18.9l-12 21.1zm-11.8-7.7l11.5 6.8L88 90.1V71.8l-11.6-4.7-11.6 18.8v17.7z" class="st48"/><path fill="#65a8d8" d="M80.9 93.5l-1.6.9-1.2.7-5.7 3.3-1.6-.8.1-5.7 2.1-3.8c.2-.1.4-.2.5-.3.2-.1.4-.1.6-.2-.2.2-.2.6-.1.9l.4.5c.4.7 2.5 3.7 2.5 3.7s1.4-4.3 1.4-5.4l-.3-.2h.6c.4 0 .7.1 1 .3.1.1.2.1.3.2.1.1.2.1.2.2.1.1.1.1.1.2.2.2.3.5.4.8.1.3.1.5.1.8l.2 3.9z"/><path fill="#5472b7" d="M80.3 87.8s-.1 0-.2-.1c-.5-.3-1-.4-1.3-.4-.2 0-.4 0-.6.1-.3 0-.3.6-.6.6-.1 0-.2 0-.3.1h-.2c-.5.1-1 .2-1.4.4-.2.1-.3.1-.5.2 0 0-.6.1-.8.3-.1.1-.4.3-.5.4-.9.8-1.3 2.8-1.4 4l-.1 5-1.6-.8.1-5.7s.3-2.7 2.1-3.8c.1-.1.4-.2.5-.3.3-.1.6-.2.8-.3h.2c.3-.1.5-.1.8-.2.1 0 .3-.1.4-.1.3-.1.7-.1 1.1-.1H77.8l-.1-.5h.6c.4 0 1.1.5 1.4.7.1.1.5.5.6.5z"/><path fill="#d6e7de" d="M76.9 92.7s-2-3.1-2.5-3.7l-.4-.5c-.2-.3-.1-.6.1-.9.1 0 .1 0 .2-.1h.2c.3-.1.5-.1.8-.2.1 0 .3-.1.4-.1.3-.1.7-.1 1.1-.1H78l.2.3c.1 1-1.3 5.3-1.3 5.3z"/><path fill="#7ea9d9" d="M74.3 88.8l-.3-.4c-.2-.4-.1-.8.3-1 1-.4 2.1-.7 3.3-.8l.7.8c-.6.1-2.9.9-4 1.4z"/><path fill="#deb18a" d="M74.5 85.6v1.9s.2.8.9.9c.7.2 1.3.1 1.6-.1.2-.1.2-.2.2-.2v-1.9l-2.7-.6z"/><path d="M77.2 87.3l-.1.9.5.7s.5-.4.7-.9c.1-.4 0-.7 0-.7l-.4-.5c-.1.1-.3.3-.7.5z" class="st54"/><path fill="#d08d6d" d="M77.2 86.3v.4l-1.8-.5v1.9s0 .1.1.3h-.1c-.7-.2-.9-.9-.9-.9v-1.9l2.7.7z"/><path fill="#f0be8e" d="M74.2 86c.3.4.7.7 1.1.9 2.1 1.3 3.3-.6 3.6-2.1.2-1 .4-2.5.2-3.8-.3-.2-.6-.3-1.2-.1-1.8.4-2.7.6-2.7 1.7v1.8h-.5s-.6-2.1-1.1-1.6c-1.2 1.2.6 1.5.6 3.2z"/><path fill="#e09977" d="M75.2 82.6c0-.2 0-.3-.1-.5v-.4c.1-.1.2-.2.3-.2.1-.1.2-.1.4-.1.1 0 .2-.1.3-.2l.2-.2c.1-.2.3-.3.4-.4.3-.2.7-.4 1.1-.4.2 0 .5 0 .7.1.1.1.3.2.4.3.1.1.2.2.2.3v.1c-.4-.2-.9-.1-1.3 0-.1 0-.3.1-.4.1-.4.1-.7.2-1.1.4l-.3.3c-.6.5-.6 1.3-.6 2-.1 1.1 0 2.3.2 3.2-.1 0-.2-.1-.3-.2-.4-.2-.8-.6-1.1-.9-.3-1.5-2-2.2-.6-3.1.9-.6 1.1 1.6 1.1 1.6h.5c-.1.1 0-.7 0-1.8z"/><path fill="#4d2d11" d="M72.4 82.5s0 2.3 1.8 3.5c0-.5-.1-.9-.4-1.3-.1-.2-.2-.3-.3-.4-.1-.2-.2-.3-.2-.6s.1-.6.3-.7c.2-.1.4-.1.6.1.3.3.4.7.5 1.1 0 .1.1.2.1.3h.5v-1.8c0-1.1.9-1.3 2.7-1.7.6-.1 1 0 1.2.1-.1-.7-.3-1.4-.8-1.8-1.3-1.1-2.5-1.5-4.3-.6-2 1-1.7 3.8-1.7 3.8z"/><path d="M76.9 88.8l-.6.8.6.6.4-1z" class="st59"/><path d="M76.9 89.8l-.5.9.1 1.4c.3.4.5.7.5.7s.2-.5.4-1.1l.1-1.3-.6-.6z" class="st59"/><path d="M74.5 87.4l-.6.3c-.2.1.2 1.2.6 1.4.8.4 1.6.6 1.6.6l.2-1.1s-.5 0-1.1-.3c-.7-.4-.7-.9-.7-.9z" class="st54"/><g><path fill="#c92027" d="M75.3 113.9l-1.2-.7c-.7-.4-.9-1.6-.6-2.8 0-.1.1-.3.1-.4 0-.1 0-.1.1-.2v-.1s0-.1.1-.1c0-.1.1-.2.2-.3 0 0 0-.1.1-.1 0-.1.1-.2.1-.3 0-.1.1-.2.1-.2l.1-.1c.1-.1.1-.2.2-.3l.1-.1.1-.1.1-.1.3-.3.2-.2.3-.3.1-.1c.1-.1.2-.1.3-.2 0 0 .1 0 .1-.1.1-.1.3-.1.4-.2h.1c.1 0 .2 0 .2-.1H77.6c.1 0 .2.1.3.1l1.2.7c.6.4.9 1.2.7 2.3 0 .1 0 .2-.1.4v.2c-.1.5-.4 1-.7 1.6-.3.5-.7 1-1 1.4-.8.7-1.9 1.1-2.7.7z"/><path fill="#be2026" d="M78.1 113l-4.6-2.7v.1c-.3 1.3-.1 2.4.6 2.8l1.2.7c.8.4 1.9 0 2.8-.9z"/><path fill="#f15845" d="M79.4 111.1c.2-.3.3-.7.4-1v-.2c0-.1.1-.3.1-.4.2-1-.1-1.9-.7-2.3l-1.2-.7c-.1-.1-.2-.1-.3-.1H77c-.1 0-.2 0-.2.1h-.1c-.1 0-.3.1-.4.2 0 0-.1 0-.1.1-.1.1-.2.1-.3.2l-.1.1-.3.3c-.1 0-.1.1-.2.2l-.3.3-.1.1-.1.1-.1.1c0 .1-.1.1-.1.2l4.8 2.7z"/><path fill="#f26e61" d="M79.9 109c0-.8-.2-1.5-.7-1.8l-1.2-.7c-.1-.1-.2-.1-.3-.1H77c-.1 0-.2 0-.2.1h-.1c-.1 0-.3.1-.4.2 0 0-.1 0-.1.1h-.1l3.8 2.2z"/><path d="M75.5 114c1 .6 2.7-.4 3.8-2.2 1.1-1.8 1.1-3.8 0-4.4-1-.6-2.7.4-3.8 2.2-1 1.8-1 3.8 0 4.4z" class="st7"/></g><g><path fill="#2b72b9" d="M75.3 69.7l-1.2-.7c-.7-.4-.9-1.6-.6-2.8 0-.1.1-.3.1-.4 0-.1 0-.1.1-.2v-.1s0-.1.1-.1c0-.1.1-.2.2-.3 0 0 0-.1.1-.1 0-.1.1-.2.1-.3 0-.1.1-.2.1-.2l.1-.1c.1-.1.1-.2.2-.3l.1-.1.1-.1.1-.1.3-.3.2-.2.3-.3.1-.1c.1-.1.2-.1.3-.2 0 0 .1 0 .1-.1.1-.1.3-.1.4-.2h.1c.1 0 .2 0 .2-.1H77.6c.1 0 .2.1.3.1l1.2.7c.6.4.9 1.2.7 2.3 0 .1 0 .2-.1.4v.2c-.1.5-.4 1-.7 1.6-.3.5-.7 1-1 1.4-.8.7-1.9 1.1-2.7.7z"/><path fill="#206cb5" d="M78.1 68.8s0-.1 0 0l-4.6-2.7v.1c-.3 1.3-.1 2.4.6 2.8l1.2.7c.8.4 1.9 0 2.8-.9z"/><path fill="#5d98d1" d="M79.4 66.9c.2-.3.3-.7.4-1v-.2c0-.1.1-.3.1-.4.2-1-.1-1.9-.7-2.3l-1.2-.7c-.1-.1-.2-.1-.3-.1H77c-.1 0-.2 0-.2.1h-.1c-.1 0-.3.1-.4.2 0 0-.1 0-.1.1-.1.1-.2.1-.3.2l-.1.1-.3.3c-.1 0-.1.1-.2.2l-.3.3-.1.1-.1.1-.1.1c0 .1-.1.1-.1.2l4.8 2.7z"/><path fill="#70afe0" d="M79.9 64.8c0-.8-.2-1.5-.7-1.8l-1.2-.7c-.1-.1-.2-.1-.3-.1H77c-.1 0-.2 0-.2.1h-.1c-.1 0-.3.1-.4.2 0 0-.1 0-.1.1h-.1l3.8 2.2z"/><path fill="#4d8fcc" d="M75.5 69.7c1 .6 2.7-.4 3.8-2.2 1.1-1.8 1.1-3.8 0-4.4-1-.6-2.7.4-3.8 2.2-1 1.9-1 3.8 0 4.4z"/></g><g><path fill="#5e9641" d="M62.6 89.1l-1.2-.7c-.7-.4-.9-1.6-.6-2.8 0-.1.1-.3.1-.4 0-.1 0-.1.1-.2v-.1s0-.1.1-.1c0-.1.1-.2.2-.3 0 0 0-.1.1-.1 0-.1.1-.2.1-.3 0-.1.1-.2.1-.2l.1-.1c.1-.1.1-.2.2-.3l.1-.1.1-.1.1-.1.3-.3.2-.2.3-.3.1-.1c.1-.1.2-.1.3-.2 0 0 .1 0 .1-.1.1-.1.3-.1.4-.2h.1c.1 0 .2 0 .2-.1H64.9c.1 0 .2.1.3.1l1.2.7c.6.4.9 1.2.7 2.3 0 .1 0 .2-.1.4v.2c-.1.5-.4 1-.7 1.6-.3.5-.7 1-1 1.4-.9.7-1.9 1.1-2.7.7z"/><path fill="#578c3e" d="M65.4 88.2l-4.6-2.7v.1c-.3 1.3-.1 2.4.6 2.8l1.2.7c.8.4 1.8 0 2.8-.9z"/><path fill="#8cc63f" d="M66.6 86.3c.2-.3.3-.7.4-1v-.2c0-.1.1-.3.1-.4.2-1-.1-1.9-.7-2.3l-1.2-.7c-.1-.1-.2-.1-.3-.1h-.7c-.1 0-.2 0-.2.1h-.1c-.1 0-.3.1-.4.2 0 0-.1 0-.1.1-.1.1-.2.1-.3.2l-.1.1-.3.3c-.1 0-.1.1-.2.2l-.3.3-.1.1-.1.1-.1.1c0 .1-.1.1-.1.2l4.8 2.7z"/><path fill="#95c64c" d="M67.1 84.2c0-.8-.2-1.5-.7-1.8l-1.2-.7c-.1-.1-.2-.1-.3-.1h-.7c-.1 0-.2 0-.2.1h-.1c-.1 0-.3.1-.4.2 0 0-.1 0-.1.1h-.1l3.8 2.2z"/><path fill="#83c341" d="M62.8 89.2c1 .6 2.7-.4 3.8-2.2 1.1-1.8 1.1-3.8 0-4.4s-2.7.4-3.8 2.2c-1 1.8-1 3.8 0 4.4z"/></g><g><path fill="#ca5127" d="M62.6 107.8l-1.2-.7c-.7-.4-.9-1.6-.6-2.8 0-.1.1-.3.1-.4 0-.1 0-.1.1-.2v-.1s0-.1.1-.1c0-.1.1-.2.2-.3 0 0 0-.1.1-.1 0-.1.1-.2.1-.3 0-.1.1-.2.1-.2l.1-.1c.1-.1.1-.2.2-.3l.1-.1.1-.1.1-.1.3-.3.2-.2.3-.3.1-.1c.1-.1.2-.1.3-.2 0 0 .1 0 .1-.1.1-.1.3-.1.4-.2h.1c.1 0 .2 0 .2-.1H64.9c.1 0 .2.1.3.1l1.2.7c.6.4.9 1.2.7 2.3 0 .1 0 .2-.1.4v.2c-.1.5-.4 1-.7 1.6-.3.5-.7 1-1 1.4-.9.8-1.9 1.1-2.7.7z"/><path fill="#bf4827" d="M65.4 106.9l-4.6-2.7v.1c-.3 1.3-.1 2.4.6 2.8l1.2.7c.8.4 1.8.1 2.8-.9z"/><path fill="#f68745" d="M66.6 105c.2-.3.3-.7.4-1v-.2c0-.1.1-.3.1-.4.2-1-.1-1.9-.7-2.3l-1.2-.7c-.1-.1-.2-.1-.3-.1h-.7c-.1 0-.2 0-.2.1h-.1c-.1 0-.3.1-.4.2 0 0-.1 0-.1.1-.1.1-.2.1-.3.2l-.1.1-.3.3c-.1 0-.1.1-.2.2l-.3.3-.1.1-.1.1-.1.1c0 .1-.1.1-.1.2l4.8 2.7z"/><path fill="#f79661" d="M67.1 102.9c0-.8-.2-1.5-.7-1.8l-1.2-.7c-.1-.1-.2-.1-.3-.1h-.7c-.1 0-.2 0-.2.1h-.1c-.1 0-.3.1-.4.2 0 0-.1 0-.1.1h-.1l3.8 2.2z"/><path fill="#f36e24" d="M62.8 107.9c1 .6 2.7-.4 3.8-2.2 1.1-1.8 1.1-3.8 0-4.4-1-.6-2.7.4-3.8 2.2-1 1.8-1 3.8 0 4.4z"/></g><g><path fill="#38aa96" d="M87.2 75.4l-1.2-.7c-.7-.4-.9-1.6-.6-2.8 0-.1.1-.3.1-.4 0-.1 0-.1.1-.2v-.1s0-.1.1-.1c0-.1.1-.2.2-.3 0 0 0-.1.1-.1 0-.1.1-.2.1-.3 0-.1.1-.2.1-.2l.1-.1c.1-.1.1-.2.2-.3l.1-.1.1-.1.1-.1.3-.3.2-.2.3-.3.1-.1c.1-.1.2-.1.3-.2 0 0 .1 0 .1-.1.1-.1.3-.1.4-.2h.1c.1 0 .2 0 .2-.1H89.5c.1 0 .2.1.3.1l1.2.7c.6.4.9 1.2.7 2.3 0 .1 0 .2-.1.4v.2c-.1.5-.4 1-.7 1.6-.3.5-.7 1-1 1.4-.9.7-2 1.1-2.7.7z"/><path fill="#329e8a" d="M90 74.5l-4.6-2.7v.1c-.3 1.3-.1 2.4.6 2.8l1.2.7c.7.4 1.8 0 2.8-.9z"/><path fill="#83cfc7" d="M91.2 72.6c.2-.3.3-.7.4-1v-.2c0-.1.1-.3.1-.4.2-1-.1-1.9-.7-2.3l-1.2-.7c-.1-.1-.2-.1-.3-.1h-.7c-.1 0-.2 0-.2.1h-.1c-.1 0-.3.1-.4.2 0 0-.1 0-.1.1-.1.1-.2.1-.3.2l-.1.1-.3.3c-.1 0-.1.1-.2.2l-.3.3-.1.1-.1.1-.1.1c0 .1-.1.1-.1.2l4.8 2.7z"/><path fill="#92d3c9" d="M91.7 70.5c0-.8-.2-1.5-.7-1.8l-1.2-.7c-.1-.1-.2-.1-.3-.1h-.7c-.1 0-.2 0-.2.1h-.1c-.1 0-.3.1-.4.2 0 0-.1 0-.1.1h-.1l3.8 2.2z"/><path fill="#6bc7b9" d="M87.4 75.5c1 .6 2.7-.4 3.8-2.2 1.1-1.8 1.1-3.8 0-4.4-1-.6-2.7.4-3.8 2.2-1 1.8-1.1 3.8 0 4.4z"/></g><g><path fill="#bc509e" d="M87.2 94.1l-1.2-.7c-.7-.4-.9-1.6-.6-2.8 0-.1.1-.3.1-.4 0-.1 0-.1.1-.2v-.1s0-.1.1-.1c0-.1.1-.2.2-.3 0 0 0-.1.1-.1 0-.1.1-.2.1-.3 0-.1.1-.2.1-.2l.1-.1c.1-.1.1-.2.2-.3l.1-.1.1-.1.1-.1.3-.3.2-.2.3-.3.1-.1c.1-.1.2-.1.3-.2 0 0 .1 0 .1-.1.1-.1.3-.1.4-.2h.1c.1 0 .2 0 .2-.1H89.5c.1 0 .2.1.3.1l1.2.7c.6.4.9 1.2.7 2.3 0 .1 0 .2-.1.4v.2c-.1.5-.4 1-.7 1.6-.3.5-.7 1-1 1.4-.9.8-2 1.2-2.7.7z"/><path fill="#b6469a" d="M90 93.3c0-.1 0-.1 0 0l-4.6-2.7v.1c-.4 1.2-.2 2.3.6 2.7l1.2.7c.7.5 1.8.1 2.8-.8z"/><path fill="#e193bf" d="M91.2 91.4c.2-.3.3-.7.4-1v-.2c0-.1.1-.3.1-.4.2-1-.1-1.9-.7-2.3l-1.2-.7c-.1-.1-.2-.1-.3-.1h-.7c-.1 0-.2 0-.2.1h-.1c-.1 0-.3.1-.4.2 0 0-.1 0-.1.1-.1.1-.2.1-.3.2l-.1.1-.3.3c-.1 0-.1.1-.2.2l-.3.3-.1.1-.1.1-.1.1c0 .1-.1.1-.1.2l4.8 2.7z"/><path fill="#e7acce" d="M91.7 89.3c0-.8-.2-1.5-.7-1.8l-1.2-.7c-.1-.1-.2-.1-.3-.1h-.7c-.1 0-.2 0-.2.1h-.1c-.1 0-.3.1-.4.2 0 0-.1 0-.1.1h-.1l3.8 2.2z"/><path fill="#d576af" d="M87.4 94.2c1 .6 2.7-.4 3.8-2.2 1.1-1.8 1.1-3.8 0-4.4-1-.6-2.7.4-3.8 2.2-1 1.9-1.1 3.8 0 4.4z"/></g></g><g><path fill="#aea133" d="M315.2 114.4v-7.5l3.4-2 1.2.7-2.5 6.1 3.1-.3 1.2.8-3.5 7.4-1.2-.8-3.5-3.4z"/><path fill="#c9c94a" d="M316.4 115.2v-7.6l3.4-2v7.6l1.8-1-3.5 7.4-3.4-3.5z"/><g><path fill="#1c8c44" d="M330.8 105.2v7.9l-3.7 2.1-1.3-.8V108l-.5.3-1.3-.8 3.6-7.8 1.4.8 3.6 3.6z"/><path fill="#6bbe45" d="M330.8 105.2v7.9l-3.7 2.1v-7.9l-1.8 1 3.7-7.8 3.6 3.6z"/></g><g><g id="XMLID_1_"><path id="XMLID_3_" fill="#57abdb" d="M353.8 67.3l-3.6-2.2c-1.3-.9-3.2-.9-5.4.3l-1.4.7c0-1-.2-1.9-.6-2.7l1.6.1-3.5-2.2c-1.6-1.1-3.9-1.4-5.9-.3l-3.2 1.7c-.1-1.7-.4-3.1-1-4.3l1.7.1-3.8-2.4c-2-1.2-4.8-1.1-8 .6-6.4 3.4-11.7 12-11.9 19.2v1.3l-3.8 2.1c-4.2 2.3-6.9 6.6-7.1 11.4-4 2.2-7.4 7.4-7.5 11.6-.1 2.1.7 3.6 1.9 4.3l3.8 2.4.2-2.3c.3-.1.7-.3 1.1-.5l46.8-25.1c4-2.2 7.4-7.4 7.5-11.6 0-.7-.1-1.4-.2-2l2.3-.2z"/><path id="XMLID_2_" fill="#d4eaf9" stroke="#fff" stroke-miterlimit="10" stroke-width=".25" d="M348.8 67.8l-1.4.7c.1-4.4-4.5-7.3-8.3-5.2l-3.2 1.7c-.2-6.6-5-9.3-11.1-6-6.4 3.4-11.7 12-11.9 19.2v1.3l-3.8 2.1c-4.2 2.3-6.9 6.6-7.1 11.4-4 2.2-7.4 7.4-7.5 11.6s3 6 7 3.8l46.8-25.1c4-2.2 7.4-7.4 7.5-11.6s-3-6-7-3.9z"/></g><path d="M327.2 83.4l2.4 1.4-2.4-1.4zM333 79l-2.4-1.4L333 79c-.1 0 0 0 0 0z" class="st95"/><path d="M329.2 84.3l-2.4-1.4.4.5 2.4 1.4-.4-.5zm3.7-5.3l-2.4-1.4-.6-.1 2.4 1.4.6.1zm-8.8 6.8l2.4 1.4v-.1l-2.4-1.4c-.1 0-.1.1 0 .1zm9.4-10.6l-2.4-1.4h-.1l2.4 1.4h.1zm-7.1 11.1l-2.4-1.4v.8l2.4 1.4v-.8z" class="st96"/><path d="M333.3 75.2l-2.4-1.4-.7.4 2.4 1.4.7-.4zm-14.9 18.3l2.4 1.4-2.4-1.4zm4.5-2.2l-2.4-1.4 2.4 1.4z" class="st95"/><path d="M320.6 94.6l-2.4-1.4.2.3 2.4 1.4-.2-.3z" class="st96"/><path d="M322.9 91.3l-2.4-1.4h-.4l2.4 1.4h.4z" class="st95"/><path d="M316.5 94.9l2.4 1.4v-.1l-2.4-1.3z" class="st96"/><path d="M323.2 89l-2.4-1.4h-.1l2.5 1.4c-.1 0 0 0 0 0z" class="st95"/><path d="M318.9 95.8l-2.4-1.4v.5l2.4 1.4v-.5z" class="st96"/><path d="M323.1 89l-2.4-1.4-.4.2 2.4 1.4.4-.2z" class="st95"/><path d="M321.1 86.2l2.4 1.4s-.1-.1 0-.2l-2.4-1.4v.2zm11.2-13.8l-2.4-1.4h-.1s-.1 0-.1.1l2.4 1.4.1-.1h.1zm-8.4 14l-2.4-1.4-.4.9 2.4 1.4.4-.9z" class="st96"/><path d="M332.1 72.5l-2.4-1.4-.6.8 2.4 1.4.6-.8zm-2.5 3.1l-2.4-1.4c.6.3 1 1.1 1 2.1 0 2.1-1.5 4.6-3.3 5.7l2.4 1.4c1.8-1 3.3-3.6 3.3-5.7-.1-1-.4-1.7-1-2.1zm-7.1 6.6l2.4 1.4c.6.4 1.4.3 2.3-.2l-2.4-1.4c-.9.5-1.7.6-2.3.2zm-7.8 13l2.4 1.4v-.1l-2.4-1.4v.1zm7.8-7.9l-2.4-1.4h-.1l2.4 1.4h.1c-.1 0 0 0 0 0zM317.3 95.9l-2.4-1.4-.2.6 2.4 1.4.2-.6zm5.1-8.5L320 86l-.4.5 2.4 1.4.4-.5z" class="st96"/><path d="M321 84.8l2.4 1.4c-.1-.1-.3-.2-.4-.3l-2.4-1.4c.1.2.3.3.4.3zM331.1 73l-2.4-1.4c-.1-.1-.3-.2-.5-.2l2.4 1.4c.2.1.3.1.5.2z" class="st95"/><path d="M320.8 89.3l-2.4-1.4c.4.2.6.7.6 1.3 0 1.3-.9 2.8-2 3.5l2.4 1.4c1.1-.6 2-2.2 2-3.5 0-.7-.2-1.1-.6-1.3zm-5.2 3.4l2.4 1.4c.4.2.9.2 1.4-.1l-2.4-1.4c-.6.3-1.1.4-1.4.1z" class="st96"/><path d="M319.8 85.4l2.4 1.4-2.4-1.4zM331 71.7l-2.4-1.4 2.4 1.4c-.1 0 0 0 0 0zm-16.3 22.6l2.4 1.4c-.1 0-.2-.1-.2-.2l-2.4-1.4c0 .1.1.2.2.2zm7-6.6l-2.4-1.4c-.1 0-.2-.1-.3-.1l2.4 1.4c.2 0 .3 0 .3.1zm-7.8 7l2.4 1.4-2.4-1.4zm7.8-7.9l-2.4-1.4 2.4 1.4z" class="st95"/><path d="M321.5 85.9l-2.4-1.4.7.9 2.4 1.4-.7-.9zm-5.6 9.6l-2.4-1.4.4.6 2.4 1.4-.4-.6zm5.8-8.7l-2.4-1.4-.7-.1 2.4 1.4.7.1zm9.2-15.1l-2.4-1.4-1.1-.1 2.4 1.4 1.1.1zm-14.6 23.2l-2.4-1.4-.4.5 2.4 1.4.4-.5z" class="st96"/><path d="M315.9 95.3l-2.4-1.4c0 .1-.1.1 0 .2l2.4 1.4v-.2zm6.3-10.5l-2.4-1.4-.6.8 2.4 1.4.6-.8zm-1.4 2.1l-2.4-1.4-.2.6 2.4 1.4.2-.6zm.1-.1l-2.4-1.4-.1.1 2.4 1.4.1-.1z" class="st96"/><path d="M321.6 85.6l-2.4-1.4c-.1.1-.1.2-.1.3l2.4 1.4c0-.1 0-.2.1-.3zm8-13.8l-2.4-1.4-.4.9 2.4 1.4.4-.9zm.2-.2l-2.4-1.4h-.1c-.1 0-.1.1-.2.2l2.4 1.4c.1-.1.1-.2.3-.2-.1 0 0 0 0 0z" class="st96"/><path d="M316.1 94.2l-2.4-1.4c0 .3.1.5.2.7l2.4 1.4c-.1-.2-.1-.5-.2-.7zm4.5-6.7l-2.4-1.4c-.2 0-.4.1-.7.2l2.4 1.4c.2-.1.5-.2.7-.2zm1.3-3.8l-2.4-1.4c.1.4.2.8.3 1.1l2.4 1.4c-.1-.3-.2-.7-.3-1.1zm7.3-11l-2.4-1.4c-.4 0-.7.2-1.1.3l2.4 1.4c.4-.1.7-.3 1.1-.3z" class="st97"/><path d="M313.2 93l2.4 1.4v-.1l-2.4-1.3zm6.7-5.9l-2.4-1.4h-.1l2.5 1.4zm-4.3 6.3l-2.4-1.4v1l2.4 1.4v-1zm.5-.4l-2.4-1.4-.4.3 2.4 1.4.4-.3zm2.8-5.3l-2.4-1.4v.5l2.4 1.4v-.5zm.9-.6l-2.4-1.4-.8.5 2.4 1.4.8-.5z" class="st96"/><path d="M315.7 93.3l-2.4-1.4c-.1 0-.1.1-.1.2l2.4 1.4c0-.1 0-.2.1-.2z" class="st96"/><path d="M316.3 92.1l-2.4-1.4c-.1.3-.2.6-.2.9l2.4 1.4c.1-.3.1-.6.2-.9zm2.6-3.9l-2.4-1.4c-.2.2-.5.4-.7.6l2.4 1.4c.2-.2.4-.4.7-.6z" class="st97"/><path d="M319 87.6l-2.4-1.4c-.1 0-.1.1-.1.2l2.4 1.4c0-.1 0-.2.1-.2zm-.4-4.9l2.4 1.4V84l-2.4-1.4v.1zm9.4-10.6l-2.4-1.4h-.1l2.4 1.4h.1z" class="st96"/><path d="M317.3 89.9l-2.4-1.4c-.2.3-.4.6-.5.9l2.4 1.4c.2-.3.3-.6.5-.9z" class="st97"/><path d="M313.5 90.7l2.4 1.4V92l-2.4-1.4v.1zm4.5-2.2l-2.4-1.4h-.1l2.4 1.4h.1zm-1.2 2.3l-2.4-1.4h-.4l2.4 1.4h.4zm.3-1.2l-2.4-1.4.2.3 2.4 1.4-.2-.3zm-.8 1.3l-2.4-1.4-.4 1 2.4 1.4.4-1zm1.5-2.3l-2.4-1.4-.7.9 2.4 1.4.7-.9z" class="st96"/><path d="M316.4 90.8l-2.4-1.4-.1.1 2.4 1.4s0-.1.1-.1z" class="st96"/><path d="M316.1 93c0-.3.1-.6.2-.9h-.4s-.1-.1 0-.1l.4-1s0-.1.1-.1h.4c.2-.3.3-.6.5-.9l-.2-.3v-.2l.7-.9h.1l.2.3c.2-.2.4-.4.7-.6v-.5c0-.1 0-.1.1-.2l.8-.5c.1 0 .1 0 .1.1v.5c.2-.1.5-.2.7-.2l.2-.6.1-.1.7.1s.1.1 0 .1l-.2.6c.2.1.4.2.5.3l.4-.5h.1l.4.6v.2l-.4.5c.1.2.2.4.2.7l.4-.3c.1 0 .1 0 .1.1v.9c0 .1 0 .1-.1.2l-.4.3c0 .3-.1.6-.2.9h.4s.1.1 0 .1l-.4 1s0 .1-.1.1h-.4c-.2.3-.3.6-.5.9l.2.3v.2l-.7.9h-.1l-.2-.3c-.2.2-.4.4-.7.6v.5c0 .1 0 .1-.1.2l-.8.5c-.1 0-.1 0-.1-.1v-.5c-.2.1-.5.2-.7.2l-.2.6s0 .1-.1.1l-.7-.1s-.1-.1 0-.1l.2-.6c-.2-.1-.4-.2-.5-.3l-.4.5h-.1l-.4-.6v-.2l.4-.5c-.1-.2-.2-.4-.2-.7l-.5.3c-.1 0-.1 0-.1-.1v-.9c0-.1 0-.1.1-.2l.5-.3zm3.3 1c1.1-.6 2-2.2 2-3.5 0-1.3-.9-1.8-2-1.2-1.1.6-2 2.2-2 3.5 0 1.3.9 1.8 2 1.2z" class="st95"/><path d="M317.1 89.4l-2.4-1.4c0 .1-.1.1 0 .2l2.4 1.4v-.2zm3.9-6.9l-2.4-1.4v1.5L321 84v-1.5zm.9-.7l-2.4-1.4-.7.4 2.4 1.4.7-.4zm4.5-8.7l-2.4-1.4v.8l2.4 1.4v-.8zm1.5-1l-2.4-1.4-1.3.8 2.4 1.4 1.3-.8z" class="st96"/><path d="M321.2 82.2l-2.4-1.4c-.1.1-.2.2-.2.3l2.4 1.4c0-.1.1-.3.2-.3z" class="st96"/><path d="M322.2 80.3l-2.4-1.4-.3 1.5 2.4 1.4.3-1.5zm4.2-6.3l-2.4-1.4c-.4.3-.8.6-1.1 1l2.4 1.4c.3-.4.7-.7 1.1-1z" class="st97"/><path d="M326.6 72.8l-2.4-1.4c-.1.1-.2.2-.2.3l2.4 1.4c0-.1.1-.2.2-.3z" class="st96"/><path d="M323.8 76.7l-2.4-1.4c-.3.5-.6.9-.8 1.4l2.4 1.4c.3-.4.5-.9.8-1.4z" class="st97"/><path d="M319.1 78.8l2.4 1.4s-.1-.1 0-.2l-2.4-1.4c-.1.1 0 .2 0 .2zm5.8-4.4l-2.4-1.4h-.1s-.1 0-.1.1l2.4 1.4.1-.1h.1zm-1.9 3.8l-2.4-1.4h-.6l2.4 1.4h.6zm.5-2l-2.4-1.4.4.5 2.4 1.4-.4-.5z" class="st96"/><path d="M322.2 78.3l-2.4-1.4-.7 1.7 2.4 1.4.7-1.7zm2.5-3.8l-2.4-1.4-1.1 1.4 2.4 1.4 1.1-1.4zm-2.3 3.6l-2.4-1.4h-.1c-.1 0-.1.1-.1.2l2.4 1.4c0-.1.1-.1.2-.2-.1 0 0 0 0 0zm1.1-2.2l-2.4-1.4c-.1.1-.1.2-.1.3l2.4 1.4s.1-.2.1-.3z" class="st96"/><path d="M321.9 81.8l.3-1.5h-.6c-.1 0-.1-.1-.1-.2l.7-1.7c0-.1.1-.2.1-.2h.1l.6.1c.2-.5.5-1 .8-1.4l-.4-.5c0-.1 0-.2.1-.3l1.1-1.4.1-.1h.2l.4.5c.4-.4.7-.7 1.1-1v-.8c0-.1.1-.2.2-.3l1.3-.8c.1-.1.2 0 .2.1v.7c.4-.2.8-.3 1.1-.3l.4-.9c0-.1.1-.2.2-.2h.1l1.1.1c.1 0 .1.1.1.2l-.4.9c.3.1.6.3.8.5l.6-.8.1-.1h.2l.7.9c0 .1 0 .2-.1.3l-.6.8c.1.3.2.7.3 1.1l.7-.4c.1-.1.2 0 .2.1v1.5c0 .1-.1.2-.2.3l-.7.4-.3 1.5.6.1c.1 0 .1.1.1.2l-.7 1.7c0 .1-.1.2-.2.2h-.1l-.6-.1c-.2.5-.5 1-.8 1.4l.3.6c0 .1 0 .2-.1.3l-1.1 1.4-.1.1h-.2l-.4-.5c-.4.4-.7.7-1.1 1v.8c0 .1-.1.2-.2.3l-1.3.8c-.1 0-.2 0-.2-.1v-.8c-.4.2-.8.3-1.1.3l-.4.9c0 .1-.1.2-.2.2h-.1l-1.1-.1c-.1 0-.1-.1-.1-.2l.4-.9c-.3-.1-.6-.3-.8-.5l-.6.8-.1.1h-.2l-.7-.9c0-.1 0-.2.1-.3l.6-.8c-.1-.3-.2-.7-.3-1.1l-.7.4c-.1 0-.2 0-.2-.1v-1.5c0-.1.1-.2.2-.3l.9-.5zm5.4 1.6c1.8-1 3.3-3.6 3.3-5.7s-1.5-2.9-3.3-1.9c-1.8 1-3.3 3.6-3.3 5.7s1.4 3 3.3 1.9z" class="st95"/></g></g><g><path d="M152.6 242.8v18c0 10.9 11.2 20.5 27.6 25 1.7.5 3.6.9 5.5 1.3.7.1 1.4.3 2.2.4.6.1 1.1.2 1.7.3l1.8.3c1.5.2 3.1.3 4.7.4.7.1 1.4.1 2.1.1 1.2 0 2.5.1 3.7.1s2.5 0 3.7-.1c.7 0 1.4-.1 2-.1 1.6-.1 3.1-.2 4.7-.4.7-.1 1.3-.1 1.9-.3.6 0 1.1-.2 1.7-.3.8-.1 1.4-.3 2.2-.4 1.9-.3 3.7-.8 5.5-1.3.9-.3 1.9-.5 2.8-.8 1.7-.6 3.4-1.2 5-1.9.6-.2 1.1-.4 1.6-.7 1.3-.6 2.6-1.3 3.8-1.9.5-.3 1.1-.6 1.6-1 1.6-1 3.2-2.1 4.6-3.3.4-.3.8-.7 1.1-1 .8-.8 1.6-1.6 2.3-2.4.7-.8 1.3-1.5 1.8-2.3.4-.6.8-1.2 1.1-1.9.3-.6.6-1.3.9-1.9 0 0 .1-.2.1-.3.1-.3.2-.6.3-1 0 0 .1-.4.2-.6.3-1.3.5-2.7.5-4.1v-18c0-9.4-8.2-17.7-20.9-22.7-1.4-.6-3-1.2-4.6-1.6-.7-.3-1.4-.5-2.2-.7-6.6-1.8-13.9-2.8-21.7-2.8-7.8 0-15.1 1-21.7 2.8-16.4 4.7-27.6 14.1-27.6 25.1z" class="st0"/><path d="M180.2 217.8c.3-.1.6 0 .8-.1V286c-.3-.1-.6-.1-.8-.2-16.4-4.5-27.6-14-27.6-25v-18c0-11 11.2-20.4 27.6-25z" class="st1"/><path d="M209.5 216c4.8.4 9.9.7 14.1 1.8.7.2 1.4.4 2.2.7 1.6.5 3.1 1 4.6 1.6 12.6 5 20.9 13.3 20.9 22.7v18c0 1.4-.2 2.7-.5 4.1-.1.2-.1.4-.1.4-.2.6-.3.8-.4 1.2 0 .1-.1.3-.1.3-.3.7-.6 1.4-.9 2-.3.6-.7 1.2-1.1 1.9-.5.8-1.1 1.6-1.8 2.3-.7.8-1.4 1.6-2.3 2.4-.3.3-.7.7-1.1 1-1.4 1.2-2.9 2.3-4.6 3.3-.5.3-1.1.7-1.6 1-1.2.7-2.5 1.3-3.8 1.9-.5.3-1.1.5-1.6.7-1.6.7-3.2 1.3-5 1.9-.9.3-1.9.6-2.8.8-1.8.5-3.6 1-5.5 1.3-.8.1-1.4.3-2.2.4-.5.1-1.1.2-1.7.3-.7.1-1.3.2-1.9.3-.9.1-1.9.2-2.8.3V216z" class="st2"/><path d="M236 223.7c8.8 5 15.1 11.4 15.1 19.1v18c0 1.4-.2 2.7-.5 4.1-.1.2-.1.4-.1.4-.2.6-.3.8-.4 1.2 0 .1-.1.3-.1.3-.3.7-.6 1.4-.9 2-.3.6-.7 1.2-1.1 1.9-.5.8-1.1 1.6-1.8 2.3-.7.8-1.4 1.6-2.3 2.4-.3.3-.7.7-1.1 1-1.4 1.2-2.9 2.3-4.6 3.3-.5.3-1.1.7-1.6 1-.2.1-.5.2-.7.3v-57.3z" class="st3"/><ellipse cx="202.2" cy="240.3" class="st4" rx="49.4" ry="27.9"/><path d="M152.6 217.8v18c0 10.9 11.2 20.5 27.6 25 1.7.5 3.6.9 5.5 1.3.7.1 1.4.3 2.2.4.6.1 1.1.2 1.7.3l1.8.3c1.5.2 3.1.3 4.7.4.7.1 1.4.1 2.1.1 1.2 0 2.5.1 3.7.1s2.5 0 3.7-.1c.7 0 1.4-.1 2-.1 1.6-.1 3.1-.2 4.7-.4.7-.1 1.3-.1 1.9-.3.6 0 1.1-.2 1.7-.3.8-.1 1.4-.3 2.2-.4 1.9-.3 3.7-.8 5.5-1.3.9-.3 1.9-.5 2.8-.8 1.7-.6 3.4-1.2 5-1.9.6-.2 1.1-.4 1.6-.7 1.3-.6 2.6-1.3 3.8-1.9.5-.3 1.1-.6 1.6-1 1.6-1 3.2-2.1 4.6-3.3.4-.3.8-.7 1.1-1 .8-.8 1.6-1.6 2.3-2.4.7-.8 1.3-1.5 1.8-2.3.4-.6.8-1.2 1.1-1.9.3-.6.6-1.3.9-1.9 0 0 .1-.2.1-.3.1-.3.2-.6.3-1 0 0 .1-.4.2-.6.3-1.3.5-2.7.5-4.1v-18c0-9.4-8.2-17.7-20.9-22.7-1.4-.6-3-1.2-4.6-1.6-.7-.3-1.4-.5-2.2-.7-6.6-1.8-13.9-2.8-21.7-2.8-7.8 0-15.1 1-21.7 2.8-16.4 4.6-27.6 14.1-27.6 25.1z" class="st0"/><path d="M180.2 192.8c.3-.1.6 0 .8-.1V261c-.3-.1-.6-.1-.8-.2-16.4-4.5-27.6-14-27.6-25v-18c0-11 11.2-20.5 27.6-25z" class="st1"/><path d="M209.5 190.9c4.8.4 9.9.7 14.1 1.8.7.2 1.4.4 2.2.7 1.6.5 3.1 1 4.6 1.6 12.6 5 20.9 13.3 20.9 22.7v18c0 1.4-.2 2.7-.5 4.1-.1.2-.1.4-.1.4-.2.6-.3.8-.4 1.2 0 .1-.1.3-.1.3-.3.7-.6 1.4-.9 2-.3.6-.7 1.2-1.1 1.9-.5.8-1.1 1.6-1.8 2.3-.7.8-1.4 1.6-2.3 2.4-.3.3-.7.7-1.1 1-1.4 1.2-2.9 2.3-4.6 3.3-.5.3-1.1.7-1.6 1-1.2.7-2.5 1.3-3.8 1.9-.5.3-1.1.5-1.6.7-1.6.7-3.2 1.3-5 1.9-.9.3-1.9.6-2.8.8-1.8.5-3.6 1-5.5 1.3-.8.1-1.4.3-2.2.4-.5.1-1.1.2-1.7.3-.7.1-1.3.2-1.9.3-.9.1-1.9.2-2.8.3v-72.6z" class="st2"/><path d="M236 198.7c8.8 5 15.1 11.4 15.1 19.1v18c0 1.4-.2 2.7-.5 4.1-.1.2-.1.4-.1.4-.2.6-.3.8-.4 1.2 0 .1-.1.3-.1.3-.3.7-.6 1.4-.9 2-.3.6-.7 1.2-1.1 1.9-.5.8-1.1 1.6-1.8 2.3-.7.8-1.4 1.6-2.3 2.4-.3.3-.7.7-1.1 1-1.4 1.2-2.9 2.3-4.6 3.3-.5.3-1.1.7-1.6 1-.2.1-.5.2-.7.3v-57.3z" class="st3"/><ellipse cx="202.2" cy="215.2" class="st4" rx="49.4" ry="27.9"/><g><path d="M152.6 192.7v18c0 10.9 11.2 20.5 27.6 25 1.7.5 3.6.9 5.5 1.3.7.1 1.4.3 2.2.4.6.1 1.1.2 1.7.3l1.8.3c1.5.2 3.1.3 4.7.4.7.1 1.4.1 2.1.1 1.2 0 2.5.1 3.7.1s2.5 0 3.7-.1c.7 0 1.4-.1 2-.1 1.6-.1 3.1-.2 4.7-.4.7-.1 1.3-.1 1.9-.3.6 0 1.1-.2 1.7-.3.8-.1 1.4-.3 2.2-.4 1.9-.3 3.7-.8 5.5-1.3.9-.3 1.9-.5 2.8-.8 1.7-.6 3.4-1.2 5-1.9.6-.2 1.1-.4 1.6-.7 1.3-.6 2.6-1.3 3.8-1.9.5-.3 1.1-.6 1.6-1 1.6-1 3.2-2.1 4.6-3.3.4-.3.8-.7 1.1-1 .8-.8 1.6-1.6 2.3-2.4.7-.8 1.3-1.5 1.8-2.3.4-.6.8-1.2 1.1-1.9.3-.6.6-1.3.9-1.9 0 0 .1-.2.1-.3.1-.3.2-.6.3-1 0 0 .1-.4.2-.6.3-1.3.5-2.7.5-4.1v-18c0-9.4-8.2-17.7-20.9-22.7-1.4-.6-3-1.2-4.6-1.6-.7-.3-1.4-.5-2.2-.7-6.6-1.8-13.9-2.8-21.7-2.8-7.8 0-15.1 1-21.7 2.8-16.4 4.7-27.6 14.1-27.6 25.1z" class="st0"/><path d="M180.2 167.7c.3-.1.6 0 .8-.1v68.3c-.3-.1-.6-.1-.8-.2-16.4-4.5-27.6-14-27.6-25v-18c0-11 11.2-20.4 27.6-25z" class="st1"/><path d="M209.5 165.9c4.8.4 9.9.7 14.1 1.8.7.2 1.4.4 2.2.7 1.6.5 3.1 1 4.6 1.6 12.6 5 20.9 13.3 20.9 22.7v18c0 1.4-.2 2.7-.5 4.1-.1.2-.1.4-.1.4-.2.6-.3.8-.4 1.2 0 .1-.1.3-.1.3-.3.7-.6 1.4-.9 2-.3.6-.7 1.2-1.1 1.9-.5.8-1.1 1.6-1.8 2.3-.7.8-1.4 1.6-2.3 2.4-.3.3-.7.7-1.1 1-1.4 1.2-2.9 2.3-4.6 3.3-.5.3-1.1.7-1.6 1-1.2.7-2.5 1.3-3.8 1.9-.5.3-1.1.5-1.6.7-1.6.7-3.2 1.3-5 1.9-.9.3-1.9.6-2.8.8-1.8.5-3.6 1-5.5 1.3-.8.1-1.4.3-2.2.4-.5.1-1.1.2-1.7.3-.7.1-1.3.2-1.9.3-.9.1-1.9.2-2.8.3v-72.6z" class="st2"/><path d="M236 173.6c8.8 5 15.1 11.4 15.1 19.1v18c0 1.4-.2 2.7-.5 4.1-.1.2-.1.4-.1.4-.2.6-.3.8-.4 1.2 0 .1-.1.3-.1.3-.3.7-.6 1.4-.9 2-.3.6-.7 1.2-1.1 1.9-.5.8-1.1 1.6-1.8 2.3-.7.8-1.4 1.6-2.3 2.4-.3.3-.7.7-1.1 1-1.4 1.2-2.9 2.3-4.6 3.3-.5.3-1.1.7-1.6 1-.2.1-.5.2-.7.3v-57.3z" class="st3"/></g><ellipse cx="202.2" cy="190.2" class="st5" rx="49.4" ry="27.9"/><path fill="#4cbb83" d="M167.3 188.8c0-10.9 15.6-19.7 34.9-19.7 19.3 0 34.9 8.8 34.9 19.7 0 10.9-15.6 19.7-34.9 19.7-19.2 0-34.9-8.8-34.9-19.7z"/><path d="M202.2 203.9c-17.8 0-30.2-7.9-30.2-15s12.4-15 30.2-15c17.8 0 30.2 7.9 30.2 15 .1 7-12.4 15-30.2 15z" class="st5"/></g><g><path d="M161 265.3L85.1 310l2 3.5 2.2 3.8 75.9-44.7c1.1-.7 1.1-2.8 0-4.8-1.2-2-3-3.1-4.2-2.5z" class="st14"/><path d="M165.2 267.8l-78.1 45.7 2.2 3.8 75.9-44.7c1.1-.6 1.1-2.8 0-4.8z" class="st15"/><path d="M85.1 310c-1.1.7-1.1 2.8 0 4.8 1.2 2 3 3.1 4.2 2.4 1.1-.7 1.1-2.8 0-4.8-1.2-1.9-3.1-3-4.2-2.4z" class="st16"/></g><g><path d="M240 266.9l66 38.8-2 3.5-2.2 3.8-66-38.8c-1.1-.7-1.1-2.8 0-4.8 1.3-2.1 3.1-3.2 4.2-2.5z" class="st14"/><path d="M235.9 269.3l68.2 39.8-2.2 3.8-66-38.8c-1.2-.6-1.2-2.7 0-4.8z" class="st15"/><path d="M306 305.7c1.1.7 1.1 2.8 0 4.8-1.2 2-3 3.1-4.1 2.4-1.1-.7-1.1-2.8 0-4.8 1.2-2 3-3.1 4.1-2.4z" class="st16"/></g><g><path d="M42.6 315.4v11c0 6.7 6.9 12.5 16.8 15.2 1.1.3 2.2.6 3.3.8.4.1.9.2 1.3.2.3.1.7.1 1 .2.4.1.7.1 1.1.2.9.1 1.9.2 2.9.3.4 0 .8.1 1.3.1h4.4c.4 0 .8 0 1.2-.1 1-.1 1.9-.1 2.9-.3.4 0 .8-.1 1.2-.2.3 0 .7-.1 1-.2.5-.1.9-.2 1.3-.2 1.1-.2 2.3-.5 3.4-.8.6-.2 1.1-.3 1.7-.5 1.1-.3 2.1-.7 3-1.1.3-.1.7-.3 1-.4.8-.4 1.6-.8 2.3-1.2.3-.2.7-.4 1-.6 1-.6 1.9-1.3 2.8-2 .2-.2.5-.4.7-.6l1.4-1.4c.4-.5.8-.9 1.1-1.4.2-.4.5-.7.7-1.1.2-.4.4-.8.5-1.2 0 0 .1-.1.1-.2.1-.2.1-.4.2-.6 0 0 .1-.2.1-.3.2-.8.3-1.6.3-2.5v-11c0-5.7-5-10.8-12.7-13.8-.9-.4-1.8-.7-2.8-1-.4-.2-.9-.3-1.3-.4-4-1.1-8.5-1.7-13.2-1.7-4.8 0-9.2.6-13.2 1.7-9.9 2.6-16.8 8.4-16.8 15.1z" class="st0"/><path d="M59.5 300.1c.2 0 .3 0 .5-.1v41.7c-.2-.1-.3-.1-.5-.1-10-2.8-16.8-8.6-16.8-15.2v-11c-.1-6.7 6.8-12.5 16.8-15.3z" class="st1"/><path d="M77.3 299c3 .3 6 .4 8.6 1.1.4.1.9.3 1.3.4 1 .3 1.9.6 2.8 1 7.7 3 12.7 8.1 12.7 13.8v11c0 .8-.1 1.7-.3 2.5 0 .1-.1.2-.1.2-.1.3-.2.5-.2.7 0 .1-.1.2-.1.2-.2.4-.3.8-.6 1.2-.2.4-.4.7-.7 1.1-.3.5-.7 1-1.1 1.4-.4.5-.9 1-1.4 1.4-.2.2-.4.4-.7.6-.8.7-1.8 1.4-2.8 2-.3.2-.7.4-1 .6-.7.4-1.5.8-2.3 1.2-.3.2-.7.3-1 .4-1 .4-2 .8-3 1.1-.6.2-1.1.4-1.7.5-1.1.3-2.2.6-3.4.8-.5.1-.9.2-1.3.2-.3.1-.7.1-1 .2-.4.1-.8.1-1.2.2-.6.1-1.1.1-1.7.2v-44z" class="st2"/><path d="M93.5 303.8c5.4 3.1 9.2 7 9.2 11.6v11c0 .8-.1 1.7-.3 2.5 0 .1-.1.2-.1.2-.1.3-.2.5-.2.7 0 .1-.1.2-.1.2-.2.4-.3.8-.6 1.2-.2.4-.4.7-.7 1.1-.3.5-.7 1-1.1 1.4-.4.5-.9 1-1.4 1.4-.2.2-.4.4-.7.6-.8.7-1.8 1.4-2.8 2-.3.2-.7.4-1 .6-.1.1-.3.1-.4.2v-34.7z" class="st3"/><ellipse cx="72.9" cy="313.8" class="st4" rx="30.1" ry="17"/><path d="M42.6 300.1v11c0 6.7 6.9 12.5 16.8 15.2 1.1.3 2.2.6 3.3.8.4.1.9.2 1.3.2.3.1.7.1 1 .2.4.1.7.1 1.1.2.9.1 1.9.2 2.9.3.4 0 .8.1 1.3.1h4.4c.4 0 .8 0 1.2-.1 1-.1 1.9-.1 2.9-.3.4 0 .8-.1 1.2-.2.3 0 .7-.1 1-.2.5-.1.9-.2 1.3-.2 1.1-.2 2.3-.5 3.4-.8.6-.2 1.1-.3 1.7-.5 1.1-.3 2.1-.7 3-1.1.3-.1.7-.3 1-.4.8-.4 1.6-.8 2.3-1.2.3-.2.7-.4 1-.6 1-.6 1.9-1.3 2.8-2 .2-.2.5-.4.7-.6l1.4-1.4c.4-.5.8-.9 1.1-1.4.2-.4.5-.7.7-1.1.2-.4.4-.8.5-1.2 0 0 .1-.1.1-.2.1-.2.1-.4.2-.6 0 0 .1-.2.1-.3.2-.8.3-1.6.3-2.5v-11c0-5.7-5-10.8-12.7-13.8-.9-.4-1.8-.7-2.8-1-.4-.2-.9-.3-1.3-.4-4-1.1-8.5-1.7-13.2-1.7-4.8 0-9.2.6-13.2 1.7-9.9 2.6-16.8 8.4-16.8 15.1z" class="st0"/><path d="M59.5 284.9c.2 0 .3 0 .5-.1v41.7c-.2-.1-.3-.1-.5-.1-10-2.8-16.8-8.6-16.8-15.2v-11c-.1-6.8 6.8-12.6 16.8-15.3z" class="st1"/><path d="M77.3 283.8c3 .3 6 .4 8.6 1.1.4.1.9.3 1.3.4 1 .3 1.9.6 2.8 1 7.7 3 12.7 8.1 12.7 13.8v11c0 .8-.1 1.7-.3 2.5 0 .1-.1.2-.1.2-.1.3-.2.5-.2.7 0 .1-.1.2-.1.2-.2.4-.3.8-.6 1.2-.2.4-.4.7-.7 1.1-.3.5-.7 1-1.1 1.4-.4.5-.9 1-1.4 1.4-.2.2-.4.4-.7.6-.8.7-1.8 1.4-2.8 2-.3.2-.7.4-1 .6-.7.4-1.5.8-2.3 1.2-.3.2-.7.3-1 .4-1 .4-2 .8-3 1.1-.6.2-1.1.4-1.7.5-1.1.3-2.2.6-3.4.8-.5.1-.9.2-1.3.2-.3.1-.7.1-1 .2-.4.1-.8.1-1.2.2-.6.1-1.1.1-1.7.2v-44z" class="st2"/><path d="M93.5 288.5c5.4 3.1 9.2 7 9.2 11.6v11c0 .8-.1 1.7-.3 2.5 0 .1-.1.2-.1.2-.1.3-.2.5-.2.7 0 .1-.1.2-.1.2-.2.4-.3.8-.6 1.2-.2.4-.4.7-.7 1.1-.3.5-.7 1-1.1 1.4-.4.5-.9 1-1.4 1.4-.2.2-.4.4-.7.6-.8.7-1.8 1.4-2.8 2-.3.2-.7.4-1 .6-.1.1-.3.1-.4.2v-34.7z" class="st3"/><ellipse cx="72.9" cy="298.6" class="st4" rx="30.1" ry="17"/><g><path d="M42.6 284.8v11c0 6.7 6.9 12.5 16.8 15.2 1.1.3 2.2.6 3.3.8.4.1.9.2 1.3.2.3.1.7.1 1 .2.4.1.7.1 1.1.2.9.1 1.9.2 2.9.3.4 0 .8.1 1.3.1h4.4c.4 0 .8 0 1.2-.1 1-.1 1.9-.1 2.9-.3.4 0 .8-.1 1.2-.2.3 0 .7-.1 1-.2.5-.1.9-.2 1.3-.2 1.1-.2 2.3-.5 3.4-.8.6-.2 1.1-.3 1.7-.5 1.1-.3 2.1-.7 3-1.1.3-.1.7-.3 1-.4.8-.4 1.6-.8 2.3-1.2.3-.2.7-.4 1-.6 1-.6 1.9-1.3 2.8-2 .2-.2.5-.4.7-.6l1.4-1.4c.4-.5.8-.9 1.1-1.4.2-.4.5-.7.7-1.1.2-.4.4-.8.5-1.2 0 0 .1-.1.1-.2.1-.2.1-.4.2-.6 0 0 .1-.2.1-.3.2-.8.3-1.6.3-2.5v-11c0-5.7-5-10.8-12.7-13.8-.9-.4-1.8-.7-2.8-1-.4-.2-.9-.3-1.3-.4-4-1.1-8.5-1.7-13.2-1.7-4.8 0-9.2.6-13.2 1.7-9.9 2.7-16.8 8.4-16.8 15.1z" class="st0"/><path d="M59.5 269.6c.2 0 .3 0 .5-.1v41.7c-.2-.1-.3-.1-.5-.1-10-2.8-16.8-8.6-16.8-15.2v-11c-.1-6.8 6.8-12.5 16.8-15.3z" class="st1"/><path d="M77.3 268.5c3 .3 6 .4 8.6 1.1.4.1.9.3 1.3.4 1 .3 1.9.6 2.8 1 7.7 3 12.7 8.1 12.7 13.8v11c0 .8-.1 1.7-.3 2.5 0 .1-.1.2-.1.2-.1.3-.2.5-.2.7 0 .1-.1.2-.1.2-.2.4-.3.8-.6 1.2-.2.4-.4.7-.7 1.1-.3.5-.7 1-1.1 1.4-.4.5-.9 1-1.4 1.4-.2.2-.4.4-.7.6-.8.7-1.8 1.4-2.8 2-.3.2-.7.4-1 .6-.7.4-1.5.8-2.3 1.2-.3.2-.7.3-1 .4-1 .4-2 .8-3 1.1-.6.2-1.1.4-1.7.5-1.1.3-2.2.6-3.4.8-.5.1-.9.2-1.3.2-.3.1-.7.1-1 .2-.4.1-.8.1-1.2.2-.6.1-1.1.1-1.7.2v-44z" class="st2"/><path d="M93.5 273.2c5.4 3.1 9.2 7 9.2 11.6v11c0 .8-.1 1.7-.3 2.5 0 .1-.1.2-.1.2-.1.3-.2.5-.2.7 0 .1-.1.2-.1.2-.2.4-.3.8-.6 1.2-.2.4-.4.7-.7 1.1-.3.5-.7 1-1.1 1.4-.4.5-.9 1-1.4 1.4-.2.2-.4.4-.7.6-.8.7-1.8 1.4-2.8 2-.3.2-.7.4-1 .6-.1.1-.3.1-.4.2v-34.7z" class="st3"/></g><ellipse cx="72.9" cy="283.3" class="st5" rx="30.1" ry="17"/><path fill="#4cb7b9" d="M51.6 282.5c0-6.6 9.5-12 21.3-12s21.3 5.4 21.3 12-9.5 12-21.3 12-21.3-5.4-21.3-12z"/><path d="M72.9 291.6c-10.9 0-18.4-4.8-18.4-9.2 0-4.3 7.6-9.2 18.4-9.2 10.9 0 18.4 4.8 18.4 9.2 0 4.4-7.5 9.2-18.4 9.2z" class="st5"/></g><g><path d="M296.6 313.4v11c0 6.7 6.9 12.5 16.8 15.2 1.1.3 2.2.6 3.3.8.4.1.9.2 1.3.2.3.1.7.1 1 .2.4.1.7.1 1.1.2.9.1 1.9.2 2.9.3.4 0 .8.1 1.3.1h4.4c.4 0 .8 0 1.2-.1 1-.1 1.9-.1 2.9-.3.4 0 .8-.1 1.2-.2.3 0 .7-.1 1-.2.5-.1.9-.2 1.3-.2 1.1-.2 2.3-.5 3.4-.8.6-.2 1.1-.3 1.7-.5 1.1-.3 2.1-.7 3-1.1.3-.1.7-.3 1-.4.8-.4 1.6-.8 2.3-1.2.3-.2.7-.4 1-.6 1-.6 1.9-1.3 2.8-2 .2-.2.5-.4.7-.6l1.4-1.4c.4-.5.8-.9 1.1-1.4.2-.4.5-.7.7-1.1.2-.4.4-.8.5-1.2 0 0 .1-.1.1-.2.1-.2.1-.4.2-.6 0 0 .1-.2.1-.3.2-.8.3-1.6.3-2.5v-11c0-5.7-5-10.8-12.7-13.8-.9-.4-1.8-.7-2.8-1-.4-.2-.9-.3-1.3-.4-4-1.1-8.5-1.7-13.2-1.7-4.8 0-9.2.6-13.2 1.7-9.9 2.6-16.8 8.4-16.8 15.1z" class="st0"/><path d="M313.5 298.1c.2 0 .3 0 .5-.1v41.7c-.2-.1-.3-.1-.5-.1-10-2.8-16.8-8.6-16.8-15.2v-11c-.1-6.7 6.8-12.5 16.8-15.3z" class="st1"/><path d="M331.3 297c3 .3 6 .4 8.6 1.1.4.1.9.3 1.3.4 1 .3 1.9.6 2.8 1 7.7 3 12.7 8.1 12.7 13.8v11c0 .8-.1 1.7-.3 2.5 0 .1-.1.2-.1.2-.1.3-.2.5-.2.7 0 .1-.1.2-.1.2-.2.4-.3.8-.6 1.2-.2.4-.4.7-.7 1.1-.3.5-.7 1-1.1 1.4-.4.5-.9 1-1.4 1.4-.2.2-.4.4-.7.6-.8.7-1.8 1.4-2.8 2-.3.2-.7.4-1 .6-.7.4-1.5.8-2.3 1.2-.3.2-.7.3-1 .4-1 .4-2 .8-3 1.1-.6.2-1.1.4-1.7.5-1.1.3-2.2.6-3.4.8-.5.1-.9.2-1.3.2-.3.1-.7.1-1 .2-.4.1-.8.1-1.2.2-.6.1-1.1.1-1.7.2v-44z" class="st2"/><path d="M347.5 301.8c5.4 3.1 9.2 7 9.2 11.6v11c0 .8-.1 1.7-.3 2.5 0 .1-.1.2-.1.2-.1.3-.2.5-.2.7 0 .1-.1.2-.1.2-.2.4-.3.8-.6 1.2-.2.4-.4.7-.7 1.1-.3.5-.7 1-1.1 1.4-.4.5-.9 1-1.4 1.4-.2.2-.4.4-.7.6-.8.7-1.8 1.4-2.8 2-.3.2-.7.4-1 .6-.1.1-.3.1-.4.2v-34.7z" class="st3"/><ellipse cx="326.9" cy="311.8" class="st4" rx="30.1" ry="17"/><path d="M296.6 298.1v11c0 6.7 6.9 12.5 16.8 15.2 1.1.3 2.2.6 3.3.8.4.1.9.2 1.3.2.3.1.7.1 1 .2.4.1.7.1 1.1.2.9.1 1.9.2 2.9.3.4 0 .8.1 1.3.1h4.4c.4 0 .8 0 1.2-.1 1-.1 1.9-.1 2.9-.3.4 0 .8-.1 1.2-.2.3 0 .7-.1 1-.2.5-.1.9-.2 1.3-.2 1.1-.2 2.3-.5 3.4-.8.6-.2 1.1-.3 1.7-.5 1.1-.3 2.1-.7 3-1.1.3-.1.7-.3 1-.4.8-.4 1.6-.8 2.3-1.2.3-.2.7-.4 1-.6 1-.6 1.9-1.3 2.8-2 .2-.2.5-.4.7-.6l1.4-1.4c.4-.5.8-.9 1.1-1.4.2-.4.5-.7.7-1.1.2-.4.4-.8.5-1.2 0 0 .1-.1.1-.2.1-.2.1-.4.2-.6 0 0 .1-.2.1-.3.2-.8.3-1.6.3-2.5v-11c0-5.7-5-10.8-12.7-13.8-.9-.4-1.8-.7-2.8-1-.4-.2-.9-.3-1.3-.4-4-1.1-8.5-1.7-13.2-1.7-4.8 0-9.2.6-13.2 1.7-9.9 2.6-16.8 8.4-16.8 15.1z" class="st0"/><path d="M313.5 282.9c.2 0 .3 0 .5-.1v41.7c-.2-.1-.3-.1-.5-.1-10-2.8-16.8-8.6-16.8-15.2v-11c-.1-6.8 6.8-12.6 16.8-15.3z" class="st1"/><path d="M331.3 281.8c3 .3 6 .4 8.6 1.1.4.1.9.3 1.3.4 1 .3 1.9.6 2.8 1 7.7 3 12.7 8.1 12.7 13.8v11c0 .8-.1 1.7-.3 2.5 0 .1-.1.2-.1.2-.1.3-.2.5-.2.7 0 .1-.1.2-.1.2-.2.4-.3.8-.6 1.2-.2.4-.4.7-.7 1.1-.3.5-.7 1-1.1 1.4-.4.5-.9 1-1.4 1.4-.2.2-.4.4-.7.6-.8.7-1.8 1.4-2.8 2-.3.2-.7.4-1 .6-.7.4-1.5.8-2.3 1.2-.3.2-.7.3-1 .4-1 .4-2 .8-3 1.1-.6.2-1.1.4-1.7.5-1.1.3-2.2.6-3.4.8-.5.1-.9.2-1.3.2-.3.1-.7.1-1 .2-.4.1-.8.1-1.2.2-.6.1-1.1.1-1.7.2v-44z" class="st2"/><path d="M347.5 286.5c5.4 3.1 9.2 7 9.2 11.6v11c0 .8-.1 1.7-.3 2.5 0 .1-.1.2-.1.2-.1.3-.2.5-.2.7 0 .1-.1.2-.1.2-.2.4-.3.8-.6 1.2-.2.4-.4.7-.7 1.1-.3.5-.7 1-1.1 1.4-.4.5-.9 1-1.4 1.4-.2.2-.4.4-.7.6-.8.7-1.8 1.4-2.8 2-.3.2-.7.4-1 .6-.1.1-.3.1-.4.2v-34.7z" class="st3"/><ellipse cx="326.9" cy="296.6" class="st4" rx="30.1" ry="17"/><g><path d="M296.6 282.8v11c0 6.7 6.9 12.5 16.8 15.2 1.1.3 2.2.6 3.3.8.4.1.9.2 1.3.2.3.1.7.1 1 .2.4.1.7.1 1.1.2.9.1 1.9.2 2.9.3.4 0 .8.1 1.3.1h4.4c.4 0 .8 0 1.2-.1 1-.1 1.9-.1 2.9-.3.4 0 .8-.1 1.2-.2.3 0 .7-.1 1-.2.5-.1.9-.2 1.3-.2 1.1-.2 2.3-.5 3.4-.8.6-.2 1.1-.3 1.7-.5 1.1-.3 2.1-.7 3-1.1.3-.1.7-.3 1-.4.8-.4 1.6-.8 2.3-1.2.3-.2.7-.4 1-.6 1-.6 1.9-1.3 2.8-2 .2-.2.5-.4.7-.6l1.4-1.4c.4-.5.8-.9 1.1-1.4.2-.4.5-.7.7-1.1.2-.4.4-.8.5-1.2 0 0 .1-.1.1-.2.1-.2.1-.4.2-.6 0 0 .1-.2.1-.3.2-.8.3-1.6.3-2.5v-11c0-5.7-5-10.8-12.7-13.8-.9-.4-1.8-.7-2.8-1-.4-.2-.9-.3-1.3-.4-4-1.1-8.5-1.7-13.2-1.7-4.8 0-9.2.6-13.2 1.7-9.9 2.7-16.8 8.4-16.8 15.1z" class="st0"/><path d="M313.5 267.6c.2 0 .3 0 .5-.1v41.7c-.2-.1-.3-.1-.5-.1-10-2.8-16.8-8.6-16.8-15.2v-11c-.1-6.8 6.8-12.5 16.8-15.3z" class="st1"/><path d="M331.3 266.5c3 .3 6 .4 8.6 1.1.4.1.9.3 1.3.4 1 .3 1.9.6 2.8 1 7.7 3 12.7 8.1 12.7 13.8v11c0 .8-.1 1.7-.3 2.5 0 .1-.1.2-.1.2-.1.3-.2.5-.2.7 0 .1-.1.2-.1.2-.2.4-.3.8-.6 1.2-.2.4-.4.7-.7 1.1-.3.5-.7 1-1.1 1.4-.4.5-.9 1-1.4 1.4-.2.2-.4.4-.7.6-.8.7-1.8 1.4-2.8 2-.3.2-.7.4-1 .6-.7.4-1.5.8-2.3 1.2-.3.2-.7.3-1 .4-1 .4-2 .8-3 1.1-.6.2-1.1.4-1.7.5-1.1.3-2.2.6-3.4.8-.5.1-.9.2-1.3.2-.3.1-.7.1-1 .2-.4.1-.8.1-1.2.2-.6.1-1.1.1-1.7.2v-44z" class="st2"/><path d="M347.5 271.2c5.4 3.1 9.2 7 9.2 11.6v11c0 .8-.1 1.7-.3 2.5 0 .1-.1.2-.1.2-.1.3-.2.5-.2.7 0 .1-.1.2-.1.2-.2.4-.3.8-.6 1.2-.2.4-.4.7-.7 1.1-.3.5-.7 1-1.1 1.4-.4.5-.9 1-1.4 1.4-.2.2-.4.4-.7.6-.8.7-1.8 1.4-2.8 2-.3.2-.7.4-1 .6-.1.1-.3.1-.4.2v-34.7z" class="st3"/></g><ellipse cx="326.9" cy="281.3" class="st5" rx="30.1" ry="17"/><path d="M305.6 280.5c0-6.6 9.5-12 21.3-12s21.3 5.4 21.3 12-9.5 12-21.3 12-21.3-5.4-21.3-12z" class="st19"/><path d="M326.9 289.6c-10.9 0-18.4-4.8-18.4-9.2 0-4.3 7.6-9.2 18.4-9.2 10.9 0 18.4 4.8 18.4 9.2 0 4.4-7.5 9.2-18.4 9.2z" class="st5"/></g></svg>