<svg xmlns="http://www.w3.org/2000/svg" xmlns:xlink="http://www.w3.org/1999/xlink" id="Layer_1" viewBox="0 0 400 400"><style>.st0{fill:#e6e7e8}.st1{fill:#9dc9ec}.st2{fill:#4688c8}.st3{fill:#e0effb}.st4{fill:#fff}.st5{fill:#2d3843}.st10{fill:#badaf3}</style><circle cx="111.9" cy="111" r="78.5" class="st0"/><g id="surface1_1_"><path d="M83.7 130.9c-2.4 0-4.4-2-4.4-4.4v-14.1l7-43.2c.3-1.9 1.9-3.4 3.9-3.4h43.3c1.9 0 3.6 1.4 3.9 3.3l7 43.4v13.9c0 2.4-2 4.4-4.4 4.4H83.7z" class="st1"/><path d="M133.5 66.7c1.5 0 2.8 1.1 3 2.6l7 43.2v13.9c0 1.9-1.6 3.5-3.5 3.5H83.7c-1.9 0-3.5-1.6-3.5-3.5v-13.9l7-43.3c.2-1.5 1.5-2.6 3-2.6h43.3m0-1.7H90.2c-2.4 0-4.4 1.7-4.7 4.1l-7 43.4v14.1c0 2.9 2.4 5.3 5.3 5.3H140c2.9 0 5.3-2.4 5.3-5.3v-14.1l-7-43.4c-.4-2.3-2.4-4.1-4.8-4.1z" class="st2"/><path d="M90.2 66.7c-1.5 0-2.8 1.1-3 2.6l-7 43.1h63.3l-7-43.1c-.2-1.5-1.5-2.6-3-2.6H90.2z" class="st3"/><path d="M134.7 117.7c-1.9 0-3.5 1.6-3.5 3.5s1.6 3.5 3.5 3.5 3.5-1.6 3.5-3.5-1.5-3.5-3.5-3.5z" class="st4"/><path d="M111.9 102.8c-11.1 0-20.2-5.9-20.2-13.2 0-7.3 9.1-13.2 20.2-13.2s20.2 5.9 20.2 13.2c0 7.2-9.1 13.2-20.2 13.2z" class="st1"/><path d="M111.9 77.3c10.7 0 19.3 5.5 19.3 12.3s-8.7 12.3-19.3 12.3-19.3-5.5-19.3-12.3 8.6-12.3 19.3-12.3m0-1.8c-11.7 0-21.1 6.3-21.1 14.1s9.4 14.1 21.1 14.1S133 97.3 133 89.6s-9.5-14.1-21.1-14.1z" class="st2"/><path d="M117.1 89.6c0-1-2.4-1.8-5.3-1.8s-5.3.8-5.3 1.8 2.4 1.8 5.3 1.8c3-.1 5.3-.9 5.3-1.8z" class="st2"/></g><path d="M96.8 150.8h1v5.1h6.4v-5.1h1v11.4h-1v-5.4h-6.4v5.4h-1v-11.4zM108.5 150.8h3.8c2.9 0 4.3 1.4 4.3 4.4v2.6c0 3-1.4 4.4-4.3 4.4h-3.8v-11.4zm3.6 10.4c2.4 0 3.4-1 3.4-3.5v-2.6c0-2.5-1-3.5-3.4-3.5h-2.7v9.6h2.7zM119.3 150.8h3.8c2.9 0 4.3 1.4 4.3 4.4v2.6c0 3-1.4 4.4-4.3 4.4h-3.8v-11.4zm3.6 10.4c2.4 0 3.4-1 3.4-3.5v-2.6c0-2.5-1-3.5-3.4-3.5h-2.7v9.6h2.7z" class="st5"/><ellipse cx="141.1" cy="63.4" class="st4" rx="12.1" ry="11.1"/><g><defs><path id="SVGID_1_" d="M131.6 58.9v5.5l6.7-4.3v11.3L141 73l2.6-1.5V60.1l6.7 4.3v-5.5L141 53l-9.4 5.9zm9.5-12.1l14.3 8.3v16.6L141.1 80l-14.3-8.2V55.2l14.3-8.4z"/></defs><clipPath id="SVGID_2_"><use overflow="visible" xlink:href="#SVGID_1_"/></clipPath><g clip-path="url(#SVGID_2_)"><defs><path id="SVGID_3_" d="M95.5-24.7h320.8v180.4H95.5z"/></defs><clipPath id="SVGID_4_"><use overflow="visible" xlink:href="#SVGID_3_"/></clipPath><path fill="#4dbb83" d="M125.9 46h30.3v34.9h-30.3z" clip-path="url(#SVGID_4_)"/></g></g><g><circle cx="289" cy="111.2" r="78.5" class="st0"/><g id="surface1_2_"><path d="M261.7 131.8c-2.4 0-4.4-2-4.4-4.4v-14.1l7-43.2c.3-1.9 1.9-3.4 3.9-3.4h43.3c1.9 0 3.6 1.4 3.9 3.3l7 43.4v13.9c0 2.4-2 4.4-4.4 4.4h-56.3z" class="st1"/><path d="M311.5 67.6c1.5 0 2.8 1.1 3 2.6l7 43.2v13.9c0 1.9-1.6 3.5-3.5 3.5h-56.3c-1.9 0-3.5-1.6-3.5-3.5v-13.9l7-43.3c.2-1.5 1.5-2.6 3-2.6h43.3m0-1.6h-43.3c-2.4 0-4.4 1.7-4.7 4.1l-7 43.4v14.1c0 2.9 2.4 5.3 5.3 5.3H318c2.9 0 5.3-2.4 5.3-5.3v-14.1l-7-43.4c-.4-2.4-2.4-4.1-4.8-4.1z" class="st2"/><path d="M268.2 67.6c-1.5 0-2.8 1.1-3 2.6l-7 43.1h63.3l-7-43.1c-.2-1.5-1.5-2.6-3-2.6h-43.3z" class="st3"/><path d="M312.7 118.6c-1.9 0-3.5 1.6-3.5 3.5s1.6 3.5 3.5 3.5 3.5-1.6 3.5-3.5-1.5-3.5-3.5-3.5z" class="st4"/><path d="M263.5 122.2h38.7v3.5h-38.7v-3.5z" class="st2"/><path d="M263.5 118.6h3.5v7h-3.5v-7zM298.7 118.6h3.5v7h-3.5v-7zM270.5 118.6h3.5v7h-3.5v-7zM277.6 118.6h3.5v7h-3.5v-7zM284.6 118.6h3.5v7h-3.5v-7zM291.6 118.6h3.5v7h-3.5v-7z" class="st2"/></g><path d="M277.3 160.6h1c0 1.5 1.1 2.3 3.1 2.3s2.9-.8 2.9-2.2-.9-2.1-3.2-2.4c-2.6-.4-3.6-1.2-3.6-3 0-2.1 1.4-3.2 3.9-3.2 2.4 0 3.7 1.1 3.7 3.1h-1c0-1.5-.9-2.2-2.8-2.2s-2.9.8-2.9 2.2c0 1.4.8 2 3 2.3 2.8.4 3.8 1.3 3.8 3.2 0 2.1-1.3 3.2-3.9 3.2-2.5 0-4-1.2-4-3.3zM286.8 160.6h1c0 1.5 1.1 2.3 3.1 2.3s2.9-.8 2.9-2.2-.9-2.1-3.2-2.4c-2.6-.4-3.6-1.2-3.6-3 0-2.1 1.4-3.2 3.9-3.2 2.4 0 3.7 1.1 3.7 3.1h-1c0-1.5-.9-2.2-2.8-2.2s-2.9.8-2.9 2.2c0 1.4.8 2 3 2.3 2.8.4 3.8 1.3 3.8 3.2 0 2.1-1.3 3.2-3.9 3.2-2.6 0-4-1.2-4-3.3zM297.1 152.3h3.8c2.9 0 4.3 1.4 4.3 4.4v2.6c0 3-1.4 4.4-4.3 4.4h-3.8v-11.4zm3.7 10.5c2.4 0 3.4-1 3.4-3.5v-2.6c0-2.5-1-3.5-3.4-3.5H298v9.6h2.8z" class="st5"/><ellipse cx="316.5" cy="63.4" class="st4" rx="12.3" ry="11.1"/><g><defs><path id="SVGID_5_" d="M307.3 58.5V64l6.7-4.3V71l2.6 1.5 2.6-1.5V59.7l6.7 4.3v-5.5l-9.4-5.9-9.2 5.9zm9.4-12.1l14.3 8.3v16.6l-14.3 8.3-14.3-8.2V54.8l14.3-8.4z"/></defs><clipPath id="SVGID_6_"><use overflow="visible" xlink:href="#SVGID_5_"/></clipPath><g clip-path="url(#SVGID_6_)"><defs><path id="SVGID_7_" d="M271.2-25.1H592v180.4H271.2z"/></defs><clipPath id="SVGID_8_"><use overflow="visible" xlink:href="#SVGID_7_"/></clipPath><path fill="#4dbb83" d="M301.6 45.7h30.3v34.9h-30.3z" clip-path="url(#SVGID_8_)"/></g></g></g><g><circle cx="111" cy="288.3" r="78.5" class="st0"/><g id="surface1"><path d="M78.6 242.4h65v65h-65v-65z" class="st3"/><path d="M142.6 243.3v63.1H79.5v-63.1h63.1m1.9-1.8H77.6v66.8h66.8v-66.8z" class="st2"/><path d="M95.3 269.3c0 2.6-2.1 4.6-4.6 4.6-2.6 0-4.6-2.1-4.6-4.6s2.1-4.6 4.6-4.6c2.5 0 4.6 2.1 4.6 4.6z" class="st10"/><path d="M90.6 265.6c2 0 3.7 1.7 3.7 3.7s-1.7 3.7-3.7 3.7-3.7-1.7-3.7-3.7 1.7-3.7 3.7-3.7m0-1.8c-3.1 0-5.6 2.5-5.6 5.6s2.5 5.6 5.6 5.6 5.6-2.5 5.6-5.6-2.5-5.6-5.6-5.6z" class="st2"/><path d="M95.3 254.5c0 2.6-2.1 4.6-4.6 4.6-2.6 0-4.6-2.1-4.6-4.6s2.1-4.6 4.6-4.6c2.5-.1 4.6 2 4.6 4.6z" class="st1"/><path d="M90.6 250.8c2 0 3.7 1.7 3.7 3.7s-1.7 3.7-3.7 3.7-3.7-1.7-3.7-3.7c0-2.1 1.7-3.7 3.7-3.7m0-1.9c-3.1 0-5.6 2.5-5.6 5.6 0 3.1 2.5 5.6 5.6 5.6s5.6-2.5 5.6-5.6c0-3.1-2.5-5.6-5.6-5.6z" class="st2"/><path d="M102.7 249.8h33.4V300h-33.4v-50.2z" class="st1"/><path d="M135.2 250.8V299h-31.6v-48.3h31.6m1.8-1.8h-35.3v52H137v-52z" class="st2"/><path d="M124 249.5h1.9v51.4H124v-51.4zM112.9 248.9h1.9v51.4h-1.9v-51.4z" class="st2"/><path d="M130.5 260.1c-.5 0-.9-.4-.9-.9v-3.7c0-.5.4-.9.9-.9s.9.4.9.9v3.7c.1.4-.3.9-.9.9zM119.4 260.1c-.5 0-.9-.4-.9-.9v-3.7c0-.5.4-.9.9-.9s.9.4.9.9v3.7c0 .4-.4.9-.9.9zM108.3 260.1c-.5 0-.9-.4-.9-.9v-3.7c0-.5.4-.9.9-.9s.9.4.9.9v3.7c0 .4-.4.9-.9.9z" class="st4"/></g><path d="M85.7 327.9h1.2l6.2 9.7v-9.7h.9v11.4h-1l-6.4-10v10h-.9v-11.4zM95.8 327.9h1l3.6 10 3.6-10h1l-4.1 11.4h-1l-4.1-11.4zM106.9 327.9h1.4l4.2 9.9 4.2-9.9h1.4v11.4h-1v-10l-4.2 10h-.7l-4.2-10v10h-.9v-11.4zM120.7 335.8v-1.7c0-2.4 1.3-3.6 3.5-3.6 2.3 0 3.5 1.3 3.5 3.6v1.1h-6.1v.6c0 1.9.9 2.9 2.7 2.9 1.5 0 2.4-.7 2.5-1.9h.9c-.1 1.8-1.4 2.7-3.4 2.7-2.3-.1-3.6-1.4-3.6-3.7zm6.1-1.5v-.2c0-1.9-.9-2.9-2.6-2.9-1.8 0-2.6.9-2.6 2.9v.2h5.2zM129.5 336.8h.9c0 1.2.8 1.8 2.5 1.8 1.6 0 2.5-.6 2.5-1.7 0-1-.7-1.5-2.6-1.7-2.2-.2-3.1-.9-3.1-2.3 0-1.6 1.2-2.5 3.2-2.5 2.1 0 3.2.9 3.2 2.5h-.9c0-1.1-.8-1.7-2.2-1.7-1.5 0-2.3.6-2.3 1.6s.7 1.4 2.5 1.5c2.3.2 3.2.9 3.2 2.5 0 1.7-1.2 2.5-3.4 2.5-2.3.1-3.5-.8-3.5-2.5z" class="st5"/><ellipse cx="141.3" cy="240.9" class="st4" rx="12.3" ry="11.1"/><g><defs><path id="SVGID_9_" d="M131.6 235.7v5.5l6.7-4.3v11.3l2.6 1.5 2.6-1.5v-11.3l6.7 4.3v-5.5l-9.4-5.9-9.2 5.9zm9.5-12.1l14.3 8.3v16.6l-14.3 8.3-14.3-8.2V232l14.3-8.4z"/></defs><clipPath id="SVGID_10_"><use overflow="visible" xlink:href="#SVGID_9_"/></clipPath><g clip-path="url(#SVGID_10_)"><defs><path id="SVGID_11_" d="M95.5 152.1h320.8v180.4H95.5z"/></defs><clipPath id="SVGID_12_"><use overflow="visible" xlink:href="#SVGID_11_"/></clipPath><path fill="#4dbb83" d="M125.9 222.8h30.3v34.9h-30.3z" clip-path="url(#SVGID_12_)"/></g></g></g><g><circle cx="288.2" cy="289" r="78.5" class="st0"/><g id="surface1_3_"><path d="M270 273.1v-30.6h11.2l3.3 3h25.8v27.6H270z" class="st10"/><path d="M280.9 243.1l3.3 3h25.5v26.6h-39.2v-29.6h10.4m.5-1h-12v31.6h41.4V245h-26.1l-3.3-2.9z" class="st2"/><path fill="#e0effb" stroke="#4688c8" stroke-miterlimit="10" d="M270 273.1v-25.6h11.6l3.3-2h25.4v27.6H270z"/><path d="M309.7 246v26.6h-39.2V248h11.2l.3-.2 3-1.8h24.7m1.1-1h-26.1l-3.3 2h-12v26.6h41.4V245z" class="st2"/><path d="M292.8 246h2.2c.3 0 .5-.2.5-.5s-.2-.5-.5-.5h-2.2c-.3 0-.5.2-.5.5s.2.5.5.5zM310.2 261.8c.3 0 .5-.2.5-.5v-2c0-.3-.2-.5-.5-.5s-.5.2-.5.5v2c0 .3.2.5.5.5zM281.5 260.2c0-1.2.9-2 2.1-2s2 .8 2 2c0 1.1-.8 2-2.1 2-1.2 0-2-.9-2-2zM288.7 260.2c0-1.2.9-2 2.1-2s2 .8 2 2c0 1.1-.8 2-2.1 2-1.2 0-2-.9-2-2zM295.8 260.2c0-1.2.9-2 2.1-2s2 .8 2 2c0 1.1-.8 2-2.1 2-1.1 0-2-.9-2-2z" class="st2"/></g><g id="surface1_4_"><path d="M263.4 304.7c-2.4 0-4.4-2-4.4-4.4v-12.2c0-2.4 2-4.4 4.4-4.4h55.7c2.4 0 4.4 2 4.4 4.4v12.2c0 2.4-2 4.4-4.4 4.4h-55.7z" class="st1"/><path d="M319.1 284.7c1.9 0 3.5 1.6 3.5 3.5v12.2c0 1.9-1.6 3.5-3.5 3.5h-55.7c-1.9 0-3.5-1.6-3.5-3.5v-12.2c0-1.9 1.6-3.5 3.5-3.5h55.7m0-1.8h-55.7c-2.9 0-5.2 2.3-5.2 5.2v12.2c0 2.9 2.3 5.2 5.2 5.2h55.7c2.9 0 5.2-2.3 5.2-5.2v-12.2c0-2.8-2.3-5.2-5.2-5.2z" class="st2"/><path d="M282.5 291.6h34.8v5.2h-34.8v-5.2z" class="st2"/><path d="M273.8 294.3c0 2.4-2 4.4-4.4 4.4s-4.4-2-4.4-4.4c0-2.4 2-4.4 4.4-4.4s4.4 2 4.4 4.4z" class="st4"/></g><path d="M252.9 327.1h7.1v.9h-6.1v4.1h5.3v.9h-5.3v5.3h-.9v-11.2zM261.8 326.7h1v1.4h-1v-1.4zm.1 3.1h.9v8.5h-.9v-8.5zM265.8 326.2h.9v12.1h-.9v-12.1zM269.2 334.9v-1.7c0-2.3 1.2-3.6 3.5-3.6s3.5 1.3 3.5 3.6v1h-6.1v.6c0 1.9.9 2.8 2.6 2.8 1.5 0 2.4-.7 2.5-1.9h.9c-.1 1.7-1.3 2.7-3.3 2.7-2.3.1-3.6-1.2-3.6-3.5zm6.1-1.4v-.2c0-1.9-.8-2.8-2.6-2.8s-2.6.9-2.6 2.8v.2h5.2zM282.4 335.9h.9c0 1.2.8 1.8 2.5 1.8 1.6 0 2.4-.6 2.4-1.6s-.7-1.5-2.6-1.7c-2.2-.2-3-.9-3-2.3 0-1.6 1.1-2.5 3.2-2.5 2 0 3.1.9 3.1 2.5h-.9c0-1.1-.8-1.7-2.2-1.7-1.5 0-2.3.6-2.3 1.6 0 .9.7 1.3 2.5 1.5 2.3.2 3.2.9 3.2 2.4 0 1.6-1.1 2.5-3.3 2.5-2.3.1-3.5-.8-3.5-2.5zM290.7 340.5h.6c.8 0 1.1-.2 1.4-1.1l.5-1.4-3.2-8.1h1l2.7 6.9 2.5-6.9h.9l-3.6 9.7c-.5 1.4-1 1.8-2.2 1.8h-.6v-.9zM298 335.9h.9c0 1.2.8 1.8 2.5 1.8 1.6 0 2.4-.6 2.4-1.6s-.7-1.5-2.6-1.7c-2.2-.2-3-.9-3-2.3 0-1.6 1.1-2.5 3.2-2.5 2 0 3.1.9 3.1 2.5h-.9c0-1.1-.8-1.7-2.2-1.7-1.5 0-2.3.6-2.3 1.6 0 .9.7 1.3 2.5 1.5 2.3.2 3.2.9 3.2 2.4 0 1.6-1.1 2.5-3.3 2.5-2.3.1-3.5-.8-3.5-2.5zM307.3 335.8v-5.2h-1.6v-.8h1.6l.1-2.3h.8v2.3h2.3v.8h-2.3v5.2c0 1.3.3 1.7 1.4 1.7h1v.8h-1.2c-1.4 0-2.1-.7-2.1-2.5zM312.1 334.9v-1.7c0-2.3 1.2-3.6 3.5-3.6s3.5 1.3 3.5 3.6v1H313v.6c0 1.9.9 2.8 2.6 2.8 1.5 0 2.4-.7 2.5-1.9h.9c-.1 1.7-1.3 2.7-3.3 2.7-2.4.1-3.6-1.2-3.6-3.5zm6.1-1.4v-.2c0-1.9-.8-2.8-2.6-2.8s-2.6.9-2.6 2.8v.2h5.2zM321.5 329.8h.8v1.6c.7-1.2 1.6-1.8 2.8-1.8 1.3 0 2.1.6 2.4 1.8.7-1.2 1.6-1.8 2.9-1.8 1.7 0 2.6 1 2.6 2.9v5.8h-.9v-5.7c0-1.4-.6-2.1-1.8-2.1-1.2 0-2 .7-2.6 2.1v5.7h-.9v-5.7c0-1.4-.6-2.1-1.8-2.1-1.2 0-2 .7-2.6 2.1v5.7h-.9v-8.5z" class="st5"/><circle cx="319.1" cy="239.4" r="11.1" class="st4"/><g><defs><path id="SVGID_13_" d="M309.2 235.3v5.5l6.7-4.3v11.3l2.6 1.5 2.6-1.5v-11.3l6.7 4.3v-5.5l-9.4-5.9-9.2 5.9zm9.5-12.1l14.3 8.3v16.6l-14.3 8.3-14.3-8.2v-16.6l14.3-8.4z"/></defs><clipPath id="SVGID_14_"><use overflow="visible" xlink:href="#SVGID_13_"/></clipPath><g clip-path="url(#SVGID_14_)"><defs><path id="SVGID_15_" d="M273.1 151.7h320.8v180.4H273.1z"/></defs><clipPath id="SVGID_16_"><use overflow="visible" xlink:href="#SVGID_15_"/></clipPath><path fill="#4dbb83" d="M303.5 222.4h30.3v34.9h-30.3z" clip-path="url(#SVGID_16_)"/></g></g></g></svg>