<svg xmlns="http://www.w3.org/2000/svg" id="Layer_1" viewBox="0 0 480 480"><style>.st0{fill:#fff}.st1{fill:#34495e}.st2{fill:#ccc}.st3{fill:#ecf0f1}</style><g id="surface1"><path d="M45.3 98.6h389.5v263.2H45.3V98.6z" class="st0"/><path d="M429.5 103.9v252.6h-379V103.9h379M440 93.4H40v273.7h400V93.4z" class="st1"/><path d="M171.8 393.4c2.7-35.3 32.3-63.2 68.2-63.2s65.5 27.9 68.2 63.2H171.8z" class="st2"/><path d="M240 335.5c31.3 0 57.2 22.8 62.3 52.6H177.7c5.1-29.8 31.1-52.6 62.3-52.6m0-10.6c-40.7 0-73.7 33-73.7 73.7h147.4c0-40.7-33-73.7-73.7-73.7z" class="st1"/><path d="M224.2 219.7c0 37.8-30.6 68.4-68.4 68.4s-68.4-30.6-68.4-68.4 30.6-68.4 68.4-68.4 68.4 30.6 68.4 68.4z" class="st3"/><path d="M155.8 156.5c34.8 0 63.2 28.3 63.2 63.2s-28.3 63.2-63.2 63.2-63.2-28.3-63.2-63.2 28.4-63.2 63.2-63.2m0-10.5c-40.7 0-73.7 33-73.7 73.7s33 73.7 73.7 73.7 73.7-33 73.7-73.7-33-73.7-73.7-73.7z" class="st1"/><path d="M161.1 214.4v-63c33.6 2.5 60.4 29.4 63 63h-63z" class="st2"/><path d="M166.3 157.4c26.4 4.5 47.3 25.4 51.8 51.8h-51.8v-51.8M155.8 146v73.7h73.7c0-40.7-33-73.7-73.7-73.7zM276.8 209.2h115.8c2.9 0 5.3-2.3 5.3-5.3 0-2.9-2.3-5.3-5.3-5.3H276.8c-2.9 0-5.3 2.3-5.3 5.3.1 2.9 2.4 5.3 5.3 5.3z" class="st1"/><path d="M355.8 209.2h36.8c2.9 0 5.3-2.3 5.3-5.3 0-2.9-2.3-5.3-5.3-5.3h-36.8v10.6z" class="st2"/><path d="M276.8 167.1h115.8c2.9 0 5.3-2.3 5.3-5.3 0-2.9-2.3-5.3-5.3-5.3H276.8c-2.9 0-5.3 2.3-5.3 5.3.1 2.9 2.4 5.3 5.3 5.3z" class="st1"/><path d="M366.3 167.1h26.3c2.9 0 5.3-2.3 5.3-5.3 0-2.9-2.3-5.3-5.3-5.3h-26.3v10.6z" class="st2"/><path d="M276.8 251.3h115.8c2.9 0 5.3-2.3 5.3-5.3 0-2.9-2.3-5.3-5.3-5.3H276.8c-2.9 0-5.3 2.3-5.3 5.3.1 2.9 2.4 5.3 5.3 5.3zM276.8 293.4h115.8c2.9 0 5.3-2.3 5.3-5.3 0-2.9-2.3-5.3-5.3-5.3H276.8c-2.9 0-5.3 2.3-5.3 5.3.1 2.9 2.4 5.3 5.3 5.3z" class="st1"/><path d="M366.3 251.3h26.3c2.9 0 5.3-2.3 5.3-5.3 0-2.9-2.3-5.3-5.3-5.3h-26.3v10.6zM324.2 293.4h68.4c2.9 0 5.3-2.3 5.3-5.3 0-2.9-2.3-5.3-5.3-5.3h-68.4v10.6z" class="st2"/></g></svg>