<svg xmlns="http://www.w3.org/2000/svg" xmlns:xlink="http://www.w3.org/1999/xlink" id="Layer_1" viewBox="0 0 800 800"><style>.st1{enable-background:new}.st2{fill:#e51717}.st3{fill:#707070}.st4{fill:#62d12f}.st5{fill:#267edd}.st6{fill:#ffbc00}.st7{fill:#f66}.st8{fill:#30ceca}.st9{fill:#00a02d}.st10{fill:#fff}.st32{fill:#2a3942}</style><path fill="#ededed" stroke="#919191" stroke-miterlimit="10" d="M513.4 158H315.2L175.1 298.1v198.2l140.1 140.1h198.2l140.1-140.1V298.1L513.4 158z" opacity=".3"/><g class="st1"><path d="M665.5 223h-10.3v-17.9h10.3v3.1H659v3.9h6.1v3.1H659v4.6h6.5v3.2zm11.1-13.9c.5 0 .9 0 1.3.1l-.3 3.5c-.3-.1-.7-.1-1.1-.1-1.2 0-2.1.3-2.8.9-.7.6-1 1.5-1 2.6v7H669v-13.7h2.8l.6 2.3h.2c.4-.8 1-1.4 1.7-1.9s1.5-.7 2.3-.7zm11.4 0c.5 0 .9 0 1.3.1l-.3 3.5c-.3-.1-.7-.1-1.1-.1-1.2 0-2.1.3-2.8.9-.7.6-1 1.5-1 2.6v7h-3.7v-13.7h2.8l.6 2.3h.2c.4-.8 1-1.4 1.7-1.9.6-.5 1.4-.7 2.3-.7zm16.2 7.1c0 2.2-.6 4-1.8 5.2-1.2 1.3-2.8 1.9-4.9 1.9-1.3 0-2.5-.3-3.5-.9-1-.6-1.8-1.4-2.3-2.5s-.8-2.3-.8-3.8c0-2.2.6-4 1.7-5.2 1.2-1.2 2.8-1.9 4.9-1.9 1.3 0 2.5.3 3.5.9 1 .6 1.8 1.4 2.3 2.5.6 1.1.9 2.3.9 3.8zm-9.5 0c0 1.4.2 2.4.7 3.1.4.7 1.2 1 2.2 1s1.7-.3 2.1-1c.4-.7.7-1.7.7-3.1 0-1.4-.2-2.4-.7-3s-1.2-1-2.2-1-1.7.3-2.2 1c-.4.6-.6 1.6-.6 3zm20.2-7.1c.5 0 .9 0 1.3.1l-.3 3.5c-.3-.1-.7-.1-1.1-.1-1.2 0-2.1.3-2.8.9-.7.6-1 1.5-1 2.6v7h-3.7v-13.7h2.8l.6 2.3h.2c.4-.8 1-1.4 1.7-1.9.6-.5 1.4-.7 2.3-.7zm17.9 0c.5 0 .9 0 1.3.1l-.3 3.5c-.3-.1-.7-.1-1.1-.1-1.2 0-2.1.3-2.8.9-.7.6-1 1.5-1 2.6v7h-3.7v-13.7h2.8l.6 2.3h.2c.4-.8 1-1.4 1.7-1.9.6-.5 1.4-.7 2.3-.7zm12.4 13.9l-.7-1.9h-.1c-.6.8-1.3 1.3-1.9 1.6-.7.3-1.5.5-2.6.5-1.3 0-2.3-.4-3.1-1.1s-1.1-1.8-1.1-3.2c0-1.5.5-2.5 1.5-3.2s2.5-1.1 4.6-1.1l2.4-.1v-.6c0-1.4-.7-2.1-2.1-2.1-1.1 0-2.4.3-3.9 1l-1.2-2.5c1.6-.8 3.3-1.2 5.2-1.2 1.8 0 3.2.4 4.2 1.2s1.5 2 1.5 3.6v9.1h-2.7zm-1.1-6.3h-1.4c-1.1 0-1.9.2-2.4.6s-.8.9-.8 1.6c0 1.1.6 1.6 1.8 1.6.9 0 1.6-.2 2.1-.7s.8-1.2.8-2l-.1-1.1zm13.3 3.6c.7 0 1.4-.1 2.3-.4v2.8c-.9.4-2.1.6-3.4.6-1.5 0-2.6-.4-3.3-1.1-.7-.8-1-1.9-1-3.4v-6.6h-1.8v-1.6l2.1-1.2 1.1-2.9h2.4v2.9h3.8v2.8h-3.8v6.6c0 .5.1.9.4 1.2.3.2.7.3 1.2.3zm11.3 3c-2.2 0-3.9-.6-5.2-1.8-1.2-1.2-1.9-2.9-1.9-5.2s.6-4.1 1.7-5.3c1.1-1.3 2.7-1.9 4.8-1.9 1.9 0 3.4.6 4.5 1.7s1.6 2.6 1.6 4.6v1.8h-8.8c0 1.1.4 1.9.9 2.5.6.6 1.4.9 2.5.9.8 0 1.6-.1 2.3-.3s1.5-.4 2.3-.8v2.9c-.7.3-1.4.6-2.1.7-.6.1-1.5.2-2.6.2zm-.5-11.6c-.8 0-1.4.3-1.9.8-.4.5-.7 1.2-.8 2.1h5.2c0-.9-.3-1.6-.7-2.1s-1-.8-1.8-.8z" class="st2"/></g><g class="st1"><path d="M133.1 724.2l-1.3-4.3h-6.5l-1.3 4.3h-4.1l6.3-18h4.6l6.3 18h-4zm-2.2-7.4c-1.2-3.9-1.9-6-2-6.5-.2-.5-.3-.9-.3-1.2-.3 1-1 3.6-2.3 7.7h4.6zm15.8 7.6c-1.6 0-2.9-.6-3.8-1.7h-.2c.1 1.1.2 1.8.2 2v5.5h-3.7v-19.7h3l.5 1.8h.2c.9-1.4 2.2-2 3.9-2 1.6 0 2.9.6 3.8 1.9.9 1.2 1.4 3 1.4 5.2 0 1.5-.2 2.7-.6 3.8-.4 1.1-1 1.9-1.8 2.5-.9.5-1.9.7-2.9.7zm-1.1-11.2c-.9 0-1.6.3-2 .9-.4.6-.6 1.5-.7 2.8v.4c0 1.5.2 2.5.7 3.2.4.6 1.1 1 2.1 1 1.7 0 2.5-1.4 2.5-4.1 0-1.3-.2-2.4-.6-3-.5-.8-1.1-1.2-2-1.2zm16.9 11.2c-1.6 0-2.9-.6-3.8-1.7h-.2c.1 1.1.2 1.8.2 2v5.5H155v-19.7h3l.5 1.8h.2c.9-1.4 2.2-2 3.9-2 1.6 0 2.9.6 3.8 1.9.9 1.2 1.4 3 1.4 5.2 0 1.5-.2 2.7-.6 3.8-.4 1.1-1 1.9-1.8 2.5-.9.5-1.8.7-2.9.7zm-1.1-11.2c-.9 0-1.6.3-2 .9-.4.6-.6 1.5-.7 2.8v.4c0 1.5.2 2.5.7 3.2.4.6 1.1 1 2.1 1 1.7 0 2.5-1.4 2.5-4.1 0-1.3-.2-2.4-.6-3-.4-.8-1.1-1.2-2-1.2zm13.2 11h-3.7v-19h3.7v19zm3.8-17.2c0-1.2.7-1.8 2-1.8 1.4 0 2 .6 2 1.8 0 .6-.2 1-.5 1.4-.3.3-.8.5-1.5.5-1.4-.1-2-.7-2-1.9zm3.9 17.2h-3.7v-13.7h3.7v13.7zm9.4.2c-4.3 0-6.4-2.3-6.4-7 0-2.3.6-4.1 1.7-5.3 1.2-1.2 2.8-1.8 5-1.8 1.6 0 3 .3 4.3.9l-1.1 2.9c-.6-.2-1.1-.4-1.6-.6-.5-.2-1-.2-1.5-.2-1.9 0-2.9 1.4-2.9 4.1 0 2.7 1 4 2.9 4 .7 0 1.4-.1 2-.3s1.2-.5 1.8-.9v3.2c-.6.4-1.2.6-1.8.8-.7.2-1.4.2-2.4.2zm16-.2l-.7-1.9h-.1c-.6.8-1.3 1.3-1.9 1.6-.7.3-1.5.5-2.6.5-1.3 0-2.3-.4-3.1-1.1-.8-.8-1.1-1.8-1.1-3.2 0-1.5.5-2.5 1.5-3.2s2.5-1.1 4.6-1.1l2.4-.1v-.6c0-1.4-.7-2.1-2.1-2.1-1.1 0-2.4.3-3.9 1l-1.2-2.5c1.6-.8 3.3-1.2 5.2-1.2 1.8 0 3.2.4 4.2 1.2s1.5 2 1.5 3.6v9.1h-2.7zm-1.1-6.3h-1.4c-1.1 0-1.9.2-2.4.6-.5.4-.8.9-.8 1.6 0 1.1.6 1.6 1.8 1.6.9 0 1.6-.2 2.1-.7s.8-1.2.8-2v-1.1h-.1zm13.4 3.6c.7 0 1.4-.1 2.3-.4v2.8c-.9.4-2.1.6-3.4.6-1.5 0-2.6-.4-3.3-1.1-.7-.8-1-1.9-1-3.4v-6.6h-1.8v-1.6l2.1-1.2 1.1-2.9h2.4v2.9h3.8v2.8h-3.8v6.6c0 .5.1.9.4 1.2.3.1.7.3 1.2.3zm4.9-14.5c0-1.2.7-1.8 2-1.8 1.4 0 2 .6 2 1.8 0 .6-.2 1-.5 1.4-.3.3-.8.5-1.5.5-1.3-.1-2-.7-2-1.9zm3.9 17.2h-3.7v-13.7h3.7v13.7zm16.3-6.9c0 2.2-.6 4-1.8 5.2-1.2 1.3-2.8 1.9-4.9 1.9-1.3 0-2.5-.3-3.5-.9-1-.6-1.8-1.4-2.3-2.5s-.8-2.3-.8-3.8c0-2.2.6-4 1.7-5.2 1.2-1.2 2.8-1.9 4.9-1.9 1.3 0 2.5.3 3.5.9s1.8 1.4 2.3 2.5c.7 1.1.9 2.4.9 3.8zm-9.4 0c0 1.4.2 2.4.7 3.1.4.7 1.2 1 2.2 1s1.7-.3 2.1-1c.4-.7.7-1.7.7-3.1 0-1.4-.2-2.4-.7-3-.4-.7-1.2-1-2.2-1s-1.7.3-2.2 1c-.4.7-.6 1.7-.6 3zm25.2 6.9h-3.7v-8c0-1-.2-1.7-.5-2.2-.4-.5-.9-.7-1.7-.7-1 0-1.8.3-2.3 1s-.7 1.9-.7 3.5v6.4h-3.7v-13.7h2.9l.5 1.7h.2c.4-.7 1-1.2 1.7-1.5s1.6-.5 2.5-.5c1.6 0 2.8.4 3.6 1.3.8.9 1.2 2.1 1.2 3.7v9zm16.1-2.7c.7 0 1.4-.1 2.3-.4v2.8c-.9.4-2.1.6-3.4.6-1.5 0-2.6-.4-3.3-1.1-.7-.8-1-1.9-1-3.4v-6.6h-1.8v-1.6l2.1-1.2 1.1-2.9h2.4v2.9h3.8v2.8h-3.8v6.6c0 .5.1.9.4 1.2.3.1.7.3 1.2.3zm3.1-11h4.1l2.6 7.7c.2.7.4 1.5.5 2.4h.1c.1-.8.3-1.6.5-2.4l2.5-7.7h4l-5.8 15.4c-.5 1.4-1.3 2.5-2.3 3.2s-2.1 1.1-3.4 1.1c-.6 0-1.3-.1-1.9-.2v-3c.4.1.9.2 1.5.2.7 0 1.2-.2 1.7-.6.5-.4.9-1 1.2-1.8l.2-.7-5.5-13.6zm23.8 13.9c-1.6 0-2.9-.6-3.8-1.7h-.2c.1 1.1.2 1.8.2 2v5.5h-3.7v-19.7h3l.5 1.8h.2c.9-1.4 2.2-2 3.9-2 1.6 0 2.9.6 3.8 1.9.9 1.2 1.4 3 1.4 5.2 0 1.5-.2 2.7-.6 3.8s-1 1.9-1.8 2.5c-1 .5-1.9.7-2.9.7zm-1.1-11.2c-.9 0-1.6.3-2 .9-.4.6-.6 1.5-.7 2.8v.4c0 1.5.2 2.5.7 3.2.4.6 1.1 1 2.1 1 1.7 0 2.5-1.4 2.5-4.1 0-1.3-.2-2.4-.6-3-.5-.8-1.2-1.2-2-1.2zm15.6 11.2c-2.2 0-3.9-.6-5.2-1.8-1.2-1.2-1.9-2.9-1.9-5.2s.6-4.1 1.7-5.3c1.1-1.3 2.7-1.9 4.8-1.9 1.9 0 3.4.6 4.5 1.7s1.6 2.6 1.6 4.6v1.8h-8.8c0 1.1.4 1.9.9 2.5s1.4.9 2.5.9c.8 0 1.6-.1 2.3-.3.7-.2 1.5-.4 2.3-.8v2.9c-.7.3-1.4.6-2.1.7-.6.2-1.5.2-2.6.2zm-.5-11.5c-.8 0-1.4.3-1.9.8-.4.5-.7 1.2-.8 2.1h5.2c0-.9-.3-1.6-.7-2.1-.4-.5-1-.8-1.8-.8z" class="st3"/></g><g class="st1"><path d="M666.2 584.1l-1.3-4.3h-6.5l-1.3 4.3H653l6.3-18h4.6l6.3 18h-4zm-2.2-7.4c-1.2-3.9-1.9-6-2-6.5-.2-.5-.3-.9-.3-1.2-.3 1-1 3.6-2.3 7.7h4.6zm11.5 7.4l-5.2-13.7h3.9l2.6 7.8c.3 1 .5 1.9.6 2.8h.1c0-.8.2-1.7.6-2.8l2.6-7.8h3.9l-5.2 13.7h-3.9zm19.7 0l-.7-1.9h-.1c-.6.8-1.3 1.3-1.9 1.6-.7.3-1.5.5-2.6.5-1.3 0-2.3-.4-3.1-1.1-.8-.8-1.1-1.8-1.1-3.2 0-1.5.5-2.5 1.5-3.2s2.5-1.1 4.6-1.1l2.4-.1v-.6c0-1.4-.7-2.1-2.1-2.1-1.1 0-2.4.3-3.9 1l-1.2-2.5c1.6-.8 3.3-1.2 5.2-1.2 1.8 0 3.2.4 4.2 1.2s1.5 2 1.5 3.6v9.1h-2.7zm-1.1-6.3h-1.4c-1.1 0-1.9.2-2.4.6-.5.4-.8.9-.8 1.6 0 1.1.6 1.6 1.8 1.6.9 0 1.6-.2 2.1-.7s.8-1.2.8-2l-.1-1.1zm7.4-10.9c0-1.2.7-1.8 2-1.8 1.4 0 2 .6 2 1.8 0 .6-.2 1-.5 1.4-.3.3-.8.5-1.5.5-1.4-.1-2-.7-2-1.9zm3.8 17.2h-3.7v-13.7h3.7v13.7zm7.7 0h-3.7v-19h3.7v19zm12.6 0l-.7-1.9h-.1c-.6.8-1.3 1.3-1.9 1.6-.7.3-1.5.5-2.6.5-1.3 0-2.3-.4-3.1-1.1-.8-.8-1.1-1.8-1.1-3.2 0-1.5.5-2.5 1.5-3.2s2.5-1.1 4.6-1.1l2.4-.1v-.6c0-1.4-.7-2.1-2.1-2.1-1.1 0-2.4.3-3.9 1l-1.2-2.5c1.6-.8 3.3-1.2 5.2-1.2 1.8 0 3.2.4 4.2 1.2s1.5 2 1.5 3.6v9.1h-2.7zm-1.1-6.3h-1.4c-1.1 0-1.9.2-2.4.6-.5.4-.8.9-.8 1.6 0 1.1.6 1.6 1.8 1.6.9 0 1.6-.2 2.1-.7s.8-1.2.8-2l-.1-1.1zm15.2-7.6c1.6 0 2.9.6 3.8 1.9.9 1.3 1.4 3 1.4 5.2 0 2.3-.5 4-1.4 5.2s-2.2 1.9-3.8 1.9-2.9-.6-3.8-1.7h-.3l-.6 1.5h-3v-19h3.7v4.4c0 .6 0 1.5-.1 2.7h.1c.9-1.5 2.2-2.1 4-2.1zm-1.2 2.9c-.9 0-1.6.3-2 .9-.4.6-.6 1.5-.7 2.8v.4c0 1.5.2 2.5.7 3.2.4.6 1.1 1 2.1 1 .8 0 1.4-.4 1.8-1.1.5-.7.7-1.7.7-3.1 0-1.3-.2-2.4-.7-3-.5-.7-1.2-1.1-1.9-1.1zm9.2-6.2c0-1.2.7-1.8 2-1.8s2 .6 2 1.8c0 .6-.2 1-.5 1.4-.3.3-.8.5-1.5.5-1.3-.1-2-.7-2-1.9zm3.9 17.2h-3.7v-13.7h3.7v13.7zm7.7 0h-3.7v-19h3.7v19zm3.7-17.2c0-1.2.7-1.8 2-1.8s2 .6 2 1.8c0 .6-.2 1-.5 1.4-.3.3-.8.5-1.5.5-1.3-.1-2-.7-2-1.9zm3.9 17.2h-3.7v-13.7h3.7v13.7zm9.7-2.7c.7 0 1.4-.1 2.3-.4v2.8c-.9.4-2.1.6-3.4.6-1.5 0-2.6-.4-3.3-1.1-.7-.8-1-1.9-1-3.4v-6.6h-1.8v-1.6l2.1-1.2 1.1-2.9h2.4v2.9h3.8v2.8H775v6.6c0 .5.1.9.4 1.2.3.1.7.3 1.2.3zm3.2-11h4.1l2.6 7.7c.2.7.4 1.5.5 2.4h.1c.1-.8.3-1.6.5-2.4l2.5-7.7h4l-5.8 15.4c-.5 1.4-1.3 2.5-2.3 3.2s-2.1 1.1-3.4 1.1c-.6 0-1.3-.1-1.9-.2v-3c.4.1.9.2 1.5.2.7 0 1.2-.2 1.7-.6.5-.4.9-1 1.2-1.8l.2-.7-5.5-13.6z" class="st4"/></g><g class="st1"><path d="M23.4 216.2v6.9h-3.8v-17.9h5.2c2.4 0 4.2.4 5.4 1.3 1.2.9 1.7 2.2 1.7 4 0 1.1-.3 2-.9 2.8s-1.4 1.5-2.5 1.9c2.7 4 4.4 6.6 5.3 7.8h-4.2l-4.3-6.9-1.9.1zm0-3.1h1.2c1.2 0 2.1-.2 2.7-.6.6-.4.9-1 .9-1.9 0-.8-.3-1.5-.9-1.8-.6-.4-1.5-.5-2.7-.5h-1.2v4.8zm18.7 10.2c-2.2 0-3.9-.6-5.2-1.8-1.2-1.2-1.9-2.9-1.9-5.2s.6-4.1 1.7-5.3c1.1-1.3 2.7-1.9 4.8-1.9 1.9 0 3.4.6 4.5 1.7s1.6 2.6 1.6 4.6v1.8h-8.8c0 1.1.4 1.9.9 2.5s1.4.9 2.5.9c.8 0 1.6-.1 2.3-.3s1.5-.4 2.3-.8v2.9c-.7.3-1.4.6-2.1.7-.6.1-1.5.2-2.6.2zm-.5-11.6c-.8 0-1.4.3-1.9.8-.4.5-.7 1.2-.8 2.1h5.2c0-.9-.3-1.6-.7-2.1s-1-.8-1.8-.8zM55 223.3c-1.6 0-2.9-.6-3.8-1.9-.9-1.2-1.4-3-1.4-5.2s.5-4 1.4-5.2c.9-1.3 2.2-1.9 3.8-1.9.9 0 1.6.2 2.3.5.6.3 1.2.8 1.7 1.5h.1l.3-1.7h3.2V229h-3.7v-5.7c0-.5.1-1.2.2-2.1h-.2c-.4.7-.9 1.2-1.6 1.5-.6.4-1.4.6-2.3.6zm1.4-3c.9 0 1.6-.3 2.1-.8.4-.5.7-1.5.7-2.8v-.5c0-1.5-.2-2.5-.7-3.2-.5-.6-1.2-1-2.2-1-1.8 0-2.6 1.4-2.6 4.1 0 1.4.2 2.4.7 3.1.4.8 1.1 1.1 2 1.1zm19.9 2.7l-.5-1.7h-.2c-.4.6-1 1.1-1.7 1.5-.7.3-1.6.5-2.5.5-1.6 0-2.8-.4-3.6-1.3-.8-.9-1.2-2.1-1.2-3.7v-8.9h3.7v8c0 1 .2 1.7.5 2.2.4.5.9.7 1.7.7 1 0 1.8-.3 2.3-1s.7-1.9.7-3.5v-6.4h3.7V223h-2.9zm12.9.3c-2.2 0-3.9-.6-5.2-1.8-1.2-1.2-1.9-2.9-1.9-5.2s.6-4.1 1.7-5.3c1.1-1.3 2.7-1.9 4.8-1.9 1.9 0 3.4.6 4.5 1.7s1.6 2.6 1.6 4.6v1.8H86c0 1.1.4 1.9.9 2.5.6.6 1.4.9 2.5.9.8 0 1.6-.1 2.3-.3.7-.2 1.5-.4 2.3-.8v2.9c-.7.3-1.4.6-2.1.7-.7.1-1.6.2-2.7.2zm-.5-11.6c-.8 0-1.4.3-1.9.8-.4.5-.7 1.2-.8 2.1h5.2c0-.9-.3-1.6-.7-2.1-.4-.5-1-.8-1.8-.8zm18.7 7.3c0 1.4-.5 2.5-1.5 3.2s-2.4 1.1-4.4 1.1c-1 0-1.8-.1-2.5-.2s-1.4-.3-2-.6v-3.1c.7.3 1.5.6 2.3.8.9.2 1.6.3 2.3.3 1.4 0 2-.4 2-1.2 0-.3-.1-.5-.3-.7-.2-.2-.5-.4-.9-.6-.4-.2-1-.5-1.8-.8-1.1-.4-1.8-.8-2.3-1.2s-.9-.8-1.1-1.3-.3-1.1-.3-1.8c0-1.2.5-2.2 1.4-2.8.9-.7 2.3-1 4-1 1.6 0 3.3.4 4.8 1.1l-1.1 2.7c-.7-.3-1.3-.5-1.9-.7s-1.2-.3-1.8-.3c-1.1 0-1.7.3-1.7.9 0 .3.2.6.5.9.4.2 1.1.6 2.3 1.1 1.1.4 1.9.8 2.3 1.2.5.4.9.8 1.1 1.3.5.4.6 1 .6 1.7zm8.7 1.3c.7 0 1.4-.1 2.3-.4v2.8c-.9.4-2.1.6-3.4.6-1.5 0-2.6-.4-3.3-1.1-.7-.8-1-1.9-1-3.4v-6.6h-1.8v-1.6l2.1-1.2 1.1-2.9h2.4v2.9h3.8v2.8h-3.8v6.6c0 .5.1.9.4 1.2.3.2.7.3 1.2.3zm19.2-11.2c.5 0 .9 0 1.3.1l-.3 3.5c-.3-.1-.7-.1-1.1-.1-1.2 0-2.1.3-2.8.9-.7.6-1 1.5-1 2.6v7h-3.7v-13.7h2.8l.6 2.3h.2c.4-.8 1-1.4 1.7-1.9s1.5-.7 2.3-.7zm12.4 13.9l-.7-1.9h-.1c-.6.8-1.3 1.3-1.9 1.6-.7.3-1.5.5-2.6.5-1.3 0-2.3-.4-3.1-1.1-.8-.8-1.1-1.8-1.1-3.2 0-1.5.5-2.5 1.5-3.2s2.5-1.1 4.6-1.1l2.4-.1v-.6c0-1.4-.7-2.1-2.1-2.1-1.1 0-2.4.3-3.9 1l-1.2-2.5c1.6-.8 3.3-1.2 5.2-1.2 1.8 0 3.2.4 4.2 1.2s1.5 2 1.5 3.6v9.1h-2.7zm-1.1-6.3h-1.4c-1.1 0-1.9.2-2.4.6-.5.4-.8.9-.8 1.6 0 1.1.6 1.6 1.8 1.6.9 0 1.6-.2 2.1-.7s.8-1.2.8-2v-1.1h-.1zm13.4 3.6c.7 0 1.4-.1 2.3-.4v2.8c-.9.4-2.1.6-3.4.6-1.5 0-2.6-.4-3.3-1.1-.7-.8-1-1.9-1-3.4v-6.6h-1.8v-1.6l2.1-1.2 1.1-2.9h2.4v2.9h3.8v2.8h-3.8v6.6c0 .5.1.9.4 1.2.3.2.7.3 1.2.3zm11.3 3c-2.2 0-3.9-.6-5.2-1.8-1.2-1.2-1.9-2.9-1.9-5.2s.6-4.1 1.7-5.3c1.1-1.3 2.7-1.9 4.8-1.9 1.9 0 3.4.6 4.5 1.7s1.6 2.6 1.6 4.6v1.8H168c0 1.1.4 1.9.9 2.5.6.6 1.4.9 2.5.9.8 0 1.6-.1 2.3-.3s1.5-.4 2.3-.8v2.9c-.7.3-1.4.6-2.1.7-.7.1-1.6.2-2.6.2zm-.6-11.6c-.8 0-1.4.3-1.9.8-.4.5-.7 1.2-.8 2.1h5.2c0-.9-.3-1.6-.7-2.1-.3-.5-1-.8-1.8-.8z" class="st5"/></g><g class="st1"><path d="M192.4 67.9c-1.4 0-2.5.5-3.3 1.6s-1.2 2.6-1.2 4.5c0 4 1.5 6 4.5 6 1.3 0 2.8-.3 4.6-.9v3.2c-1.5.6-3.1.9-4.9.9-2.6 0-4.6-.8-6-2.4S184 77 184 74c0-1.9.3-3.5 1-4.9s1.6-2.5 2.9-3.2c1.3-.7 2.8-1.1 4.5-1.1s3.5.4 5.2 1.3l-1.2 3.1c-.7-.3-1.3-.6-2-.8-.7-.3-1.3-.5-2-.5zm20.7 2.7c0 1.9-.6 3.4-1.8 4.4s-2.9 1.5-5.1 1.5h-1.6v6.4h-3.8V65h5.7c2.2 0 3.8.5 4.9 1.4 1.2 1 1.7 2.4 1.7 4.2zm-8.5 2.9h1.2c1.2 0 2-.2 2.6-.7s.9-1.1.9-2-.2-1.5-.7-2c-.5-.4-1.2-.6-2.3-.6h-1.7v5.3zm26.5-8.5v11.6c0 1.3-.3 2.5-.9 3.5-.6 1-1.4 1.8-2.6 2.3-1.1.5-2.4.8-4 .8-2.3 0-4.1-.6-5.4-1.8-1.3-1.2-1.9-2.8-1.9-4.8V65h3.8v11c0 1.4.3 2.4.8 3 .6.6 1.5 1 2.8 1 1.2 0 2.1-.3 2.7-1 .6-.6.8-1.7.8-3.1V65h3.9zm20.3 17.9l-.5-1.7h-.2c-.4.6-1 1.1-1.7 1.5-.7.3-1.6.5-2.5.5-1.6 0-2.8-.4-3.6-1.3s-1.2-2.1-1.2-3.7v-8.9h3.7v8c0 1 .2 1.7.5 2.2.4.5.9.7 1.7.7 1 0 1.8-.3 2.3-1s.7-1.9.7-3.5v-6.4h3.7V83l-2.9-.1zm16.3-4c0 1.4-.5 2.5-1.5 3.2s-2.4 1.1-4.4 1.1c-1 0-1.8-.1-2.5-.2s-1.4-.3-2-.6v-3.1c.7.3 1.5.6 2.3.8.9.2 1.6.3 2.3.3 1.4 0 2-.4 2-1.2 0-.3-.1-.5-.3-.7-.2-.2-.5-.4-.9-.6s-1-.5-1.8-.8c-1.1-.4-1.8-.8-2.3-1.2-.5-.4-.9-.8-1.1-1.3s-.3-1.1-.3-1.8c0-1.2.5-2.2 1.4-2.8.9-.7 2.3-1 4-1 1.6 0 3.3.4 4.8 1.1l-1.1 2.7c-.7-.3-1.3-.5-1.9-.7s-1.2-.3-1.8-.3c-1.1 0-1.7.3-1.7.9 0 .3.2.6.5.9s1.1.6 2.3 1.1c1.1.4 1.9.8 2.3 1.2.5.4.9.8 1.1 1.3.5.4.6 1 .6 1.7zm11.6 4l-.7-1.9h-.1c-.6.8-1.3 1.3-1.9 1.6-.7.3-1.5.5-2.6.5-1.3 0-2.3-.4-3.1-1.1-.8-.8-1.1-1.8-1.1-3.2 0-1.5.5-2.5 1.5-3.2s2.5-1.1 4.6-1.1l2.4-.1v-.6c0-1.4-.7-2.1-2.1-2.1-1.1 0-2.4.3-3.9 1l-1.2-2.5c1.6-.8 3.3-1.2 5.2-1.2 1.8 0 3.2.4 4.2 1.2s1.5 2 1.5 3.6v9.1h-2.7zm-1.1-6.3h-1.4c-1.1 0-1.9.2-2.4.6s-.8.9-.8 1.6c0 1.1.6 1.6 1.8 1.6.9 0 1.6-.2 2.1-.7s.8-1.2.8-2v-1.1h-.1zm19.4-7.4v1.9l-2.1.6c.4.6.6 1.3.6 2.1 0 1.5-.5 2.6-1.5 3.4s-2.4 1.2-4.3 1.2h-.7l-.6-.1c-.4.3-.6.6-.6 1 0 .5.7.8 2.1.8h2.3c1.5 0 2.6.3 3.4 1 .8.6 1.2 1.6 1.2 2.8 0 1.6-.7 2.8-2 3.7-1.3.9-3.2 1.3-5.7 1.3-1.9 0-3.4-.3-4.4-1s-1.5-1.6-1.5-2.8c0-.8.3-1.5.8-2.1s1.3-.9 2.3-1.2c-.4-.2-.7-.4-1-.8s-.4-.8-.4-1.2c0-.5.2-1 .5-1.3s.7-.7 1.3-1c-.7-.3-1.3-.8-1.7-1.5-.4-.7-.6-1.5-.6-2.4 0-1.5.5-2.6 1.5-3.5 1-.8 2.4-1.2 4.2-1.2.4 0 .8 0 1.4.1.5.1.9.1 1 .2h4.5zm-10.5 15.7c0 .5.2.9.7 1.2.5.3 1.2.4 2.1.4 1.3 0 2.4-.2 3.1-.6s1.1-.9 1.1-1.5c0-.5-.2-.9-.7-1.1-.4-.2-1.1-.3-2.1-.3h-1.9c-.7 0-1.3.2-1.7.5-.4.4-.6.8-.6 1.4zm1.3-11.2c0 .7.2 1.3.5 1.8.3.4.9.6 1.5.6.7 0 1.2-.2 1.5-.6s.5-1 .5-1.8c0-1.6-.7-2.5-2-2.5-1.3.1-2 .9-2 2.5zm17.7 9.5c-2.2 0-3.9-.6-5.2-1.8-1.2-1.2-1.9-2.9-1.9-5.2 0-2.3.6-4.1 1.7-5.3 1.1-1.3 2.7-1.9 4.8-1.9 1.9 0 3.4.6 4.5 1.7s1.6 2.6 1.6 4.6V77h-8.8c0 1.1.4 1.9.9 2.5s1.4.9 2.5.9c.8 0 1.6-.1 2.3-.3s1.5-.4 2.3-.8v2.9c-.7.3-1.4.6-2.1.7-.6.2-1.6.3-2.6.3zm-.5-11.6c-.8 0-1.4.3-1.9.8-.4.5-.7 1.2-.8 2.1h5.2c0-.9-.3-1.6-.7-2.1-.4-.5-1.1-.8-1.8-.8z" class="st6"/></g><g class="st1"><path d="M20.8 575c0 2.9-.8 5.2-2.5 6.8s-4.1 2.3-7.3 2.3H6v-17.9h5.6c2.9 0 5.2.8 6.8 2.3 1.6 1.6 2.4 3.7 2.4 6.5zm-3.9.1c0-3.8-1.7-5.8-5.1-5.8h-2V581h1.6c3.7 0 5.5-2 5.5-5.9zm13.5 9.2c-2.2 0-3.9-.6-5.2-1.8-1.2-1.2-1.9-2.9-1.9-5.2s.6-4.1 1.7-5.3c1.1-1.3 2.7-1.9 4.8-1.9 1.9 0 3.4.6 4.5 1.7s1.6 2.6 1.6 4.6v1.8h-8.8c0 1.1.4 1.9.9 2.5s1.4.9 2.5.9c.8 0 1.6-.1 2.3-.3s1.5-.4 2.3-.8v2.9c-.7.3-1.4.6-2.1.7-.6.2-1.5.2-2.6.2zm-.5-11.5c-.8 0-1.4.3-1.9.8-.4.5-.7 1.2-.8 2.1h5.2c0-.9-.3-1.6-.7-2.1-.4-.5-1-.8-1.8-.8zm16.7 11.5c-1.6 0-2.9-.6-3.8-1.7h-.2c.1 1.1.2 1.8.2 2v5.5H39v-19.7h3l.5 1.8h.2c.9-1.4 2.2-2 3.9-2 1.6 0 2.9.6 3.8 1.9.9 1.2 1.4 3 1.4 5.2 0 1.5-.2 2.7-.6 3.8-.4 1.1-1 1.9-1.8 2.5-.8.5-1.8.7-2.8.7zm-1.1-11.2c-.9 0-1.6.3-2 .9-.4.6-.6 1.5-.7 2.8v.4c0 1.5.2 2.5.7 3.2.4.6 1.1 1 2.1 1 1.7 0 2.5-1.4 2.5-4.1 0-1.3-.2-2.4-.6-3-.5-.8-1.2-1.2-2-1.2zm15.6 11.2c-2.2 0-3.9-.6-5.2-1.8-1.2-1.2-1.9-2.9-1.9-5.2s.6-4.1 1.7-5.3c1.1-1.3 2.7-1.9 4.8-1.9 1.9 0 3.4.6 4.5 1.7s1.6 2.6 1.6 4.6v1.8h-8.8c0 1.1.4 1.9.9 2.5s1.4.9 2.5.9c.8 0 1.6-.1 2.3-.3.7-.2 1.5-.4 2.3-.8v2.9c-.7.3-1.4.6-2.1.7-.6.2-1.5.2-2.6.2zm-.5-11.5c-.8 0-1.4.3-1.9.8-.4.5-.7 1.2-.8 2.1h5.2c0-.9-.3-1.6-.7-2.1s-1-.8-1.8-.8zm21.7 11.3h-3.7v-8c0-1-.2-1.7-.5-2.2-.4-.5-.9-.7-1.7-.7-1 0-1.8.3-2.3 1s-.7 1.9-.7 3.5v6.4h-3.7v-13.7h2.9l.5 1.7h.2c.4-.7 1-1.2 1.7-1.5s1.6-.5 2.5-.5c1.6 0 2.8.4 3.6 1.3.8.9 1.2 2.1 1.2 3.7v9zm8.2.2c-1.6 0-2.9-.6-3.8-1.9s-1.4-3-1.4-5.2.5-4 1.4-5.2c.9-1.3 2.2-1.9 3.9-1.9 1.7 0 3 .7 3.9 2h.1c-.2-1-.3-1.9-.3-2.7V565H98v19h-2.9l-.7-1.8h-.2c-.7 1.5-2 2.1-3.7 2.1zm1.3-2.9c1 0 1.7-.3 2.1-.8.4-.6.7-1.5.7-2.8v-.4c0-1.5-.2-2.5-.7-3.2-.5-.6-1.2-1-2.2-1-.8 0-1.5.4-1.9 1.1-.5.7-.7 1.7-.7 3.1 0 1.3.2 2.4.7 3s1.2 1 2 1zm16.4 2.9c-2.2 0-3.9-.6-5.2-1.8-1.2-1.2-1.9-2.9-1.9-5.2s.6-4.1 1.7-5.3c1.1-1.3 2.7-1.9 4.8-1.9 1.9 0 3.4.6 4.5 1.7s1.6 2.6 1.6 4.6v1.8H105c0 1.1.4 1.9.9 2.5.6.6 1.4.9 2.5.9.8 0 1.6-.1 2.3-.3.7-.2 1.5-.4 2.3-.8v2.9c-.7.3-1.4.6-2.1.7-.7.2-1.6.2-2.7.2zm-.5-11.5c-.8 0-1.4.3-1.9.8-.4.5-.7 1.2-.8 2.1h5.2c0-.9-.3-1.6-.7-2.1-.4-.5-1-.8-1.8-.8zm21.8 11.3h-3.7v-8c0-1-.2-1.7-.5-2.2-.4-.5-.9-.7-1.7-.7-1 0-1.8.3-2.3 1s-.7 1.9-.7 3.5v6.4h-3.7v-13.7h2.9l.5 1.7h.2c.4-.7 1-1.2 1.7-1.5s1.6-.5 2.5-.5c1.6 0 2.8.4 3.6 1.3.8.9 1.2 2.1 1.2 3.7v9zm9.4.2c-4.3 0-6.4-2.3-6.4-7 0-2.3.6-4.1 1.7-5.3 1.2-1.2 2.8-1.8 5-1.8 1.6 0 3 .3 4.3.9l-1.1 2.9c-.6-.2-1.1-.4-1.6-.6-.5-.2-1-.2-1.5-.2-1.9 0-2.9 1.4-2.9 4.1 0 2.7 1 4 2.9 4 .7 0 1.4-.1 2-.3s1.2-.5 1.8-.9v3.2c-.6.4-1.2.6-1.8.8-.7.2-1.5.2-2.4.2zm7.1-17.4c0-1.2.7-1.8 2-1.8 1.4 0 2 .6 2 1.8 0 .6-.2 1-.5 1.4-.3.3-.8.5-1.5.5-1.3-.1-2-.7-2-1.9zm3.9 17.2h-3.7v-13.7h3.7v13.7zm10.1.2c-2.2 0-3.9-.6-5.2-1.8-1.2-1.2-1.9-2.9-1.9-5.2s.6-4.1 1.7-5.3c1.1-1.3 2.7-1.9 4.8-1.9 1.9 0 3.4.6 4.5 1.7s1.6 2.6 1.6 4.6v1.8h-8.8c0 1.1.4 1.9.9 2.5s1.4.9 2.5.9c.8 0 1.6-.1 2.3-.3s1.5-.4 2.3-.8v2.9c-.7.3-1.4.6-2.1.7-.6.2-1.5.2-2.6.2zm-.5-11.5c-.8 0-1.4.3-1.9.8-.4.5-.7 1.2-.8 2.1h5.2c0-.9-.3-1.6-.7-2.1s-1-.8-1.8-.8zm18.7 7.2c0 1.4-.5 2.5-1.5 3.2s-2.4 1.1-4.4 1.1c-1 0-1.8-.1-2.5-.2s-1.4-.3-2-.6v-3.1c.7.3 1.5.6 2.3.8.9.2 1.6.3 2.3.3 1.4 0 2-.4 2-1.2 0-.3-.1-.5-.3-.7s-.5-.4-.9-.6c-.4-.2-1-.5-1.8-.8-1.1-.4-1.8-.8-2.3-1.2s-.9-.8-1.1-1.3c-.2-.5-.3-1.1-.3-1.8 0-1.2.5-2.2 1.4-2.8.9-.7 2.3-1 4-1 1.6 0 3.3.4 4.8 1.1l-1.1 2.7c-.7-.3-1.3-.5-1.9-.7-.6-.2-1.2-.3-1.8-.3-1.1 0-1.7.3-1.7.9 0 .3.2.6.5.9.4.2 1.1.6 2.3 1.1 1.1.4 1.9.8 2.3 1.2.5.4.9.8 1.1 1.3.5.5.6 1.1.6 1.7z" class="st7"/></g><g class="st1"><path d="M518.9 717.3v6.9h-3.8v-17.9h5.2c2.4 0 4.2.4 5.4 1.3 1.2.9 1.7 2.2 1.7 4 0 1.1-.3 2-.9 2.8-.6.8-1.4 1.5-2.5 1.9 2.7 4 4.4 6.6 5.3 7.8h-4.2l-4.3-6.9h-1.9v.1zm0-3.1h1.2c1.2 0 2.1-.2 2.7-.6.6-.4.9-1 .9-1.9 0-.8-.3-1.5-.9-1.8-.6-.4-1.5-.5-2.7-.5h-1.2v4.8zm18.7 10.2c-2.2 0-3.9-.6-5.2-1.8s-1.9-2.9-1.9-5.2.6-4.1 1.7-5.3c1.1-1.3 2.7-1.9 4.8-1.9 1.9 0 3.4.6 4.5 1.7s1.6 2.6 1.6 4.6v1.8h-8.8c0 1.1.4 1.9.9 2.5.6.6 1.4.9 2.5.9.8 0 1.6-.1 2.3-.3s1.5-.4 2.3-.8v2.9c-.7.3-1.4.6-2.1.7-.7.2-1.6.2-2.6.2zm-.6-11.5c-.8 0-1.4.3-1.9.8-.4.5-.7 1.2-.8 2.1h5.2c0-.9-.3-1.6-.7-2.1-.3-.5-1-.8-1.8-.8zm18.7 7.2c0 1.4-.5 2.5-1.5 3.2s-2.4 1.1-4.4 1.1c-1 0-1.8-.1-2.5-.2s-1.4-.3-2-.6v-3.1c.7.3 1.5.6 2.3.8.9.2 1.6.3 2.3.3 1.4 0 2-.4 2-1.2 0-.3-.1-.5-.3-.7s-.5-.4-.9-.6c-.4-.2-1-.5-1.8-.8-1.1-.4-1.8-.8-2.3-1.2s-.9-.8-1.1-1.3c-.2-.5-.3-1.1-.3-1.8 0-1.2.5-2.2 1.4-2.8.9-.7 2.3-1 4-1 1.6 0 3.3.4 4.8 1.1l-1.1 2.7c-.7-.3-1.3-.5-1.9-.7s-1.2-.3-1.8-.3c-1.1 0-1.7.3-1.7.9 0 .3.2.6.5.9.4.2 1.1.6 2.3 1.1 1.1.4 1.9.8 2.3 1.2.5.4.9.8 1.1 1.3s.6 1.1.6 1.7zm10.4 4.3c-1.6 0-2.9-.6-3.8-1.7h-.2c.1 1.1.2 1.8.2 2v5.5h-3.7v-19.7h3l.5 1.8h.2c.9-1.4 2.2-2 3.9-2 1.6 0 2.9.6 3.8 1.9.9 1.2 1.4 3 1.4 5.2 0 1.5-.2 2.7-.6 3.8-.4 1.1-1 1.9-1.8 2.5-.9.5-1.8.7-2.9.7zm-1.1-11.2c-.9 0-1.6.3-2 .9-.4.6-.6 1.5-.7 2.8v.4c0 1.5.2 2.5.7 3.2.4.6 1.1 1 2.1 1 1.7 0 2.5-1.4 2.5-4.1 0-1.3-.2-2.4-.6-3-.4-.8-1.1-1.2-2-1.2zm21.9 4.1c0 2.2-.6 4-1.8 5.2-1.2 1.3-2.8 1.9-4.9 1.9-1.3 0-2.5-.3-3.5-.9-1-.6-1.8-1.4-2.3-2.5s-.8-2.3-.8-3.8c0-2.2.6-4 1.7-5.2 1.2-1.2 2.8-1.9 4.9-1.9 1.3 0 2.5.3 3.5.9s1.8 1.4 2.3 2.5c.7 1.1.9 2.4.9 3.8zm-9.4 0c0 1.4.2 2.4.7 3.1.4.7 1.2 1 2.2 1s1.7-.3 2.1-1c.4-.7.7-1.7.7-3.1 0-1.4-.2-2.4-.7-3-.4-.7-1.2-1-2.2-1s-1.7.3-2.2 1c-.4.7-.6 1.7-.6 3zm25.1 6.9h-3.7v-8c0-1-.2-1.7-.5-2.2-.4-.5-.9-.7-1.7-.7-1 0-1.8.3-2.3 1s-.7 1.9-.7 3.5v6.4H590v-13.7h2.9l.5 1.7h.2c.4-.7 1-1.2 1.7-1.5s1.6-.5 2.5-.5c1.6 0 2.8.4 3.6 1.3.8.9 1.2 2.1 1.2 3.7v9zm13.4-4.1c0 1.4-.5 2.5-1.5 3.2s-2.4 1.1-4.4 1.1c-1 0-1.8-.1-2.5-.2s-1.4-.3-2-.6v-3.1c.7.3 1.5.6 2.3.8.9.2 1.6.3 2.3.3 1.4 0 2-.4 2-1.2 0-.3-.1-.5-.3-.7s-.5-.4-.9-.6c-.4-.2-1-.5-1.8-.8-1.1-.4-1.8-.8-2.3-1.2s-.9-.8-1.1-1.3c-.2-.5-.3-1.1-.3-1.8 0-1.2.5-2.2 1.4-2.8.9-.7 2.3-1 4-1 1.6 0 3.3.4 4.8 1.1l-1.1 2.7c-.7-.3-1.3-.5-1.9-.7s-1.2-.3-1.8-.3c-1.1 0-1.7.3-1.7.9 0 .3.2.6.5.9.4.2 1.1.6 2.3 1.1 1.1.4 1.9.8 2.3 1.2.5.4.9.8 1.1 1.3.5.5.6 1.1.6 1.7zm9.1 4.3c-2.2 0-3.9-.6-5.2-1.8s-1.9-2.9-1.9-5.2.6-4.1 1.7-5.3c1.1-1.3 2.7-1.9 4.8-1.9 1.9 0 3.4.6 4.5 1.7s1.6 2.6 1.6 4.6v1.8h-8.8c0 1.1.4 1.9.9 2.5s1.4.9 2.5.9c.8 0 1.6-.1 2.3-.3s1.5-.4 2.3-.8v2.9c-.7.3-1.4.6-2.1.7-.6.2-1.5.2-2.6.2zm-.5-11.5c-.8 0-1.4.3-1.9.8-.4.5-.7 1.2-.8 2.1h5.2c0-.9-.3-1.6-.7-2.1s-1-.8-1.8-.8zm21.4 8.6c.7 0 1.4-.1 2.3-.4v2.8c-.9.4-2.1.6-3.4.6-1.5 0-2.6-.4-3.3-1.1-.7-.8-1-1.9-1-3.4v-6.6h-1.8v-1.6l2.1-1.2 1.1-2.9h2.4v2.9h3.8v2.8h-3.8v6.6c0 .5.1.9.4 1.2.3.1.7.3 1.2.3zm5-14.5c0-1.2.7-1.8 2-1.8s2 .6 2 1.8c0 .6-.2 1-.5 1.4-.3.3-.8.5-1.5.5-1.4-.1-2-.7-2-1.9zm3.9 17.2h-3.7v-13.7h3.7v13.7zm16.1 0h-3.7v-8c0-1-.2-1.7-.5-2.2s-.9-.7-1.6-.7c-1 0-1.6.4-2.1 1.1-.4.7-.6 1.9-.6 3.5v6.4h-3.7v-13.7h2.9l.5 1.7h.2c.4-.6.9-1.1 1.6-1.5.7-.4 1.5-.5 2.4-.5 2 0 3.4.7 4.2 2h.3c.4-.6.9-1.1 1.6-1.5.7-.4 1.5-.5 2.4-.5 1.5 0 2.7.4 3.5 1.2s1.2 2.1 1.2 3.8v8.9h-3.7v-8c0-1-.2-1.7-.5-2.2s-.9-.7-1.6-.7c-.9 0-1.6.3-2 1-.5.7-.7 1.7-.7 3.1v6.8h-.1zm18.6.2c-2.2 0-3.9-.6-5.2-1.8s-1.9-2.9-1.9-5.2.6-4.1 1.7-5.3c1.1-1.3 2.7-1.9 4.8-1.9 1.9 0 3.4.6 4.5 1.7s1.6 2.6 1.6 4.6v1.8h-8.8c0 1.1.4 1.9.9 2.5.6.6 1.4.9 2.5.9.8 0 1.6-.1 2.3-.3s1.5-.4 2.3-.8v2.9c-.7.3-1.4.6-2.1.7-.7.2-1.6.2-2.6.2zm-.6-11.5c-.8 0-1.4.3-1.9.8-.4.5-.7 1.2-.8 2.1h5.2c0-.9-.3-1.6-.7-2.1-.3-.5-1-.8-1.8-.8z" class="st8"/></g><g class="st1"><path d="M531 82.9h-4.8l-7.8-13.5h-.1c.2 2.4.2 4.1.2 5.1v8.4h-3.4V65h4.8l7.8 13.4h.1c-.1-2.3-.2-4-.2-4.9V65h3.4v17.9zm16.6-6.8c0 2.2-.6 4-1.8 5.2-1.2 1.3-2.8 1.9-4.9 1.9-1.3 0-2.5-.3-3.5-.9s-1.8-1.4-2.3-2.5-.8-2.3-.8-3.8c0-2.2.6-4 1.7-5.2 1.2-1.2 2.8-1.9 4.9-1.9 1.3 0 2.5.3 3.5.9s1.8 1.4 2.3 2.5c.7 1.1.9 2.3.9 3.8zm-9.4 0c0 1.4.2 2.4.7 3.1.4.7 1.2 1 2.2 1s1.7-.3 2.1-1c.4-.7.7-1.7.7-3.1s-.2-2.4-.7-3c-.4-.7-1.2-1-2.2-1s-1.7.3-2.2 1c-.4.6-.6 1.6-.6 3zm12 5.1c0-.7.2-1.2.6-1.6s.9-.5 1.6-.5c.7 0 1.2.2 1.6.5.4.4.6.9.6 1.5s-.2 1.2-.6 1.5c-.4.4-.9.6-1.6.6-.7 0-1.2-.2-1.6-.5-.4-.3-.6-.9-.6-1.5zm26.6-5.1c0 2.2-.6 4-1.8 5.2-1.2 1.3-2.8 1.9-4.9 1.9-1.3 0-2.5-.3-3.5-.9s-1.8-1.4-2.3-2.5-.8-2.3-.8-3.8c0-2.2.6-4 1.7-5.2s2.8-1.9 4.9-1.9c1.3 0 2.5.3 3.5.9s1.8 1.4 2.3 2.5c.6 1.1.9 2.3.9 3.8zm-9.5 0c0 1.4.2 2.4.7 3.1.4.7 1.2 1 2.2 1s1.7-.3 2.1-1c.4-.7.7-1.7.7-3.1s-.2-2.4-.7-3c-.4-.7-1.2-1-2.2-1s-1.7.3-2.2 1c-.3.6-.6 1.6-.6 3zm20.2-4h-3.2V83h-3.7V72.1h-2.1v-1.8l2.1-1v-1c0-1.6.4-2.7 1.2-3.4.8-.7 2-1.1 3.7-1.1 1.3 0 2.4.2 3.4.6l-1 2.7c-.8-.2-1.4-.4-2.1-.4-.5 0-.9.2-1.2.5-.2.3-.4.7-.4 1.2v.9h3.2l.1 2.8zm8.4-6.4c0-1.2.7-1.8 2-1.8s2 .6 2 1.8c0 .6-.2 1-.5 1.4-.3.3-.8.5-1.5.5-1.3-.1-2-.7-2-1.9zm3.9 17.2h-3.7V69.2h3.7v13.7zm16.6 0h-3.7v-8c0-1-.2-1.7-.5-2.2-.4-.5-.9-.7-1.7-.7-1 0-1.8.3-2.3 1s-.7 1.9-.7 3.5v6.4h-3.7V69.2h2.9l.5 1.7h.2c.4-.7 1-1.2 1.7-1.5s1.6-.5 2.5-.5c1.6 0 2.8.4 3.6 1.3s1.2 2.1 1.2 3.7v9zm13.4-4c0 1.4-.5 2.5-1.5 3.2s-2.4 1.1-4.4 1.1c-1 0-1.8-.1-2.5-.2s-1.4-.3-2-.6v-3.1c.7.3 1.5.6 2.3.8.9.2 1.6.3 2.3.3 1.4 0 2-.4 2-1.2 0-.3-.1-.5-.3-.7s-.5-.4-.9-.6-1-.5-1.8-.8c-1.1-.4-1.8-.8-2.3-1.2-.5-.4-.9-.8-1.1-1.3-.2-.5-.3-1.1-.3-1.8 0-1.2.5-2.2 1.4-2.8.9-.7 2.3-1 4-1 1.6 0 3.3.4 4.8 1.1l-1.1 2.7c-.7-.3-1.3-.5-1.9-.7-.6-.2-1.2-.3-1.8-.3-1.1 0-1.7.3-1.7.9 0 .3.2.6.5.9.4.2 1.1.6 2.3 1.1 1.1.4 1.9.8 2.3 1.2.5.4.9.8 1.1 1.3.4.4.6 1 .6 1.7zm8.6 1.3c.7 0 1.4-.1 2.3-.4v2.8c-.9.4-2.1.6-3.4.6-1.5 0-2.6-.4-3.3-1.1-.7-.8-1-1.9-1-3.4v-6.6h-1.8v-1.6l2.1-1.2 1.1-2.9h2.4v2.9h3.8v2.8h-3.8v6.6c0 .5.1.9.4 1.2.4.2.7.3 1.2.3zm13.8 2.7l-.7-1.9h-.1c-.6.8-1.3 1.3-1.9 1.6-.7.3-1.5.5-2.6.5-1.3 0-2.3-.4-3.1-1.1-.8-.8-1.1-1.8-1.1-3.2 0-1.5.5-2.5 1.5-3.2s2.5-1.1 4.6-1.1l2.4-.1v-.6c0-1.4-.7-2.1-2.1-2.1-1.1 0-2.4.3-3.9 1l-1.2-2.5c1.6-.8 3.3-1.2 5.2-1.2 1.8 0 3.2.4 4.2 1.2 1 .8 1.5 2 1.5 3.6v9.1h-2.7zm-1.1-6.3h-1.4c-1.1 0-1.9.2-2.4.6s-.8.9-.8 1.6c0 1.1.6 1.6 1.8 1.6.9 0 1.6-.2 2.1-.7s.8-1.2.8-2l-.1-1.1zm20.2 6.3h-3.7v-8c0-1-.2-1.7-.5-2.2-.4-.5-.9-.7-1.7-.7-1 0-1.8.3-2.3 1s-.7 1.9-.7 3.5v6.4h-3.7V69.2h2.9l.4 1.8h.2c.4-.7 1-1.2 1.7-1.5s1.6-.5 2.5-.5c1.6 0 2.8.4 3.6 1.3s1.2 2.1 1.2 3.7l.1 8.9zm9.4.3c-4.3 0-6.4-2.3-6.4-7 0-2.3.6-4.1 1.7-5.3 1.2-1.2 2.8-1.8 5-1.8 1.6 0 3 .3 4.3.9l-1.1 2.9c-.6-.2-1.1-.4-1.6-.6s-1-.2-1.5-.2c-1.9 0-2.9 1.4-2.9 4.1s1 4 2.9 4c.7 0 1.4-.1 2-.3.6-.2 1.2-.5 1.8-.9v3.2c-.6.4-1.2.6-1.8.8-.7.1-1.5.2-2.4.2zm13.5 0c-2.2 0-3.9-.6-5.2-1.8s-1.9-2.9-1.9-5.2c0-2.3.6-4.1 1.7-5.3 1.1-1.3 2.7-1.9 4.8-1.9 1.9 0 3.4.6 4.5 1.7s1.6 2.6 1.6 4.6V77H691c0 1.1.4 1.9.9 2.5.6.6 1.4.9 2.5.9.8 0 1.6-.1 2.3-.3s1.5-.4 2.3-.8v2.9c-.7.3-1.4.6-2.1.7-.7.2-1.6.3-2.7.3zm-.5-11.6c-.8 0-1.4.3-1.9.8-.4.5-.7 1.2-.8 2.1h5.2c0-.9-.3-1.6-.7-2.1s-1-.8-1.8-.8zm18.7 7.3c0 1.4-.5 2.5-1.5 3.2s-2.4 1.1-4.4 1.1c-1 0-1.8-.1-2.5-.2s-1.4-.3-2-.6v-3.1c.7.3 1.5.6 2.3.8.9.2 1.6.3 2.3.3 1.4 0 2-.4 2-1.2 0-.3-.1-.5-.3-.7s-.5-.4-.9-.6-1-.5-1.8-.8c-1.1-.4-1.8-.8-2.3-1.2-.5-.4-.9-.8-1.1-1.3-.2-.5-.3-1.1-.3-1.8 0-1.2.5-2.2 1.4-2.8.9-.7 2.3-1 4-1 1.6 0 3.3.4 4.8 1.1l-1.1 2.7c-.7-.3-1.3-.5-1.9-.7-.6-.2-1.2-.3-1.8-.3-1.1 0-1.7.3-1.7.9 0 .3.2.6.5.9.4.2 1.1.6 2.3 1.1 1.1.4 1.9.8 2.3 1.2.5.4.9.8 1.1 1.3.5.4.6 1 .6 1.7z" class="st9"/></g><circle cx="314.6" cy="158.6" r="45.6" class="st6"/><ellipse cx="512.8" cy="158.6" class="st9" rx="45.6" ry="45.6" transform="matrix(.1735 -.9848 .9848 .1735 267.6331 636.1049)"/><circle cx="654" cy="298.7" r="45.6" class="st2"/><circle cx="175.6" cy="298.7" r="45.6" class="st5"/><circle cx="512.8" cy="635.8" r="45.6" class="st8"/><circle cx="175.6" cy="495.7" r="45.6" class="st7"/><circle cx="654" cy="495.7" r="45.6" class="st4"/><circle cx="314.6" cy="635.8" r="45.6" class="st3"/><g id="icons"><path d="M314.6 163.1v.3c0 .8.7 1.4 1.5 1.4s1.5-.7 1.5-1.5-.7-1.5-1.5-1.5h-.3l-5.6-4.1 4.4 5.4z" class="st10"/><path d="M297.9 143.7l.7-.7c4-3.6 9-5.9 14.4-6.4l1-.1v6.3h1.6v-6.3h.9c5.9.2 11.6 2.7 15.9 6.8l.7.7-3.9 3.9 1.1 1.1 3.9-3.9.7.8c2.5 3.2 4.2 7.1 4.9 11.2l.2 1h-5.4v1.6h5.5v1.6c0 4.3-1.1 8.7-3.3 12.4l-.6 1-4.2-4.2-1.1 1.1 3.6 3.8h2.6c2.7-4.2 4.1-9 4.1-14 0-14.2-11.6-25.9-25.9-25.9s-25.9 11.6-25.9 25.9c0 5 1.4 9.8 4.1 14h2.7l3.8-3.3-1-1.3-4.4 3.9-.6-.9c-2.2-3.8-3.4-8.1-3.4-12.4v-1.6h5.2v-1.6h-5.2l.2-1c.7-4.2 2.5-8.2 5.2-11.5l.7-.8 3.8 3.8.1-.1.1-.1.9-.9-3.7-3.9zm202.4-8.5h-8.8c-.5 0-.9.3-.9.9v8.8c0 .5.3.9.9.9h8.8c.5 0 .9-.3.9-.9v-8.8c-.1-.6-.5-.9-.9-.9zm-8 8.8v-7.1h7.1v7.1h-7.1zm25.4-8.8h-8.8c-.5 0-.9.3-.9.9v8.8c0 .5.3.9.9.9h8.8c.5 0 .9-.3.9-.9v-8.8c0-.6-.3-.9-.9-.9zm-7.9 8.8v-7.1h7.1v7.1h-7.1zm25.4-8.8h-8.8c-.5 0-.9.3-.9.9v8.8c0 .5.3.9.9.9h8.8c.5 0 .9-.3.9-.9v-8.8c0-.6-.3-.9-.9-.9zm-.8 8.8h-7.1v-7.1h7.1v7.1zm-34.1 8.7h-8.8c-.5 0-.9.3-.9.9v8.8c0 .5.3.9.9.9h8.8c.5 0 .9-.3.9-.9v-8.8c-.1-.5-.5-.9-.9-.9zm-8 8.8v-7.1h7.1v7.1h-7.1zm25.4-8.8h-8.8c-.5 0-.9.3-.9.9v8.8c0 .5.3.9.9.9h8.8c.5 0 .9-.3.9-.9v-8.8c0-.5-.3-.9-.9-.9zm-7.9 8.8v-7.1h7.1v7.1h-7.1zm25.4-8.8h-8.8c-.5 0-.9.3-.9.9v8.8c0 .5.3.9.9.9h8.8c.5 0 .9-.3.9-.9v-8.8c0-.5-.3-.9-.9-.9zm-.8 8.8h-7.1v-7.1h7.1v7.1zm-34.1 8.8h-8.8c-.5 0-.9.3-.9.9v8.8c0 .5.3.9.9.9h8.8c.5 0 .9-.3.9-.9v-8.9c-.1-.5-.5-.8-.9-.8zm-8 8.8V172h7.1v7.1h-7.1zm25.4-8.8h-8.8c-.5 0-.9.3-.9.9v8.8c0 .5.3.9.9.9h8.8c.5 0 .9-.3.9-.9v-8.9c0-.5-.3-.8-.9-.8zm-7.9 8.8V172h7.1v7.1h-7.1zm25.4-8.8h-8.8c-.5 0-.9.3-.9.9v8.8c0 .5.3.9.9.9h8.8c.5 0 .9-.3.9-.9v-8.9c0-.5-.3-.8-.9-.8zm-.8 8.8h-7.1V172h7.1v7.1zM654 282.3c-.7 0-1.3.6-1.3 1.3v20.8c0 .7.6 1.3 1.3 1.3s1.3-.6 1.3-1.3v-20.7c0-.9-.6-1.4-1.3-1.4z" class="st10"/><path d="M679.5 314.1l-23.2-40.4c-.5-.8-1.4-1.3-2.3-1.3s-1.8.5-2.3 1.3l-23.3 40.4c-.5.8-.5 1.8 0 2.6s1.4 1.3 2.3 1.3h46.6c.9 0 1.8-.5 2.3-1.3.4-.7.4-1.8-.1-2.6zm-48.8 1.3L654 275l23.3 40.4h-46.6z" class="st10"/><circle cx="654" cy="310.7" r="2.6" class="st10"/><path d="M185.9 295.5h-37.7c-.6 0-1-.5-1-1 0-.6.5-1 1-1h37.7c.6 0 1 .5 1 1s-.4 1-1 1z" class="st10"/><path d="M160 307.4c-.2 0-.5-.1-.7-.3l-12-12c-.3-.3-.3-1 0-1.4.3-.3 1-.3 1.4 0l12 12c.3.3.3 1 0 1.4-.1.2-.3.3-.7.3z" class="st10"/><path d="M148.2 295.5c-.2 0-.5-.1-.7-.3-.3-.3-.3-1 0-1.4l12-12c.3-.3 1-.3 1.4 0 .3.3.3 1 0 1.4l-12 12c-.3.2-.5.3-.7.3z" class="st10"/><path d="M148.2 295.5c-.2 0-.5-.1-.7-.3-.3-.3-.3-1 0-1.4l12-12c.3-.3 1-.3 1.4 0 .3.3.3 1 0 1.4l-12 12c-.3.2-.5.3-.7.3zm57.5 12.8h-1.9c-.6 0-1-.5-1-1 0-.6.5-1 1-1h1.9c.6 0 1 .5 1 1 0 .6-.4 1-1 1zm-5.9 0h-1.9c-.6 0-1-.5-1-1 0-.6.5-1 1-1h1.9c.6 0 1 .5 1 1 0 .6-.4 1-1 1zm-5.9 0H192c-.6 0-1-.5-1-1 0-.6.5-1 1-1h1.9c.6 0 1 .5 1 1 0 .6-.5 1-1 1zm-6.1 0h-1.9c-.6 0-1-.5-1-1 0-.6.5-1 1-1h1.9c.6 0 1 .5 1 1 .1.6-.4 1-1 1zm-5.9 0H180c-.6 0-1-.5-1-1 0-.6.5-1 1-1h1.9c.6 0 1 .5 1 1 0 .6-.4 1-1 1zm-5.9 0h-2c-.6 0-1-.5-1-1 0-.6.5-1 1-1h1.9c.6 0 1 .5 1 1 .1.6-.3 1-.9 1zm-5.9 0h-1.9c-.6 0-1-.5-1-1 0-.6.5-1 1-1h1.9c.6 0 1 .5 1 1 0 .6-.6 1-1 1z" class="st10"/><path d="M205.7 308.3c-.2 0-.5-.1-.7-.3l-12-12c-.3-.3-.3-1 0-1.4.3-.3 1-.3 1.4 0l12 12c.3.3.3 1 0 1.4-.1.3-.3.3-.7.3z" class="st10"/><path d="M193.9 320.3c-.2 0-.5-.1-.7-.3-.3-.3-.3-1 0-1.4l12-12c.3-.3 1-.3 1.4 0 .3.3.3 1 0 1.4l-12 12c-.3.2-.5.3-.7.3z" class="st10"/><path d="M193.9 320.3c-.2 0-.5-.1-.7-.3-.3-.3-.3-1 0-1.4l12-12c.3-.3 1-.3 1.4 0 .3.3.3 1 0 1.4l-12 12c-.3.2-.5.3-.7.3z" class="st10"/><g><g id="_x31_83_93_"><path d="M190.6 503.7V500h-11.8v-4.1h-12.6v4.3h-4.8v3.6h4.8v4.1h12.6v-4.3h11.8v.1zm-13.3 2.9h-9.9v-9.3h9.9v9.3zm13.6-16.8v-3.6h-4.8V482h-12.6v4.3h-11.8v3.6h11.8v4.1h12.6v-4.3l4.8.1zm-6.1 2.8h-9.9v-9.3h9.9v9.3z" class="st10"/><path fill="none" stroke="#fff" stroke-miterlimit="10" d="M151.8 474.6h48.7v41h-48.7v-41z"/></g></g><g fill="#fff" stroke="#707070" stroke-miterlimit="10"><path d="M320 642.6l-2.6-.6c0-1.8-.5-3.5-1.1-5.1l2.1-1.7c.5-.3.6-1.1.1-1.6l-2.6-3.2c-.2-.2-.5-.3-.8-.5-.3 0-.6.1-.8.2l-2.1 1.6c-1.4-1.1-3-1.8-4.8-2.3V627c0-.7-.5-1.1-1.1-1.1h-4.1c-.7 0-1.1.5-1.1 1.1v2.5c-1.7.5-3.4 1.3-4.8 2.4l-2.1-1.6c-.2-.2-.6-.2-.8-.2-.3 0-.6.2-.8.5l-2.5 3.2c-.3.5-.3 1.3.2 1.6l2.1 1.7c-.7 1.6-1 3.3-1.1 5.1l-2.6.6c-.6.1-1 .8-.9 1.4l.9 4c.1.6.8 1 1.4.9l2.7-.7c.8 1.5 1.9 2.8 3.3 4l-1.3 2.6c-.2.6 0 1.3.6 1.5l3.6 1.8c.1.1.3.1.5.1.1 0 .2 0 .3-.1.3-.1.6-.3.7-.6l1.3-2.6c1.7.3 3.4.3 5 0l1.3 2.6c.2.6.9.8 1.5.6l3.6-1.8c.6-.2.8-.9.6-1.5l-1.3-2.6c1.4-1.1 2.4-2.5 3.2-4l2.7.6c.6.1 1.3-.2 1.4-.9l.9-4c.1-.3 0-.6-.1-.9-.2-.3-.4-.4-.6-.6zm-10.8-.3c0 2.7-2.3 5-5 5s-5-2.3-5-5 2.3-5 5-5c2.8 0 5 2.3 5 5z"/><path stroke-width=".5" d="M323 633c.5 0 .8-.2 1-.7l.6-1.3c1 .2 2.2.2 3.2 0l.6 1.3c.2.6.9.8 1.5.6l1.5-.8c.2-.1.5-.3.6-.7.1-.3.1-.6 0-.9l-.6-1.3c.8-.7 1.5-1.5 2.1-2.5l1.3.3c.6.1 1.3-.2 1.4-.9l.3-1.7c.1-.6-.2-1.3-.9-1.4l-1.3-.2c0-1.1-.2-2.2-.7-3.2l.9-.8c.2-.2.3-.5.5-.8 0-.3-.1-.6-.2-.8l-1-1.4c-.3-.5-1.1-.6-1.6-.1l-.9.8c-.9-.7-1.9-1.1-3-1.5v-1.1c0-.7-.5-1.1-1.1-1.1h-1.7c-.7 0-1.1.5-1.1 1.1v1.1c-1.1.2-2.2.8-3 1.5l-.9-.8c-.5-.3-1.3-.3-1.6.2l-1 1.4c-.2.2-.2.6-.2.8 0 .3.2.6.5.8l.9.8c-.5 1-.7 2.1-.7 3.2l-1.3.3c-.3.1-.6.2-.7.5-.1.2-.2.6-.1.9l.3 1.7c.1.6.8 1 1.4.9l1.3-.3c.5.9 1.1 1.8 2.1 2.5l-.6 1.3c-.1.2-.1.6 0 .9.1.3.3.6.6.7l1.6.7c-.3-.2-.2 0 0 0zm0-10c0-1.7 1.4-3.2 3.2-3.2 1.7 0 3.2 1.4 3.2 3.2 0 1.7-1.4 3.2-3.2 3.2-1.8-.1-3.2-1.4-3.2-3.2zm18.1 21.9l-1.3-.2c0-1.1-.2-2.2-.7-3.2l.9-.8c.2-.2.3-.5.5-.8 0-.3-.1-.6-.2-.8l-1-1.4c-.3-.5-1.1-.6-1.6-.1l-.9.8c-.9-.7-1.9-1.1-3-1.5v-1.1c0-.7-.5-1.1-1.1-1.1H331c-.7 0-1.1.5-1.1 1.1v1.1c-1.1.2-2.2.8-3 1.5l-.9-.8c-.2-.2-.6-.2-.8-.2-.3 0-.6.2-.8.5l-1 1.4c-.3.5-.3 1.3.2 1.6l.9.8c-.5 1-.7 2.1-.7 3.2l-1.3.3c-.3.1-.6.2-.7.5-.1.2-.2.6-.1.9l.3 1.7c.1.6.8 1 1.4.9l1.3-.3c.5.9 1.1 1.8 2.1 2.5l-.6 1.3c-.1.2-.1.6 0 .9.1.3.3.6.6.7l1.6.7c.1.1.3.1.5.1.5 0 .8-.2 1-.7l.6-1.3c1 .2 2.2.2 3.2 0l.6 1.3c.2.6.9.8 1.5.6l1.5-.8c.2-.1.5-.3.6-.7.1-.3.1-.6 0-.9l-.6-1.3c.8-.7 1.5-1.5 2.1-2.5l1.3.3c.3.1.6 0 .9-.1.2-.1.5-.5.5-.7l.3-1.7c-.2-.9-.6-1.5-1.3-1.7zm-6.2-.1c0 1.7-1.4 3.2-3.2 3.2-1.7 0-3.2-1.4-3.2-3.2s1.4-3.2 3.2-3.2c1.8 0 3.2 1.5 3.2 3.2z"/></g><g><path fill="#fff" d="M514.3 662.7c0 .6-.3 1-.9 1-.6 0-.9-.5-.9-1v-15.4c0-.6.3-1 .9-1 .6 0 .9.5.9 1v15.4z" opacity=".58"/><path fill="#fff" d="M541.3 635.8c0 .6-.3.9-.9.9h-15.3c-.6 0-.9-.3-.9-.9 0-.6.3-.9.9-.9h15.3c.5 0 .9.4.9.9z" opacity=".34"/><path fill="#fff" d="M502.5 635.8c0 .6-.3.9-.9.9h-15.3c-.6 0-.9-.3-.9-.9 0-.6.3-.9.9-.9h15.3c.6 0 .9.4.9.9z" opacity=".82"/><path fill="#fff" d="M522.1 628.3c-.3.3-1 .3-1.4 0-.3-.3-.3-1 0-1.4l10.9-10.9c.3-.3 1-.3 1.4 0 .3.3.3 1 0 1.4l-10.9 10.9z" opacity=".22"/><path fill="#fff" d="M495 655.5c-.3.3-1 .3-1.4 0-.3-.3-.3-1 0-1.4l10.9-10.9c.3-.3 1-.3 1.4 0 .3.3.3 1 0 1.4L495 655.5z" opacity=".7"/><path fill="#fff" d="M520.9 644.6c-.3-.3-.3-1 0-1.4.3-.3 1-.3 1.4 0l10.9 10.9c.3.3.3 1 0 1.4-.3.3-1 .3-1.4 0l-10.9-10.9z" opacity=".46"/><path fill="#fff" d="M493.7 617.4c-.3-.3-.3-.9 0-1.3.3-.3 1-.3 1.4 0L506 627c.3.3.3 1 0 1.4-.3.3-1 .3-1.4 0l-10.9-11z" opacity=".94"/><path fill="#fff" d="M518.7 625.4c-.2.6-.8.7-1.3.6-.5-.2-.7-.7-.6-1.3l5.8-14.2c.2-.5.7-.7 1.3-.6.5.2.7.7.6 1.3l-5.8 14.2z" opacity=".16"/><path fill="#fff" d="M504 661.1c-.2.5-.7.7-1.3.6-.5-.2-.7-.7-.6-1.3l5.8-14.2c.2-.5.7-.7 1.3-.6.5.2.7.7.6 1.3l-5.8 14.2z" opacity=".64"/><path fill="#fff" d="M523.7 640.9c-.5-.2-.7-.7-.6-1.3.2-.5.7-.7 1.3-.6l14.2 5.8c.5.2.7.7.6 1.3-.2.5-.7.7-1.3.6l-14.2-5.8z" opacity=".4"/><path fill="#fff" d="M488.1 626.4c-.5-.2-.7-.7-.6-1.3.2-.5.7-.7 1.3-.6l14.2 5.9c.5.2.7.7.6 1.3-.2.5-.7.7-1.3.6l-14.2-5.9z" opacity=".88"/><path fill="#fff" d="M524.3 632.2c-.5.2-1 0-1.3-.6-.2-.5 0-1 .6-1.3l14.2-5.9c.5-.2 1 0 1.3.6.2.5 0 1-.6 1.3l-14.2 5.9z" opacity=".28"/><path fill="#fff" d="M488.9 647c-.5.2-1 0-1.3-.6-.2-.5 0-1 .6-1.3l14.2-5.9c.5-.2 1 0 1.3.6.2.5 0 1-.6 1.3l-14.2 5.9z" opacity=".76"/><path fill="#fff" d="M517 646.7c-.2-.5 0-1 .6-1.3.5-.2 1 0 1.3.6l5.9 14.2c.2.5 0 1-.6 1.3-.5.2-1 0-1.3-.6l-5.9-14.2z" opacity=".52"/><path d="M502.1 611.2c-.2-.5 0-1 .6-1.3.5-.2 1 0 1.3.6l5.8 14.2c.2.5 0 1-.6 1.3-.5.2-1 0-1.3-.6l-5.8-14.2z" class="st10"/></g><g><path d="M673.6 476.1c-5.4-5.4-12.5-8.3-20.2-8.3-7.6 0-14.8 3-20.2 8.3-5.4 5.4-8.3 12.5-8.3 20.2s3 14.8 8.3 20.2c5.4 5.4 12.5 8.3 20.2 8.3 7.6 0 14.8-3 20.2-8.3 5.4-5.4 8.3-12.5 8.3-20.2s-2.9-14.8-8.3-20.2zm-20.1 45.5c-14 0-25.3-11.4-25.3-25.3s11.4-25.3 25.3-25.3 25.3 11.4 25.3 25.3-11.3 25.3-25.3 25.3z" class="st10"/><path d="M664.2 485.7l-15.8 15.8-5.7-5.7c-1-1-2.6-1-3.6 0s-1 2.6 0 3.6l7.5 7.5c.5.5 1.1.8 1.8.8s1.3-.2 1.8-.8l17.7-17.7c1-1 1-2.6 0-3.6-1.1-.9-2.7-.9-3.7.1z" class="st10"/></g></g><g><defs><path id="SVGID_1_" d="M409.6 382.2v-22.4h2.7v14.3l7.3-7.8h3.4l-6.1 6.4 6.2 9.4h-3.2l-4.8-7.4-2.7 2.8v4.6l-2.8.1zm-26.4 0v-15.8h2.3l.1 2.5c1.3-2 2.8-2.8 5-2.8s3.7.9 4.4 2.8c1.3-2 2.9-2.8 5-2.8 3.2 0 4.9 1.9 4.9 5.4v10.8H402v-10.6c0-2.1-.9-3.1-2.6-3.1s-3 1-4.2 3.3v10.4h-2.7v-10.6c0-2.1-.9-3.1-2.6-3.1-1.7 0-3 1-4.2 3.5v10.2h-2.5zm-15.8 0v-22.4h1.7v15.4l8.8-8.7h2.2l-6.4 6.4 6.6 9.3h-2.1l-5.7-8.1-3.3 3.2v4.8l-1.8.1zm-10.1.4c-4.1 0-6.4-2.3-6.4-6.6v-3.1c0-4.3 2.3-6.6 6.4-6.6 3.8 0 6 2 6.1 5.4h-1.7c-.2-2.6-1.7-3.9-4.4-3.9-3.2 0-4.7 1.7-4.7 5.2v2.9c0 3.5 1.6 5.2 4.7 5.2 2.7 0 4.2-1.3 4.4-3.9h1.7c-.2 3.3-2.3 5.4-6.1 5.4zm-21.4-9.3h9.6v-.3c0-3.6-1.6-5.3-4.8-5.3s-4.8 1.7-4.8 5.3v.3zm4.9 9.3c-4.3 0-6.6-2.3-6.6-6.6v-3.1c0-4.3 2.3-6.6 6.5-6.6s6.5 2.3 6.5 6.6v1.9H336v1.1c0 3.6 1.6 5.3 4.9 5.3 2.8 0 4.4-1.3 4.6-3.5h1.7c-.4 3.2-2.7 4.9-6.4 4.9zm-23.2-.4v-22.4h1.7v9.4c1.3-2.1 3.1-3.1 5.4-3.1 3.2 0 4.9 2 4.9 5.7v10.4H328V372c0-2.9-1.1-4.3-3.5-4.3-2.2 0-3.9 1.2-5.2 4.1v10.4h-1.7zm-10.1.4c-4.1 0-6.4-2.3-6.4-6.6v-3.1c0-4.3 2.3-6.6 6.4-6.6 3.8 0 6 2 6.1 5.4h-1.7c-.2-2.6-1.7-3.9-4.4-3.9-3.2 0-4.7 1.7-4.7 5.2v2.9c0 3.5 1.6 5.2 4.7 5.2 2.7 0 4.2-1.3 4.4-3.9h1.7c-.2 3.3-2.3 5.4-6.1 5.4z"/></defs><clipPath id="SVGID_2_"><use overflow="visible" xlink:href="#SVGID_1_"/></clipPath><g clip-path="url(#SVGID_2_)"><defs><path id="SVGID_3_" d="M200.5 245.4h466.7v262.5H200.5z"/></defs><clipPath id="SVGID_4_"><use overflow="visible" xlink:href="#SVGID_3_"/></clipPath><path fill="#2a3942" d="M299.8 358.7h124.4v25.2H299.8z" clip-path="url(#SVGID_4_)"/></g><g><defs><path id="SVGID_5_" d="M253.1 367v8l9.8-6.4v16.5l3.9 2.2 3.9-2.2v-16.5l9.8 6.4v-8l-13.7-8.6-13.7 8.6zm13.7-17.6l20.9 12.1v24.2l-20.9 12.1-20.8-12.1v-24.2l20.8-12.1z"/></defs><clipPath id="SVGID_6_"><use overflow="visible" xlink:href="#SVGID_5_"/></clipPath><g clip-path="url(#SVGID_6_)"><defs><path id="SVGID_7_" d="M200.5 245.4h466.7v262.5H200.5z"/></defs><clipPath id="SVGID_8_"><use overflow="visible" xlink:href="#SVGID_7_"/></clipPath><path fill="#13d389" d="M244.7 348.2h44.2v50.7h-44.2z" clip-path="url(#SVGID_8_)"/></g></g></g><g><path d="M253.9 413.6h3.2l8.8 24.2h-3.4l-2.2-6.2h-9.7l-2.2 6.2h-3.3l8.8-24.2zm5.4 15.1l-3.8-11-3.8 11h7.6zM269.2 420h2.6l.1 2.8c1.5-2.2 3.4-3.2 6-3.2 4.1 0 6.5 2.5 6.5 7.4v3.8c0 4.9-2.4 7.4-6.5 7.4-2.4 0-4.2-.9-5.6-2.8v8.6h-3v-24zm12.1 10.7v-3.6c0-3.2-1.4-4.9-3.9-4.9-2.3 0-4.1 1.5-5.3 4v5.2c1.2 2.5 3 4 5.3 4 2.5.1 3.9-1.5 3.9-4.7zM289.2 420h2.6l.1 2.8c1.5-2.2 3.4-3.2 6-3.2 4.1 0 6.5 2.5 6.5 7.4v3.8c0 4.9-2.4 7.4-6.5 7.4-2.4 0-4.2-.9-5.6-2.8v8.6h-3v-24zm12.2 10.7v-3.6c0-3.2-1.4-4.9-3.9-4.9-2.3 0-4.1 1.5-5.3 4v5.2c1.2 2.5 3 4 5.3 4 2.4.1 3.9-1.5 3.9-4.7zM309.2 412.7h3v25.1h-3v-25.1zM317.8 413.5h3.3v3.4h-3.3v-3.4zm.1 6.5h3v17.8h-3V420zM325.8 430.7v-3.5c0-4.9 2.6-7.5 7.4-7.5 4.5 0 7 2.3 7.1 6.6h-2.9c-.2-2.9-1.7-3.9-4.1-3.9-3 0-4.4 1.5-4.4 5v3.4c0 3.4 1.4 5 4.4 5 2.5 0 3.9-1.1 4.1-3.9h2.9c-.1 4.3-2.6 6.6-7.1 6.6-4.8-.3-7.4-2.9-7.4-7.8zM343.6 432.8c0-3.5 2.3-5.5 7.3-5.5h4.3v-1c0-2.8-1.3-4-4-4-2.5 0-4 1-4.1 3.2h-3c.3-3.9 2.7-5.8 7.2-5.8 4.7 0 7 2.2 7 6.6v11.6h-2.6l-.1-2.4c-1.4 1.8-3.4 2.8-6 2.8-3.8-.1-6-2.1-6-5.5zm11.6-.6v-2.5H351c-3.1 0-4.4 1-4.4 3 0 1.9 1.1 2.9 3.3 2.9 2.4 0 4.2-1.2 5.3-3.4zM363.9 432.2v-9.7h-3.1V420h3.1l.2-4.7h2.7v4.7h4.4v2.5H367v9.8c0 2.3.5 2.9 2.5 2.9h2v2.6h-2.8c-3.3 0-4.8-1.7-4.8-5.6zM374.9 413.5h3.3v3.4h-3.3v-3.4zm.1 6.5h3v17.8h-3V420zM382.8 430.3v-2.9c0-5.2 2.6-7.8 7.7-7.8 5 0 7.7 2.7 7.7 7.8v2.9c0 5.2-2.6 7.8-7.7 7.8-5 .1-7.7-2.6-7.7-7.8zm12.4-.1v-2.7c0-3.6-1.5-5.3-4.6-5.3-3.1 0-4.6 1.7-4.6 5.3v2.7c0 3.6 1.5 5.3 4.6 5.3 3 0 4.6-1.7 4.6-5.3zM403 420h2.6l.1 2.8c1.5-2.2 3.4-3.2 5.9-3.2 3.7 0 5.6 2.2 5.6 6.5v11.7h-3v-11.4c0-2.8-1-4-3.1-4s-3.7 1.2-5 3.9v11.5h-3V420zM432.4 413.6h4.8l7.3 19 7.3-19h4.8v24.2h-3.2v-20.1l-7.8 20.1h-2.3l-7.8-20.1v20.1h-3.1v-24.2zM461.8 430.3v-2.9c0-5.2 2.6-7.8 7.7-7.8s7.7 2.7 7.7 7.8v2.9c0 5.2-2.6 7.8-7.7 7.8s-7.7-2.6-7.7-7.8zm12.3-.1v-2.7c0-3.6-1.5-5.3-4.6-5.3s-4.6 1.7-4.6 5.3v2.7c0 3.6 1.5 5.3 4.6 5.3s4.6-1.7 4.6-5.3zM482 420h2.6l.1 2.8c1.5-2.2 3.4-3.2 5.9-3.2 3.7 0 5.6 2.2 5.6 6.5v11.7h-3v-11.4c0-2.8-1-4-3.1-4s-3.7 1.2-5 3.9v11.5h-3V420zM501.4 413.5h3.3v3.4h-3.3v-3.4zm.2 6.5h3v17.8h-3V420zM511 432.2v-9.7h-3.1V420h3.1l.2-4.7h2.7v4.7h4.4v2.5H514v9.8c0 2.3.5 2.9 2.5 2.9h2v2.6h-2.8c-3.3 0-4.7-1.7-4.7-5.6zM521.2 430.3v-2.9c0-5.2 2.6-7.8 7.7-7.8 5 0 7.7 2.7 7.7 7.8v2.9c0 5.2-2.6 7.8-7.7 7.8-5 .1-7.7-2.6-7.7-7.8zm12.3-.1v-2.7c0-3.6-1.5-5.3-4.6-5.3-3.1 0-4.6 1.7-4.6 5.3v2.7c0 3.6 1.5 5.3 4.6 5.3 3.1 0 4.6-1.7 4.6-5.3zM541.4 420h2.6l.1 3.3c.9-2.5 2.5-3.6 5.1-3.6h1.2v3h-.9c-2.9 0-4.5 1.5-5.1 4.9v10.2h-3V420zM553.5 413.5h3.3v3.4h-3.3v-3.4zm.2 6.5h3v17.8h-3V420zM562.4 420h2.6l.1 2.8c1.5-2.2 3.4-3.2 5.9-3.2 3.7 0 5.6 2.2 5.6 6.5v11.7h-3v-11.4c0-2.8-1-4-3.1-4s-3.7 1.2-5 3.9v11.5h-3V420zM581.5 439h2.8c.2 2.1 1.9 2.9 4.3 2.9 3.2 0 4.6-1.3 4.6-4.4v-2.9c-1.4 1.9-3.2 2.7-5.6 2.7-4.1 0-6.5-2.5-6.5-7.4V427c0-4.9 2.4-7.4 6.5-7.4 2.5 0 4.4 1 5.9 3.2l.1-2.8h2.6v17.4c0 4.7-2.5 7.1-7.6 7.1-4.4 0-6.9-1.9-7.1-5.5zm11.8-8.4v-4.4c-1.2-2.5-3-4-5.2-4-2.4 0-3.9 1.7-3.9 4.9v2.6c0 3.2 1.4 4.9 3.9 4.9 2.2-.1 4-1.5 5.2-4z" class="st32"/></g></svg>