<svg xmlns="http://www.w3.org/2000/svg" id="Layer_1" viewBox="0 0 652 310.5"><style>.st0{fill:#35a8e1}</style><path d="M99 15.5c35-4.9 69.9-9.7 104.9-14.5-.1 30.8 0 61.6 0 92.4h-105c.1-25.9-.1-51.9.1-77.9m501.7.6c3.6-4.8 10.8-6 15.7-2.6-3.8 1-8.1.8-11.6 2.7-3 4.2-1.4 9.8-1.9 14.7 7 .1 13.9 0 20.9.1.1-5.1.2-10.1.2-15.2l3.7.1v14.9c3.7.1 7.3.1 11 .2v2.8c-3.7 0-7.4 0-11 .1.1 10.8 0 21.5 0 32.3.3 2.9-.7 6.8 2 8.8 2.5 2 6 1.5 9 2.1v2.7c-5.6.1-13.5-1.1-14.4-7.9-.7-12.7-.1-25.4-.2-38.1h-21c0 15.4.1 30.8-.1 46.2-.9-.3-2.5-.9-3.4-1.1-.7-14.9-.2-30-.2-44.9-3.4-.6-8.3 1.2-10.2-2.7 3.3-.2 6.7-.4 10-.5.2-4.9-.5-10.1 1.5-14.7M257.4 12c1.5.3 4.4.9 5.9 1.2 10.3 20.1 18.8 41.2 28.5 61.6 10.8-19.9 18.8-41.3 28.5-61.8 2.1 0 4.2-.1 6.3-.1v66.7c-1.1-.1-3.4-.3-4.5-.4.1-20.5.3-40.9-.1-61.4-9.8 20.3-18.4 41.2-27.8 61.6h-4.1c-6.3-13.6-12.5-27.3-18.7-41-3-6.5-5.3-13.4-9.7-19.1-.7 20-.2 40-.3 60.1-1 0-3.1.1-4.1.2.1-22.6 0-45.1.1-67.6m82.5.8c.9 0 2.7.1 3.5.1v8.9h-3.6c0-3 .1-6 .1-9M15.1 27.3c26.6-3.8 53.3-7 79.9-11.4.2 25.9 0 51.7.1 77.6-26.6.2-53.2-.3-79.8.3-.2-22.2 0-44.4-.2-66.5m345.3 9c11.1-11.6 34.7-8.1 38.9 8.5-.8.3-2.5.9-3.4 1.2-3-16-27-18-35-5.2-5.7 8.8-5.3 21.5.7 30 7.8 10 27.2 9.2 32.2-3.3 1.2-2.5 2.2-5.8 5.8-5.1-2.5 13.2-16.8 21.2-29.4 17.2-18.2-4.3-22.2-30.8-9.8-43.3m-20.5-5.5l3.6.1v48.4l-3.5.2c-.2-16.2-.2-32.4-.1-48.7m69 .1h3.7c.1 3 .1 5.9.2 8.9 5.4-4.7 11.8-10 19.5-8.7.4.5 1.3 1.5 1.7 2.1-8.9.4-18.8 5.1-20.8 14.6-1.3 10.8.1 21.8-.8 32.6-.9-.5-2.5-1.5-3.3-1.9-.6-15.9-.1-31.7-.2-47.6m43 2.5c-17.7 5.7-18.8 34.6-2.4 42.6 7.2 3 16.5 2.3 22.1-3.5 8.6-8.8 8.8-24.3 1-33.6-5-6-13.5-7.5-20.7-5.5m-2-2.4c8.5-3 18.7-1 25 5.4 10 10.7 9.3 29.8-2 39.2-10.5 8.5-28.3 5.8-34.9-6.3-8-12.8-3.3-33.3 11.9-38.3m47.3 1.8c8.1-4.2 18.7-4.5 26.6.2 4.5 2.4 5.4 7.9 6.7 12.3-5.8.1-4.5-7.5-8.8-9.9-6.5-4-15.5-3.8-22.1-.3-5.4 2.8-5.3 11.4.2 14.1 8.5 4.4 19 3.2 27.2 8.3 4.8 3 5.6 9.7 3.7 14.6-2.5 5.5-8.9 7.3-14.3 8.2-8.5 1.3-18.6-.6-23.7-8.1-1.9-3-4.2-7.6.1-9.5 1.6 3.9 2.5 8.6 6.1 11.3 6.6 5 15.9 4.5 23.3 1.9 6.5-2.1 8.1-12.1 2.2-15.8-8.8-4.9-20.1-3.2-28.4-9.1-6.1-4.5-5.4-14.7 1.2-18.2m63-.1c-15.9 1.2-21.8 21.5-15.3 34.1 4.5 10.9 19.8 14.1 29.1 7.4 9.8-7.5 11.1-22.8 4.8-33-3.8-6.3-11.4-9.5-18.6-8.5m-7.4-1.1c9.2-4 21-1.9 27.6 5.9 8.3 10.3 7.9 26.5-1 36.2-8.4 8.6-23.5 9.3-32.4 1.1-13-11.3-10.6-36.3 5.8-43.2M15.3 97.3h79.8c.1 25.7 0 51.4.1 77.2-26.7-2.4-53.2-7.4-79.8-10.6-.2-22.3-.2-44.4-.1-66.6m83.6 78c.2-26-.2-52.1.2-78.1 34.9.2 69.9-.1 104.8.1v92.6c-35.1-4.5-70.1-9.6-105-14.6m172.3-31.7h25.1c-4-10.5-7.8-21.1-12.3-31.3-4.8 10.1-8.3 20.9-12.8 31.3m7.7-39.3c3.6 0 7.1.1 10.7.2 9.2 22.3 18.5 44.6 28.3 66.7-3.5 0-7-.1-10.5-.1-2.6-6.7-5.2-13.3-7.8-20-10.5.1-20.9 0-31.4.1-2.7 6.7-5.4 13.3-8.1 20h-9.4c9.4-22.3 18.7-44.7 28.2-66.9m157.7 27.8c4.9-6.1 11.2-11.3 19.5-11.1 0 2.7 0 5.4.1 8.1-7.2.3-15.6 3.1-17.7 10.9-2.4 10.2-.7 20.7-1.2 31.1h-8.6c-.1-16.2-.1-32.5 0-48.7h8l-.1 9.7zm29.8 10.3c10.7.2 21.3.2 32 0-1.7-8-8.4-15.7-17.4-14.2-8.1-.4-13 7.2-14.6 14.2m-2.3-12.4c8.4-10.6 26.4-11.7 35.6-1.5 5.1 5.7 6.6 13.4 6.8 20.8-13.4.1-26.7-.1-40.1.1 1 4 1.3 8.6 4.6 11.5 7.8 7.8 23.2 6 27.2-4.9 2 .1 6 .1 7.9.2-4.7 16.9-28.2 20.8-40.3 9.8-9.3-9.4-10.2-25.9-1.7-36m-143.3-7.5c14-.1 27.9-.2 41.9.1-.3 5.4-4.5 9-7.8 12.9-8.3 9.5-16.7 19-24.9 28.6 11.1 2.1 22.4-1.2 33.5 1.2 0 1.4.1 4.3.1 5.8h-44.2V165c10.3-11.8 21.1-23.1 30.9-35.3-9.5-.8-19.1-.1-28.6-.7-.3-1.5-.7-4.8-.9-6.5m50.5-.1c2.8 0 5.7 0 8.6.1.2 12-.6 24.1.3 36.1 4.5 12.9 26.4 6.9 26.4-6 .3-10 0-20.1.1-30.1h8.3v48.7h-7.6c-.2-1.6-.5-4.9-.7-6.6-6.8 7.7-18.3 9.8-27.5 5.5-5.8-2.6-7.7-9.4-7.7-15.2-.4-10.9-.1-21.7-.2-32.5M274.8 226.4h4.6l-9.5 27.1h-4.7l-9.5-27.1h4.6l5.7 16.9c.3.8.6 1.8.9 3.1.3 1.3.6 2.2.6 2.8.2-.9.4-2 .7-3.3.3-1.2.6-2.2.8-2.7l5.8-16.8zm7.4 1.1c0-.8.2-1.4.6-1.8s1-.6 1.8-.6 1.4.2 1.8.6.6 1 .6 1.8c0 .7-.2 1.3-.6 1.8-.4.4-1 .6-1.8.6s-1.4-.2-1.8-.6-.6-1-.6-1.8zm4.6 26h-4.4V233h4.4v20.5zm16.7-20.9c.9 0 1.6.1 2.2.2l-.4 4.1c-.6-.1-1.3-.2-1.9-.2-1.7 0-3.2.6-4.2 1.7-1.1 1.1-1.6 2.6-1.6 4.4v10.7h-4.4V233h3.4l.6 3.6h.2c.7-1.2 1.6-2.2 2.7-2.9.9-.7 2.1-1.1 3.4-1.1zm13.6 17.7c1.1 0 2.1-.2 3.2-.5v3.3c-.5.2-1.1.4-1.9.5s-1.5.2-2.4.2c-4.1 0-6.2-2.2-6.2-6.5v-11.1H307v-1.9l3-1.6 1.5-4.3h2.7v4.6h5.8v3.3h-5.8v11c0 1.1.3 1.8.8 2.3.6.5 1.3.7 2.1.7zm21.8 3.2l-.6-2.7h-.3c-.6 1-1.5 1.7-2.6 2.2s-2.4.8-3.8.8c-2.5 0-4.3-.6-5.6-1.9-1.2-1.2-1.8-3.1-1.8-5.6v-13.4h4.4v12.7c0 1.6.3 2.7 1 3.5.6.8 1.7 1.2 3 1.2 1.8 0 3.2-.5 4-1.6.9-1.1 1.3-2.9 1.3-5.5V233h4.4v20.5h-3.4zm22.5 0l-.9-2.9h-.1c-1 1.3-2 2.1-3 2.6s-2.3.7-3.9.7c-2 0-3.6-.5-4.7-1.6s-1.7-2.6-1.7-4.6c0-2.1.8-3.7 2.4-4.8s4-1.7 7.2-1.8l3.5-.1v-1.1c0-1.3-.3-2.3-.9-2.9-.6-.7-1.6-1-2.8-1-1.1 0-2.1.2-3 .5-1 .3-1.9.7-2.8 1.1l-1.4-3.1c1.1-.6 2.3-1 3.7-1.3 1.3-.3 2.6-.5 3.7-.5 2.6 0 4.6.6 5.9 1.7s2 2.9 2 5.4v13.7h-3.2zm-6.5-3c1.6 0 2.9-.4 3.8-1.3 1-.9 1.4-2.1 1.4-3.7v-1.8l-2.6.1c-2.1.1-3.5.4-4.5 1-.9.6-1.4 1.5-1.4 2.8 0 .9.3 1.6.8 2.1.6.6 1.4.8 2.5.8zm20 3h-4.4v-28.9h4.4v28.9zm28.3 0l-7.9-22.7h-.1c.2 3.4.3 6.5.3 9.5v13.2h-4v-27.1h6.3l7.5 21.6h.1l7.8-21.6h6.3v27.1h-4.3v-13.4c0-1.3 0-3.1.1-5.3.1-2.2.1-3.5.2-3.9h-.1l-8.1 22.6h-4.1zm35.7 0l-.9-2.9h-.1c-1 1.3-2 2.1-3 2.6s-2.3.7-3.9.7c-2 0-3.6-.5-4.7-1.6s-1.7-2.6-1.7-4.6c0-2.1.8-3.7 2.4-4.8s4-1.7 7.2-1.8l3.5-.1v-1.1c0-1.3-.3-2.3-.9-2.9-.6-.7-1.6-1-2.8-1-1.1 0-2.1.2-3 .5-1 .3-1.9.7-2.8 1.1l-1.4-3.1c1.1-.6 2.3-1 3.7-1.3 1.3-.3 2.6-.5 3.7-.5 2.6 0 4.6.6 5.9 1.7s2 2.9 2 5.4v13.7h-3.2zm-6.5-3c1.6 0 2.9-.4 3.8-1.3 1-.9 1.4-2.1 1.4-3.7v-1.8l-2.6.1c-2.1.1-3.5.4-4.5 1-.9.6-1.4 1.5-1.4 2.8 0 .9.3 1.6.8 2.1.6.6 1.5.8 2.5.8zm24 3.4c-3.1 0-5.5-.9-7.1-2.7-1.6-1.8-2.4-4.4-2.4-7.8 0-3.5.8-6.1 2.5-8s4.1-2.8 7.3-2.8c2.2 0 4.1.4 5.8 1.2l-1.3 3.5c-1.8-.7-3.4-1.1-4.6-1.1-3.5 0-5.3 2.4-5.3 7.1 0 2.3.4 4 1.3 5.2s2.2 1.7 3.9 1.7c1.9 0 3.8-.5 5.5-1.4v3.8c-.8.5-1.6.8-2.5 1-.7.2-1.8.3-3.1.3zm28.6-.4h-4.4v-12.6c0-1.6-.3-2.8-1-3.5-.6-.8-1.6-1.2-3-1.2-1.8 0-3.2.5-4 1.6-.9 1.1-1.3 2.9-1.3 5.5v10.2H467v-28.9h4.4v7.3c0 1.2-.1 2.4-.2 3.8h.3c.6-1 1.4-1.8 2.5-2.3s2.3-.8 3.7-.8c5 0 7.5 2.5 7.5 7.5v13.4h-.2zm5.8-26c0-.8.2-1.4.6-1.8s1-.6 1.8-.6 1.4.2 1.8.6.6 1 .6 1.8c0 .7-.2 1.3-.6 1.8-.4.4-1 .6-1.8.6s-1.4-.2-1.8-.6-.6-1-.6-1.8zm4.6 26H491V233h4.4v20.5zm24.3 0h-4.4v-12.6c0-1.6-.3-2.8-1-3.5-.6-.8-1.6-1.2-3-1.2-1.8 0-3.2.5-4 1.6-.9 1.1-1.3 2.9-1.3 5.5v10.2h-4.4V233h3.4l.6 2.7h.2c.6-1 1.5-1.7 2.6-2.3 1.1-.5 2.4-.8 3.8-.8 4.9 0 7.4 2.5 7.4 7.5l.1 13.4zm15.1.4c-3.2 0-5.7-.9-7.5-2.8s-2.7-4.4-2.7-7.7c0-3.4.8-6 2.5-7.9s4-2.9 6.9-2.9c2.7 0 4.8.8 6.4 2.5 1.6 1.6 2.4 3.9 2.4 6.8v2.4h-13.7c.1 2 .6 3.5 1.6 4.6s2.4 1.6 4.3 1.6c1.2 0 2.3-.1 3.4-.3 1-.2 2.2-.6 3.4-1.1v3.5c-1.1.5-2.1.9-3.2 1.1s-2.4.2-3.8.2zm-.8-18c-1.4 0-2.5.4-3.3 1.3s-1.3 2.2-1.5 3.8h9.3c0-1.7-.4-3-1.2-3.8-.9-.9-2-1.3-3.3-1.3zm27.5 11.8c0 2-.7 3.5-2.2 4.6s-3.5 1.6-6.3 1.6c-2.7 0-4.9-.4-6.6-1.2v-3.8c2.4 1.1 4.7 1.7 6.7 1.7 2.7 0 4-.8 4-2.4 0-.5-.1-1-.4-1.3-.3-.3-.8-.7-1.5-1.1s-1.6-.8-2.8-1.3c-2.4-.9-4-1.8-4.8-2.7-.8-.9-1.3-2.1-1.3-3.6 0-1.8.7-3.1 2.1-4.1 1.4-1 3.3-1.5 5.8-1.5 2.4 0 4.7.5 6.8 1.5l-1.4 3.3c-2.2-.9-4.1-1.4-5.6-1.4-2.3 0-3.5.7-3.5 2 0 .6.3 1.2.9 1.6.6.4 1.9 1.1 3.9 1.8 1.7.7 2.9 1.3 3.7 1.8s1.3 1.2 1.7 1.9c.6.7.8 1.6.8 2.6z" class="st0"/></svg>