<svg xmlns="http://www.w3.org/2000/svg" xmlns:xlink="http://www.w3.org/1999/xlink" id="Layer_1" viewBox="0 0 750 750"><style>.st1{fill:#4b4b4b}.st4{fill:none;stroke:#6d6d6d;stroke-width:1.5;stroke-miterlimit:10;stroke-dasharray:12,12}.st5{fill:#6d6d6d}.st7{fill:#2518a0}.st10{fill:#463e75}.st11{fill:#212121}</style><path fill="#578ae5" d="M288.6 89.5c-.5-5.1-4.7-9-9.6-9-3.1 0-6 1.6-7.8 4.2-.4-.1-.7-.1-1.1-.1-2.8 0-5.3 1.9-6.1 4.7-2.3 1.4-3.8 4-3.8 6.8 0 4.3 3.4 7.8 7.5 7.8H286.3c3.9 0 7.1-3.3 7.1-7.4 0-3.2-2-6-4.8-7zm-2.2 11.9h-18.7c-2.8 0-5.1-2.4-5.1-5.4 0-2 1.1-3.9 2.9-4.8l.5-.3.1-.6c.4-1.9 2-3.3 3.9-3.3.4 0 .8.1 1.2.2l.9.3.5-.9c1.3-2.3 3.7-3.7 6.2-3.7 3.9 0 7.2 3.4 7.3 7.5v1l1 .2c2.2.4 3.8 2.5 3.8 4.8.1 2.8-2 5-4.5 5z"/><path d="M230.1 35c-3 0-5.4 2.5-5.4 5.5 0 3.1 2.4 5.5 5.4 5.5s5.4-2.5 5.4-5.5c.1-3-2.4-5.5-5.4-5.5zm0 8.6c-1.7 0-3-1.4-3-3.1 0-1.7 1.4-3.1 3-3.1s3 1.4 3 3.1c0 1.8-1.3 3.1-3 3.1z" class="st1"/><ellipse cx="277.9" cy="38.7" class="st1" rx="1.2" ry="1.2"/><ellipse cx="273" cy="38.7" class="st1" rx="1.2" ry="1.2"/><ellipse cx="280.3" cy="42.4" class="st1" rx="1.2" ry="1.2"/><ellipse cx="275.5" cy="42.4" class="st1" rx="1.2" ry="1.2"/><ellipse cx="268.2" cy="38.7" class="st1" rx="1.2" ry="1.2"/><ellipse cx="270.6" cy="42.4" class="st1" rx="1.2" ry="1.2"/><ellipse cx="263.4" cy="38.7" class="st1" rx="1.2" ry="1.2"/><ellipse cx="265.8" cy="42.4" class="st1" rx="1.2" ry="1.2"/><ellipse cx="258.5" cy="38.7" class="st1" rx="1.2" ry="1.2"/><ellipse cx="261" cy="42.4" class="st1" rx="1.2" ry="1.2"/><path d="M290 47.8V33.3c0-3.1-2.5-5.7-5.6-5.7H223c-3.1 0-5.6 2.5-5.6 5.7v14.5c0 1.8.9 3.4 2.1 4.4-1.3 1-2.1 2.6-2.1 4.4v14.5c0 1.8.9 3.4 2.1 4.4-1.3 1-2.1 2.6-2.1 4.4v14.5c0 3.1 2.5 5.7 5.6 5.7h28.3v-2.5H223c-1.7 0-3.2-1.4-3.2-3.2V80.1c0-1.8 1.4-3.2 3.2-3.2h40.4v-2.5H223c-1.7 0-3.2-1.4-3.2-3.2V56.7c0-1.8 1.4-3.2 3.2-3.2h61.4c1.7 0 3.2 1.4 3.2 3.2v17.7h2.4V56.7c0-1.8-.9-3.4-2.1-4.4 1.2-1.1 2.1-2.7 2.1-4.5zM223 51c-1.7 0-3.2-1.4-3.2-3.2V33.3c0-1.8 1.4-3.2 3.2-3.2h61.4c1.7 0 3.2 1.4 3.2 3.2v14.5c0 1.8-1.4 3.2-3.2 3.2H223z" class="st1"/><path d="M224.7 63.9c0 3.1 2.4 5.5 5.4 5.5s5.4-2.5 5.4-5.5-2.4-5.5-5.4-5.5-5.4 2.5-5.4 5.5zm8.4 0c0 1.7-1.4 3.1-3 3.1s-3-1.4-3-3.1c0-1.7 1.4-3.1 3-3.1s3 1.4 3 3.1z" class="st1"/><ellipse cx="277.9" cy="62.1" class="st1" rx="1.2" ry="1.2"/><ellipse cx="273" cy="62.1" class="st1" rx="1.2" ry="1.2"/><ellipse cx="280.3" cy="65.8" class="st1" rx="1.2" ry="1.2"/><ellipse cx="275.5" cy="65.8" class="st1" rx="1.2" ry="1.2"/><ellipse cx="268.2" cy="62.1" class="st1" rx="1.2" ry="1.2"/><ellipse cx="270.6" cy="65.8" class="st1" rx="1.2" ry="1.2"/><ellipse cx="263.4" cy="62.1" class="st1" rx="1.2" ry="1.2"/><ellipse cx="265.8" cy="65.8" class="st1" rx="1.2" ry="1.2"/><ellipse cx="258.5" cy="62.1" class="st1" rx="1.2" ry="1.2"/><ellipse cx="261" cy="65.8" class="st1" rx="1.2" ry="1.2"/><path d="M224.7 87.3c0 3.1 2.4 5.5 5.4 5.5s5.4-2.5 5.4-5.5-2.4-5.5-5.4-5.5-5.4 2.4-5.4 5.5zm8.4 0c0 1.7-1.4 3.1-3 3.1s-3-1.4-3-3.1 1.4-3.1 3-3.1 3 1.4 3 3.1z" class="st1"/><g id="Layer_10"><defs><path id="SVGID_1_" d="M242 30.5h185v656H242z"/></defs><clipPath id="SVGID_2_"><use overflow="visible" xlink:href="#SVGID_1_"/></clipPath><g clip-path="url(#SVGID_2_)"><ellipse cx="489.8" cy="360.2" fill="none" stroke="#c4c4c4" stroke-miterlimit="10" stroke-width="1.25" rx="222.5" ry="321"/></g><path d="M219 164.5h94.6" class="st4"/><path d="M313.4 170.1c3.1 0 5.6-2.5 5.6-5.6s-2.5-5.6-5.6-5.6-5.6 2.5-5.6 5.6 2.4 5.6 5.6 5.6z" class="st5"/><path d="M147 294.5h124.6" class="st4"/><path d="M271.4 300.1c3.1 0 5.6-2.5 5.6-5.6s-2.5-5.6-5.6-5.6-5.6 2.5-5.6 5.6 2.4 5.6 5.6 5.6z" class="st5"/><g><path d="M148 427.5h124.6" class="st4"/><path d="M272.4 433.1c3.1 0 5.6-2.5 5.6-5.6s-2.5-5.6-5.6-5.6-5.6 2.5-5.6 5.6 2.4 5.6 5.6 5.6z" class="st5"/></g><g><path d="M219 557.5h94.6" class="st4"/><path d="M313.4 563.1c3.1 0 5.6-2.5 5.6-5.6s-2.5-5.6-5.6-5.6-5.6 2.5-5.6 5.6 2.4 5.6 5.6 5.6z" class="st5"/></g><g><path d="M320 656.5h84.6" class="st4"/><path d="M404.4 662.1c3.1 0 5.6-2.5 5.6-5.6s-2.5-5.6-5.6-5.6-5.6 2.5-5.6 5.6 2.4 5.6 5.6 5.6z" class="st5"/></g><g><path d="M317 65.5h84.6" class="st4"/><path d="M401.4 71.1c3.1 0 5.6-2.5 5.6-5.6s-2.5-5.6-5.6-5.6-5.6 2.5-5.6 5.6 2.4 5.6 5.6 5.6z" class="st5"/></g></g><g id="Layer_6"><path d="M60.1 399c-2.9 0-5.3 2.4-5.3 5.4s2.4 5.4 5.3 5.4 5.3-2.4 5.3-5.4c0-2.9-2.4-5.4-5.3-5.4zm0 8.4c-1.6 0-3-1.3-3-3s1.3-3 3-3c1.6 0 3 1.3 3 3-.1 1.7-1.4 3-3 3z" class="st1"/><ellipse cx="106.7" cy="402.6" class="st1" rx="1.2" ry="1.2"/><ellipse cx="102" cy="402.6" class="st1" rx="1.2" ry="1.2"/><ellipse cx="109.1" cy="406.2" class="st1" rx="1.2" ry="1.2"/><ellipse cx="104.4" cy="406.2" class="st1" rx="1.2" ry="1.2"/><ellipse cx="97.3" cy="402.6" class="st1" rx="1.2" ry="1.2"/><ellipse cx="99.7" cy="406.2" class="st1" rx="1.2" ry="1.2"/><ellipse cx="92.6" cy="402.6" class="st1" rx="1.2" ry="1.2"/><ellipse cx="94.9" cy="406.2" class="st1" rx="1.2" ry="1.2"/><ellipse cx="87.8" cy="402.6" class="st1" rx="1.2" ry="1.2"/><ellipse cx="90.2" cy="406.2" class="st1" rx="1.2" ry="1.2"/><path d="M118.6 411.5v-14.2c0-3.1-2.4-5.5-5.4-5.5h-60c-3 0-5.4 2.5-5.4 5.5v14.2c0 1.8.8 3.3 2.1 4.3-1.3 1-2.1 2.6-2.1 4.3v14.2c0 1.8.8 3.3 2.1 4.3-1.3 1-2.1 2.6-2.1 4.3v14.2c0 3.1 2.4 5.5 5.4 5.5h27.6v-2.4H53.1c-1.7 0-3.1-1.4-3.1-3.1V443c0-1.7 1.4-3.1 3.1-3.1h39.5v-2.4H53.1c-1.7 0-3.1-1.4-3.1-3.1v-14.2c0-1.7 1.4-3.1 3.1-3.1h60c1.7 0 3.1 1.4 3.1 3.1v17.3h2.4v-17.3c0-1.8-.8-3.3-2.1-4.3 1.2-1.1 2.1-2.6 2.1-4.4zm-65.5 3.2c-1.7 0-3.1-1.4-3.1-3.1v-14.2c0-1.7 1.4-3.1 3.1-3.1h60c1.7 0 3.1 1.4 3.1 3.1v14.2c0 1.7-1.4 3.1-3.1 3.1h-60z" class="st1"/><path d="M54.7 427.3c0 3 2.4 5.4 5.3 5.4s5.3-2.4 5.3-5.4-2.4-5.4-5.3-5.4-5.3 2.4-5.3 5.4zm8.3 0c0 1.7-1.3 3-3 3-1.6 0-3-1.3-3-3s1.3-3 3-3 3 1.3 3 3z" class="st1"/><ellipse cx="106.7" cy="425.5" class="st1" rx="1.2" ry="1.2"/><ellipse cx="102" cy="425.5" class="st1" rx="1.2" ry="1.2"/><ellipse cx="109.1" cy="429.1" class="st1" rx="1.2" ry="1.2"/><ellipse cx="104.4" cy="429.1" class="st1" rx="1.2" ry="1.2"/><ellipse cx="97.3" cy="425.5" class="st1" rx="1.2" ry="1.2"/><ellipse cx="99.7" cy="429.1" class="st1" rx="1.2" ry="1.2"/><ellipse cx="92.6" cy="425.5" class="st1" rx="1.2" ry="1.2"/><ellipse cx="94.9" cy="429.1" class="st1" rx="1.2" ry="1.2"/><ellipse cx="87.8" cy="425.5" class="st1" rx="1.2" ry="1.2"/><ellipse cx="90.2" cy="429.1" class="st1" rx="1.2" ry="1.2"/><path d="M54.7 450.1c0 3 2.4 5.4 5.3 5.4s5.3-2.4 5.3-5.4-2.4-5.4-5.3-5.4-5.3 2.4-5.3 5.4zm8.3 0c0 1.7-1.3 3-3 3-1.6 0-3-1.3-3-3s1.3-3 3-3 3 1.4 3 3z" class="st1"/><path fill="#c6c238" d="M126.9 447.8h-34c-.4 0-.7.3-.7.7v21.7c0 .4.3.7.7.7h34c.4 0 .7-.3.7-.7v-21.7c0-.3-.3-.7-.7-.7zm-2.6 1.5l-14.4 8.6-14.4-8.6h28.8zm1.9 20.2H93.6v-19.7l10.9 6.5-7.7 6.1.9 1.1 8.2-6.5 3.7 2.2c.1.1.2.1.4.1.1 0 .3 0 .4-.1l3.7-2.2 8.2 6.5.9-1.1-7.7-6.1 10.9-6.5v19.7h-.2z"/></g><g id="Layer_4"><path d="M123 318.1l-1.7-.3c-.8-.2-1.5-.7-1.8-1.5s-.2-1.6.3-2.3l1.1-1.5c.4-.5.3-1.1-.1-1.6l-2.4-2.4c-.4-.4-1.1-.5-1.5-.1l-1.5 1c-.7.5-1.5.5-2.3.2s-1.3-1-1.4-1.8l-.3-1.8c-.1-.6-.6-1-1.2-1h-3.3c-.6 0-1.1.4-1.2 1l-.4 2.2c-.2.8-.7 1.4-1.4 1.7-.8.3-1.6.2-2.2-.2l-1.9-1.3c-.5-.3-1.1-.3-1.5.1l-2.4 2.4c-.4.4-.5 1.1-.1 1.6l1.1 1.5c.5.7.6 1.5.3 2.3-.3.8-.9 1.3-1.8 1.5l-1.7.3c-.6.1-1 .6-1 1.2v3.3c0 .6.4 1.1 1 1.2l1.8.3c.8.1 1.5.6 1.8 1.4s.3 1.6-.2 2.3l-1 1.5c-.3.5-.3 1.1.1 1.5l2.4 2.4c.4.4 1.1.5 1.6.1l1.5-1.1c.7-.5 1.5-.6 2.3-.3.8.3 1.3.9 1.5 1.8l.3 1.7c.1.6.6 1 1.2 1h3.3c.6 0 1.1-.4 1.2-1l.2-1.3c.1-.8.7-1.5 1.4-1.8.8-.3 1.6-.2 2.3.3l1 .8c.5.4 1.1.3 1.6-.1l2.4-2.4c.4-.4.5-1.1.1-1.5l-1-1.5c-.5-.7-.5-1.5-.2-2.3s1-1.3 1.8-1.4l1.8-.3c.6-.1 1-.6 1-1.2v-3.3c.1-.7-.3-1.2-.9-1.3zm-1.4 3.5l-.8.1c-1.6.3-3 1.3-3.7 2.8s-.5 3.2.4 4.6l.4.6-.9.9-.2-.2c-1.4-1-3.1-1.2-4.7-.6s-2.6 2-2.9 3.7v.3h-1.3l-.1-.8c-.3-1.6-1.4-3-3-3.6-1.5-.6-3.3-.4-4.6.6l-.7.5-.9-.9.4-.6c.9-1.4 1.1-3.1.4-4.6s-2-2.6-3.7-2.8l-.8-.1v-1.3l.8-.1c1.6-.3 3-1.4 3.6-3 .6-1.5.4-3.3-.6-4.6l-.5-.7.9-.9 1.1.7c1.3.9 3 1.1 4.5.5s2.6-1.9 2.9-3.5l.2-1.3h1.3l.1.8c.3 1.6 1.3 3 2.8 3.7s3.2.5 4.6-.4l.6-.4.9.9-.5.7c-1 1.3-1.2 3-.6 4.6.6 1.5 1.9 2.6 3.6 3l.8.1v1.3h.2z" class="st7"/><path d="M108.3 314.6c-3.3 0-6 2.7-6 6s2.7 6 6 6 6-2.7 6-6-2.7-6-6-6zm0 9.7c-2 0-3.6-1.6-3.6-3.6s1.6-3.6 3.6-3.6 3.6 1.6 3.6 3.6-1.6 3.6-3.6 3.6z" class="st7"/><path d="M60.7 264.9c-3 0-5.4 2.4-5.4 5.4s2.4 5.4 5.4 5.4 5.4-2.4 5.4-5.4-2.4-5.4-5.4-5.4zm0 8.4c-1.7 0-3-1.4-3-3 0-1.7 1.4-3 3-3s3 1.4 3 3c0 1.7-1.4 3-3 3z" class="st1"/><circle cx="108.3" cy="268.5" r="1.2" class="st1"/><circle cx="103.5" cy="268.5" r="1.2" class="st1"/><circle cx="110.7" cy="272.1" r="1.2" class="st1"/><circle cx="105.9" cy="272.1" r="1.2" class="st1"/><circle cx="98.7" cy="268.5" r="1.2" class="st1"/><circle cx="101.1" cy="272.1" r="1.2" class="st1"/><circle cx="93.8" cy="268.5" r="1.2" class="st1"/><circle cx="96.3" cy="272.1" r="1.2" class="st1"/><circle cx="89" cy="268.5" r="1.2" class="st1"/><circle cx="91.4" cy="272.1" r="1.2" class="st1"/><path d="M120.4 277.4v-14.2c0-3.1-2.5-5.6-5.6-5.6H53.6c-3.1 0-5.6 2.5-5.6 5.6v14.2c0 1.8.8 3.3 2.1 4.4-1.3 1-2.1 2.6-2.1 4.4v14.2c0 1.8.8 3.3 2.1 4.4-1.3 1-2.1 2.6-2.1 4.4v14.2c0 3.1 2.5 5.6 5.6 5.6h34.3v-2.4H53.6c-1.7 0-3.1-1.4-3.1-3.1V309c0-1.7 1.4-3.1 3.1-3.1h28.2v-2.4H53.6c-1.7 0-3.1-1.4-3.1-3.1v-14.2c0-1.7 1.4-3.1 3.1-3.1h61.3c1.7 0 3.1 1.4 3.1 3.1v13.7h2.4v-13.7c0-1.8-.8-3.3-2.1-4.4 1.2-1 2.1-2.6 2.1-4.4zm-66.8 3.2c-1.7 0-3.1-1.4-3.1-3.1v-14.2c0-1.7 1.4-3.1 3.1-3.1h61.3c1.7 0 3.1 1.4 3.1 3.1v14.2c0 1.7-1.4 3.1-3.1 3.1H53.6z" class="st1"/><path d="M55.2 293.2c0 3 2.4 5.4 5.4 5.4s5.4-2.4 5.4-5.4-2.4-5.4-5.4-5.4c-2.9 0-5.4 2.4-5.4 5.4zm8.5 0c0 1.7-1.4 3-3 3s-3-1.4-3-3c0-1.7 1.4-3 3-3s3 1.4 3 3z" class="st1"/><circle cx="108.3" cy="291.4" r="1.2" class="st1"/><circle cx="103.5" cy="291.4" r="1.2" class="st1"/><circle cx="110.7" cy="295" r="1.2" class="st1"/><circle cx="105.9" cy="295" r="1.2" class="st1"/><circle cx="98.7" cy="291.4" r="1.2" class="st1"/><circle cx="101.1" cy="295" r="1.2" class="st1"/><circle cx="93.8" cy="291.4" r="1.2" class="st1"/><circle cx="96.3" cy="295" r="1.2" class="st1"/><circle cx="89" cy="291.4" r="1.2" class="st1"/><circle cx="91.4" cy="295" r="1.2" class="st1"/><path d="M55.2 316.2c0 3 2.4 5.4 5.4 5.4s5.4-2.4 5.4-5.4-2.4-5.4-5.4-5.4c-2.9-.1-5.4 2.4-5.4 5.4zm8.5 0c0 1.7-1.4 3-3 3s-3-1.4-3-3c0-1.7 1.4-3 3-3s3 1.3 3 3z" class="st1"/><g><path fill="#51bc0c" d="M174.9 177.7h-.2c-7.4 0-13.5 6.1-13.5 13.5s6.1 13.5 13.5 13.5 13.5-6.1 13.5-13.5c.1-7.4-5.9-13.4-13.3-13.5zm.4 9.4c1.8-.1 3.5-.5 5-1.1.6 1.4 1 2.9 1 4.6h-6v-3.5zm-1.1 3.6h-6c.1-1.7.5-3.2 1-4.6 1.5.6 3.1 1 5 1.1v3.5zm-7 0h-4.9c.1-2.7 1.1-5.2 2.6-7.1.9.7 2 1.5 3.3 2.1-.5 1.4-.9 3.1-1 5zm0 1c.1 1.9.5 3.6 1.1 5-1.3.6-2.4 1.4-3.3 2.1-1.6-2-2.5-4.5-2.6-7.1h4.8zm1 0h6v3.5c-1.8.1-3.5.5-4.9 1.1-.6-1.3-1-2.9-1.1-4.6zm7.1 0h6c-.1 1.7-.5 3.2-1 4.6-1.5-.6-3.1-1-4.9-1.1l-.1-3.5zm7 0h4.9c-.1 2.7-1.1 5.2-2.6 7.1-.9-.7-2-1.5-3.3-2.1.5-1.4 1-3.1 1-5zm0-1c-.1-1.9-.5-3.6-1.1-5.1 1.3-.6 2.4-1.4 3.3-2.1 1.6 2 2.5 4.5 2.6 7.1l-4.8.1zm1.5-8c-.8.7-1.9 1.3-3 1.9-1.3-2.7-3.2-4.7-4.4-5.8 2.9.5 5.5 1.9 7.4 3.9zm-4 2.4c-1.3.5-2.9.9-4.5 1v-6.7c1.1.9 3.1 2.9 4.5 5.7zm-5.6-5.8v6.7c-1.7-.1-3.2-.5-4.5-1 1.4-2.7 3.4-4.7 4.5-5.7zm-1-.4c-.8.7-1.6 1.6-2.3 2.5s-1.4 2-2.1 3.3c-1.2-.6-2.2-1.3-3.1-1.9 1.9-2.1 4.5-3.5 7.5-3.9zm-7.5 20.8c.8-.7 1.9-1.3 3.1-1.9 1.3 2.7 3.2 4.7 4.5 5.8-3-.4-5.7-1.8-7.6-3.9zm4-2.4c1.3-.5 2.8-.9 4.5-1v6.7c-1.1-.9-3.1-2.9-4.5-5.7zm5.6 5.7v-6.7c1.7.1 3.2.4 4.5 1-1.4 2.8-3.4 4.8-4.5 5.7zm1 .5c1.2-1.1 3.1-3.1 4.5-5.8 1.2.6 2.2 1.3 3.1 1.9-2 2.2-4.6 3.6-7.6 3.9z"/><path d="M124.8 135c-3 0-5.4 2.4-5.4 5.4s2.4 5.4 5.4 5.4 5.4-2.4 5.4-5.4-2.4-5.4-5.4-5.4zm0 8.4c-1.7 0-3-1.3-3-3s1.3-3 3-3 3 1.3 3 3-1.3 3-3 3z" class="st1"/><circle cx="172.2" cy="138.6" r="1.2" class="st1"/><circle cx="167.4" cy="138.6" r="1.2" class="st1"/><circle cx="174.6" cy="142.2" r="1.2" class="st1"/><circle cx="169.8" cy="142.2" r="1.2" class="st1"/><circle cx="162.6" cy="138.6" r="1.2" class="st1"/><circle cx="165" cy="142.2" r="1.2" class="st1"/><circle cx="157.8" cy="138.6" r="1.2" class="st1"/><circle cx="160.2" cy="142.2" r="1.2" class="st1"/><circle cx="153" cy="138.6" r="1.2" class="st1"/><circle cx="155.4" cy="142.2" r="1.2" class="st1"/><path d="M184.2 147.5v-14.1c0-3-2.5-5.5-5.5-5.5h-60.9c-3 0-5.5 2.5-5.5 5.5v14.1c0 1.8.8 3.3 2.1 4.3-1.3 1-2.1 2.6-2.1 4.3v14.1c0 1.8.8 3.3 2.1 4.3-1.3 1-2.1 2.6-2.1 4.3V193c0 3 2.5 5.5 5.5 5.5h34v-2.4h-34c-1.7 0-3.1-1.4-3.1-3.1v-14.1c0-1.7 1.4-3.1 3.1-3.1h28.1v-2.4h-28.1c-1.7 0-3.1-1.4-3.1-3.1v-14.1c0-1.7 1.4-3.1 3.1-3.1h60.9c1.7 0 3.1 1.4 3.1 3.1v13.7h2.4v-13.7c0-1.8-.8-3.3-2.1-4.3 1.3-1.1 2.1-2.7 2.1-4.4zm-66.4 3.1c-1.7 0-3.1-1.4-3.1-3.1v-14.1c0-1.7 1.4-3.1 3.1-3.1h60.9c1.7 0 3.1 1.4 3.1 3.1v14.1c0 1.7-1.4 3.1-3.1 3.1h-60.9z" class="st1"/><path d="M119.4 163.2c0 3 2.4 5.4 5.4 5.4s5.4-2.4 5.4-5.4-2.4-5.4-5.4-5.4-5.4 2.4-5.4 5.4zm8.4 0c0 1.7-1.3 3-3 3s-3-1.3-3-3 1.3-3 3-3 3 1.3 3 3z" class="st1"/><circle cx="172.2" cy="161.4" r="1.2" class="st1"/><circle cx="167.4" cy="161.4" r="1.2" class="st1"/><circle cx="174.6" cy="165" r="1.2" class="st1"/><circle cx="169.8" cy="165" r="1.2" class="st1"/><circle cx="162.6" cy="161.4" r="1.2" class="st1"/><circle cx="165" cy="165" r="1.2" class="st1"/><circle cx="157.8" cy="161.4" r="1.2" class="st1"/><circle cx="160.2" cy="165" r="1.2" class="st1"/><circle cx="153" cy="161.4" r="1.2" class="st1"/><circle cx="155.4" cy="165" r="1.2" class="st1"/><path d="M119.4 186c0 3 2.4 5.4 5.4 5.4s5.4-2.4 5.4-5.4-2.4-5.4-5.4-5.4-5.4 2.4-5.4 5.4zm8.4 0c0 1.7-1.3 3-3 3s-3-1.3-3-3 1.3-3 3-3 3 1.3 3 3z" class="st1"/></g><g><path fill="#f33" d="M188.2 578.7c-.7-2.4-5.5-4.8-14-4.8s-13.3 2.4-14 4.8c0 .1-.1.2-.1.3V599.9c0 .1 0 .2.1.3.7 2.8 6.6 4.8 14 4.8s13.3-2 14-4.8c0-.1.1-.2.1-.3V579c0-.1-.1-.2-.1-.3zm-1.1 14.3c0 .1 0 .1-.1.2 0 .1-.1.1-.1.2s-.1.1-.1.2-.1.1-.1.2l-.2.2-.1.1c-.1.1-.2.2-.3.2l-.1.1c-.1.1-.3.2-.4.3 0 0-.1 0-.1.1-.2.1-.3.2-.5.3h-.1c-.2.1-.4.2-.7.3-1.3.5-2.9.9-4.8 1.2-.4.1-.7.1-1.1.1h-.2c-.3 0-.7.1-1 .1H171.7c-.4 0-.7-.1-1-.1h-.2c-.4 0-.8-.1-1.1-.1-1.9-.3-3.5-.7-4.8-1.2-.2-.1-.5-.2-.7-.3h-.1c-.2-.1-.4-.2-.5-.3 0 0-.1 0-.1-.1-.1-.1-.3-.2-.4-.3l-.1-.1c-.1-.1-.2-.2-.3-.2s-.1-.1-.1-.1l-.2-.2c0-.1-.1-.1-.1-.2s-.1-.1-.1-.2-.1-.1-.1-.2 0-.1-.1-.2v-.3-.2-4.5h.1c.1.1.2.2.4.3 2.1 1.6 6.4 2.8 12.5 2.8s10.3-1.2 12.5-2.8c.2-.1.3-.3.5-.4v4.7c-.6.2-.6.3-.6.4zm0-11.6v5c0 .1 0 .1-.1.2 0 .1-.1.1-.1.2s-.1.1-.1.2-.1.1-.1.2l-.2.2-.1.1c-.1.1-.2.2-.3.2l-.1.1c-.1.1-.3.2-.4.3 0 0-.1 0-.1.1-.2.1-.3.2-.5.3h-.1c-.2.1-.4.2-.7.3-1.3.5-2.9.9-4.8 1.2-.4.1-.7.1-1.1.1h-.2c-.3 0-.7.1-1 .1H171.7c-.4 0-.7-.1-1-.1h-.2c-.4 0-.8-.1-1.1-.1-1.9-.3-3.5-.7-4.8-1.2-.2-.1-.5-.2-.7-.3h-.1c-.2-.1-.4-.2-.5-.3 0 0-.1 0-.1-.1-.1-.1-.3-.2-.4-.3l-.1-.1c-.1-.1-.2-.2-.3-.2s-.1-.1-.1-.1l-.2-.2c0-.1-.1-.1-.1-.2s-.1-.1-.1-.2-.1-.1-.1-.2 0-.1-.1-.2v-.3-.2-4.5l.2.2.1.1c.2.1.4.3.5.4l.1.1c.2.1.3.2.5.3.1 0 .1.1.2.1l.6.3h.1c.3.1.5.2.8.3.1 0 .2.1.2.1.2.1.5.2.7.2.1 0 .2.1.3.1.3.1.7.2 1 .3h.2c.3.1.6.1 1 .2.1 0 .2 0 .3.1.3.1.6.1 1 .1h.3c.4.1.9.1 1.3.1h.3c.4 0 .7 0 1.1.1h3.8c.4 0 .7 0 1.1-.1h.3c.4 0 .9-.1 1.3-.1h.3c.3 0 .7-.1 1-.1.1 0 .2 0 .3-.1.3-.1.7-.1 1-.2h.2c.4-.1.7-.2 1-.3.1 0 .2-.1.3-.1.2-.1.5-.1.7-.2.1 0 .2-.1.2-.1.3-.1.6-.2.8-.3h.1l.6-.3c.1 0 .1-.1.2-.1.2-.1.4-.2.5-.3l.1-.1c.2-.1.4-.3.5-.4l.1-.1c.1-.1.2-.1.2-.2zm-12.9-6.4c7.6 0 12.9 2.2 12.9 4.2s-5.3 4.2-12.9 4.2c-7.6 0-12.9-2.2-12.9-4.2 0-1.9 5.3-4.2 12.9-4.2zm12.9 24.6s0 .1 0 0c-.3 2-5.6 4.1-12.9 4.1-7.3 0-12.6-2.1-12.9-4v-4.8h.1c.1.1.2.2.4.3 2.1 1.6 6.4 2.8 12.5 2.8s10.3-1.2 12.5-2.8c.2-.1.3-.3.5-.4v4.8h-.2z"/><path d="M124.6 529.2c-2.9 0-5.3 2.4-5.3 5.3s2.4 5.3 5.3 5.3 5.3-2.4 5.3-5.3c-.1-2.9-2.4-5.3-5.3-5.3zm0 8.2c-1.6 0-2.9-1.3-2.9-2.9s1.3-2.9 2.9-2.9 2.9 1.3 2.9 2.9-1.3 2.9-2.9 2.9z" class="st1"/><circle cx="170.8" cy="532.8" r="1.2" class="st1"/><circle cx="166.1" cy="532.8" r="1.2" class="st1"/><circle cx="173.2" cy="536.3" r="1.2" class="st1"/><circle cx="168.5" cy="536.3" r="1.2" class="st1"/><circle cx="161.5" cy="532.8" r="1.2" class="st1"/><circle cx="163.8" cy="536.3" r="1.2" class="st1"/><circle cx="156.8" cy="532.8" r="1.2" class="st1"/><circle cx="159.1" cy="536.3" r="1.2" class="st1"/><circle cx="152.1" cy="532.8" r="1.2" class="st1"/><circle cx="154.4" cy="536.3" r="1.2" class="st1"/><path d="M182.5 541.4v-13.8c0-3-2.4-5.4-5.4-5.4h-59.5c-3 0-5.4 2.4-5.4 5.4v13.8c0 1.7.8 3.2 2.1 4.2-1.3 1-2.1 2.5-2.1 4.2v13.8c0 1.7.8 3.2 2.1 4.2-1.3 1-2.1 2.5-2.1 4.2v13.8c0 3 2.4 5.4 5.4 5.4h33.3V589h-33.3c-1.7 0-3.1-1.4-3.1-3.1v-13.8c0-1.7 1.4-3.1 3.1-3.1H145v-2.3h-27.4c-1.7 0-3.1-1.4-3.1-3.1v-13.8c0-1.7 1.4-3.1 3.1-3.1h59.5c1.7 0 3.1 1.4 3.1 3.1v13.3h2.3v-13.3c0-1.7-.8-3.2-2.1-4.2 1.3-1 2.1-2.5 2.1-4.2zm-64.9 3.1c-1.7 0-3.1-1.4-3.1-3.1v-13.8c0-1.7 1.4-3.1 3.1-3.1h59.5c1.7 0 3.1 1.4 3.1 3.1v13.8c0 1.7-1.4 3.1-3.1 3.1h-59.5z" class="st1"/><path d="M119.3 556.8c0 2.9 2.4 5.3 5.3 5.3s5.3-2.4 5.3-5.3-2.4-5.3-5.3-5.3c-3 0-5.3 2.4-5.3 5.3zm8.2 0c0 1.6-1.3 2.9-2.9 2.9s-2.9-1.3-2.9-2.9 1.3-2.9 2.9-2.9c1.6-.1 2.9 1.3 2.9 2.9z" class="st1"/><circle cx="170.8" cy="555" r="1.2" class="st1"/><circle cx="166.1" cy="555" r="1.2" class="st1"/><circle cx="173.2" cy="558.5" r="1.2" class="st1"/><circle cx="168.5" cy="558.5" r="1.2" class="st1"/><circle cx="161.5" cy="555" r="1.2" class="st1"/><circle cx="163.8" cy="558.5" r="1.2" class="st1"/><circle cx="156.8" cy="555" r="1.2" class="st1"/><circle cx="159.1" cy="558.5" r="1.2" class="st1"/><circle cx="152.1" cy="555" r="1.2" class="st1"/><circle cx="154.4" cy="558.5" r="1.2" class="st1"/><path d="M119.3 579c0 2.9 2.4 5.3 5.3 5.3s5.3-2.4 5.3-5.3-2.4-5.3-5.3-5.3c-3 .1-5.3 2.4-5.3 5.3zm8.2 0c0 1.6-1.3 2.9-2.9 2.9s-2.9-1.3-2.9-2.9 1.3-2.9 2.9-2.9 2.9 1.3 2.9 2.9z" class="st1"/></g><g><path d="M287.7 685.2c-.4 0-.7 0-.9.1v2.8c.2 0 .4.1.7.1 1.2 0 1.9-.6 1.9-1.6 0-.9-.6-1.4-1.7-1.4z" class="st10"/><path d="M282.8 672.2c-1.2-1.2-3.2-1.2-4.4 0l-13.9 13.9c-1.2 1.2-1.2 3.2 0 4.4l13.9 13.9c1.2 1.2 3.2 1.2 4.4 0l13.9-13.9c.6-.6.9-1.4.9-2.2s-.3-1.6-.9-2.2l-13.9-13.9zm-7.3 13.2h-3.7v2.2h3.5v1.8h-3.5v3.9h-2.2v-9.7h5.9v1.8zm8.4 0h-2.6v7.8h-2.2v-7.8h-2.6v-1.8h7.4v1.8zm6.8 3.4c-.7.7-1.9 1-3.2 1-.3 0-.5 0-.7-.1v3.5h-2.2v-9.5c.7-.1 1.6-.2 3-.2 1.3 0 2.3.3 3 .8.6.5 1 1.3 1 2.2 0 1-.3 1.8-.9 2.3z" class="st10"/><path d="M229.7 629.3c-2.8 0-5.1 2.3-5.1 5.1s2.3 5.1 5.1 5.1 5.1-2.3 5.1-5.1-2.3-5.1-5.1-5.1zm0 8c-1.6 0-2.9-1.3-2.9-2.9 0-1.6 1.3-2.9 2.9-2.9s2.9 1.3 2.9 2.9c-.1 1.6-1.3 2.9-2.9 2.9z" class="st1"/><circle cx="274.8" cy="632.7" r="1.1" class="st1"/><circle cx="270.2" cy="632.7" r="1.1" class="st1"/><circle cx="277.1" cy="636.2" r="1.1" class="st1"/><circle cx="272.5" cy="636.2" r="1.1" class="st1"/><circle cx="265.7" cy="632.7" r="1.1" class="st1"/><circle cx="268" cy="636.2" r="1.1" class="st1"/><circle cx="261.1" cy="632.7" r="1.1" class="st1"/><circle cx="263.4" cy="636.2" r="1.1" class="st1"/><circle cx="256.5" cy="632.7" r="1.1" class="st1"/><circle cx="258.8" cy="636.2" r="1.1" class="st1"/><path d="M286.2 641.2v-13.5c0-2.9-2.4-5.3-5.3-5.3h-58c-2.9 0-5.3 2.4-5.3 5.3v13.5c0 1.7.8 3.2 2 4.1-1.2 1-2 2.4-2 4.1v13.5c0 1.7.8 3.2 2 4.1-1.2 1-2 2.4-2 4.1v13.5c0 2.9 2.4 5.3 5.3 5.3h32.4v-2.3H223c-1.6 0-3-1.3-3-3v-13.5c0-1.6 1.3-3 3-3h26.7v-2.3H223c-1.6 0-3-1.3-3-3v-13.5c0-1.6 1.3-3 3-3h58c1.6 0 3 1.3 3 3v13h2.3v-13c0-1.7-.8-3.2-2-4.1 1.1-.9 1.9-2.4 1.9-4zm-63.2 2.9c-1.6 0-3-1.3-3-3v-13.5c0-1.6 1.3-3 3-3h58c1.6 0 3 1.3 3 3v13.5c0 1.6-1.3 3-3 3h-58z" class="st1"/><path d="M224.5 656.1c0 2.8 2.3 5.1 5.1 5.1s5.1-2.3 5.1-5.1-2.3-5.1-5.1-5.1-5.1 2.3-5.1 5.1zm8 0c0 1.6-1.3 2.9-2.9 2.9s-2.9-1.3-2.9-2.9c0-1.6 1.3-2.9 2.9-2.9s2.9 1.4 2.9 2.9z" class="st1"/><circle cx="274.8" cy="654.4" r="1.1" class="st1"/><circle cx="270.2" cy="654.4" r="1.1" class="st1"/><circle cx="277.1" cy="657.9" r="1.1" class="st1"/><circle cx="272.5" cy="657.9" r="1.1" class="st1"/><circle cx="265.7" cy="654.4" r="1.1" class="st1"/><circle cx="268" cy="657.9" r="1.1" class="st1"/><circle cx="261.1" cy="654.4" r="1.1" class="st1"/><circle cx="263.4" cy="657.9" r="1.1" class="st1"/><circle cx="256.5" cy="654.4" r="1.1" class="st1"/><circle cx="258.8" cy="657.9" r="1.1" class="st1"/><path d="M224.5 677.8c0 2.8 2.3 5.1 5.1 5.1s5.1-2.3 5.1-5.1-2.3-5.1-5.1-5.1-5.1 2.3-5.1 5.1zm8 0c0 1.6-1.3 2.9-2.9 2.9s-2.9-1.3-2.9-2.9c0-1.6 1.3-2.9 2.9-2.9s2.9 1.4 2.9 2.9z" class="st1"/></g><g><path d="M210.6 112.6h.9l-4.3 11.4h-.7l-4.3-11.4h.9l2.9 7.8c.4 1.2.7 2.1.9 2.6.1-.4.3-1 .6-1.8l3.1-8.6zM213.1 113.1c0-.5.2-.8.5-.8.2 0 .3.1.4.2.1.1.1.3.1.6 0 .2 0 .4-.1.6-.1.1-.2.2-.4.2-.3 0-.5-.3-.5-.8zm.9 10.9h-.8v-8.5h.8v8.5zM220.6 115.3c.4 0 .7 0 1.2.1l-.1.7c-.4-.1-.7-.1-1.1-.1-.7 0-1.3.3-1.8.9s-.7 1.4-.7 2.3v4.7h-.8v-8.5h.7l.1 1.5h.1c.3-.6.7-1.1 1.1-1.3.3-.2.8-.3 1.3-.3zM226.1 123.4c.5 0 .9 0 1.3-.1v.6c-.4.1-.8.2-1.3.2-.8 0-1.3-.2-1.7-.6s-.5-1-.5-1.9v-5.5h-1.3v-.5l1.3-.4.4-1.9h.4v2.1h2.5v.7h-2.5v5.4c0 .7.1 1.1.3 1.4.3.4.7.5 1.1.5zM230.3 115.5v5.5c0 .9.2 1.5.5 1.9.4.4.9.6 1.7.6 1 0 1.8-.3 2.2-.8.5-.5.7-1.3.7-2.5v-4.7h.8v8.5h-.7l-.1-1.2c-.6.9-1.5 1.3-2.9 1.3-1.9 0-2.9-1-2.9-3.1v-5.5h.7zM244.7 124l-.2-1.3h-.1c-.4.5-.9.9-1.3 1.2s-1 .3-1.6.3c-.8 0-1.5-.2-1.9-.6-.5-.4-.7-1-.7-1.8s.3-1.5 1-1.9c.7-.5 1.7-.7 3-.7h1.6v-.6c0-.8-.2-1.4-.5-1.8s-.9-.6-1.6-.6c-.8 0-1.6.2-2.4.7l-.3-.7c.9-.4 1.9-.7 2.8-.7.9 0 1.6.2 2.1.7s.7 1.2.7 2.3v5.6l-.6-.1zm-3.2-.6c.9 0 1.6-.3 2.1-.8s.8-1.2.8-2.2v-.8l-1.5.1c-1.2.1-2 .2-2.6.6-.5.3-.8.8-.8 1.5 0 .5.2.9.5 1.2.5.3.9.4 1.5.4zM249.1 124h-.8v-12.2h.8V124zM263.4 121c0 1-.4 1.7-1.1 2.3-.7.6-1.6.8-2.8.8-1.4 0-2.5-.2-3.2-.5v-.8c.8.3 1.9.5 3.1.5.9 0 1.7-.2 2.2-.6s.8-1 .8-1.7c0-.4-.1-.8-.3-1.1-.2-.3-.5-.5-.9-.8s-1-.5-1.8-.8c-1.2-.4-2-.8-2.4-1.3s-.7-1.1-.7-1.9c0-.9.3-1.6 1-2.1s1.5-.8 2.6-.8 2.1.2 3 .6l-.3.7c-.9-.4-1.9-.6-2.7-.6-.8 0-1.5.2-2 .6s-.8.9-.8 1.6c0 .4.1.8.2 1 .2.3.4.5.8.7.3.2.9.5 1.8.8s1.6.6 2 .9.8.6 1 1 .5 1 .5 1.5zM269.5 124.1c-1.2 0-2.2-.4-2.9-1.1-.7-.8-1-1.8-1-3.2 0-1.4.3-2.4 1-3.3.7-.8 1.6-1.2 2.7-1.2 1 0 1.8.3 2.4 1s.9 1.6.9 2.8v.6h-6.1c0 1.2.3 2.1.8 2.7s1.3.9 2.3.9c.5 0 .9 0 1.3-.1s.8-.2 1.4-.4v.7c-.5.2-.9.4-1.3.4s-1 .2-1.5.2zm-.2-8.1c-.8 0-1.5.3-2 .8s-.8 1.3-.9 2.3h5.3c0-1-.2-1.8-.6-2.3s-1.1-.8-1.8-.8zM278.6 115.3c.4 0 .7 0 1.2.1l-.1.7c-.4-.1-.7-.1-1.1-.1-.7 0-1.3.3-1.8.9s-.7 1.4-.7 2.3v4.7h-.8v-8.5h.7l.1 1.5h.1c.3-.6.7-1.1 1.1-1.3.2-.2.7-.3 1.3-.3zM283.7 124l-3.3-8.5h.8l2.2 5.8c.3.7.5 1.4.7 1.9.2-.7.4-1.4.7-2l2.2-5.8h.8l-3.3 8.5-.8.1zM293 124.1c-1.2 0-2.2-.4-2.9-1.1-.7-.8-1-1.8-1-3.2 0-1.4.3-2.4 1-3.3.7-.8 1.6-1.2 2.7-1.2 1 0 1.8.3 2.4 1s.9 1.6.9 2.8v.6H290c0 1.2.3 2.1.8 2.7s1.3.9 2.3.9c.5 0 .9 0 1.3-.1s.8-.2 1.4-.4v.7c-.5.2-.9.4-1.3.4s-1 .2-1.5.2zm-.2-8.1c-.8 0-1.5.3-2 .8s-.8 1.3-.9 2.3h5.3c0-1-.2-1.8-.6-2.3s-1-.8-1.8-.8zM302.1 115.3c.4 0 .7 0 1.2.1l-.1.7c-.4-.1-.7-.1-1.1-.1-.7 0-1.3.3-1.8.9s-.7 1.4-.7 2.3v4.7h-.8v-8.5h.7l.1 1.5h.1c.3-.6.7-1.1 1.1-1.3.3-.2.8-.3 1.3-.3zM310.7 121.8c0 .8-.3 1.3-.9 1.8-.6.4-1.4.6-2.5.6s-2-.2-2.7-.5v-.8c.9.4 1.8.6 2.7.6.8 0 1.5-.1 1.9-.4s.7-.6.7-1.1c0-.4-.2-.8-.5-1.1-.3-.3-.9-.6-1.7-.9-.8-.3-1.4-.6-1.8-.8-.3-.2-.6-.5-.8-.8-.2-.3-.3-.6-.3-1 0-.6.3-1.1.8-1.5s1.3-.6 2.2-.6c.9 0 1.8.2 2.6.5l-.3.7c-.8-.3-1.6-.5-2.3-.5-.7 0-1.2.1-1.6.3-.4.2-.6.5-.6 1 0 .4.2.8.5 1.1s.9.6 1.8.9c.8.3 1.3.5 1.7.7.3.2.6.5.8.8s.3.6.3 1z" class="st11"/></g><g><path d="M112.9 224h-.7l-2.5-8.8c-.2-.7-.4-1.3-.5-1.8-.1.5-.2 1-.4 1.6-.2.6-1 3.6-2.5 9h-.7l-3.1-11.4h.8l2 7.4c.1.3.2.6.2.8.1.3.1.5.2.7s.1.4.1.6c0 .2.1.4.1.6.1-.7.4-1.8.8-3.2l2-6.9h.9l2.3 8c.3.9.5 1.7.6 2.2l.3-1.2c.1-.4.9-3.4 2.4-9h.8l-3.1 11.4zM121.7 224.1c-1.2 0-2.2-.4-2.9-1.1-.7-.8-1-1.8-1-3.2s.3-2.4 1-3.3c.7-.8 1.6-1.2 2.7-1.2 1 0 1.8.3 2.4 1s.9 1.6.9 2.8v.6h-6.1c0 1.2.3 2.1.8 2.7.5.6 1.3.9 2.3.9.5 0 .9 0 1.3-.1s.8-.2 1.4-.4v.7c-.5.2-.9.4-1.3.4s-1 .2-1.5.2zm-.2-8.1c-.8 0-1.5.3-2 .8s-.8 1.3-.9 2.3h5.3c0-1-.2-1.8-.6-2.3-.5-.5-1-.8-1.8-.8zM131.1 215.3c1.2 0 2.1.4 2.7 1.1.6.7.9 1.8.9 3.3 0 1.4-.3 2.5-.9 3.3s-1.5 1.1-2.7 1.1c-.6 0-1.1-.1-1.6-.4s-.9-.6-1.1-1.1h-.1l-.3 1.4h-.5v-12.2h.8V216.9h.1c.3-.5.7-.9 1.2-1.1.3-.4.8-.5 1.5-.5zm-.1.7c-1 0-1.7.3-2.1.9-.4.6-.6 1.5-.6 2.8v.1c0 1.3.2 2.2.7 2.8s1.2.8 2.1.8c.9 0 1.6-.3 2.1-1s.7-1.6.7-2.8c-.1-2.3-1-3.6-2.9-3.6zM148.5 221c0 1-.4 1.7-1.1 2.3-.7.6-1.6.8-2.8.8-1.4 0-2.5-.2-3.2-.5v-.8c.8.3 1.9.5 3.1.5.9 0 1.7-.2 2.2-.6s.8-1 .8-1.7c0-.4-.1-.8-.3-1.1s-.5-.5-.9-.8-1-.5-1.8-.8c-1.2-.4-2-.8-2.4-1.3s-.7-1.1-.7-1.9c0-.9.3-1.6 1-2.1s1.5-.8 2.6-.8 2.1.2 3 .6l-.3.7c-.9-.4-1.9-.6-2.7-.6s-1.5.2-2 .6-.8.9-.8 1.6c0 .4.1.8.2 1 .2.3.4.5.8.7.3.2.9.5 1.8.8.9.3 1.6.6 2 .9s.8.6 1 1 .5 1 .5 1.5zM154.5 224.1c-1.2 0-2.2-.4-2.9-1.1-.7-.8-1-1.8-1-3.2s.3-2.4 1-3.3c.7-.8 1.6-1.2 2.7-1.2 1 0 1.8.3 2.4 1 .6.7.9 1.6.9 2.8v.6h-6.1c0 1.2.3 2.1.8 2.7.5.6 1.3.9 2.3.9.5 0 .9 0 1.3-.1s.8-.2 1.4-.4v.7c-.5.2-.9.4-1.3.4s-1 .2-1.5.2zm-.2-8.1c-.8 0-1.5.3-2 .8s-.8 1.3-.9 2.3h5.3c0-1-.2-1.8-.6-2.3s-1.1-.8-1.8-.8zM163.6 215.3c.4 0 .7 0 1.2.1l-.1.7c-.4-.1-.7-.1-1.1-.1-.7 0-1.3.3-1.8.9-.5.6-.7 1.4-.7 2.3v4.7h-.8v-8.5h.7l.1 1.5h.1c.3-.6.7-1.1 1.1-1.3.3-.2.7-.3 1.3-.3zM168.7 224l-3.3-8.5h.8l2.2 5.8c.3.7.5 1.4.7 1.9.2-.7.4-1.4.7-2l2.2-5.8h.8l-3.3 8.5h-.8v.1zM178.1 224.1c-1.2 0-2.2-.4-2.9-1.1-.7-.8-1-1.8-1-3.2s.3-2.4 1-3.3c.7-.8 1.6-1.2 2.7-1.2 1 0 1.8.3 2.4 1 .6.7.9 1.6.9 2.8v.6h-6.1c0 1.2.3 2.1.8 2.7.5.6 1.3.9 2.3.9.5 0 .9 0 1.3-.1s.8-.2 1.4-.4v.7c-.5.2-.9.4-1.3.4s-1.1.2-1.5.2zm-.3-8.1c-.8 0-1.5.3-2 .8s-.8 1.3-.9 2.3h5.3c0-1-.2-1.8-.6-2.3s-1-.8-1.8-.8zM187.1 215.3c.4 0 .7 0 1.2.1l-.1.7c-.4-.1-.7-.1-1.1-.1-.7 0-1.3.3-1.8.9-.5.6-.7 1.4-.7 2.3v4.7h-.8v-8.5h.7l.1 1.5h.1c.3-.6.7-1.1 1.1-1.3.3-.2.8-.3 1.3-.3zM195.7 221.8c0 .8-.3 1.3-.9 1.8-.6.4-1.4.6-2.5.6s-2-.2-2.7-.5v-.8c.9.4 1.8.6 2.7.6.8 0 1.5-.1 1.9-.4.4-.3.7-.6.7-1.1 0-.4-.2-.8-.5-1.1s-.9-.6-1.7-.9c-.8-.3-1.4-.6-1.8-.8-.3-.2-.6-.5-.8-.8s-.3-.6-.3-1c0-.6.3-1.1.8-1.5s1.3-.6 2.2-.6 1.8.2 2.6.5l-.3.7c-.8-.3-1.6-.5-2.3-.5s-1.2.1-1.6.3c-.4.2-.6.5-.6 1 0 .4.2.8.5 1.1s.9.6 1.8.9c.8.3 1.3.5 1.7.7.3.2.6.5.8.8s.3.6.3 1z" class="st11"/></g><g><path d="M18.3 348.9h-4.6l-1.6 4h-.9l4.6-11.5h.5l4.5 11.5h-.9l-1.6-4zm-4.3-.7h4l-1.6-4.1c-.1-.3-.3-.8-.5-1.3-.1.5-.3 1-.5 1.4l-1.4 4zM26.3 353.1c-1.3 0-2.3-.5-2.9-1.5h-.1v5.2h-.8v-12.3h.7l.1 1.2c.6-.9 1.5-1.4 2.8-1.4 1.1 0 2 .4 2.6 1.1.6.8.9 1.8.9 3.3 0 1.4-.3 2.5-.9 3.2-.5.9-1.4 1.2-2.4 1.2zm-.1-.7c.9 0 1.5-.3 2-1 .5-.6.7-1.5.7-2.7 0-2.5-.9-3.7-2.7-3.7-1 0-1.7.3-2.2.8s-.7 1.4-.7 2.7v.3c0 1.3.2 2.3.7 2.8.5.6 1.2.8 2.2.8zM36.2 353.1c-1.3 0-2.3-.5-2.9-1.5h-.1v5.2h-.8v-12.3h.7l.1 1.2c.6-.9 1.5-1.4 2.8-1.4 1.1 0 2 .4 2.6 1.1.6.8.9 1.8.9 3.3 0 1.4-.3 2.5-.9 3.2-.5.9-1.3 1.2-2.4 1.2zm0-.7c.9 0 1.5-.3 2-1 .5-.6.7-1.5.7-2.7 0-2.5-.9-3.7-2.7-3.7-1 0-1.7.3-2.2.8s-.7 1.4-.7 2.7v.3c0 1.3.2 2.3.7 2.8.4.6 1.2.8 2.2.8zM43.2 353h-.8v-12.2h.8V353zM46.4 342.1c0-.5.2-.8.5-.8.2 0 .3.1.4.2.1.1.1.3.1.6 0 .2 0 .4-.1.6-.1.1-.2.2-.4.2-.4 0-.5-.3-.5-.8zm.9 10.9h-.8v-8.5h.8v8.5zM53.9 353.1c-1.2 0-2.2-.4-2.9-1.1s-1-1.8-1-3.2c0-1.4.4-2.5 1.1-3.3.7-.8 1.7-1.2 2.9-1.2.7 0 1.4.1 2.1.4l-.2.7c-.7-.2-1.4-.4-1.9-.4-1 0-1.8.3-2.4 1-.5.6-.8 1.6-.8 2.8 0 1.1.3 2 .8 2.7s1.3 1 2.3 1c.8 0 1.5-.1 2.1-.4v.7c-.5.2-1.2.3-2.1.3zM63.7 353l-.2-1.3h-.1c-.4.5-.9.9-1.3 1.2s-1 .3-1.6.3c-.8 0-1.5-.2-1.9-.6-.5-.4-.7-1-.7-1.8s.3-1.5 1-1.9c.7-.5 1.7-.7 3-.7h1.6v-.6c0-.8-.2-1.4-.5-1.8s-.9-.6-1.6-.6c-.8 0-1.6.2-2.4.7l-.3-.7c.9-.4 1.9-.7 2.8-.7.9 0 1.6.2 2.1.7s.7 1.2.7 2.3v5.6h-.6v-.1zm-3.2-.6c.9 0 1.6-.3 2.1-.8s.8-1.2.8-2.2v-.8l-1.5.1c-1.2.1-2 .2-2.6.6-.5.3-.8.8-.8 1.5 0 .5.2.9.5 1.2.5.3.9.4 1.5.4zM69.6 352.4c.5 0 .9 0 1.3-.1v.6c-.4.1-.8.2-1.3.2-.8 0-1.3-.2-1.7-.6-.4-.4-.5-1-.5-1.9v-5.5h-1.3v-.5l1.3-.4.4-1.9h.4v2.1h2.5v.7h-2.5v5.4c0 .7.1 1.1.3 1.4s.6.5 1.1.5zM73 342.1c0-.5.2-.8.5-.8.2 0 .3.1.4.2s.1.3.1.6c0 .2 0 .4-.1.6-.1.1-.2.2-.4.2-.3 0-.5-.3-.5-.8zm.9 10.9h-.8v-8.5h.8v8.5zM84.2 348.7c0 1.4-.3 2.5-1 3.2-.7.8-1.6 1.2-2.8 1.2-.7 0-1.4-.2-2-.5s-1-.9-1.3-1.5-.5-1.4-.5-2.3c0-1.4.3-2.5 1-3.2s1.6-1.2 2.8-1.2c1.2 0 2.1.4 2.7 1.2.7.7 1.1 1.8 1.1 3.1zm-6.7 0c0 1.2.3 2.1.8 2.7.5.7 1.2 1 2.2 1s1.7-.3 2.2-1 .8-1.6.8-2.7c0-1.2-.3-2.1-.8-2.7s-1.2-1-2.2-1-1.7.3-2.2 1c-.6.6-.8 1.5-.8 2.7zM92.9 353v-5.5c0-.9-.2-1.5-.5-1.9-.4-.4-.9-.6-1.7-.6-1 0-1.8.3-2.2.8-.5.5-.7 1.3-.7 2.5v4.7H87v-8.5h.7l.1 1.2c.6-.9 1.5-1.3 2.9-1.3 1.9 0 2.9 1 2.9 3.1v5.6h-.7v-.1zM107.8 350c0 1-.4 1.7-1.1 2.3-.7.6-1.6.8-2.8.8-1.4 0-2.5-.2-3.2-.5v-.8c.8.3 1.9.5 3.1.5.9 0 1.7-.2 2.2-.6s.8-1 .8-1.7c0-.4-.1-.8-.3-1.1-.2-.3-.5-.5-.9-.8s-1-.5-1.8-.8c-1.2-.4-2-.8-2.4-1.3s-.7-1.1-.7-1.9c0-.9.3-1.6 1-2.1s1.5-.8 2.6-.8 2.1.2 3 .6l-.3.7c-.9-.4-1.9-.6-2.7-.6-.8 0-1.5.2-2 .6s-.8.9-.8 1.6c0 .4.1.8.2 1 .2.3.4.5.8.7.3.2.9.5 1.8.8s1.6.6 2 .9.8.6 1 1 .5 1 .5 1.5zM113.9 353.1c-1.2 0-2.2-.4-2.9-1.1-.7-.8-1-1.8-1-3.2 0-1.4.3-2.4 1-3.3.7-.8 1.6-1.2 2.7-1.2 1 0 1.8.3 2.4 1s.9 1.6.9 2.8v.6h-6.1c0 1.2.3 2.1.8 2.7s1.3.9 2.3.9c.5 0 .9 0 1.3-.1s.8-.2 1.4-.4v.7c-.5.2-.9.4-1.3.4s-1 .2-1.5.2zm-.3-8.1c-.8 0-1.5.3-2 .8s-.8 1.3-.9 2.3h5.3c0-1-.2-1.8-.6-2.3s-1-.8-1.8-.8zM123 344.3c.4 0 .7 0 1.2.1l-.1.7c-.4-.1-.7-.1-1.1-.1-.7 0-1.3.3-1.8.9s-.7 1.4-.7 2.3v4.7h-.8v-8.5h.7l.1 1.5h.1c.3-.6.7-1.1 1.1-1.3.2-.2.7-.3 1.3-.3zM128.1 353l-3.3-8.5h.8l2.2 5.8c.3.7.5 1.4.7 1.9.2-.7.4-1.4.7-2l2.2-5.8h.8l-3.3 8.5h-.8v.1zM137.4 353.1c-1.2 0-2.2-.4-2.9-1.1-.7-.8-1-1.8-1-3.2 0-1.4.3-2.4 1-3.3.7-.8 1.6-1.2 2.7-1.2 1 0 1.8.3 2.4 1 .6.7.9 1.6.9 2.8v.6h-6.1c0 1.2.3 2.1.8 2.7s1.3.9 2.3.9c.5 0 .9 0 1.3-.1s.8-.2 1.4-.4v.7c-.5.2-.9.4-1.3.4s-1 .2-1.5.2zm-.2-8.1c-.8 0-1.5.3-2 .8s-.8 1.3-.9 2.3h5.3c0-1-.2-1.8-.6-2.3s-1-.8-1.8-.8zM146.5 344.3c.4 0 .7 0 1.2.1l-.1.7c-.4-.1-.7-.1-1.1-.1-.7 0-1.3.3-1.8.9s-.7 1.4-.7 2.3v4.7h-.8v-8.5h.7l.1 1.5h.1c.3-.6.7-1.1 1.1-1.3.3-.2.8-.3 1.3-.3zM155.1 350.8c0 .8-.3 1.3-.9 1.8-.6.4-1.4.6-2.5.6s-2-.2-2.7-.5v-.8c.9.4 1.8.6 2.7.6.8 0 1.5-.1 1.9-.4s.7-.6.7-1.1c0-.4-.2-.8-.5-1.1-.3-.3-.9-.6-1.7-.9s-1.4-.6-1.8-.8c-.3-.2-.6-.5-.8-.8s-.3-.6-.3-1c0-.6.3-1.1.8-1.5s1.3-.6 2.2-.6 1.8.2 2.6.5l-.3.7c-.8-.3-1.6-.5-2.3-.5s-1.2.1-1.6.3c-.4.2-.6.5-.6 1 0 .4.2.8.5 1.1s.9.6 1.8.9c.8.3 1.3.5 1.7.7.3.2.6.5.8.8s.3.6.3 1z" class="st11"/></g><g><path d="M46.8 490l-4.3-10.5h-.1c0 .6.1 1.3.1 2v8.6h-.8v-11.4H43l4 10 4-10h1.2V490h-.8v-8.7c0-.6 0-1.2.1-1.9h-.1L47.3 490h-.5zM61 490l-.2-1.3h-.1c-.4.5-.9.9-1.3 1.2-.5.2-1 .3-1.6.3-.8 0-1.5-.2-1.9-.6-.5-.4-.7-1-.7-1.8s.3-1.5 1-1.9c.7-.5 1.7-.7 3-.7h1.6v-.6c0-.8-.2-1.4-.5-1.8s-.9-.6-1.6-.6c-.8 0-1.6.2-2.4.7l-.3-.9c.9-.4 1.9-.7 2.8-.7.9 0 1.6.2 2.1.7s.7 1.2.7 2.3v5.6H61v.1zm-3.1-.6c.9 0 1.6-.3 2.1-.8s.8-1.2.8-2.2v-.8l-1.5.1c-1.2.1-2 .2-2.6.6s-.8.8-.8 1.5c0 .5.2.9.5 1.2.4.3.9.4 1.5.4zM64.6 479.1c0-.5.2-.8.5-.8.2 0 .3.1.4.2s.1.3.1.6c0 .2 0 .4-.1.6-.1.1-.2.2-.4.2-.3 0-.5-.3-.5-.8zm.9 10.9h-.8v-8.5h.8v8.5zM69.5 490h-.8v-12.2h.8V490zM83.8 487c0 1-.4 1.7-1.1 2.3s-1.6.8-2.8.8c-1.4 0-2.5-.2-3.2-.5v-.8c.8.3 1.9.5 3.1.5.9 0 1.7-.2 2.2-.6s.8-1 .8-1.7c0-.4-.1-.8-.3-1.1s-.5-.5-.9-.8-1-.5-1.8-.8c-1.2-.4-2-.8-2.4-1.3s-.7-1.1-.7-1.9c0-.9.3-1.6 1-2.1s1.5-.8 2.6-.8 2.1.2 3 .6l-.3.7c-.9-.4-1.9-.6-2.7-.6-.8 0-1.5.2-2 .6s-.8.9-.8 1.6c0 .4.1.8.2 1s.4.5.8.7.9.5 1.8.8 1.6.6 2 .9.8.6 1 1 .5 1 .5 1.5zM89.8 490.1c-1.2 0-2.2-.4-2.9-1.1s-1-1.8-1-3.2c0-1.4.3-2.4 1-3.3s1.6-1.2 2.7-1.2c1 0 1.8.3 2.4 1s.9 1.6.9 2.8v.6h-6.1c0 1.2.3 2.1.8 2.7s1.3.9 2.3.9c.5 0 .9 0 1.3-.1s.8-.2 1.4-.4v.7c-.5.2-.9.4-1.3.4s-1 .2-1.5.2zm-.2-8.1c-.8 0-1.5.3-2 .8s-.8 1.3-.9 2.3H92c0-1-.2-1.8-.6-2.3s-1-.8-1.8-.8zM98.9 481.3c.4 0 .7 0 1.2.1l-.1.7c-.4-.1-.7-.1-1.1-.1-.7 0-1.3.3-1.8.9s-.7 1.4-.7 2.3v4.7h-.8v-8.5h.7l.1 1.5h.1c.3-.6.7-1.1 1.1-1.3s.8-.3 1.3-.3zM104.1 490l-3.3-8.5h.8l2.2 5.8c.3.7.5 1.4.7 1.9.2-.7.4-1.4.7-2l2.2-5.8h.8l-3.3 8.5h-.8v.1zM113.4 490.1c-1.2 0-2.2-.4-2.9-1.1s-1-1.8-1-3.2c0-1.4.3-2.4 1-3.3s1.6-1.2 2.7-1.2c1 0 1.8.3 2.4 1s.9 1.6.9 2.8v.6h-6.1c0 1.2.3 2.1.8 2.7s1.3.9 2.3.9c.5 0 .9 0 1.3-.1s.8-.2 1.4-.4v.7c-.5.2-.9.4-1.3.4s-1 .2-1.5.2zm-.2-8.1c-.8 0-1.5.3-2 .8s-.8 1.3-.9 2.3h5.3c0-1-.2-1.8-.6-2.3s-1.1-.8-1.8-.8zM122.5 481.3c.4 0 .7 0 1.2.1l-.1.7c-.4-.1-.7-.1-1.1-.1-.7 0-1.3.3-1.8.9s-.7 1.4-.7 2.3v4.7h-.8v-8.5h.7l.1 1.5h.1c.3-.6.7-1.1 1.1-1.3s.7-.3 1.3-.3zM131 487.8c0 .8-.3 1.3-.9 1.8s-1.4.6-2.5.6-2-.2-2.7-.5v-.8c.9.4 1.8.6 2.7.6.8 0 1.5-.1 1.9-.4s.7-.6.7-1.1c0-.4-.2-.8-.5-1.1s-.9-.6-1.7-.9-1.4-.6-1.8-.8-.6-.5-.8-.8-.3-.6-.3-1c0-.6.3-1.1.8-1.5s1.3-.6 2.2-.6 1.8.2 2.6.5l-.3.7c-.8-.3-1.6-.5-2.3-.5s-1.2.1-1.6.3-.6.5-.6 1c0 .4.2.8.5 1.1s.9.6 1.8.9c.8.3 1.3.5 1.7.7s.6.5.8.8.3.6.3 1z" class="st11"/></g><g><path d="M103.1 617c0 1-.4 1.7-1.1 2.3s-1.6.8-2.8.8c-1.4 0-2.5-.2-3.2-.5v-.8c.8.3 1.9.5 3.1.5.9 0 1.7-.2 2.2-.6.5-.4.8-1 .8-1.7 0-.4-.1-.8-.3-1.1-.2-.3-.5-.5-.9-.8-.4-.2-1-.5-1.8-.8-1.2-.4-2-.8-2.4-1.3s-.7-1.1-.7-1.9c0-.9.3-1.6 1-2.1s1.5-.8 2.6-.8 2.1.2 3 .6l-.3.7c-.9-.4-1.9-.6-2.7-.6-.8 0-1.5.2-2 .6s-.8.9-.8 1.6c0 .4.1.8.2 1 .2.3.4.5.8.7.3.2.9.5 1.8.8s1.6.6 2 .9c.4.3.8.6 1 1 .4.6.5 1 .5 1.5zM108 619.4c.5 0 .9 0 1.3-.1v.6c-.4.1-.8.2-1.3.2-.8 0-1.3-.2-1.7-.6-.4-.4-.5-1-.5-1.9v-5.5h-1.3v-.5l1.3-.4.4-1.9h.4v2.1h2.5v.7h-2.5v5.4c0 .7.1 1.1.3 1.4.2.4.6.5 1.1.5zM118.5 615.7c0 1.4-.3 2.5-1 3.2s-1.6 1.2-2.8 1.2c-.7 0-1.4-.2-2-.5-.6-.4-1-.9-1.3-1.5-.3-.7-.5-1.4-.5-2.3 0-1.4.3-2.5 1-3.2s1.6-1.2 2.8-1.2c1.2 0 2.1.4 2.7 1.2s1.1 1.8 1.1 3.1zm-6.7 0c0 1.2.3 2.1.8 2.7.5.7 1.2 1 2.2 1s1.7-.3 2.2-1 .8-1.6.8-2.7c0-1.2-.3-2.1-.8-2.7-.5-.6-1.2-1-2.2-1s-1.7.3-2.2 1-.8 1.5-.8 2.7zM124.6 611.3c.4 0 .7 0 1.2.1l-.1.7c-.4-.1-.7-.1-1.1-.1-.7 0-1.3.3-1.8.9-.5.6-.7 1.4-.7 2.3v4.7h-.8v-8.5h.7l.1 1.5h.1c.3-.6.7-1.1 1.1-1.3.3-.2.8-.3 1.3-.3zM133.1 620l-.2-1.3h-.1c-.4.5-.9.9-1.3 1.2s-1 .3-1.6.3c-.8 0-1.5-.2-1.9-.6s-.7-1-.7-1.8.3-1.5 1-1.9c.7-.4 1.7-.7 3-.7h1.6v-.6c0-.8-.2-1.4-.5-1.8s-.9-.6-1.6-.6c-.8 0-1.6.2-2.4.7l-.3-.7c.9-.4 1.9-.7 2.8-.7.9 0 1.6.2 2.1.7s.7 1.2.7 2.3v5.6h-.6v-.1zm-3.2-.6c.9 0 1.6-.3 2.1-.8s.8-1.2.8-2.2v-.8l-1.5.1c-1.2.1-2 .2-2.6.6s-.8.8-.8 1.5c0 .5.2.9.5 1.2s.9.4 1.5.4zM143.4 611.5v.5l-1.8.1c.5.6.7 1.2.7 1.9 0 .8-.3 1.5-.8 2s-1.3.8-2.2.8h-.8c-.3.2-.5.4-.7.6s-.2.5-.2.7c0 .3.1.5.3.6s.6.2 1 .2h1.5c.9 0 1.6.2 2.1.6s.7.9.7 1.7c0 .9-.4 1.6-1.1 2.1s-1.8.7-3.1.7c-1.1 0-1.9-.2-2.5-.6s-.9-1-.9-1.7c0-.6.2-1.1.5-1.5s.9-.6 1.5-.8c-.3-.1-.5-.3-.6-.5s-.2-.4-.2-.7c0-.6.4-1.1 1.1-1.5-.5-.2-.9-.5-1.2-1s-.4-.9-.4-1.5c0-.8.3-1.5.8-2s1.3-.8 2.2-.8c.6 0 1 .1 1.3.2l2.8-.1zm-6.9 9.9c0 1.2.9 1.8 2.6 1.8 2.2 0 3.3-.7 3.3-2.1 0-.5-.2-.9-.5-1.1s-.9-.3-1.7-.3h-1.4c-1.5-.1-2.3.5-2.3 1.7zm.7-7.3c0 .7.2 1.2.6 1.5s.9.5 1.6.5c.7 0 1.3-.2 1.6-.5s.6-.9.6-1.6c0-.7-.2-1.3-.6-1.6s-.9-.5-1.6-.5c-.7 0-1.2.2-1.6.6s-.6.9-.6 1.6zM149 620.1c-1.2 0-2.2-.4-2.9-1.1s-1-1.8-1-3.2.3-2.4 1-3.3 1.6-1.2 2.7-1.2c1 0 1.8.3 2.4 1s.9 1.6.9 2.8v.6H146c0 1.2.3 2.1.8 2.7s1.3.9 2.3.9c.5 0 .9 0 1.3-.1s.8-.2 1.4-.4v.7c-.5.2-.9.4-1.3.4s-1 .2-1.5.2zm-.3-8.1c-.8 0-1.5.3-2 .8s-.8 1.3-.9 2.3h5.3c0-1-.2-1.8-.6-2.3s-1-.8-1.8-.8zM165.8 617c0 1-.4 1.7-1.1 2.3s-1.6.8-2.8.8c-1.4 0-2.5-.2-3.2-.5v-.8c.8.3 1.9.5 3.1.5.9 0 1.7-.2 2.2-.6s.8-1 .8-1.7c0-.4-.1-.8-.3-1.1s-.5-.5-.9-.8-1-.5-1.8-.8c-1.2-.4-2-.8-2.4-1.3s-.7-1.1-.7-1.9c0-.9.3-1.6 1-2.1s1.5-.8 2.6-.8 2.1.2 3 .6l-.3.7c-.9-.4-1.9-.6-2.7-.6s-1.5.2-2 .6-.8.9-.8 1.6c0 .4.1.8.2 1s.4.5.8.7.9.5 1.8.8c.9.3 1.6.6 2 .9s.8.6 1 1 .5 1 .5 1.5zM171.8 620.1c-1.2 0-2.2-.4-2.9-1.1s-1-1.8-1-3.2.3-2.4 1-3.3 1.6-1.2 2.7-1.2c1 0 1.8.3 2.4 1s.9 1.6.9 2.8v.6h-6.1c0 1.2.3 2.1.8 2.7s1.3.9 2.3.9c.5 0 .9 0 1.3-.1s.8-.2 1.4-.4v.7c-.5.2-.9.4-1.3.4s-1 .2-1.5.2zm-.2-8.1c-.8 0-1.5.3-2 .8s-.8 1.3-.9 2.3h5.3c0-1-.2-1.8-.6-2.3s-1-.8-1.8-.8zM180.9 611.3c.4 0 .7 0 1.2.1l-.1.7c-.4-.1-.7-.1-1.1-.1-.7 0-1.3.3-1.8.9s-.7 1.4-.7 2.3v4.7h-.8v-8.5h.7l.1 1.5h.1c.3-.6.7-1.1 1.1-1.3s.8-.3 1.3-.3zM186.1 620l-3.3-8.5h.8l2.2 5.8c.3.7.5 1.4.7 1.9.2-.7.4-1.4.7-2l2.2-5.8h.8l-3.3 8.5-.8.1zM195.4 620.1c-1.2 0-2.2-.4-2.9-1.1s-1-1.8-1-3.2.3-2.4 1-3.3 1.6-1.2 2.7-1.2c1 0 1.8.3 2.4 1s.9 1.6.9 2.8v.6h-6.1c0 1.2.3 2.1.8 2.7s1.3.9 2.3.9c.5 0 .9 0 1.3-.1s.8-.2 1.4-.4v.7c-.5.2-.9.4-1.3.4s-1 .2-1.5.2zm-.2-8.1c-.8 0-1.5.3-2 .8s-.8 1.3-.9 2.3h5.3c0-1-.2-1.8-.6-2.3s-1.1-.8-1.8-.8zM204.5 611.3c.4 0 .7 0 1.2.1l-.1.7c-.4-.1-.7-.1-1.1-.1-.7 0-1.3.3-1.8.9s-.7 1.4-.7 2.3v4.7h-.8v-8.5h.7l.1 1.5h.1c.3-.6.7-1.1 1.1-1.3s.7-.3 1.3-.3zM213 617.8c0 .8-.3 1.3-.9 1.8s-1.4.6-2.5.6-2-.2-2.7-.5v-.8c.9.4 1.8.6 2.7.6.8 0 1.5-.1 1.9-.4s.7-.6.7-1.1c0-.4-.2-.8-.5-1.1s-.9-.6-1.7-.9c-.8-.3-1.4-.6-1.8-.8s-.6-.5-.8-.8-.3-.6-.3-1c0-.6.3-1.1.8-1.5s1.3-.6 2.2-.6 1.8.2 2.6.5l-.3.7c-.8-.3-1.6-.5-2.3-.5s-1.2.1-1.6.3-.6.5-.6 1c0 .4.2.8.5 1.1s.9.6 1.8.9c.8.3 1.3.5 1.7.7s.6.5.8.8.3.6.3 1z" class="st11"/></g><g><path d="M216.6 721h-.8v-11.4h6.3v.7h-5.5v4.8h5.2v.7h-5.2v5.2zM227.6 721h-.8v-10.7h-3.7v-.8h8.2v.8h-3.7V721zM240.7 712.8c0 1.1-.4 2-1.1 2.5s-1.8.9-3.2.9h-1.8v4.7h-.8v-11.4h2.8c2.7.1 4.1 1.1 4.1 3.3zm-6.1 2.8h1.6c1.3 0 2.2-.2 2.8-.6.6-.4.9-1.1.9-2.1 0-.9-.3-1.5-.8-2-.5-.4-1.4-.6-2.5-.6h-1.9v5.3h-.1zM255.2 718c0 1-.4 1.7-1.1 2.3s-1.6.8-2.8.8c-1.4 0-2.5-.2-3.2-.5v-.8c.8.3 1.9.5 3.1.5.9 0 1.7-.2 2.2-.6s.8-1 .8-1.7c0-.4-.1-.8-.3-1.1s-.5-.5-.9-.8-1-.5-1.8-.8c-1.2-.4-2-.8-2.4-1.3s-.7-1.1-.7-1.9c0-.9.3-1.6 1-2.1s1.5-.8 2.6-.8 2.1.2 3 .6l-.3.7c-.9-.4-1.9-.6-2.7-.6s-1.5.2-2 .6-.8.9-.8 1.6c0 .4.1.8.2 1s.4.5.8.7.9.5 1.8.8c.9.3 1.6.6 2 .9s.8.6 1 1 .5 1 .5 1.5zM261.7 721.1c-1.2 0-2.2-.4-2.9-1.1s-1-1.8-1-3.2.3-2.4 1-3.3 1.6-1.2 2.7-1.2c1 0 1.8.3 2.4 1s.9 1.6.9 2.8v.6h-6.1c0 1.2.3 2.1.8 2.7s1.3.9 2.3.9c.5 0 .9 0 1.3-.1s.8-.2 1.4-.4v.7c-.5.2-.9.4-1.3.4s-1 .2-1.5.2zm-.2-8.1c-.8 0-1.5.3-2 .8s-.8 1.3-.9 2.3h5.3c0-1-.2-1.8-.6-2.3s-1.1-.8-1.8-.8zM271.2 712.3c.4 0 .7 0 1.2.1l-.1.7c-.4-.1-.7-.1-1.1-.1-.7 0-1.3.3-1.8.9s-.7 1.4-.7 2.3v4.7h-.8v-8.5h.7l.1 1.5h.1c.3-.6.7-1.1 1.1-1.3s.7-.3 1.3-.3zM276.7 721l-3.3-8.5h.8l2.2 5.8c.3.7.5 1.4.7 1.9.2-.7.4-1.4.7-2l2.2-5.8h.8l-3.3 8.5-.8.1zM286.4 721.1c-1.2 0-2.2-.4-2.9-1.1s-1-1.8-1-3.2.3-2.4 1-3.3 1.6-1.2 2.7-1.2c1 0 1.8.3 2.4 1s.9 1.6.9 2.8v.6h-6.1c0 1.2.3 2.1.8 2.7s1.3.9 2.3.9c.5 0 .9 0 1.3-.1s.8-.2 1.4-.4v.7c-.5.2-.9.4-1.3.4s-1 .2-1.5.2zm-.2-8.1c-.8 0-1.5.3-2 .8s-.8 1.3-.9 2.3h5.3c0-1-.2-1.8-.6-2.3s-1-.8-1.8-.8zM295.9 712.3c.4 0 .7 0 1.2.1l-.1.7c-.4-.1-.7-.1-1.1-.1-.7 0-1.3.3-1.8.9s-.7 1.4-.7 2.3v4.7h-.8v-8.5h.7l.1 1.5h.1c.3-.6.7-1.1 1.1-1.3s.8-.3 1.3-.3zM304.9 718.8c0 .8-.3 1.3-.9 1.8s-1.4.6-2.5.6-2-.2-2.7-.5v-.8c.9.4 1.8.6 2.7.6.8 0 1.5-.1 1.9-.4s.7-.6.7-1.1c0-.4-.2-.8-.5-1.1s-.9-.6-1.7-.9c-.8-.3-1.4-.6-1.8-.8s-.6-.5-.8-.8-.3-.6-.3-1c0-.6.3-1.1.8-1.5s1.3-.6 2.2-.6c.9 0 1.8.2 2.6.5l-.3.7c-.8-.3-1.6-.5-2.3-.5-.7 0-1.2.1-1.6.3s-.6.5-.6 1c0 .4.2.8.5 1.1s.9.6 1.8.9c.8.3 1.3.5 1.7.7s.6.5.8.8.3.6.3 1z" class="st11"/></g><g><path fill="none" stroke="#818181" stroke-miterlimit="10" stroke-width="10" d="M320 360.5h34"/><path fill="#818181" d="M350.7 336.2v48.6l24.3-24.3z"/></g></g><g><path d="M560.6 436.4h22.6v33.9h-22.6z" class="st1"/><path d="M614 475h-86.2c-2.2 0-4-1.8-4-4v-7.1c0-2.2 1.8-4 4-4H614c2.2 0 4 1.8 4 4v7.1c0 2.2-1.7 4-4 4z" class="st1"/><path fill="none" stroke="#4b4b4b" stroke-miterlimit="10" stroke-width="6" d="M702 436.7H439c-4.4 0-8-3.6-8-8V280.5c0-4.4 3.6-8 8-8h263c4.4 0 8 3.6 8 8v148.2c0 4.4-3.6 8-8 8z"/></g><g><defs><path id="SVGID_3_" d="M545.8 342v15.2l18.6-12v31.3l7.3 4.2 7.3-4.2v-31.3l18.6 12V342l-25.9-16.3-25.9 16.3zm25.9-33.3l39.5 22.8v45.7L571.7 400l-39.5-22.8v-45.7l39.5-22.8z"/></defs><clipPath id="SVGID_4_"><use overflow="visible" xlink:href="#SVGID_3_"/></clipPath><g clip-path="url(#SVGID_4_)"><defs><path id="SVGID_5_" d="M446.2 111.9h882.7v496.5H446.2z"/></defs><clipPath id="SVGID_6_"><use overflow="visible" xlink:href="#SVGID_5_"/></clipPath><path fill="#13d389" d="M529.9 306.4h83.6v96h-83.6z" clip-path="url(#SVGID_6_)"/></g></g></svg>