<?xml version="1.0" encoding="utf-8"?>
<!-- Generator: Adobe Illustrator 23.0.1, SVG Export Plug-In . SVG Version: 6.00 Build 0)  -->
<svg version="1.1" id="Capa_1" xmlns="http://www.w3.org/2000/svg" xmlns:xlink="http://www.w3.org/1999/xlink" x="0px" y="0px"
	 viewBox="0 0 750 750" style="enable-background:new 0 0 750 750;" xml:space="preserve">
<style type="text/css">
	.st0{fill:#91C300;}
</style>
<g>
	<path class="st0" d="M391.6,456c10.6-0.8,20.2-6.2,26.4-14.8L512.9,310c2.9-4,2.5-9.6-1.1-13.1c-3.5-3.5-9.1-4-13.1-1.1
		l-131.2,94.9c-8.6,6.2-13.9,15.8-14.8,26.4c-0.8,10.6,3,20.9,10.5,28.4c6.8,6.8,16,10.6,25.5,10.6
		C389.7,456.1,390.6,456.1,391.6,456z M372.9,418.7c0.4-4.6,2.7-8.9,6.5-11.6l80-57.9l-57.9,80c-2.7,3.8-7,6.1-11.6,6.5
		c-4.6,0.3-9.1-1.3-12.4-4.6C374.3,427.9,372.6,423.4,372.9,418.7z"/>
	<path class="st0" d="M618.6,269.2c-0.1-0.2-0.1-0.4-0.2-0.6c-0.1-0.2-0.3-0.3-0.4-0.5c-10.2-17.6-22.4-33.9-36.1-48.7l21.8-21.8
		l14.3,14.3l43-43l-43-43l-43,43l14.3,14.3L567.5,205c-14.8-13.8-31.2-25.9-48.7-36.1c-0.2-0.1-0.3-0.3-0.5-0.4
		c-0.2-0.1-0.4-0.1-0.6-0.2c-31.4-18.1-66.6-30.1-104.1-34.5v-12.1h15.2c14,0,25.3-11.4,25.3-25.3s-11.4-25.3-25.4-25.3h-91.2
		c-14,0-25.3,11.4-25.3,25.3s11.4,25.3,25.3,25.3h15.2v11.7c-10.9,1.2-21.9,2.9-32.7,5.4c-5.5,1.2-8.9,6.7-7.6,12.1
		c1.2,5.5,6.7,8.9,12.1,7.6c9.3-2.1,18.7-3.8,28.2-4.8l10.9-0.8c3.3-0.3,6.4-0.4,9.4-0.6v20c0,5.6,4.5,10.1,10.1,10.1
		s10.1-4.5,10.1-10.1v-20c38.1,1.8,74,12,106,28.8l-10,17.3c-2.8,4.9-1.1,11,3.7,13.8c1.6,0.9,3.3,1.4,5.1,1.4
		c3.5,0,6.9-1.8,8.8-5.1l10-17.3c31.7,20.1,58.7,47.1,78.8,78.8l-17.3,10c-4.8,2.8-6.5,9-3.7,13.8c1.9,3.3,5.3,5.1,8.8,5.1
		c1.7,0,3.5-0.4,5.1-1.4l17.3-10c17.1,32.4,27.3,68.9,28.9,107.6h-20c-5.6,0-10.1,4.5-10.1,10.1s4.5,10.1,10.1,10.1h20
		c-1.5,38.7-11.8,75.2-28.9,107.6l-17.3-10c-4.8-2.8-11-1.2-13.8,3.7s-1.1,11,3.7,13.8l17.3,10c-20.1,31.7-47.1,58.7-78.8,78.8
		l-10-17.3c-2.8-4.9-9-6.5-13.8-3.7c-4.9,2.8-6.5,9-3.7,13.8l10,17.3c-31.9,16.8-67.9,27.1-106,28.8v-19.9c0-5.6-4.5-10.1-10.1-10.1
		s-10.1,4.5-10.1,10.1v20c-16.2-0.6-32.4-2.6-48.4-6.3c-5.5-1.3-10.9,2.2-12.1,7.6c-1.3,5.5,2.2,10.9,7.6,12.1
		c20.2,4.7,40.9,7,61.4,7c0.5,0,1,0,1.5,0c0.1,0,0.1,0,0.2,0s0.2-0.1,0.2-0.1c48.7-0.3,94.4-13.5,134-36.2c0.3-0.1,0.6-0.2,1-0.4
		c0.2-0.1,0.3-0.3,0.5-0.4c40.9-23.9,75.2-58,99.1-98.9c0.2-0.3,0.4-0.5,0.6-0.8c0.1-0.2,0.1-0.4,0.2-0.6
		c23.2-40.1,36.5-86.6,36.5-136.2S641.8,309.4,618.6,269.2z M617.9,154.5l14.3,14.3l-14.3,14.3l-14.3-14.3L617.9,154.5z
		 M372.9,131.9v-30.6h-35.5c-2.8,0-5.1-2.3-5.1-5.1s2.3-5.1,5.1-5.1h91.2c2.8,0,5.1,2.3,5.1,5.1s-2.3,5.1-5.1,5.1h-35.5v30.6
		c-3.5-0.1-6.9-0.2-10.1-0.2c-0.3,0-0.6,0-0.9,0s-0.5,0-0.8,0c-1.7,0-3.3,0.1-5,0.1C375.2,131.9,374.1,131.9,372.9,131.9z"/>
	<path class="st0" d="M291.8,212.8h-50.7c-5.6,0-10.1,4.5-10.1,10.1s4.5,10.1,10.1,10.1h50.7c5.6,0,10.1-4.5,10.1-10.1
		S297.4,212.8,291.8,212.8z"/>
	<path class="st0" d="M291.8,283.8H190.4c-5.6,0-10.1,4.5-10.1,10.1s4.5,10.1,10.1,10.1h101.4c5.6,0,10.1-4.5,10.1-10.1
		S297.4,283.8,291.8,283.8z"/>
	<path class="st0" d="M291.8,354.7h-152c-5.6,0-10.1,4.5-10.1,10.1s4.5,10.1,10.1,10.1h152c5.6,0,10.1-4.5,10.1-10.1
		S297.4,354.7,291.8,354.7z"/>
	<path class="st0" d="M291.8,425.7H99.2c-5.6,0-10.1,4.5-10.1,10.1S93.6,446,99.2,446h192.6c5.6,0,10.1-4.5,10.1-10.1
		S297.4,425.7,291.8,425.7z"/>
	<path class="st0" d="M291.8,496.6H160c-5.6,0-10.1,4.5-10.1,10.1c0,5.6,4.5,10.1,10.1,10.1h131.8c5.6,0,10.1-4.5,10.1-10.1
		S297.4,496.6,291.8,496.6z"/>
	<path class="st0" d="M291.8,567.6h-71c-5.6,0-10.1,4.5-10.1,10.1s4.5,10.1,10.1,10.1h71c5.6,0,10.1-4.5,10.1-10.1
		S297.4,567.6,291.8,567.6z"/>
</g>
</svg>
