<?xml version="1.0" encoding="utf-8"?>
<!-- Generator: Adobe Illustrator 23.0.1, SVG Export Plug-In . SVG Version: 6.00 Build 0)  -->
<svg version="1.1" id="Layer_1" xmlns="http://www.w3.org/2000/svg" xmlns:xlink="http://www.w3.org/1999/xlink" x="0px" y="0px"
	 viewBox="0 0 750 750" style="enable-background:new 0 0 750 750;" xml:space="preserve">
<style type="text/css">
	.st0{fill:#02314B;}
	.st1{enable-background:new    ;}
	.st2{fill:#012234;}
	.st3{fill:#024462;}
	.st4{fill:#0DD9D4;}
	.st5{fill:#025A82;}
	.st6{fill:#FA7564;}
</style>
<g>
	<g>
		<polygon class="st0" points="366.6,239.1 312.7,207.7 199.8,273 200.4,514.5 254.3,545.7 367.3,480.5 		"/>
		<g>
			<g class="st1">
				<g>
					<polygon class="st2" points="254.3,545.7 200.4,514.5 199.8,273 253.7,304.2 					"/>
				</g>
				<g>
					<polygon class="st3" points="253.7,304.2 199.8,273 312.7,207.7 366.6,239.1 					"/>
				</g>
				<g>
					<polygon class="st0" points="366.6,239.1 367.3,480.5 254.3,545.7 253.7,304.2 					"/>
				</g>
			</g>
		</g>
		<g>
			<g>
				<polygon class="st0" points="340.5,283.7 340.7,297.3 328.9,304.1 328.9,290.6 				"/>
			</g>
			<g>
				<polygon class="st0" points="340.7,328.3 340.7,341.8 329,348.6 328.9,335.2 				"/>
			</g>
			<g>
				<polygon class="st0" points="340.7,312.5 340.7,326 328.9,332.9 328.9,319.2 				"/>
			</g>
			<g>
				<polygon class="st0" points="354.3,304.5 354.3,318.2 342.7,324.9 342.5,311.4 				"/>
			</g>
			<g>
				<polygon class="st0" points="354.5,349.1 354.5,362.6 342.7,369.5 342.7,355.8 				"/>
			</g>
			<g>
				<polygon class="st0" points="327.4,425.2 327.4,438.7 315.6,445.6 315.6,432.1 				"/>
			</g>
			<g>
				<polygon class="st0" points="327.2,409.4 327.2,422.9 315.6,429.8 315.4,416.2 				"/>
			</g>
			<g>
				<polygon class="st0" points="354.6,409.4 354.6,422.9 343,429.8 342.8,416.2 				"/>
			</g>
			<g>
				<polygon class="st0" points="354.6,393.7 354.6,407.1 342.8,413.9 342.8,400.4 				"/>
			</g>
			<g>
				<polygon class="st0" points="300,441 300,454.6 288.2,461.4 288.2,447.9 				"/>
			</g>
			<g class="st1">
				<g>
					<polygon class="st0" points="341,417.4 341,430.9 329.2,437.6 329.2,424.1 					"/>
				</g>
				<g>
					<polygon class="st0" points="341,401.5 341,415.1 329.2,421.8 329.2,408.4 					"/>
				</g>
				<g>
					<polygon class="st0" points="313.4,372.8 313.4,386.3 301.8,393.1 301.6,379.6 					"/>
				</g>
				<g>
					<path class="st4" d="M273.8,412c3.1-1.7,5.5-0.3,5.5,3.1c0,3.5-2.5,7.7-5.4,9.3c-3.1,1.7-5.5,0.3-5.5-3.1
						S270.9,413.7,273.8,412z"/>
				</g>
				<g>
					<polygon class="st5" points="360.6,428.6 360.8,470.2 260.7,528 260.6,486.3 					"/>
				</g>
				<g>
					<path class="st6" d="M273.9,439.6c3.1-1.7,5.5-0.3,5.5,3.1c0,3.4-2.5,7.7-5.4,9.3c-3.1,1.7-5.5,0.3-5.5-3.1
						C268.4,445.6,270.9,441.3,273.9,439.6z"/>
				</g>
				<g>
					<path class="st5" d="M260.4,442.4l100-57.7l0.2,39.8l-100,57.7L260.4,442.4z M313.6,430.9v-13.5l-11.8,6.7v13.5L313.6,430.9
						L313.6,430.9z M300,438.7v-13.5l-11.8,6.7v13.5L300,438.7L300,438.7z M341,415.1v-13.5l-11.8,6.7v13.5L341,415.1L341,415.1z
						 M354.6,407.1v-13.5l-11.8,6.7v13.5L354.6,407.1L354.6,407.1z M327.2,422.9v-13.5l-11.8,6.7v13.5L327.2,422.9L327.2,422.9z
						 M354.6,422.9v-13.5l-11.8,6.7v13.5L354.6,422.9L354.6,422.9z M313.6,446.7v-13.5l-11.8,6.7v13.5L313.6,446.7L313.6,446.7z
						 M341,430.9v-13.5l-11.8,6.7v13.5L341,430.9L341,430.9z M300,454.6v-13.5l-11.8,6.7v13.5L300,454.6L300,454.6z M327.4,438.7
						v-13.5l-11.8,6.7v13.5L327.4,438.7L327.4,438.7z M273.9,469c3.1-1.7,5.5-6,5.4-9.3c0-3.4-2.5-4.9-5.5-3.1
						c-3.1,1.7-5.5,6-5.4,9.3C268.6,469.3,271,470.9,273.9,469L273.9,469z M273.9,452.2c3.1-1.7,5.5-6,5.4-9.3
						c0-3.4-2.5-4.9-5.5-3.1c-3.1,1.7-5.5,6-5.4,9.3C268.4,452.5,271,453.9,273.9,452.2L273.9,452.2z"/>
				</g>
				<g>
					<path class="st6" d="M273.8,395c3.1-1.7,5.5-0.3,5.5,3.1c0,3.5-2.5,7.7-5.4,9.3c-3.1,1.7-5.5,0.3-5.5-3.1
						C268.2,401,270.7,396.7,273.8,395z"/>
				</g>
				<g>
					<path class="st5" d="M260.4,397.8l100-57.7l0.2,39.8l-100,57.7L260.4,397.8z M313.6,402.1v-13.5l-11.8,6.7v13.5L313.6,402.1
						L313.6,402.1z M299.8,410.1v-13.5l-11.8,6.7v13.5L299.8,410.1L299.8,410.1z M354.6,378.4v-13.5l-11.8,6.7v13.5L354.6,378.4
						L354.6,378.4z M340.8,386.3v-13.5l-11.8,6.7v13.5L340.8,386.3L340.8,386.3z M327.2,394.3v-13.5l-11.8,6.7V401L327.2,394.3
						L327.2,394.3z M313.4,386.3v-13.5l-11.8,6.7v13.5L313.4,386.3L313.4,386.3z M299.8,394.1v-13.5l-11.8,6.7v13.5L299.8,394.1
						L299.8,394.1z M340.8,370.5v-13.5l-11.8,6.7v13.5L340.8,370.5L340.8,370.5z M354.5,362.6v-13.5l-11.8,6.7v13.5L354.5,362.6
						L354.5,362.6z M327.2,378.4v-13.5l-11.8,6.7v13.5L327.2,378.4L327.2,378.4z M273.8,407.6c3.1-1.7,5.5-6,5.4-9.3
						c0-3.4-2.5-4.7-5.5-3.1c-3.1,1.7-5.5,6-5.4,9.3C268.4,407.9,270.9,409.3,273.8,407.6L273.8,407.6z M273.9,424.5
						c3.1-1.7,5.5-6,5.4-9.3c0-3.4-2.5-4.7-5.5-3.1c-3.1,1.7-5.5,6-5.4,9.3C268.4,424.9,270.9,426.3,273.9,424.5L273.9,424.5z"/>
				</g>
				<g>
					<polygon class="st0" points="354.5,364.9 354.6,378.4 342.8,385.2 342.7,371.8 					"/>
				</g>
				<g>
					<polygon class="st0" points="340.8,372.8 340.8,386.3 329,393.1 329,379.6 					"/>
				</g>
				<g>
					<polygon class="st0" points="327.2,380.6 327.2,394.3 315.4,401 315.4,387.5 					"/>
				</g>
				<g>
					<polygon class="st0" points="340.8,357.1 340.8,370.5 329,377.3 329,363.8 					"/>
				</g>
				<g>
					<polygon class="st0" points="300,425.2 300,438.7 288.2,445.6 288.2,432 					"/>
				</g>
				<g>
					<path class="st4" d="M273.9,456.6c3.1-1.7,5.5-0.3,5.5,3.1s-2.5,7.7-5.4,9.3c-3.1,1.7-5.5,0.3-5.5-3.1
						C268.6,462.4,271,458.3,273.9,456.6z"/>
				</g>
				<g>
					<polygon class="st0" points="313.4,344 313.4,357.5 301.6,364.4 301.6,350.9 					"/>
				</g>
				<g>
					<polygon class="st0" points="299.6,336.1 299.6,349.7 287.9,356.5 287.9,343 					"/>
				</g>
				<g>
					<path class="st4" d="M273.8,367.5c3.1-1.7,5.5-0.3,5.5,3.1s-2.5,7.7-5.4,9.3c-3.1,1.7-5.5,0.3-5.5-3.1
						C268.2,373.5,270.7,369.2,273.8,367.5z"/>
				</g>
				<g>
					<path class="st5" d="M260.3,353.4l100-57.7l0.2,39.8l-100.2,57.6V353.4z M313.4,341.8v-13.5l-11.8,6.7v13.5L313.4,341.8
						L313.4,341.8z M299.6,349.7v-13.5l-11.8,6.7v13.5L299.6,349.7L299.6,349.7z M340.7,326v-13.5l-11.8,6.7v13.5L340.7,326
						L340.7,326z M354.3,318.2v-13.5l-11.8,6.7v13.5L354.3,318.2L354.3,318.2z M327.1,333.9v-13.5l-11.8,6.7v13.5L327.1,333.9
						L327.1,333.9z M354.5,333.9v-13.5l-11.8,6.7v13.5L354.5,333.9L354.5,333.9z M313.4,357.5V344l-11.8,6.7v13.5L313.4,357.5
						L313.4,357.5z M340.7,341.8v-13.5l-11.8,6.7v13.5L340.7,341.8L340.7,341.8z M299.8,365.5V352l-11.8,6.7v13.5L299.8,365.5
						L299.8,365.5z M327.1,349.7v-13.5l-11.8,6.7v13.5L327.1,349.7L327.1,349.7z M273.8,380c3.1-1.7,5.5-6,5.4-9.3
						c0-3.5-2.5-4.9-5.5-3.1c-3.1,1.7-5.5,6-5.4,9.3C268.2,380.3,270.7,381.7,273.8,380L273.8,380z M273.6,363
						c3.1-1.7,5.5-6,5.4-9.3c0-3.5-2.5-4.9-5.5-3.1c-3.1,1.7-5.5,6-5.4,9.3C268.2,363.3,270.7,364.7,273.6,363L273.6,363z"/>
				</g>
				<g>
					<polygon class="st0" points="354.3,320.5 354.5,333.9 342.7,340.7 342.7,327.2 					"/>
				</g>
				<g>
					<polygon class="st0" points="313.4,388.6 313.6,402.1 301.8,408.8 301.8,395.4 					"/>
				</g>
				<g>
					<polygon class="st0" points="327.1,364.9 327.2,378.4 315.4,385.2 315.4,371.6 					"/>
				</g>
				<g>
					<polygon class="st0" points="327.1,336.2 327.1,349.7 315.3,356.5 315.3,343 					"/>
				</g>
				<g>
					<polygon class="st0" points="354.3,275.9 354.3,289.4 342.5,296.1 342.5,282.6 					"/>
				</g>
				<g>
					<polygon class="st0" points="327.1,320.3 327.1,333.9 315.3,340.7 315.3,327.2 					"/>
				</g>
				<g>
					<polygon class="st0" points="299.6,352 299.8,365.5 288,372.2 288,358.7 					"/>
				</g>
				<g>
					<polygon class="st0" points="313.3,328.3 313.4,341.8 301.6,348.6 301.6,335 					"/>
				</g>
				<g>
					<polygon class="st0" points="326.9,291.7 326.9,305.1 315.3,311.9 315.1,298.4 					"/>
				</g>
				<g>
					<polygon class="st0" points="340.5,267.9 340.5,281.4 328.7,288.3 328.7,274.7 					"/>
				</g>
				<g>
					<polygon class="st0" points="313.3,299.5 313.3,313.1 301.5,319.8 301.5,306.4 					"/>
				</g>
				<g>
					<polygon class="st0" points="326.9,275.9 326.9,289.4 315.1,296.1 315.1,282.6 					"/>
				</g>
				<g>
					<path class="st6" d="M273.6,350.5c3.1-1.7,5.5-0.3,5.5,3.1c0,3.4-2.5,7.7-5.4,9.3c-3.1,1.7-5.5,0.3-5.5-3.1
						C268.2,356.5,270.7,352.3,273.6,350.5z"/>
				</g>
				<g>
					<polygon class="st0" points="299.5,307.4 299.6,320.9 287.9,327.8 287.9,314.2 					"/>
				</g>
				<g>
					<polygon class="st0" points="313.1,283.7 313.3,297.2 301.5,304.1 301.5,290.6 					"/>
				</g>
				<g>
					<polygon class="st0" points="299.5,291.7 299.5,305.1 287.9,311.9 287.7,298.4 					"/>
				</g>
				<g>
					<path class="st4" d="M273.6,322.9c3.1-1.7,5.5-0.3,5.5,3.1c0,3.4-2.5,7.7-5.4,9.3c-3.1,1.7-5.5,0.3-5.5-3.1
						C268.1,328.9,270.5,324.8,273.6,322.9z"/>
				</g>
				<g>
					<path class="st6" d="M273.5,305.9c3.1-1.7,5.5-0.3,5.5,3.1s-2.5,7.7-5.4,9.3c-3.1,1.7-5.5,0.3-5.5-3.1S270.5,307.8,273.5,305.9
						z"/>
				</g>
				<g>
					<path class="st5" d="M260.1,308.8l100-57.7l0.2,39.8l-100,57.7L260.1,308.8z M340.5,281.4v-13.5l-11.8,6.7v13.5L340.5,281.4
						L340.5,281.4z M299.6,320.9v-13.5l-11.8,6.7v13.5L299.6,320.9L299.6,320.9z M299.5,305.1v-13.5l-11.8,6.7v13.5L299.5,305.1
						L299.5,305.1z M313.3,313.1v-13.5l-11.8,6.7v13.5L313.3,313.1L313.3,313.1z M313.3,297.2v-13.5l-11.8,6.7v13.5L313.3,297.2
						L313.3,297.2z M340.7,297.3v-13.5l-11.8,6.7v13.5L340.7,297.3L340.7,297.3z M354.3,289.4v-13.5l-11.8,6.7v13.5L354.3,289.4
						L354.3,289.4z M354.3,273.6v-13.5l-11.8,6.7v13.5L354.3,273.6L354.3,273.6z M326.9,305.1v-13.5l-11.8,6.7v13.5L326.9,305.1
						L326.9,305.1z M326.9,289.4v-13.5l-11.8,6.7v13.5L326.9,289.4L326.9,289.4z M273.6,335.5c3.1-1.7,5.5-6,5.4-9.3
						c0-3.5-2.5-4.9-5.5-3.1c-3.1,1.7-5.5,6-5.4,9.3C268.1,335.8,270.5,337.2,273.6,335.5L273.6,335.5z M273.6,318.5
						c3.1-1.7,5.5-6,5.4-9.3c0-3.5-2.5-4.9-5.5-3.1c-3.1,1.7-5.5,6-5.4,9.3C268.1,318.8,270.5,320.3,273.6,318.5L273.6,318.5z"/>
				</g>
			</g>
			<g>
				<polygon class="st0" points="354.2,260.1 354.3,273.6 342.5,280.3 342.5,266.9 				"/>
			</g>
			<g>
				<polygon class="st0" points="299.8,396.4 299.8,410.1 288.2,416.8 288,403.3 				"/>
			</g>
			<g>
				<polygon class="st0" points="299.8,380.6 299.8,394.1 288,401 288,387.5 				"/>
			</g>
			<g>
				<polygon class="st0" points="313.6,433.2 313.6,446.7 301.9,453.4 301.8,439.9 				"/>
			</g>
			<g>
				<polygon class="st0" points="313.6,417.4 313.6,430.9 301.8,437.6 301.8,424.1 				"/>
			</g>
		</g>
	</g>
	<g>
		<path class="st5" d="M430.7,375.8c0-1.7,0.4-2.9,1.3-3.8s2.1-1.3,3.8-1.3c1.7,0,2.9,0.5,3.8,1.4s1.3,2.2,1.3,3.8
			c0,1.6-0.4,2.9-1.3,3.8s-2.1,1.4-3.8,1.4s-2.9-0.5-3.8-1.4C431.1,378.7,430.7,377.4,430.7,375.8z"/>
		<path class="st5" d="M463.9,375.8c0-1.7,0.4-2.9,1.3-3.8s2.1-1.3,3.8-1.3c1.7,0,2.9,0.5,3.8,1.4c0.9,0.9,1.3,2.2,1.3,3.8
			c0,1.6-0.4,2.9-1.3,3.8s-2.1,1.4-3.8,1.4s-2.9-0.5-3.8-1.4C464.4,378.7,463.9,377.4,463.9,375.8z"/>
		<path class="st5" d="M497.2,375.8c0-1.7,0.4-2.9,1.3-3.8c0.9-0.9,2.1-1.3,3.8-1.3s2.9,0.5,3.8,1.4c0.9,0.9,1.3,2.2,1.3,3.8
			c0,1.6-0.4,2.9-1.3,3.8s-2.1,1.4-3.8,1.4s-2.9-0.5-3.8-1.4C497.6,378.7,497.2,377.4,497.2,375.8z"/>
	</g>
	<g>
		<polygon class="st0" points="176.9,239.7 123,208.3 10.2,273.5 10.8,515 64.7,546.3 177.7,481 		"/>
		<g>
			<g class="st1">
				<g>
					<polygon class="st2" points="64.7,546.3 10.8,515 10.2,273.5 64.1,304.8 					"/>
				</g>
				<g>
					<polygon class="st3" points="64.1,304.8 10.2,273.5 123,208.3 176.9,239.7 					"/>
				</g>
				<g>
					<polygon class="st0" points="176.9,239.7 177.7,481 64.7,546.3 64.1,304.8 					"/>
				</g>
			</g>
		</g>
		<g>
			<g>
				<polygon class="st0" points="150.9,284.2 151.1,297.9 139.3,304.6 139.3,291.1 				"/>
			</g>
			<g>
				<polygon class="st0" points="151.1,328.8 151.1,342.3 139.4,349.2 139.3,335.7 				"/>
			</g>
			<g>
				<polygon class="st0" points="151.1,313 151.1,326.5 139.3,333.4 139.3,319.8 				"/>
			</g>
			<g>
				<polygon class="st0" points="164.7,305.1 164.7,318.7 153,325.4 152.9,312 				"/>
			</g>
			<g>
				<polygon class="st0" points="164.8,349.6 164.8,363.1 153,370 153,356.4 				"/>
			</g>
			<g>
				<polygon class="st0" points="137.7,425.7 137.7,439.2 125.9,446.1 125.9,432.6 				"/>
			</g>
			<g>
				<polygon class="st0" points="137.6,410 137.6,423.5 125.9,430.3 125.8,416.7 				"/>
			</g>
			<g>
				<polygon class="st0" points="165,410 165,423.5 153.4,430.3 153.2,416.7 				"/>
			</g>
			<g>
				<polygon class="st0" points="165,394.2 165,407.7 153.2,414.4 153.2,400.9 				"/>
			</g>
			<g>
				<polygon class="st0" points="110.3,441.5 110.3,455.2 98.5,461.9 98.5,448.4 				"/>
			</g>
			<g class="st1">
				<g>
					<polygon class="st0" points="151.4,417.9 151.4,431.4 139.6,438.2 139.6,424.7 					"/>
				</g>
				<g>
					<polygon class="st0" points="151.4,402 151.4,415.6 139.6,422.4 139.6,408.9 					"/>
				</g>
				<g>
					<polygon class="st0" points="123.8,373.4 123.8,386.8 112.2,393.6 112,380.1 					"/>
				</g>
				<g>
					<path class="st4" d="M84.1,412.6c3.1-1.7,5.5-0.3,5.5,3.1c0,3.5-2.5,7.7-5.4,9.3c-3.1,1.7-5.5,0.3-5.5-3.1
						S81.2,414.3,84.1,412.6z"/>
				</g>
				<g>
					<polygon class="st5" points="171,429.1 171.1,470.8 71.1,528.5 71,486.9 					"/>
				</g>
				<g>
					<path class="st6" d="M84.3,440.1c3.1-1.7,5.5-0.3,5.5,3.1s-2.5,7.7-5.4,9.3c-3.1,1.7-5.5,0.3-5.5-3.1
						C78.8,446.1,81.2,441.8,84.3,440.1z"/>
				</g>
				<g>
					<path class="st5" d="M70.8,442.9l100-57.7L171,425L71,482.7L70.8,442.9z M123.9,431.4v-13.5l-11.8,6.7v13.5L123.9,431.4
						L123.9,431.4z M110.3,439.2v-13.5l-11.8,6.7V446L110.3,439.2L110.3,439.2z M151.4,415.6v-13.5l-11.8,6.7v13.5L151.4,415.6
						L151.4,415.6z M165,407.7v-13.5l-11.8,6.7v13.5L165,407.7L165,407.7z M137.6,423.5V410l-11.8,6.7v13.5L137.6,423.5L137.6,423.5
						z M165,423.5V410l-11.8,6.7v13.5L165,423.5L165,423.5z M123.9,447.2v-13.5l-11.8,6.7v13.5L123.9,447.2L123.9,447.2z
						 M151.4,431.4v-13.5l-11.8,6.7v13.5L151.4,431.4L151.4,431.4z M110.3,455.2v-13.5l-11.8,6.7v13.5L110.3,455.2L110.3,455.2z
						 M137.7,439.2v-13.5l-11.8,6.7V446L137.7,439.2L137.7,439.2z M84.3,469.6c3.1-1.7,5.5-6,5.4-9.3c0-3.4-2.5-4.9-5.5-3.1
						c-3.1,1.7-5.5,6-5.4,9.3C78.9,469.9,81.4,471.4,84.3,469.6L84.3,469.6z M84.3,452.7c3.1-1.7,5.5-6,5.4-9.3
						c0-3.4-2.5-4.9-5.5-3.1c-3.1,1.7-5.5,6-5.4,9.3C78.8,453,81.4,454.4,84.3,452.7L84.3,452.7z"/>
				</g>
				<g>
					<path class="st6" d="M84.1,395.6c3.1-1.7,5.5-0.3,5.5,3.1c0,3.5-2.5,7.7-5.4,9.3c-3.1,1.7-5.5,0.3-5.5-3.1
						C78.6,401.6,81.1,397.3,84.1,395.6z"/>
				</g>
				<g>
					<path class="st5" d="M70.8,398.3l100-57.7l0.2,39.8L71,438.2L70.8,398.3z M123.9,402.6v-13.5l-11.8,6.7v13.5L123.9,402.6
						L123.9,402.6z M110.2,410.6v-13.5l-11.8,6.7v13.5L110.2,410.6L110.2,410.6z M165,378.9v-13.5l-11.8,6.7v13.5L165,378.9
						L165,378.9z M151.2,386.8v-13.5l-11.8,6.7v13.5L151.2,386.8L151.2,386.8z M137.6,394.8v-13.5l-11.8,6.7v13.5L137.6,394.8
						L137.6,394.8z M123.8,386.8v-13.5l-11.8,6.7v13.5L123.8,386.8L123.8,386.8z M110.2,394.7v-13.5l-11.8,6.7v13.5L110.2,394.7
						L110.2,394.7z M151.2,371.1v-13.5l-11.8,6.7v13.5L151.2,371.1L151.2,371.1z M164.8,363.1v-13.5l-11.8,6.7v13.5L164.8,363.1
						L164.8,363.1z M137.6,378.9v-13.5l-11.8,6.7v13.5L137.6,378.9L137.6,378.9z M84.1,408.1c3.1-1.7,5.5-6,5.4-9.3
						c0-3.4-2.5-4.7-5.5-3.1c-3.1,1.7-5.5,6-5.4,9.3S81.2,409.8,84.1,408.1L84.1,408.1z M84.3,425c3.1-1.7,5.5-6,5.4-9.3
						c0-3.4-2.5-4.7-5.5-3.1s-5.5,6-5.4,9.3C78.8,425.4,81.2,426.8,84.3,425L84.3,425z"/>
				</g>
				<g>
					<polygon class="st0" points="164.8,365.4 165,378.9 153.2,385.8 153,372.3 					"/>
				</g>
				<g>
					<polygon class="st0" points="151.2,373.4 151.2,386.8 139.4,393.6 139.4,380.1 					"/>
				</g>
				<g>
					<polygon class="st0" points="137.6,381.2 137.6,394.8 125.8,401.6 125.8,388.1 					"/>
				</g>
				<g>
					<polygon class="st0" points="151.2,357.6 151.2,371.1 139.4,377.8 139.4,364.3 					"/>
				</g>
				<g>
					<polygon class="st0" points="110.3,425.7 110.3,439.2 98.5,446.1 98.5,432.5 					"/>
				</g>
				<g>
					<path class="st4" d="M84.3,457.1c3.1-1.7,5.5-0.3,5.5,3.1s-2.5,7.7-5.4,9.3c-3.1,1.7-5.5,0.3-5.5-3.1
						C78.9,463,81.4,458.8,84.3,457.1z"/>
				</g>
				<g>
					<polygon class="st0" points="123.8,344.6 123.8,358.1 112,364.9 112,351.5 					"/>
				</g>
				<g>
					<polygon class="st0" points="110,336.6 110,350.2 98.2,357 98.2,343.5 					"/>
				</g>
				<g>
					<path class="st4" d="M84.1,368c3.1-1.7,5.5-0.3,5.5,3.1c0,3.4-2.5,7.7-5.4,9.3c-3.1,1.7-5.5,0.3-5.5-3.1
						C78.6,374,81.1,369.7,84.1,368z"/>
				</g>
				<g>
					<path class="st5" d="M70.7,353.9l100-57.7l0.2,39.8L70.7,393.6V353.9z M123.8,342.3v-13.5l-11.8,6.7V349L123.8,342.3
						L123.8,342.3z M110,350.2v-13.5l-11.8,6.7V357L110,350.2L110,350.2z M151.1,326.5V313l-11.8,6.7v13.5L151.1,326.5L151.1,326.5z
						 M164.7,318.7v-13.5l-11.8,6.7v13.5L164.7,318.7L164.7,318.7z M137.4,334.5V321l-11.8,6.7v13.5L137.4,334.5L137.4,334.5z
						 M164.8,334.5V321l-11.8,6.7v13.5L164.8,334.5L164.8,334.5z M123.8,358.1v-13.5l-11.8,6.7v13.5L123.8,358.1L123.8,358.1z
						 M151.1,342.3v-13.5l-11.8,6.7V349L151.1,342.3L151.1,342.3z M110.2,366v-13.5l-11.8,6.7v13.5L110.2,366L110.2,366z
						 M137.4,350.2v-13.5l-11.8,6.7V357L137.4,350.2L137.4,350.2z M84.1,380.6c3.1-1.7,5.5-6,5.4-9.3c0-3.5-2.5-4.9-5.5-3.1
						c-3.1,1.7-5.5,6-5.4,9.3C78.6,380.9,81.1,382.3,84.1,380.6L84.1,380.6z M84,363.6c3.1-1.7,5.5-6,5.4-9.3c0-3.5-2.5-4.9-5.5-3.1
						c-3.1,1.7-5.5,6-5.4,9.3S81.1,365.3,84,363.6L84,363.6z"/>
				</g>
				<g>
					<polygon class="st0" points="164.7,321 164.8,334.5 153,341.2 153,327.7 					"/>
				</g>
				<g>
					<polygon class="st0" points="123.8,389.1 123.9,402.6 112.2,409.4 112.2,395.9 					"/>
				</g>
				<g>
					<polygon class="st0" points="137.4,365.4 137.6,378.9 125.8,385.8 125.8,372.1 					"/>
				</g>
				<g>
					<polygon class="st0" points="137.4,336.8 137.4,350.2 125.6,357 125.6,343.5 					"/>
				</g>
				<g>
					<polygon class="st0" points="164.7,276.4 164.7,289.9 152.9,296.6 152.9,283.2 					"/>
				</g>
				<g>
					<polygon class="st0" points="137.4,320.8 137.4,334.5 125.6,341.2 125.6,327.7 					"/>
				</g>
				<g>
					<polygon class="st0" points="110,352.5 110.2,366 98.4,372.8 98.4,359.3 					"/>
				</g>
				<g>
					<polygon class="st0" points="123.6,328.8 123.8,342.3 112,349.2 112,335.5 					"/>
				</g>
				<g>
					<polygon class="st0" points="137.3,292.2 137.3,305.7 125.6,312.4 125.5,298.9 					"/>
				</g>
				<g>
					<polygon class="st0" points="150.9,268.5 150.9,281.9 139.1,288.8 139.1,275.2 					"/>
				</g>
				<g>
					<polygon class="st0" points="123.6,300 123.6,313.6 111.9,320.4 111.9,306.9 					"/>
				</g>
				<g>
					<polygon class="st0" points="137.3,276.4 137.3,289.9 125.5,296.6 125.5,283.2 					"/>
				</g>
				<g>
					<path class="st6" d="M84,351c3.1-1.7,5.5-0.3,5.5,3.1c0,3.4-2.5,7.7-5.4,9.3c-3.1,1.7-5.5,0.3-5.5-3.1S81.1,352.9,84,351z"/>
				</g>
				<g>
					<polygon class="st0" points="109.9,308 110,321.5 98.2,328.3 98.2,314.7 					"/>
				</g>
				<g>
					<polygon class="st0" points="123.5,284.2 123.6,297.7 111.9,304.6 111.9,291.1 					"/>
				</g>
				<g>
					<polygon class="st0" points="109.9,292.2 109.9,305.7 98.2,312.4 98.1,298.9 					"/>
				</g>
				<g>
					<path class="st4" d="M84,323.4c3.1-1.7,5.5-0.3,5.5,3.1c0,3.4-2.5,7.7-5.4,9.3c-3.1,1.7-5.5,0.3-5.5-3.1
						C78.5,329.4,80.9,325.3,84,323.4z"/>
				</g>
				<g>
					<path class="st6" d="M83.8,306.4c3.1-1.7,5.5-0.3,5.5,3.1s-2.5,7.7-5.4,9.3c-3.1,1.7-5.5,0.3-5.5-3.1
						C78.5,312.4,80.9,308.3,83.8,306.4z"/>
				</g>
				<g>
					<path class="st5" d="M70.5,309.4l100-57.7l0.2,39.8l-100,57.7L70.5,309.4z M150.9,281.9v-13.5l-11.8,6.7v13.5L150.9,281.9
						L150.9,281.9z M110,321.5V308l-11.8,6.7v13.5L110,321.5L110,321.5z M109.9,305.7v-13.5l-11.8,6.7v13.5L109.9,305.7L109.9,305.7
						z M123.6,313.6v-13.5l-11.8,6.7v13.5L123.6,313.6L123.6,313.6z M123.6,297.7v-13.5l-11.8,6.7v13.5L123.6,297.7L123.6,297.7z
						 M151.1,297.9v-13.5l-11.8,6.7v13.5L151.1,297.9L151.1,297.9z M164.7,289.9v-13.5l-11.8,6.7v13.5L164.7,289.9L164.7,289.9z
						 M164.7,274.1v-13.5l-11.8,6.7v13.5L164.7,274.1L164.7,274.1z M137.3,305.7v-13.5l-11.8,6.7v13.5L137.3,305.7L137.3,305.7z
						 M137.3,289.9v-13.5l-11.8,6.7v13.5L137.3,289.9L137.3,289.9z M84,336c3.1-1.7,5.5-6,5.4-9.3c0-3.5-2.5-4.9-5.5-3.1
						c-3.1,1.7-5.5,6-5.4,9.3C78.5,336.3,80.9,337.7,84,336L84,336z M84,319c3.1-1.7,5.5-6,5.4-9.3c0-3.5-2.5-4.9-5.5-3.1
						c-3.1,1.7-5.5,6-5.4,9.3C78.5,319.3,80.9,320.8,84,319L84,319z"/>
				</g>
			</g>
			<g>
				<polygon class="st0" points="164.5,260.7 164.7,274.1 152.9,280.9 152.9,267.4 				"/>
			</g>
			<g>
				<polygon class="st0" points="110.2,397 110.2,410.6 98.5,417.3 98.4,403.8 				"/>
			</g>
			<g>
				<polygon class="st0" points="110.2,381.2 110.2,394.7 98.4,401.6 98.4,388.1 				"/>
			</g>
			<g>
				<polygon class="st0" points="123.9,433.7 123.9,447.2 112.3,453.9 112.2,440.5 				"/>
			</g>
			<g>
				<polygon class="st0" points="123.9,417.9 123.9,431.4 112.2,438.2 112.2,424.7 				"/>
			</g>
		</g>
	</g>
	<g>
		<polygon class="st0" points="737.5,240 683.6,208.6 570.8,273.8 571.4,515.4 625.3,546.6 738.3,481.4 		"/>
		<g>
			<g class="st1">
				<g>
					<polygon class="st2" points="625.3,546.6 571.4,515.4 570.8,273.8 624.7,305.1 					"/>
				</g>
				<g>
					<polygon class="st3" points="624.7,305.1 570.8,273.8 683.6,208.6 737.5,240 					"/>
				</g>
				<g>
					<polygon class="st0" points="737.5,240 738.3,481.4 625.3,546.6 624.7,305.1 					"/>
				</g>
			</g>
		</g>
		<g>
			<g>
				<polygon class="st0" points="711.5,284.6 711.7,298.2 699.9,304.9 699.9,291.5 				"/>
			</g>
			<g>
				<polygon class="st0" points="711.7,329.1 711.7,342.6 700,349.5 699.9,336 				"/>
			</g>
			<g>
				<polygon class="st0" points="711.7,313.4 711.7,326.8 699.9,333.7 699.9,320.1 				"/>
			</g>
			<g>
				<polygon class="st0" points="725.3,305.4 725.3,319 713.6,325.8 713.5,312.3 				"/>
			</g>
			<g>
				<polygon class="st0" points="725.4,350 725.4,363.4 713.6,370.3 713.6,356.7 				"/>
			</g>
			<g>
				<polygon class="st0" points="698.3,426.1 698.3,439.6 686.5,446.4 686.5,433 				"/>
			</g>
			<g>
				<polygon class="st0" points="698.2,410.3 698.2,423.8 686.5,430.7 686.4,417 				"/>
			</g>
			<g>
				<polygon class="st0" points="725.6,410.3 725.6,423.8 714,430.7 713.8,417 				"/>
			</g>
			<g>
				<polygon class="st0" points="725.6,394.5 725.6,408 713.8,414.7 713.8,401.3 				"/>
			</g>
			<g>
				<polygon class="st0" points="670.9,441.8 670.9,455.5 659.1,462.2 659.1,448.7 				"/>
			</g>
			<g class="st1">
				<g>
					<polygon class="st0" points="712,418.3 712,431.7 700.2,438.5 700.2,425 					"/>
				</g>
				<g>
					<polygon class="st0" points="712,402.3 712,416 700.2,422.7 700.2,409.2 					"/>
				</g>
				<g>
					<polygon class="st0" points="684.4,373.7 684.4,387.2 672.8,393.9 672.6,380.4 					"/>
				</g>
				<g>
					<path class="st4" d="M644.7,412.9c3.1-1.7,5.5-0.3,5.5,3.1c0,3.5-2.5,7.7-5.4,9.3c-3.1,1.7-5.5,0.3-5.5-3.1
						C639.4,418.9,641.8,414.6,644.7,412.9z"/>
				</g>
				<g>
					<polygon class="st5" points="731.6,429.4 731.7,471.1 631.7,528.8 631.6,487.2 					"/>
				</g>
				<g>
					<path class="st6" d="M644.9,440.5c3.1-1.7,5.5-0.3,5.5,3.1s-2.5,7.7-5.4,9.3c-3.1,1.7-5.5,0.3-5.5-3.1
						C639.4,446.4,641.8,442.2,644.9,440.5z"/>
				</g>
				<g>
					<path class="st5" d="M631.4,443.2l100-57.7l0.2,39.8l-100,57.7L631.4,443.2z M684.5,431.7v-13.5l-11.8,6.7v13.5L684.5,431.7
						L684.5,431.7z M670.9,439.6v-13.5l-11.8,6.7v13.5L670.9,439.6L670.9,439.6z M712,416v-13.5l-11.8,6.7v13.5L712,416L712,416z
						 M725.6,408v-13.5l-11.8,6.7v13.5L725.6,408L725.6,408z M698.2,423.8v-13.5l-11.8,6.7v13.5L698.2,423.8L698.2,423.8z
						 M725.6,423.8v-13.5l-11.8,6.7v13.5L725.6,423.8L725.6,423.8z M684.5,447.5V434l-11.8,6.7v13.5L684.5,447.5L684.5,447.5z
						 M712,431.7v-13.5l-11.8,6.7v13.5L712,431.7L712,431.7z M670.9,455.5V442l-11.8,6.7v13.5L670.9,455.5L670.9,455.5z
						 M698.3,439.6v-13.5l-11.8,6.7v13.5L698.3,439.6L698.3,439.6z M644.9,469.9c3.1-1.7,5.5-6,5.4-9.3c0-3.4-2.5-4.9-5.5-3.1
						c-3.1,1.7-5.5,6-5.4,9.3C639.5,470.2,642,471.7,644.9,469.9L644.9,469.9z M644.9,453c3.1-1.7,5.5-6,5.4-9.3
						c0-3.4-2.5-4.9-5.5-3.1c-3.1,1.7-5.5,6-5.4,9.3C639.4,453.3,642,454.7,644.9,453L644.9,453z"/>
				</g>
				<g>
					<path class="st6" d="M644.7,395.9c3.1-1.7,5.5-0.3,5.5,3.1c0,3.5-2.5,7.7-5.4,9.3c-3.1,1.7-5.5,0.3-5.5-3.1
						C639.2,401.9,641.7,397.6,644.7,395.9z"/>
				</g>
				<g>
					<path class="st5" d="M631.4,398.7l100-57.7l0.2,39.8l-100,57.7L631.4,398.7z M684.5,402.9v-13.5l-11.8,6.7v13.5L684.5,402.9
						L684.5,402.9z M670.8,410.9v-13.5l-11.8,6.7v13.5L670.8,410.9L670.8,410.9z M725.6,379.2v-13.5l-11.8,6.7v13.5L725.6,379.2
						L725.6,379.2z M711.8,387.2v-13.5l-11.8,6.7v13.5L711.8,387.2L711.8,387.2z M698.2,395.1v-13.5l-11.8,6.7v13.5L698.2,395.1
						L698.2,395.1z M684.4,387.2v-13.5l-11.8,6.7v13.5L684.4,387.2L684.4,387.2z M670.8,395v-13.5l-11.8,6.7v13.5L670.8,395
						L670.8,395z M711.8,371.4v-13.5l-11.8,6.7v13.5L711.8,371.4L711.8,371.4z M725.4,363.4V350l-11.8,6.7v13.5L725.4,363.4
						L725.4,363.4z M698.2,379.2v-13.5l-11.8,6.7v13.5L698.2,379.2L698.2,379.2z M644.7,408.5c3.1-1.7,5.5-6,5.4-9.3
						c0-3.4-2.5-4.7-5.5-3.1c-3.1,1.7-5.5,6-5.4,9.3C639.4,408.8,641.8,410.1,644.7,408.5L644.7,408.5z M644.9,425.3
						c3.1-1.7,5.5-6,5.4-9.3c0-3.4-2.5-4.7-5.5-3.1c-3.1,1.7-5.5,6-5.4,9.3C639.4,425.8,641.8,427.1,644.9,425.3L644.9,425.3z"/>
				</g>
				<g>
					<polygon class="st0" points="725.4,365.7 725.6,379.2 713.8,386.1 713.6,372.6 					"/>
				</g>
				<g>
					<polygon class="st0" points="711.8,373.7 711.8,387.2 700,393.9 700,380.4 					"/>
				</g>
				<g>
					<polygon class="st0" points="698.2,381.5 698.2,395.1 686.4,401.9 686.4,388.4 					"/>
				</g>
				<g>
					<polygon class="st0" points="711.8,357.9 711.8,371.4 700,378.1 700,364.7 					"/>
				</g>
				<g>
					<polygon class="st0" points="670.9,426.1 670.9,439.6 659.1,446.4 659.1,432.8 					"/>
				</g>
				<g>
					<path class="st4" d="M644.9,457.5c3.1-1.7,5.5-0.3,5.5,3.1c0,3.4-2.5,7.7-5.4,9.3c-3.1,1.7-5.5,0.3-5.5-3.1
						C639.5,463.3,642,459.2,644.9,457.5z"/>
				</g>
				<g>
					<polygon class="st0" points="684.4,344.9 684.4,358.4 672.6,365.3 672.6,351.8 					"/>
				</g>
				<g>
					<polygon class="st0" points="670.6,336.9 670.6,350.6 658.8,357.3 658.8,343.8 					"/>
				</g>
				<g>
					<path class="st4" d="M644.7,368.3c3.1-1.7,5.5-0.3,5.5,3.1s-2.5,7.7-5.4,9.3c-3.1,1.7-5.5,0.3-5.5-3.1
						C639.2,374.3,641.7,370,644.7,368.3z"/>
				</g>
				<g>
					<path class="st5" d="M631.3,354.2l100-57.7l0.2,39.8l-100.2,57.6V354.2z M684.4,342.6v-13.5l-11.8,6.7v13.5L684.4,342.6
						L684.4,342.6z M670.6,350.6v-13.5l-11.8,6.7v13.5L670.6,350.6L670.6,350.6z M711.7,326.8v-13.5l-11.8,6.7v13.5L711.7,326.8
						L711.7,326.8z M725.3,319v-13.5l-11.8,6.7v13.5L725.3,319L725.3,319z M698,334.8v-13.5l-11.8,6.7v13.5L698,334.8L698,334.8z
						 M725.4,334.8v-13.5l-11.8,6.7v13.5L725.4,334.8L725.4,334.8z M684.4,358.4v-13.5l-11.8,6.7v13.5L684.4,358.4L684.4,358.4z
						 M711.7,342.6v-13.5l-11.8,6.7v13.5L711.7,342.6L711.7,342.6z M670.8,366.3v-13.5l-11.8,6.7v13.5L670.8,366.3L670.8,366.3z
						 M698,350.6v-13.5l-11.8,6.7v13.5L698,350.6L698,350.6z M644.7,380.9c3.1-1.7,5.5-6,5.4-9.3c0-3.5-2.5-4.9-5.5-3.1
						c-3.1,1.7-5.5,6-5.4,9.3C639.2,381.2,641.7,382.6,644.7,380.9L644.7,380.9z M644.6,363.9c3.1-1.7,5.5-6,5.4-9.3
						c0-3.5-2.5-4.9-5.5-3.1c-3.1,1.7-5.5,6-5.4,9.3C639.2,364.2,641.7,365.6,644.6,363.9L644.6,363.9z"/>
				</g>
				<g>
					<polygon class="st0" points="725.3,321.3 725.4,334.8 713.6,341.5 713.6,328.1 					"/>
				</g>
				<g>
					<polygon class="st0" points="684.4,389.5 684.5,402.9 672.8,409.7 672.8,396.2 					"/>
				</g>
				<g>
					<polygon class="st0" points="698,365.7 698.2,379.2 686.4,386.1 686.4,372.5 					"/>
				</g>
				<g>
					<polygon class="st0" points="698,337.1 698,350.6 686.2,357.3 686.2,343.8 					"/>
				</g>
				<g>
					<polygon class="st0" points="725.3,276.8 725.3,290.2 713.5,297 713.5,283.5 					"/>
				</g>
				<g>
					<polygon class="st0" points="698,321.2 698,334.8 686.2,341.5 686.2,328.1 					"/>
				</g>
				<g>
					<polygon class="st0" points="670.6,352.9 670.8,366.3 659,373.1 659,359.6 					"/>
				</g>
				<g>
					<polygon class="st0" points="684.2,329.1 684.4,342.6 672.6,349.5 672.6,335.9 					"/>
				</g>
				<g>
					<polygon class="st0" points="697.9,292.5 697.9,306 686.2,312.7 686.1,299.3 					"/>
				</g>
				<g>
					<polygon class="st0" points="711.5,268.8 711.5,282.3 699.7,289.2 699.7,275.5 					"/>
				</g>
				<g>
					<polygon class="st0" points="684.2,300.3 684.2,314 672.5,320.7 672.5,307.2 					"/>
				</g>
				<g>
					<polygon class="st0" points="697.9,276.8 697.9,290.2 686.1,297 686.1,283.5 					"/>
				</g>
				<g>
					<path class="st6" d="M644.6,351.3c3.1-1.7,5.5-0.3,5.5,3.1s-2.5,7.7-5.4,9.3c-3.1,1.7-5.5,0.3-5.5-3.1S641.7,353.2,644.6,351.3
						z"/>
				</g>
				<g>
					<polygon class="st0" points="670.5,308.3 670.6,321.8 658.8,328.7 658.8,315 					"/>
				</g>
				<g>
					<polygon class="st0" points="684.1,284.6 684.2,298 672.5,304.9 672.5,291.5 					"/>
				</g>
				<g>
					<polygon class="st0" points="670.5,292.5 670.5,306 658.8,312.7 658.7,299.3 					"/>
				</g>
				<g>
					<path class="st4" d="M644.6,323.8c3.1-1.7,5.5-0.3,5.5,3.1s-2.5,7.7-5.4,9.3c-3.1,1.7-5.5,0.3-5.5-3.1
						C639.1,329.7,641.5,325.6,644.6,323.8z"/>
				</g>
				<g>
					<path class="st6" d="M644.4,306.8c3.1-1.7,5.5-0.3,5.5,3.1c0,3.4-2.5,7.7-5.4,9.3c-3.1,1.7-5.5,0.3-5.5-3.1
						S641.5,308.6,644.4,306.8z"/>
				</g>
				<g>
					<path class="st5" d="M631.1,309.7l100-57.7l0.2,39.8l-100,57.7L631.1,309.7z M711.5,282.3v-13.5l-11.8,6.7V289L711.5,282.3
						L711.5,282.3z M670.6,321.8v-13.5l-11.8,6.7v13.5L670.6,321.8L670.6,321.8z M670.5,306v-13.5l-11.8,6.7v13.5L670.5,306
						L670.5,306z M684.2,314v-13.5l-11.8,6.7v13.5L684.2,314L684.2,314z M684.2,298v-13.5l-11.8,6.7v13.5L684.2,298L684.2,298z
						 M711.7,298.2v-13.5l-11.8,6.7v13.5L711.7,298.2L711.7,298.2z M725.3,290.2v-13.5l-11.8,6.7V297L725.3,290.2L725.3,290.2z
						 M725.3,274.5V261l-11.8,6.7v13.5L725.3,274.5L725.3,274.5z M697.9,306v-13.5l-11.8,6.7v13.5L697.9,306L697.9,306z
						 M697.9,290.2v-13.5l-11.8,6.7V297L697.9,290.2L697.9,290.2z M644.6,336.3c3.1-1.7,5.5-6,5.4-9.3c0-3.5-2.5-4.9-5.5-3.1
						c-3.1,1.7-5.5,6-5.4,9.3C639.1,336.6,641.5,338,644.6,336.3L644.6,336.3z M644.6,319.3c3.1-1.7,5.5-6,5.4-9.3
						c0-3.5-2.5-4.9-5.5-3.1c-3.1,1.7-5.5,6-5.4,9.3C639.1,319.6,641.5,321.2,644.6,319.3L644.6,319.3z"/>
				</g>
			</g>
			<g>
				<polygon class="st0" points="725.1,261 725.3,274.5 713.5,281.2 713.5,267.7 				"/>
			</g>
			<g>
				<polygon class="st0" points="670.8,397.3 670.8,410.9 659.1,417.7 659,404.2 				"/>
			</g>
			<g>
				<polygon class="st0" points="670.8,381.5 670.8,395 659,401.9 659,388.4 				"/>
			</g>
			<g>
				<polygon class="st0" points="684.5,434 684.5,447.5 672.9,454.3 672.8,440.8 				"/>
			</g>
			<g>
				<polygon class="st0" points="684.5,418.3 684.5,431.7 672.8,438.5 672.8,425 				"/>
			</g>
		</g>
	</g>
</g>
</svg>
