<svg xmlns="http://www.w3.org/2000/svg" xmlns:xlink="http://www.w3.org/1999/xlink" id="Layer_1" viewBox="0 0 454 441"><style>.st2{fill:#fff}.st11,.st6{fill:#fff;stroke:#2518a0;stroke-width:.75;stroke-miterlimit:10}.st11{stroke:#004a5f;stroke-width:.25}.st12{fill:#463e75}.st14{opacity:.8;fill:#818181;enable-background:new}.st15{font-family:&apos;OpenSans-Light&apos;}.st16{font-size:24px}.st17{letter-spacing:.9}</style><circle cx="205.5" cy="229.5" r="62.5" fill="#004a5f"/><circle cx="52" cy="227" r="35" fill="#51bc0c"/><path d="M39.8 213.3c-1.6 0-2.9 1.3-2.9 2.9 0 1.6 1.3 2.9 2.9 2.9 1.6 0 2.9-1.3 2.9-2.9 0-1.6-1.3-2.9-2.9-2.9zm0 4.5c-.9 0-1.6-.7-1.6-1.6 0-.9.7-1.6 1.6-1.6.9 0 1.6.7 1.6 1.6 0 .9-.7 1.6-1.6 1.6z" class="st2"/><circle cx="65.1" cy="215.3" r=".6" class="st2"/><circle cx="62.5" cy="215.3" r=".6" class="st2"/><circle cx="66.4" cy="217.2" r=".6" class="st2"/><circle cx="63.8" cy="217.2" r=".6" class="st2"/><circle cx="60" cy="215.3" r=".6" class="st2"/><circle cx="61.2" cy="217.2" r=".6" class="st2"/><circle cx="57.4" cy="215.3" r=".6" class="st2"/><circle cx="58.7" cy="217.2" r=".6" class="st2"/><circle cx="54.8" cy="215.3" r=".6" class="st2"/><circle cx="56.1" cy="217.2" r=".6" class="st2"/><path d="M71.5 220v-7.5c0-1.6-1.3-2.9-2.9-2.9H36c-1.6 0-2.9 1.3-2.9 2.9v7.5c0 .9.4 1.8 1.1 2.3-.7.5-1.1 1.4-1.1 2.3v7.5c0 1.6 1.3 2.9 2.9 2.9h15.6v5.2c-1.3.3-2.2 1.2-2.5 2.5H33.7c-.4 0-.6.3-.6.6s.3.6.6.6h15.4c.3 1.5 1.6 2.6 3.1 2.6s2.8-1.1 3.1-2.6h15.4c.4 0 .6-.3.6-.6s-.3-.6-.6-.6H55.4c-.3-1.3-1.2-2.2-2.5-2.5V235h15.6c1.6 0 2.9-1.3 2.9-2.9v-7.5c0-.9-.4-1.8-1.1-2.3.7-.5 1.2-1.4 1.2-2.3zm-17.3 23.4c0 1.1-.9 1.9-1.9 1.9-1.1 0-1.9-.9-1.9-1.9 0-1.1.9-1.9 1.9-1.9s1.9.8 1.9 1.9zm16-18.8v7.5c0 .9-.7 1.7-1.7 1.7H36c-.9 0-1.7-.7-1.7-1.7v-7.5c0-.9.7-1.7 1.7-1.7h32.5c1 0 1.7.8 1.7 1.7zM36 221.7c-.9 0-1.7-.7-1.7-1.7v-7.5c0-.9.7-1.7 1.7-1.7h32.5c.9 0 1.7.7 1.7 1.7v7.5c0 .9-.7 1.7-1.7 1.7H36z" class="st2"/><path d="M39.8 231.2c1.6 0 2.9-1.3 2.9-2.9s-1.3-2.9-2.9-2.9c-1.6 0-2.9 1.3-2.9 2.9s1.3 2.9 2.9 2.9zm0-4.4c.9 0 1.6.7 1.6 1.6s-.7 1.6-1.6 1.6c-.9 0-1.6-.7-1.6-1.6s.7-1.6 1.6-1.6z" class="st2"/><circle cx="65.1" cy="227.4" r=".6" class="st2"/><circle cx="62.5" cy="227.4" r=".6" class="st2"/><circle cx="66.4" cy="229.3" r=".6" class="st2"/><circle cx="63.8" cy="229.3" r=".6" class="st2"/><circle cx="60" cy="227.4" r=".6" class="st2"/><circle cx="61.2" cy="229.3" r=".6" class="st2"/><circle cx="57.4" cy="227.4" r=".6" class="st2"/><circle cx="58.7" cy="229.3" r=".6" class="st2"/><circle cx="54.8" cy="227.4" r=".6" class="st2"/><circle cx="56.1" cy="229.3" r=".6" class="st2"/><circle cx="63" cy="390" r="35" fill="#f33"/><path d="M79 377.3c-.8-2.8-6.4-5.6-16.3-5.6s-15.5 2.8-16.3 5.6c-.1.1-.1.2-.1.3v24.1c0 .1 0 .2.1.3.8 3.2 7.7 5.6 16.3 5.6s15.5-2.4 16.3-5.6c.1-.1.1-.2.1-.3v-24c0-.2 0-.3-.1-.4zM77.7 394c0 .1 0 .2-.1.2 0 .1-.1.1-.1.2s-.1.2-.2.2c0 .1-.1.1-.1.2-.1.1-.2.2-.2.3l-.2.2-.3.3c-.1 0-.1.1-.2.1-.1.1-.3.2-.5.3l-.1.1-.6.3H75c-.2.1-.5.2-.8.3-1.5.6-3.4 1.1-5.6 1.4-.4.1-.9.1-1.3.2h-.2c-.4 0-.8.1-1.2.1h-6.2c-.4 0-.8-.1-1.2-.1h-.2c-.5 0-.9-.1-1.3-.2-2.2-.3-4.1-.8-5.6-1.4-.3-.1-.5-.2-.8-.3h-.1l-.6-.3-.1-.1c-.2-.1-.3-.2-.5-.3-.1 0-.1-.1-.2-.1l-.3-.3-.2-.2c-.1-.1-.2-.2-.2-.3-.1-.1-.1-.1-.1-.2-.1-.1-.1-.2-.2-.2 0-.1-.1-.1-.1-.2s-.1-.2-.1-.2c0-.1-.1-.2-.1-.3v-5.4l.1.1c.1.1.3.3.5.4 2.5 1.9 7.4 3.3 14.6 3.3 7.1 0 12.1-1.4 14.5-3.3.2-.1.4-.3.5-.4v5.4c-.2 0-.2.1-.3.2zm.1-13.5v5.4c0 .1 0 .2-.1.3 0 .1 0 .2-.1.2 0 .1-.1.1-.1.2s-.1.2-.2.2c0 .1-.1.1-.1.2-.1.1-.2.2-.2.3l-.2.2-.3.3c-.1 0-.1.1-.2.1-.1.1-.3.2-.5.3l-.1.1-.6.3H75c-.2.1-.5.2-.8.3-1.5.6-3.4 1.1-5.6 1.4-.4.1-.9.1-1.3.2h-.2c-.4 0-.8.1-1.2.1h-6.2c-.4 0-.8-.1-1.2-.1h-.2c-.5 0-.9-.1-1.3-.2-2.2-.3-4.1-.8-5.6-1.4-.3-.1-.5-.2-.8-.3h-.1l-.6-.3-.1-.1c-.2-.1-.3-.2-.5-.3-.1 0-.1-.1-.2-.1l-.3-.3-.2-.2c-.1-.1-.2-.2-.2-.3-.1-.1-.1-.1-.1-.2-.1-.1-.1-.2-.2-.2 0-.1-.1-.1-.1-.2s-.1-.2-.1-.2c0-.1-.1-.2-.1-.3v-5.4c.1.1.2.1.3.2l.1.1c.2.2.4.3.6.5 0 0 .1.1.2.1.2.1.4.2.6.4.1 0 .2.1.2.1.2.1.5.2.8.4 0 0 .1 0 .1.1.3.1.6.3 1 .4.1 0 .2.1.3.1.3.1.5.2.8.3.1 0 .2.1.3.1l1.2.3h.2c.4.1.7.2 1.1.2.1 0 .3 0 .4.1.4.1.8.1 1.1.2h.3c.5.1 1 .1 1.5.2h.4c.4 0 .8.1 1.3.1H65c.4 0 .9 0 1.3-.1h.4c.5 0 1-.1 1.5-.2h.3c.4-.1.8-.1 1.1-.2.1 0 .3 0 .4-.1.4-.1.8-.1 1.1-.2h.2l1.2-.3c.1 0 .2-.1.3-.1.3-.1.6-.2.8-.3.1 0 .2-.1.3-.1.3-.1.7-.2 1-.4 0 0 .1 0 .1-.1.3-.1.5-.2.8-.4.1 0 .2-.1.2-.1.2-.1.4-.2.6-.4 0 0 .1-.1.2-.1.2-.1.4-.3.6-.5l.1-.1c.1-.1.2-.2.3-.2zm-15.1-7.4c8.9 0 15.1 2.6 15.1 4.9s-6.2 4.9-15.1 4.9-15.1-2.6-15.1-4.9c0-2.4 6.2-4.9 15.1-4.9zm15.1 28.6c0 .1 0 .1 0 0-.4 2.4-6.5 4.8-15.1 4.8s-14.7-2.4-15.1-4.7v-5.6l.1.1c.1.1.3.3.5.4 2.5 1.9 7.4 3.3 14.6 3.3 7.1 0 12.1-1.4 14.5-3.3.2-.1.4-.3.5-.4v5.4z" class="st2"/><circle cx="353" cy="184" r="35" fill="#c6c238"/><path d="M369.8 172.7h-34.1c-.4 0-.7.3-.7.7v21.8c0 .4.3.7.7.7h34.1c.4 0 .7-.3.7-.7v-21.8c0-.4-.3-.7-.7-.7zm-2.7 1.4l-14.4 8.6-14.4-8.6h28.8zm1.9 20.4h-32.7v-19.8l10.9 6.5-7.8 6.2.9 1.1 8.2-6.5 3.7 2.2c.1.1.2.1.4.1s.3 0 .4-.1l3.7-2.2 8.2 6.5.9-1.1-7.8-6.2 10.9-6.5.1 19.8z" class="st2"/><circle cx="251" cy="366" r="35" fill="#2518a0"/><path d="M267.2 363.2l-1.9-.4c-.9-.2-1.6-.7-1.9-1.6-.3-.8-.2-1.7.3-2.4l1.2-1.6c.4-.5.3-1.2-.1-1.7l-2.5-2.5c-.4-.4-1.1-.5-1.6-.2l-1.6 1.1c-.7.5-1.6.6-2.4.2-.8-.4-1.4-1.1-1.5-1.9l-.3-2c-.1-.6-.6-1.1-1.3-1.1H250c-.6 0-1.2.4-1.3 1l-.5 2.4c-.2.9-.7 1.5-1.5 1.9-.8.3-1.7.2-2.4-.2l-2-1.4c-.5-.3-1.2-.3-1.6.2l-2.5 2.5c-.5.5-.5 1.2-.1 1.7l1.2 1.6c.5.7.6 1.6.3 2.4s-1 1.4-1.9 1.6l-1.9.4c-.6.1-1 .6-1 1.3v3.6c0 .6.5 1.2 1.1 1.3l2 .3c.9.1 1.6.7 1.9 1.5.4.8.3 1.7-.2 2.4l-1.1 1.6c-.3.5-.3 1.2.2 1.6l2.5 2.5c.4.4 1.2.5 1.7.1l1.6-1.2c.7-.5 1.6-.6 2.4-.3.8.3 1.4 1 1.6 1.9l.4 1.9c.1.6.6 1 1.3 1h3.6c.6 0 1.2-.5 1.3-1.1l.2-1.4c.1-.9.7-1.6 1.5-2 .8-.3 1.8-.2 2.5.3l1.1.8c.5.4 1.2.3 1.7-.1l2.5-2.5c.4-.4.5-1.1.2-1.6l-1.1-1.6c-.5-.7-.6-1.6-.2-2.4s1.1-1.4 1.9-1.5l2-.3c.6-.1 1.1-.6 1.1-1.3v-3.6c-.2-.5-.7-1-1.3-1.2zm-1.5 3.8l-.9.1c-1.8.3-3.2 1.4-3.9 3-.7 1.6-.5 3.5.5 4.9l.5.7-1 1-.2-.2c-1.5-1.1-3.3-1.3-5-.6-1.7.7-2.8 2.2-3.1 4v.3H251l-.2-.8c-.3-1.7-1.5-3.2-3.2-3.8-1.6-.6-3.5-.4-4.9.6l-.7.5-1-1 .5-.7c1-1.5 1.2-3.3.5-4.9s-2.2-2.8-3.9-3l-.9-.1v-1.4l.8-.2c1.7-.3 3.2-1.5 3.8-3.2.6-1.6.4-3.5-.6-4.9l-.5-.7 1-1 1.1.8c1.4 1 3.2 1.2 4.8.5s2.7-2.1 3.1-3.8l.3-1.4h1.4l.1.9c.3 1.8 1.4 3.2 3 3.9 1.6.7 3.5.5 4.9-.5l.7-.5 1 1-.5.7c-1 1.4-1.3 3.3-.6 4.9.6 1.6 2.1 2.8 3.8 3.2l.8.2.1 1.5z" class="st6"/><path d="M251.4 359.5c-3.6 0-6.5 2.9-6.5 6.5s2.9 6.5 6.5 6.5 6.5-2.9 6.5-6.5-2.9-6.5-6.5-6.5zm0 10.4c-2.1 0-3.9-1.7-3.9-3.9s1.7-3.9 3.9-3.9 3.9 1.7 3.9 3.9-1.7 3.9-3.9 3.9z" class="st6"/><circle cx="70" cy="92" r="35" fill="#578ae5"/><path fill="#fff" stroke="#578ae5" stroke-miterlimit="10" stroke-width=".75" d="M84.3 88.6c-.6-5.6-5.8-9.9-11.9-9.9-3.8 0-7.5 1.7-9.7 4.6-.4-.1-.9-.1-1.3-.1-3.5 0-6.6 2.1-7.6 5.2-2.9 1.5-4.7 4.4-4.7 7.5 0 4.8 4.2 8.6 9.3 8.6h23.2c4.8 0 8.8-3.6 8.8-8.1-.1-3.6-2.6-6.7-6.1-7.8zm-2.8 13.2H58.3c-3.5 0-6.3-2.7-6.3-5.9 0-2.3 1.4-4.4 3.6-5.3l.7-.3.2-.6c.5-2.1 2.5-3.6 4.8-3.6.5 0 1 .1 1.5.2l1.2.4.6-1c1.6-2.6 4.5-4.1 7.7-4.1 4.9 0 8.9 3.7 9 8.3V91l1.2.2c2.7.5 4.7 2.7 4.7 5.3.1 2.8-2.5 5.3-5.7 5.3z" opacity=".9"/><circle cx="399" cy="308" r="35" fill="#818181"/><g opacity=".9"><path d="M385.9 319.1c0 .6-.5 1.1-1.1 1.1h-2.3c-.6 0-1.1-.5-1.1-1.1s.5-1.1 1.1-1.1h2.3c.6 0 1.1.5 1.1 1.1zm30.6 0c0 .6-.5 1.1-1.1 1.1h-2.3c-.6 0-1.1-.5-1.1-1.1s.5-1.1 1.1-1.1h2.3c.6 0 1.1.5 1.1 1.1zm-28.4-10.9c.2.3.6.3.8.1.3-.2.3-.6.1-.8l-8.5-12.1c-.2-.3-.6-.3-.8-.1-.3.2-.3.6-.1.8l8.5 12.1zm21.8 0c-.2.3-.6.3-.8.1-.3-.2-.3-.6-.1-.8l8.5-12.1c.2-.3.6-.3.8-.1.3.2.3.6.1.8l-8.5 12.1z" class="st11"/><path d="M381 307.7h36c1.3 0 2.3 1 2.3 2.3v6.7c0 1.3-1 2.3-2.3 2.3h-36c-1.3 0-2.3-1-2.3-2.3V310c0-1.3 1-2.3 2.3-2.3z" class="st11"/></g><circle cx="327" cy="54" r="35" class="st12"/><path fill="#fff" d="M347.8 58L331 74.8c-2.2 2.2-5.7 2.2-7.9 0L306.2 58c-2.2-2.2-2.2-5.7 0-7.9L323 33.2c2.2-2.2 5.7-2.2 7.9 0L347.8 50c2.2 2.2 2.2 5.8 0 8z" opacity=".7"/><path d="M314.1 61H312V49h7.4v1.7h-5.3v3.7h5v1.7h-5V61zm14.1 0H326V50.7h-3.9V49h9.9v1.7h-3.9V61h.1zm15.5-8.4c0 1.3-.5 2.2-1.4 2.9s-2.2 1-3.9 1H337V61h-2V49h3.8c1.6 0 2.9.3 3.7.9.8.6 1.2 1.5 1.2 2.7zm-6.5 2.3h1.1c1.1 0 1.9-.2 2.4-.5s.8-.9.8-1.6c0-.7-.2-1.2-.7-1.5s-1.2-.5-2.2-.5h-1.5v4.1h.1z" class="st12"/><text class="st14 st15 st16 st17" transform="matrix(1.1 0 0 1 97.7627 228.5313)">....</text><text class="st14 st15 st16 st17" transform="matrix(1.0534 -.3168 .288 .9576 278.3842 206.562)">....</text><text transform="matrix(.3342 1.048 -.9527 .3038 226.5387 300.6406)" class="st14 st15 st17" font-size="23.9992">...</text><text class="st14 st15 st16 st17" transform="matrix(1.0038 .4498 -.4089 .9126 279.2608 262.858)">.........</text><text class="st14 st15 st16 st17" transform="matrix(.7512 .8035 -.7305 .6829 100.7331 128.4152)">........</text><text class="st14 st15 st16 st17" transform="matrix(-.6508 .8869 -.8062 -.5916 295.8129 92.9754)">..........</text><text class="st14 st15 st16 st17" transform="matrix(.7478 -.8067 .7333 .6799 94.3833 350.9309)">..........</text><g id="Layer_2"><path d="M184.3 208.6h42.3v42.3h-42.3z" class="st2"/></g><g><defs><path id="SVGID_1_" d="M185.7 220.6V232l14-9.1v23.6l5.5 3.2 5.5-3.2V223l14 9.1v-11.4l-19.5-12.2-19.5 12.1zm19.6-25l29.8 17.2v34.4l-29.8 17.2-29.8-17.2v-34.4l29.8-17.2z"/></defs><clipPath id="SVGID_2_"><use overflow="visible" xlink:href="#SVGID_1_"/></clipPath><g clip-path="url(#SVGID_2_)"><defs><path id="SVGID_3_" d="M110.7 47.3h665.2v374.2H110.7z"/></defs><clipPath id="SVGID_4_"><use overflow="visible" xlink:href="#SVGID_3_"/></clipPath><path fill="#13d389" d="M173.8 193.8h63v72.3h-63z" clip-path="url(#SVGID_4_)"/></g></g></svg>