<svg xmlns="http://www.w3.org/2000/svg" id="Layer_1" viewBox="0 0 300 300"><style>.st0{fill:#c22133}.st1{fill:#db212e}.st2{fill:#eb2126}.st3{fill:#ad213b}.st4{fill:#ba2133}.st5{fill:#241f21}</style><path id="path44560" d="M248.6 72.4c-2.2-4.6-4.8-9-7.8-13.2L209 70.8c3.7 3.8 6.8 8 9.4 12.6l30.2-11zM108 107.6l-31.8 11.6c.4 5.1 1.3 10.1 2.5 15.1l30.2-11c-1-5.1-1.3-10.4-.9-15.7" class="st0"/><path id="path44564" d="M178.6 63.4c6.6 3.1 12.4 7.3 17.2 12.2L227.6 64c-8.8-12.4-20.8-22.7-35.5-29.6-45.5-21.2-99.8-1.5-121 44-6.9 14.7-9.4 30.4-8.2 45.5l31.8-11.6c.5-6.9 2.2-13.8 5.3-20.4 13.8-29.4 49.1-42.2 78.6-28.5" class="st1"/><path id="path44572" d="M212.6 121.6c-.5 6.9-2.2 13.8-5.3 20.4-13.8 29.6-49 42.4-78.6 28.6-6.6-3.1-12.4-7.3-17.2-12.2L79.6 170c8.8 12.4 20.8 22.7 35.5 29.6 45.5 21.2 99.8 1.5 121-44 6.9-14.7 9.4-30.3 8.2-45.5l-31.7 11.5z" class="st1"/><path id="path44576" d="M220.4 82.7l-30.2 11c5.6 10.1 8.3 21.6 7.4 33.3l31.8-11.6c-1-11.3-4-22.4-9-32.7M80.7 133.6l-30.2 11c2.8 11 7.6 21.5 14.2 30.8l31.8-11.6c-8.3-8.3-13.7-18.9-15.8-30.2" class="st2"/><path id="path44584" d="M244 64.1c-1-1.6-2-3.2-3.2-4.8L209 70.9c1.4 1.4 2.7 3 3.9 4.5L244 64.1zM107.9 114c-.1-2.1 0-4.3.1-6.4l-31.8 11.6c.2 2 .4 4.1.7 6.1l31-11.3z" class="st3"/><path id="path44588" d="M244.3 110l-31.8 11.6c-.3 4.6-1.2 9.2-2.7 13.7l34.6-12.6c.3-4.3.3-8.5-.1-12.7M79.7 170c2.4 3.4 5.2 6.7 8.1 9.8l34.6-12.6c-4-2.5-7.7-5.5-10.9-8.8L79.7 170z" class="st4"/><path id="path44622" d="M242.7 237.3v2.9h8.3v25.4h3.1v-25.4h8.3v-2.9h-19.7zm-19.1 2.9v9.4h7.7v2.9h-7.7v13.2h-3.1v-28.3H237v2.9l-13.4-.1zm-14.4-2.9h3.1v28.3h-3.1v-28.3zm-11.3 28.3v-13.3h-14.1v13.3h-3.1v-28.3h3.1v12.1h14.1v-12.1h3.1v28.3h-3.1zm-33.6.4c-3.8 0-7.3-1.7-9.5-3.9l2.1-2.3c2.1 2.1 4.6 3.4 7.5 3.4 3.8 0 6.1-1.9 6.1-4.8 0-2.6-1.6-4.1-6.7-6-6.1-2.2-8.2-4.2-8.2-8.2 0-4.5 3.6-7.2 8.8-7.2 3.8 0 6.2 1.1 8.6 3l-2 2.5c-2.1-1.7-4-2.6-6.8-2.6-3.9 0-5.5 1.9-5.5 4.2 0 2.3 1.1 3.7 6.7 5.7 6.3 2.3 8.2 4.4 8.2 8.6.1 4.2-3.4 7.6-9.3 7.6m-22.2-.4l-10.4-15.4c-.7-1.1-1.6-2.5-2-3.2 0 1.1.1 4.6.1 6.2v12.4h-5.6v-28.3h5.4l10 14.9c.7 1.1 1.6 2.5 2 3.2 0-1.1-.1-4.6-.1-6.2v-11.9h5.6v28.3h-5zm-44.6 0v-28.3h19.6v5.5h-14v4.9h8.1v5.5h-8.1v6.8h14.6v5.5H97.5zm-16-10.1h-6.2v10h-5.7v-28.3H82c5.3 0 9.7 2.9 9.7 9 0 6.6-4.4 9.3-10.2 9.3m.3-12.7h-6.5v7.3h6.6c2.6 0 4-1.2 4-3.7s-1.6-3.6-4.1-3.6M51 266c-7.4 0-12.4-5.4-12.4-14.5s5.1-14.6 12.5-14.6c7.3 0 12.4 5.4 12.4 14.5S58.3 266 51 266m-.1-23.5c-4 0-6.6 3.2-6.6 8.9s2.7 9 6.7 9 6.6-3.2 6.6-8.9c0-5.8-2.7-9-6.7-9" class="st5"/></svg>