<svg xmlns="http://www.w3.org/2000/svg" id="Layer_1" viewBox="0 0 300 300"><style>.st0,.st1,.st3,.st4{fill:#888;stroke:#fff;stroke-miterlimit:10}.st1,.st3,.st4{fill:#dcdcdc}.st3,.st4{fill:#333}.st4{fill:none}</style><path d="M158.2 131.2L66 78.3l49-27.5 94.1 51.5-50.9 28.9z" class="st0"/><path d="M110.4 104.2L66.2 78l54.3-30.7 46.6 24.8-56.7 32.1z" class="st1"/><path fill="#dd4814" stroke="#fff" stroke-miterlimit="10" d="M249.8 125.1l-91.6 52.8V147l91.6-52.8v30.9zm-183.5 0l91.5 52.8V147L66.3 94.2v30.9z"/><path d="M158 131.2L66.3 78.5V94l91.7 52.8v-15.6zm.2 0l46.3-26.6v15.5l-46.3 26.7v-15.6z" class="st0"/><path d="M249.8 79V63.5l-45.2 25.6v31l45.2-25.6V79zm-45.3 10.1L157.9 62v15.6l46.6 27.1V89.1z" class="st3"/><path d="M157.6 62l-45.2-25.7v15.6l45.2 25.7V62zm-91.3.6l46-26.4v15.6l-46 26.4V62.6z" class="st1"/><path d="M111.4 88.4L157.5 62v15.6L111.4 104V88.4z" class="st4"/><path d="M204.8 89l-92.3-52.7 43.3-24.4 94 51.5-45 25.6z" class="st3"/><path d="M111.4 88.6l-45.1-26v15.6l45.1 26V88.6z" class="st4"/><path fill="#394d54" d="M106.3 266v-41.3h8.8v34.1h16.8v7.3h-25.6zm69.1 0h-10l-9.6-15.6-9.6 15.6h-9.3l13.7-21.3-12.8-20h9.7l8.9 14.9 8.8-14.9h9.4l-13 20.5 13.8 20.8zm22.7-34.6c-3.3 0-5.9 1.2-7.7 3.7-1.8 2.5-2.7 6-2.7 10.3 0 9.2 3.5 13.8 10.3 13.8 2.9 0 6.4-.7 10.5-2.1v7.4c-3.4 1.4-7.2 2.1-11.3 2.1-6 0-10.6-1.8-13.8-5.5s-4.8-8.8-4.8-15.7c0-4.3.7-8 2.3-11.3 1.6-3.2 3.8-5.7 6.8-7.4 2.9-1.7 6.4-2.6 10.3-2.6 4.1 0 8 1 12.1 2.9l-2.8 7.1c-1.6-.7-3.1-1.4-4.6-1.9-1.5-.6-3.1-.8-4.6-.8z"/></svg>