<svg xmlns="http://www.w3.org/2000/svg" viewBox="0 0 388.6 167.1"><defs><style>.cls-1{fill:#59a7c6;}.cls-2{fill:#2f5e88;}.cls-3{fill:#387093;}.cls-4{isolation:isolate;}.cls-5{fill:#5c9ba5;}.cls-6{fill:#81b6bf;}.cls-7{fill:#99c2c9;}.cls-8{fill:#b7d6dd;}.cls-9{fill:#a1ccd6;}.cls-10{fill:#d5eff7;}.cls-11{fill:#595a5a;}.cls-12{fill:#a2a2a1;}.cls-13{fill:#919191;}.cls-14{fill:#96d0ed;}.cls-15{fill:#5094b5;}.cls-16{fill:#fff;}.cls-17,.cls-19{fill:#e2ad25;}.cls-18{fill:#ffd075;}.cls-19{stroke:#ffd075;}.cls-19,.cls-22{stroke-miterlimit:10;stroke-width:2px;}.cls-20{fill:#ed2224;}.cls-21{fill:#f48889;}.cls-22{fill:none;stroke:#f48889;}.cls-23{fill:#010101;}</style></defs><title>cpu</title><g id="Laag_2" data-name="Laag 2"><g id="Layer_1" data-name="Layer 1"><polygon class="cls-1" points="118.62 118.42 181.89 81.89 245.16 118.42 181.89 154.95 118.62 118.42"/><polygon class="cls-2" points="118.62 118.42 118.62 121.95 181.89 158.48 181.89 154.95 118.62 118.42"/><polygon class="cls-3" points="245.16 118.42 245.16 121.95 181.89 158.48 181.89 154.95 245.16 118.42"/><g class="cls-4"><polygon class="cls-5" points="177.08 134.14 151.45 119.24 125.8 104.34 125.81 106.21 151.45 121.11 177.09 136.01 177.08 134.14"/><polygon class="cls-6" points="185.99 134.14 185.99 136.01 177.09 136.01 177.08 134.14 185.99 134.14"/><polygon class="cls-7" points="237.6 104.35 211.79 119.24 185.99 134.14 185.99 136.01 211.8 121.11 237.6 106.21 237.6 104.35"/><polygon class="cls-8" points="177.44 69.39 186.34 69.39 211.99 84.29 237.63 99.19 237.6 104.35 211.79 119.24 185.99 134.14 177.08 134.14 151.45 119.24 125.8 104.34 125.83 99.19 151.64 84.29 177.44 69.39"/></g><g class="cls-4"><polygon class="cls-5" points="177.26 115.3 152.63 100.99 127.99 86.67 128 87.04 152.64 101.35 177.27 115.67 177.26 115.3"/><polygon class="cls-6" points="185.82 115.3 185.82 115.67 177.27 115.67 177.26 115.3 185.82 115.3"/><polygon class="cls-9" points="235.41 86.67 210.61 100.99 185.82 115.3 185.82 115.67 210.62 101.35 235.41 87.04 235.41 86.67"/><polygon class="cls-10" points="177.61 53.08 186.16 53.08 210.8 67.4 235.44 81.72 235.41 86.67 210.61 100.99 185.82 115.3 177.26 115.3 152.63 100.99 127.99 86.67 128.02 81.71 152.82 67.4 177.61 53.08"/></g><g class="cls-4"><polygon class="cls-11" points="173.77 157.43 173.19 157.09 173.18 154.11 173.76 154.45 173.77 157.43"/><polygon class="cls-12" points="173.76 154.45 173.18 154.11 175.31 152.88 175.89 153.22 173.76 154.45"/><polygon class="cls-12" points="172.67 158.06 172.09 157.71 173.19 157.09 173.77 157.43 172.67 158.06"/><polygon class="cls-11" points="172.67 158.25 172.09 157.9 172.09 157.71 172.67 158.06 172.67 158.25"/><polygon class="cls-13" points="175.89 153.22 175.9 153.41 173.96 154.53 173.97 157.51 172.67 158.25 172.67 158.06 173.77 157.43 173.76 154.45 175.89 153.22"/></g><g class="cls-4"><polygon class="cls-11" points="172.16 156.51 171.57 156.17 171.57 153.19 172.15 153.53 172.16 156.51"/><polygon class="cls-12" points="172.15 153.53 171.57 153.19 173.7 151.96 174.28 152.3 172.15 153.53"/><polygon class="cls-12" points="171.06 157.14 170.48 156.79 171.57 156.17 172.16 156.51 171.06 157.14"/><polygon class="cls-11" points="171.06 157.33 170.48 156.98 170.48 156.79 171.06 157.14 171.06 157.33"/><polygon class="cls-13" points="174.28 152.3 174.28 152.49 172.35 153.61 172.35 156.59 171.06 157.33 171.06 157.14 172.16 156.51 172.15 153.53 174.28 152.3"/></g><g class="cls-4"><polygon class="cls-11" points="170.55 155.59 169.96 155.25 169.96 152.27 170.54 152.61 170.55 155.59"/><polygon class="cls-12" points="170.54 152.61 169.96 152.27 172.09 151.03 172.67 151.38 170.54 152.61"/><polygon class="cls-12" points="169.45 156.22 168.87 155.87 169.96 155.25 170.55 155.59 169.45 156.22"/><polygon class="cls-11" points="169.45 156.41 168.87 156.06 168.87 155.87 169.45 156.22 169.45 156.41"/><polygon class="cls-13" points="172.67 151.38 172.67 151.57 170.74 152.69 170.74 155.66 169.45 156.41 169.45 156.22 170.55 155.59 170.54 152.61 172.67 151.38"/></g><g class="cls-4"><polygon class="cls-11" points="168.96 154.65 168.38 154.31 168.37 151.32 168.95 151.67 168.96 154.65"/><polygon class="cls-12" points="168.95 151.67 168.37 151.32 170.5 150.09 171.09 150.44 168.95 151.67"/><polygon class="cls-12" points="167.86 155.28 167.28 154.93 168.38 154.31 168.96 154.65 167.86 155.28"/><polygon class="cls-11" points="167.86 155.47 167.28 155.12 167.28 154.93 167.86 155.28 167.86 155.47"/><polygon class="cls-13" points="171.09 150.44 171.09 150.63 169.15 151.75 169.16 154.72 167.86 155.47 167.86 155.28 168.96 154.65 168.95 151.67 171.09 150.44"/></g><g class="cls-4"><polygon class="cls-11" points="167.34 153.74 166.76 153.39 166.75 150.41 167.34 150.76 167.34 153.74"/><polygon class="cls-12" points="167.34 150.76 166.75 150.41 168.89 149.18 169.47 149.53 167.34 150.76"/><polygon class="cls-12" points="166.25 154.37 165.66 154.02 166.76 153.39 167.34 153.74 166.25 154.37"/><polygon class="cls-11" points="166.25 154.55 165.66 154.21 165.66 154.02 166.25 154.37 166.25 154.55"/><polygon class="cls-13" points="169.47 149.53 169.47 149.72 167.53 150.84 167.54 153.81 166.25 154.55 166.25 154.37 167.34 153.74 167.34 150.76 169.47 149.53"/></g><g class="cls-4"><polygon class="cls-11" points="165.74 152.81 165.16 152.47 165.15 149.49 165.74 149.83 165.74 152.81"/><polygon class="cls-12" points="165.74 149.83 165.15 149.49 167.28 148.25 167.87 148.6 165.74 149.83"/><polygon class="cls-12" points="164.65 153.44 164.06 153.09 165.16 152.47 165.74 152.81 164.65 153.44"/><polygon class="cls-11" points="164.65 153.63 164.06 153.28 164.06 153.09 164.65 153.44 164.65 153.63"/><polygon class="cls-13" points="167.87 148.6 167.87 148.79 165.93 149.91 165.94 152.88 164.65 153.63 164.65 153.44 165.74 152.81 165.74 149.83 167.87 148.6"/></g><g class="cls-4"><polygon class="cls-11" points="164.15 151.88 163.56 151.53 163.56 148.55 164.14 148.9 164.15 151.88"/><polygon class="cls-12" points="164.14 148.9 163.56 148.55 165.69 147.32 166.27 147.67 164.14 148.9"/><polygon class="cls-12" points="163.05 152.51 162.47 152.16 163.56 151.53 164.15 151.88 163.05 152.51"/><polygon class="cls-11" points="163.05 152.69 162.47 152.35 162.47 152.16 163.05 152.51 163.05 152.69"/><polygon class="cls-13" points="166.27 147.67 166.27 147.86 164.33 148.98 164.34 151.95 163.05 152.69 163.05 152.51 164.15 151.88 164.14 148.9 166.27 147.67"/></g><g class="cls-4"><polygon class="cls-11" points="162.54 150.96 161.96 150.62 161.95 147.64 162.53 147.98 162.54 150.96"/><polygon class="cls-12" points="162.53 147.98 161.95 147.64 164.08 146.41 164.66 146.75 162.53 147.98"/><polygon class="cls-12" points="161.44 151.59 160.86 151.25 161.96 150.62 162.54 150.96 161.44 151.59"/><polygon class="cls-11" points="161.44 151.78 160.86 151.43 160.86 151.25 161.44 151.59 161.44 151.78"/><polygon class="cls-13" points="164.66 146.75 164.66 146.94 162.73 148.06 162.74 151.04 161.44 151.78 161.44 151.59 162.54 150.96 162.53 147.98 164.66 146.75"/></g><g class="cls-4"><polygon class="cls-11" points="160.93 150.04 160.34 149.69 160.33 146.71 160.92 147.06 160.93 150.04"/><polygon class="cls-12" points="160.92 147.06 160.33 146.71 162.47 145.48 163.05 145.83 160.92 147.06"/><polygon class="cls-12" points="159.83 150.66 159.24 150.32 160.34 149.69 160.93 150.04 159.83 150.66"/><polygon class="cls-11" points="159.83 150.85 159.24 150.51 159.24 150.32 159.83 150.66 159.83 150.85"/><polygon class="cls-13" points="163.05 145.83 163.05 146.02 161.11 147.14 161.12 150.11 159.83 150.85 159.83 150.66 160.93 150.04 160.92 147.06 163.05 145.83"/></g><g class="cls-4"><polygon class="cls-11" points="159.32 149.12 158.74 148.78 158.73 145.8 159.31 146.14 159.32 149.12"/><polygon class="cls-12" points="159.31 146.14 158.73 145.8 160.86 144.56 161.44 144.91 159.31 146.14"/><polygon class="cls-12" points="158.22 149.75 157.64 149.4 158.74 148.78 159.32 149.12 158.22 149.75"/><polygon class="cls-11" points="158.22 149.94 157.64 149.59 157.64 149.4 158.22 149.75 158.22 149.94"/><polygon class="cls-13" points="161.44 144.91 161.44 145.1 159.5 146.22 159.51 149.19 158.22 149.94 158.22 149.75 159.32 149.12 159.31 146.14 161.44 144.91"/></g><g class="cls-4"><polygon class="cls-11" points="157.72 148.17 157.14 147.83 157.13 144.85 157.72 145.19 157.72 148.17"/><polygon class="cls-12" points="157.72 145.19 157.13 144.85 159.26 143.62 159.85 143.96 157.72 145.19"/><polygon class="cls-12" points="156.63 148.8 156.04 148.45 157.14 147.83 157.72 148.17 156.63 148.8"/><polygon class="cls-11" points="156.63 148.99 156.04 148.64 156.04 148.45 156.63 148.8 156.63 148.99"/><polygon class="cls-13" points="159.85 143.96 159.85 144.15 157.91 145.27 157.92 148.25 156.63 148.99 156.63 148.8 157.72 148.17 157.72 145.19 159.85 143.96"/></g><g class="cls-4"><polygon class="cls-11" points="156.13 147.25 155.55 146.91 155.54 143.93 156.12 144.28 156.13 147.25"/><polygon class="cls-12" points="156.12 144.28 155.54 143.93 157.67 142.7 158.25 143.04 156.12 144.28"/><polygon class="cls-12" points="155.03 147.88 154.45 147.54 155.55 146.91 156.13 147.25 155.03 147.88"/><polygon class="cls-11" points="155.03 148.07 154.45 147.73 154.45 147.54 155.03 147.88 155.03 148.07"/><polygon class="cls-13" points="158.25 143.04 158.25 143.24 156.32 144.35 156.33 147.33 155.03 148.07 155.03 147.88 156.13 147.25 156.12 144.28 158.25 143.04"/></g><g class="cls-4"><polygon class="cls-11" points="154.52 146.33 153.94 145.99 153.93 143.01 154.51 143.35 154.52 146.33"/><polygon class="cls-12" points="154.51 143.35 153.93 143.01 156.06 141.78 156.64 142.12 154.51 143.35"/><polygon class="cls-12" points="153.42 146.96 152.84 146.62 153.94 145.99 154.52 146.33 153.42 146.96"/><polygon class="cls-11" points="153.42 147.15 152.84 146.81 152.84 146.62 153.42 146.96 153.42 147.15"/><polygon class="cls-13" points="156.64 142.12 156.64 142.31 154.71 143.43 154.72 146.41 153.42 147.15 153.42 146.96 154.52 146.33 154.51 143.35 156.64 142.12"/></g><g class="cls-4"><polygon class="cls-11" points="152.92 145.42 152.33 145.07 152.32 142.09 152.91 142.44 152.92 145.42"/><polygon class="cls-12" points="152.91 142.44 152.32 142.09 154.46 140.86 155.04 141.21 152.91 142.44"/><polygon class="cls-12" points="151.82 146.05 151.24 145.7 152.33 145.07 152.92 145.42 151.82 146.05"/><polygon class="cls-11" points="151.82 146.23 151.24 145.89 151.24 145.7 151.82 146.05 151.82 146.23"/><polygon class="cls-13" points="155.04 141.21 155.04 141.4 153.1 142.52 153.11 145.49 151.82 146.23 151.82 146.05 152.92 145.42 152.91 142.44 155.04 141.21"/></g><g class="cls-4"><polygon class="cls-11" points="151.33 144.48 150.75 144.14 150.74 141.16 151.32 141.5 151.33 144.48"/><polygon class="cls-12" points="151.32 141.5 150.74 141.16 152.87 139.93 153.46 140.27 151.32 141.5"/><polygon class="cls-12" points="150.24 145.11 149.65 144.77 150.75 144.14 151.33 144.48 150.24 145.11"/><polygon class="cls-11" points="150.24 145.3 149.65 144.96 149.65 144.77 150.24 145.11 150.24 145.3"/><polygon class="cls-13" points="153.46 140.27 153.46 140.47 151.52 141.58 151.53 144.56 150.24 145.3 150.24 145.11 151.33 144.48 151.32 141.5 153.46 140.27"/></g><g class="cls-4"><polygon class="cls-11" points="149.72 143.55 149.13 143.21 149.13 140.23 149.71 140.57 149.72 143.55"/><polygon class="cls-12" points="149.71 140.57 149.13 140.23 151.26 139 151.84 139.34 149.71 140.57"/><polygon class="cls-12" points="148.62 144.18 148.04 143.84 149.13 143.21 149.72 143.55 148.62 144.18"/><polygon class="cls-11" points="148.62 144.37 148.04 144.02 148.04 143.84 148.62 144.18 148.62 144.37"/><polygon class="cls-13" points="151.84 139.34 151.84 139.53 149.9 140.65 149.91 143.63 148.62 144.37 148.62 144.18 149.72 143.55 149.71 140.57 151.84 139.34"/></g><g class="cls-4"><polygon class="cls-11" points="148.12 142.63 147.54 142.29 147.53 139.31 148.11 139.65 148.12 142.63"/><polygon class="cls-12" points="148.11 139.65 147.53 139.31 149.66 138.07 150.24 138.42 148.11 139.65"/><polygon class="cls-12" points="147.02 143.26 146.44 142.91 147.54 142.29 148.12 142.63 147.02 143.26"/><polygon class="cls-11" points="147.02 143.45 146.44 143.1 146.44 142.91 147.02 143.26 147.02 143.45"/><polygon class="cls-13" points="150.24 138.42 150.24 138.61 148.31 139.73 148.31 142.71 147.02 143.45 147.02 143.26 148.12 142.63 148.11 139.65 150.24 138.42"/></g><g class="cls-4"><polygon class="cls-11" points="146.52 141.71 145.93 141.36 145.93 138.38 146.51 138.73 146.52 141.71"/><polygon class="cls-12" points="146.51 138.73 145.93 138.38 148.06 137.15 148.64 137.5 146.51 138.73"/><polygon class="cls-12" points="145.42 142.33 144.84 141.99 145.93 141.36 146.52 141.71 145.42 142.33"/><polygon class="cls-11" points="145.42 142.52 144.84 142.18 144.84 141.99 145.42 142.33 145.42 142.52"/><polygon class="cls-13" points="148.64 137.5 148.64 137.69 146.7 138.81 146.71 141.78 145.42 142.52 145.42 142.33 146.52 141.71 146.51 138.73 148.64 137.5"/></g><g class="cls-4"><polygon class="cls-11" points="144.91 140.79 144.32 140.44 144.31 137.46 144.9 137.81 144.91 140.79"/><polygon class="cls-12" points="144.9 137.81 144.31 137.46 146.45 136.23 147.03 136.57 144.9 137.81"/><polygon class="cls-12" points="143.81 141.41 143.22 141.07 144.32 140.44 144.91 140.79 143.81 141.41"/><polygon class="cls-11" points="143.81 141.6 143.22 141.26 143.22 141.07 143.81 141.41 143.81 141.6"/><polygon class="cls-13" points="147.03 136.57 147.03 136.77 145.09 137.88 145.1 140.86 143.81 141.6 143.81 141.41 144.91 140.79 144.9 137.81 147.03 136.57"/></g><g class="cls-4"><polygon class="cls-11" points="143.3 139.87 142.72 139.52 142.71 136.54 143.29 136.89 143.3 139.87"/><polygon class="cls-12" points="143.29 136.89 142.71 136.54 144.84 135.31 145.42 135.65 143.29 136.89"/><polygon class="cls-12" points="142.2 140.49 141.62 140.15 142.72 139.52 143.3 139.87 142.2 140.49"/><polygon class="cls-11" points="142.2 140.68 141.62 140.34 141.62 140.15 142.2 140.49 142.2 140.68"/><polygon class="cls-13" points="145.42 135.65 145.42 135.85 143.49 136.96 143.49 139.94 142.2 140.68 142.2 140.49 143.3 139.87 143.29 136.89 145.42 135.65"/></g><g class="cls-4"><polygon class="cls-11" points="141.7 138.94 141.11 138.59 141.1 135.61 141.69 135.96 141.7 138.94"/><polygon class="cls-12" points="141.69 135.96 141.1 135.61 143.24 134.38 143.82 134.72 141.69 135.96"/><polygon class="cls-12" points="140.6 139.56 140.02 139.22 141.11 138.59 141.7 138.94 140.6 139.56"/><polygon class="cls-11" points="140.6 139.75 140.02 139.41 140.02 139.22 140.6 139.56 140.6 139.75"/><polygon class="cls-13" points="143.82 134.72 143.82 134.92 141.88 136.03 141.89 139.01 140.6 139.75 140.6 139.56 141.7 138.94 141.69 135.96 143.82 134.72"/></g><g class="cls-4"><polygon class="cls-11" points="140.12 138 139.53 137.66 139.52 134.68 140.11 135.02 140.12 138"/><polygon class="cls-12" points="140.11 135.02 139.52 134.68 141.66 133.45 142.24 133.79 140.11 135.02"/><polygon class="cls-12" points="139.02 138.63 138.44 138.29 139.53 137.66 140.12 138 139.02 138.63"/><polygon class="cls-11" points="139.02 138.82 138.44 138.47 138.44 138.29 139.02 138.63 139.02 138.82"/><polygon class="cls-13" points="142.24 133.79 142.24 133.98 140.3 135.1 140.31 138.08 139.02 138.82 139.02 138.63 140.12 138 140.11 135.02 142.24 133.79"/></g><g class="cls-4"><polygon class="cls-11" points="138.49 137.09 137.91 136.74 137.9 133.76 138.48 134.11 138.49 137.09"/><polygon class="cls-12" points="138.48 134.11 137.9 133.76 140.03 132.53 140.62 132.88 138.48 134.11"/><polygon class="cls-12" points="137.39 137.72 136.81 137.37 137.91 136.74 138.49 137.09 137.39 137.72"/><polygon class="cls-11" points="137.4 137.9 136.81 137.56 136.81 137.37 137.39 137.72 137.4 137.9"/><polygon class="cls-13" points="140.62 132.88 140.62 133.07 138.68 134.19 138.69 137.16 137.4 137.9 137.39 137.72 138.49 137.09 138.48 134.11 140.62 132.88"/></g><g class="cls-4"><polygon class="cls-11" points="136.89 136.16 136.31 135.82 136.3 132.84 136.88 133.18 136.89 136.16"/><polygon class="cls-12" points="136.88 133.18 136.3 132.84 138.43 131.61 139.02 131.95 136.88 133.18"/><polygon class="cls-12" points="135.8 136.79 135.21 136.44 136.31 135.82 136.89 136.16 135.8 136.79"/><polygon class="cls-11" points="135.8 136.98 135.21 136.63 135.21 136.44 135.8 136.79 135.8 136.98"/><polygon class="cls-13" points="139.02 131.95 139.02 132.14 137.08 133.26 137.09 136.24 135.8 136.98 135.8 136.79 136.89 136.16 136.88 133.18 139.02 131.95"/></g><g class="cls-4"><polygon class="cls-11" points="135.3 135.24 134.71 134.89 134.7 131.91 135.29 132.26 135.3 135.24"/><polygon class="cls-12" points="135.29 132.26 134.7 131.91 136.84 130.68 137.42 131.03 135.29 132.26"/><polygon class="cls-12" points="134.2 135.87 133.62 135.52 134.71 134.89 135.3 135.24 134.2 135.87"/><polygon class="cls-11" points="134.2 136.05 133.62 135.71 133.62 135.52 134.2 135.87 134.2 136.05"/><polygon class="cls-13" points="137.42 131.03 137.42 131.22 135.48 132.34 135.49 135.31 134.2 136.05 134.2 135.87 135.3 135.24 135.29 132.26 137.42 131.03"/></g><g class="cls-4"><polygon class="cls-11" points="133.69 134.32 133.11 133.97 133.1 130.99 133.68 131.34 133.69 134.32"/><polygon class="cls-12" points="133.68 131.34 133.1 130.99 135.23 129.76 135.81 130.11 133.68 131.34"/><polygon class="cls-12" points="132.59 134.94 132.01 134.6 133.11 133.97 133.69 134.32 132.59 134.94"/><polygon class="cls-11" points="132.59 135.13 132.01 134.79 132.01 134.6 132.59 134.94 132.59 135.13"/><polygon class="cls-13" points="135.81 130.11 135.81 130.3 133.88 131.42 133.88 134.39 132.59 135.13 132.59 134.94 133.69 134.32 133.68 131.34 135.81 130.11"/></g><g class="cls-4"><polygon class="cls-11" points="132.09 133.39 131.5 133.05 131.5 130.07 132.08 130.41 132.09 133.39"/><polygon class="cls-12" points="132.08 130.41 131.5 130.07 133.63 128.84 134.21 129.18 132.08 130.41"/><polygon class="cls-12" points="130.99 134.02 130.41 133.68 131.5 133.05 132.09 133.39 130.99 134.02"/><polygon class="cls-11" points="130.99 134.21 130.41 133.86 130.41 133.68 130.99 134.02 130.99 134.21"/><polygon class="cls-13" points="134.21 129.18 134.21 129.37 132.27 130.49 132.28 133.47 130.99 134.21 130.99 134.02 132.09 133.39 132.08 130.41 134.21 129.18"/></g><g class="cls-4"><polygon class="cls-11" points="130.49 132.46 129.91 132.11 129.9 129.13 130.48 129.48 130.49 132.46"/><polygon class="cls-12" points="130.48 129.48 129.9 129.13 132.03 127.9 132.61 128.25 130.48 129.48"/><polygon class="cls-12" points="129.39 133.09 128.81 132.74 129.91 132.11 130.49 132.46 129.39 133.09"/><polygon class="cls-11" points="129.39 133.27 128.81 132.93 128.81 132.74 129.39 133.09 129.39 133.27"/><polygon class="cls-13" points="132.61 128.25 132.61 128.44 130.68 129.56 130.68 132.53 129.39 133.27 129.39 133.09 130.49 132.46 130.48 129.48 132.61 128.25"/></g><g class="cls-4"><polygon class="cls-11" points="128.86 131.54 128.28 131.19 128.27 128.21 128.85 128.56 128.86 131.54"/><polygon class="cls-12" points="128.85 128.56 128.27 128.21 130.4 126.98 130.98 127.33 128.85 128.56"/><polygon class="cls-12" points="127.76 132.17 127.18 131.82 128.28 131.19 128.86 131.54 127.76 132.17"/><polygon class="cls-11" points="127.76 132.35 127.18 132.01 127.18 131.82 127.76 132.17 127.76 132.35"/><polygon class="cls-13" points="130.98 127.33 130.99 127.52 129.05 128.64 129.06 131.61 127.76 132.35 127.76 132.17 128.86 131.54 128.85 128.56 130.98 127.33"/></g><g class="cls-4"><polygon class="cls-11" points="127.3 130.61 126.72 130.26 126.71 127.28 127.29 127.63 127.3 130.61"/><polygon class="cls-12" points="127.29 127.63 126.71 127.28 128.84 126.05 129.43 126.4 127.29 127.63"/><polygon class="cls-12" points="126.2 131.24 125.62 130.89 126.72 130.26 127.3 130.61 126.2 131.24"/><polygon class="cls-11" points="126.2 131.43 125.62 131.08 125.62 130.89 126.2 131.24 126.2 131.43"/><polygon class="cls-13" points="129.43 126.4 129.43 126.59 127.49 127.71 127.5 130.68 126.2 131.43 126.2 131.24 127.3 130.61 127.29 127.63 129.43 126.4"/></g><g class="cls-4"><polygon class="cls-11" points="125.66 129.69 125.08 129.34 125.07 126.36 125.66 126.71 125.66 129.69"/><polygon class="cls-12" points="125.66 126.71 125.07 126.36 127.2 125.13 127.79 125.48 125.66 126.71"/><polygon class="cls-12" points="124.57 130.32 123.98 129.97 125.08 129.34 125.66 129.69 124.57 130.32"/><polygon class="cls-11" points="124.57 130.5 123.98 130.16 123.98 129.97 124.57 130.32 124.57 130.5"/><polygon class="cls-13" points="127.79 125.48 127.79 125.67 125.85 126.79 125.86 129.76 124.57 130.5 124.57 130.32 125.66 129.69 125.66 126.71 127.79 125.48"/></g><g class="cls-4"><polygon class="cls-11" points="124.08 128.76 123.5 128.41 123.49 125.43 124.07 125.78 124.08 128.76"/><polygon class="cls-12" points="124.07 125.78 123.49 125.43 125.62 124.2 126.2 124.55 124.07 125.78"/><polygon class="cls-12" points="122.98 129.39 122.4 129.04 123.5 128.41 124.08 128.76 122.98 129.39"/><polygon class="cls-11" points="122.98 129.57 122.4 129.23 122.4 129.04 122.98 129.39 122.98 129.57"/><polygon class="cls-13" points="126.2 124.55 126.2 124.74 124.27 125.86 124.28 128.83 122.98 129.57 122.98 129.39 124.08 128.76 124.07 125.78 126.2 124.55"/></g><g class="cls-4"><polygon class="cls-11" points="122.49 127.82 121.91 127.47 121.9 124.49 122.48 124.84 122.49 127.82"/><polygon class="cls-12" points="122.48 124.84 121.9 124.49 124.03 123.26 124.61 123.61 122.48 124.84"/><polygon class="cls-12" points="121.39 128.45 120.81 128.1 121.91 127.47 122.49 127.82 121.39 128.45"/><polygon class="cls-11" points="121.39 128.63 120.81 128.29 120.81 128.1 121.39 128.45 121.39 128.63"/><polygon class="cls-13" points="124.61 123.61 124.61 123.8 122.68 124.92 122.69 127.89 121.39 128.63 121.39 128.45 122.49 127.82 122.48 124.84 124.61 123.61"/></g><g class="cls-4"><polygon class="cls-11" points="190.31 157.43 190.89 157.09 190.9 154.11 190.31 154.45 190.31 157.43"/><polygon class="cls-12" points="190.31 154.45 190.9 154.11 188.76 152.88 188.18 153.22 190.31 154.45"/><polygon class="cls-12" points="191.4 158.06 191.99 157.71 190.89 157.09 190.31 157.43 191.4 158.06"/><polygon class="cls-11" points="191.4 158.25 191.99 157.9 191.99 157.71 191.4 158.06 191.4 158.25"/><polygon class="cls-13" points="188.18 153.22 188.18 153.41 190.12 154.53 190.11 157.51 191.4 158.25 191.4 158.06 190.31 157.43 190.31 154.45 188.18 153.22"/></g><g class="cls-4"><polygon class="cls-11" points="191.92 156.51 192.5 156.17 192.51 153.19 191.92 153.53 191.92 156.51"/><polygon class="cls-12" points="191.92 153.53 192.51 153.19 190.38 151.96 189.79 152.3 191.92 153.53"/><polygon class="cls-12" points="193.01 157.14 193.6 156.79 192.5 156.17 191.92 156.51 193.01 157.14"/><polygon class="cls-11" points="193.01 157.33 193.6 156.98 193.6 156.79 193.01 157.14 193.01 157.33"/><polygon class="cls-13" points="189.79 152.3 189.79 152.49 191.73 153.61 191.72 156.59 193.01 157.33 193.01 157.14 191.92 156.51 191.92 153.53 189.79 152.3"/></g><g class="cls-4"><polygon class="cls-11" points="193.53 155.59 194.11 155.25 194.12 152.27 193.54 152.61 193.53 155.59"/><polygon class="cls-12" points="193.54 152.61 194.12 152.27 191.99 151.03 191.4 151.38 193.54 152.61"/><polygon class="cls-12" points="194.63 156.22 195.21 155.87 194.11 155.25 193.53 155.59 194.63 156.22"/><polygon class="cls-11" points="194.62 156.41 195.21 156.06 195.21 155.87 194.63 156.22 194.62 156.41"/><polygon class="cls-13" points="191.4 151.38 191.4 151.57 193.34 152.69 193.33 155.66 194.62 156.41 194.63 156.22 193.53 155.59 193.54 152.61 191.4 151.38"/></g><g class="cls-4"><polygon class="cls-11" points="195.11 154.65 195.7 154.31 195.71 151.32 195.12 151.67 195.11 154.65"/><polygon class="cls-12" points="195.12 151.67 195.71 151.32 193.57 150.09 192.99 150.44 195.12 151.67"/><polygon class="cls-12" points="196.21 155.28 196.79 154.93 195.7 154.31 195.11 154.65 196.21 155.28"/><polygon class="cls-11" points="196.21 155.47 196.79 155.12 196.79 154.93 196.21 155.28 196.21 155.47"/><polygon class="cls-13" points="192.99 150.44 192.99 150.63 194.93 151.75 194.92 154.72 196.21 155.47 196.21 155.28 195.11 154.65 195.12 151.67 192.99 150.44"/></g><g class="cls-4"><polygon class="cls-11" points="196.73 153.74 197.31 153.39 197.32 150.41 196.74 150.76 196.73 153.74"/><polygon class="cls-12" points="196.74 150.76 197.32 150.41 195.19 149.18 194.61 149.53 196.74 150.76"/><polygon class="cls-12" points="197.83 154.37 198.41 154.02 197.31 153.39 196.73 153.74 197.83 154.37"/><polygon class="cls-11" points="197.83 154.55 198.41 154.21 198.41 154.02 197.83 154.37 197.83 154.55"/><polygon class="cls-13" points="194.61 149.53 194.6 149.72 196.54 150.84 196.53 153.81 197.83 154.55 197.83 154.37 196.73 153.74 196.74 150.76 194.61 149.53"/></g><g class="cls-4"><polygon class="cls-11" points="198.33 152.81 198.91 152.47 198.92 149.49 198.34 149.83 198.33 152.81"/><polygon class="cls-12" points="198.34 149.83 198.92 149.49 196.79 148.25 196.21 148.6 198.34 149.83"/><polygon class="cls-12" points="199.43 153.44 200.01 153.09 198.91 152.47 198.33 152.81 199.43 153.44"/><polygon class="cls-11" points="199.43 153.63 200.01 153.28 200.01 153.09 199.43 153.44 199.43 153.63"/><polygon class="cls-13" points="196.21 148.6 196.21 148.79 198.14 149.91 198.14 152.88 199.43 153.63 199.43 153.44 198.33 152.81 198.34 149.83 196.21 148.6"/></g><g class="cls-4"><polygon class="cls-11" points="199.93 151.88 200.51 151.53 200.52 148.55 199.94 148.9 199.93 151.88"/><polygon class="cls-12" points="199.94 148.9 200.52 148.55 198.39 147.32 197.8 147.67 199.94 148.9"/><polygon class="cls-12" points="201.03 152.51 201.61 152.16 200.51 151.53 199.93 151.88 201.03 152.51"/><polygon class="cls-11" points="201.03 152.69 201.61 152.35 201.61 152.16 201.03 152.51 201.03 152.69"/><polygon class="cls-13" points="197.8 147.67 197.8 147.86 199.74 148.98 199.73 151.95 201.03 152.69 201.03 152.51 199.93 151.88 199.94 148.9 197.8 147.67"/></g><g class="cls-4"><polygon class="cls-11" points="201.53 150.96 202.12 150.62 202.13 147.64 201.54 147.98 201.53 150.96"/><polygon class="cls-12" points="201.54 147.98 202.13 147.64 199.99 146.41 199.41 146.75 201.54 147.98"/><polygon class="cls-12" points="202.63 151.59 203.22 151.25 202.12 150.62 201.53 150.96 202.63 151.59"/><polygon class="cls-11" points="202.63 151.78 203.22 151.43 203.22 151.25 202.63 151.59 202.63 151.78"/><polygon class="cls-13" points="199.41 146.75 199.41 146.94 201.35 148.06 201.34 151.04 202.63 151.78 202.63 151.59 201.53 150.96 201.54 147.98 199.41 146.75"/></g><g class="cls-4"><polygon class="cls-11" points="203.15 150.04 203.73 149.69 203.74 146.71 203.16 147.06 203.15 150.04"/><polygon class="cls-12" points="203.16 147.06 203.74 146.71 201.61 145.48 201.03 145.83 203.16 147.06"/><polygon class="cls-12" points="204.25 150.66 204.83 150.32 203.73 149.69 203.15 150.04 204.25 150.66"/><polygon class="cls-11" points="204.25 150.85 204.83 150.51 204.83 150.32 204.25 150.66 204.25 150.85"/><polygon class="cls-13" points="201.03 145.83 201.03 146.02 202.96 147.14 202.96 150.11 204.25 150.85 204.25 150.66 203.15 150.04 203.16 147.06 201.03 145.83"/></g><g class="cls-4"><polygon class="cls-11" points="204.76 149.12 205.34 148.78 205.35 145.8 204.76 146.14 204.76 149.12"/><polygon class="cls-12" points="204.76 146.14 205.35 145.8 203.22 144.56 202.63 144.91 204.76 146.14"/><polygon class="cls-12" points="205.85 149.75 206.44 149.4 205.34 148.78 204.76 149.12 205.85 149.75"/><polygon class="cls-11" points="205.85 149.94 206.44 149.59 206.44 149.4 205.85 149.75 205.85 149.94"/><polygon class="cls-13" points="202.63 144.91 202.63 145.1 204.57 146.22 204.56 149.19 205.85 149.94 205.85 149.75 204.76 149.12 204.76 146.14 202.63 144.91"/></g><g class="cls-4"><polygon class="cls-11" points="206.35 148.17 206.93 147.83 206.94 144.85 206.36 145.19 206.35 148.17"/><polygon class="cls-12" points="206.36 145.19 206.94 144.85 204.81 143.62 204.23 143.96 206.36 145.19"/><polygon class="cls-12" points="207.45 148.8 208.03 148.45 206.93 147.83 206.35 148.17 207.45 148.8"/><polygon class="cls-11" points="207.45 148.99 208.03 148.64 208.03 148.45 207.45 148.8 207.45 148.99"/><polygon class="cls-13" points="204.23 143.96 204.23 144.15 206.16 145.27 206.16 148.25 207.45 148.99 207.45 148.8 206.35 148.17 206.36 145.19 204.23 143.96"/></g><g class="cls-4"><polygon class="cls-11" points="207.94 147.25 208.53 146.91 208.54 143.93 207.95 144.28 207.94 147.25"/><polygon class="cls-12" points="207.95 144.28 208.54 143.93 206.4 142.7 205.82 143.04 207.95 144.28"/><polygon class="cls-12" points="209.04 147.88 209.63 147.54 208.53 146.91 207.94 147.25 209.04 147.88"/><polygon class="cls-11" points="209.04 148.07 209.62 147.73 209.63 147.54 209.04 147.88 209.04 148.07"/><polygon class="cls-13" points="205.82 143.04 205.82 143.24 207.76 144.35 207.75 147.33 209.04 148.07 209.04 147.88 207.94 147.25 207.95 144.28 205.82 143.04"/></g><g class="cls-4"><polygon class="cls-11" points="209.56 146.33 210.14 145.99 210.15 143.01 209.56 143.35 209.56 146.33"/><polygon class="cls-12" points="209.56 143.35 210.15 143.01 208.01 141.78 207.43 142.12 209.56 143.35"/><polygon class="cls-12" points="210.65 146.96 211.24 146.62 210.14 145.99 209.56 146.33 210.65 146.96"/><polygon class="cls-11" points="210.65 147.15 211.24 146.81 211.24 146.62 210.65 146.96 210.65 147.15"/><polygon class="cls-13" points="207.43 142.12 207.43 142.31 209.37 143.43 209.36 146.41 210.65 147.15 210.65 146.96 209.56 146.33 209.56 143.35 207.43 142.12"/></g><g class="cls-4"><polygon class="cls-11" points="211.16 145.42 211.74 145.07 211.75 142.09 211.17 142.44 211.16 145.42"/><polygon class="cls-12" points="211.17 142.44 211.75 142.09 209.62 140.86 209.03 141.21 211.17 142.44"/><polygon class="cls-12" points="212.25 146.05 212.84 145.7 211.74 145.07 211.16 145.42 212.25 146.05"/><polygon class="cls-11" points="212.25 146.23 212.84 145.89 212.84 145.7 212.25 146.05 212.25 146.23"/><polygon class="cls-13" points="209.03 141.21 209.03 141.4 210.97 142.52 210.96 145.49 212.25 146.23 212.25 146.05 211.16 145.42 211.17 142.44 209.03 141.21"/></g><g class="cls-4"><polygon class="cls-11" points="212.74 144.48 213.33 144.14 213.33 141.16 212.75 141.5 212.74 144.48"/><polygon class="cls-12" points="212.75 141.5 213.33 141.16 211.2 139.93 210.62 140.27 212.75 141.5"/><polygon class="cls-12" points="213.84 145.11 214.42 144.77 213.33 144.14 212.74 144.48 213.84 145.11"/><polygon class="cls-11" points="213.84 145.3 214.42 144.96 214.42 144.77 213.84 145.11 213.84 145.3"/><polygon class="cls-13" points="210.62 140.27 210.62 140.47 212.56 141.58 212.55 144.56 213.84 145.3 213.84 145.11 212.74 144.48 212.75 141.5 210.62 140.27"/></g><g class="cls-4"><polygon class="cls-11" points="214.36 143.55 214.94 143.21 214.95 140.23 214.37 140.57 214.36 143.55"/><polygon class="cls-12" points="214.37 140.57 214.95 140.23 212.82 139 212.23 139.34 214.37 140.57"/><polygon class="cls-12" points="215.46 144.18 216.04 143.84 214.94 143.21 214.36 143.55 215.46 144.18"/><polygon class="cls-11" points="215.46 144.37 216.04 144.02 216.04 143.84 215.46 144.18 215.46 144.37"/><polygon class="cls-13" points="212.23 139.34 212.23 139.53 214.17 140.65 214.16 143.63 215.46 144.37 215.46 144.18 214.36 143.55 214.37 140.57 212.23 139.34"/></g><g class="cls-4"><polygon class="cls-11" points="215.96 142.63 216.54 142.29 216.55 139.31 215.96 139.65 215.96 142.63"/><polygon class="cls-12" points="215.96 139.65 216.55 139.31 214.41 138.07 213.83 138.42 215.96 139.65"/><polygon class="cls-12" points="217.05 143.26 217.64 142.91 216.54 142.29 215.96 142.63 217.05 143.26"/><polygon class="cls-11" points="217.05 143.45 217.64 143.1 217.64 142.91 217.05 143.26 217.05 143.45"/><polygon class="cls-13" points="213.83 138.42 213.83 138.61 215.77 139.73 215.76 142.71 217.05 143.45 217.05 143.26 215.96 142.63 215.96 139.65 213.83 138.42"/></g><g class="cls-4"><polygon class="cls-11" points="217.56 141.71 218.14 141.36 218.15 138.38 217.57 138.73 217.56 141.71"/><polygon class="cls-12" points="217.57 138.73 218.15 138.38 216.02 137.15 215.43 137.5 217.57 138.73"/><polygon class="cls-12" points="218.66 142.33 219.24 141.99 218.14 141.36 217.56 141.71 218.66 142.33"/><polygon class="cls-11" points="218.66 142.52 219.24 142.18 219.24 141.99 218.66 142.33 218.66 142.52"/><polygon class="cls-13" points="215.43 137.5 215.43 137.69 217.37 138.81 217.36 141.78 218.66 142.52 218.66 142.33 217.56 141.71 217.57 138.73 215.43 137.5"/></g><g class="cls-4"><polygon class="cls-11" points="219.17 140.79 219.75 140.44 219.76 137.46 219.18 137.81 219.17 140.79"/><polygon class="cls-12" points="219.18 137.81 219.76 137.46 217.63 136.23 217.04 136.57 219.18 137.81"/><polygon class="cls-12" points="220.27 141.41 220.85 141.07 219.75 140.44 219.17 140.79 220.27 141.41"/><polygon class="cls-11" points="220.27 141.6 220.85 141.26 220.85 141.07 220.27 141.41 220.27 141.6"/><polygon class="cls-13" points="217.04 136.57 217.04 136.77 218.98 137.88 218.97 140.86 220.27 141.6 220.27 141.41 219.17 140.79 219.18 137.81 217.04 136.57"/></g><g class="cls-4"><polygon class="cls-11" points="220.78 139.87 221.36 139.52 221.37 136.54 220.78 136.89 220.78 139.87"/><polygon class="cls-12" points="220.78 136.89 221.37 136.54 219.24 135.31 218.65 135.65 220.78 136.89"/><polygon class="cls-12" points="221.87 140.49 222.46 140.15 221.36 139.52 220.78 139.87 221.87 140.49"/><polygon class="cls-11" points="221.87 140.68 222.46 140.34 222.46 140.15 221.87 140.49 221.87 140.68"/><polygon class="cls-13" points="218.65 135.65 218.65 135.85 220.59 136.96 220.58 139.94 221.87 140.68 221.87 140.49 220.78 139.87 220.78 136.89 218.65 135.65"/></g><g class="cls-4"><polygon class="cls-11" points="222.38 138.94 222.96 138.59 222.97 135.61 222.39 135.96 222.38 138.94"/><polygon class="cls-12" points="222.39 135.96 222.97 135.61 220.84 134.38 220.25 134.72 222.39 135.96"/><polygon class="cls-12" points="223.48 139.56 224.06 139.22 222.96 138.59 222.38 138.94 223.48 139.56"/><polygon class="cls-11" points="223.47 139.75 224.06 139.41 224.06 139.22 223.48 139.56 223.47 139.75"/><polygon class="cls-13" points="220.25 134.72 220.25 134.92 222.19 136.03 222.18 139.01 223.47 139.75 223.48 139.56 222.38 138.94 222.39 135.96 220.25 134.72"/></g><g class="cls-4"><polygon class="cls-11" points="223.96 138 224.54 137.66 224.55 134.68 223.97 135.02 223.96 138"/><polygon class="cls-12" points="223.97 135.02 224.55 134.68 222.42 133.45 221.84 133.79 223.97 135.02"/><polygon class="cls-12" points="225.06 138.63 225.64 138.29 224.54 137.66 223.96 138 225.06 138.63"/><polygon class="cls-11" points="225.06 138.82 225.64 138.47 225.64 138.29 225.06 138.63 225.06 138.82"/><polygon class="cls-13" points="221.84 133.79 221.83 133.98 223.77 135.1 223.76 138.08 225.06 138.82 225.06 138.63 223.96 138 223.97 135.02 221.84 133.79"/></g><g class="cls-4"><polygon class="cls-11" points="225.58 137.09 226.17 136.74 226.18 133.76 225.59 134.11 225.58 137.09"/><polygon class="cls-12" points="225.59 134.11 226.18 133.76 224.04 132.53 223.46 132.88 225.59 134.11"/><polygon class="cls-12" points="226.68 137.72 227.26 137.37 226.17 136.74 225.58 137.09 226.68 137.72"/><polygon class="cls-11" points="226.68 137.9 227.26 137.56 227.26 137.37 226.68 137.72 226.68 137.9"/><polygon class="cls-13" points="223.46 132.88 223.46 133.07 225.4 134.19 225.39 137.16 226.68 137.9 226.68 137.72 225.58 137.09 225.59 134.11 223.46 132.88"/></g><g class="cls-4"><polygon class="cls-11" points="227.18 136.16 227.76 135.82 227.77 132.84 227.19 133.18 227.18 136.16"/><polygon class="cls-12" points="227.19 133.18 227.77 132.84 225.64 131.61 225.06 131.95 227.19 133.18"/><polygon class="cls-12" points="228.28 136.79 228.86 136.44 227.76 135.82 227.18 136.16 228.28 136.79"/><polygon class="cls-11" points="228.28 136.98 228.86 136.63 228.86 136.44 228.28 136.79 228.28 136.98"/><polygon class="cls-13" points="225.06 131.95 225.06 132.14 226.99 133.26 226.99 136.24 228.28 136.98 228.28 136.79 227.18 136.16 227.19 133.18 225.06 131.95"/></g><g class="cls-4"><polygon class="cls-11" points="228.78 135.24 229.36 134.89 229.37 131.91 228.79 132.26 228.78 135.24"/><polygon class="cls-12" points="228.79 132.26 229.37 131.91 227.24 130.68 226.66 131.03 228.79 132.26"/><polygon class="cls-12" points="229.88 135.87 230.46 135.52 229.36 134.89 228.78 135.24 229.88 135.87"/><polygon class="cls-11" points="229.88 136.05 230.46 135.71 230.46 135.52 229.88 135.87 229.88 136.05"/><polygon class="cls-13" points="226.66 131.03 226.65 131.22 228.59 132.34 228.58 135.31 229.88 136.05 229.88 135.87 228.78 135.24 228.79 132.26 226.66 131.03"/></g><g class="cls-4"><polygon class="cls-11" points="230.39 134.32 230.97 133.97 230.98 130.99 230.39 131.34 230.39 134.32"/><polygon class="cls-12" points="230.39 131.34 230.98 130.99 228.84 129.76 228.26 130.11 230.39 131.34"/><polygon class="cls-12" points="231.48 134.94 232.07 134.6 230.97 133.97 230.39 134.32 231.48 134.94"/><polygon class="cls-11" points="231.48 135.13 232.07 134.79 232.07 134.6 231.48 134.94 231.48 135.13"/><polygon class="cls-13" points="228.26 130.11 228.26 130.3 230.2 131.42 230.19 134.39 231.48 135.13 231.48 134.94 230.39 134.32 230.39 131.34 228.26 130.11"/></g><g class="cls-4"><polygon class="cls-11" points="231.99 133.39 232.57 133.05 232.58 130.07 232 130.41 231.99 133.39"/><polygon class="cls-12" points="232 130.41 232.58 130.07 230.45 128.84 229.86 129.18 232 130.41"/><polygon class="cls-12" points="233.09 134.02 233.67 133.68 232.57 133.05 231.99 133.39 233.09 134.02"/><polygon class="cls-11" points="233.09 134.21 233.67 133.86 233.67 133.68 233.09 134.02 233.09 134.21"/><polygon class="cls-13" points="229.86 129.18 229.86 129.37 231.8 130.49 231.79 133.47 233.09 134.21 233.09 134.02 231.99 133.39 232 130.41 229.86 129.18"/></g><g class="cls-4"><polygon class="cls-11" points="233.59 132.46 234.17 132.11 234.18 129.13 233.59 129.48 233.59 132.46"/><polygon class="cls-12" points="233.59 129.48 234.18 129.13 232.05 127.9 231.46 128.25 233.59 129.48"/><polygon class="cls-12" points="234.68 133.09 235.27 132.74 234.17 132.11 233.59 132.46 234.68 133.09"/><polygon class="cls-11" points="234.68 133.27 235.27 132.93 235.27 132.74 234.68 133.09 234.68 133.27"/><polygon class="cls-13" points="231.46 128.25 231.46 128.44 233.4 129.56 233.39 132.53 234.68 133.27 234.68 133.09 233.59 132.46 233.59 129.48 231.46 128.25"/></g><g class="cls-4"><polygon class="cls-11" points="235.22 131.54 235.8 131.19 235.81 128.21 235.22 128.56 235.22 131.54"/><polygon class="cls-12" points="235.22 128.56 235.81 128.21 233.67 126.98 233.09 127.33 235.22 128.56"/><polygon class="cls-12" points="236.31 132.17 236.9 131.82 235.8 131.19 235.22 131.54 236.31 132.17"/><polygon class="cls-11" points="236.31 132.35 236.9 132.01 236.9 131.82 236.31 132.17 236.31 132.35"/><polygon class="cls-13" points="233.09 127.33 233.09 127.52 235.03 128.64 235.02 131.61 236.31 132.35 236.31 132.17 235.22 131.54 235.22 128.56 233.09 127.33"/></g><g class="cls-4"><polygon class="cls-11" points="236.77 130.61 237.36 130.26 237.37 127.28 236.78 127.63 236.77 130.61"/><polygon class="cls-12" points="236.78 127.63 237.37 127.28 235.23 126.05 234.65 126.4 236.78 127.63"/><polygon class="cls-12" points="237.87 131.24 238.45 130.89 237.36 130.26 236.77 130.61 237.87 131.24"/><polygon class="cls-11" points="237.87 131.43 238.45 131.08 238.45 130.89 237.87 131.24 237.87 131.43"/><polygon class="cls-13" points="234.65 126.4 234.65 126.59 236.59 127.71 236.58 130.68 237.87 131.43 237.87 131.24 236.77 130.61 236.78 127.63 234.65 126.4"/></g><g class="cls-4"><polygon class="cls-11" points="238.41 129.69 238.99 129.34 239 126.36 238.42 126.71 238.41 129.69"/><polygon class="cls-12" points="238.42 126.71 239 126.36 236.87 125.13 236.29 125.48 238.42 126.71"/><polygon class="cls-12" points="239.51 130.32 240.09 129.97 238.99 129.34 238.41 129.69 239.51 130.32"/><polygon class="cls-11" points="239.51 130.5 240.09 130.16 240.09 129.97 239.51 130.32 239.51 130.5"/><polygon class="cls-13" points="236.29 125.48 236.29 125.67 238.22 126.79 238.22 129.76 239.51 130.5 239.51 130.32 238.41 129.69 238.42 126.71 236.29 125.48"/></g><g class="cls-4"><polygon class="cls-11" points="240 128.76 240.58 128.41 240.59 125.43 240 125.78 240 128.76"/><polygon class="cls-12" points="240 125.78 240.59 125.43 238.46 124.2 237.87 124.55 240 125.78"/><polygon class="cls-12" points="241.09 129.39 241.68 129.04 240.58 128.41 240 128.76 241.09 129.39"/><polygon class="cls-11" points="241.09 129.57 241.68 129.23 241.68 129.04 241.09 129.39 241.09 129.57"/><polygon class="cls-13" points="237.87 124.55 237.87 124.74 239.81 125.86 239.8 128.83 241.09 129.57 241.09 129.39 240 128.76 240 125.78 237.87 124.55"/></g><g class="cls-4"><polygon class="cls-11" points="241.59 127.82 242.17 127.47 242.18 124.49 241.59 124.84 241.59 127.82"/><polygon class="cls-12" points="241.59 124.84 242.18 124.49 240.04 123.26 239.46 123.61 241.59 124.84"/><polygon class="cls-12" points="242.68 128.45 243.27 128.1 242.17 127.47 241.59 127.82 242.68 128.45"/><polygon class="cls-11" points="242.68 128.63 243.26 128.29 243.27 128.1 242.68 128.45 242.68 128.63"/><polygon class="cls-13" points="239.46 123.61 239.46 123.8 241.4 124.92 241.39 127.89 242.68 128.63 242.68 128.45 241.59 127.82 241.59 124.84 239.46 123.61"/></g><polygon class="cls-14" points="130.61 69.18 181.89 39.57 233.18 69.18 181.89 98.79 130.61 69.18"/><polygon class="cls-2" points="129.45 69.18 129.45 70.03 181.89 100.31 181.89 99.46 129.45 69.18"/><polygon class="cls-3" points="234.34 69.18 234.34 70.03 181.89 100.31 181.89 99.46 234.34 69.18"/><path class="cls-15" d="M181.89,38.9,129.45,69.18l52.44,30.28,52.45-30.28ZM133.32,69.13l48.57-28,48.58,28L181.89,97.18Z"/><polygon class="cls-15" points="151.02 69.13 181.89 51.31 212.77 69.13 181.89 86.96 151.02 69.13"/><path class="cls-16" d="M171.6,70.32a3.66,3.66,0,0,0-2.23.39c-1.28.74-.94,2,.82,3s4,1.22,5.21.51a1.06,1.06,0,0,0,.57-1.5l2.7-.06c.49,1-.08,1.94-1.13,2.55-2.4,1.38-6.08,1.26-9.11-.49s-3.21-3.88-.81-5.25a6.43,6.43,0,0,1,4-.69Z"/><path class="cls-16" d="M171.56,67.52l2.85-1.65a5.42,5.42,0,0,1,5.78,0c2.22,1.28,1.67,2.37.06,3.3l-1.24.72L182.69,72,181,73Zm5.69,1.34,1.13-.65c.59-.35.94-.83.06-1.34a2.45,2.45,0,0,0-2.56.19l-.87.5Z"/><path class="cls-16" d="M190.67,63.21c2.23,1.29,2.77,2.89.65,4.11a7.23,7.23,0,0,1-7.13-.38l-5.8-3.36,1.69-1,5.73,3.31a3.91,3.91,0,0,0,3.59.29c.89-.51.66-1.4-.5-2.07l-5.72-3.31,1.69-1Z"/><circle class="cls-17" cx="237.14" cy="99.04" r="6.73"/><path class="cls-18" d="M237.14,94.82A4.23,4.23,0,1,1,232.91,99a4.23,4.23,0,0,1,4.23-4.22m0-5A9.23,9.23,0,1,0,246.37,99a9.23,9.23,0,0,0-9.23-9.22Z"/><line class="cls-19" x1="242.74" y1="94.4" x2="254.24" y2="86.21"/><line class="cls-19" x1="253.95" y1="86.21" x2="322.35" y2="86.21"/><path class="cls-20" d="M147.36,146.17a6.73,6.73,0,1,1,6.73-6.73A6.74,6.74,0,0,1,147.36,146.17Z"/><path class="cls-21" d="M147.36,135.21a4.23,4.23,0,1,1-4.23,4.23,4.24,4.24,0,0,1,4.23-4.23m0-5a9.23,9.23,0,1,0,9.23,9.23,9.24,9.24,0,0,0-9.23-9.23Z"/><line class="cls-22" x1="143.05" y1="145.76" x2="131.55" y2="159.41"/><line class="cls-22" x1="131.84" y1="159.41" x2="63.44" y2="159.41"/><path class="cls-23" d="M330,60.75h-2.34v-.58H333v.58H330.6V67.6H330Z"/><path class="cls-23" d="M333,65.36V64.25a2.31,2.31,0,1,1,4.62,0v.69h-4v.38c0,1.27.57,1.88,1.74,1.88,1,0,1.57-.46,1.64-1.24h.59c-.08,1.15-.89,1.77-2.21,1.77A2.13,2.13,0,0,1,333,65.36Zm4-1v-.12c0-1.27-.56-1.88-1.71-1.88s-1.71.61-1.71,1.88v.12Z"/><path class="cls-23" d="M339.23,62h.52l0,1a2,2,0,0,1,1.88-1.16,1.48,1.48,0,0,1,1.6,1.17,2.06,2.06,0,0,1,1.9-1.17c1.09,0,1.7.66,1.7,1.9V67.6h-.61V63.83c0-.93-.4-1.39-1.17-1.39s-1.3.46-1.73,1.4V67.6h-.62V63.83c0-.94-.4-1.39-1.15-1.39s-1.3.45-1.73,1.41V67.6h-.61Z"/><path class="cls-23" d="M348.73,62h.52l0,1.1a2.33,2.33,0,0,1,2.1-1.23c1.28,0,2,.82,2,2.29v1.26c0,1.48-.76,2.3-2,2.3a2.31,2.31,0,0,1-2-1.14v3h-.61Zm4.08,3.39V64.22c0-1.17-.54-1.81-1.49-1.81a2.2,2.2,0,0,0-2,1.49v1.8a2.2,2.2,0,0,0,2,1.5C352.27,67.2,352.81,66.56,352.81,65.4Z"/><path class="cls-23" d="M354.79,65.36V64.25a2.31,2.31,0,1,1,4.62,0v.69h-4v.38c0,1.27.57,1.88,1.74,1.88,1,0,1.57-.46,1.64-1.24h.59c-.08,1.15-.89,1.77-2.21,1.77A2.13,2.13,0,0,1,354.79,65.36Zm4-1v-.12c0-1.27-.56-1.88-1.71-1.88s-1.71.61-1.71,1.88v.12Z"/><path class="cls-23" d="M361.05,62h.52l0,1.15a1.69,1.69,0,0,1,1.73-1.26h.36v.59h-.29c-.95,0-1.5.51-1.74,1.71v3.4h-.61Z"/><path class="cls-23" d="M364.29,66.07c0-1.09.71-1.69,2.3-1.69h1.59v-.5c0-1-.5-1.47-1.55-1.47s-1.52.42-1.57,1.23h-.6c.1-1.16.85-1.76,2.19-1.76s2.14.68,2.14,2V67.6h-.52l0-.93a2.53,2.53,0,0,1-2.13,1.06C365,67.73,364.29,67.14,364.29,66.07Zm3.89-.06V64.9h-1.56c-1.21,0-1.72.36-1.72,1.15s.45,1.16,1.29,1.16A2.22,2.22,0,0,0,368.18,66Z"/><path class="cls-23" d="M370.79,65.94V62.51h-1.05V62h1.06l.06-1.53h.54V62h1.53v.5H371.4v3.43c0,.85.23,1.13.94,1.13H373v.53h-.78C371.22,67.6,370.79,67.11,370.79,65.94Z"/><path class="cls-23" d="M374.22,65.71V62h.61v3.64c0,1,.41,1.53,1.26,1.53A2,2,0,0,0,378,65.69V62h.61V67.6h-.53l0-1.1a2.23,2.23,0,0,1-2,1.23C374.82,67.73,374.22,67,374.22,65.71Z"/><path class="cls-23" d="M380.54,62h.53l0,1.15a1.7,1.7,0,0,1,1.74-1.26h.36v.59h-.3c-.95,0-1.49.51-1.74,1.71v3.4h-.61Z"/><path class="cls-23" d="M384,65.36V64.25a2.31,2.31,0,1,1,4.62,0v.69h-4v.38c0,1.27.57,1.88,1.74,1.88,1,0,1.57-.46,1.64-1.24h.59c-.08,1.15-.88,1.77-2.21,1.77A2.13,2.13,0,0,1,384,65.36Zm4-1v-.12c0-1.27-.55-1.88-1.71-1.88s-1.71.61-1.71,1.88v.12Z"/><path class="cls-18" d="M342.83,80.08h-9v-2h11.43v2.05a19.85,19.85,0,0,0-6.6,14h-2.22A20.2,20.2,0,0,1,342.83,80.08Z"/><path class="cls-18" d="M348.25,90h2c.07,1.61,1.37,2.56,3.52,2.56,2.39,0,3.72-1.16,3.72-3.5s-1.28-3.51-3.55-3.51a4.78,4.78,0,0,0-3.29,1.23h-1.92l.55-8.7h9.56v2h-7.69l-.31,4.76a5.51,5.51,0,0,1,3.57-1.14c3.27,0,5.16,1.89,5.16,5.35,0,3.64-2.08,5.44-5.77,5.44S348.3,92.79,348.25,90Z"/><path class="cls-18" d="M361.67,81a3.72,3.72,0,1,1,3.72,3.74A3.59,3.59,0,0,1,361.67,81Zm5.73,0a2,2,0,1,0-2,2.08A2,2,0,0,0,367.4,81Z"/><path class="cls-18" d="M371.33,88.11V84.18c0-4.24,2-6.37,6-6.37,3.79,0,5.73,1.85,5.87,5.59h-2.08c-.12-2.49-1.33-3.65-3.79-3.65-2.7,0-3.88,1.37-3.88,4.48v3.83c0,3.1,1.18,4.47,3.88,4.47,2.46,0,3.67-1.16,3.79-3.62h2.08c-.14,3.72-2.08,5.56-5.87,5.56C373.29,94.47,371.33,92.34,371.33,88.11Z"/><path class="cls-23" d="M0,137.15v-1.94c0-1.91.93-2.88,2.73-2.88a2.34,2.34,0,0,1,2.66,2.42H4.77a1.78,1.78,0,0,0-2-1.84c-1.42,0-2.11.75-2.11,2.34v1.86c0,1.58.69,2.33,2.11,2.33a1.77,1.77,0,0,0,2-1.82h.62A2.34,2.34,0,0,1,2.73,140C.94,140,0,139.05,0,137.15Z"/><path class="cls-23" d="M7,132.46H9.79c1.68,0,2.41.68,2.41,2.2s-.73,2.18-2.41,2.18H7.67v3H7Zm2.72,3.81c1.3,0,1.81-.46,1.81-1.61S11.06,133,9.76,133H7.67v3.23Z"/><path class="cls-23" d="M13.52,137.48v-5h.62v5c0,1.44.55,2,2,2s2-.53,2-2v-5h.6v5c0,1.78-.79,2.54-2.64,2.54S13.52,139.26,13.52,137.48Z"/><path class="cls-23" d="M23.49,137.48v-5h.62v5c0,1.44.55,2,2,2s2-.53,2-2v-5h.6v5c0,1.78-.79,2.54-2.63,2.54S23.49,139.26,23.49,137.48Z"/><path class="cls-23" d="M30.13,138.31h.59c0,.77.55,1.18,1.65,1.18S34,139.1,34,138.41s-.45-1-1.71-1.11c-1.45-.15-2-.57-2-1.5s.76-1.63,2.1-1.63,2.08.58,2.08,1.66h-.6c0-.73-.51-1.14-1.47-1.14s-1.52.4-1.52,1.06.44.89,1.63,1c1.52.15,2.09.6,2.09,1.6s-.76,1.66-2.2,1.66S30.13,139.43,30.13,138.31Z"/><path class="cls-23" d="M35.69,138.36c0-1.09.71-1.69,2.29-1.69h1.6v-.5c0-1-.5-1.47-1.55-1.47s-1.52.42-1.58,1.23h-.6c.11-1.16.86-1.76,2.2-1.76s2.14.67,2.14,2v3.72h-.52l0-.93A2.51,2.51,0,0,1,37.51,140,1.59,1.59,0,0,1,35.69,138.36Zm3.89-.06v-1.11H38c-1.22,0-1.72.36-1.72,1.15s.45,1.16,1.29,1.16A2.23,2.23,0,0,0,39.58,138.3Z"/><path class="cls-23" d="M41.88,140.36h.58c.07.76.65,1.12,1.63,1.12,1.2,0,1.74-.53,1.74-1.66v-1.17a2.35,2.35,0,0,1-2,1.13c-1.28,0-2-.82-2-2.3v-1c0-1.47.75-2.29,2-2.29a2.35,2.35,0,0,1,2.11,1.23l0-1.1h.53v5.52c0,1.47-.78,2.19-2.33,2.19C42.72,142,42,141.43,41.88,140.36Zm3.95-2.61v-1.56a2.2,2.2,0,0,0-2-1.49c-1,0-1.49.64-1.49,1.81v.92c0,1.18.54,1.81,1.49,1.81A2.19,2.19,0,0,0,45.83,137.75Z"/><path class="cls-23" d="M48.11,137.65v-1.11a2.31,2.31,0,1,1,4.62,0v.69h-4v.38c0,1.27.57,1.88,1.74,1.88,1,0,1.57-.46,1.63-1.24h.6c-.08,1.15-.89,1.77-2.21,1.77A2.13,2.13,0,0,1,48.11,137.65Zm4-1v-.12c0-1.27-.56-1.88-1.72-1.88s-1.7.61-1.7,1.88v.12Z"/><path class="cls-20" d="M1.3,162.75h2c.14,1.63,1.23,2.46,3.22,2.46,2.44,0,3.62-1.23,3.62-3.72v-2.27A5.18,5.18,0,0,1,6,161c-3.13,0-4.93-1.78-4.93-5.14s1.9-5.37,5.54-5.37,5.63,1.87,5.63,5.47v5.7c0,3.57-2,5.49-5.68,5.49C3.26,167.1,1.42,165.59,1.3,162.75Zm8.87-6.25V156c0-2.43-1.23-3.62-3.55-3.62s-3.43,1.21-3.43,3.43,1.06,3.29,3.19,3.29A3.77,3.77,0,0,0,10.17,156.5Z"/><path class="cls-20" d="M15.55,161.75v-6c0-3.48,1.94-5.35,5.53-5.35s5.54,1.87,5.54,5.35v6c0,3.48-1.94,5.35-5.54,5.35S15.55,165.23,15.55,161.75Zm9-.14v-5.68c0-2.41-1.14-3.6-3.46-3.6s-3.45,1.19-3.45,3.6v5.68c0,2.41,1.13,3.6,3.45,3.6S24.54,164,24.54,161.61Z"/><path class="cls-20" d="M35.4,156.19v-2.56c0-2.08,1.21-3.19,3.46-3.19s3.45,1.11,3.45,3.19v2.56c0,2.08-1.2,3.19-3.45,3.19S35.4,158.27,35.4,156.19Zm5.19-.09v-2.4A1.52,1.52,0,0,0,38.86,152a1.52,1.52,0,0,0-1.73,1.72v2.4a1.53,1.53,0,0,0,1.73,1.75A1.53,1.53,0,0,0,40.59,156.1Zm6.84-5.66h1.8L39.71,167.1h-1.8ZM44.8,163.9v-2.55c0-2.08,1.21-3.2,3.45-3.2s3.46,1.12,3.46,3.2v2.55c0,2.09-1.21,3.2-3.46,3.2S44.8,166,44.8,163.9Zm5.18-.09v-2.39a1.73,1.73,0,1,0-3.45,0v2.39a1.73,1.73,0,1,0,3.45,0Z"/><path class="cls-23" d="M30.09,5.23V3.29c0-1.9.93-2.87,2.73-2.87a2.33,2.33,0,0,1,2.65,2.41h-.61a1.79,1.79,0,0,0-2-1.84c-1.42,0-2.11.76-2.11,2.34V5.19c0,1.58.69,2.34,2.11,2.34a1.77,1.77,0,0,0,2-1.83h.61a2.33,2.33,0,0,1-2.65,2.41C31,8.11,30.09,7.13,30.09,5.23Z"/><path class="cls-23" d="M37.13.55h2.75c1.68,0,2.41.67,2.41,2.19s-.73,2.19-2.41,2.19H37.76V8h-.63Zm2.72,3.8c1.3,0,1.81-.46,1.81-1.61s-.51-1.61-1.81-1.61H37.76V4.35Z"/><path class="cls-23" d="M43.61,5.56v-5h.62v5c0,1.44.55,2,2,2s2-.54,2-2v-5h.6v5c0,1.78-.79,2.55-2.64,2.55S43.61,7.34,43.61,5.56Z"/><path class="cls-23" d="M53.79.55h.62V7.4h3.9V8H53.79Z"/><path class="cls-23" d="M59.28,5.69v-1a2.37,2.37,0,1,1,4.74,0v1a2.37,2.37,0,1,1-4.74,0Zm4.13,0v-1c0-1.26-.59-1.91-1.76-1.91s-1.76.65-1.76,1.91v1c0,1.27.59,1.92,1.76,1.92S63.41,6.92,63.41,5.65Z"/><path class="cls-23" d="M65.29,6.45c0-1.1.71-1.7,2.29-1.7h1.6v-.5c0-1-.51-1.46-1.55-1.46S66.11,3.2,66.05,4h-.6c.11-1.16.85-1.76,2.2-1.76s2.14.68,2.14,2V8h-.53l0-.93a2.51,2.51,0,0,1-2.13,1.06A1.59,1.59,0,0,1,65.29,6.45Zm3.89-.07V5.28H67.61c-1.21,0-1.71.36-1.71,1.14s.45,1.16,1.29,1.16A2.21,2.21,0,0,0,69.18,6.38Z"/><path class="cls-23" d="M71.35,5.8V4.54c0-1.47.75-2.29,2-2.29a2.29,2.29,0,0,1,2,1.14V0H76V8h-.53l0-1.12a2.36,2.36,0,0,1-2.11,1.25C72.1,8.11,71.35,7.29,71.35,5.8Zm4.07.27V4.27a2.17,2.17,0,0,0-2-1.48c-1,0-1.49.63-1.49,1.8V5.77c0,1.17.54,1.8,1.49,1.8A2.16,2.16,0,0,0,75.42,6.07Z"/><path class="cls-20" d="M30.25,31.17h2c.15,1.63,1.23,2.46,3.22,2.46,2.44,0,3.62-1.23,3.62-3.72V27.64A5.18,5.18,0,0,1,35,29.37c-3.13,0-4.93-1.78-4.93-5.14s1.9-5.37,5.54-5.37,5.64,1.87,5.64,5.47V30c0,3.57-2,5.49-5.68,5.49C32.21,35.52,30.37,34,30.25,31.17Zm8.87-6.25v-.54c0-2.44-1.23-3.63-3.55-3.63S32.14,22,32.14,24.19s1.07,3.29,3.2,3.29A3.78,3.78,0,0,0,39.12,24.92Z"/><path class="cls-20" d="M44.5,30.17v-6c0-3.48,1.94-5.35,5.53-5.35s5.54,1.87,5.54,5.35v6c0,3.48-1.94,5.35-5.54,5.35S44.5,33.65,44.5,30.17Zm9-.14V24.35c0-2.41-1.14-3.6-3.46-3.6s-3.45,1.19-3.45,3.6V30c0,2.42,1.14,3.6,3.45,3.6S53.49,32.45,53.49,30Z"/><path class="cls-20" d="M64.36,24.61V22.06c0-2.09,1.2-3.2,3.45-3.2s3.46,1.11,3.46,3.2v2.55c0,2.08-1.21,3.2-3.46,3.2S64.36,26.69,64.36,24.61Zm5.18-.09V22.13a1.73,1.73,0,0,0-3.46,0v2.39a1.73,1.73,0,1,0,3.46,0Zm6.84-5.66h1.8L68.66,35.52h-1.8ZM73.75,32.33V29.77c0-2.08,1.21-3.19,3.46-3.19s3.45,1.11,3.45,3.19v2.56c0,2.08-1.21,3.19-3.45,3.19S73.75,34.41,73.75,32.33Zm5.18-.1V29.84a1.73,1.73,0,1,0-3.45,0v2.39a1.73,1.73,0,1,0,3.45,0Z"/><circle class="cls-20" cx="166.04" cy="47.76" r="6.73"/><path class="cls-21" d="M166,43.53a4.23,4.23,0,1,1-4.23,4.23A4.23,4.23,0,0,1,166,43.53m0-5a9.23,9.23,0,1,0,9.23,9.23A9.24,9.24,0,0,0,166,38.53Z"/><line class="cls-22" x1="161.73" y1="41.44" x2="150.23" y2="27.78"/><line class="cls-22" x1="150.52" y1="27.78" x2="92.9" y2="27.78"/></g></g></svg>