<?xml version="1.0" encoding="utf-8"?>
<!-- Generator: Adobe Illustrator 24.2.0, SVG Export Plug-In . SVG Version: 6.00 Build 0)  -->
<svg version="1.1" id="Ebene_1" xmlns="http://www.w3.org/2000/svg" xmlns:xlink="http://www.w3.org/1999/xlink" x="0px" y="0px"
	 viewBox="0 0 388.6 167.1" style="enable-background:new 0 0 388.6 167.1;" xml:space="preserve">
<style type="text/css">
	.st0{fill:#59A7C6;}
	.st1{fill:#2F5E88;}
	.st2{fill:#387093;}
	.st3{fill:#5C9BA5;}
	.st4{fill:#81B6BF;}
	.st5{fill:#99C2C9;}
	.st6{fill:#B7D6DD;}
	.st7{fill:#A1CCD6;}
	.st8{fill:#D5EFF7;}
	.st9{fill:#595A5A;}
	.st10{fill:#A2A2A1;}
	.st11{fill:#919191;}
	.st12{fill:#96D0ED;}
	.st13{fill:#5094B5;}
	.st14{fill:#FFFFFF;}
	.st15{fill:#E2AD25;}
	.st16{fill:#FFD075;}
	.st17{fill:#ED2224;}
	.st18{fill:#F48889;}
	.st19{fill:#2C3843;}
	.st20{fill:none;}
	.st21{enable-background:new    ;}
</style>
<g id="Layer_1">
	<g>
		<polygon class="st0" points="119.1,117.7 182.3,81.2 245.6,117.7 182.3,154.3 		"/>
	</g>
	<g>
		<polygon class="st1" points="119.1,117.7 119.1,121.3 182.3,157.8 182.3,154.3 		"/>
	</g>
	<g>
		<polygon class="st2" points="245.6,117.7 245.6,121.3 182.3,157.8 182.3,154.3 		"/>
	</g>
	<g>
		<g>
			<polygon class="st3" points="177.5,133.5 151.9,118.6 126.3,103.7 126.3,105.5 151.9,120.4 177.5,135.3 			"/>
		</g>
		<g>
			<polygon class="st4" points="186.4,133.5 186.4,135.3 177.5,135.3 177.5,133.5 			"/>
		</g>
		<g>
			<polygon class="st5" points="238.1,103.7 212.2,118.6 186.4,133.5 186.4,135.3 212.3,120.4 238.1,105.5 			"/>
		</g>
		<g>
			<polygon class="st6" points="177.9,68.7 186.8,68.7 212.4,83.6 238.1,98.5 238.1,103.7 212.2,118.6 186.4,133.5 177.5,133.5 
				151.9,118.6 126.3,103.7 126.3,98.5 152.1,83.6 			"/>
		</g>
	</g>
	<g>
		<g>
			<polygon class="st3" points="177.7,114.6 153.1,100.3 128.4,86 128.5,86.4 153.1,100.7 177.7,115 			"/>
		</g>
		<g>
			<polygon class="st4" points="186.3,114.6 186.3,115 177.7,115 177.7,114.6 			"/>
		</g>
		<g>
			<polygon class="st7" points="235.9,86 211.1,100.3 186.3,114.6 186.3,115 211.1,100.7 235.9,86.4 			"/>
		</g>
		<g>
			<polygon class="st8" points="178.1,52.4 186.6,52.4 211.3,66.7 235.9,81 235.9,86 211.1,100.3 186.3,114.6 177.7,114.6 
				153.1,100.3 128.4,86 128.5,81 153.3,66.7 			"/>
		</g>
	</g>
	<g>
		<g>
			<polygon class="st9" points="174.2,156.7 173.6,156.4 173.6,153.4 174.2,153.8 			"/>
		</g>
		<g>
			<polygon class="st10" points="174.2,153.8 173.6,153.4 175.8,152.2 176.3,152.5 			"/>
		</g>
		<g>
			<polygon class="st10" points="173.1,157.4 172.5,157 173.6,156.4 174.2,156.7 			"/>
		</g>
		<g>
			<polygon class="st9" points="173.1,157.6 172.5,157.2 172.5,157 173.1,157.4 			"/>
		</g>
		<g>
			<polygon class="st11" points="176.3,152.5 176.4,152.7 174.4,153.8 174.4,156.8 173.1,157.6 173.1,157.4 174.2,156.7 
				174.2,153.8 			"/>
		</g>
	</g>
	<g>
		<g>
			<polygon class="st9" points="172.6,155.8 172,155.5 172,152.5 172.6,152.8 			"/>
		</g>
		<g>
			<polygon class="st10" points="172.6,152.8 172,152.5 174.2,151.3 174.7,151.6 			"/>
		</g>
		<g>
			<polygon class="st10" points="171.5,156.5 170.9,156.1 172,155.5 172.6,155.8 			"/>
		</g>
		<g>
			<polygon class="st9" points="171.5,156.6 170.9,156.3 170.9,156.1 171.5,156.5 			"/>
		</g>
		<g>
			<polygon class="st11" points="174.7,151.6 174.7,151.8 172.8,152.9 172.8,155.9 171.5,156.6 171.5,156.5 172.6,155.8 
				172.6,152.8 			"/>
		</g>
	</g>
	<g>
		<g>
			<polygon class="st9" points="171,154.9 170.4,154.6 170.4,151.6 171,151.9 			"/>
		</g>
		<g>
			<polygon class="st10" points="171,151.9 170.4,151.6 172.5,150.3 173.1,150.7 			"/>
		</g>
		<g>
			<polygon class="st10" points="169.9,155.5 169.3,155.2 170.4,154.6 171,154.9 			"/>
		</g>
		<g>
			<polygon class="st9" points="169.9,155.7 169.3,155.4 169.3,155.2 169.9,155.5 			"/>
		</g>
		<g>
			<polygon class="st11" points="173.1,150.7 173.1,150.9 171.2,152 171.2,155 169.9,155.7 169.9,155.5 171,154.9 171,151.9 			"/>
		</g>
	</g>
	<g>
		<g>
			<polygon class="st9" points="169.4,154 168.8,153.6 168.8,150.6 169.4,151 			"/>
		</g>
		<g>
			<polygon class="st10" points="169.4,151 168.8,150.6 171,149.4 171.5,149.8 			"/>
		</g>
		<g>
			<polygon class="st10" points="168.3,154.6 167.7,154.2 168.8,153.6 169.4,154 			"/>
		</g>
		<g>
			<polygon class="st9" points="168.3,154.8 167.7,154.4 167.7,154.2 168.3,154.6 			"/>
		</g>
		<g>
			<polygon class="st11" points="171.5,149.8 171.5,149.9 169.6,151.1 169.6,154 168.3,154.8 168.3,154.6 169.4,154 169.4,151 			
				"/>
		</g>
	</g>
	<g>
		<g>
			<polygon class="st9" points="167.8,153.1 167.2,152.7 167.2,149.7 167.8,150.1 			"/>
		</g>
		<g>
			<polygon class="st10" points="167.8,150.1 167.2,149.7 169.3,148.5 169.9,148.8 			"/>
		</g>
		<g>
			<polygon class="st10" points="166.7,153.7 166.1,153.3 167.2,152.7 167.8,153.1 			"/>
		</g>
		<g>
			<polygon class="st9" points="166.7,153.9 166.1,153.5 166.1,153.3 166.7,153.7 			"/>
		</g>
		<g>
			<polygon class="st11" points="169.9,148.8 169.9,149 168,150.2 168,153.1 166.7,153.9 166.7,153.7 167.8,153.1 167.8,150.1 			
				"/>
		</g>
	</g>
	<g>
		<g>
			<polygon class="st9" points="166.2,152.1 165.6,151.8 165.6,148.8 166.2,149.1 			"/>
		</g>
		<g>
			<polygon class="st10" points="166.2,149.1 165.6,148.8 167.7,147.6 168.3,147.9 			"/>
		</g>
		<g>
			<polygon class="st10" points="165.1,152.8 164.5,152.4 165.6,151.8 166.2,152.1 			"/>
		</g>
		<g>
			<polygon class="st9" points="165.1,152.9 164.5,152.6 164.5,152.4 165.1,152.8 			"/>
		</g>
		<g>
			<polygon class="st11" points="168.3,147.9 168.3,148.1 166.4,149.2 166.4,152.2 165.1,152.9 165.1,152.8 166.2,152.1 
				166.2,149.1 			"/>
		</g>
	</g>
	<g>
		<g>
			<polygon class="st9" points="164.6,151.2 164,150.8 164,147.9 164.6,148.2 			"/>
		</g>
		<g>
			<polygon class="st10" points="164.6,148.2 164,147.9 166.1,146.6 166.7,147 			"/>
		</g>
		<g>
			<polygon class="st10" points="163.5,151.8 162.9,151.5 164,150.8 164.6,151.2 			"/>
		</g>
		<g>
			<polygon class="st9" points="163.5,152 162.9,151.7 162.9,151.5 163.5,151.8 			"/>
		</g>
		<g>
			<polygon class="st11" points="166.7,147 166.7,147.2 164.8,148.3 164.8,151.3 163.5,152 163.5,151.8 164.6,151.2 164.6,148.2 			
				"/>
		</g>
	</g>
	<g>
		<g>
			<polygon class="st9" points="163,150.3 162.4,149.9 162.4,147 163,147.3 			"/>
		</g>
		<g>
			<polygon class="st10" points="163,147.3 162.4,147 164.5,145.7 165.1,146.1 			"/>
		</g>
		<g>
			<polygon class="st10" points="161.9,150.9 161.3,150.6 162.4,149.9 163,150.3 			"/>
		</g>
		<g>
			<polygon class="st9" points="161.9,151.1 161.3,150.7 161.3,150.6 161.9,150.9 			"/>
		</g>
		<g>
			<polygon class="st11" points="165.1,146.1 165.1,146.3 163.2,147.4 163.2,150.4 161.9,151.1 161.9,150.9 163,150.3 163,147.3 			
				"/>
		</g>
	</g>
	<g>
		<g>
			<polygon class="st9" points="161.4,149.4 160.8,149 160.8,146 161.4,146.4 			"/>
		</g>
		<g>
			<polygon class="st10" points="161.4,146.4 160.8,146 162.9,144.8 163.5,145.1 			"/>
		</g>
		<g>
			<polygon class="st10" points="160.3,150 159.7,149.6 160.8,149 161.4,149.4 			"/>
		</g>
		<g>
			<polygon class="st9" points="160.3,150.2 159.7,149.8 159.7,149.6 160.3,150 			"/>
		</g>
		<g>
			<polygon class="st11" points="163.5,145.1 163.5,145.3 161.6,146.5 161.6,149.4 160.3,150.2 160.3,150 161.4,149.4 161.4,146.4 
							"/>
		</g>
	</g>
	<g>
		<g>
			<polygon class="st9" points="159.8,148.4 159.2,148.1 159.2,145.1 159.8,145.5 			"/>
		</g>
		<g>
			<polygon class="st10" points="159.8,145.5 159.2,145.1 161.3,143.9 161.9,144.2 			"/>
		</g>
		<g>
			<polygon class="st10" points="158.7,149.1 158.1,148.7 159.2,148.1 159.8,148.4 			"/>
		</g>
		<g>
			<polygon class="st9" points="158.7,149.3 158.1,148.9 158.1,148.7 158.7,149.1 			"/>
		</g>
		<g>
			<polygon class="st11" points="161.9,144.2 161.9,144.4 160,145.5 160,148.5 158.7,149.3 158.7,149.1 159.8,148.4 159.8,145.5 			
				"/>
		</g>
	</g>
	<g>
		<g>
			<polygon class="st9" points="158.2,147.5 157.6,147.1 157.6,144.2 158.2,144.5 			"/>
		</g>
		<g>
			<polygon class="st10" points="158.2,144.5 157.6,144.2 159.7,142.9 160.3,143.3 			"/>
		</g>
		<g>
			<polygon class="st10" points="157.1,148.1 156.5,147.8 157.6,147.1 158.2,147.5 			"/>
		</g>
		<g>
			<polygon class="st9" points="157.1,148.3 156.5,148 156.5,147.8 157.1,148.1 			"/>
		</g>
		<g>
			<polygon class="st11" points="160.3,143.3 160.3,143.5 158.4,144.6 158.4,147.6 157.1,148.3 157.1,148.1 158.2,147.5 
				158.2,144.5 			"/>
		</g>
	</g>
	<g>
		<g>
			<polygon class="st9" points="156.6,146.6 156,146.2 156,143.2 156.6,143.6 			"/>
		</g>
		<g>
			<polygon class="st10" points="156.6,143.6 156,143.2 158.1,142 158.7,142.4 			"/>
		</g>
		<g>
			<polygon class="st10" points="155.5,147.2 154.9,146.9 156,146.2 156.6,146.6 			"/>
		</g>
		<g>
			<polygon class="st9" points="155.5,147.4 154.9,147 154.9,146.9 155.5,147.2 			"/>
		</g>
		<g>
			<polygon class="st11" points="158.7,142.4 158.7,142.6 156.8,143.7 156.8,146.6 155.5,147.4 155.5,147.2 156.6,146.6 
				156.6,143.6 			"/>
		</g>
	</g>
	<g>
		<g>
			<polygon class="st9" points="155,145.6 154.4,145.3 154.4,142.3 155,142.7 			"/>
		</g>
		<g>
			<polygon class="st10" points="155,142.7 154.4,142.3 156.5,141.1 157.1,141.4 			"/>
		</g>
		<g>
			<polygon class="st10" points="153.9,146.3 153.3,145.9 154.4,145.3 155,145.6 			"/>
		</g>
		<g>
			<polygon class="st9" points="153.9,146.5 153.3,146.1 153.3,145.9 153.9,146.3 			"/>
		</g>
		<g>
			<polygon class="st11" points="157.1,141.4 157.1,141.6 155.2,142.7 155.2,145.7 153.9,146.5 153.9,146.3 155,145.6 155,142.7 			
				"/>
		</g>
	</g>
	<g>
		<g>
			<polygon class="st9" points="153.4,144.7 152.8,144.4 152.8,141.4 153.4,141.8 			"/>
		</g>
		<g>
			<polygon class="st10" points="153.4,141.8 152.8,141.4 154.9,140.2 155.5,140.5 			"/>
		</g>
		<g>
			<polygon class="st10" points="152.3,145.4 151.7,145 152.8,144.4 153.4,144.7 			"/>
		</g>
		<g>
			<polygon class="st9" points="152.3,145.5 151.7,145.2 151.7,145 152.3,145.4 			"/>
		</g>
		<g>
			<polygon class="st11" points="155.5,140.5 155.5,140.7 153.6,141.8 153.6,144.8 152.3,145.5 152.3,145.4 153.4,144.7 
				153.4,141.8 			"/>
		</g>
	</g>
	<g>
		<g>
			<polygon class="st9" points="151.8,143.8 151.2,143.5 151.2,140.5 151.8,140.8 			"/>
		</g>
		<g>
			<polygon class="st10" points="151.8,140.8 151.2,140.5 153.3,139.2 153.9,139.6 			"/>
		</g>
		<g>
			<polygon class="st10" points="150.7,144.4 150.1,144.1 151.2,143.5 151.8,143.8 			"/>
		</g>
		<g>
			<polygon class="st9" points="150.7,144.6 150.1,144.3 150.1,144.1 150.7,144.4 			"/>
		</g>
		<g>
			<polygon class="st11" points="153.9,139.6 153.9,139.8 152,140.9 152,143.9 150.7,144.6 150.7,144.4 151.8,143.8 151.8,140.8 			
				"/>
		</g>
	</g>
	<g>
		<g>
			<polygon class="st9" points="150.2,142.9 149.6,142.5 149.6,139.5 150.2,139.9 			"/>
		</g>
		<g>
			<polygon class="st10" points="150.2,139.9 149.6,139.5 151.7,138.3 152.3,138.7 			"/>
		</g>
		<g>
			<polygon class="st10" points="149.1,143.5 148.5,143.2 149.6,142.5 150.2,142.9 			"/>
		</g>
		<g>
			<polygon class="st9" points="149.1,143.7 148.5,143.3 148.5,143.2 149.1,143.5 			"/>
		</g>
		<g>
			<polygon class="st11" points="152.3,138.7 152.3,138.8 150.4,140 150.4,142.9 149.1,143.7 149.1,143.5 150.2,142.9 150.2,139.9 
							"/>
		</g>
	</g>
	<g>
		<g>
			<polygon class="st9" points="148.6,141.9 148,141.6 148,138.6 148.6,139 			"/>
		</g>
		<g>
			<polygon class="st10" points="148.6,139 148,138.6 150.1,137.4 150.7,137.7 			"/>
		</g>
		<g>
			<polygon class="st10" points="147.5,142.6 146.9,142.2 148,141.6 148.6,141.9 			"/>
		</g>
		<g>
			<polygon class="st9" points="147.5,142.8 146.9,142.4 146.9,142.2 147.5,142.6 			"/>
		</g>
		<g>
			<polygon class="st11" points="150.7,137.7 150.7,137.9 148.8,139 148.8,142 147.5,142.8 147.5,142.6 148.6,141.9 148.6,139 			
				"/>
		</g>
	</g>
	<g>
		<g>
			<polygon class="st9" points="147,141 146.4,140.7 146.4,137.7 147,138 			"/>
		</g>
		<g>
			<polygon class="st10" points="147,138 146.4,137.7 148.5,136.5 149.1,136.8 			"/>
		</g>
		<g>
			<polygon class="st10" points="145.9,141.6 145.3,141.3 146.4,140.7 147,141 			"/>
		</g>
		<g>
			<polygon class="st9" points="145.9,141.8 145.3,141.5 145.3,141.3 145.9,141.6 			"/>
		</g>
		<g>
			<polygon class="st11" points="149.1,136.8 149.1,137 147.2,138.1 147.2,141.1 145.9,141.8 145.9,141.6 147,141 147,138 			"/>
		</g>
	</g>
	<g>
		<g>
			<polygon class="st9" points="145.4,140.1 144.8,139.8 144.8,136.8 145.4,137.1 			"/>
		</g>
		<g>
			<polygon class="st10" points="145.4,137.1 144.8,136.8 146.9,135.5 147.5,135.9 			"/>
		</g>
		<g>
			<polygon class="st10" points="144.3,140.7 143.7,140.4 144.8,139.8 145.4,140.1 			"/>
		</g>
		<g>
			<polygon class="st9" points="144.3,140.9 143.7,140.6 143.7,140.4 144.3,140.7 			"/>
		</g>
		<g>
			<polygon class="st11" points="147.5,135.9 147.5,136.1 145.5,137.2 145.6,140.2 144.3,140.9 144.3,140.7 145.4,140.1 
				145.4,137.1 			"/>
		</g>
	</g>
	<g>
		<g>
			<polygon class="st9" points="143.8,139.2 143.2,138.8 143.2,135.9 143.7,136.2 			"/>
		</g>
		<g>
			<polygon class="st10" points="143.7,136.2 143.2,135.9 145.3,134.6 145.9,135 			"/>
		</g>
		<g>
			<polygon class="st10" points="142.7,139.8 142.1,139.5 143.2,138.8 143.8,139.2 			"/>
		</g>
		<g>
			<polygon class="st9" points="142.7,140 142.1,139.7 142.1,139.5 142.7,139.8 			"/>
		</g>
		<g>
			<polygon class="st11" points="145.9,135 145.9,135.2 143.9,136.3 143.9,139.3 142.7,140 142.7,139.8 143.8,139.2 143.7,136.2 			
				"/>
		</g>
	</g>
	<g>
		<g>
			<polygon class="st9" points="142.2,138.3 141.6,137.9 141.6,134.9 142.1,135.3 			"/>
		</g>
		<g>
			<polygon class="st10" points="142.1,135.3 141.6,134.9 143.7,133.7 144.3,134 			"/>
		</g>
		<g>
			<polygon class="st10" points="141.1,138.9 140.5,138.5 141.6,137.9 142.2,138.3 			"/>
		</g>
		<g>
			<polygon class="st9" points="141.1,139.1 140.5,138.7 140.5,138.5 141.1,138.9 			"/>
		</g>
		<g>
			<polygon class="st11" points="144.3,134 144.3,134.2 142.3,135.3 142.3,138.3 141.1,139.1 141.1,138.9 142.2,138.3 142.1,135.3 
							"/>
		</g>
	</g>
	<g>
		<g>
			<polygon class="st9" points="140.6,137.3 140,137 140,134 140.6,134.3 			"/>
		</g>
		<g>
			<polygon class="st10" points="140.6,134.3 140,134 142.1,132.8 142.7,133.1 			"/>
		</g>
		<g>
			<polygon class="st10" points="139.5,137.9 138.9,137.6 140,137 140.6,137.3 			"/>
		</g>
		<g>
			<polygon class="st9" points="139.5,138.1 138.9,137.8 138.9,137.6 139.5,137.9 			"/>
		</g>
		<g>
			<polygon class="st11" points="142.7,133.1 142.7,133.3 140.8,134.4 140.8,137.4 139.5,138.1 139.5,137.9 140.6,137.3 
				140.6,134.3 			"/>
		</g>
	</g>
	<g>
		<g>
			<polygon class="st9" points="138.9,136.4 138.4,136.1 138.4,133.1 138.9,133.4 			"/>
		</g>
		<g>
			<polygon class="st10" points="138.9,133.4 138.4,133.1 140.5,131.8 141.1,132.2 			"/>
		</g>
		<g>
			<polygon class="st10" points="137.8,137 137.3,136.7 138.4,136.1 138.9,136.4 			"/>
		</g>
		<g>
			<polygon class="st9" points="137.9,137.2 137.3,136.9 137.3,136.7 137.8,137 			"/>
		</g>
		<g>
			<polygon class="st11" points="141.1,132.2 141.1,132.4 139.1,133.5 139.1,136.5 137.9,137.2 137.8,137 138.9,136.4 138.9,133.4 
							"/>
		</g>
	</g>
	<g>
		<g>
			<polygon class="st9" points="137.3,135.5 136.8,135.1 136.8,132.2 137.3,132.5 			"/>
		</g>
		<g>
			<polygon class="st10" points="137.3,132.5 136.8,132.2 138.9,130.9 139.5,131.3 			"/>
		</g>
		<g>
			<polygon class="st10" points="136.3,136.1 135.7,135.8 136.8,135.1 137.3,135.5 			"/>
		</g>
		<g>
			<polygon class="st9" points="136.3,136.3 135.7,135.9 135.7,135.8 136.3,136.1 			"/>
		</g>
		<g>
			<polygon class="st11" points="139.5,131.3 139.5,131.5 137.5,132.6 137.5,135.6 136.3,136.3 136.3,136.1 137.3,135.5 
				137.3,132.5 			"/>
		</g>
	</g>
	<g>
		<g>
			<polygon class="st9" points="135.8,134.6 135.2,134.2 135.2,131.2 135.7,131.6 			"/>
		</g>
		<g>
			<polygon class="st10" points="135.7,131.6 135.2,131.2 137.3,130 137.9,130.3 			"/>
		</g>
		<g>
			<polygon class="st10" points="134.7,135.2 134.1,134.8 135.2,134.2 135.8,134.6 			"/>
		</g>
		<g>
			<polygon class="st9" points="134.7,135.4 134.1,135 134.1,134.8 134.7,135.2 			"/>
		</g>
		<g>
			<polygon class="st11" points="137.9,130.3 137.9,130.5 135.9,131.7 135.9,134.6 134.7,135.4 134.7,135.2 135.8,134.6 
				135.7,131.6 			"/>
		</g>
	</g>
	<g>
		<g>
			<polygon class="st9" points="134.1,133.6 133.6,133.3 133.6,130.3 134.1,130.7 			"/>
		</g>
		<g>
			<polygon class="st10" points="134.1,130.7 133.6,130.3 135.7,129.1 136.3,129.4 			"/>
		</g>
		<g>
			<polygon class="st10" points="133,134.3 132.5,133.9 133.6,133.3 134.1,133.6 			"/>
		</g>
		<g>
			<polygon class="st9" points="133,134.4 132.5,134.1 132.5,133.9 133,134.3 			"/>
		</g>
		<g>
			<polygon class="st11" points="136.3,129.4 136.3,129.6 134.3,130.7 134.3,133.7 133,134.4 133,134.3 134.1,133.6 134.1,130.7 			
				"/>
		</g>
	</g>
	<g>
		<g>
			<polygon class="st9" points="132.5,132.7 132,132.4 132,129.4 132.5,129.7 			"/>
		</g>
		<g>
			<polygon class="st10" points="132.5,129.7 132,129.4 134.1,128.2 134.7,128.5 			"/>
		</g>
		<g>
			<polygon class="st10" points="131.4,133.3 130.9,133 132,132.4 132.5,132.7 			"/>
		</g>
		<g>
			<polygon class="st9" points="131.4,133.5 130.9,133.2 130.9,133 131.4,133.3 			"/>
		</g>
		<g>
			<polygon class="st11" points="134.7,128.5 134.7,128.7 132.7,129.8 132.7,132.8 131.4,133.5 131.4,133.3 132.5,132.7 
				132.5,129.7 			"/>
		</g>
	</g>
	<g>
		<g>
			<polygon class="st9" points="130.9,131.8 130.4,131.4 130.4,128.4 130.9,128.8 			"/>
		</g>
		<g>
			<polygon class="st10" points="130.9,128.8 130.4,128.4 132.5,127.2 133.1,127.6 			"/>
		</g>
		<g>
			<polygon class="st10" points="129.8,132.4 129.3,132.1 130.4,131.4 130.9,131.8 			"/>
		</g>
		<g>
			<polygon class="st9" points="129.8,132.6 129.3,132.2 129.3,132.1 129.8,132.4 			"/>
		</g>
		<g>
			<polygon class="st11" points="133.1,127.6 133.1,127.8 131.1,128.9 131.1,131.8 129.8,132.6 129.8,132.4 130.9,131.8 
				130.9,128.8 			"/>
		</g>
	</g>
	<g>
		<g>
			<polygon class="st9" points="129.3,130.9 128.7,130.5 128.7,127.5 129.3,127.9 			"/>
		</g>
		<g>
			<polygon class="st10" points="129.3,127.9 128.7,127.5 130.9,126.3 131.4,126.6 			"/>
		</g>
		<g>
			<polygon class="st10" points="128.2,131.5 127.6,131.1 128.7,130.5 129.3,130.9 			"/>
		</g>
		<g>
			<polygon class="st9" points="128.2,131.7 127.6,131.3 127.6,131.1 128.2,131.5 			"/>
		</g>
		<g>
			<polygon class="st11" points="131.4,126.6 131.4,126.8 129.5,128 129.5,130.9 128.2,131.7 128.2,131.5 129.3,130.9 129.3,127.9 
							"/>
		</g>
	</g>
	<g>
		<g>
			<polygon class="st9" points="127.8,129.9 127.2,129.6 127.2,126.6 127.7,126.9 			"/>
		</g>
		<g>
			<polygon class="st10" points="127.7,126.9 127.2,126.6 129.3,125.4 129.9,125.7 			"/>
		</g>
		<g>
			<polygon class="st10" points="126.7,130.6 126.1,130.2 127.2,129.6 127.8,129.9 			"/>
		</g>
		<g>
			<polygon class="st9" points="126.7,130.7 126.1,130.4 126.1,130.2 126.7,130.6 			"/>
		</g>
		<g>
			<polygon class="st11" points="129.9,125.7 129.9,125.9 127.9,127 128,130 126.7,130.7 126.7,130.6 127.8,129.9 127.7,126.9 			
				"/>
		</g>
	</g>
	<g>
		<g>
			<polygon class="st9" points="126.1,129 125.5,128.7 125.5,125.7 126.1,126 			"/>
		</g>
		<g>
			<polygon class="st10" points="126.1,126 125.5,125.7 127.7,124.4 128.2,124.8 			"/>
		</g>
		<g>
			<polygon class="st10" points="125,129.6 124.4,129.3 125.5,128.7 126.1,129 			"/>
		</g>
		<g>
			<polygon class="st9" points="125,129.8 124.4,129.5 124.4,129.3 125,129.6 			"/>
		</g>
		<g>
			<polygon class="st11" points="128.2,124.8 128.2,125 126.3,126.1 126.3,129.1 125,129.8 125,129.6 126.1,129 126.1,126 			"/>
		</g>
	</g>
	<g>
		<g>
			<polygon class="st9" points="124.5,128.1 124,127.7 123.9,124.7 124.5,125.1 			"/>
		</g>
		<g>
			<polygon class="st10" points="124.5,125.1 123.9,124.7 126.1,123.5 126.7,123.9 			"/>
		</g>
		<g>
			<polygon class="st10" points="123.4,128.7 122.9,128.4 124,127.7 124.5,128.1 			"/>
		</g>
		<g>
			<polygon class="st9" points="123.4,128.9 122.9,128.5 122.9,128.4 123.4,128.7 			"/>
		</g>
		<g>
			<polygon class="st11" points="126.7,123.9 126.7,124.1 124.7,125.2 124.7,128.1 123.4,128.9 123.4,128.7 124.5,128.1 
				124.5,125.1 			"/>
		</g>
	</g>
	<g>
		<g>
			<polygon class="st9" points="122.9,127.1 122.4,126.8 122.4,123.8 122.9,124.2 			"/>
		</g>
		<g>
			<polygon class="st10" points="122.9,124.2 122.4,123.8 124.5,122.6 125.1,122.9 			"/>
		</g>
		<g>
			<polygon class="st10" points="121.8,127.8 121.3,127.4 122.4,126.8 122.9,127.1 			"/>
		</g>
		<g>
			<polygon class="st9" points="121.8,127.9 121.3,127.6 121.3,127.4 121.8,127.8 			"/>
		</g>
		<g>
			<polygon class="st11" points="125.1,122.9 125.1,123.1 123.1,124.2 123.1,127.2 121.8,127.9 121.8,127.8 122.9,127.1 
				122.9,124.2 			"/>
		</g>
	</g>
	<g>
		<g>
			<polygon class="st9" points="190.8,156.7 191.3,156.4 191.4,153.4 190.8,153.8 			"/>
		</g>
		<g>
			<polygon class="st10" points="190.8,153.8 191.4,153.4 189.2,152.2 188.6,152.5 			"/>
		</g>
		<g>
			<polygon class="st10" points="191.9,157.4 192.4,157 191.3,156.4 190.8,156.7 			"/>
		</g>
		<g>
			<polygon class="st9" points="191.9,157.6 192.4,157.2 192.4,157 191.9,157.4 			"/>
		</g>
		<g>
			<polygon class="st11" points="188.6,152.5 188.6,152.7 190.6,153.8 190.6,156.8 191.9,157.6 191.9,157.4 190.8,156.7 
				190.8,153.8 			"/>
		</g>
	</g>
	<g>
		<g>
			<polygon class="st9" points="192.4,155.8 193,155.5 193,152.5 192.4,152.8 			"/>
		</g>
		<g>
			<polygon class="st10" points="192.4,152.8 193,152.5 190.8,151.3 190.2,151.6 			"/>
		</g>
		<g>
			<polygon class="st10" points="193.5,156.5 194.1,156.1 193,155.5 192.4,155.8 			"/>
		</g>
		<g>
			<polygon class="st9" points="193.5,156.6 194.1,156.3 194.1,156.1 193.5,156.5 			"/>
		</g>
		<g>
			<polygon class="st11" points="190.2,151.6 190.2,151.8 192.2,152.9 192.2,155.9 193.5,156.6 193.5,156.5 192.4,155.8 
				192.4,152.8 			"/>
		</g>
	</g>
	<g>
		<g>
			<polygon class="st9" points="194,154.9 194.6,154.6 194.6,151.6 194,151.9 			"/>
		</g>
		<g>
			<polygon class="st10" points="194,151.9 194.6,151.6 192.4,150.3 191.9,150.7 			"/>
		</g>
		<g>
			<polygon class="st10" points="195.1,155.5 195.7,155.2 194.6,154.6 194,154.9 			"/>
		</g>
		<g>
			<polygon class="st9" points="195.1,155.7 195.7,155.4 195.7,155.2 195.1,155.5 			"/>
		</g>
		<g>
			<polygon class="st11" points="191.9,150.7 191.9,150.9 193.8,152 193.8,155 195.1,155.7 195.1,155.5 194,154.9 194,151.9 			"/>
		</g>
	</g>
	<g>
		<g>
			<polygon class="st9" points="195.6,154 196.2,153.6 196.2,150.6 195.6,151 			"/>
		</g>
		<g>
			<polygon class="st10" points="195.6,151 196.2,150.6 194,149.4 193.4,149.8 			"/>
		</g>
		<g>
			<polygon class="st10" points="196.7,154.6 197.2,154.2 196.2,153.6 195.6,154 			"/>
		</g>
		<g>
			<polygon class="st9" points="196.7,154.8 197.2,154.4 197.2,154.2 196.7,154.6 			"/>
		</g>
		<g>
			<polygon class="st11" points="193.4,149.8 193.4,149.9 195.4,151.1 195.4,154 196.7,154.8 196.7,154.6 195.6,154 195.6,151 			
				"/>
		</g>
	</g>
	<g>
		<g>
			<polygon class="st9" points="197.2,153.1 197.8,152.7 197.8,149.7 197.2,150.1 			"/>
		</g>
		<g>
			<polygon class="st10" points="197.2,150.1 197.8,149.7 195.6,148.5 195.1,148.8 			"/>
		</g>
		<g>
			<polygon class="st10" points="198.3,153.7 198.9,153.3 197.8,152.7 197.2,153.1 			"/>
		</g>
		<g>
			<polygon class="st9" points="198.3,153.9 198.9,153.5 198.9,153.3 198.3,153.7 			"/>
		</g>
		<g>
			<polygon class="st11" points="195.1,148.8 195.1,149 197,150.2 197,153.1 198.3,153.9 198.3,153.7 197.2,153.1 197.2,150.1 			
				"/>
		</g>
	</g>
	<g>
		<g>
			<polygon class="st9" points="198.8,152.1 199.4,151.8 199.4,148.8 198.8,149.1 			"/>
		</g>
		<g>
			<polygon class="st10" points="198.8,149.1 199.4,148.8 197.2,147.6 196.7,147.9 			"/>
		</g>
		<g>
			<polygon class="st10" points="199.9,152.8 200.5,152.4 199.4,151.8 198.8,152.1 			"/>
		</g>
		<g>
			<polygon class="st9" points="199.9,152.9 200.5,152.6 200.5,152.4 199.9,152.8 			"/>
		</g>
		<g>
			<polygon class="st11" points="196.7,147.9 196.7,148.1 198.6,149.2 198.6,152.2 199.9,152.9 199.9,152.8 198.8,152.1 
				198.8,149.1 			"/>
		</g>
	</g>
	<g>
		<g>
			<polygon class="st9" points="200.4,151.2 201,150.8 201,147.9 200.4,148.2 			"/>
		</g>
		<g>
			<polygon class="st10" points="200.4,148.2 201,147.9 198.8,146.6 198.3,147 			"/>
		</g>
		<g>
			<polygon class="st10" points="201.5,151.8 202.1,151.5 201,150.8 200.4,151.2 			"/>
		</g>
		<g>
			<polygon class="st9" points="201.5,152 202.1,151.7 202.1,151.5 201.5,151.8 			"/>
		</g>
		<g>
			<polygon class="st11" points="198.3,147 198.3,147.2 200.2,148.3 200.2,151.3 201.5,152 201.5,151.8 200.4,151.2 200.4,148.2 			
				"/>
		</g>
	</g>
	<g>
		<g>
			<polygon class="st9" points="202,150.3 202.6,149.9 202.6,147 202,147.3 			"/>
		</g>
		<g>
			<polygon class="st10" points="202,147.3 202.6,147 200.4,145.7 199.9,146.1 			"/>
		</g>
		<g>
			<polygon class="st10" points="203.1,150.9 203.7,150.6 202.6,149.9 202,150.3 			"/>
		</g>
		<g>
			<polygon class="st9" points="203.1,151.1 203.7,150.7 203.7,150.6 203.1,150.9 			"/>
		</g>
		<g>
			<polygon class="st11" points="199.9,146.1 199.9,146.3 201.8,147.4 201.8,150.4 203.1,151.1 203.1,150.9 202,150.3 202,147.3 			
				"/>
		</g>
	</g>
	<g>
		<g>
			<polygon class="st9" points="203.6,149.4 204.2,149 204.2,146 203.6,146.4 			"/>
		</g>
		<g>
			<polygon class="st10" points="203.6,146.4 204.2,146 202.1,144.8 201.5,145.1 			"/>
		</g>
		<g>
			<polygon class="st10" points="204.7,150 205.3,149.6 204.2,149 203.6,149.4 			"/>
		</g>
		<g>
			<polygon class="st9" points="204.7,150.2 205.3,149.8 205.3,149.6 204.7,150 			"/>
		</g>
		<g>
			<polygon class="st11" points="201.5,145.1 201.5,145.3 203.4,146.5 203.4,149.4 204.7,150.2 204.7,150 203.6,149.4 203.6,146.4 
							"/>
		</g>
	</g>
	<g>
		<g>
			<polygon class="st9" points="205.2,148.4 205.8,148.1 205.8,145.1 205.2,145.5 			"/>
		</g>
		<g>
			<polygon class="st10" points="205.2,145.5 205.8,145.1 203.7,143.9 203.1,144.2 			"/>
		</g>
		<g>
			<polygon class="st10" points="206.3,149.1 206.9,148.7 205.8,148.1 205.2,148.4 			"/>
		</g>
		<g>
			<polygon class="st9" points="206.3,149.3 206.9,148.9 206.9,148.7 206.3,149.1 			"/>
		</g>
		<g>
			<polygon class="st11" points="203.1,144.2 203.1,144.4 205,145.5 205,148.5 206.3,149.3 206.3,149.1 205.2,148.4 205.2,145.5 			
				"/>
		</g>
	</g>
	<g>
		<g>
			<polygon class="st9" points="206.8,147.5 207.4,147.1 207.4,144.2 206.8,144.5 			"/>
		</g>
		<g>
			<polygon class="st10" points="206.8,144.5 207.4,144.2 205.3,142.9 204.7,143.3 			"/>
		</g>
		<g>
			<polygon class="st10" points="207.9,148.1 208.5,147.8 207.4,147.1 206.8,147.5 			"/>
		</g>
		<g>
			<polygon class="st9" points="207.9,148.3 208.5,148 208.5,147.8 207.9,148.1 			"/>
		</g>
		<g>
			<polygon class="st11" points="204.7,143.3 204.7,143.5 206.6,144.6 206.6,147.6 207.9,148.3 207.9,148.1 206.8,147.5 
				206.8,144.5 			"/>
		</g>
	</g>
	<g>
		<g>
			<polygon class="st9" points="208.4,146.6 209,146.2 209,143.2 208.4,143.6 			"/>
		</g>
		<g>
			<polygon class="st10" points="208.4,143.6 209,143.2 206.9,142 206.3,142.4 			"/>
		</g>
		<g>
			<polygon class="st10" points="209.5,147.2 210.1,146.9 209,146.2 208.4,146.6 			"/>
		</g>
		<g>
			<polygon class="st9" points="209.5,147.4 210.1,147 210.1,146.9 209.5,147.2 			"/>
		</g>
		<g>
			<polygon class="st11" points="206.3,142.4 206.3,142.6 208.2,143.7 208.2,146.6 209.5,147.4 209.5,147.2 208.4,146.6 
				208.4,143.6 			"/>
		</g>
	</g>
	<g>
		<g>
			<polygon class="st9" points="210,145.6 210.6,145.3 210.6,142.3 210,142.7 			"/>
		</g>
		<g>
			<polygon class="st10" points="210,142.7 210.6,142.3 208.5,141.1 207.9,141.4 			"/>
		</g>
		<g>
			<polygon class="st10" points="211.1,146.3 211.7,145.9 210.6,145.3 210,145.6 			"/>
		</g>
		<g>
			<polygon class="st9" points="211.1,146.5 211.7,146.1 211.7,145.9 211.1,146.3 			"/>
		</g>
		<g>
			<polygon class="st11" points="207.9,141.4 207.9,141.6 209.8,142.7 209.8,145.7 211.1,146.5 211.1,146.3 210,145.6 210,142.7 			
				"/>
		</g>
	</g>
	<g>
		<g>
			<polygon class="st9" points="211.6,144.7 212.2,144.4 212.2,141.4 211.6,141.8 			"/>
		</g>
		<g>
			<polygon class="st10" points="211.6,141.8 212.2,141.4 210.1,140.2 209.5,140.5 			"/>
		</g>
		<g>
			<polygon class="st10" points="212.7,145.4 213.3,145 212.2,144.4 211.6,144.7 			"/>
		</g>
		<g>
			<polygon class="st9" points="212.7,145.5 213.3,145.2 213.3,145 212.7,145.4 			"/>
		</g>
		<g>
			<polygon class="st11" points="209.5,140.5 209.5,140.7 211.4,141.8 211.4,144.8 212.7,145.5 212.7,145.4 211.6,144.7 
				211.6,141.8 			"/>
		</g>
	</g>
	<g>
		<g>
			<polygon class="st9" points="213.2,143.8 213.8,143.5 213.8,140.5 213.2,140.8 			"/>
		</g>
		<g>
			<polygon class="st10" points="213.2,140.8 213.8,140.5 211.7,139.2 211.1,139.6 			"/>
		</g>
		<g>
			<polygon class="st10" points="214.3,144.4 214.9,144.1 213.8,143.5 213.2,143.8 			"/>
		</g>
		<g>
			<polygon class="st9" points="214.3,144.6 214.9,144.3 214.9,144.1 214.3,144.4 			"/>
		</g>
		<g>
			<polygon class="st11" points="211.1,139.6 211.1,139.8 213,140.9 213,143.9 214.3,144.6 214.3,144.4 213.2,143.8 213.2,140.8 			
				"/>
		</g>
	</g>
	<g>
		<g>
			<polygon class="st9" points="214.8,142.9 215.4,142.5 215.4,139.5 214.8,139.9 			"/>
		</g>
		<g>
			<polygon class="st10" points="214.8,139.9 215.4,139.5 213.3,138.3 212.7,138.7 			"/>
		</g>
		<g>
			<polygon class="st10" points="215.9,143.5 216.5,143.2 215.4,142.5 214.8,142.9 			"/>
		</g>
		<g>
			<polygon class="st9" points="215.9,143.7 216.5,143.3 216.5,143.2 215.9,143.5 			"/>
		</g>
		<g>
			<polygon class="st11" points="212.7,138.7 212.7,138.8 214.6,140 214.6,142.9 215.9,143.7 215.9,143.5 214.8,142.9 214.8,139.9 
							"/>
		</g>
	</g>
	<g>
		<g>
			<polygon class="st9" points="216.4,141.9 217,141.6 217,138.6 216.4,139 			"/>
		</g>
		<g>
			<polygon class="st10" points="216.4,139 217,138.6 214.9,137.4 214.3,137.7 			"/>
		</g>
		<g>
			<polygon class="st10" points="217.5,142.6 218.1,142.2 217,141.6 216.4,141.9 			"/>
		</g>
		<g>
			<polygon class="st9" points="217.5,142.8 218.1,142.4 218.1,142.2 217.5,142.6 			"/>
		</g>
		<g>
			<polygon class="st11" points="214.3,137.7 214.3,137.9 216.2,139 216.2,142 217.5,142.8 217.5,142.6 216.4,141.9 216.4,139 			
				"/>
		</g>
	</g>
	<g>
		<g>
			<polygon class="st9" points="218,141 218.6,140.7 218.6,137.7 218,138 			"/>
		</g>
		<g>
			<polygon class="st10" points="218,138 218.6,137.7 216.5,136.5 215.9,136.8 			"/>
		</g>
		<g>
			<polygon class="st10" points="219.1,141.6 219.7,141.3 218.6,140.7 218,141 			"/>
		</g>
		<g>
			<polygon class="st9" points="219.1,141.8 219.7,141.5 219.7,141.3 219.1,141.6 			"/>
		</g>
		<g>
			<polygon class="st11" points="215.9,136.8 215.9,137 217.8,138.1 217.8,141.1 219.1,141.8 219.1,141.6 218,141 218,138 			"/>
		</g>
	</g>
	<g>
		<g>
			<polygon class="st9" points="219.6,140.1 220.2,139.8 220.2,136.8 219.6,137.1 			"/>
		</g>
		<g>
			<polygon class="st10" points="219.6,137.1 220.2,136.8 218.1,135.5 217.5,135.9 			"/>
		</g>
		<g>
			<polygon class="st10" points="220.7,140.7 221.3,140.4 220.2,139.8 219.6,140.1 			"/>
		</g>
		<g>
			<polygon class="st9" points="220.7,140.9 221.3,140.6 221.3,140.4 220.7,140.7 			"/>
		</g>
		<g>
			<polygon class="st11" points="217.5,135.9 217.5,136.1 219.4,137.2 219.4,140.2 220.7,140.9 220.7,140.7 219.6,140.1 
				219.6,137.1 			"/>
		</g>
	</g>
	<g>
		<g>
			<polygon class="st9" points="221.2,139.2 221.8,138.8 221.8,135.9 221.2,136.2 			"/>
		</g>
		<g>
			<polygon class="st10" points="221.2,136.2 221.8,135.9 219.7,134.6 219.1,135 			"/>
		</g>
		<g>
			<polygon class="st10" points="222.3,139.8 222.9,139.5 221.8,138.8 221.2,139.2 			"/>
		</g>
		<g>
			<polygon class="st9" points="222.3,140 222.9,139.7 222.9,139.5 222.3,139.8 			"/>
		</g>
		<g>
			<polygon class="st11" points="219.1,135 219.1,135.2 221,136.3 221,139.3 222.3,140 222.3,139.8 221.2,139.2 221.2,136.2 			"/>
		</g>
	</g>
	<g>
		<g>
			<polygon class="st9" points="222.8,138.3 223.4,137.9 223.4,134.9 222.8,135.3 			"/>
		</g>
		<g>
			<polygon class="st10" points="222.8,135.3 223.4,134.9 221.3,133.7 220.7,134 			"/>
		</g>
		<g>
			<polygon class="st10" points="223.9,138.9 224.5,138.5 223.4,137.9 222.8,138.3 			"/>
		</g>
		<g>
			<polygon class="st9" points="223.9,139.1 224.5,138.7 224.5,138.5 223.9,138.9 			"/>
		</g>
		<g>
			<polygon class="st11" points="220.7,134 220.7,134.2 222.6,135.3 222.6,138.3 223.9,139.1 223.9,138.9 222.8,138.3 222.8,135.3 
							"/>
		</g>
	</g>
	<g>
		<g>
			<polygon class="st9" points="224.4,137.3 225,137 225,134 224.4,134.3 			"/>
		</g>
		<g>
			<polygon class="st10" points="224.4,134.3 225,134 222.9,132.8 222.3,133.1 			"/>
		</g>
		<g>
			<polygon class="st10" points="225.5,137.9 226.1,137.6 225,137 224.4,137.3 			"/>
		</g>
		<g>
			<polygon class="st9" points="225.5,138.1 226.1,137.8 226.1,137.6 225.5,137.9 			"/>
		</g>
		<g>
			<polygon class="st11" points="222.3,133.1 222.3,133.3 224.2,134.4 224.2,137.4 225.5,138.1 225.5,137.9 224.4,137.3 
				224.4,134.3 			"/>
		</g>
	</g>
	<g>
		<g>
			<polygon class="st9" points="226,136.4 226.6,136.1 226.6,133.1 226,133.4 			"/>
		</g>
		<g>
			<polygon class="st10" points="226,133.4 226.6,133.1 224.5,131.8 223.9,132.2 			"/>
		</g>
		<g>
			<polygon class="st10" points="227.1,137 227.7,136.7 226.6,136.1 226,136.4 			"/>
		</g>
		<g>
			<polygon class="st9" points="227.1,137.2 227.7,136.9 227.7,136.7 227.1,137 			"/>
		</g>
		<g>
			<polygon class="st11" points="223.9,132.2 223.9,132.4 225.9,133.5 225.8,136.5 227.1,137.2 227.1,137 226,136.4 226,133.4 			
				"/>
		</g>
	</g>
	<g>
		<g>
			<polygon class="st9" points="227.6,135.5 228.2,135.1 228.2,132.2 227.6,132.5 			"/>
		</g>
		<g>
			<polygon class="st10" points="227.6,132.5 228.2,132.2 226.1,130.9 225.5,131.3 			"/>
		</g>
		<g>
			<polygon class="st10" points="228.7,136.1 229.3,135.8 228.2,135.1 227.6,135.5 			"/>
		</g>
		<g>
			<polygon class="st9" points="228.7,136.3 229.3,135.9 229.3,135.8 228.7,136.1 			"/>
		</g>
		<g>
			<polygon class="st11" points="225.5,131.3 225.5,131.5 227.4,132.6 227.4,135.6 228.7,136.3 228.7,136.1 227.6,135.5 
				227.6,132.5 			"/>
		</g>
	</g>
	<g>
		<g>
			<polygon class="st9" points="229.2,134.6 229.8,134.2 229.8,131.2 229.2,131.6 			"/>
		</g>
		<g>
			<polygon class="st10" points="229.2,131.6 229.8,131.2 227.7,130 227.1,130.3 			"/>
		</g>
		<g>
			<polygon class="st10" points="230.3,135.2 230.9,134.8 229.8,134.2 229.2,134.6 			"/>
		</g>
		<g>
			<polygon class="st9" points="230.3,135.4 230.9,135 230.9,134.8 230.3,135.2 			"/>
		</g>
		<g>
			<polygon class="st11" points="227.1,130.3 227.1,130.5 229,131.7 229,134.6 230.3,135.4 230.3,135.2 229.2,134.6 229.2,131.6 			
				"/>
		</g>
	</g>
	<g>
		<g>
			<polygon class="st9" points="230.8,133.6 231.4,133.3 231.4,130.3 230.8,130.7 			"/>
		</g>
		<g>
			<polygon class="st10" points="230.8,130.7 231.4,130.3 229.3,129.1 228.7,129.4 			"/>
		</g>
		<g>
			<polygon class="st10" points="231.9,134.3 232.5,133.9 231.4,133.3 230.8,133.6 			"/>
		</g>
		<g>
			<polygon class="st9" points="231.9,134.4 232.5,134.1 232.5,133.9 231.9,134.3 			"/>
		</g>
		<g>
			<polygon class="st11" points="228.7,129.4 228.7,129.6 230.7,130.7 230.6,133.7 231.9,134.4 231.9,134.3 230.8,133.6 
				230.8,130.7 			"/>
		</g>
	</g>
	<g>
		<g>
			<polygon class="st9" points="232.4,132.7 233,132.4 233,129.4 232.5,129.7 			"/>
		</g>
		<g>
			<polygon class="st10" points="232.5,129.7 233,129.4 230.9,128.2 230.3,128.5 			"/>
		</g>
		<g>
			<polygon class="st10" points="233.5,133.3 234.1,133 233,132.4 232.4,132.7 			"/>
		</g>
		<g>
			<polygon class="st9" points="233.5,133.5 234.1,133.2 234.1,133 233.5,133.3 			"/>
		</g>
		<g>
			<polygon class="st11" points="230.3,128.5 230.3,128.7 232.3,129.8 232.2,132.8 233.5,133.5 233.5,133.3 232.4,132.7 
				232.5,129.7 			"/>
		</g>
	</g>
	<g>
		<g>
			<polygon class="st9" points="234,131.8 234.6,131.4 234.6,128.4 234,128.8 			"/>
		</g>
		<g>
			<polygon class="st10" points="234,128.8 234.6,128.4 232.5,127.2 231.9,127.6 			"/>
		</g>
		<g>
			<polygon class="st10" points="235.1,132.4 235.7,132.1 234.6,131.4 234,131.8 			"/>
		</g>
		<g>
			<polygon class="st9" points="235.1,132.6 235.7,132.2 235.7,132.1 235.1,132.4 			"/>
		</g>
		<g>
			<polygon class="st11" points="231.9,127.6 231.9,127.8 233.9,128.9 233.8,131.8 235.1,132.6 235.1,132.4 234,131.8 234,128.8 			
				"/>
		</g>
	</g>
	<g>
		<g>
			<polygon class="st9" points="235.7,130.9 236.3,130.5 236.3,127.5 235.7,127.9 			"/>
		</g>
		<g>
			<polygon class="st10" points="235.7,127.9 236.3,127.5 234.1,126.3 233.5,126.6 			"/>
		</g>
		<g>
			<polygon class="st10" points="236.8,131.5 237.4,131.1 236.3,130.5 235.7,130.9 			"/>
		</g>
		<g>
			<polygon class="st9" points="236.8,131.7 237.4,131.3 237.4,131.1 236.8,131.5 			"/>
		</g>
		<g>
			<polygon class="st11" points="233.5,126.6 233.5,126.8 235.5,128 235.5,130.9 236.8,131.7 236.8,131.5 235.7,130.9 235.7,127.9 
							"/>
		</g>
	</g>
	<g>
		<g>
			<polygon class="st9" points="237.2,129.9 237.8,129.6 237.8,126.6 237.2,126.9 			"/>
		</g>
		<g>
			<polygon class="st10" points="237.2,126.9 237.8,126.6 235.7,125.4 235.1,125.7 			"/>
		</g>
		<g>
			<polygon class="st10" points="238.3,130.6 238.9,130.2 237.8,129.6 237.2,129.9 			"/>
		</g>
		<g>
			<polygon class="st9" points="238.3,130.7 238.9,130.4 238.9,130.2 238.3,130.6 			"/>
		</g>
		<g>
			<polygon class="st11" points="235.1,125.7 235.1,125.9 237,127 237,130 238.3,130.7 238.3,130.6 237.2,129.9 237.2,126.9 			"/>
		</g>
	</g>
	<g>
		<g>
			<polygon class="st9" points="238.9,129 239.4,128.7 239.5,125.7 238.9,126 			"/>
		</g>
		<g>
			<polygon class="st10" points="238.9,126 239.5,125.7 237.3,124.4 236.7,124.8 			"/>
		</g>
		<g>
			<polygon class="st10" points="240,129.6 240.5,129.3 239.4,128.7 238.9,129 			"/>
		</g>
		<g>
			<polygon class="st9" points="240,129.8 240.5,129.5 240.5,129.3 240,129.6 			"/>
		</g>
		<g>
			<polygon class="st11" points="236.7,124.8 236.7,125 238.7,126.1 238.7,129.1 240,129.8 240,129.6 238.9,129 238.9,126 			"/>
		</g>
	</g>
	<g>
		<g>
			<polygon class="st9" points="240.5,128.1 241,127.7 241,124.7 240.5,125.1 			"/>
		</g>
		<g>
			<polygon class="st10" points="240.5,125.1 241,124.7 238.9,123.5 238.3,123.9 			"/>
		</g>
		<g>
			<polygon class="st10" points="241.5,128.7 242.1,128.4 241,127.7 240.5,128.1 			"/>
		</g>
		<g>
			<polygon class="st9" points="241.5,128.9 242.1,128.5 242.1,128.4 241.5,128.7 			"/>
		</g>
		<g>
			<polygon class="st11" points="238.3,123.9 238.3,124.1 240.3,125.2 240.3,128.1 241.5,128.9 241.5,128.7 240.5,128.1 
				240.5,125.1 			"/>
		</g>
	</g>
	<g>
		<g>
			<polygon class="st9" points="242,127.1 242.6,126.8 242.6,123.8 242,124.2 			"/>
		</g>
		<g>
			<polygon class="st10" points="242,124.2 242.6,123.8 240.5,122.6 239.9,122.9 			"/>
		</g>
		<g>
			<polygon class="st10" points="243.1,127.8 243.7,127.4 242.6,126.8 242,127.1 			"/>
		</g>
		<g>
			<polygon class="st9" points="243.1,127.9 243.7,127.6 243.7,127.4 243.1,127.8 			"/>
		</g>
		<g>
			<polygon class="st11" points="239.9,122.9 239.9,123.1 241.9,124.2 241.8,127.2 243.1,127.9 243.1,127.8 242,127.1 242,124.2 			
				"/>
		</g>
	</g>
	<g>
		<polygon class="st12" points="131.1,68.5 182.3,38.9 233.6,68.5 182.3,98.1 		"/>
	</g>
	<g>
		<polygon class="st1" points="129.9,68.5 129.9,69.3 182.3,99.6 182.3,98.8 		"/>
	</g>
	<g>
		<polygon class="st2" points="234.8,68.5 234.8,69.3 182.3,99.6 182.3,98.8 		"/>
	</g>
	<g>
		<path class="st13" d="M182.3,38.2l-52.4,30.3l52.4,30.3l52.4-30.3L182.3,38.2z M133.8,68.4l48.6-28l48.6,28l-48.6,28.1L133.8,68.4
			z"/>
	</g>
	<g>
		<polygon class="st13" points="151.5,68.4 182.3,50.6 213.2,68.4 182.3,86.3 		"/>
	</g>
	<g>
		<path class="st14" d="M172.1,69.6c-0.8-0.1-1.5,0-2.2,0.4c-1.3,0.7-0.9,2,0.8,3s4,1.2,5.2,0.5c0.6-0.2,0.8-0.8,0.6-1.4
			c0,0,0-0.1-0.1-0.1l2.7-0.1c0.5,1-0.1,1.9-1.1,2.6c-2.4,1.4-6.1,1.3-9.1-0.5s-3.2-3.9-0.8-5.3c1.2-0.7,2.6-0.9,4-0.7L172.1,69.6z"
			/>
	</g>
	<g>
		<path class="st14" d="M172,66.8l2.9-1.7c1.8-1.1,4-1.1,5.8,0c2.2,1.3,1.7,2.4,0.1,3.3l-1.2,0.7l3.7,2.1l-1.7,1L172,66.8z
			 M177.7,68.2l1.1-0.7c0.6-0.3,0.9-0.8,0.1-1.3c-0.8-0.4-1.8-0.4-2.6,0.2l-0.9,0.5L177.7,68.2z"/>
	</g>
	<g>
		<path class="st14" d="M191.1,62.5c2.2,1.3,2.8,2.9,0.6,4.1c-2.3,1.1-5,1-7.1-0.4l-5.8-3.4l1.7-1l5.7,3.3c1.1,0.7,2.4,0.8,3.6,0.3
			c0.9-0.5,0.7-1.4-0.5-2.1l-5.7-3.3l1.7-1L191.1,62.5z"/>
	</g>
	<g>
		<circle class="st15" cx="237.6" cy="98.4" r="6.7"/>
	</g>
	<g>
		<path class="st16" d="M237.6,94.1c2.3,0,4.2,1.9,4.2,4.2c0,2.3-1.9,4.2-4.2,4.2s-4.2-1.9-4.2-4.2l0,0
			C233.4,96,235.3,94.1,237.6,94.1 M237.6,89.1c-5.1,0-9.2,4.1-9.2,9.2s4.1,9.2,9.2,9.2c5.1,0,9.2-4.1,9.2-9.2l0,0
			C246.8,93.2,242.7,89.1,237.6,89.1z"/>
	</g>
	<g>
		
			<rect x="241.9" y="88.6" transform="matrix(0.8145 -0.5801 0.5801 0.8145 -5.8052 161.0281)" class="st16" width="14.1" height="2"/>
	</g>
	<g>
		<rect x="254.4" y="84.5" class="st16" width="68.4" height="2"/>
	</g>
	<g>
		<path class="st17" d="M147.8,145.5c-3.7,0-6.7-3-6.7-6.7s3-6.7,6.7-6.7s6.7,3,6.7,6.7l0,0C154.5,142.5,151.5,145.5,147.8,145.5z"
			/>
	</g>
	<g>
		<path class="st18" d="M147.8,134.5c2.3,0,4.2,1.9,4.2,4.2s-1.9,4.2-4.2,4.2s-4.2-1.9-4.2-4.2l0,0
			C143.6,136.4,145.5,134.5,147.8,134.5 M147.8,129.5c-5.1,0-9.2,4.1-9.2,9.2c0,5.1,4.1,9.2,9.2,9.2c5.1,0,9.2-4.1,9.2-9.2l0,0
			C157,133.7,152.9,129.5,147.8,129.5z"/>
	</g>
	<g>
		
			<rect x="128.8" y="150.9" transform="matrix(0.6445 -0.7646 0.7646 0.6445 -67.2264 159.2768)" class="st18" width="17.8" height="2"/>
	</g>
	<g>
		<rect x="63.9" y="157.7" class="st18" width="68.4" height="2"/>
	</g>
	<g>
		<path class="st19" d="M330.5,60.1h-2.3v-0.6h5.3v0.6h-2.4v6.8h-0.6V60.1z"/>
	</g>
	<g>
		<path class="st19" d="M333.5,64.7v-1.1c0-1.3,1-2.3,2.3-2.3s2.3,1,2.3,2.3l0,0v0.7h-4v0.4c0,1.3,0.6,1.9,1.7,1.9
			c1,0,1.6-0.5,1.6-1.2h0.6c-0.1,1.2-0.9,1.8-2.2,1.8c-1.2,0.1-2.2-0.7-2.4-1.8C333.4,65,333.4,64.8,333.5,64.7z M337.5,63.7
			L337.5,63.7c0-1.4-0.6-2-1.7-2s-1.7,0.6-1.7,1.9v0.1H337.5z"/>
	</g>
	<g>
		<path class="st19" d="M339.7,61.3h0.5v1c0.3-0.7,1.1-1.2,1.9-1.2c0.8-0.1,1.4,0.4,1.6,1.2c0.3-0.7,1.1-1.2,1.9-1.2
			c1.1,0,1.7,0.7,1.7,1.9v3.9h-0.6v-3.8c0-0.9-0.4-1.4-1.2-1.4s-1.3,0.5-1.7,1.4v3.8h-0.6v-3.8c0-0.9-0.4-1.4-1.1-1.4
			s-1.3,0.5-1.7,1.4v3.7h-0.6L339.7,61.3z"/>
	</g>
	<g>
		<path class="st19" d="M349.2,61.3h0.5v1.1c0.4-0.8,1.2-1.2,2.1-1.2c1.3,0,2,0.8,2,2.3v1.3c0,1.5-0.8,2.3-2,2.3
			c-0.8,0-1.6-0.4-2-1.1v3h-0.6V61.3z M353.3,64.7v-1.2c0-1.2-0.5-1.8-1.5-1.8c-0.9,0-1.7,0.6-2,1.5V65c0.3,0.9,1.1,1.5,2,1.5
			C352.7,66.5,353.3,65.9,353.3,64.7L353.3,64.7z"/>
	</g>
	<g>
		<path class="st19" d="M355.2,64.7v-1.1c0-1.3,1-2.3,2.3-2.3s2.3,1,2.3,2.3l0,0v0.7h-4v0.4c0,1.3,0.6,1.9,1.7,1.9
			c1,0,1.6-0.5,1.6-1.2h0.6c-0.1,1.2-0.9,1.8-2.2,1.8c-1.2,0.1-2.2-0.7-2.4-1.8C355.2,65,355.2,64.8,355.2,64.7z M359.2,63.7
			L359.2,63.7c0-1.4-0.6-2-1.7-2s-1.7,0.6-1.7,1.9v0.1H359.2z"/>
	</g>
	<g>
		<path class="st19" d="M361.5,61.3h0.5v1.2c0.2-0.8,0.9-1.3,1.7-1.3h0.4v0.6h-0.3c-1,0-1.5,0.5-1.7,1.7v3.4h-0.6V61.3z"/>
	</g>
	<g>
		<path class="st19" d="M364.7,65.4c0-1.1,0.7-1.7,2.3-1.7h1.6v-0.5c0-1-0.5-1.5-1.5-1.5s-1.5,0.4-1.6,1.2h-0.6
			c0.1-1.2,0.9-1.8,2.2-1.8s2.1,0.7,2.1,2v3.7h-0.5V66c-0.5,0.7-1.3,1.1-2.1,1.1C365.5,67,364.7,66.5,364.7,65.4z M368.6,65.3v-1.1
			H367c-1.2,0-1.7,0.4-1.7,1.2s0.5,1.2,1.3,1.2C367.5,66.5,368.3,66.1,368.6,65.3L368.6,65.3z"/>
	</g>
	<g>
		<path class="st19" d="M371.2,65.3v-3.4h-1v-0.5h1.1l0.1-1.5h0.5v1.5h1.5v0.5h-1.5v3.4c0,0.8,0.2,1.1,0.9,1.1h0.7v0.5h-0.8
			C371.7,66.9,371.2,66.4,371.2,65.3z"/>
	</g>
	<g>
		<path class="st19" d="M374.7,65v-3.7h0.6V65c0,1,0.4,1.5,1.3,1.5s1.7-0.6,1.9-1.5v-3.7h0.6v5.6h-0.5v-1.1c-0.4,0.8-1.2,1.2-2,1.2
			C375.3,67,374.7,66.3,374.7,65z"/>
	</g>
	<g>
		<path class="st19" d="M381,61.3h0.5v1.2c0.2-0.8,0.9-1.3,1.7-1.3h0.4v0.6h-0.3c-1,0-1.5,0.5-1.7,1.7v3.4H381V61.3z"/>
	</g>
	<g>
		<path class="st19" d="M384.5,64.7v-1.1c0-1.3,1-2.3,2.3-2.3s2.3,1,2.3,2.3l0,0v0.7h-4v0.4c0,1.3,0.6,1.9,1.7,1.9
			c1,0,1.6-0.5,1.6-1.2h0.6c-0.1,1.2-0.9,1.8-2.2,1.8c-1.2,0.1-2.2-0.7-2.4-1.8C384.4,65,384.4,64.8,384.5,64.7z M388.5,63.7
			L388.5,63.7c0-1.4-0.5-2-1.7-2s-1.7,0.6-1.7,1.9v0.1H388.5z"/>
	</g>
	<g>
		<path class="st16" d="M343.3,79.4h-9v-2h11.4v2.1c-4,3.6-6.4,8.6-6.6,14h-2.2C337.1,88.1,339.4,83,343.3,79.4z"/>
	</g>
	<g>
		<path class="st16" d="M348.7,89.3h2c0.1,1.6,1.4,2.6,3.5,2.6c2.4,0,3.7-1.2,3.7-3.5s-1.3-3.5-3.5-3.5c-1.2,0-2.4,0.4-3.3,1.2h-1.9
			l0.5-8.7h9.6v2h-7.7l-0.3,4.8c1-0.8,2.3-1.2,3.6-1.1c3.3,0,5.2,1.9,5.2,5.3c0,3.6-2.1,5.4-5.8,5.4S348.8,92.1,348.7,89.3z"/>
	</g>
	<g>
		<path class="st16" d="M362.1,80.3c0-2.1,1.7-3.7,3.7-3.7c2.1,0,3.7,1.7,3.7,3.7s-1.7,3.7-3.7,3.7c-2,0.1-3.6-1.5-3.7-3.5
			C362.1,80.5,362.1,80.4,362.1,80.3z M367.9,80.3c0-1.1-1-2-2.1-1.9c-1.1,0-2,1-1.9,2.1c0,1.1,0.9,1.9,2,1.9S367.9,81.5,367.9,80.3
			C367.9,80.4,367.9,80.3,367.9,80.3L367.9,80.3z"/>
	</g>
	<g>
		<path class="st16" d="M371.8,87.4v-3.9c0-4.2,2-6.4,6-6.4c3.8,0,5.7,1.8,5.9,5.6h-2.1c-0.1-2.5-1.3-3.7-3.8-3.7
			c-2.7,0-3.9,1.4-3.9,4.5v3.8c0,3.1,1.2,4.5,3.9,4.5c2.5,0,3.7-1.2,3.8-3.6h2.1c-0.1,3.7-2.1,5.6-5.9,5.6
			C373.7,93.8,371.8,91.7,371.8,87.4z"/>
	</g>
	<g>
		<path class="st19" d="M0.5,136.5v-1.9c0-1.9,0.9-2.9,2.7-2.9c1.3-0.2,2.5,0.7,2.6,2c0,0.1,0,0.3,0,0.4H5.2c0-1-0.7-1.8-1.7-1.9
			c-0.1,0-0.2,0-0.3,0c-1.4,0-2.1,0.8-2.1,2.3v1.9c0,1.6,0.7,2.3,2.1,2.3c1,0.1,1.9-0.6,2-1.5c0-0.1,0-0.2,0-0.3h0.6
			c0,1.3-1,2.4-2.3,2.4c-0.1,0-0.3,0-0.4,0C1.4,139.3,0.5,138.4,0.5,136.5z"/>
	</g>
	<g>
		<path class="st19" d="M7.5,131.8h2.8c1.7,0,2.4,0.7,2.4,2.2s-0.7,2.2-2.4,2.2H8.1v3H7.5V131.8z M10.2,135.6c1.3,0,1.8-0.5,1.8-1.6
			s-0.5-1.7-1.8-1.7H8.1v3.2L10.2,135.6z"/>
	</g>
	<g>
		<path class="st19" d="M14,136.8v-5h0.6v5c0,1.4,0.6,2,2,2s2-0.5,2-2v-5h0.6v5c0,1.8-0.8,2.5-2.6,2.5S14,138.6,14,136.8z"/>
	</g>
	<g>
		<path class="st19" d="M23.9,136.8v-5h0.6v5c0,1.4,0.5,2,2,2s2-0.5,2-2v-5h0.6v5c0,1.8-0.8,2.5-2.6,2.5S23.9,138.6,23.9,136.8z"/>
	</g>
	<g>
		<path class="st19" d="M30.6,137.6h0.6c0,0.8,0.5,1.2,1.6,1.2s1.6-0.4,1.6-1.1s-0.5-1-1.7-1.1c-1.5-0.1-2-0.6-2-1.5
			s0.8-1.6,2.1-1.6s2.1,0.6,2.1,1.7h-0.6c0-0.7-0.5-1.1-1.5-1.1s-1.5,0.4-1.5,1.1s0.4,0.9,1.6,1c1.5,0.1,2.1,0.6,2.1,1.6
			s-0.8,1.7-2.2,1.7S30.6,138.7,30.6,137.6z"/>
	</g>
	<g>
		<path class="st19" d="M36.1,137.7c0-1.1,0.7-1.7,2.3-1.7H40v-0.5c0-1-0.5-1.5-1.5-1.5s-1.5,0.4-1.6,1.2h-0.6
			c0.1-1.2,0.9-1.8,2.2-1.8s2.1,0.7,2.1,2v3.7h-0.5v-0.9c-0.5,0.7-1.3,1.1-2.2,1c-0.9,0.1-1.7-0.5-1.8-1.3
			C36.1,137.9,36.1,137.8,36.1,137.7z M40,137.6v-1.1h-1.6c-1.2,0-1.7,0.4-1.7,1.1s0.5,1.2,1.3,1.2C38.9,138.8,39.6,138.4,40,137.6z
			"/>
	</g>
	<g>
		<path class="st19" d="M42.3,139.7h0.6c0.1,0.8,0.7,1.1,1.6,1.1c1.2,0,1.7-0.5,1.7-1.7V138c-0.4,0.7-1.2,1.1-2,1.1
			c-1.3,0-2-0.8-2-2.3v-1c0-1.5,0.8-2.3,2-2.3c0.9,0,1.7,0.5,2.1,1.2v-1.1h0.5v5.5c0,1.5-0.8,2.2-2.3,2.2
			C43.2,141.3,42.5,140.7,42.3,139.7z M46.3,137.1v-1.6c-0.3-0.9-1.1-1.5-2-1.5c-1,0-1.5,0.6-1.5,1.8v0.9c0,1.2,0.5,1.8,1.5,1.8
			C45.2,138.5,46,137.9,46.3,137.1z"/>
	</g>
	<g>
		<path class="st19" d="M48.6,137v-1.1c0-1.3,1-2.3,2.3-2.3s2.3,1,2.3,2.3l0,0v0.7h-4v0.4c0,1.3,0.6,1.9,1.7,1.9
			c1,0,1.6-0.5,1.6-1.2h0.6c-0.1,1.1-0.9,1.8-2.2,1.8c-1.2,0.1-2.2-0.7-2.4-1.8C48.5,137.3,48.5,137.1,48.6,137z M52.6,136v-0.1
			c0-1.3-0.6-1.9-1.7-1.9s-1.7,0.6-1.7,1.9v0.1H52.6z"/>
	</g>
	<g>
		<path class="st17" d="M1.8,162.1h2c0.1,1.6,1.2,2.5,3.2,2.5c2.4,0,3.6-1.2,3.6-3.7v-2.3c-1,1.2-2.6,1.8-4.1,1.8
			c-3.1,0-4.9-1.8-4.9-5.1s1.9-5.4,5.5-5.4s5.6,1.9,5.6,5.5v5.7c0,3.6-2,5.5-5.7,5.5C3.7,166.4,1.9,164.9,1.8,162.1z M10.6,155.8
			v-0.5c0-2.4-1.2-3.6-3.6-3.6s-3.4,1.2-3.4,3.4s1.1,3.3,3.2,3.3C8.5,158.5,10.1,157.4,10.6,155.8z"/>
	</g>
	<g>
		<path class="st17" d="M16,161.1v-6c0-3.5,1.9-5.4,5.5-5.4s5.5,1.9,5.5,5.4v6c0,3.5-1.9,5.4-5.5,5.4S16,164.5,16,161.1z M25,160.9
			v-5.7c0-2.4-1.1-3.6-3.5-3.6s-3.5,1.2-3.5,3.6v5.7c0,2.4,1.1,3.6,3.5,3.6S25,163.3,25,160.9L25,160.9z"/>
	</g>
	<g>
		<path class="st17" d="M35.9,155.5v-2.6c0-2.1,1.2-3.2,3.5-3.2s3.5,1.1,3.5,3.2v2.6c0,2.1-1.2,3.2-3.5,3.2S35.9,157.6,35.9,155.5z
			 M41,155.4V153c0.1-0.8-0.5-1.6-1.3-1.7c-0.1,0-0.3,0-0.4,0c-0.8-0.1-1.6,0.4-1.7,1.3c0,0.1,0,0.3,0,0.4v2.4
			c-0.1,0.8,0.4,1.6,1.3,1.7c0.2,0,0.3,0,0.5,0c0.8,0.1,1.6-0.5,1.7-1.3C41.1,155.7,41.1,155.6,41,155.4z M47.9,149.8h1.8l-9.5,16.7
			h-1.8L47.9,149.8z M45.3,163.2v-2.6c0-2.1,1.2-3.2,3.5-3.2s3.5,1.1,3.5,3.2v2.6c0,2.1-1.2,3.2-3.5,3.2S45.3,165.3,45.3,163.2z
			 M50.4,163.1v-2.4c0.1-1-0.6-1.8-1.6-1.9s-1.8,0.6-1.9,1.6c0,0.1,0,0.2,0,0.3v2.4c-0.1,1,0.6,1.8,1.6,1.9s1.8-0.6,1.9-1.6
			C50.4,163.3,50.4,163.2,50.4,163.1z"/>
	</g>
	<g>
		<path class="st19" d="M30.5,4.5V2.6c0-1.9,0.9-2.9,2.7-2.9c1.3-0.2,2.5,0.7,2.6,2c0,0.1,0,0.3,0,0.4h-0.6c0-1-0.7-1.8-1.7-1.9
			c-0.1,0-0.2,0-0.3,0c-1.4,0-2.1,0.8-2.1,2.3v1.9c0,1.6,0.7,2.3,2.1,2.3c1,0.1,1.9-0.6,2-1.5c0-0.1,0-0.2,0-0.3h0.6
			C36,6.3,35,7.4,33.7,7.4c-0.1,0-0.3,0-0.4,0C31.5,7.4,30.5,6.4,30.5,4.5z"/>
	</g>
	<g>
		<path class="st19" d="M37.6-0.1h2.8c1.7,0,2.4,0.7,2.4,2.2S42,4.2,40.3,4.2h-2.1v3.1h-0.6L37.6-0.1z M40.3,3.7
			c1.3,0,1.8-0.5,1.8-1.6s-0.5-1.6-1.8-1.6h-2.1v3.2C38.2,3.7,40.3,3.7,40.3,3.7z"/>
	</g>
	<g>
		<path class="st19" d="M44.1,4.9v-5h0.6v5c0,1.4,0.5,2,2,2s2-0.5,2-2v-5h0.6v5c0,1.8-0.8,2.5-2.6,2.5S44.1,6.7,44.1,4.9z"/>
	</g>
	<g>
		<path class="st19" d="M54.2-0.1h0.6v6.8h3.9v0.6h-4.5V-0.1z"/>
	</g>
	<g>
		<path class="st19" d="M59.7,5V4c0-1.3,1.1-2.4,2.4-2.4s2.4,1.1,2.4,2.4l0,0v1c0,1.3-1.1,2.4-2.4,2.4S59.7,6.3,59.7,5L59.7,5z
			 M63.9,5V4c0-1.3-0.6-1.9-1.8-1.9S60.3,2.7,60.3,4v1c0,1.3,0.6,1.9,1.8,1.9S63.9,6.2,63.9,5L63.9,5z"/>
	</g>
	<g>
		<path class="st19" d="M65.7,5.8c0-1.1,0.7-1.7,2.3-1.7h1.6V3.6c0-1-0.5-1.5-1.6-1.5s-1.5,0.4-1.6,1.2h-0.6
			c0.1-1.2,0.8-1.8,2.2-1.8s2.1,0.7,2.1,2v3.8h-0.5V6.4c-0.5,0.7-1.3,1.1-2.1,1.1c-0.9,0.1-1.7-0.4-1.8-1.3
			C65.7,6,65.7,5.9,65.7,5.8z M69.6,5.7V4.6H68c-1.2,0-1.7,0.4-1.7,1.1s0.4,1.2,1.3,1.2C68.5,6.9,69.3,6.4,69.6,5.7z"/>
	</g>
	<g>
		<path class="st19" d="M71.8,5.1V3.9c0-1.5,0.8-2.3,2-2.3c0.8,0,1.6,0.4,2,1.1v-3.4h0.7v8H76V6.2c-0.4,0.8-1.2,1.3-2.1,1.3
			C72.6,7.4,71.8,6.6,71.8,5.1z M75.9,5.4V3.6c-0.3-0.9-1.1-1.5-2-1.5c-1,0-1.5,0.6-1.5,1.8v1.2c0,1.2,0.5,1.8,1.5,1.8
			C74.8,6.9,75.6,6.3,75.9,5.4z"/>
	</g>
	<g>
		<circle class="st17" cx="166.5" cy="47.1" r="6.7"/>
	</g>
	<g>
		<path class="st18" d="M166.5,42.8c2.3,0,4.2,1.9,4.2,4.2s-1.9,4.2-4.2,4.2s-4.2-1.9-4.2-4.2l0,0C162.2,44.7,164.1,42.8,166.5,42.8
			 M166.5,37.8c-5.1,0-9.2,4.1-9.2,9.2s4.1,9.2,9.2,9.2c5.1,0,9.2-4.1,9.2-9.2l0,0C175.7,42,171.6,37.8,166.5,37.8z"/>
	</g>
	<g>
		<rect x="155.4" y="25" transform="matrix(0.765 -0.644 0.644 0.765 14.8686 108.6991)" class="st18" width="2" height="17.9"/>
	</g>
	<g>
		<rect x="121.6" y="26.1" class="st18" width="29.4" height="1.4"/>
	</g>
	<rect x="-0.5" y="19.4" class="st20" width="114.3" height="19.6"/>
	<g class="st21">
		<path class="st17" d="M1,30.7v-5.5c0-3.2,1.8-5,5.1-5s5.1,1.7,5.1,5v5.5c0,3.2-1.8,5-5.1,5S1,34,1,30.7z M9.3,30.6v-5.3
			c0-2.2-1.1-3.3-3.2-3.3s-3.2,1.1-3.2,3.3v5.3c0,2.2,1.1,3.3,3.2,3.3S9.3,32.8,9.3,30.6z"/>
		<path class="st17" d="M14.7,33.2h2.2v2.2h-2.2V33.2z"/>
		<path class="st17" d="M20,31.4c0-1.9,0.9-3.1,2.6-3.7l0,0c-1.4-0.5-2.1-1.7-2.1-3.3c0-2.6,1.9-4.1,5.1-4.1s5.1,1.5,5.1,4.1
			c0,1.6-0.7,2.8-2.2,3.3l0,0c1.7,0.6,2.6,1.8,2.6,3.7c0,2.8-1.9,4.3-5.5,4.3C21.9,35.7,20,34.2,20,31.4z M29.1,31.3
			c0-1.7-1.2-2.6-3.6-2.6s-3.6,0.9-3.6,2.6s1.2,2.6,3.6,2.6C27.9,33.9,29.1,33,29.1,31.3z M28.7,24.4c0-1.6-1.1-2.5-3.2-2.5
			c-2,0-3.2,0.9-3.2,2.5s1.1,2.4,3.2,2.4S28.7,26,28.7,24.4z"/>
		<path class="st17" d="M33.9,37.1c0.6,0,1.1-0.5,1.1-1.3v-0.4h-1v-2.2h2.2v2.1c0,2-0.8,3-2.4,3.1v-1.3H33.9z"/>
		<path class="st17" d="M45.5,31.5V31h1.9v0.3c0,1.8,1.1,2.7,3.4,2.7c2.1,0,3.3-0.8,3.3-2.7c0-1.7-1.1-2.6-3.4-2.6H49v-1.8h1.7
			c2,0,3-0.8,3-2.4c0-1.7-1.1-2.5-3-2.5c-2,0-3.1,1-3.1,2.7v0.2h-1.9v-0.3c0-2.8,1.8-4.3,5.1-4.3c3.1,0,4.9,1.5,4.9,4.1
			c0,1.6-0.7,2.8-2,3.3l0,0c1.6,0.5,2.4,1.8,2.4,3.7c0,2.9-1.9,4.4-5.3,4.4C47.3,35.7,45.5,34.2,45.5,31.5z"/>
		<path class="st17" d="M59.2,33.2h2.2v2.2h-2.2V33.2z"/>
		<path class="st17" d="M75.3,20.5v1.9c-3.9,3.7-5.9,7.9-6.1,13h-2.1c0.2-5.1,2.3-9.6,6-13.1h-8.4v-1.8
			C64.7,20.5,75.3,20.5,75.3,20.5z"/>
		<path class="st17" d="M78.4,37.1c0.6,0,1.1-0.5,1.1-1.3v-0.4h-0.9v-2.2h2.2v2.1c0,2-0.8,3-2.4,3.1C78.4,38.4,78.4,37.1,78.4,37.1z
			"/>
		<path class="st17" d="M100.6,30.6c0,3.4-1.9,5.1-5.4,5.1c-3.3,0-5.1-1.6-5.2-4.1h1.9c0.1,1.5,1.3,2.4,3.3,2.4
			c2.2,0,3.5-1.1,3.5-3.3c0-2.1-1.2-3.3-3.3-3.3c-1.2,0-2.2,0.4-3.1,1.1h-1.8l0.5-8.1h8.9v1.8h-7.2l-0.3,4.4c0.9-0.7,2-1.1,3.3-1.1
			C98.8,25.7,100.6,27.4,100.6,30.6z"/>
		<path class="st17" d="M103.7,33.2h2.2v2.2h-2.2V33.2z"/>
		<path class="st17" d="M109.4,31.5V31h1.9v0.3c0,1.8,1.1,2.7,3.4,2.7c2.1,0,3.3-0.8,3.3-2.7c0-1.7-1.1-2.6-3.4-2.6h-1.7v-1.8h1.7
			c2,0,3-0.8,3-2.4c0-1.7-1.1-2.5-3-2.5c-2,0-3.1,1-3.1,2.7v0.2h-1.9v-0.3c0-2.8,1.8-4.3,5.1-4.3c3.1,0,4.9,1.5,4.9,4.1
			c0,1.6-0.7,2.8-2,3.3l0,0c1.6,0.5,2.4,1.8,2.4,3.7c0,2.9-1.9,4.4-5.3,4.4C111.2,35.7,109.4,34.2,109.4,31.5z"/>
	</g>
</g>
</svg>
