<?xml version="1.0"?>
<svg xmlns="http://www.w3.org/2000/svg" xmlns:xlink="http://www.w3.org/1999/xlink" version="1.1" id="Layer_1" x="0px" y="0px" viewBox="0 0 512.001 512.001" style="enable-background:new 0 0 512.001 512.001;" xml:space="preserve" width="512px" height="512px" class=""><g><path style="fill:#13d389" d="M112.572,13.021c-2.23-2.248-5.179-3.369-8.12-3.369c-3.812,0-6.884-3.09-6.894-6.899  c0,0,0-0.005,0-0.01c-0.018-0.192-0.077-0.381-0.225-0.54c-0.156-0.138-0.34-0.218-0.54-0.218c-0.21,0-0.392,0.079-0.545,0.218  c-0.148,0.159-0.22,0.348-0.225,0.54c0,0.005,0,0.005,0,0.005c-0.01,3.814-3.085,6.904-6.902,6.904  c-2.936,0-5.883,1.121-8.125,3.372c-2.253,2.243-3.364,5.176-3.364,8.118v57.546h38.321V21.141  C115.949,18.2,114.83,15.266,112.572,13.021z" data-original="#FDCA5C" class="" data-old_color="#13d389"/><g>
	<rect x="77.621" y="78.687" style="fill:#9c9c9c" width="38.321" height="24.294" data-original="#F77B55" class="active-path" data-old_color="#9c9c9c"/>
	<rect x="76.479" y="78.687" style="fill:#9c9c9c" width="40.622" height="11.497" data-original="#F77B55" class="active-path" data-old_color="#9c9c9c"/>
	<rect x="89.509" y="67.201" style="fill:#9c9c9c" width="14.559" height="11.5" data-original="#F77B55" class="active-path" data-old_color="#9c9c9c"/>
</g><path style="fill:#FFFFFF" d="M104.068,52.074c0,0.845-0.694,1.526-1.531,1.526H91.035c-0.842,0-1.526-0.684-1.526-1.526V36.289  c0-0.847,0.684-1.541,1.526-1.541h11.502c0.837,0,1.531,0.694,1.531,1.541V52.074z" data-original="#FFFFFF" class="" data-old_color="#ffffff"/><g>
	<path style="fill:#2c3843" d="M115.949,80.664H77.628c-1.091,0-1.974-0.883-1.974-1.974V21.141c0-3.602,1.403-6.981,3.948-9.518   c2.534-2.542,5.916-3.948,9.518-3.948c2.711,0,4.918-2.212,4.925-4.928c0.023-0.75,0.292-1.403,0.768-1.905   c1.277-1.155,2.785-1.05,3.832-0.115c0.558,0.581,0.819,1.178,0.878,1.846c0.015,2.89,2.222,5.102,4.928,5.102   c3.612,0,6.991,1.405,9.521,3.955c2.542,2.529,3.948,5.908,3.948,9.51v57.546C117.923,79.78,117.04,80.664,115.949,80.664z    M79.605,76.714h34.371V21.141c0-2.542-0.991-4.928-2.793-6.72c-1.792-1.807-4.178-2.796-6.728-2.796   c-3.259,0-6.118-1.779-7.662-4.421c-1.541,2.634-4.403,4.421-7.672,4.421c-2.545,0-4.933,0.991-6.725,2.79   c-1.802,1.792-2.79,4.18-2.79,6.725C79.605,21.141,79.605,76.714,79.605,76.714z" data-original="#232E38" class="" data-old_color="#2c3843"/>
	<path style="fill:#2c3843" d="M83.865,36.724c-1.091,0-1.974-0.886-1.974-1.974V21.141c0-1.933,0.753-3.75,2.117-5.115   c1.364-1.367,3.18-2.12,5.115-2.12c1.091,0,1.974,0.883,1.974,1.974s-0.886,1.974-1.974,1.974c-0.878,0-1.702,0.34-2.322,0.96   c-0.62,0.617-0.96,1.441-0.96,2.322v13.606C85.838,35.838,84.955,36.724,83.865,36.724z" data-original="#232E38" class="" data-old_color="#2c3843"/>
</g><rect x="77.621" y="90.189" style="fill:#9c9c9c" width="38.321" height="12.797" data-original="#F77B55" class="active-path" data-old_color="#9c9c9c"/><g>
	<path style="fill:#2c3843" d="M115.949,104.958H77.628c-1.091,0-1.974-0.886-1.974-1.974V90.187c0-1.091,0.886-1.974,1.974-1.974   h38.321c1.091,0,1.974,0.883,1.974,1.974v12.797C117.923,104.072,117.04,104.958,115.949,104.958z M79.605,101.008h34.371v-8.85   H79.605V101.008z" data-original="#232E38" class="" data-old_color="#2c3843"/>
	<path style="fill:#2c3843" d="M117.101,92.158H76.479c-1.091,0-1.974-0.883-1.974-1.974V78.687c0-1.091,0.886-1.974,1.974-1.974   h40.622c1.091,0,1.974,0.883,1.974,1.974v11.497C119.075,91.275,118.189,92.158,117.101,92.158z M78.453,88.211h36.672v-7.547   H78.453V88.211z" data-original="#232E38" class="" data-old_color="#2c3843"/>
	<path style="fill:#2c3843" d="M104.068,80.664H89.509c-1.091,0-1.974-0.883-1.974-1.974v-11.5c0-1.091,0.883-1.974,1.974-1.974   h14.559c1.091,0,1.974,0.883,1.974,1.974v11.5C106.042,79.78,105.159,80.664,104.068,80.664z M91.483,76.714h10.609v-7.552H91.483   V76.714z" data-original="#232E38" class="" data-old_color="#2c3843"/>
	<path style="fill:#2c3843" d="M102.537,55.573H91.035c-1.93,0-3.5-1.569-3.5-3.502V36.286c0-1.935,1.569-3.515,3.5-3.515h11.502   c1.933,0,3.507,1.58,3.507,3.515v15.785C106.042,54.004,104.47,55.573,102.537,55.573z M91.483,51.626h10.609V36.724H91.483V51.626   z" data-original="#232E38" class="" data-old_color="#2c3843"/>
	<path style="fill:#2c3843" d="M93.728,69.162c-1.091,0-1.974-0.883-1.974-1.974V53.599c0-1.091,0.886-1.974,1.974-1.974   c1.091,0,1.974,0.886,1.974,1.974v13.588C95.705,68.278,94.821,69.162,93.728,69.162z" data-original="#232E38" class="" data-old_color="#2c3843"/>
	<path style="fill:#2c3843" d="M99.849,69.162c-1.091,0-1.974-0.883-1.974-1.974V53.599c0-1.091,0.883-1.974,1.974-1.974   c1.091,0,1.974,0.886,1.974,1.974v13.588C101.823,68.278,100.94,69.162,99.849,69.162z" data-original="#232E38" class="" data-old_color="#2c3843"/>
</g><path style="fill:#13d389" d="M218.718,13.021c-2.237-2.25-5.184-3.372-8.125-3.372c-3.804,0-6.884-3.09-6.894-6.899  c0,0,0-0.005,0-0.01c-0.01-0.192-0.077-0.381-0.225-0.54c-0.156-0.138-0.34-0.218-0.54-0.218c-0.21,0-0.392,0.079-0.545,0.218  c-0.148,0.159-0.215,0.348-0.225,0.54c0,0.005,0,0.005,0,0.005c-0.005,3.814-3.085,6.904-6.902,6.904  c-2.931,0-5.883,1.121-8.125,3.372c-2.245,2.243-3.364,5.176-3.364,8.118v57.546h38.326V21.141  C222.094,18.2,220.976,15.266,218.718,13.021z" data-original="#92DEEB" class="" data-old_color="#13d389"/><rect x="183.769" y="78.687" style="fill:#9c9c9c" width="38.326" height="24.294" data-original="#F77B55" class="active-path" data-old_color="#9c9c9c"/><rect x="182.606" y="78.687" style="fill:#FFFFFF" width="40.622" height="11.497" data-original="#FFFFFF" class="" data-old_color="#ffffff"/><rect x="195.637" y="67.201" style="fill:#9c9c9c" width="14.559" height="11.5" data-original="#F77B55" class="active-path" data-old_color="#9c9c9c"/><path style="fill:#FFFFFF" d="M210.208,52.074c0,0.845-0.689,1.526-1.531,1.526h-11.502c-0.842,0-1.526-0.684-1.526-1.526V36.289  c0-0.847,0.684-1.541,1.526-1.541h11.502c0.842,0,1.531,0.694,1.531,1.541L210.208,52.074L210.208,52.074z" data-original="#FFFFFF" class="" data-old_color="#ffffff"/><g>
	<path style="fill:#2c3843" d="M222.094,80.664h-38.326c-1.091,0-1.974-0.883-1.974-1.974V21.141c0-3.597,1.403-6.976,3.945-9.516   c2.537-2.545,5.919-3.95,9.521-3.95c2.714,0,4.923-2.209,4.925-4.925c0.046-0.801,0.307-1.418,0.768-1.907   c1.277-1.16,2.788-1.05,3.832-0.115c0.581,0.602,0.845,1.221,0.883,1.9c0.01,2.836,2.217,5.048,4.923,5.048   c3.61,0,6.989,1.405,9.523,3.955c2.545,2.529,3.953,5.908,3.953,9.51v57.546C224.068,79.78,223.185,80.664,222.094,80.664z    M185.745,76.714h34.376V21.141c0-2.542-0.991-4.928-2.793-6.72c-1.795-1.807-4.183-2.796-6.733-2.796   c-3.254,0-6.111-1.774-7.652-4.406c-1.541,2.619-4.408,4.406-7.68,4.406c-2.545,0-4.933,0.991-6.725,2.79   c-1.802,1.797-2.79,4.186-2.79,6.725v55.572H185.745z" data-original="#232E38" class="" data-old_color="#2c3843"/>
	<path style="fill:#2c3843" d="M190.005,36.724c-1.091,0-1.974-0.886-1.974-1.974V21.141c0-1.938,0.755-3.756,2.127-5.117   c1.352-1.359,3.167-2.115,5.105-2.115c1.091,0,1.974,0.883,1.974,1.974s-0.886,1.974-1.974,1.974c-0.878,0-1.7,0.338-2.314,0.955   c-0.625,0.625-0.965,1.449-0.965,2.327v13.606C191.979,35.838,191.095,36.724,190.005,36.724z" data-original="#232E38" class="" data-old_color="#2c3843"/>
	<path style="fill:#2c3843" d="M222.094,104.958h-38.326c-1.091,0-1.974-0.886-1.974-1.974V90.187c0-1.091,0.886-1.974,1.974-1.974   h38.326c1.091,0,1.974,0.883,1.974,1.974v12.797C224.068,104.072,223.185,104.958,222.094,104.958z M185.745,101.008h34.376v-8.85   h-34.376V101.008z" data-original="#232E38" class="" data-old_color="#2c3843"/>
</g><rect x="182.606" y="78.687" style="fill:#9c9c9c" width="40.622" height="11.497" data-original="#F77B55" class="active-path" data-old_color="#9c9c9c"/><g>
	<path style="fill:#2c3843" d="M223.241,92.158h-40.625c-1.091,0-1.974-0.883-1.974-1.974V78.687c0-1.091,0.886-1.974,1.974-1.974   h40.622c1.091,0,1.974,0.883,1.974,1.974v11.497C225.215,91.275,224.329,92.158,223.241,92.158z M184.593,88.211h36.672v-7.547   h-36.672V88.211z" data-original="#232E38" class="" data-old_color="#2c3843"/>
	<path style="fill:#2c3843" d="M210.208,80.664H195.65c-1.091,0-1.974-0.883-1.974-1.974v-11.5c0-1.091,0.883-1.974,1.974-1.974   h14.559c1.091,0,1.974,0.883,1.974,1.974v11.5C212.182,79.78,211.299,80.664,210.208,80.664z M197.623,76.714h10.609v-7.552   h-10.609V76.714z" data-original="#232E38" class="" data-old_color="#2c3843"/>
	<path style="fill:#2c3843" d="M208.677,55.573h-11.502c-1.93,0-3.5-1.569-3.5-3.502V36.286c0-1.935,1.569-3.515,3.5-3.515h11.502   c1.933,0,3.507,1.58,3.507,3.515v15.785C212.182,54.004,210.61,55.573,208.677,55.573z M197.623,51.626h10.609V36.724h-10.609   V51.626z" data-original="#232E38" class="" data-old_color="#2c3843"/>
	<path style="fill:#2c3843" d="M199.868,69.162c-1.091,0-1.974-0.883-1.974-1.974V53.599c0-1.091,0.886-1.974,1.974-1.974   c1.091,0,1.974,0.886,1.974,1.974v13.588C201.845,68.278,200.962,69.162,199.868,69.162z" data-original="#232E38" class="" data-old_color="#2c3843"/>
	<path style="fill:#2c3843" d="M205.989,69.162c-1.091,0-1.974-0.883-1.974-1.974V53.599c0-1.091,0.883-1.974,1.974-1.974   c1.091,0,1.974,0.886,1.974,1.974v13.588C207.963,68.278,207.08,69.162,205.989,69.162z" data-original="#232E38" class="" data-old_color="#2c3843"/>
</g><path style="fill:#13d389" d="M324.855,13.021c-2.235-2.25-5.181-3.372-8.118-3.372c-3.807,0-6.889-3.09-6.902-6.899  c0,0,0-0.005,0-0.01c-0.01-0.192-0.077-0.381-0.22-0.54c-0.156-0.138-0.34-0.218-0.54-0.218c-0.21,0-0.394,0.079-0.545,0.218  c-0.148,0.159-0.22,0.348-0.23,0.54c0,0.005,0,0.005,0,0.005c-0.008,3.814-3.085,6.904-6.902,6.904  c-2.931,0-5.878,1.121-8.125,3.372c-2.248,2.243-3.364,5.176-3.364,8.118v57.546h38.331V21.141  C328.24,18.2,327.116,15.266,324.855,13.021z" data-original="#FDCA5C" class="" data-old_color="#13d389"/><g>
	<rect x="289.922" y="78.687" style="fill:#9c9c9c" width="38.331" height="24.294" data-original="#F77B55" class="active-path" data-old_color="#9c9c9c"/>
	<rect x="288.77" y="78.687" style="fill:#9c9c9c" width="40.625" height="11.497" data-original="#F77B55" class="active-path" data-old_color="#9c9c9c"/>
	<rect x="301.8" y="67.201" style="fill:#9c9c9c" width="14.564" height="11.5" data-original="#F77B55" class="active-path" data-old_color="#9c9c9c"/>
</g><path style="fill:#FFFFFF" d="M316.354,52.074c0,0.845-0.694,1.526-1.539,1.526h-11.494c-0.842,0-1.533-0.684-1.533-1.526V36.289  c0-0.847,0.691-1.541,1.533-1.541h11.494c0.842,0,1.539,0.694,1.539,1.541V52.074z" data-original="#FFFFFF" class="" data-old_color="#ffffff"/><g>
	<path style="fill:#2c3843" d="M328.24,80.664h-38.331c-1.091,0-1.974-0.883-1.974-1.974V21.141c0-3.597,1.403-6.976,3.945-9.516   c2.545-2.545,5.921-3.95,9.521-3.95c2.714,0,4.925-2.209,4.928-4.925c0.041-0.788,0.312-1.423,0.773-1.907   c1.198-1.121,2.78-1.055,3.832-0.115c0.586,0.627,0.84,1.234,0.878,1.9c0.01,2.836,2.22,5.048,4.931,5.048   c3.604,0,6.986,1.405,9.518,3.955c2.55,2.532,3.958,5.914,3.958,9.51v57.546C330.213,79.78,329.33,80.664,328.24,80.664z    M291.885,76.714h34.381V21.141c0-2.54-0.993-4.923-2.798-6.72c-1.795-1.807-4.183-2.796-6.728-2.796   c-3.256,0-6.118-1.774-7.66-4.411c-1.539,2.621-4.406,4.411-7.68,4.411c-2.54,0-4.931,0.991-6.728,2.793   c-1.8,1.795-2.788,4.183-2.788,6.723L291.885,76.714L291.885,76.714z" data-original="#232E38" class="" data-old_color="#2c3843"/>
	<path style="fill:#2c3843" d="M296.145,36.724c-1.091,0-1.974-0.886-1.974-1.974V21.141c0-1.938,0.755-3.756,2.127-5.117   c1.352-1.359,3.164-2.115,5.102-2.115c1.091,0,1.974,0.883,1.974,1.974s-0.886,1.974-1.974,1.974c-0.878,0-1.7,0.338-2.312,0.955   c-0.627,0.625-0.968,1.449-0.968,2.327v13.606C298.119,35.838,297.233,36.724,296.145,36.724z" data-original="#232E38" class="" data-old_color="#2c3843"/>
	<path style="fill:#2c3843" d="M328.24,104.958h-38.331c-1.091,0-1.974-0.886-1.974-1.974V90.187c0-1.091,0.886-1.974,1.974-1.974   h38.331c1.091,0,1.974,0.883,1.974,1.974v12.797C330.213,104.072,329.33,104.958,328.24,104.958z M291.885,101.008h34.381v-8.85   h-34.381V101.008z" data-original="#232E38" class="" data-old_color="#2c3843"/>
	<path style="fill:#2c3843" d="M329.384,92.158h-40.625c-1.093,0-1.974-0.883-1.974-1.974V78.687c0-1.091,0.883-1.974,1.974-1.974   h40.625c1.093,0,1.974,0.883,1.974,1.974v11.497C331.36,91.275,330.477,92.158,329.384,92.158z M290.731,88.211h36.68v-7.547   h-36.68V88.211z" data-original="#232E38" class="" data-old_color="#2c3843"/>
	<path style="fill:#2c3843" d="M316.354,80.664H301.79c-1.091,0-1.974-0.883-1.974-1.974v-11.5c0-1.091,0.886-1.974,1.974-1.974   h14.564c1.091,0,1.974,0.883,1.974,1.974v11.5C318.327,79.78,317.444,80.664,316.354,80.664z M303.764,76.714h10.614v-7.552   h-10.614V76.714z" data-original="#232E38" class="" data-old_color="#2c3843"/>
	<path style="fill:#2c3843" d="M314.818,55.573h-11.494c-1.933,0-3.507-1.569-3.507-3.502V36.286c0-1.935,1.574-3.515,3.507-3.515   h11.494c1.935,0,3.51,1.58,3.51,3.515v15.785C318.327,54.004,316.75,55.573,314.818,55.573z M303.764,51.626h10.614V36.724h-10.614   V51.626z" data-original="#232E38" class="" data-old_color="#2c3843"/>
	<path style="fill:#2c3843" d="M306.009,69.162c-1.091,0-1.974-0.883-1.974-1.974V53.599c0-1.091,0.886-1.974,1.974-1.974   s1.974,0.886,1.974,1.974v13.588C307.985,68.278,307.099,69.162,306.009,69.162z" data-original="#232E38" class="" data-old_color="#2c3843"/>
	<path style="fill:#2c3843" d="M312.13,69.162c-1.091,0-1.974-0.883-1.974-1.974V53.599c0-1.091,0.886-1.974,1.974-1.974   s1.974,0.886,1.974,1.974v13.588C314.103,68.278,313.22,69.162,312.13,69.162z" data-original="#232E38" class="" data-old_color="#2c3843"/>
</g><path style="fill:#13d389" d="M430.995,13.021c-2.235-2.25-5.181-3.372-8.118-3.372c-3.807,0-6.884-3.09-6.902-6.899  c0,0,0-0.005,0-0.01c-0.01-0.192-0.077-0.381-0.22-0.54c-0.156-0.138-0.34-0.218-0.54-0.218c-0.21,0-0.394,0.079-0.545,0.218  c-0.143,0.159-0.215,0.348-0.23,0.54c0,0.005,0,0.005,0,0.005c-0.008,3.814-3.085,6.904-6.897,6.904  c-2.934,0-5.878,1.121-8.131,3.372c-2.248,2.243-3.364,5.176-3.364,8.118v57.546h38.331V21.141  C434.38,18.2,433.256,15.266,430.995,13.021z" data-original="#FDCA5C" class="" data-old_color="#13d389"/><rect x="396.059" y="78.687" style="fill:#9c9c9c" width="38.331" height="24.294" data-original="#F77B55" class="active-path" data-old_color="#9c9c9c"/><rect id="SVGCleanerId_0" x="394.907" y="78.687" style="fill:#9c9c9c" width="40.632" height="11.497" data-original="#F77B55" class="active-path" data-old_color="#9c9c9c"/><rect id="SVGCleanerId_1" x="407.938" y="67.201" style="fill:#9c9c9c" width="14.569" height="11.5" data-original="#F77B55" class="active-path" data-old_color="#9c9c9c"/><path style="fill:#FFFFFF" d="M422.499,52.074c0,0.845-0.699,1.526-1.544,1.526h-11.494c-0.837,0-1.533-0.684-1.533-1.526V36.289  c0-0.847,0.694-1.541,1.533-1.541h11.494c0.842,0,1.544,0.694,1.544,1.541V52.074z" data-original="#FFFFFF" class="" data-old_color="#ffffff"/><g>
	<path style="fill:#2c3843" d="M434.38,80.664h-38.331c-1.091,0-1.974-0.883-1.974-1.974V21.141c0-3.597,1.403-6.976,3.945-9.516   c2.55-2.547,5.932-3.95,9.526-3.95c2.711,0,4.92-2.209,4.923-4.925c0.061-0.822,0.317-1.408,0.745-1.879   c1.252-1.175,2.808-1.083,3.86-0.143c0.586,0.627,0.84,1.234,0.878,1.9c0.013,2.836,2.225,5.048,4.931,5.048   c3.604,0,6.986,1.405,9.518,3.955c2.55,2.532,3.958,5.914,3.958,9.51v57.546C436.354,79.78,435.468,80.664,434.38,80.664z    M398.025,76.714h34.381V21.141c0-2.54-0.993-4.923-2.798-6.72c-1.795-1.807-4.183-2.796-6.728-2.796   c-3.254,0-6.111-1.772-7.654-4.403c-1.533,2.611-4.403,4.403-7.68,4.403c-2.54,0-4.933,0.991-6.733,2.793   c-1.8,1.795-2.788,4.183-2.788,6.723L398.025,76.714L398.025,76.714z" data-original="#232E38" class="" data-old_color="#2c3843"/>
	<path style="fill:#2c3843" d="M402.29,36.724c-1.091,0-1.974-0.886-1.974-1.974V21.141c0-1.933,0.753-3.75,2.115-5.115   c1.357-1.364,3.177-2.12,5.115-2.12c1.091,0,1.974,0.883,1.974,1.974s-0.886,1.974-1.974,1.974c-0.881,0-1.705,0.338-2.317,0.955   c-0.622,0.622-0.963,1.449-0.963,2.327v13.606C404.264,35.838,403.378,36.724,402.29,36.724z" data-original="#232E38" class="" data-old_color="#2c3843"/>
	<path style="fill:#2c3843" d="M434.38,104.958h-38.331c-1.091,0-1.974-0.886-1.974-1.974V90.187c0-1.091,0.886-1.974,1.974-1.974   h38.331c1.091,0,1.974,0.883,1.974,1.974v12.797C436.354,104.072,435.468,104.958,434.38,104.958z M398.025,101.008h34.381v-8.85   h-34.381V101.008z" data-original="#232E38" class="" data-old_color="#2c3843"/>
</g><g>
	<rect id="SVGCleanerId_0_1_" x="394.907" y="78.687" style="fill:#9c9c9c" width="40.632" height="11.497" data-original="#F77B55" class="active-path" data-old_color="#9c9c9c"/>
</g><path style="fill:#2c3843" d="M435.532,92.158H394.9c-1.093,0-1.974-0.883-1.974-1.974V78.687c0-1.091,0.883-1.974,1.974-1.974  h40.632c1.091,0,1.974,0.883,1.974,1.974v11.497C437.506,91.275,436.622,92.158,435.532,92.158z M396.871,88.211h36.685v-7.547  h-36.685V88.211z" data-original="#232E38" class="" data-old_color="#2c3843"/><g>
	<rect id="SVGCleanerId_1_1_" x="407.938" y="67.201" style="fill:#9c9c9c" width="14.569" height="11.5" data-original="#F77B55" class="active-path" data-old_color="#9c9c9c"/>
</g><g>
	<path style="fill:#2c3843" d="M422.499,80.664H407.93c-1.091,0-1.974-0.883-1.974-1.974v-11.5c0-1.091,0.886-1.974,1.974-1.974   h14.569c1.091,0,1.974,0.883,1.974,1.974v11.5C424.475,79.78,423.589,80.664,422.499,80.664z M409.904,76.714h10.619v-7.552   h-10.619V76.714z" data-original="#232E38" class="" data-old_color="#2c3843"/>
	<path style="fill:#2c3843" d="M420.958,55.573h-11.494c-1.935,0-3.507-1.569-3.507-3.502V36.286c0-1.935,1.572-3.515,3.507-3.515   h11.494c1.938,0,3.517,1.58,3.517,3.515v15.785C424.475,54.004,422.893,55.573,420.958,55.573z M409.904,51.626h10.619V36.724   h-10.619V51.626z" data-original="#232E38" class="" data-old_color="#2c3843"/>
	<path style="fill:#2c3843" d="M412.154,69.162c-1.091,0-1.974-0.883-1.974-1.974V53.599c0-1.091,0.886-1.974,1.974-1.974   s1.974,0.886,1.974,1.974v13.588C414.13,68.278,413.244,69.162,412.154,69.162z" data-original="#232E38" class="" data-old_color="#2c3843"/>
	<path style="fill:#2c3843" d="M418.275,69.162c-1.091,0-1.974-0.883-1.974-1.974V53.599c0-1.091,0.886-1.974,1.974-1.974   s1.974,0.886,1.974,1.974v13.588C420.249,68.278,419.363,69.162,418.275,69.162z" data-original="#232E38" class="" data-old_color="#2c3843"/>
</g><rect x="34.208" y="102.989" style="fill:#13d389" width="443.597" height="277.248" data-original="#92DEEB" class="" data-old_color="#13d389"/><g>
	<rect x="34.208" y="380.212" style="fill:#FFFFFF" width="443.597" height="55.46" data-original="#FFFFFF" class="" data-old_color="#ffffff"/>
	<rect x="193.64" y="435.687" style="fill:#FFFFFF" width="124.749" height="57.825" data-original="#FFFFFF" class="" data-old_color="#ffffff"/>
	<rect x="159.336" y="493.517" style="fill:#FFFFFF" width="193.331" height="16.1" data-original="#FFFFFF" class="" data-old_color="#ffffff"/>
	<rect x="55.438" y="124.186" style="fill:#FFFFFF" width="401.126" height="234.829" data-original="#FFFFFF" class="" data-old_color="#ffffff"/>
</g><g>
	<path style="fill:#2c3843" d="M477.795,382.616H34.208c-1.326,0-2.396-1.07-2.396-2.396V102.982c0-1.326,1.07-2.396,2.396-2.396   h443.584c1.326,0,2.396,1.07,2.396,2.396V380.22C480.188,381.546,479.118,382.616,477.795,382.616z M36.604,377.826h438.794   V105.378H36.604V377.826z" data-original="#232E38" class="" data-old_color="#2c3843"/>
	<path style="fill:#2c3843" d="M456.572,361.427H55.438c-1.326,0-2.396-1.073-2.396-2.399V124.189c0-1.326,1.07-2.396,2.396-2.396   h401.134c1.326,0,2.396,1.07,2.396,2.396v234.839C458.966,360.354,457.896,361.427,456.572,361.427z M57.832,356.634h396.344   V126.582H57.832V356.634z" data-original="#232E38" class="" data-old_color="#2c3843"/>
	<path style="fill:#2c3843" d="M477.795,438.078H34.208c-1.326,0-2.396-1.073-2.396-2.399v-55.46c0-1.326,1.07-2.396,2.396-2.396   h443.584c1.326,0,2.396,1.07,2.396,2.396v55.46C480.188,437.005,479.118,438.078,477.795,438.078z M36.604,433.286h438.794v-50.67   H36.604V433.286z" data-original="#232E38" class="" data-old_color="#2c3843"/>
	<path style="fill:#2c3843" d="M318.379,495.901H193.63c-1.326,0-2.396-1.073-2.396-2.396v-57.825c0-1.326,1.07-2.396,2.396-2.396   h124.749c1.326,0,2.399,1.07,2.399,2.396v57.825C320.777,494.828,319.705,495.901,318.379,495.901z M196.023,491.108h119.959   v-53.03H196.023V491.108z" data-original="#232E38" class="" data-old_color="#2c3843"/>
	<path style="fill:#2c3843" d="M352.675,512.001H159.336c-1.326,0-2.396-1.073-2.396-2.396v-16.1c0-1.326,1.07-2.399,2.396-2.399   h193.339c1.326,0,2.396,1.073,2.396,2.399v16.1C355.068,510.928,353.998,512.001,352.675,512.001z M161.732,507.208h188.544   v-11.308H161.732C161.732,495.901,161.732,507.208,161.732,507.208z" data-original="#232E38" class="" data-old_color="#2c3843"/>
	<path style="fill:#2c3843" d="M267.281,410.343h-22.556c-1.326,0-2.396-1.07-2.396-2.396c0-1.326,1.07-2.396,2.396-2.396h22.556   c1.326,0,2.399,1.07,2.399,2.396C269.68,409.273,268.607,410.343,267.281,410.343z" data-original="#232E38" class="" data-old_color="#2c3843"/>
</g><path style="fill:#13d389" d="M172.098,311.888c-38.812,0-70.275-31.462-70.275-70.277c0-29.286,17.91-54.374,43.364-64.94  l-8.161-19.735c-33.211,13.737-56.581,46.5-56.581,84.692c0,50.596,41.039,91.638,91.643,91.638  c25.298,0,48.223-10.225,64.817-26.821l-15.122-15.124C209.056,304.024,191.5,311.888,172.098,311.888z" data-original="#FDCA5C" class="" data-old_color="#13d389"/><path style="fill:#FFFFFF" d="M242.382,241.616c0,19.41-7.875,36.974-20.59,49.69l15.117,15.124  c16.599-16.591,26.844-39.506,26.844-64.814H242.382z" data-original="#FFFFFF" class="" data-old_color="#ffffff"/><path style="fill:#13d389" d="M172.098,171.329c38.817,0,70.285,31.462,70.285,70.282c0,0,0,0,0,0.005h21.368  c0-50.614-41.039-91.661-91.653-91.661L172.098,171.329L172.098,171.329z" data-original="#92DEEB" class="" data-old_color="#13d389"/><path style="fill:#9c9c9c" d="M172.087,171.329v-21.376c-12.419,0-24.256,2.488-35.062,6.984l8.161,19.735  C153.484,173.233,162.546,171.329,172.087,171.329z" data-original="#F77B55" class="active-path" data-old_color="#9c9c9c"/><g>
	<path style="fill:#2c3843" d="M172.087,335.66c-51.853,0-94.039-42.184-94.039-94.034c0-38.203,22.789-72.317,58.061-86.904   c0.589-0.243,1.249-0.243,1.836,0c0.589,0.243,1.055,0.709,1.295,1.295l8.164,19.735c0.507,1.224-0.074,2.624-1.295,3.131   c-25.449,10.56-41.889,35.185-41.889,62.728c0,37.43,30.451,67.884,67.878,67.884c18.112,0,35.154-7.058,47.99-19.868   c0.937-0.94,2.452-0.934,3.389,0.003l15.122,15.124c0.934,0.932,0.934,2.452,0,3.387   C220.855,325.886,197.234,335.66,172.087,335.66z M135.738,160.098c-32.215,14.333-52.9,46.075-52.9,81.531   c0,49.206,40.036,89.242,89.247,89.242c23.063,0,44.774-8.663,61.404-24.445l-11.738-11.74   c-13.524,12.657-31.063,19.599-49.654,19.599c-40.072,0-72.671-32.596-72.671-72.673c0-28.69,16.658-54.413,42.644-66.202   L135.738,160.098z" data-original="#232E38" class="" data-old_color="#2c3843"/>
	<path style="fill:#2c3843" d="M236.909,308.826L236.909,308.826c-0.637,0-1.244-0.251-1.697-0.701L220.095,293   c-0.932-0.937-0.932-2.455,0.003-3.389c12.826-12.82,19.889-29.865,19.889-47.992c0-1.326,1.07-2.396,2.396-2.396h21.368   c1.326,0,2.396,1.07,2.396,2.396c0,25.134-9.782,48.753-27.546,66.509C238.153,308.575,237.544,308.826,236.909,308.826z    M225.154,291.275l11.732,11.743c15.25-16.061,23.859-36.849,24.435-59.005H244.74   C244.169,261.727,237.283,278.347,225.154,291.275z" data-original="#232E38" class="" data-old_color="#2c3843"/>
	<path style="fill:#2c3843" d="M263.751,244.012h-21.368c-1.326,0-2.396-1.07-2.396-2.396c0-37.437-30.456-67.894-67.889-67.894   c-1.326,0-2.396-1.07-2.396-2.396v-21.371c0-1.326,1.07-2.396,2.396-2.396c51.86,0,94.049,42.191,94.049,94.057   C266.147,242.94,265.077,244.012,263.751,244.012z M244.74,239.215l16.581,0.003c-1.252-47.316-39.511-85.578-86.828-86.833v16.586   C212.671,170.212,243.499,201.043,244.74,239.215z" data-original="#232E38" class="" data-old_color="#2c3843"/>
	<path style="fill:#2c3843" d="M145.187,179.068c-0.312,0-0.625-0.059-0.916-0.182c-0.589-0.243-1.055-0.712-1.298-1.298   l-8.164-19.735c-0.507-1.224,0.074-2.621,1.295-3.131c11.436-4.756,23.542-7.165,35.981-7.165c1.326,0,2.396,1.07,2.396,2.396   v21.376c0,1.326-1.07,2.396-2.396,2.396c-8.975,0-17.715,1.738-25.981,5.161C145.814,179.006,145.499,179.068,145.187,179.068z    M140.167,158.26l6.333,15.314c7.442-2.803,15.219-4.349,23.188-4.605V152.38C159.525,152.648,149.616,154.622,140.167,158.26z" data-original="#232E38" class="" data-old_color="#2c3843"/>
</g><path style="fill:#9c9c9c" d="M217.927,246.695v-10.179h-8.044c-0.435-3.282-1.285-6.438-2.506-9.403l6.948-4.014l-5.089-8.806  l-6.956,4.017c-1.994-2.583-4.296-4.897-6.884-6.881l4.019-6.968l-8.804-5.089l-4.014,6.95c-2.964-1.219-6.118-2.076-9.408-2.506  v-8.036h-10.184v8.036c-3.279,0.435-6.446,1.288-9.403,2.506l-4.022-6.95l-8.794,5.089l4.006,6.968  c-2.565,1.981-4.89,4.296-6.868,6.881l-6.971-4.017l-5.082,8.806l6.945,4.014c-1.219,2.964-2.068,6.121-2.509,9.403h-8.036v10.179  h8.036c0.44,3.29,1.293,6.446,2.514,9.413l-6.95,4.004l5.082,8.812l6.971-4.014c1.979,2.565,4.303,4.89,6.876,6.881l-4.004,6.968  l8.786,5.082l4.027-6.963c2.964,1.229,6.118,2.081,9.398,2.516v8.038h10.184v-8.038c3.287-0.435,6.446-1.288,9.408-2.506l4.014,6.95  l8.804-5.082l-4.019-6.976c2.588-1.981,4.892-4.308,6.884-6.879l6.956,4.019l5.089-8.812l-6.948-4.009  c1.221-2.964,2.071-6.121,2.506-9.408h8.041V246.695z M172.098,266.556c-13.775,0-24.96-11.169-24.96-24.95  s11.185-24.947,24.96-24.947c13.78,0,24.955,11.164,24.955,24.947C197.052,255.389,185.878,266.556,172.098,266.556z" data-original="#F77B55" class="active-path" data-old_color="#9c9c9c"/><g>
	<path style="fill:#2c3843" d="M177.187,289.828h-10.184c-1.326,0-2.396-1.07-2.396-2.396v-5.993   c-2.028-0.376-4.014-0.909-5.949-1.592l-3.005,5.192c-0.317,0.553-0.84,0.952-1.454,1.119c-0.614,0.166-1.27,0.079-1.82-0.243   l-8.786-5.084c-1.144-0.66-1.539-2.122-0.878-3.269l2.99-5.199c-1.559-1.339-3.016-2.798-4.352-4.355l-5.204,2.995   c-1.139,0.666-2.611,0.266-3.272-0.878l-5.082-8.812c-0.317-0.55-0.404-1.208-0.241-1.82c0.164-0.614,0.568-1.137,1.121-1.454   l5.179-2.985c-0.681-1.933-1.211-3.927-1.592-5.96h-5.993c-1.324,0-2.396-1.07-2.396-2.396v-10.179c0-1.326,1.07-2.396,2.396-2.396   h5.993c0.379-2.028,0.911-4.017,1.59-5.952l-5.184-2.993c-1.144-0.663-1.536-2.13-0.876-3.274l5.082-8.806   c0.66-1.142,2.132-1.541,3.272-0.878l5.199,2.993c1.331-1.554,2.783-3.008,4.352-4.352l-2.993-5.202   c-0.658-1.147-0.264-2.609,0.878-3.269l8.794-5.089c0.55-0.323,1.208-0.41,1.818-0.243c0.617,0.166,1.139,0.566,1.457,1.116   l3.003,5.184c1.933-0.678,3.924-1.208,5.952-1.587v-5.99c0-1.324,1.07-2.396,2.396-2.396h10.184c1.326,0,2.396,1.073,2.396,2.396   v5.99c2.02,0.374,4.009,0.904,5.957,1.587l2.993-5.181c0.32-0.55,0.842-0.952,1.457-1.119c0.617-0.166,1.27-0.077,1.82,0.241   l8.804,5.089c1.142,0.663,1.536,2.13,0.876,3.274l-2.995,5.197c1.551,1.329,3.011,2.783,4.357,4.357l5.189-2.995   c1.149-0.66,2.611-0.269,3.274,0.878l5.089,8.806c0.66,1.144,0.269,2.611-0.876,3.274l-5.184,2.993   c0.678,1.933,1.208,3.924,1.587,5.952h5.996c1.324,0,2.396,1.07,2.396,2.396v10.179c0,1.326-1.07,2.396-2.396,2.396h-5.996   c-0.376,2.03-0.909,4.022-1.587,5.957l5.179,2.988c0.55,0.32,0.955,0.842,1.119,1.457c0.164,0.612,0.077,1.267-0.241,1.818   l-5.089,8.812c-0.32,0.55-0.845,0.952-1.457,1.119c-0.617,0.169-1.27,0.077-1.82-0.241l-5.189-3   c-1.354,1.577-2.813,3.036-4.355,4.355l2.995,5.202c0.66,1.149,0.266,2.614-0.878,3.274l-8.804,5.084   c-1.152,0.663-2.611,0.269-3.274-0.881l-2.993-5.181c-1.938,0.678-3.93,1.211-5.957,1.587v5.99   C179.583,288.758,178.51,289.828,177.187,289.828z M169.399,285.036h5.391v-5.64c0-1.203,0.888-2.22,2.081-2.378   c3.034-0.399,5.998-1.188,8.809-2.345c1.111-0.451,2.386-0.026,2.988,1.016l2.813,4.874l4.657-2.688l-2.824-4.895   c-0.602-1.044-0.335-2.371,0.62-3.103c2.371-1.818,4.541-3.986,6.446-6.446c0.732-0.947,2.053-1.206,3.095-0.607l4.879,2.824   l2.691-4.659l-4.872-2.813c-1.042-0.599-1.477-1.876-1.019-2.988c1.155-2.806,1.943-5.768,2.348-8.809   c0.156-1.193,1.172-2.081,2.376-2.081h5.647v-5.386h-5.647c-1.201,0-2.217-0.891-2.376-2.081c-0.402-3.039-1.193-6.001-2.348-8.804   c-0.458-1.111-0.023-2.386,1.016-2.988l4.874-2.813l-2.691-4.657l-4.884,2.819c-1.034,0.607-2.363,0.335-3.095-0.612   c-1.884-2.445-4.052-4.611-6.444-6.444c-0.957-0.732-1.221-2.056-0.62-3.1l2.824-4.895l-4.657-2.691l-2.813,4.874   c-0.604,1.044-1.882,1.464-2.988,1.019c-2.834-1.165-5.796-1.953-8.806-2.348c-1.193-0.159-2.084-1.172-2.084-2.378v-5.64h-5.391   v5.64c0,1.201-0.891,2.217-2.081,2.378c-3.039,0.402-6.001,1.193-8.804,2.348c-1.106,0.451-2.386,0.02-2.985-1.016l-2.824-4.877   l-4.649,2.693l2.819,4.895c0.594,1.037,0.333,2.36-0.614,3.092c-2.432,1.879-4.593,4.045-6.431,6.441   c-0.73,0.95-2.056,1.224-3.098,0.617l-4.897-2.821l-2.685,4.659l4.872,2.813c1.039,0.602,1.475,1.879,1.016,2.988   c-1.152,2.801-1.94,5.765-2.348,8.809c-0.161,1.19-1.175,2.076-2.378,2.076h-5.64v5.386h5.64c1.201,0,2.217,0.886,2.378,2.076   c0.407,3.052,1.201,6.019,2.355,8.822c0.456,1.111,0.02,2.386-1.021,2.988l-4.872,2.808l2.685,4.657l4.897-2.819   c1.042-0.602,2.363-0.333,3.092,0.612c1.864,2.412,4.029,4.582,6.444,6.449c0.947,0.732,1.208,2.053,0.614,3.092l-2.816,4.892   l4.641,2.688l2.826-4.887c0.602-1.044,1.889-1.469,2.99-1.014c2.798,1.157,5.76,1.953,8.794,2.353   c1.193,0.161,2.081,1.178,2.081,2.378V285.036z M172.098,268.954c-15.084,0-27.356-12.268-27.356-27.348   c0-15.078,12.273-27.343,27.356-27.343c15.081,0,27.351,12.265,27.351,27.343C199.449,256.687,187.179,268.954,172.098,268.954z    M172.098,219.055c-12.439,0-22.564,10.115-22.564,22.551c0,12.436,10.125,22.556,22.564,22.556   c12.436,0,22.559-10.117,22.559-22.556C194.656,229.172,184.534,219.055,172.098,219.055z" data-original="#232E38" class="" data-old_color="#2c3843"/>
	<path style="fill:#2c3843" d="M299.849,152.354h-10.458c-1.326,0-2.396-1.07-2.396-2.396c0-1.326,1.07-2.396,2.396-2.396h10.458   c1.326,0,2.396,1.07,2.396,2.396C302.245,151.284,301.175,152.354,299.849,152.354z" data-original="#232E38" class="" data-old_color="#2c3843"/>
	<path style="fill:#2c3843" d="M297.553,193.288h-8.161c-1.326,0-2.396-1.07-2.396-2.396c0-1.326,1.07-2.396,2.396-2.396h8.161   c1.326,0,2.396,1.07,2.396,2.396C299.949,192.218,298.879,193.288,297.553,193.288z" data-original="#232E38" class="" data-old_color="#2c3843"/>
	<path style="fill:#2c3843" d="M351.81,152.354h-42.985c-1.326,0-2.399-1.07-2.399-2.396c0-1.326,1.073-2.396,2.399-2.396h42.985   c1.326,0,2.396,1.07,2.396,2.396C354.206,151.284,353.133,152.354,351.81,152.354z" data-original="#232E38" class="" data-old_color="#2c3843"/>
	<path style="fill:#2c3843" d="M340.269,193.288h-33.116c-1.326,0-2.396-1.07-2.396-2.396c0-1.326,1.07-2.396,2.396-2.396h33.116   c1.326,0,2.396,1.07,2.396,2.396C342.665,192.218,341.595,193.288,340.269,193.288z" data-original="#232E38" class="" data-old_color="#2c3843"/>
	<path style="fill:#2c3843" d="M316.443,167.901h-16.594c-1.326,0-2.399-1.07-2.399-2.396c0-1.324,1.073-2.396,2.399-2.396h16.594   c1.326,0,2.396,1.07,2.396,2.396C318.839,166.831,317.769,167.901,316.443,167.901z" data-original="#232E38" class="" data-old_color="#2c3843"/>
	<path style="fill:#2c3843" d="M316.443,239.965h-16.594c-1.326,0-2.399-1.07-2.399-2.396c0-1.326,1.073-2.396,2.399-2.396h16.594   c1.326,0,2.396,1.07,2.396,2.396C318.839,238.895,317.769,239.965,316.443,239.965z" data-original="#232E38" class="" data-old_color="#2c3843"/>
	<path style="fill:#2c3843" d="M356.922,239.965h-32.566c-1.326,0-2.396-1.07-2.396-2.396c0-1.326,1.07-2.396,2.396-2.396h32.566   c1.326,0,2.399,1.07,2.399,2.396C359.321,238.895,358.245,239.965,356.922,239.965z" data-original="#232E38" class="" data-old_color="#2c3843"/>
	<path style="fill:#2c3843" d="M322.928,273.437h-9.7c-1.326,0-2.396-1.07-2.396-2.396c0-1.326,1.07-2.399,2.396-2.399h9.7   c1.326,0,2.399,1.073,2.399,2.399C325.326,272.367,324.251,273.437,322.928,273.437z" data-original="#232E38" class="" data-old_color="#2c3843"/>
	<path style="fill:#2c3843" d="M349.7,335.66h-19.459c-1.326,0-2.396-1.07-2.396-2.396c0-1.326,1.07-2.399,2.396-2.399H349.7   c1.326,0,2.396,1.073,2.396,2.399C352.096,334.59,351.024,335.66,349.7,335.66z" data-original="#232E38" class="" data-old_color="#2c3843"/>
	<path style="fill:#2c3843" d="M422.243,304.551h-17.802c-1.326,0-2.399-1.07-2.399-2.396s1.073-2.399,2.399-2.399h17.802   c1.326,0,2.399,1.073,2.399,2.399S423.569,304.551,422.243,304.551z" data-original="#232E38" class="" data-old_color="#2c3843"/>
	<path style="fill:#2c3843" d="M400.007,239.965h-24.351c-1.326,0-2.399-1.07-2.399-2.396c0-1.326,1.073-2.396,2.399-2.396h24.351   c1.326,0,2.396,1.07,2.396,2.396C402.403,238.895,401.333,239.965,400.007,239.965z" data-original="#232E38" class="" data-old_color="#2c3843"/>
	<path style="fill:#2c3843" d="M425.481,239.965h-15.155c-1.326,0-2.399-1.07-2.399-2.396c0-1.326,1.073-2.396,2.399-2.396h15.155   c1.326,0,2.396,1.07,2.396,2.396C427.877,238.895,426.807,239.965,425.481,239.965z" data-original="#232E38" class="" data-old_color="#2c3843"/>
	<path style="fill:#2c3843" d="M324.651,208.861h-24.801c-1.326,0-2.399-1.073-2.399-2.396c0-1.326,1.073-2.396,2.399-2.396h24.801   c1.326,0,2.396,1.07,2.396,2.396C327.047,207.788,325.977,208.861,324.651,208.861z" data-original="#232E38" class="" data-old_color="#2c3843"/>
	<path style="fill:#2c3843" d="M335.019,224.42h-35.169c-1.326,0-2.399-1.07-2.399-2.396c0-1.326,1.073-2.396,2.399-2.396h35.169   c1.326,0,2.399,1.07,2.399,2.396C337.417,223.35,336.345,224.42,335.019,224.42z" data-original="#232E38" class="" data-old_color="#2c3843"/>
	<path style="fill:#2c3843" d="M349.544,288.986h-40.297c-1.324,0-2.396-1.073-2.396-2.396c0-1.326,1.073-2.399,2.396-2.399h40.297   c1.326,0,2.399,1.073,2.399,2.399C351.943,287.914,350.87,288.986,349.544,288.986z" data-original="#232E38" class="" data-old_color="#2c3843"/>
	<path style="fill:#2c3843" d="M346.28,304.551h-37.033c-1.324,0-2.396-1.07-2.396-2.396s1.073-2.399,2.396-2.399h37.033   c1.326,0,2.396,1.073,2.396,2.399S347.604,304.551,346.28,304.551z" data-original="#232E38" class="" data-old_color="#2c3843"/>
	<path style="fill:#2c3843" d="M396.671,304.551h-38.4c-1.326,0-2.396-1.07-2.396-2.396s1.07-2.399,2.396-2.399h38.4   c1.326,0,2.396,1.073,2.396,2.399S397.997,304.551,396.671,304.551z" data-original="#232E38" class="" data-old_color="#2c3843"/>
	<path style="fill:#2c3843" d="M396.671,335.66h-38.4c-1.326,0-2.396-1.07-2.396-2.396c0-1.326,1.07-2.399,2.396-2.399h38.4   c1.326,0,2.396,1.073,2.396,2.399C399.067,334.59,397.997,335.66,396.671,335.66z" data-original="#232E38" class="" data-old_color="#2c3843"/>
	<path style="fill:#2c3843" d="M303.63,273.437h-14.241c-1.326,0-2.396-1.07-2.396-2.396c0-1.326,1.07-2.399,2.396-2.399h14.241   c1.326,0,2.399,1.073,2.399,2.399C306.029,272.367,304.956,273.437,303.63,273.437z" data-original="#232E38" class="" data-old_color="#2c3843"/>
	<path style="fill:#2c3843" d="M321.65,335.66h-12.403c-1.324,0-2.396-1.07-2.396-2.396c0-1.326,1.073-2.399,2.396-2.399h12.403   c1.326,0,2.396,1.073,2.396,2.399C324.046,334.59,322.974,335.66,321.65,335.66z" data-original="#232E38" class="" data-old_color="#2c3843"/>
	<path style="fill:#2c3843" d="M338.157,320.09h-20.529c-1.326,0-2.399-1.073-2.399-2.399s1.073-2.396,2.399-2.396h20.529   c1.326,0,2.396,1.07,2.396,2.396S339.481,320.09,338.157,320.09z" data-original="#232E38" class="" data-old_color="#2c3843"/>
	<path style="fill:#2c3843" d="M411.609,320.09h-60.585c-1.326,0-2.399-1.073-2.399-2.399s1.073-2.396,2.399-2.396h60.585   c1.326,0,2.396,1.07,2.396,2.396S412.935,320.09,411.609,320.09z" data-original="#232E38" class="" data-old_color="#2c3843"/>
	<path style="fill:#2c3843" d="M373.941,224.42h-28.268c-1.324,0-2.396-1.07-2.396-2.396c0-1.326,1.073-2.396,2.396-2.396h28.268   c1.326,0,2.399,1.07,2.399,2.396C376.34,223.35,375.267,224.42,373.941,224.42z" data-original="#232E38" class="" data-old_color="#2c3843"/>
	<path style="fill:#2c3843" d="M431.564,224.42h-20.536c-1.326,0-2.399-1.07-2.399-2.396c0-1.326,1.073-2.396,2.399-2.396h20.536   c1.326,0,2.399,1.07,2.399,2.396C433.963,223.35,432.89,224.42,431.564,224.42z" data-original="#232E38" class="" data-old_color="#2c3843"/>
	<path style="fill:#2c3843" d="M398.332,224.42h-13.389c-1.326,0-2.396-1.07-2.396-2.396c0-1.326,1.07-2.396,2.396-2.396h13.389   c1.326,0,2.399,1.07,2.399,2.396C400.731,223.35,399.656,224.42,398.332,224.42z" data-original="#232E38" class="" data-old_color="#2c3843"/>
	<path style="fill:#2c3843" d="M370.843,208.861h-38.09c-1.326,0-2.399-1.073-2.399-2.396c0-1.326,1.073-2.396,2.399-2.396h38.09   c1.326,0,2.396,1.07,2.396,2.396C373.239,207.788,372.169,208.861,370.843,208.861z" data-original="#232E38" class="" data-old_color="#2c3843"/>
	<path style="fill:#2c3843" d="M342.115,167.901h-15.281c-1.326,0-2.396-1.07-2.396-2.396c0-1.324,1.07-2.396,2.396-2.396h15.281   c1.326,0,2.396,1.07,2.396,2.396C344.508,166.831,343.438,167.901,342.115,167.901z" data-original="#232E38" class="" data-old_color="#2c3843"/>
</g></g> </svg>
