<svg id="Ebene_1" data-name="Ebene 1" xmlns="http://www.w3.org/2000/svg" viewBox="0 0 90 90"><defs><style>.cls-1,.cls-2{fill:none;stroke-linecap:round;stroke-linejoin:round;stroke-width:3px;}.cls-1{stroke:#13d389;}.cls-2{stroke:#9c9c9c;}</style></defs><title>icon</title><polygon class="cls-1" points="56.33 74.07 46.49 76.88 49.3 67.05 70.39 45.96 77.42 52.98 56.33 74.07"/><line class="cls-1" x1="64.76" y1="51.58" x2="71.79" y2="58.61"/><line class="cls-1" x1="49.3" y1="67.05" x2="56.33" y2="74.07"/><rect class="cls-2" x="15.56" y="12.23" width="59.04" height="19.68" rx="2.81" ry="2.81"/><line class="cls-2" x1="36.65" y1="26.28" x2="64.76" y2="26.28"/><line class="cls-2" x1="36.65" y1="20.66" x2="64.76" y2="20.66"/><circle class="cls-2" cx="25.4" cy="22.07" r="2.81"/><path class="cls-2" d="M45.08,51.58H18.38a2.81,2.81,0,0,1-2.81-2.81V34.72a2.81,2.81,0,0,1,2.81-2.81H71.79a2.81,2.81,0,0,1,2.81,2.81v4.22"/><line class="cls-2" x1="36.65" y1="45.96" x2="42.27" y2="45.96"/><line class="cls-2" x1="36.65" y1="40.34" x2="45.08" y2="40.34"/><circle class="cls-2" cx="25.4" cy="41.75" r="2.81"/><path class="cls-2" d="M39.46,71.26H18.38a2.81,2.81,0,0,1-2.81-2.81V54.4a2.81,2.81,0,0,1,2.81-2.81H45.08"/><circle class="cls-2" cx="25.4" cy="61.42" r="2.81"/></svg>