<?xml version="1.0"?>
<svg xmlns="http://www.w3.org/2000/svg" xmlns:xlink="http://www.w3.org/1999/xlink" version="1.1" id="Capa_1" x="0px" y="0px" viewBox="0 0 512 512" style="enable-background:new 0 0 512 512;" xml:space="preserve" width="512px" height="512px" class=""><g><g>
	<path style="fill:#2c3843" d="M304,400H24c-6.264,0-12.248-2.528-16.848-7.136C2.536,388.248,0,382.256,0,376v-40h304v16H16v24   c0,2.016,0.848,3.936,2.464,5.544c1.6,1.608,3.52,2.456,5.536,2.456h280V400z" data-original="#403E3E" class="" data-old_color="#2c3843"/>
	<path style="fill:#2c3843" d="M16,344H0V72c0-6.264,2.536-12.248,7.144-16.856S17.736,48,24,48h384   c6.256,0,12.248,2.536,16.856,7.144C429.472,59.752,432,65.736,432,72v56h-16V72c0-2.016-0.848-3.936-2.464-5.544   C411.936,64.848,410.016,64,408,64H24c-2.016,0-3.936,0.848-5.544,2.456S16,69.984,16,72V344z" data-original="#403E3E" class="" data-old_color="#2c3843"/>
</g><polygon style="fill:#9c9c9c" points="304,320 32,320 32,80 400,80 400,128 384,128 384,96 48,96 48,304 304,304 " data-original="#43D3E8" class="" data-old_color="#9c9c9c"/><g>
	<rect x="264" y="392" style="fill:#2c3843" width="16" height="64" data-original="#403E3E" class="" data-old_color="#2c3843"/>
	<rect x="152" y="392" style="fill:#2c3843" width="16" height="64" data-original="#403E3E" class="" data-old_color="#2c3843"/>
	<rect x="128" y="448" style="fill:#2c3843" width="176" height="16" data-original="#403E3E" class="" data-old_color="#2c3843"/>
</g><g>
	<path style="fill:#13d389" d="M144,256h-16v-80c0-4.288-1.544-7.832-4.856-11.144c-6.624-6.624-15.664-6.624-22.288,0   C97.544,168.168,96,171.712,96,176v80H80v-80c0-8.568,3.208-16.128,9.544-22.456S103.432,144,112,144s16.128,3.208,22.456,9.544   S144,167.432,144,176V256z" data-original="#F96232" class="active-path" data-old_color="#13d389"/>
	<rect x="88" y="200" style="fill:#13d389" width="48" height="16" data-original="#F96232" class="active-path" data-old_color="#13d389"/>
	<rect x="160" y="144" style="fill:#13d389" width="16" height="112" data-original="#F96232" class="active-path" data-old_color="#13d389"/>
	<path style="fill:#13d389" d="M192,216h-24v-16h24c4.288,0,7.832-1.544,11.144-4.856S208,188.288,208,184v-8   c0-3.04-1.28-7.56-4.856-11.144C199.832,161.544,196.288,160,192,160h-24v-16h24c8.568,0,16.128,3.208,22.456,9.544   C220.432,159.512,224,167.912,224,176v8c0,8.568-3.208,16.128-9.544,22.456S200.568,216,192,216z" data-original="#F96232" class="active-path" data-old_color="#13d389"/>
	<rect x="256" y="152" style="fill:#13d389" width="16" height="96" data-original="#F96232" class="active-path" data-old_color="#13d389"/>
	<rect x="240" y="144" style="fill:#13d389" width="48" height="16" data-original="#F96232" class="active-path" data-old_color="#13d389"/>
	<rect x="240" y="240" style="fill:#13d389" width="48" height="16" data-original="#F96232" class="active-path" data-old_color="#13d389"/>
	<polygon style="fill:#13d389" points="453.656,333.656 442.344,322.344 460.688,304 442.344,285.656 453.656,274.344 483.312,304     " data-original="#F96232" class="active-path" data-old_color="#13d389"/>
	<polygon style="fill:#13d389" points="378.344,333.656 348.688,304 378.344,274.344 389.656,285.656 371.312,304 389.656,322.344     " data-original="#F96232" class="active-path" data-old_color="#13d389"/>
	
		<rect x="367.333" y="296.024" transform="matrix(-0.1641 0.9864 -0.9864 -0.1641 784.1652 -56.4389)" style="fill:#13d389" width="97.324" height="15.999" data-original="#F96232" class="active-path" data-old_color="#13d389"/>
</g><g>
	<path style="fill:#2c3843" d="M488,464H344c-6.256,0-12.24-2.528-16.848-7.136C322.528,452.24,320,446.256,320,440V168   c0-6.264,2.528-12.248,7.136-16.848C331.752,146.536,337.744,144,344,144h144c6.256,0,12.248,2.536,16.856,7.144   C509.472,155.752,512,161.736,512,168v272c0,6.256-2.528,12.24-7.136,16.848C500.24,461.472,494.256,464,488,464z M344,160   c-2.016,0-3.936,0.848-5.544,2.464c-1.608,1.6-2.456,3.52-2.456,5.536v272c0,2.016,0.848,3.936,2.464,5.552   c1.6,1.6,3.52,2.448,5.536,2.448h144c2.016,0,3.936-0.848,5.552-2.464c1.6-1.6,2.448-3.52,2.448-5.536V168   c0-2.016-0.848-3.936-2.464-5.544c-1.6-1.608-3.52-2.456-5.536-2.456H344z" data-original="#403E3E" class="" data-old_color="#2c3843"/>
	<rect x="328" y="208" style="fill:#2c3843" width="176" height="16" data-original="#403E3E" class="" data-old_color="#2c3843"/>
	<rect x="328" y="384" style="fill:#2c3843" width="176" height="16" data-original="#403E3E" class="" data-old_color="#2c3843"/>
	<rect x="392" y="416" style="fill:#2c3843" width="48" height="16" data-original="#403E3E" class="" data-old_color="#2c3843"/>
	<rect x="408" y="176" style="fill:#2c3843" width="16" height="16" data-original="#403E3E" class="" data-old_color="#2c3843"/>
</g></g> </svg>
