<?xml version="1.0"?>
<svg xmlns="http://www.w3.org/2000/svg" xmlns:xlink="http://www.w3.org/1999/xlink" version="1.1" id="Capa_1" x="0px" y="0px" viewBox="-30 -30 556 556" style="enable-background:new 0 0 496 496;" xml:space="preserve" width="512px" height="512px" class="">
	<g>
		<g>
			<rect x="440" y="252" style="fill:#2c3843" width="16" height="184" data-original="#403E3E" class="" data-old_color="#2c3843"/>
			<path
				style="fill:#2c3843"
				d="M456,492H40c-10.392,0-20.352-4.24-28.056-11.944C4.24,472.36,0,462.392,0,452v-24h187.312l16,16   h89.376l16-16H496v24c0,10.392-4.24,20.352-11.944,28.056S466.392,492,456,492z M16,444v8c0,6.12,2.576,12.064,7.256,16.744   S33.88,476,40,476h416c6.12,0,12.064-2.576,16.744-7.256S480,458.12,480,452v-8H315.312l-16,16H196.688l-16-16H16z"
				data-original="#403E3E"
				class=""
				data-old_color="#2c3843"/>
			<path
				style="fill:#2c3843"
				d="M56,436H40v-83.312l96-96l64,64l96-96l64,64l80-80V180c0-2.016-0.848-3.936-2.464-5.544   c-1.6-1.608-3.52-2.456-5.536-2.456H64c-2.016,0-3.936,0.848-5.544,2.456C56.848,176.064,56,177.984,56,180v136H40V180   c0-6.264,2.536-12.248,7.144-16.856S57.736,156,64,156h368c6.256,0,12.248,2.536,16.856,7.144C453.472,167.752,456,173.736,456,180   v35.312l-96,96l-64-64l-96,96l-64-64l-80,80V436z"
				data-original="#403E3E"
				class=""
				data-old_color="#2c3843"/>
		</g>
		<g>
			<rect x="80" y="356" style="fill:#13d389" width="16" height="48" data-original="#F96232" class="active-path" data-old_color="#13d389"/>
			<rect x="112" y="324" style="fill:#13d389" width="16" height="80" data-original="#F96232" class="active-path" data-old_color="#13d389"/>
			<rect x="144" y="324" style="fill:#13d389" width="16" height="80" data-original="#F96232" class="active-path" data-old_color="#13d389"/>
			<rect x="176" y="356" style="fill:#13d389" width="16" height="48" data-original="#F96232" class="active-path" data-old_color="#13d389"/>
			<rect x="208" y="356" style="fill:#13d389" width="16" height="48" data-original="#F96232" class="active-path" data-old_color="#13d389"/>
			<rect x="240" y="324" style="fill:#13d389" width="16" height="80" data-original="#F96232" class="active-path" data-old_color="#13d389"/>
			<rect x="272" y="292" style="fill:#13d389" width="16" height="112" data-original="#F96232" class="active-path" data-old_color="#13d389"/>
			<rect x="304" y="292" style="fill:#13d389" width="16" height="112" data-original="#F96232" class="active-path" data-old_color="#13d389"/>
			<rect x="336" y="324" style="fill:#13d389" width="16" height="80" data-original="#F96232" class="active-path" data-old_color="#13d389"/>
			<rect x="368" y="324" style="fill:#13d389" width="16" height="80" data-original="#F96232" class="active-path" data-old_color="#13d389"/>
			<rect x="400" y="292" style="fill:#13d389" width="16" height="112" data-original="#F96232" class="active-path" data-old_color="#13d389"/>
		</g>
		<g>
			<rect x="80" y="196" style="fill:#2c3843" width="16" height="16" data-original="#403E3E" class="" data-old_color="#2c3843"/>
			<rect x="112" y="196" style="fill:#2c3843" width="16" height="16" data-original="#403E3E" class="" data-old_color="#2c3843"/>
			<rect x="144" y="196" style="fill:#2c3843" width="16" height="16" data-original="#403E3E" class="" data-old_color="#2c3843"/>
		</g>
		<g>
			<path
				style="fill:#9c9c9c"
				d="M384,140h-16v-9.472l-33.744-6.904l-1.216-4.888c-2.008-8.024-5.48-16.176-10.296-24.224L320,89.944   l21.48-29.152L327.128,46.44l-29.16,20.712l-4.488-2.688c-8.04-4.824-16.184-8.288-24.224-10.304l-4.856-1.216L257.504,20h-18.968   l-6.904,33.736l-4.888,1.224c-8.032,2.008-16.184,5.472-24.232,10.296L197.944,68l-29.152-21.48L154.44,60.872l20.712,29.152   l-2.688,4.488c-4.824,8.04-8.296,16.192-10.304,24.224l-1.216,4.864L128,130.504V140h-16v-22.504l36.008-7.536   c1.976-6.392,4.688-12.784,8.112-19.096L133.56,59.12l33.648-33.648l31.752,23.392c6.28-3.392,12.632-6.096,18.984-8.056L225.472,4   h45.032l7.536,36.008c6.392,1.976,12.784,4.696,19.096,8.112l31.744-22.56l33.648,33.648l-23.4,31.752   c3.4,6.28,6.096,12.632,8.056,18.984L384,117.472V140z"
				data-original="#43D3E8"
				class=""
				data-old_color="#9c9c9c"/>
			<path style="fill:#9c9c9c" d="M320,140h-16c0-30.88-25.128-56-56-56c-30.88,0-56,25.12-56,56h-16c0-39.696,32.304-72,72-72   C287.704,68,320,100.304,320,140z" data-original="#43D3E8" class="" data-old_color="#9c9c9c"/>
		</g><path style="fill:#2c3843" d="M280,140h-16c0-9.12-6.872-16-16-16c-9.12,0-16,6.88-16,16h-16c0-17.944,14.056-32,32-32  S280,122.056,280,140z" data-original="#403E3E" class="" data-old_color="#2c3843"/></g>
</svg>
