<?xml version="1.0"?>
<svg xmlns="http://www.w3.org/2000/svg" xmlns:xlink="http://www.w3.org/1999/xlink" version="1.1" id="Capa_1" x="0px" y="0px" viewBox="0 0 472 472" style="enable-background:new 0 0 472 472;" xml:space="preserve" width="512px" height="512px" class=""><g><g>
	<path style="fill:#2c3843" d="M313.104,433.928l-5.408-15.064c71.184-25.528,122.528-88.4,134-164.064l15.816,2.392   C445.168,338.688,389.832,406.408,313.104,433.928z" data-original="#403E3E" class="" data-old_color="#2c3843"/>
	<path style="fill:#2c3843" d="M441.688,193.16C426.92,92.16,338.496,16,236,16S45.08,92.16,30.312,193.16l-15.832-2.312   C30.384,82.04,125.616,0,236,0s205.608,82.04,221.512,190.84L441.688,193.16z" data-original="#403E3E" class="" data-old_color="#2c3843"/>
	<path style="fill:#2c3843" d="M210.28,446.344c-100.312-11.6-180.824-89.384-195.792-189.16l15.824-2.376   c13.896,92.64,88.664,164.864,181.808,175.64L210.28,446.344z" data-original="#403E3E" class="" data-old_color="#2c3843"/>
</g><path style="fill:#9c9c9c" d="M236,472c-17.648,0-32-14.352-32-32s14.352-32,32-32s32,14.352,32,32S253.648,472,236,472z M236,424  c-8.824,0-16,7.176-16,16s7.176,16,16,16s16-7.176,16-16S244.824,424,236,424z" data-original="#F96232" class="active-path" data-old_color="#9c9c9c"/><g>
	<path style="fill:#2c3843" d="M95.016,193.704l-15.632-3.416c9.936-45.512,39.384-84.496,80.808-106.928l7.616,14.072   C130.488,117.656,103.952,152.744,95.016,193.704z" data-original="#403E3E" class="" data-old_color="#2c3843"/>
	<path style="fill:#2c3843" d="M236,384c-75.432,0-141.304-53.144-156.632-126.36l15.664-3.28C108.816,320.208,168.104,368,236,368   c68.216,0,126.192-46.768,140.984-113.728l15.624,3.456C376.184,332.072,311.792,384,236,384z" data-original="#403E3E" class="" data-old_color="#2c3843"/>
	<path style="fill:#2c3843" d="M376.96,193.632c-12.056-58.048-59.544-103.104-118.176-112.12l2.44-15.816   c65.184,10.024,118,60.136,131.416,124.672L376.96,193.632z" data-original="#403E3E" class="" data-old_color="#2c3843"/>
</g><g>
	<path style="fill:#9c9c9c" d="M236,104c-17.648,0-32-14.352-32-32s14.352-32,32-32s32,14.352,32,32S253.648,104,236,104z M236,56   c-8.824,0-16,7.176-16,16s7.176,16,16,16s16-7.176,16-16S244.824,56,236,56z" data-original="#F96232" class="active-path" data-old_color="#9c9c9c"/>
	<path style="fill:#9c9c9c" d="M236,320c-52.936,0-96-43.064-96-96c0-42.84,28.712-80.88,69.824-92.504l4.352,15.4   C179.376,156.736,156,187.72,156,224c0,44.112,35.888,80,80,80c35.712,0,67.424-23.92,77.104-58.176l15.392,4.344   C316.872,291.288,278.84,320,236,320z" data-original="#F96232" class="active-path" data-old_color="#9c9c9c"/>
</g><g>
	<path style="fill:#13d389" d="M332,232H228V128h8c52.936,0,96,43.064,96,96V232z M244,216h71.6   c-3.768-37.736-33.864-67.84-71.6-71.6V216z" data-original="#43D3E8" class="" data-old_color="#13d389"/>
	
		<rect x="187.708" y="236.008" transform="matrix(-0.7071 0.7071 -0.7071 -0.7071 541.2542 263.8213)" style="fill:#13d389" width="56.559" height="16" data-original="#43D3E8" class="" data-old_color="#13d389"/>
</g><g>
	<rect x="412" y="216" style="fill:#2c3843" width="16" height="16" data-original="#403E3E" class="" data-old_color="#2c3843"/>
	<rect x="444" y="216" style="fill:#2c3843" width="16" height="16" data-original="#403E3E" class="" data-old_color="#2c3843"/>
	<rect x="380" y="216" style="fill:#2c3843" width="16" height="16" data-original="#403E3E" class="" data-old_color="#2c3843"/>
	<rect x="44" y="216" style="fill:#2c3843" width="16" height="16" data-original="#403E3E" class="" data-old_color="#2c3843"/>
	<rect x="76" y="216" style="fill:#2c3843" width="16" height="16" data-original="#403E3E" class="" data-old_color="#2c3843"/>
	<rect x="12" y="216" style="fill:#2c3843" width="16" height="16" data-original="#403E3E" class="" data-old_color="#2c3843"/>
	<rect x="44" y="32" style="fill:#2c3843" width="16" height="16" data-original="#403E3E" class="" data-old_color="#2c3843"/>
	<rect x="412" y="32" style="fill:#2c3843" width="16" height="16" data-original="#403E3E" class="" data-old_color="#2c3843"/>
	<rect x="44" y="400" style="fill:#2c3843" width="16" height="16" data-original="#403E3E" class="" data-old_color="#2c3843"/>
	<rect x="412" y="400" style="fill:#2c3843" width="16" height="16" data-original="#403E3E" class="" data-old_color="#2c3843"/>
</g></g> </svg>
