<?xml version="1.0"?>
<svg xmlns="http://www.w3.org/2000/svg" xmlns:xlink="http://www.w3.org/1999/xlink" version="1.1" id="Capa_1" x="0px" y="0px" viewBox="0 0 512 512" style="enable-background:new 0 0 512 512;" xml:space="preserve" width="512px" height="512px" class="">
	<g><path
		style="fill:#9c9c9c"
		d="M271.961,50v113.972c0,22.091,17.909,40,40,40h42.855L387.091,246l32.034-42.028h42.836  c22.091,0,40-17.909,40-40V50c0-22.091-17.909-40-40-40h-150C289.87,10,271.961,27.909,271.961,50z"
		data-original="#FE6663"
		class=""
		data-old_color="#9c9c9c"/><path
		style="fill:#13d389"
		d="M74.191,23.803L55.138,42.856c-60.235,60.235-60.235,157.896,0,218.131l195.837,195.837  c60.235,60.235,157.896,60.235,218.131,0l19.053-19.053c18.404-18.404,18.404-48.243,0-66.647l-72.296-72.296  c-18.404-18.404-48.243-18.404-66.647,0l-42.358,42.358L170.712,205.04l42.358-42.358c18.404-18.404,18.404-48.243,0-66.647  l-72.232-72.232C122.434,5.399,92.595,5.399,74.191,23.803z"
		data-original="#54BDFF"
		class="active-path"
		data-old_color="#13d389"/>
		<g>
			<path
				style="fill:#FFFFFF;"
				d="M415.863,298.828c-18.404-18.404-48.243-18.404-66.647,0l-25.213,25.213l138.766,138.766   c2.153-1.926,4.269-3.916,6.337-5.984l19.053-19.053c18.404-18.404,18.404-48.243,0-66.647L415.863,298.828z"
				data-original="#FFFFFF"
				class=""/>
			<path
				style="fill:#FFFFFF;"
				d="M187.857,187.895l25.213-25.213c18.404-18.404,18.404-48.243,0-66.647l-72.232-72.232   c-18.404-18.404-48.243-18.404-66.647,0L55.138,42.856c-2.068,2.068-4.058,4.184-5.984,6.337L187.857,187.895z"
				data-original="#FFFFFF"
				class=""/>
		</g><path style="fill:#2c3843"
			d="M154.221,350.069c-2.63,0-5.21,1.07-7.07,2.931c-1.86,1.859-2.93,4.439-2.93,7.069c0,2.631,1.07,5.211,2.93,7.07  c1.86,1.86,4.44,2.93,7.07,2.93s5.21-1.069,7.07-2.93c1.86-1.859,2.93-4.439,2.93-7.07c0-2.63-1.07-5.21-2.93-7.069  C159.431,351.14,156.851,350.069,154.221,350.069z"
			data-original="#000000"
			class=""/><path style="fill:#2c3843"
			d="M422.934,291.757c-10.79-10.79-25.135-16.732-40.395-16.732s-29.604,5.942-40.394,16.732l-25.211,25.21  c-0.001,0.001-0.002,0.002-0.003,0.003s-0.002,0.002-0.003,0.003l-10.071,10.07L184.854,205.04l35.287-35.286  c22.273-22.274,22.273-58.516,0-80.79l-72.233-72.232c-22.273-22.271-58.515-22.271-80.789,0L48.066,35.784  c-64.037,64.038-64.037,168.235,0,232.273l70.252,70.252c3.905,3.904,10.237,3.904,14.143,0c3.905-3.905,3.905-10.237,0-14.143  l-70.252-70.252C10.453,202.159,6.33,120.534,49.835,64.015l75.941,75.942c1.953,1.952,4.512,2.929,7.071,2.929  s5.119-0.977,7.071-2.929c3.905-3.905,3.906-10.237,0-14.143L63.12,49.015l18.141-18.141c14.476-14.474,38.029-14.476,52.505,0  l72.232,72.232c14.476,14.476,14.476,38.029,0,52.505l-42.358,42.357c-1.875,1.876-2.929,4.419-2.929,7.071s1.054,5.195,2.929,7.071  l136.146,136.146c3.906,3.906,10.238,3.905,14.142,0l10.074-10.073l123.95,123.95C422.861,481.501,392.259,492,360.04,492  c-38.528,0-74.75-15.004-101.994-42.248L186.794,378.5c-3.904-3.904-10.237-3.904-14.142,0c-3.905,3.905-3.905,10.237,0,14.143  l71.252,71.252C274.925,494.916,316.17,512,360.04,512c43.871,0,85.116-17.084,116.137-48.105l19.052-19.053  c10.79-10.789,16.732-25.135,16.732-40.395c0-15.259-5.942-29.604-16.732-40.395L422.934,291.757z M481.087,430.699l-18.142,18.142  l-124.8-124.8l18.142-18.142c7.012-7.013,16.335-10.875,26.252-10.875s19.24,3.862,26.252,10.875l72.295,72.296  c7.013,7.012,10.875,16.336,10.875,26.252C491.961,414.364,488.1,423.688,481.087,430.699z"
			data-original="#000000"
			class=""/><path style="fill:#2c3843"
			d="M157.131,167.17c2.63,0,5.21-1.07,7.07-2.93c1.86-1.86,2.93-4.44,2.93-7.07s-1.07-5.21-2.93-7.07  c-1.86-1.87-4.44-2.93-7.07-2.93s-5.21,1.06-7.07,2.93c-1.86,1.86-2.93,4.431-2.93,7.07c0,2.63,1.07,5.21,2.93,7.07  C151.921,166.1,154.501,167.17,157.131,167.17z"
			data-original="#000000"
			class=""/><path style="fill:#2c3843"
			d="M389.398,40.084c-9.726-0.661-18.991,2.61-26.091,9.238c-7.001,6.535-11.017,15.774-11.017,25.35c0,5.522,4.477,10,10,10  s10-4.478,10-10c0-4.111,1.656-7.922,4.664-10.729c3.003-2.804,6.929-4.187,11.069-3.905c7.239,0.498,13.074,6.334,13.572,13.573  c0.505,7.319-4.293,13.787-11.406,15.379c-7.789,1.74-13.229,8.512-13.229,16.465v18.012c0,5.522,4.477,10,10,10s10-4.478,10-10  V107.88c15.494-4.622,25.719-19.229,24.587-35.645C420.367,55.087,406.545,41.266,389.398,40.084z"
			data-original="#000000"
			class=""/><path style="fill:#2c3843"
			d="M386.961,149.06c-2.63,0-5.21,1.061-7.07,2.92c-1.86,1.87-2.93,4.44-2.93,7.08c0,2.63,1.07,5.21,2.93,7.07  s4.44,2.93,7.07,2.93s5.21-1.069,7.07-2.93s2.93-4.44,2.93-7.07c0-2.64-1.07-5.21-2.93-7.08  C392.171,150.12,389.591,149.06,386.961,149.06z"
			data-original="#000000"
			class=""/><path style="fill:#2c3843"
			d="M461.961,0h-150c-27.57,0-50,22.43-50,50v113.973c0,27.57,22.43,50,50,50h37.925l29.273,38.118  c1.893,2.465,4.824,3.909,7.931,3.909c0.006,0,0.012,0,0.018,0c3.114-0.006,6.047-1.462,7.935-3.938l29.032-38.089h37.885  c27.57,0,50-22.43,50-50V50C511.961,22.43,489.532,0,461.961,0z M491.961,163.973c0,16.542-13.458,30-30,30h-42.836  c-3.12,0-6.062,1.456-7.953,3.938l-24.11,31.632l-24.314-31.661c-1.893-2.465-4.824-3.909-7.931-3.909h-42.854  c-16.542,0-30-13.458-30-30V50c0-16.542,13.458-30,30-30h150c16.542,0,30,13.458,30,30v113.973H491.961z"
			data-original="#000000"
			class=""/></g>
</svg>
