<?xml version="1.0" encoding="utf-8"?>
<!-- Generator: Adobe Illustrator 23.0.1, SVG Export Plug-In . SVG Version: 6.00 Build 0)  -->
<svg version="1.1" id="Ebene_1" xmlns="http://www.w3.org/2000/svg" xmlns:xlink="http://www.w3.org/1999/xlink" x="0px" y="0px"
	 viewBox="0 0 90 90" style="enable-background:new 0 0 90 90;" xml:space="preserve">
<style type="text/css">
	.st0{clip-path:url(#SVGID_2_);fill:none;stroke:#3D6176;stroke-width:3;stroke-linecap:round;stroke-linejoin:round;}
	.st1{clip-path:url(#SVGID_2_);}
	.st2{fill:none;stroke:#3D6176;stroke-width:3;stroke-linecap:round;stroke-linejoin:round;}
	.st3{clip-path:url(#SVGID_2_);fill:#3C6176;stroke:#3D6176;stroke-width:3;stroke-linecap:round;stroke-linejoin:round;}
	.st4{clip-path:url(#SVGID_2_);fill:none;stroke:#13d389;stroke-width:3;stroke-linejoin:round;}
</style>
<g>
	<defs>
		<rect id="SVGID_1_" width="90" height="90"/>
	</defs>
	<clipPath id="SVGID_2_">
		<use xlink:href="#SVGID_1_"  style="overflow:visible;"/>
	</clipPath>
	<path class="st0" d="M82.5,66.3c0.1,2.8-2,5.1-4.8,5.2c0,0-0.1,0-0.1,0H12.4c-2.8-0.1-5-2.3-4.9-5.1c0,0,0-0.1,0-0.1V18
		c-0.1-2.8,2.1-5.1,4.8-5.2c0,0,0.1,0,0.1,0h65.3c2.8,0.1,5,2.3,4.9,5.1c0,0,0,0.1,0,0.1V66.3z"/>
	<g class="st1">
		<line class="st2" x1="22.2" y1="78" x2="67.8" y2="78"/>
		<line class="st2" x1="45" y1="71.5" x2="45" y2="78"/>
	</g>
	<path class="st3" d="M45,63.4c0.9,0,1.6,0.7,1.6,1.6c0,0.9-0.7,1.6-1.6,1.6c-0.9,0-1.6-0.7-1.6-1.6C43.4,64.1,44.1,63.4,45,63.4z"
		/>
	<line class="st0" x1="7.5" y1="58.5" x2="82.5" y2="58.5"/>
	<rect x="-69.4" y="27.2" class="st0" width="9.8" height="22.8"/>
	<polygon class="st4" points="30,32.2 33,37 30,42 14.6,42 14.6,32.2 	"/>
	<polygon class="st0" points="51.2,32.2 54.2,37 51.2,42 35.8,42 38.8,37 35.8,32.2 	"/>
	<polygon class="st4" points="72.7,32.2 75.7,37 72.7,42 57.3,42 60.3,37 57.3,32.2 	"/>
</g>
</svg>
