<?xml version="1.0"?>
<svg xmlns="http://www.w3.org/2000/svg" xmlns:xlink="http://www.w3.org/1999/xlink" version="1.1" id="Capa_1" x="0px" y="0px" viewBox="0 0 512 512" style="enable-background:new 0 0 512 512;" xml:space="preserve" width="512px" height="512px" class="">
  <g><path style="fill:#9c9c9c" d="M428.004,502h-398c-11.046,0-20-8.954-20-20V30c0-11.046,8.954-20,20-20h398c11.046,0,20,8.954,20,20  v452C448.004,493.046,439.05,502,428.004,502z" data-original="#A5DDFF" class="" data-old_color="#13d389"/><rect x="57.998" y="58" style="fill:#FFFFFF;" width="342.01" height="396" data-original="#FFFFFF" class=""/><polygon style="fill:#9c9c9c" points="437.999,310.695 437.999,404.695 405.999,372.861 373.999,404.695 373.999,310.695 " data-original="#95E540" class="active-path" data-old_color="#9c9c9c"/><path
    style="fill:#13d389"
    d="M416.302,121.707L416.302,121.707c9.466-6.069,22.1-2.683,27.264,7.305l0,0  c3.425,6.626,10.396,10.651,17.847,10.304l0,0c11.232-0.523,20.481,8.726,19.958,19.958l0,0  c-0.347,7.451,3.678,14.422,10.304,17.847l0,0c9.988,5.163,13.374,17.798,7.305,27.264l0,0c-4.026,6.279-4.026,14.328,0,20.608l0,0  c6.069,9.466,2.683,22.1-7.305,27.264l0,0c-6.626,3.425-10.651,10.396-10.304,17.847l0,0c0.523,11.232-8.726,20.481-19.958,19.958  l0,0c-7.451-0.347-14.422,3.678-17.847,10.304l0,0c-5.164,9.988-17.798,13.374-27.264,7.305l0,0c-6.279-4.026-14.328-4.026-20.608,0  l0,0c-9.466,6.069-22.1,2.683-27.264-7.305l0,0c-3.425-6.626-10.396-10.651-17.847-10.304l0,0  c-11.232,0.522-20.481-8.726-19.958-19.958l0,0c0.347-7.451-3.678-14.422-10.304-17.847l0,0  c-9.988-5.164-13.374-17.798-7.305-27.264l0,0c4.026-6.279,4.026-14.328,0-20.608l0,0c-6.069-9.466-2.683-22.1,7.305-27.264l0,0  c6.626-3.425,10.651-10.396,10.304-17.847l0,0c-0.522-11.232,8.726-20.481,19.958-19.958l0,0  c7.451,0.347,14.422-3.678,17.847-10.304l0,0c5.163-9.988,17.798-13.374,27.264-7.305l0,0  C401.974,125.732,410.023,125.732,416.302,121.707z"
    data-original="#FE6663"
    class=""
    data-old_color="#13d389"/>
    <path style="fill:#2c3843"
    d="M448.004,444c-5.523,0-10,4.477-10,10v28c0,5.514-4.486,10-10,10h-398c-5.514,0-10-4.486-10-10V30c0-5.514,4.486-10,10-10  h398c5.514,0,10,4.486,10,10v53c0,5.523,4.477,10,10,10s10-4.477,10-10V30c0-16.542-13.458-30-30-30h-398c-16.542,0-30,13.458-30,30  v452c0,16.542,13.458,30,30,30h398c16.542,0,30-13.458,30-30v-28C458.004,448.477,453.527,444,448.004,444z"
    data-original="#2c3843"
    class=""/>
    <path style="fill:#2c3843" d="M400.01,94c5.523,0,10-4.477,10-10V58c0-5.523-4.477-10-10-10H57.998c-5.523,0-10,4.477-10,10v209c0,5.523,4.477,10,10,10  s10-4.477,10-10V68H390.01v16C390.01,89.523,394.488,94,400.01,94z" data-original="#2c3843" class=""/>
    <path style="fill:#2c3843"
    d="M57.994,314c2.64,0,5.21-1.07,7.07-2.93c1.87-1.86,2.93-4.44,2.93-7.07s-1.06-5.21-2.93-7.07  c-1.86-1.86-4.43-2.93-7.07-2.93c-2.63,0-5.21,1.07-7.07,2.93s-2.93,4.44-2.93,7.07s1.07,5.21,2.93,7.07S55.364,314,57.994,314z"
    data-original="#2c3843"
    class=""/>
    <path style="fill:#2c3843" d="M67.998,342.5c0-5.523-4.477-10-10-10s-10,4.477-10,10V454c0,5.523,4.477,10,10,10H400.01c5.523,0,10-4.477,10-10v-22  c0-5.523-4.477-10-10-10s-10,4.477-10,10v12H67.998V342.5z" data-original="#2c3843" class=""/>
    <path style="fill:#2c3843"
    d="M295.766,353.335L276.002,373.1l-12.285-12.286c-7.757-7.756-20.376-7.756-28.133,0l-7.994,7.994  c-3.905,3.905-3.905,10.237,0,14.143c3.905,3.905,10.237,3.905,14.143,0l7.918-7.918l12.285,12.286  c3.878,3.878,8.972,5.817,14.066,5.817s10.188-1.939,14.066-5.817l19.84-19.84c3.905-3.905,3.905-10.237,0-14.143  S299.672,349.43,295.766,353.335z"
    data-original="#2c3843"
    class=""/>
    <path style="fill:#2c3843"
    d="M507.4,209.782c4.407-6.875,5.723-15.343,3.609-23.231c-2.114-7.888-7.486-14.563-14.741-18.313  c-3.146-1.626-5.072-4.962-4.907-8.499c0.379-8.158-2.715-16.148-8.489-21.923c-5.774-5.774-13.762-8.873-21.923-8.489  c-3.554,0.172-6.873-1.762-8.499-4.907c-3.75-7.254-10.425-12.627-18.313-14.741c-7.891-2.115-16.356-0.798-23.23,3.609l0,0  c-2.981,1.912-6.833,1.911-9.813,0c-6.875-4.408-15.341-5.723-23.23-3.609c-7.888,2.114-14.563,7.487-18.313,14.741  c-1.626,3.146-4.971,5.067-8.499,4.907c-8.161-0.381-16.148,2.715-21.922,8.489c-5.775,5.775-8.869,13.765-8.49,21.922  c0.165,3.538-1.762,6.874-4.907,8.5c-7.254,3.75-12.627,10.424-14.741,18.313c-1.009,3.763-1.228,7.658-0.711,11.449h-174.5  c-5.523,0-10,4.477-10,10s4.477,10,10,10H305.39c-0.215,0.549-0.464,1.088-0.79,1.596c-4.407,6.875-5.723,15.343-3.609,23.231  c0.29,1.083,0.647,2.141,1.057,3.173h-176.27c-5.523,0-10,4.477-10,10c0,5.523,4.477,10,10,10h194.265  c0.435,1.143,0.653,2.376,0.594,3.639c-0.379,8.158,2.715,16.148,8.49,21.923c5.774,5.774,13.761,8.874,21.922,8.489  c3.533-0.173,6.873,1.761,8.499,4.907c1.201,2.324,2.706,4.451,4.451,6.344v93.393c0,4.04,2.431,7.683,6.161,9.234  c3.729,1.551,8.027,0.705,10.892-2.145l24.947-24.817l24.947,24.817c1.912,1.902,4.461,2.911,7.055,2.911  c1.292,0,2.596-0.251,3.837-0.767c3.73-1.551,6.161-5.194,6.161-9.234v-93.393c1.745-1.892,3.25-4.02,4.451-6.344  c1.626-3.146,4.966-5.068,8.499-4.907c8.166,0.386,16.148-2.714,21.922-8.489c5.775-5.775,8.869-13.765,8.49-21.923  c-0.165-3.537,1.762-6.873,4.907-8.499c7.254-3.75,12.627-10.424,14.741-18.313c2.114-7.889,0.798-16.356-3.609-23.232  C505.488,216.615,505.488,212.763,507.4,209.782z M413.051,365.772c-3.901-3.881-10.204-3.881-14.105,0l-14.947,14.87V320.65  c5.983,0.282,11.979-1.282,17.094-4.56c2.981-1.912,6.833-1.911,9.813,0c4.723,3.028,10.197,4.597,15.72,4.597  c0.458,0,0.915-0.023,1.373-0.045v60L413.051,365.772z M490.562,230.39c1.398,2.18,1.799,4.759,1.128,7.261  c-0.67,2.501-2.307,4.534-4.607,5.723c-10.064,5.203-16.228,15.877-15.701,27.195c0.121,2.587-0.822,5.02-2.653,6.852  c-1.831,1.831-4.264,2.771-6.851,2.653c-11.324-0.524-21.992,5.636-27.195,15.701c-1.189,2.301-3.222,3.937-5.724,4.607  c-2.5,0.669-5.08,0.27-7.259-1.128c-4.77-3.058-10.235-4.586-15.702-4.586c-5.465,0-10.932,1.529-15.701,4.586  c-2.18,1.397-4.759,1.797-7.26,1.128c-2.502-0.67-4.534-2.307-5.724-4.607c-5.203-10.064-15.869-16.23-27.195-15.701  c-2.581,0.119-5.02-0.822-6.851-2.653c-1.832-1.832-2.774-4.265-2.653-6.853c0.371-7.988-2.602-15.646-7.915-21.295  c-0.156-0.171-0.315-0.339-0.483-0.499c-2.11-2.139-4.555-3.979-7.303-5.4c-2.3-1.189-3.936-3.221-4.606-5.723  c-0.67-2.502-0.27-5.081,1.128-7.26c6.115-9.538,6.115-21.864,0-31.402c-1.397-2.18-1.798-4.759-1.128-7.261  c0.67-2.501,2.307-4.534,4.607-5.723c10.064-5.203,16.227-15.877,15.701-27.195c-0.121-2.587,0.822-5.02,2.653-6.852  c1.831-1.832,4.269-2.772,6.851-2.653c11.325,0.525,21.993-5.636,27.195-15.701c1.189-2.301,3.222-3.937,5.724-4.607  c2.501-0.669,5.08-0.27,7.259,1.128c9.539,6.116,21.866,6.116,31.402,0c2.18-1.397,4.758-1.799,7.26-1.128  c2.502,0.67,4.534,2.307,5.724,4.607c5.203,10.064,15.876,16.229,27.195,15.701c2.588-0.118,5.02,0.821,6.851,2.653  c1.832,1.832,2.774,4.265,2.653,6.852c-0.526,11.317,5.636,21.992,15.702,27.195c2.3,1.189,3.936,3.221,4.606,5.723  c0.67,2.502,0.27,5.081-1.128,7.26C484.447,208.526,484.447,220.852,490.562,230.39z"
    data-original="#2c3843"
    class=""/>
    <path style="fill:#2c3843"
    d="M439.414,187.486l-33.191,33.192l-13.213-13.213c-3.905-3.905-10.237-3.905-14.143,0c-3.905,3.905-3.905,10.237,0,14.143  l20.284,20.284c1.953,1.953,4.512,2.929,7.071,2.929s5.119-0.976,7.071-2.929l40.263-40.263c3.905-3.905,3.905-10.237,0-14.143  C449.651,183.581,443.319,183.581,439.414,187.486z"
    data-original="#2c3843"
    class=""/>
    <path style="fill:#2c3843" d="M125.004,128c0-2.63-1.07-5.21-2.93-7.07s-4.44-2.93-7.07-2.93s-5.21,1.07-7.07,2.93s-2.93,4.44-2.93,7.07  c0,2.63,1.07,5.21,2.93,7.07s4.44,2.93,7.07,2.93s5.21-1.07,7.07-2.93S125.004,130.63,125.004,128z" data-original="#2c3843" class=""/>
    <path style="fill:#2c3843" d="M152.33,118c-5.523,0-10,4.477-10,10c0,5.523,4.477,10,10,10h48.667c5.523,0,10-4.477,10-10s-4.477-10-10-10H152.33z" data-original="#2c3843" class=""/>
    <path style="fill:#2c3843" d="M302.838,294H188.516c-5.523,0-10,4.477-10,10s4.477,10,10,10h114.321c5.523,0,10-4.477,10-10S308.361,294,302.838,294z" data-original="#2c3843" class=""/></g>
</svg>
