<svg id="Ebene_1" data-name="Ebene 1" xmlns="http://www.w3.org/2000/svg" viewBox="0 0 90 90">
  <defs>
    <style>
      .cls-1,
      .cls-2 {
        fill: none;
        stroke-linejoin: round;
        stroke-width: 3px;
      }
      .cls-1 {
        stroke: #13d389;
      }
      .cls-2 {
        stroke: #2c3843;
        stroke-linecap: round;
      }
    </style>
  </defs>
  <title>icon</title><path
    class="cls-1"
    d="M74.46,57.51l3-1.75L73.25,48.4l-3.06,1.77a14.15,14.15,0,0,0-5.28-3V43.58H56.4v3.55a14.15,14.15,0,0,0-5.29,3L48.06,48.4l-4.25,7.36,3,1.75a13.48,13.48,0,0,0,0,6.14l-3,1.75,4.25,7.36L51.12,71a14.1,14.1,0,0,0,5.29,3v3.55h8.5V74a14.1,14.1,0,0,0,5.28-3l3.06,1.76,4.25-7.36-3-1.75A13.45,13.45,0,0,0,74.46,57.51Z"/><circle class="cls-1" cx="60.65" cy="60.58" r="5.66"/><rect class="cls-2" x="12.5" y="12.43" width="59.48" height="19.83" rx="2.83" ry="2.83"/><line class="cls-2" x1="33.75" y1="26.59" x2="62.07" y2="26.59"/><line class="cls-2" x1="33.75" y1="20.93" x2="62.07" y2="20.93"/><circle class="cls-2" cx="22.42" cy="22.34" r="2.83"/><path class="cls-2" d="M36.58,52.08H15.34a2.83,2.83,0,0,1-2.83-2.83V35.09a2.83,2.83,0,0,1,2.83-2.83H69.15A2.83,2.83,0,0,1,72,35.09v4.25"/><line class="cls-2" x1="33.75" y1="46.42" x2="39.41" y2="46.42"/><line class="cls-2" x1="33.75" y1="40.75" x2="42.24" y2="40.75"/><circle class="cls-2" cx="22.42" cy="42.17" r="2.83"/><path class="cls-2" d="M39.41,71.91H15.34a2.83,2.83,0,0,1-2.83-2.83V54.91a2.83,2.83,0,0,1,2.83-2.83H36.58"/><circle class="cls-2" cx="22.42" cy="61.99" r="2.83"/></svg>