<?xml version="1.0"?>
<svg xmlns="http://www.w3.org/2000/svg" xmlns:xlink="http://www.w3.org/1999/xlink" version="1.1" id="Capa_1" x="0px" y="0px" viewBox="0 0 512 512" style="enable-background:new 0 0 512 512;" xml:space="preserve" width="512px" height="512px" class="">
  <g><path
    style="fill:#13d389"
    d="M260.333,147l-44.75-44.75V50c0-22.091-17.909-40-40-40H50c-22.091,0-40,17.909-40,40v88  c0,22.091,17.909,40,40,40h125.583c18.995,0,34.886-13.245,38.971-31H260.333z"
    data-original="#A5DDFF"
    class=""
    data-old_color="#13d389"/><path
    style="fill:#9c9c9c"
    d="M251.667,365l44.75,44.75V462c0,22.091,17.909,40,40,40H462c22.091,0,40-17.909,40-40v-88  c0-22.091-17.909-40-40-40H336.417c-18.995,0-34.886,13.245-38.971,31H251.667z"
    data-original="#BAEE83"
    class="active-path"
    data-old_color="#9c9c9c"/><path style="fill:#9c9c9c" d="M173.276,376.426H92.85c-45.757,0-82.85,37.093-82.85,82.85V502h246.127v-42.724  C256.127,413.519,219.034,376.426,173.276,376.426z" data-original="#FFBC53" class="" data-old_color="#9c9c9c"/><polygon style="fill:#FFFFFF;" points="178.971,376.426 133.063,422.333 87.156,376.426 " data-original="#FFFFFF" class=""/><path style="fill:#13d389" d="M120.139,232.096h67.073v33.286c0,17.264-13.996,31.26-31.26,31.26H78.916V273.32  C78.916,250.553,97.372,232.096,120.139,232.096z" data-original="#5CC1FF" class="" data-old_color="#13d389"/><path style="fill:#FFCDAC;" d="M187.211,296.642v25.636c0,29.905-24.243,54.148-54.148,54.148l0,0  c-29.905,0-54.148-24.243-54.148-54.148v-25.636H187.211z" data-original="#FFCDAC" class=""/><path style="fill:#13d389" d="M419.15,154.329h-80.426c-45.757,0-82.85,37.093-82.85,82.85v42.724H502V237.18  C502,191.423,464.907,154.329,419.15,154.329z" data-original="#5CC1FF" class="" data-old_color="#13d389"/><polygon style="fill:#FFFFFF;" points="424.844,154.329 378.937,200.237 333.029,154.329 " data-original="#FFFFFF" class=""/><path style="fill:#9c9c9c" d="M366.012,10h67.073v33.286c0,17.264-13.996,31.26-31.26,31.26h-77.036V51.223  C324.789,28.456,343.245,10,366.012,10z" data-original="#FFC870" class="" data-old_color="#9c9c9c"/><path style="fill:#FFCDAC;" d="M433.084,74.546v25.636c0,29.905-24.243,54.148-54.148,54.148l0,0  c-29.905,0-54.148-24.243-54.148-54.148V74.546H433.084z" data-original="#FFCDAC" class=""/><path
    d="M181.72,366.814c-0.723-0.206-1.463-0.322-2.208-0.362c10.954-11.513,17.7-27.066,17.7-44.174v-52.611  c0-0.481-0.046-0.95-0.111-1.412c0.066-0.95,0.111-1.906,0.111-2.872v-33.286c0-5.523-4.477-10-10-10h-67.073  c-28.245,0-51.223,22.979-51.223,51.223v48.958c0,17.108,6.745,32.661,17.7,44.174c-0.744,0.04-1.484,0.156-2.206,0.362  C37.153,371.093,0,410.924,0,459.276V502c0,5.523,4.477,10,10,10h246.127c5.523,0,10-4.477,10-10v-42.724  C266.127,410.925,228.976,371.094,181.72,366.814z M88.916,306.642h67.036c7.772,0,15.047-2.162,21.26-5.914v21.549  c0,24.343-19.805,44.148-44.148,44.148s-44.148-19.805-44.148-44.148V306.642z M154.829,386.426l-21.765,21.766l-21.765-21.766  H154.829z M88.916,273.319c0-17.216,14.007-31.223,31.223-31.223h57.073v23.286c0,11.723-9.537,21.26-21.26,21.26H88.916v-0.641  V273.319z M246.127,492H20v-20h41.5c5.523,0,10-4.477,10-10s-4.477-10-10-10H20.365c3.359-33.716,29.806-60.717,63.255-64.969  l42.373,42.373c1.875,1.875,4.419,2.929,7.071,2.929s5.196-1.054,7.071-2.929l42.373-42.373c35.824,4.553,63.62,35.204,63.62,72.245  V492H246.127z"
    data-original="#000000"
    class=""/><path
    d="M427.595,144.718c-0.723-0.206-1.464-0.322-2.21-0.362c10.954-11.513,17.699-27.066,17.699-44.174V47.57  c0-0.481-0.046-0.95-0.111-1.412c0.066-0.95,0.111-1.906,0.111-2.872V10c0-5.523-4.477-10-10-10h-67.073  c-28.245,0-51.223,22.979-51.223,51.223v48.958c0,17.108,6.745,32.661,17.699,44.174c-0.745,0.04-1.487,0.156-2.21,0.362  c-47.255,4.281-84.405,44.112-84.405,92.462v42.723c0,5.523,4.477,10,10,10h80.46c5.523,0,10-4.477,10-10s-4.477-10-10-10h-70.46  V237.18c0-37.041,27.795-67.692,63.619-72.245l42.373,42.373c1.953,1.953,4.512,2.929,7.071,2.929s5.119-0.976,7.071-2.929  l42.373-42.373C464.205,169.489,492,200.139,492,237.18v32.723h-73.667c-5.523,0-10,4.477-10,10s4.477,10,10,10H502  c5.523,0,10-4.477,10-10V237.18C512,188.83,474.849,148.999,427.595,144.718z M334.789,100.182V84.546h67.036  c7.772,0,15.047-2.163,21.26-5.914v21.549c0,24.343-19.805,44.148-44.148,44.148S334.789,124.525,334.789,100.182z M334.789,51.223  c0-17.216,14.007-31.223,31.223-31.223h57.073v23.286c0,11.723-9.537,21.26-21.26,21.26h-67.036v-0.641L334.789,51.223  L334.789,51.223z M378.937,186.095l-21.765-21.765h43.53L378.937,186.095z"
    data-original="#000000"
    class=""/><path
    d="M386.01,286.97c1.86-1.86,2.93-4.43,2.93-7.07c0-2.63-1.07-5.21-2.93-7.07c-1.86-1.86-4.44-2.93-7.07-2.93  c-2.64,0-5.21,1.07-7.07,2.93c-1.87,1.86-2.93,4.44-2.93,7.07c0,2.64,1.06,5.21,2.93,7.07c1.86,1.87,4.43,2.93,7.07,2.93  C381.57,289.9,384.15,288.84,386.01,286.97z"
    data-original="#000000"
    class=""/><path
    d="M50,188h125.583c20.674,0,38.702-12.407,46.266-31h38.484c4.044,0,7.691-2.437,9.239-6.173  c1.548-3.736,0.692-8.038-2.167-10.898l-41.821-41.821V50c0-27.57-22.43-50-50-50H50C22.43,0,0,22.43,0,50v88  C0,165.57,22.43,188,50,188z M20,50c0-16.542,13.458-30,30-30h125.583c16.542,0,30,13.458,30,30v52.25  c0,2.652,1.054,5.196,2.929,7.071L236.191,137h-21.637c-4.659,0-8.701,3.217-9.746,7.758C201.66,158.442,189.643,168,175.583,168H50  c-16.542,0-30-13.458-30-30V50z"
    data-original="#000000"
    class=""/><path
    d="M462,324H336.417c-20.674,0-38.702,12.407-46.266,31h-38.484c-4.044,0-7.691,2.437-9.239,6.173s-0.692,8.038,2.167,10.898  l41.821,41.821V462c0,27.57,22.43,50,50,50H462c27.57,0,50-22.43,50-50v-88C512,346.43,489.57,324,462,324z M492,462  c0,16.542-13.458,30-30,30H336.417c-16.542,0-30-13.458-30-30v-52.25c0-2.652-1.054-5.196-2.929-7.071L275.809,375h21.637  c4.659,0,8.701-3.217,9.746-7.758C310.34,353.558,322.357,344,336.417,344H462c16.542,0,30,13.458,30,30V462z"
    data-original="#000000"
    class=""/><path
    d="M430.015,391.392l-26.583,26.583l-12.361-12.361c-3.905-3.905-10.237-3.905-14.143,0c-3.905,3.905-3.905,10.237,0,14.143  l19.432,19.432c1.953,1.953,4.512,2.929,7.071,2.929s5.119-0.976,7.071-2.929l33.654-33.654c3.905-3.905,3.905-10.237,0-14.143  C440.252,387.487,433.92,387.487,430.015,391.392z"
    data-original="#000000"
    class=""/><path
    d="M98.995,78.706c5.523,0,10-4.477,10-10c0-4.111,1.656-7.921,4.664-10.729c3.003-2.804,6.938-4.196,11.069-3.906  c7.239,0.499,13.074,6.334,13.573,13.573c0.505,7.319-4.293,13.787-11.408,15.379c-7.788,1.742-13.227,8.513-13.227,16.465v5.335  c0,5.523,4.477,10,10,10c5.523,0,10-4.477,10-10v-2.91c15.494-4.622,25.719-19.229,24.587-35.645  c-1.182-17.147-15.004-30.969-32.151-32.151c-9.723-0.669-18.991,2.611-26.091,9.239c-7.001,6.535-11.017,15.775-11.017,25.349  C88.995,74.229,93.472,78.706,98.995,78.706z"
    data-original="#000000"
    class=""/><path
    d="M123.67,133.09c-2.64,0-5.21,1.07-7.07,2.93c-1.87,1.86-2.93,4.44-2.93,7.07s1.06,5.21,2.93,7.07  c1.86,1.86,4.43,2.93,7.07,2.93c2.63,0,5.21-1.07,7.07-2.93c1.86-1.86,2.93-4.44,2.93-7.07s-1.07-5.21-2.93-7.07  C128.88,134.16,126.3,133.09,123.67,133.09z"
    data-original="#000000"
    class=""/><path
    d="M101.5,452c-2.63,0-5.21,1.07-7.07,2.93s-2.93,4.44-2.93,7.07s1.07,5.21,2.93,7.07c1.86,1.86,4.44,2.93,7.07,2.93  s5.21-1.07,7.07-2.93s2.93-4.44,2.93-7.07s-1.07-5.21-2.93-7.07C106.71,453.07,104.13,452,101.5,452z"
    data-original="#000000"
    class=""/></g>
</svg>
