<?xml version="1.0"?>
<svg xmlns="http://www.w3.org/2000/svg" xmlns:xlink="http://www.w3.org/1999/xlink" version="1.1" viewBox="0 0 192 192" width="96px" height="96px">
  <g
    fill="none"
    fill-rule="nonzero"
    stroke="none"
    stroke-width="1"
    stroke-linecap="butt"
    stroke-linejoin="miter"
    stroke-miterlimit="10"
    stroke-dasharray=""
    stroke-dashoffset="0"
    font-family="none"
    font-weight="none"
    font-size="none"
    text-anchor="none"
    style="mix-blend-mode: normal"><path d="M0,192v-192h192v192z" fill="none"/>
    <g>
      <g id="surface1">
        <path d="M4,48h184v104h-184z" fill="#ffffff"/>
        <path d="M164,132c0,2.21875 -1.78125,4 -4,4c-2.21875,0 -4,-1.78125 -4,-4v-64c0,-2.21875 1.78125,-4 4,-4c2.21875,0 4,1.78125 4,4z" fill="#9c9c9c"/>
        <path d="M148,132c0,2.21875 -1.78125,4 -4,4c-2.21875,0 -4,-1.78125 -4,-4v-64c0,-2.21875 1.78125,-4 4,-4c2.21875,0 4,1.78125 4,4z" fill="#9c9c9c"/>
        <path d="M132,132c0,2.21875 -1.78125,4 -4,4c-2.21875,0 -4,-1.78125 -4,-4v-64c0,-2.21875 1.78125,-4 4,-4c2.21875,0 4,1.78125 4,4z" fill="#9c9c9c"/>
        <path d="M116,132c0,2.21875 -1.78125,4 -4,4c-2.21875,0 -4,-1.78125 -4,-4v-64c0,-2.21875 1.78125,-4 4,-4c2.21875,0 4,1.78125 4,4z" fill="#9c9c9c"/>
        <path d="M100,132c0,2.21875 -1.78125,4 -4,4c-2.21875,0 -4,-1.78125 -4,-4v-64c0,-2.21875 1.78125,-4 4,-4c2.21875,0 4,1.78125 4,4z" fill="#9c9c9c"/>
        <path d="M84,132c0,2.21875 -1.78125,4 -4,4c-2.21875,0 -4,-1.78125 -4,-4v-64c0,-2.21875 1.78125,-4 4,-4c2.21875,0 4,1.78125 4,4z" fill="#9c9c9c"/>
        <path d="M68,132c0,2.21875 -1.78125,4 -4,4c-2.21875,0 -4,-1.78125 -4,-4v-64c0,-2.21875 1.78125,-4 4,-4c2.21875,0 4,1.78125 4,4z" fill="#9c9c9c"/>
        <path d="M52,132c0,2.21875 -1.78125,4 -4,4c-2.21875,0 -4,-1.78125 -4,-4v-64c0,-2.21875 1.78125,-4 4,-4c2.21875,0 4,1.78125 4,4z" fill="#9c9c9c"/>
        <path d="M36,132c0,2.21875 -1.78125,4 -4,4c-2.21875,0 -4,-1.78125 -4,-4v-64c0,-2.21875 1.78125,-4 4,-4c2.21875,0 4,1.78125 4,4z" fill="#9c9c9c"/>
        <path d="M4,144h184v8h-184z" fill="#2c3843"/>
        <path d="M4,48h184v8h-184z" fill="#2c3843"/>
        <path d="M176,40c-2.21875,0 -4,1.79688 -4,4v108h16v-112z" fill="#2c3843"/>
        <path d="M16,40h-12v112h16v-108c0,-2.20312 -1.79688,-4 -4,-4z" fill="#2c3843"/>
        <path d="M52,144h20v8h-20z" fill="#13d389"/>
        <path d="M120,144h20v8h-20z" fill="#13d389"/>
        <path d="M184,48c0,2.20312 -1.79688,4 -4,4c-2.20312,0 -4,-1.79688 -4,-4c0,-2.20312 1.79688,-4 4,-4c2.20312,0 4,1.79688 4,4z" fill="#13d389"/>
        <path d="M184,144c0,2.20312 -1.79688,4 -4,4c-2.20312,0 -4,-1.79688 -4,-4c0,-2.20312 1.79688,-4 4,-4c2.20312,0 4,1.79688 4,4z" fill="#13d389"/>
        <path d="M16,48c0,2.20312 -1.79688,4 -4,4c-2.20312,0 -4,-1.79688 -4,-4c0,-2.20312 1.79688,-4 4,-4c2.20312,0 4,1.79688 4,4z" fill="#13d389"/>
        <path d="M16,144c0,2.20312 -1.79688,4 -4,4c-2.20312,0 -4,-1.79688 -4,-4c0,-2.20312 1.79688,-4 4,-4c2.20312,0 4,1.79688 4,4z" fill="#13d389"/>
      </g>
    </g>
  </g>
</svg>
