<?xml version="1.0"?>
<svg xmlns="http://www.w3.org/2000/svg" xmlns:xlink="http://www.w3.org/1999/xlink" version="1.1" id="Capa_1" x="0px" y="0px" viewBox="0 0 512 512" style="enable-background:new 0 0 512 512;" xml:space="preserve" width="512px" height="512px" class=""><g><g>
	<path style="fill:#2c3843" d="M480,416H32c-8.576,0-16.128-3.208-22.464-9.544C3.208,400.128,0,392.568,0,384v-48h512v48   c0,8.576-3.208,16.136-9.552,22.464C496.136,412.792,488.576,416,480,416z M16,352v32c0,4.288,1.544,7.832,4.856,11.144   S27.712,400,32,400h448c4.288,0,7.832-1.536,11.136-4.848c3.328-3.32,4.864-6.864,4.864-11.152v-32H16z" data-original="#403E3E" class="" data-old_color="#2c3843"/>
	<path style="fill:#2c3843" d="M512,352H0V48c0-8.568,3.208-16.128,9.544-22.456S23.432,16,32,16h448   c8.568,0,16.128,3.208,22.456,9.536l0,0l0,0l0,0C508.792,31.872,512,39.432,512,48V352z M16,336h480V48   c0-4.288-1.544-7.832-4.856-11.144l0,0C487.832,33.544,484.288,32,480,32H32c-4.288,0-7.832,1.544-11.144,4.856S16,43.712,16,48   V336z" data-original="#403E3E" class="" data-old_color="#2c3843"/>
	<path style="fill:#2c3843" d="M368,496h-16c0-2.016-0.848-3.936-2.464-5.552c-1.6-1.6-3.52-2.448-5.536-2.448H168   c-2.016,0-3.936,0.848-5.544,2.464c-1.608,1.6-2.456,3.52-2.456,5.536h-16c0-6.256,2.536-12.248,7.144-16.856   C155.752,474.528,161.736,472,168,472h176c6.256,0,12.24,2.528,16.848,7.136C365.472,483.76,368,489.744,368,496z" data-original="#403E3E" class="" data-old_color="#2c3843"/>
	
		<rect x="315.99" y="407.794" transform="matrix(-0.9939 0.1104 -0.1104 -0.9939 695.017 849.5062)" style="fill:#2c3843" width="16" height="72.401" data-original="#403E3E" class="" data-old_color="#2c3843"/>
	
		<rect x="151.844" y="436.028" transform="matrix(-0.1104 0.9939 -0.9939 -0.1104 650.118 306.1537)" style="fill:#2c3843" width="72.401" height="16" data-original="#403E3E" class="" data-old_color="#2c3843"/>
	<rect x="232" y="368" style="fill:#2c3843" width="48" height="16" data-original="#403E3E" class="" data-old_color="#2c3843"/>
</g><path style="fill:#9c9c9c" d="M480,320H32V48h448V320z M48,304h416V64H48V304z" data-original="#43D3E8" class="active-path" data-old_color="#9c9c9c"/><g>
	<path style="fill:#13d389" d="M112,160H64v-48h48V160z M80,144h16v-16H80V144z" data-original="#F96232" class="" data-old_color="#13d389"/>
	<path style="fill:#13d389" d="M448,160h-48V80h48V160z M416,144h16V96h-16V144z" data-original="#F96232" class="" data-old_color="#13d389"/>
	<path style="fill:#13d389" d="M112,224H64v-48h48V224z M80,208h16v-16H80V208z" data-original="#F96232" class="" data-old_color="#13d389"/>
	<path style="fill:#13d389" d="M112,288H64v-48h48V288z M80,272h16v-16H80V272z" data-original="#F96232" class="" data-old_color="#13d389"/>
</g><g>
	<rect x="64" y="80" style="fill:#2c3843" width="16" height="16" data-original="#403E3E" class="" data-old_color="#2c3843"/>
	<rect x="96" y="80" style="fill:#2c3843" width="16" height="16" data-original="#403E3E" class="" data-old_color="#2c3843"/>
	<rect x="128" y="80" style="fill:#2c3843" width="16" height="16" data-original="#403E3E" class="" data-old_color="#2c3843"/>
	<rect x="400" y="176" style="fill:#2c3843" width="48" height="16" data-original="#403E3E" class="" data-old_color="#2c3843"/>
	<rect x="400" y="208" style="fill:#2c3843" width="48" height="16" data-original="#403E3E" class="" data-old_color="#2c3843"/>
	<rect x="400" y="240" style="fill:#2c3843" width="48" height="16" data-original="#403E3E" class="" data-old_color="#2c3843"/>
	<rect x="400" y="272" style="fill:#2c3843" width="48" height="16" data-original="#403E3E" class="" data-old_color="#2c3843"/>
	<polygon style="fill:#2c3843" points="256,184.944 172.424,143.16 179.576,128.84 256,167.056 332.424,128.84 339.576,143.16  " data-original="#403E3E" class="" data-old_color="#2c3843"/>
	<path style="fill:#2c3843" d="M256,280.944l-88-44V131.056l88-44l88,44v105.888L256,280.944z M184,227.056l72,36l72-36v-86.112   l-72-36l-72,36V227.056z" data-original="#403E3E" class="" data-old_color="#2c3843"/>
	<rect x="248" y="176" style="fill:#2c3843" width="16" height="96" data-original="#403E3E" class="" data-old_color="#2c3843"/>
</g></g> </svg>
