<?xml version="1.0"?>
<svg xmlns="http://www.w3.org/2000/svg" xmlns:xlink="http://www.w3.org/1999/xlink" version="1.1" id="Capa_1" x="0px" y="0px" viewBox="0 0 505.136 505.136" style="enable-background:new 0 0 505.136 505.136;" xml:space="preserve" width="512px" height="512px" class=""><g><g>
	<polygon style="fill:#2c3843" points="252.568,504.9 52.568,421.572 52.568,288.236 68.568,288.236 68.568,410.9 252.568,487.572    436.568,410.9 436.568,288.236 452.568,288.236 452.568,421.572  " data-original="#43D3E8" class="active-path" data-old_color="#2c3843"/>
	<rect x="244.568" y="272.236" style="fill:#2c3843" width="16" height="224" data-original="#43D3E8" class="active-path" data-old_color="#2c3843"/>
</g><g>
	
		<rect x="356.583" y="74.047" transform="matrix(-0.3714 0.9285 -0.9285 -0.3714 648.7401 -118.7915)" style="fill:#2c3843" width="16" height="172.332" data-original="#403E3E" class="" data-old_color="#2c3843"/>
	
		<rect x="54.412" y="152.227" transform="matrix(-0.9284 0.3715 -0.3715 -0.9284 330.6115 256.7608)" style="fill:#2c3843" width="172.323" height="16" data-original="#403E3E" class="" data-old_color="#2c3843"/>
	<polygon style="fill:#2c3843" points="252.568,280.9 57.488,199.62 63.648,184.852 252.568,263.572 441.488,184.852    447.648,199.62  " data-original="#403E3E" class="" data-old_color="#2c3843"/>
	<polygon style="fill:#2c3843" points="297.568,354.148 245.912,276.676 259.224,267.796 303.568,334.324 480.52,260.588    437.912,196.676 451.224,187.796 504.616,267.884  " data-original="#403E3E" class="" data-old_color="#2c3843"/>
	<polygon style="fill:#2c3843" points="207.568,354.148 0.52,267.884 53.912,187.796 67.224,196.676 24.616,260.588    201.568,334.324 245.912,267.796 259.224,276.676  " data-original="#403E3E" class="" data-old_color="#2c3843"/>
	<polygon style="fill:#2c3843" points="450.968,197.036 438.168,187.436 480,131.668 303.568,58.156 291.224,76.676    277.912,67.796 297.568,38.316 505.136,124.804  " data-original="#403E3E" class="" data-old_color="#2c3843"/>
	<polygon style="fill:#2c3843" points="54.168,197.036 0,124.804 207.568,38.316 227.224,67.796 213.912,76.676 201.568,58.156    25.136,131.668 66.968,187.436  " data-original="#403E3E" class="" data-old_color="#2c3843"/>
</g><g>
	<rect x="244.568" y="96.236" style="fill:#13d389" width="16" height="128" data-original="#F96232" class="" data-old_color="#13d389"/>
	<polygon style="fill:#13d389" points="252.568,235.548 206.912,189.892 218.224,178.58 252.568,212.924 286.912,178.58    298.224,189.892  " data-original="#F96232" class="" data-old_color="#13d389"/>
</g><g>
	<rect x="244.568" y="64.236" style="fill:#2c3843" width="16" height="16" data-original="#403E3E" class="" data-old_color="#2c3843"/>
	<rect x="244.568" y="32.236" style="fill:#2c3843" width="16" height="16" data-original="#403E3E" class="" data-old_color="#2c3843"/>
	<rect x="244.568" y="0.236" style="fill:#2c3843" width="16" height="16" data-original="#403E3E" class="" data-old_color="#2c3843"/>
</g></g> </svg>
