<?xml version="1.0"?>
<svg xmlns="http://www.w3.org/2000/svg" xmlns:xlink="http://www.w3.org/1999/xlink" version="1.1" id="Capa_1" x="0px" y="0px" viewBox="-50 -50 612 612" style="enable-background:new 0 0 512 512;" xml:space="preserve" width="512px" height="512px" class="">
	<g>
		<g>
			<rect x="272" y="328" style="fill:#2c3843" width="40" height="16" data-original="#403E3E" class="" data-old_color="#2c3843"/>
			<rect x="272" y="168" style="fill:#2c3843" width="40" height="16" data-original="#403E3E" class="" data-old_color="#2c3843"/>v
			<polygon style="fill:#2c3843" points="352,456 304,456 304,64 352,64 352,80 320,80 320,440 352,440  " data-original="#403E3E" class="" data-old_color="#2c3843"/>
			<rect x="312" y="248" style="fill:#2c3843" width="40" height="16" data-original="#403E3E" class="" data-old_color="#2c3843"/>
		</g>
		<g>
			<path
				style="fill:#13d389"
				d="M480,136h-96c-4.376,0-8.056-1.544-11.248-4.736c-3.2-3.2-4.752-6.88-4.752-11.264V88h16v32h96V88   h16v32c0,4.384-1.552,8.064-4.744,11.256C488.056,134.456,484.376,136,480,136z"
				data-original="#43D3E8"
				class=""
				data-old_color="#13d389"/>
			<path
				style="fill:#13d389"
				d="M480,80h-96c-4.376,0-8.056-1.544-11.248-4.736c-3.2-3.2-4.752-6.88-4.752-11.264V16   c0-4.384,1.552-8.064,4.744-11.256C375.944,1.544,379.624,0,384,0h96c4.376,0,8.056,1.544,11.248,4.736   c3.2,3.2,4.752,6.88,4.752,11.264v48c0,4.384-1.552,8.064-4.744,11.256C488.056,78.456,484.376,80,480,80z M384,16v48h96V16H384z"
				data-original="#43D3E8"
				class=""
				data-old_color="#13d389"/>
		</g>
		<g>
			<rect x="400" y="32" style="fill:#2c3843" width="16" height="16" data-original="#403E3E" class="" data-old_color="#2c3843"/>
			<rect x="400" y="88" style="fill:#2c3843" width="16" height="16" data-original="#403E3E" class="" data-old_color="#2c3843"/>
		</g>
		<g>
			<path style="fill:#9c9c9c" d="M480,320h-96c-4.384,0-8.072-1.552-11.256-4.744S368,308.384,368,304v-32h16v32h96v-32h16v32   c0,4.384-1.552,8.072-4.744,11.256S484.384,320,480,320z" data-original="#F96232" class="active-path" data-old_color="#9c9c9c"/>
			<path
				style="fill:#9c9c9c"
				d="M480,264h-96c-4.376,0-8.056-1.544-11.248-4.736c-3.2-3.2-4.752-6.88-4.752-11.264v-48   c0-4.384,1.552-8.064,4.744-11.256C375.68,185.816,379.984,184,384,184h96c4.376,0,8.056,1.544,11.248,4.736   C494.176,191.664,496,195.984,496,200v48c0,4.384-1.552,8.064-4.744,11.256C488.056,262.456,484.376,264,480,264z M384,200v48h96   v-48H384z"
				data-original="#F96232"
				class="active-path"
				data-old_color="#9c9c9c"/>
		</g>
		<g>
			<rect x="400" y="216" style="fill:#2c3843" width="16" height="16" data-original="#403E3E" class="" data-old_color="#2c3843"/>
			<rect x="400" y="272" style="fill:#2c3843" width="16" height="16" data-original="#403E3E" class="" data-old_color="#2c3843"/>
		</g>
		<g>
			<path style="fill:#13d389" d="M480,512h-96c-4.384,0-8.072-1.552-11.256-4.744S368,500.384,368,496v-32h16v32h96v-32h16v32   c0,4.384-1.552,8.072-4.744,11.256S484.384,512,480,512z" data-original="#43D3E8" class="" data-old_color="#13d389"/>
			<path
				style="fill:#13d389"
				d="M480,456h-96c-4.384,0-8.072-1.552-11.256-4.744S368,444.384,368,440v-48   c0-4.384,1.552-8.072,4.744-11.256c2.92-2.92,7.232-4.744,11.256-4.744h96c4.384,0,8.072,1.552,11.256,4.744   c2.92,2.92,4.744,7.232,4.744,11.256v48c0,4.384-1.552,8.072-4.744,11.256S484.384,456,480,456z M384,392v48h96v-48H384z"
				data-original="#43D3E8"
				class=""
				data-old_color="#13d389"/>
		</g>
		<g>
			<rect x="400" y="408" style="fill:#2c3843" width="16" height="16" data-original="#403E3E" class="" data-old_color="#2c3843"/>
			<rect x="400" y="464" style="fill:#2c3843" width="16" height="16" data-original="#403E3E" class="" data-old_color="#2c3843"/>
			<path
				style="fill:#2c3843"
				d="M136,184c-68.408,0-120-24.072-120-56s51.592-56,120-56s120,24.072,120,56S204.408,184,136,184z    M136,88c-61.288,0-104,21.08-104,40s42.712,40,104,40s104-21.08,104-40S197.288,88,136,88z"
				data-original="#403E3E"
				class=""
				data-old_color="#2c3843"/>
			<path style="fill:#2c3843" d="M136,264c-67.288,0-120-24.6-120-56v-80h16v80c0,18.92,42.712,40,104,40s104-21.08,104-40v-80h16v80   C256,239.4,203.288,264,136,264z" data-original="#403E3E" class="" data-old_color="#2c3843"/>
			<path style="fill:#2c3843" d="M136,344c-67.288,0-120-24.6-120-56v-80h16v80c0,18.92,42.712,40,104,40s104-21.08,104-40v-80h16v80   C256,319.4,203.288,344,136,344z" data-original="#403E3E" class="" data-old_color="#2c3843"/>
			<path style="fill:#2c3843" d="M136,424c-67.288,0-120-24.6-120-56v-80h16v80c0,18.92,42.712,40,104,40s104-21.08,104-40v-80h16v80   C256,399.4,203.288,424,136,424z" data-original="#403E3E" class="" data-old_color="#2c3843"/>
		</g>
		<g>
			<rect x="96" y="208" style="fill:#9c9c9c" width="16" height="16" data-original="#F96232" class="active-path" data-old_color="#9c9c9c"/>
			<rect x="128" y="208" style="fill:#9c9c9c" width="16" height="16" data-original="#F96232" class="active-path" data-old_color="#9c9c9c"/>
			<rect x="160" y="208" style="fill:#9c9c9c" width="16" height="16" data-original="#F96232" class="active-path" data-old_color="#9c9c9c"/>
			<rect x="96" y="288" style="fill:#9c9c9c" width="16" height="16" data-original="#F96232" class="active-path" data-old_color="#9c9c9c"/>
			<rect x="128" y="288" style="fill:#9c9c9c" width="16" height="16" data-original="#F96232" class="active-path" data-old_color="#9c9c9c"/>
			<rect x="160" y="288" style="fill:#9c9c9c" width="16" height="16" data-original="#F96232" class="active-path" data-old_color="#9c9c9c"/>
			<rect x="96" y="368" style="fill:#9c9c9c" width="16" height="16" data-original="#F96232" class="active-path" data-old_color="#9c9c9c"/>
			<rect x="128" y="368" style="fill:#9c9c9c" width="16" height="16" data-original="#F96232" class="active-path" data-old_color="#9c9c9c"/>
			<rect x="160" y="368" style="fill:#9c9c9c" width="16" height="16" data-original="#F96232" class="active-path" data-old_color="#9c9c9c"/>
		</g>
	</g>
</svg>
