<?xml version="1.0"?>
<svg xmlns="http://www.w3.org/2000/svg" xmlns:xlink="http://www.w3.org/1999/xlink" version="1.1" id="Capa_1" x="0px" y="0px" viewBox="0 0 512 512" style="enable-background:new 0 0 512 512;" xml:space="preserve" width="512px" height="512px" class=""><g><path style="fill:#13d389" d="M288,376c-2.048,0-4.096-0.784-5.656-2.344l-96-96c-2.288-2.288-2.976-5.728-1.736-8.72  S188.768,264,192,264h48V152h16v120c0,4.424-3.584,8-8,8h-36.688L288,356.688L364.688,280H328c-4.424,0-8-3.576-8-8V152h16v112h48  c3.232,0,6.16,1.944,7.392,4.936c1.24,2.992,0.552,6.432-1.736,8.72l-96,96C292.096,375.216,290.048,376,288,376z" data-original="#F96232" class="active-path" data-old_color="#13d389"/><g>
	<rect x="280" y="152" style="fill:#9c9c9c" width="16" height="16" data-original="#403E3E" class="" data-old_color="#9c9c9c"/>
	<rect x="280" y="184" style="fill:#9c9c9c" width="16" height="16" data-original="#403E3E" class="" data-old_color="#9c9c9c"/>
	<rect x="280" y="216" style="fill:#9c9c9c" width="16" height="16" data-original="#403E3E" class="" data-old_color="#9c9c9c"/>
	<rect x="272" y="88" style="fill:#9c9c9c" width="240" height="16" data-original="#403E3E" class="" data-old_color="#9c9c9c"/>
	<path style="fill:#9c9c9c" d="M40,440c-10.392,0-20.352-4.24-28.056-11.944C4.24,420.36,0,410.392,0,400V88h48v16H16v296   c0,6.12,2.576,12.064,7.256,16.744S33.88,424,40,424V440z" data-original="#403E3E" class="" data-old_color="#9c9c9c"/>
	<rect x="96" y="120" style="fill:#9c9c9c" width="112" height="16" data-original="#403E3E" class="" data-old_color="#9c9c9c"/>
	<rect x="96" y="152" style="fill:#9c9c9c" width="64" height="16" data-original="#403E3E" class="" data-old_color="#9c9c9c"/>
</g><g>
	<rect x="96" y="392" style="fill:#2c3843" width="384" height="16" data-original="#43D3E8" class="" data-old_color="#2c3843"/>
	<path style="fill:#2c3843" d="M472,440H40v-16c6.12,0,12.064-2.576,16.744-7.256S64,406.12,64,400V72h138.664l64,48H512v280   c0,10.392-4.24,20.352-11.944,28.056S482.392,440,472,440z M71.632,424H472c6.12,0,12.064-2.576,16.744-7.256S496,406.12,496,400   V136H261.336l-64-48H80v312C80,408.648,77.064,417,71.632,424z" data-original="#43D3E8" class="" data-old_color="#2c3843"/>
</g></g> </svg>
