<svg id="Ebene_1" data-name="Ebene 1" xmlns="http://www.w3.org/2000/svg" viewBox="0 0 90 90"><defs><style>.cls-1,.cls-2,.cls-3{fill:none;stroke-linejoin:round;stroke-width:3px;}.cls-1,.cls-3{stroke:#13d389;}.cls-2{stroke:#9c9c9c;}.cls-2,.cls-3{stroke-linecap:round;}</style></defs><title>icon</title><line class="cls-1" x1="45" y1="34.5" x2="45" y2="51.28"/><polyline class="cls-2" points="78.56 51.28 78.56 67.33 61.78 78.13 45 67.33 45 51.28"/><polygon class="cls-2" points="78.56 51.28 61.78 61.35 45 51.28 61.78 40.48 78.56 51.28"/><line class="cls-2" x1="61.78" y1="61.35" x2="61.78" y2="78.13"/><polyline class="cls-2" points="45 51.28 45 67.33 28.22 78.13 11.44 67.33 11.44 51.28"/><polygon class="cls-2" points="45 51.28 28.22 61.35 11.44 51.28 28.22 40.48 45 51.28"/><line class="cls-2" x1="28.22" y1="61.35" x2="28.22" y2="78.13"/><polyline class="cls-3" points="61.78 24.43 61.78 40.48 45 51.28 28.22 40.48 28.22 24.43"/><polygon class="cls-1" points="61.78 24.43 45 34.5 28.22 24.43 45 14.36 61.78 24.43"/></svg>