<?xml version="1.0"?>
<svg xmlns="http://www.w3.org/2000/svg" xmlns:xlink="http://www.w3.org/1999/xlink" version="1.1" id="Capa_1" x="0px" y="0px" viewBox="0 0 512 512" style="enable-background:new 0 0 512 512;" xml:space="preserve" width="512px" height="512px" class=""><g><path style="fill:#13d389" d="M392.592,386.72L347,350.248l10-12.504l34.408,27.528l13.92-13.92l-31.36-39.984l3.568-4.888  c15.56-21.296,25.288-44.896,28.12-68.248l0.744-6.088l49.6-7.088v-18.144l-48.648-7.056l-0.864-5.896  c-3.656-24.864-13.128-47.896-28.152-68.448l-3.568-4.888l31.36-39.984L392.16,66.672l-39.984,31.36l-4.888-3.576  c-21.296-15.56-44.888-25.288-68.24-28.12l-5.992-0.728L265.168,16H246.92l-7.056,48.648l-5.896,0.864  c-24.864,3.656-47.896,13.128-68.448,28.144l-4.832,3.528l-39.992-30.576L106.664,80.64l31.36,39.984l-3.568,4.888  c-15.568,21.304-25.288,44.896-28.12,68.248l-0.736,6.088L56,206.936v18.144l48.648,7.056l0.864,5.896  c3.656,24.864,13.128,47.896,28.144,68.448l3.528,4.832l-30.576,39.984l13.984,13.984L155,337.752l9.992,12.504L119.4,386.728  l-34.016-34.016l31.888-41.696c-13.44-19.752-22.368-41.48-26.616-64.728L40,238.92v-45.856l51.336-7.336  c3.696-22.2,12.832-44.336,26.696-64.672L85.328,79.36l33.968-33.968l41.696,31.888c19.752-13.44,41.472-22.368,64.728-26.616  L233.08,0h45.752l8.152,51.32c22.232,3.688,44.416,12.832,64.776,26.712l41.688-32.704l34.032,34.024l-32.704,41.696  c13.416,19.728,22.328,41.432,26.568,64.664L472,193.08v45.856l-51.336,7.336c-3.696,22.2-12.832,44.344-26.696,64.68l32.704,41.688  L392.592,386.72z" data-original="#43D3E8" class="active-path" data-old_color="#13d389"/><g>
	<rect x="72" y="136" style="fill:#2c3843" width="16" height="16" data-original="#403E3E" class="" data-old_color="#2c3843"/>
	<rect x="424" y="136" style="fill:#2c3843" width="16" height="16" data-original="#403E3E" class="" data-old_color="#2c3843"/>
	<rect x="72" y="280" style="fill:#2c3843" width="16" height="16" data-original="#403E3E" class="" data-old_color="#2c3843"/>
	<rect x="424" y="280" style="fill:#2c3843" width="16" height="16" data-original="#403E3E" class="" data-old_color="#2c3843"/>
	<rect x="176" y="32" style="fill:#2c3843" width="16" height="16" data-original="#403E3E" class="" data-old_color="#2c3843"/>
	<rect x="320" y="32" style="fill:#2c3843" width="16" height="16" data-original="#403E3E" class="" data-old_color="#2c3843"/>
	<rect x="176" y="384" style="fill:#2c3843" width="16" height="16" data-original="#403E3E" class="" data-old_color="#2c3843"/>
	<rect x="320" y="384" style="fill:#2c3843" width="16" height="16" data-original="#403E3E" class="" data-old_color="#2c3843"/>
</g><path style="fill:#9c9c9c" d="M256,512c-10.392,0-20.352-4.24-28.056-11.944C220.24,492.36,216,482.392,216,472V344h16v128  c0,6.12,2.576,12.064,7.256,16.744c9.36,9.36,24.128,9.36,33.488,0C277.424,484.064,280,478.12,280,472V344h16v128  c0,10.392-4.24,20.352-11.944,28.056S266.392,512,256,512z" data-original="#F96232" class="" data-old_color="#9c9c9c"/><g>
	<rect x="248" y="344" style="fill:#2c3843" width="16" height="56" data-original="#403E3E" class="" data-old_color="#2c3843"/>
	<path style="fill:#2c3843" d="M256,352c-74.992,0-136-61.008-136-136S181.008,80,256,80s136,61.008,136,136S330.992,352,256,352z    M256,96c-66.168,0-120,53.832-120,120s53.832,120,120,120s120-53.832,120-120S322.168,96,256,96z" data-original="#403E3E" class="" data-old_color="#2c3843"/>
</g><path style="fill:#13d389" d="M256,312c-52.936,0-96-43.064-96-96s43.064-96,96-96s96,43.064,96,96S308.936,312,256,312z M256,136  c-44.112,0-80,35.888-80,80s35.888,80,80,80s80-35.888,80-80S300.112,136,256,136z" data-original="#43D3E8" class="active-path" data-old_color="#13d389"/><g>
	<rect x="216" y="208" style="fill:#2c3843" width="16" height="16" data-original="#403E3E" class="" data-old_color="#2c3843"/>
	<rect x="248" y="208" style="fill:#2c3843" width="16" height="16" data-original="#403E3E" class="" data-old_color="#2c3843"/>
	<rect x="280" y="208" style="fill:#2c3843" width="16" height="16" data-original="#403E3E" class="" data-old_color="#2c3843"/>
</g></g> </svg>
