<svg id="Ebene_1" data-name="Ebene 1" xmlns="http://www.w3.org/2000/svg" viewBox="0 0 90 90"><defs><style>.cls-1,.cls-2{fill:none;stroke-linecap:round;stroke-linejoin:round;stroke-width:3px;}.cls-1{stroke:#13d389;}.cls-2{stroke:#9c9c9c;}</style></defs><title>icon</title><circle class="cls-1" cx="60.93" cy="60.02" r="16.87"/><line class="cls-1" x1="53.91" y1="67.05" x2="67.96" y2="52.99"/><line class="cls-1" x1="67.96" y1="67.05" x2="53.91" y2="52.99"/><rect class="cls-2" x="13.14" y="12.23" width="59.03" height="19.68" rx="2.81" ry="2.81"/><line class="cls-2" x1="34.23" y1="26.28" x2="62.34" y2="26.28"/><line class="cls-2" x1="34.23" y1="20.66" x2="62.34" y2="20.66"/><circle class="cls-2" cx="22.98" cy="22.07" r="2.81"/><path class="cls-2" d="M37,51.58H16a2.81,2.81,0,0,1-2.81-2.81V34.72A2.81,2.81,0,0,1,16,31.91H69.37a2.81,2.81,0,0,1,2.81,2.81v4.22"/><line class="cls-2" x1="34.23" y1="45.96" x2="39.85" y2="45.96"/><line class="cls-2" x1="34.23" y1="40.34" x2="42.66" y2="40.34"/><circle class="cls-2" cx="22.98" cy="41.74" r="2.81"/><path class="cls-2" d="M39.85,71.26H16a2.81,2.81,0,0,1-2.81-2.81V54.4A2.81,2.81,0,0,1,16,51.58H37"/><circle class="cls-2" cx="22.98" cy="61.42" r="2.81"/></svg>