<?xml version="1.0"?>
<svg xmlns="http://www.w3.org/2000/svg" xmlns:xlink="http://www.w3.org/1999/xlink" version="1.1" id="Capa_1" x="0px" y="0px" viewBox="0 0 512 512" style="enable-background:new 0 0 512 512;" xml:space="preserve" width="512px" height="512px" class=""><g><g>
	<path style="fill:#13d389" d="M320,248H0V80h86.112l48-24H320V248z M16,232h288V72H137.888l-48,24H16V232z" data-original="#43D3E8" class="" data-old_color="#13d389"/>
	<polygon style="fill:#13d389" points="320,64 304,64 304,40 134.112,40 86.112,16 16,16 16,56 0,56 0,0 89.888,0 137.888,24    320,24  " data-original="#43D3E8" class="" data-old_color="#13d389"/>
</g><g>
	<rect x="32" y="40" style="fill:#9c9c9c" width="16" height="16" data-original="#403E3E" class="" data-old_color="#9c9c9c"/>
	<rect x="64" y="40" style="fill:#9c9c9c" width="16" height="16" data-original="#403E3E" class="" data-old_color="#9c9c9c"/>
	<rect x="96" y="40" style="fill:#9c9c9c" width="16" height="16" data-original="#403E3E" class="" data-old_color="#9c9c9c"/>
</g><rect x="32" y="200" style="fill:#13d389" width="256" height="16" data-original="#43D3E8" class="" data-old_color="#13d389"/><g>
	<path style="fill:#2c3843" d="M512,512H192V344h86.112l48-24H512V512z M208,496h288V336H329.888l-48,24H208V496z" data-original="#F96232" class="active-path" data-old_color="#2c3843"/>
	<polygon style="fill:#2c3843" points="512,328 496,328 496,304 326.112,304 278.112,280 208,280 208,320 192,320 192,264    281.888,264 329.888,288 512,288  " data-original="#F96232" class="active-path" data-old_color="#2c3843"/>
</g><g>
	<rect x="224" y="304" style="fill:#9c9c9c" width="16" height="16" data-original="#403E3E" class="" data-old_color="#9c9c9c"/>
	<rect x="256" y="304" style="fill:#9c9c9c" width="16" height="16" data-original="#403E3E" class="" data-old_color="#9c9c9c"/>
	<rect x="288" y="304" style="fill:#9c9c9c" width="16" height="16" data-original="#403E3E" class="" data-old_color="#9c9c9c"/>
</g><rect x="224" y="464" style="fill:#2c3843" width="256" height="16" data-original="#F96232" class="active-path" data-old_color="#2c3843"/><g>
	<polygon style="fill:#9c9c9c" points="512,112 496,112 496,40 424,40 424,24 512,24  " data-original="#403E3E" class="" data-old_color="#9c9c9c"/>
	<rect x="464" y="56" style="fill:#9c9c9c" width="16" height="16" data-original="#403E3E" class="" data-old_color="#9c9c9c"/>
	<polygon style="fill:#9c9c9c" points="88,512 0,512 0,424 16,424 16,496 88,496  " data-original="#403E3E" class="" data-old_color="#9c9c9c"/>
	<rect x="32" y="464" style="fill:#9c9c9c" width="16" height="16" data-original="#403E3E" class="" data-old_color="#9c9c9c"/>
</g></g> </svg>
