<?xml version="1.0"?>
<svg xmlns="http://www.w3.org/2000/svg" xmlns:xlink="http://www.w3.org/1999/xlink" version="1.1" id="Capa_1" x="0px" y="0px" viewBox="-75 -75 662 662" style="enable-background:new 0 0 512 512;" xml:space="preserve" width="512px" height="512px" class="">
	<g><path style="fill:#C4C4C4" d="M512,437c0,41.4-33.6,75-75,75H15c-8.401,0-15-6.601-15-15V75c0-8.401,6.599-15,15-15h362  c8.401,0,15,6.599,15,15v302L512,437z" data-original="#787780" class="" data-old_color="#9c9c9c"/><path style="fill:#9c9c9c" d="M512,437c0,41.4-33.6,75-75,75H15c-8.401,0-15-6.601-15-15V287h392l120,90V437z" data-original="#57555C" class="active-path" data-old_color="#C4C4C4"/><path
		style="fill:#FFFFFF"
		d="M508.4,400.099c-9.899,30-38.1,51.901-71.4,51.901H135c-8.401,0-15-6.601-15-15V137  c0-8.401,6.599-15,15-15h242c8.401,0,15,6.599,15,15l73.499,150l39.602,80.4l0.601,6.599L508.4,400.099z"
		data-original="#1DE8F1"
		class=""
		data-old_color="#ffffff"/><path style="fill:#FFFFFF" d="M120,437c0,8.399,6.599,15,15,15h302c33.3,0,61.501-21.901,71.4-51.901l-2.699-26.1L505.1,367.4  L465.499,287H120V437z" data-original="#1BD9DE" class="" data-old_color="#ffffff"/><path style="fill:#FFFFFF" d="M90,272v30c0,8.399-6.599,15-15,15s-15-6.601-15-15v-30c0-8.401,6.599-15,15-15S90,263.599,90,272z" data-original="#1DE8F1" class="" data-old_color="#ffffff"/><path style="fill:#13d389" d="M392,287c0,8.399-6.599,15-15,15h-60c-8.401,0-15-6.601-15-15c0-8.401,6.599-15,15-15h60  C385.401,272,392,278.599,392,287z" data-original="#CAE8F9" class="" data-old_color="#13d389"/><path style="fill:#FFFFFF" d="M60,287h30v15c0,8.399-6.599,15-15,15s-15-6.601-15-15V287z" data-original="#1BD9DE" class="" data-old_color="#ffffff"/><path style="fill:#13d389" d="M392,287c0,8.399-6.599,15-15,15h-60c-8.401,0-15-6.601-15-15H392z" data-original="#B7E0F6" class="" data-old_color="#13d389"/><path
		style="fill:#13d389"
		d="M332,227c0-8.401-6.599-15-15-15h-62c-8.401,0-15,6.599-15,15c0,8.399,6.599,15,15,15h47v90h-47  c-8.291,0-15,6.709-15,15s6.709,15,15,15h62c8.401,0,15-6.601,15-15V227z"
		data-original="#CAE8F9"
		class=""
		data-old_color="#13d389"/><path style="fill:#13d389" d="M302,287v45h-47c-8.291,0-15,6.709-15,15s6.709,15,15,15h62c8.401,0,15-6.601,15-15v-60H302z" data-original="#B7E0F6" class="" data-old_color="#13d389"/>
		<g>
			<path style="fill:#9c9c9c" d="M512,437v-15c0,5.118-0.839,10.003-2.043,14.745L512,437z" data-original="#57555C" class="active-path" data-old_color="#C4C4C4"/>
			<path
				style="fill:#9c9c9c"
				d="M490.101,21.899C476.602,8.401,457.698,0,437,0c-41.4,0-75,33.6-75,75v332c0,8.284,6.716,15,15,15   h3.374c6.172,0,11.454-4.362,12.639-10.419C398.528,383.409,425.656,362,452,362c33.135,0,60,26.862,60,60V75   C512,54.3,503.599,35.4,490.101,21.899z"
				data-original="#57555C"
				class="active-path"
				data-old_color="#C4C4C4"/>
		</g><path style="fill:#13d389" d="M225,272c-24.814,0-45-20.186-45-45s20.186-45,45-45s45,20.186,45,45S249.814,272,225,272z" data-original="#CAE8F9" class="" data-old_color="#13d389"/><path style="fill:#13d389" d="M225,392c-24.814,0-45-20.186-45-45s20.186-45,45-45s45,20.186,45,45S249.814,392,225,392z" data-original="#B7E0F6" class="" data-old_color="#13d389"/></g>
</svg>
