<svg id="Ebene_1" data-name="Ebene 1" xmlns="http://www.w3.org/2000/svg" viewBox="0 0 90 90"><defs><style>.cls-1,.cls-2{fill:none;stroke-linecap:round;stroke-linejoin:round;stroke-width:3px;}.cls-1{stroke:#9c9c9c;}.cls-2{stroke:#13d389;}</style></defs><title>icon</title><ellipse class="cls-1" cx="42.87" cy="17.57" rx="20.87" ry="5.57"/><path class="cls-1" d="M63.74,17.57v8.35c0,3.07-9.34,5.57-20.87,5.57S22,29,22,25.91V17.57"/><path class="cls-1" d="M63.74,25.91v8.35c0,3.07-9.34,5.57-20.87,5.57S22,37.33,22,34.26V25.91"/><path class="cls-1" d="M22,33.91v8.35c0,3.07,9.35,5.57,20.87,5.57,3.55,0,9.81-.65,9.81-.65"/><path class="cls-1" d="M22,42.61V51c0,3.07,9.35,5.57,20.87,5.57h1.39"/><path class="cls-1" d="M22,51V59.3c0,3.07,9.35,5.57,20.87,5.57h1.39"/><line class="cls-1" x1="63.74" y1="33.61" x2="63.74" y2="41.17"/><circle class="cls-2" cx="65.75" cy="62.25" r="14.25"/><path class="cls-2" d="M68.85,69.07c-4.45,0-8.05-1.24-8.05-6.82s3.61-6.82,8.05-6.82"/><line class="cls-2" x1="58.93" y1="60.89" x2="66.99" y2="60.89"/><line class="cls-2" x1="58.93" y1="64.59" x2="66.99" y2="64.59"/></svg>