<svg id="Ebene_1" data-name="Ebene 1" xmlns="http://www.w3.org/2000/svg" viewBox="0 0 90 90"><defs><style>.cls-1,.cls-2{fill:none;stroke-linecap:round;stroke-linejoin:round;stroke-width:3px;}.cls-1{stroke:#9c9c9c;}.cls-2{stroke:#13d389;}</style></defs><title>icon</title><polyline class="cls-1" points="64.04 18.31 69.62 18.31 69.62 76.84 19.45 76.84 19.45 18.31 25.02 18.31"/><path class="cls-1" d="M50.11,18.31a5.57,5.57,0,1,0-11.15,0H30.6v8.36H58.47V18.31Z"/><polyline class="cls-1" points="30.6 23.88 25.02 23.88 25.02 71.27 52.89 71.27 52.89 60.12 64.04 60.12 64.04 23.88 58.47 23.88"/><line class="cls-1" x1="64.04" y1="60.12" x2="52.89" y2="71.26"/><path class="cls-2" d="M33.38,42l2.21-2.21a2.79,2.79,0,0,1,3.94,0l.24.24a2.79,2.79,0,0,0,3.94,0l.24-.24a2.79,2.79,0,0,1,3.94,0l.24.24a2.79,2.79,0,0,0,3.94,0l2.21-2.21"/><path class="cls-2" d="M33.38,53.15l2.21-2.21a2.79,2.79,0,0,1,3.94,0l.24.24a2.79,2.79,0,0,0,3.94,0l.24-.24a2.79,2.79,0,0,1,3.94,0l.24.24a2.79,2.79,0,0,0,3.94,0L54.29,49"/></svg>