<?xml version="1.0"?>
<svg xmlns="http://www.w3.org/2000/svg" xmlns:xlink="http://www.w3.org/1999/xlink" version="1.1" id="Layer_1" x="0px" y="0px" viewBox="0 0 512 512" style="enable-background:new 0 0 512 512;" xml:space="preserve" width="512px" height="512px" class="">
	<g>
		<g>
			<path
				style="fill:#9c9c9c"
				d="M430.938,165.615c0-3.553-2.906-6.456-6.456-6.456H114.591c-3.548,0-6.456,2.906-6.456,6.456   v213.048c0,3.548,2.908,6.456,6.456,6.456h309.888c3.553,0,6.456-2.911,6.456-6.456V165.615H430.938z"
				data-original="#92DEEB"
				class=""
				data-old_color="#9c9c9c"/>
			<rect x="117.174" y="168.191" style="fill:#ffffff" width="304.717" height="207.872" data-original="#92DEEB" class="" data-old_color="#9c9c9c"/>
			<rect x="148.163" y="152.705" style="fill:#9c9c9c" width="45.192" height="6.454" data-original="#92DEEB" class="" data-old_color="#9c9c9c"/>
			<rect x="345.728" y="152.705" style="fill:#9c9c9c" width="45.192" height="6.454" data-original="#92DEEB" class="" data-old_color="#9c9c9c"/>
			<polygon style="fill:#9c9c9c" points="321.185,159.159 308.273,159.159 308.273,139.79 230.799,139.79 230.799,159.159    217.887,159.159 217.887,126.877 321.185,126.877  " data-original="#92DEEB" class="" data-old_color="#9c9c9c"/>
		</g>
		<g>
			<circle style="fill:#13d389" cx="269.542" cy="272.152" r="50.673" data-original="#F77B55" class="" data-old_color="#13d389"/>
			<rect x="258.253" y="210.815" style="fill:#13d389" width="22.579" height="16.556" data-original="#F77B55" class="" data-old_color="#13d389"/>

			<rect x="220.73" y="226.38" transform="matrix(-0.7071 0.7071 -0.7071 -0.7071 562.0104 236.5234)" style="fill:#13d389" width="22.579" height="16.555" data-original="#F77B55" class="" data-old_color="#13d389"/>
			<rect x="208.205" y="260.837" style="fill:#13d389" width="16.558" height="22.584" data-original="#F77B55" class="" data-old_color="#13d389"/>
			<polygon style="fill:#13d389" points="218.186,307.524 234.15,323.496 245.855,311.781 229.893,295.825  " data-original="#F77B55" class="" data-old_color="#13d389"/>
			<rect x="258.253" y="316.927" style="fill:#13d389" width="22.579" height="16.556" data-original="#F77B55" class="" data-old_color="#13d389"/>
			<polygon style="fill:#13d389" points="304.922,323.496 320.881,307.524 309.179,295.825 293.212,311.781  " data-original="#F77B55" class="" data-old_color="#13d389"/>
			<rect x="314.317" y="260.837" style="fill:#13d389" width="16.553" height="22.584" data-original="#F77B55" class="" data-old_color="#13d389"/>

			<rect x="295.753" y="226.346" transform="matrix(-0.7069 -0.7073 0.7073 -0.7069 358.1365 617.657)" style="fill:#13d389" width="22.574" height="16.56" data-original="#F77B55" class="" data-old_color="#13d389"/>
		</g>
		<g>
			<rect x="241.843" y="263.832" style="fill:#FFFFFF;" width="55.401" height="16.617" data-original="#FFFFFF" class=""/>
			<rect x="261.222" y="244.428" style="fill:#FFFFFF;" width="16.617" height="55.398" data-original="#FFFFFF" class=""/>
		</g>
		<g>
			<path
				style="fill:#2c3843"
				d="M424.481,387.176H114.591c-4.692,0-8.512-3.82-8.512-8.512V165.615c0-4.692,3.82-8.512,8.512-8.512   h309.888c4.695,0,8.512,3.82,8.512,8.512v213.048C432.993,383.356,429.174,387.176,424.481,387.176z M114.591,161.215   c-2.427,0-4.401,1.974-4.401,4.403v213.048c0,2.427,1.974,4.403,4.401,4.403h309.888c2.427,0,4.403-1.974,4.403-4.403V165.615   c0-2.429-1.974-4.403-4.403-4.403H114.591V161.215z"
				data-original="#232E38"
				class=""
				data-old_color="#2c3843"/>
			<path
				style="fill:#2c3843"
				d="M421.898,378.139H117.174c-1.137,0-2.058-0.917-2.058-2.056V168.201   c0-1.137,0.922-2.056,2.058-2.056h304.724c1.137,0,2.058,0.919,2.058,2.056v207.885   C423.954,377.222,423.035,378.139,421.898,378.139z M119.229,374.028H419.84V170.254H119.229V374.028z"
				data-original="#232E38"
				class=""
				data-old_color="#2c3843"/>
			<path
				style="fill:#2c3843"
				d="M193.354,161.215h-45.192c-1.134,0-2.053-0.919-2.053-2.056v-6.454c0-1.137,0.919-2.056,2.053-2.056   h45.192c1.134,0,2.056,0.919,2.056,2.056v6.454C195.412,160.296,194.491,161.215,193.354,161.215z M150.218,157.103h41.083v-2.342   h-41.083V157.103z"
				data-original="#232E38"
				class=""
				data-old_color="#2c3843"/>
			<path
				style="fill:#2c3843"
				d="M390.909,161.215h-45.192c-1.137,0-2.058-0.919-2.058-2.056v-6.454c0-1.137,0.919-2.056,2.058-2.056   h45.192c1.137,0,2.058,0.919,2.058,2.056v6.454C392.968,160.296,392.049,161.215,390.909,161.215z M347.773,157.103h41.08v-2.342   h-41.08V157.103z"
				data-original="#232E38"
				class=""
				data-old_color="#2c3843"/>
			<path
				style="fill:#2c3843"
				d="M321.185,161.215h-12.913c-1.134,0-2.056-0.919-2.056-2.056v-17.313h-73.364v17.313   c0,1.137-0.922,2.056-2.056,2.056h-12.91c-1.137,0-2.058-0.919-2.058-2.056v-32.282c0-1.134,0.922-2.053,2.058-2.053h103.299   c1.134,0,2.058,0.919,2.058,2.053v32.282C323.244,160.296,322.319,161.215,321.185,161.215z M310.331,157.103h8.799v-28.173   h-99.185v28.173h8.801V139.79c0-1.137,0.922-2.056,2.056-2.056h77.473c1.134,0,2.058,0.919,2.058,2.056v17.313H310.331z"
				data-original="#232E38"
				class=""
				data-old_color="#2c3843"/>
			<path
				style="fill:#2c3843"
				d="M280.827,335.525h-22.579c-1.137,0-2.058-0.916-2.058-2.056v-10.322   c-4.672-1.221-9.129-3.064-13.286-5.507l-7.299,7.306c-0.771,0.773-2.138,0.776-2.908,0l-15.964-15.972   c-0.387-0.384-0.604-0.906-0.604-1.452s0.218-1.068,0.604-1.454l7.304-7.299c-2.442-4.157-4.288-8.609-5.504-13.281h-10.327   c-1.137,0-2.058-0.919-2.058-2.056V260.85c0-1.134,0.922-2.053,2.058-2.053h10.324c1.219-4.667,3.064-9.124,5.507-13.289   l-7.304-7.299c-0.387-0.387-0.604-0.909-0.604-1.454s0.218-1.068,0.604-1.452l15.964-15.967c0.384-0.387,0.906-0.602,1.452-0.602   l0,0c0.545,0,1.07,0.215,1.452,0.602l7.304,7.304c4.168-2.445,8.625-4.291,13.284-5.504V210.81c0-1.137,0.922-2.056,2.058-2.056   h22.579c1.134,0,2.056,0.919,2.056,2.056v10.327c4.662,1.216,9.119,3.059,13.281,5.504l7.304-7.304   c0.387-0.387,0.909-0.602,1.454-0.602l0,0c0.548,0,1.068,0.215,1.454,0.602l15.956,15.967c0.801,0.801,0.801,2.104,0,2.906   l-7.299,7.301c2.44,4.163,4.288,8.622,5.507,13.289h10.322c1.137,0,2.058,0.917,2.058,2.053v22.584   c0,1.134-0.919,2.056-2.058,2.056h-10.322c-1.221,4.669-3.067,9.121-5.507,13.281l7.299,7.301c0.801,0.801,0.801,2.102,0,2.906   l-15.956,15.972c-0.771,0.776-2.14,0.776-2.911,0l-7.304-7.306c-4.157,2.442-8.609,4.288-13.281,5.507v10.322   C282.883,334.609,281.964,335.525,280.827,335.525z M260.303,331.416h18.468v-9.879c0-0.96,0.666-1.792,1.6-2.007   c5.338-1.216,10.391-3.31,15.012-6.223c0.812-0.512,1.871-0.392,2.55,0.284l6.989,6.996l13.053-13.066l-6.986-6.986   c-0.681-0.678-0.799-1.736-0.287-2.547c2.916-4.628,5.01-9.677,6.226-15.009c0.212-0.934,1.044-1.6,2.004-1.6h9.879v-18.476h-9.879   c-0.96,0-1.792-0.663-2.004-1.597c-1.213-5.33-3.308-10.381-6.226-15.014c-0.509-0.812-0.392-1.869,0.287-2.547l6.986-6.989   l-13.053-13.059l-6.989,6.991c-0.678,0.681-1.736,0.801-2.55,0.287c-4.639-2.918-9.69-5.012-15.012-6.221   c-0.934-0.212-1.6-1.047-1.6-2.004v-9.887h-18.468v9.887c0,0.96-0.666,1.792-1.6,2.004c-5.322,1.211-10.373,3.302-15.017,6.221   c-0.814,0.509-1.869,0.389-2.547-0.287l-6.989-6.991l-13.059,13.059l6.989,6.986c0.678,0.681,0.799,1.738,0.287,2.547   c-2.916,4.636-5.007,9.687-6.223,15.017c-0.212,0.934-1.044,1.597-2.002,1.597h-9.882v18.476h9.882c0.96,0,1.789,0.666,2.002,1.6   c1.219,5.335,3.31,10.386,6.223,15.009c0.512,0.812,0.394,1.869-0.287,2.55l-6.989,6.986l13.056,13.066l6.986-6.996   c0.678-0.676,1.738-0.799,2.55-0.284c4.628,2.913,9.679,5.007,15.02,6.223c0.934,0.215,1.597,1.047,1.597,2.007v9.877H260.303z"
				data-original="#232E38"
				class=""
				data-old_color="#2c3843"/>
			<path
				style="fill:#2c3843"
				d="M277.847,301.894H261.23c-1.134,0-2.056-0.916-2.056-2.056v-17.334h-17.339   c-1.137,0-2.058-0.919-2.058-2.056v-16.617c0-1.137,0.922-2.056,2.058-2.056h17.339V244.44c0-1.137,0.919-2.056,2.056-2.056h16.617   c1.134,0,2.058,0.919,2.058,2.056v17.336h17.334c1.134,0,2.056,0.917,2.056,2.056v16.617c0,1.134-0.919,2.056-2.056,2.056h-17.334   v17.334C279.905,300.975,278.984,301.894,277.847,301.894z M263.286,297.783h12.508v-17.334c0-1.137,0.919-2.056,2.056-2.056   h17.334v-12.508H277.85c-1.134,0-2.056-0.919-2.056-2.056v-17.336h-12.508v17.336c0,1.134-0.922,2.056-2.056,2.056h-17.336v12.508   h17.336c1.132,0,2.056,0.916,2.056,2.056V297.783z"
				data-original="#232E38"
				class=""
				data-old_color="#2c3843"/>
		</g>
		<g>
			<rect x="17.971" y="250.495" style="fill:#FFFFFF;" width="21.197" height="101.376" data-original="#FFFFFF" class=""/>
			<path
				style="fill:#FFFFFF;"
				d="M40.778,202.676v26.222l-12.216,7.063l-12.214-7.058l-0.01-26.227   c-8.476,4.419-14.292,13.286-14.285,23.516c0,14.638,11.871,26.514,26.516,26.514c14.628-0.005,26.488-11.881,26.506-26.506   C55.058,215.955,49.28,207.098,40.778,202.676z"
				data-original="#FFFFFF"
				class=""/>
			<path
				style="fill:#FFFFFF;"
				d="M28.562,348.596c-10.248-0.005-18.542,8.177-18.542,18.268c0,10.076,8.294,18.258,18.552,18.258   c10.248-0.005,18.54-8.187,18.54-18.273C47.112,356.773,38.81,348.607,28.562,348.596z M41.201,372.09l-5.092,2.309l-2.304,5.089   l-5.23-1.961l-5.24,1.961l-2.301-5.089l-5.087-2.309l1.956-5.235l-1.964-5.23l5.094-2.304l2.307-5.094l5.228,1.971l5.235-1.964   l2.314,5.087l5.082,2.304l-1.971,5.235L41.201,372.09z"
				data-original="#FFFFFF"
				class=""/>
		</g>
		<g>
			<path
				style="fill:#9c9c9c"
				d="M64.338,316.594v55.644c-0.008,3.292,1.254,6.589,3.781,9.108c2.509,2.516,5.801,3.776,9.103,3.776   c3.292,0,6.589-1.262,9.103-3.771c2.516-2.522,3.771-5.819,3.771-9.114v-55.644H64.338z"
				data-original="#FDCA5C"
				class="active-path"
				data-old_color="#9c9c9c"/>
			<path
				style="fill:#9c9c9c"
				d="M62.267,308.031c0,1.137,0.932,2.063,2.071,2.063h25.756c1.139-0.005,2.079-0.929,2.079-2.063   v-1.782c0-1.147-0.934-2.081-2.079-2.081l-25.756,0.01c-1.139-0.01-2.071,0.934-2.071,2.074V308.031z"
				data-original="#FDCA5C"
				class="active-path"
				data-old_color="#9c9c9c"/>
		</g>
		<g>
			<rect x="73.81" y="225.33" style="fill:#FFFFFF;" width="6.817" height="78.838" data-original="#FFFFFF" class=""/>
			<path
				style="fill:#FFFFFF;"
				d="M85.274,220.571c-0.01,1.37-0.53,2.749-1.569,3.784c-1.052,1.055-2.429,1.572-3.799,1.572   l-5.361,0.01c-1.382-0.01-2.76-0.53-3.802-1.577c-1.052-1.039-1.577-2.424-1.582-3.789l0.003-17.894h16.108v17.894H85.274z"
				data-original="#FFFFFF"
				class=""/>
		</g><path
			style="fill:#9c9c9c"
			d="M86.851,313.343c0-1.795,1.449-3.251,3.246-3.251H64.338c1.797,0,3.254,1.454,3.254,3.251  c0,1.789-1.454,3.251-3.254,3.251l0,0h25.756l0,0C88.3,316.594,86.851,315.135,86.851,313.343z"
			data-original="#FDCA5C"
			class="active-path"
			data-old_color="#9c9c9c"/>
		<g>
			<path
				style="fill:#2c3843"
				d="M28.575,387.176L28.575,387.176c-11.364,0-20.613-9.114-20.613-20.314   c0-6.28,2.952-12.196,7.946-16.031v-99.036C6.2,246.99,0,237.085,0,226.193c-0.01-10.678,5.891-20.388,15.391-25.336   c0.637-0.33,1.403-0.307,2.017,0.064c0.614,0.371,0.988,1.039,0.988,1.759l0.01,25.039l10.158,5.87l10.158-5.873v-25.037   c0-0.717,0.376-1.385,0.993-1.759c0.614-0.371,1.38-0.399,2.012-0.064c9.487,4.931,15.391,14.643,15.409,25.341   c-0.013,10.898-6.216,20.795-15.91,25.597v99.049c4.995,3.843,7.946,9.748,7.946,16.005   C49.17,378.052,39.928,387.171,28.575,387.176z M14.285,206.348c-6.356,4.562-10.181,11.889-10.176,19.843   c0,9.713,5.763,18.511,14.682,22.413c0.748,0.325,1.231,1.065,1.231,1.882v101.394c0,0.678-0.335,1.311-0.893,1.695   c-4.421,3.031-7.058,8-7.058,13.286c0,8.932,7.404,16.202,16.497,16.202c9.091-0.005,16.484-7.281,16.484-16.218   c0-5.268-2.637-10.227-7.053-13.266c-0.561-0.381-0.893-1.016-0.893-1.695V250.482c0-0.817,0.481-1.556,1.234-1.882   c8.904-3.896,14.666-12.692,14.682-22.403c-0.015-7.969-3.845-15.301-10.189-19.853v22.554c0,0.735-0.392,1.413-1.029,1.782   l-12.216,7.061c-0.632,0.364-1.416,0.364-2.056,0l-12.214-7.055c-0.635-0.369-1.027-1.047-1.027-1.782L14.285,206.348z    M33.802,381.546c-0.241,0-0.484-0.044-0.722-0.133l-4.511-1.69l-4.521,1.69c-1.016,0.387-2.145-0.087-2.593-1.078l-1.981-4.388   l-4.383-1.987c-0.986-0.451-1.452-1.58-1.075-2.593l1.687-4.513l-1.692-4.508c-0.381-1.014,0.09-2.15,1.078-2.598l4.385-1.984   l1.987-4.39c0.445-0.991,1.587-1.464,2.598-1.075l4.506,1.695l4.513-1.687c1.009-0.384,2.143,0.09,2.591,1.073l1.994,4.385   l4.38,1.984c0.983,0.451,1.457,1.582,1.073,2.598l-1.695,4.508l1.7,4.508c0.381,1.014-0.087,2.148-1.075,2.598l-4.385,1.987   l-1.987,4.39C35.333,381.093,34.586,381.546,33.802,381.546z M18.537,371.009l3.341,1.516c0.453,0.21,0.817,0.573,1.021,1.027   l1.513,3.341l3.438-1.288c0.466-0.174,0.978-0.174,1.441,0l3.433,1.285l1.513-3.341c0.202-0.453,0.566-0.814,1.021-1.024   l3.338-1.513l-1.295-3.428c-0.174-0.468-0.174-0.983,0-1.446l1.29-3.435l-3.331-1.508c-0.453-0.207-0.814-0.571-1.019-1.021   l-1.521-3.341l-3.438,1.288c-0.466,0.172-0.98,0.172-1.446,0l-3.423-1.293l-1.513,3.343c-0.205,0.453-0.571,0.817-1.024,1.024   l-3.338,1.51l1.283,3.428c0.174,0.466,0.174,0.978,0,1.441L18.537,371.009z"
				data-original="#232E38"
				class=""
				data-old_color="#2c3843"/>
			<path
				style="fill:#2c3843"
				d="M77.222,387.176c-3.996,0-7.744-1.554-10.557-4.38c-2.829-2.819-4.388-6.569-4.383-10.563v-55.639   c0-1.134,0.922-2.056,2.058-2.056h25.756c1.134,0,2.056,0.919,2.056,2.056v55.644c0,3.991-1.551,7.739-4.37,10.565   C84.956,385.624,81.206,387.176,77.222,387.176z M66.396,318.65v53.591c-0.008,2.893,1.121,5.606,3.174,7.649   c2.043,2.051,4.756,3.177,7.652,3.177c2.885,0,5.601-1.126,7.649-3.169c2.04-2.045,3.164-4.764,3.164-7.657V318.65H66.396z"
				data-original="#232E38"
				class=""
				data-old_color="#2c3843"/>
			<path
				style="fill:#2c3843"
				d="M90.094,312.15H64.338c-2.273,0-4.127-1.848-4.127-4.116v-1.782   c-0.003-1.098,0.428-2.138,1.211-2.921c0.778-0.781,1.81-1.208,2.9-1.208l25.769-0.01c1.106,0,2.145,0.43,2.926,1.216   c0.781,0.783,1.211,1.823,1.208,2.929v1.777c0.005,2.26-1.846,4.106-4.124,4.116C90.099,312.15,90.094,312.15,90.094,312.15z    M64.34,306.231l-0.015,1.8l25.761,0.008c0.023-0.003,0.033-0.021,0.033-0.021l-0.003-1.769L64.34,306.231z"
				data-original="#232E38"
				class=""
				data-old_color="#2c3843"/>
			<path
				style="fill:#2c3843"
				d="M80.63,306.221h-6.828c-0.545,0-1.068-0.215-1.454-0.602c-0.381-0.384-0.599-0.906-0.599-1.452   l0.003-76.728c-0.922-0.366-1.759-0.916-2.468-1.631c-1.39-1.372-2.168-3.233-2.179-5.228l0.003-17.902   c0-1.137,0.922-2.056,2.056-2.056h16.108c1.132,0,2.053,0.919,2.053,2.056v17.894c-0.008,1.999-0.783,3.858-2.173,5.24   c-0.714,0.714-1.549,1.265-2.473,1.626l0.003,76.728c0,0.545-0.218,1.068-0.602,1.452C81.697,306.006,81.172,306.221,80.63,306.221   z M75.858,302.112h2.714l-0.003-76.255c0-1.037,0.771-1.912,1.8-2.04c0.722-0.09,1.375-0.407,1.879-0.914   c0.62-0.617,0.96-1.446,0.965-2.345v-15.826H71.219l-0.005,15.839c0.005,0.883,0.351,1.713,0.97,2.324   c0.643,0.65,1.382,0.863,1.887,0.929c1.024,0.133,1.789,1.006,1.789,2.038L75.858,302.112z"
				data-original="#232E38"
				class=""
				data-old_color="#2c3843"/>
			<path
				style="fill:#2c3843"
				d="M90.094,318.65H64.338c-1.137,0-2.058-0.916-2.058-2.056c0-1.134,0.922-2.056,2.058-2.056   c0.658,0,1.196-0.535,1.196-1.196c0-0.658-0.535-1.196-1.196-1.196c-1.137,0-2.058-0.916-2.058-2.056   c0-1.134,0.922-2.056,2.058-2.056h25.756c1.134,0,2.056,0.919,2.056,2.056c0,1.137-0.922,2.056-2.056,2.056   c-0.655,0-1.19,0.538-1.19,1.196c0,0.66,0.532,1.196,1.19,1.196c1.134,0,2.056,0.919,2.056,2.056   C92.15,317.731,91.228,318.65,90.094,318.65z M69.509,314.538h15.421c-0.087-0.384-0.136-0.783-0.136-1.196   c0-0.41,0.049-0.809,0.136-1.196H69.509c0.09,0.384,0.138,0.786,0.138,1.196C69.647,313.757,69.599,314.154,69.509,314.538z"
				data-original="#232E38"
				class=""
				data-old_color="#2c3843"/>
		</g>
		<g>
			<rect x="473.549" y="359.423" style="fill:#FFFFFF;" width="9.764" height="25.702" data-original="#FFFFFF" class=""/>
			<rect x="448.691" y="359.423" style="fill:#FFFFFF;" width="9.779" height="25.702" data-original="#FFFFFF" class=""/>
			<rect x="498.381" y="359.423" style="fill:#FFFFFF;" width="9.774" height="25.702" data-original="#FFFFFF" class=""/>
		</g><path
			style="fill:#9c9c9c"
			d="M502.925,219.795c-3.469-3.487-8.046-5.225-12.603-5.225c-5.914,0-10.696-4.8-10.714-10.703  c0-0.015,0-0.015,0-0.023c-0.013-0.297-0.12-0.591-0.34-0.827c-0.246-0.225-0.535-0.34-0.845-0.34c-0.32,0-0.604,0.113-0.847,0.34  c-0.225,0.236-0.335,0.53-0.346,0.827c0,0.008,0,0.008,0,0.023c-0.013,5.903-4.79,10.703-10.714,10.703  c-4.552,0-9.121,1.738-12.611,5.225c-3.482,3.487-5.222,8.049-5.222,12.613v89.3h59.476v-89.3  C508.16,227.844,506.419,223.282,502.925,219.795z"
			data-original="#FDCA5C"
			class="active-path"
			data-old_color="#9c9c9c"/>
		<g>
			<rect x="448.691" y="321.714" style="fill:#13d389" width="59.469" height="37.701" data-original="#F77B55" class="" data-old_color="#13d389"/>
			<rect x="446.899" y="321.714" style="fill:#13d389" width="63.045" height="17.838" data-original="#F77B55" class="" data-old_color="#13d389"/>
			<rect x="467.123" y="303.871" style="fill:#13d389" width="22.595" height="17.846" data-original="#F77B55" class="" data-old_color="#13d389"/>
		</g><path style="fill:#FFFFFF;" d="M489.72,280.406c0,1.303-1.075,2.376-2.383,2.376h-17.838c-1.308,0-2.376-1.073-2.376-2.376v-24.497  c0-1.313,1.068-2.386,2.376-2.386h17.838c1.308,0,2.383,1.073,2.383,2.386V280.406z" data-original="#FFFFFF" class=""/>
		<g>
			<path
				style="fill:#2c3843"
				d="M483.305,387.176h-9.764c-1.134,0-2.056-0.919-2.056-2.056v-25.713c0-1.134,0.919-2.056,2.056-2.056   h9.764c1.137,0,2.058,0.919,2.058,2.056v25.713C485.363,386.257,484.442,387.176,483.305,387.176z M475.594,383.067h5.655v-21.601   h-5.655V383.067z"
				data-original="#232E38"
				class=""
				data-old_color="#2c3843"/>
			<path
				style="fill:#2c3843"
				d="M458.468,387.176h-9.779c-1.132,0-2.056-0.919-2.056-2.056v-25.713c0-1.134,0.922-2.056,2.056-2.056   h9.779c1.132,0,2.056,0.919,2.056,2.056v25.713C460.524,386.257,459.599,387.176,458.468,387.176z M450.742,383.067h5.67v-21.601   h-5.67V383.067z"
				data-original="#232E38"
				class=""
				data-old_color="#2c3843"/>
			<path
				style="fill:#2c3843"
				d="M508.16,387.176h-9.774c-1.137,0-2.058-0.919-2.058-2.056v-25.713c0-1.134,0.919-2.056,2.058-2.056   h9.774c1.132,0,2.056,0.919,2.056,2.056v25.713C510.216,386.257,509.292,387.176,508.16,387.176z M500.439,383.067h5.665v-21.601   h-5.665V383.067z"
				data-original="#232E38"
				class=""
				data-old_color="#2c3843"/>
			<path
				style="fill:#2c3843"
				d="M508.16,323.764h-59.471c-1.132,0-2.056-0.917-2.056-2.056v-89.3c0-5.312,2.071-10.307,5.824-14.065   c3.758-3.758,8.753-5.827,14.062-5.827c4.762,0,8.645-3.884,8.658-8.653c0.026-0.906,0.356-1.684,0.922-2.273   c1.375-1.3,3.32-1.236,4.57-0.077c0.64,0.681,0.963,1.441,0.996,2.24c0.015,4.879,3.899,8.763,8.658,8.763   c5.322,0,10.314,2.068,14.057,5.829c3.761,3.75,5.834,8.748,5.834,14.062v89.3C510.216,322.845,509.292,323.764,508.16,323.764z    M450.742,319.656h55.363v-87.247c0-4.216-1.649-8.177-4.634-11.156c-2.972-2.982-6.932-4.626-11.149-4.626   c-5.396,0-10.038-3.387-11.894-8.151c-1.856,4.756-6.495,8.151-11.907,8.151c-4.214,0-8.174,1.644-11.156,4.626   c-2.977,2.982-4.621,6.943-4.621,11.156v87.247H450.742z"
				data-original="#232E38"
				class=""
				data-old_color="#2c3843"/>
			<path
				style="fill:#2c3843"
				d="M458.363,255.579c-1.132,0-2.056-0.919-2.056-2.056v-21.115c0-2.726,1.062-5.294,2.99-7.227   c1.933-1.93,4.498-2.99,7.222-2.99c1.137,0,2.058,0.919,2.058,2.056c0,1.137-0.919,2.056-2.058,2.056   c-1.631,0-3.159,0.635-4.314,1.787c-1.152,1.155-1.789,2.688-1.789,4.321v21.115C460.419,254.66,459.494,255.579,458.363,255.579z"
				data-original="#232E38"
				class=""
				data-old_color="#2c3843"/>
			<path
				style="fill:#2c3843"
				d="M508.16,361.463h-59.471c-1.132,0-2.056-0.917-2.056-2.056v-19.863c0-1.134,0.922-2.056,2.056-2.056   h59.471c1.132,0,2.056,0.919,2.056,2.056v19.863C510.216,360.547,509.292,361.463,508.16,361.463z M450.742,357.354h55.363v-15.752   h-55.363L450.742,357.354L450.742,357.354z"
				data-original="#232E38"
				class=""
				data-old_color="#2c3843"/>
			<path
				style="fill:#2c3843"
				d="M509.944,341.6h-63.045c-1.134,0-2.058-0.916-2.058-2.056v-17.838c0-1.134,0.922-2.053,2.058-2.053   h63.045c1.134,0,2.056,0.916,2.056,2.053v17.838C512,340.684,511.081,341.6,509.944,341.6z M448.957,337.491h58.934v-13.727   h-58.934V337.491z"
				data-original="#232E38"
				class=""
				data-old_color="#2c3843"/>
			<path
				style="fill:#2c3843"
				d="M489.72,323.764h-22.595c-1.132,0-2.056-0.917-2.056-2.056v-17.846c0-1.134,0.922-2.056,2.056-2.056   h22.595c1.137,0,2.058,0.919,2.058,2.056v17.846C491.779,322.845,490.857,323.764,489.72,323.764z M469.181,319.656h18.481v-13.737   h-18.481V319.656z"
				data-original="#232E38"
				class=""
				data-old_color="#2c3843"/>
			<path
				style="fill:#2c3843"
				d="M487.337,284.837h-17.838c-2.44,0-4.429-1.984-4.429-4.429v-24.497c0-2.45,1.989-4.439,4.429-4.439   h17.838c2.447,0,4.439,1.992,4.439,4.439v24.497C491.779,282.851,489.784,284.837,487.337,284.837z M469.499,255.579   c-0.174,0-0.317,0.151-0.317,0.33v24.497c0,0.169,0.148,0.32,0.317,0.32h17.838c0.169,0,0.325-0.154,0.325-0.32v-24.497   c0-0.174-0.151-0.33-0.325-0.33H469.499z"
				data-original="#232E38"
				class=""
				data-old_color="#2c3843"/>
			<path
				style="fill:#2c3843"
				d="M473.667,305.919c-1.134,0-2.056-0.919-2.056-2.056v-21.082c0-1.134,0.919-2.056,2.056-2.056   s2.058,0.919,2.058,2.056v21.082C475.725,305,474.803,305.919,473.667,305.919z"
				data-original="#232E38"
				class=""
				data-old_color="#2c3843"/>
			<path
				style="fill:#2c3843"
				d="M483.169,305.919c-1.137,0-2.058-0.919-2.058-2.056v-21.082c0-1.134,0.919-2.056,2.058-2.056   c1.134,0,2.056,0.919,2.056,2.056v21.082C485.225,305,484.306,305.919,483.169,305.919z"
				data-original="#232E38"
				class=""
				data-old_color="#2c3843"/>
		</g>
	</g>
</svg>
