<svg id="Ebene_1" data-name="Ebene 1" xmlns="http://www.w3.org/2000/svg" viewBox="0 0 90 90"><defs><style>.cls-1,.cls-2{fill:none;stroke-linecap:round;stroke-linejoin:round;stroke-width:3px;}.cls-1{stroke:#13d389;}.cls-2{stroke:#9c9c9c;}</style></defs><title>icon</title><path class="cls-1" d="M78.32,60.11A16.87,16.87,0,1,1,61.46,43.24,16.86,16.86,0,0,1,78.32,60.11Z"/><polyline class="cls-1" points="69.89 54.49 58.64 65.73 53.02 60.11"/><rect class="cls-2" x="13.67" y="12.23" width="59.03" height="19.68" rx="2.81" ry="2.81"/><line class="cls-2" x1="34.75" y1="26.28" x2="62.86" y2="26.28"/><line class="cls-2" x1="34.75" y1="20.66" x2="62.86" y2="20.66"/><circle class="cls-2" cx="23.51" cy="22.07" r="2.81"/><path class="cls-2" d="M37.56,51.58H16.48a2.81,2.81,0,0,1-2.81-2.81V34.72a2.81,2.81,0,0,1,2.81-2.81H69.89a2.81,2.81,0,0,1,2.81,2.81v4.22"/><line class="cls-2" x1="34.75" y1="45.96" x2="40.37" y2="45.96"/><line class="cls-2" x1="34.75" y1="40.34" x2="43.18" y2="40.34"/><circle class="cls-2" cx="23.51" cy="41.75" r="2.81"/><path class="cls-2" d="M40.37,71.26H16.48a2.81,2.81,0,0,1-2.81-2.81V54.4a2.81,2.81,0,0,1,2.81-2.81H37.56"/><circle class="cls-2" cx="23.51" cy="61.42" r="2.81"/></svg>