<?xml version="1.0"?>
<svg xmlns="http://www.w3.org/2000/svg" xmlns:xlink="http://www.w3.org/1999/xlink" version="1.1" id="Layer_1" x="0px" y="0px" viewBox="0 0 512.102 512.102" style="enable-background:new 0 0 512.102 512.102;" xml:space="preserve" width="512px" height="512px" class=""><g><g>
	<path style="fill:#FFFFFF;" d="M440.553,263.811c-2.44-2.409-5.629-3.633-8.819-3.633H80.381c-3.18,0-6.369,1.224-8.824,3.633   c-2.409,2.432-3.63,5.624-3.63,8.809v217.124h376.259V272.62C444.186,269.435,442.964,266.243,440.553,263.811z" data-original="#FFFFFF"/>
	<path style="fill:#FFFFFF;" d="M486.838,491.85c0-0.545-0.202-1.083-0.602-1.495c-0.425-0.399-0.95-0.609-1.492-0.609H27.359   c-0.53,0-1.068,0.21-1.469,0.609c-0.417,0.412-0.627,0.95-0.627,1.495v5.212c6.705,7.724,16.64,12.636,27.658,12.636h406.249   c11.036,0,20.982-4.933,27.676-12.654L486.838,491.85z" data-original="#FFFFFF"/>
</g><rect x="87.501" y="279.347" style="fill:#13d389" width="337.075" height="210.406" data-original="#FDCA5C" class="" data-old_color="#13d389"/><g>
	<path style="fill:#2c3843" d="M444.186,492.15H67.927c-1.331,0-2.404-1.075-2.404-2.404V272.622c0-3.958,1.536-7.688,4.326-10.506   c2.862-2.808,6.595-4.342,10.532-4.342h351.352c3.953,0,7.69,1.539,10.509,4.326c2.811,2.834,4.347,6.564,4.347,10.519v217.124   C446.592,491.075,445.512,492.15,444.186,492.15z M70.333,487.34h371.448V272.62c0-2.678-1.044-5.204-2.936-7.117   c-1.897-1.874-4.429-2.921-7.109-2.921H80.381c-2.67,0-5.204,1.044-7.137,2.944c-1.869,1.884-2.911,4.413-2.911,7.094V487.34z" data-original="#232E38" class="active-path" data-old_color="#2c3843"/>
	<path style="fill:#2c3843" d="M256.049,275.891c-3.269,0-5.924-2.665-5.924-5.944c0-3.254,2.657-5.906,5.924-5.906   s5.926,2.65,5.926,5.906C261.972,273.226,259.313,275.891,256.049,275.891z M256.049,267.438c-1.393,0-2.529,1.126-2.529,2.509   c0,1.405,1.137,2.55,2.529,2.55c1.395,0,2.532-1.144,2.532-2.55C258.58,268.539,257.464,267.438,256.049,267.438z" data-original="#232E38" class="active-path" data-old_color="#2c3843"/>
	<path style="fill:#2c3843" d="M459.172,512.102H52.923c-11.302,0-22.047-4.908-29.476-13.463   c-0.381-0.438-0.589-0.998-0.589-1.577v-5.212c0-1.213,0.476-2.353,1.344-3.21c0.824-0.822,1.979-1.3,3.156-1.3h457.385   c1.162,0,2.273,0.448,3.141,1.262c0.904,0.924,1.359,2.056,1.359,3.249v5.207c0,0.579-0.21,1.137-0.586,1.574   C481.234,507.195,470.484,512.102,459.172,512.102z M27.671,496.148c6.484,7.091,15.639,11.146,25.252,11.146h406.249   c9.62,0,18.778-4.055,25.262-11.149v-4.035l-456.763,0.044L27.671,496.148L27.671,496.148z" data-original="#232E38" class="active-path" data-old_color="#2c3843"/>
	<path style="fill:#2c3843" d="M296.453,495.846h-80.801c-1.288,0-2.501-0.494-3.415-1.393c-0.932-0.934-1.452-2.191-1.452-3.466   v-1.242c0-1.331,1.075-2.404,2.406-2.404h85.742c1.329,0,2.404,1.075,2.404,2.404v1.242c0,1.277-0.517,2.532-1.431,3.448   C298.898,495.37,297.7,495.846,296.453,495.846z" data-original="#232E38" class="active-path" data-old_color="#2c3843"/>
	<path style="fill:#2c3843" d="M424.594,492.15H87.514c-1.331,0-2.406-1.075-2.406-2.404V279.345c0-1.331,1.075-2.404,2.406-2.404   h337.08c1.334,0,2.404,1.075,2.404,2.404v210.401C426.998,491.075,425.925,492.15,424.594,492.15z M89.917,487.34h332.27V281.748   H89.917V487.34z" data-original="#232E38" class="active-path" data-old_color="#2c3843"/>
</g><g>
	<path style="fill:#9c9c9c" d="M122.496,196.534l-17.106,17.108c-4.375,4.372-10.422,7.081-17.106,7.081   c-6.676,0-12.723-2.708-17.103-7.086l-17.103-17.103l17.103-17.103c4.378-4.372,10.424-7.084,17.106-7.086   c6.679,0,12.726,2.714,17.103,7.086L122.496,196.534z" data-original="#92DEEB" class="" data-old_color="#9c9c9c"/>
	<path style="fill:#9c9c9c" d="M156.523,152.863l-17.106-17.106c-4.372-4.375-7.084-10.422-7.084-17.103   c0-6.676,2.714-12.726,7.086-17.106l17.106-17.106l17.103,17.108c4.375,4.375,7.086,10.427,7.086,17.106   c0,6.676-2.711,12.723-7.086,17.101L156.523,152.863z" data-original="#92DEEB" class="" data-old_color="#9c9c9c"/>
	<path style="fill:#9c9c9c" d="M146.598,50.778h-24.189c-6.19,0-12.383-2.363-17.106-7.089c-4.721-4.723-7.081-10.913-7.084-17.103   l0.003-24.192l24.187,0.003c6.19-0.003,12.378,2.36,17.106,7.081c4.723,4.723,7.084,10.921,7.081,17.108L146.598,50.778z" data-original="#92DEEB" class="" data-old_color="#9c9c9c"/>
	<path style="fill:#9c9c9c" d="M226.726,83.85h-24.189c-6.19,0-12.38-2.363-17.103-7.086s-7.086-10.916-7.086-17.103V35.469h24.192   c6.188,0,12.378,2.36,17.103,7.084c4.723,4.723,7.084,10.916,7.084,17.108V83.85z" data-original="#92DEEB" class="" data-old_color="#9c9c9c"/>
	<path style="fill:#9c9c9c" d="M389.617,196.534l17.103,17.108c4.372,4.372,10.427,7.081,17.103,7.081   c6.679,0,12.723-2.708,17.108-7.086l17.103-17.103l-17.116-17.103c-4.372-4.372-10.414-7.084-17.103-7.086   c-6.666,0-12.723,2.714-17.096,7.086L389.617,196.534z" data-original="#92DEEB" class="" data-old_color="#9c9c9c"/>
	<path style="fill:#9c9c9c" d="M355.587,152.863l17.111-17.106c4.367-4.375,7.078-10.422,7.078-17.103   c0-6.676-2.711-12.726-7.078-17.106l-17.111-17.106l-17.108,17.108c-4.38,4.375-7.084,10.427-7.084,17.106   c0,6.676,2.703,12.723,7.084,17.101L355.587,152.863z" data-original="#92DEEB" class="" data-old_color="#9c9c9c"/>
	<path style="fill:#9c9c9c" d="M365.519,50.778h24.184c6.188,0,12.38-2.363,17.103-7.089c4.723-4.723,7.083-10.913,7.083-17.103   V2.394l-24.184,0.003c-6.193-0.003-12.38,2.36-17.108,7.081c-4.723,4.723-7.078,10.921-7.078,17.108V50.778z" data-original="#92DEEB" class="" data-old_color="#9c9c9c"/>
	<path style="fill:#9c9c9c" d="M285.384,83.85h24.187c6.188,0,12.38-2.363,17.098-7.086c4.728-4.723,7.094-10.916,7.094-17.103   V35.469h-24.195c-6.188,0-12.375,2.36-17.098,7.084s-7.086,10.916-7.086,17.108V83.85z" data-original="#92DEEB" class="" data-old_color="#9c9c9c"/>
</g><g>
	<path style="fill:#2c3843" d="M124.723,195.635c-0.102-0.307-0.307-0.563-0.538-0.794l-0.205-0.205l-0.512-0.512l-16.384-16.41   c-5.018-5.018-11.699-7.782-18.79-7.782c-7.117,0-13.773,2.765-18.816,7.808l-17.101,17.101c-0.947,0.922-0.947,2.458,0,3.405   l17.101,17.101c5.018,5.018,11.699,7.782,18.816,7.782c7.091,0,13.773-2.765,18.79-7.782l16.435-16.41l0.691-0.691   c0.41-0.461,0.691-1.05,0.691-1.715C124.902,196.224,124.851,195.917,124.723,195.635z M103.68,211.942   c-4.096,4.122-9.574,6.374-15.386,6.374c-5.837,0-11.29-2.278-15.411-6.374l-15.411-15.411l15.411-15.386   c4.122-4.122,9.6-6.4,15.411-6.4c5.811,0,11.29,2.278,15.386,6.4l13.005,12.979l2.406,2.406L103.68,211.942z" data-original="#232E38" class="active-path" data-old_color="#2c3843"/>
	<path style="fill:#2c3843" d="M122.496,198.938H88.289c-1.331,0-2.404-1.075-2.404-2.404c0-1.329,1.075-2.404,2.404-2.404h34.207   c1.331,0,2.406,1.075,2.406,2.404C124.902,197.862,123.827,198.938,122.496,198.938z" data-original="#232E38" class="active-path" data-old_color="#2c3843"/>
	<path style="fill:#2c3843" d="M175.334,99.84l-17.101-17.101c-0.461-0.461-1.075-0.691-1.715-0.691c-0.64,0-1.254,0.23-1.69,0.691   L137.728,99.84c-5.043,5.043-7.808,11.725-7.808,18.816s2.765,13.773,7.808,18.79l16.384,16.41l0.717,0.717   c0.102,0.102,0.256,0.23,0.384,0.307c0.128,0.077,0.256,0.154,0.41,0.205c0.282,0.128,0.589,0.179,0.896,0.179   c0.307,0,0.614-0.051,0.896-0.179c0.102-0.026,0.205-0.077,0.307-0.154c0.179-0.102,0.358-0.23,0.486-0.358h0.026l0.691-0.691   l16.41-16.435c5.018-5.018,7.782-11.699,7.782-18.79S180.352,104.883,175.334,99.84z M171.93,134.067l-13.005,12.979l-2.406,2.406   l-2.406-2.406l-13.005-12.979c-4.096-4.122-6.374-9.6-6.374-15.411c0-5.811,2.278-11.29,6.374-15.411l15.411-15.411l15.411,15.411   c4.122,4.122,6.374,9.6,6.374,15.411C178.304,124.467,176.051,129.946,171.93,134.067z" data-original="#232E38" class="active-path" data-old_color="#2c3843"/>
	<path style="fill:#2c3843" d="M156.523,155.267L156.523,155.267c-1.331,0-2.404-1.075-2.404-2.404l0.003-34.207   c0-1.329,1.075-2.404,2.404-2.404l0,0c1.331,0,2.404,1.075,2.404,2.404l-0.003,34.207   C158.927,154.191,157.852,155.267,156.523,155.267z" data-original="#232E38" class="active-path" data-old_color="#2c3843"/>
	<path style="fill:#2c3843" d="M149.069,50.765c0-0.179-0.026-0.333-0.077-0.512V26.598c0.026-7.117-2.765-13.798-7.782-18.816   c-4.48-4.48-10.266-7.142-16.486-7.68C123.955,0.026,123.187,0,122.419,0H98.227c-0.23,0-0.461,0.026-0.666,0.102   c-0.998,0.282-1.741,1.203-1.741,2.304v24.192c0,7.091,2.765,13.773,7.782,18.79c5.018,5.018,11.699,7.782,18.816,7.782h24.166   c0.154,0,0.307-0.026,0.461-0.051c0.256-0.041,0.492-0.12,0.712-0.233C148.534,52.5,149.069,51.702,149.069,50.765z    M122.419,48.384c-5.837,0-11.29-2.278-15.411-6.4c-4.122-4.096-6.374-9.574-6.374-15.386V4.813h21.786   c5.811,0,11.264,2.253,15.386,6.374c4.122,4.096,6.374,9.574,6.374,15.411v21.786H122.419z" data-original="#232E38" class="active-path" data-old_color="#2c3843"/>
	<path style="fill:#2c3843" d="M146.598,53.181c-0.617,0-1.234-0.236-1.702-0.704l-24.192-24.192   c-0.937-0.94-0.937-2.463,0.003-3.405c0.94-0.934,2.463-0.937,3.405,0.003l24.189,24.192c0.937,0.94,0.937,2.463-0.003,3.402   C147.827,52.948,147.213,53.181,146.598,53.181z" data-original="#232E38" class="active-path" data-old_color="#2c3843"/>
	<path style="fill:#2c3843" d="M221.338,40.858c-5.018-5.018-11.699-7.782-18.79-7.782h-24.192c-1.331,0-2.406,1.075-2.406,2.406   v24.192c0,7.091,2.765,13.773,7.782,18.79c5.018,5.018,11.699,7.782,18.816,7.782h24.192c0.614,0,1.229-0.23,1.69-0.691   c0.23-0.23,0.41-0.486,0.512-0.768c0.102-0.307,0.179-0.614,0.179-0.947V59.674C229.12,52.557,226.355,45.875,221.338,40.858z    M202.547,81.434c-5.837,0-11.29-2.253-15.411-6.374c-4.122-4.122-6.374-9.574-6.374-15.386V37.888h21.786   c5.811,0,11.29,2.253,15.386,6.374c4.122,4.096,6.4,9.574,6.4,15.411v21.76H202.547z" data-original="#232E38" class="active-path" data-old_color="#2c3843"/>
	<path style="fill:#2c3843" d="M226.726,86.257c-0.617,0-1.234-0.236-1.705-0.704l-24.184-24.189   c-0.937-0.94-0.937-2.463,0.003-3.405c0.94-0.934,2.463-0.937,3.402,0.003l24.187,24.189c0.937,0.937,0.937,2.463-0.003,3.405   C227.958,86.024,227.343,86.257,226.726,86.257z" data-original="#232E38" class="active-path" data-old_color="#2c3843"/>
	<path style="fill:#2c3843" d="M178.637,229.581v32.896h-4.813v-31.898l-31.642-31.642h-19.686c-1.331,0-2.406-1.075-2.406-2.406   c0-1.331,1.075-2.406,2.406-2.406h20.685c0.64,0,1.254,0.256,1.715,0.717l33.05,33.05   C178.381,228.326,178.637,228.941,178.637,229.581z" data-original="#232E38" class="active-path" data-old_color="#2c3843"/>
	<path style="fill:#2c3843" d="M173.824,277.043h4.813v64.077c0,0.64-0.256,1.254-0.691,1.715l-25.114,25.088l-1.51,1.51   c-0.461,0.463-1.075,0.694-1.69,0.694c-0.614,0-1.229-0.23-1.69-0.694c-0.947-0.945-0.947-2.458,0-3.402l1.485-1.485l24.397-24.422   V277.043z" data-original="#232E38" class="active-path" data-old_color="#2c3843"/>
	<path style="fill:#2c3843" d="M224.256,214.067v48.41h-4.813v-47.411l-25.344-25.318c-0.435-0.461-0.691-1.075-0.691-1.715v-87.04   l-47.821-47.821l-0.691-0.691c-0.947-0.947-0.947-2.458,0-3.405c0.947-0.947,2.458-0.947,3.405,0l0.691,0.691l48.512,48.512   c0.461,0.461,0.717,1.075,0.717,1.715v87.04l25.318,25.344C224,212.813,224.256,213.427,224.256,214.067z" data-original="#232E38" class="active-path" data-old_color="#2c3843"/>
	<path style="fill:#2c3843" d="M219.443,277.043h4.813v64.077c0,0.64-0.256,1.254-0.717,1.715l-25.626,25.626v75.494   c0,1.334-1.075,2.406-2.406,2.406c-1.331,0-2.406-1.075-2.406-2.406v-76.493c0-0.64,0.256-1.254,0.717-1.715l25.626-25.626   L219.443,277.043L219.443,277.043z" data-original="#232E38" class="active-path" data-old_color="#2c3843"/>
	<path style="fill:#2c3843" d="M247.066,101.76v160.717h-4.813V102.758l-16.538-16.512l-0.691-0.691   c-0.947-0.947-0.947-2.458,0-3.405c0.947-0.947,2.458-0.947,3.405,0l17.92,17.92C246.81,100.531,247.066,101.146,247.066,101.76z" data-original="#232E38" class="active-path" data-old_color="#2c3843"/>
	<path style="fill:#2c3843" d="M242.253,277.043h4.813v64.077c0,0.64-0.256,1.254-0.717,1.715l-10.522,10.522v19.021   c0,0.64-0.256,1.229-0.691,1.69l-10.675,10.675l-1.51,1.51c-0.486,0.486-1.101,0.717-1.715,0.717s-1.229-0.23-1.69-0.717   c-0.947-0.919-0.947-2.458,0-3.405l1.51-1.51l9.958-9.958v-19.021c0-0.64,0.256-1.252,0.717-1.715l10.522-10.519V277.043z" data-original="#232E38" class="active-path" data-old_color="#2c3843"/>
	<path style="fill:#2c3843" d="M201.446,216.55v45.926h-4.813v-44.928l-41.805-41.805c-0.461-0.461-0.717-1.075-0.717-1.715   v-21.171c0-1.331,1.075-2.406,2.406-2.406c1.331,0,2.406,1.075,2.406,2.406v20.173l41.805,41.83   C201.19,215.296,201.446,215.91,201.446,216.55z" data-original="#232E38" class="active-path" data-old_color="#2c3843"/>
	<path style="fill:#2c3843" d="M196.634,277.043h4.813v64.077c0,0.64-0.256,1.254-0.717,1.715l-16.256,16.259v30.794   c0,0.64-0.256,1.254-0.691,1.69l-19.021,19.021l-1.51,1.513c-0.461,0.461-1.075,0.691-1.69,0.691c-0.589,0-1.178-0.205-1.638-0.64   c-0.026-0.051-0.077-0.102-0.128-0.154c-0.87-0.922-0.845-2.406,0.051-3.331l1.51-1.51l18.304-18.278v-30.797   c0-0.64,0.256-1.254,0.717-1.715l16.256-16.256V277.043z" data-original="#232E38" class="active-path" data-old_color="#2c3843"/>
	<path style="fill:#2c3843" d="M152.832,367.923c-0.845-1.354-2.022-2.532-3.405-3.377c-1.741-1.152-3.814-1.792-6.016-1.792   c-6.17,0-11.213,5.018-11.213,11.213c0,6.17,5.043,11.187,11.213,11.187c6.17,0,11.213-5.018,11.213-11.187   C154.624,371.738,153.984,369.664,152.832,367.923z M143.411,380.339c-3.533,0-6.4-2.867-6.4-6.374c0-3.533,2.867-6.4,6.4-6.4   c1.766,0,3.379,0.717,4.531,1.866c1.152,1.152,1.869,2.765,1.869,4.534C149.811,377.472,146.944,380.339,143.411,380.339z" data-original="#232E38" class="active-path" data-old_color="#2c3843"/>
	<path style="fill:#2c3843" d="M164.762,410.598c-0.87-1.382-2.022-2.56-3.405-3.43c-1.741-1.124-3.814-1.764-6.016-1.764   c-6.17,0-11.213,5.043-11.213,11.213s5.043,11.213,11.213,11.213s11.187-5.043,11.187-11.213   C166.528,414.413,165.888,412.339,164.762,410.598z M155.341,423.014c-3.533,0-6.4-2.867-6.4-6.4s2.867-6.4,6.4-6.4   c1.741,0,3.302,0.691,4.454,1.792c0.051,0.051,0.102,0.102,0.128,0.154c1.126,1.152,1.818,2.714,1.818,4.454   C161.741,420.147,158.874,423.014,155.341,423.014z" data-original="#232E38" class="active-path" data-old_color="#2c3843"/>
	<path style="fill:#2c3843" d="M197.914,441.83c-0.768-0.177-1.587-0.279-2.406-0.279s-1.638,0.102-2.406,0.279   c-5.018,1.103-8.781,5.583-8.781,10.934c0,6.17,5.018,11.187,11.187,11.187c6.195,0,11.213-5.018,11.213-11.187   C206.72,447.411,202.957,442.931,197.914,441.83z M195.507,459.162c-3.507,0-6.374-2.867-6.374-6.4c0-3.533,2.867-6.4,6.374-6.4   c3.533,0,6.4,2.867,6.4,6.4C201.907,456.294,199.04,459.162,195.507,459.162z" data-original="#232E38" class="active-path" data-old_color="#2c3843"/>
	<path style="fill:#2c3843" d="M224.461,384.742c-0.87-1.357-2.048-2.534-3.405-3.405c-1.741-1.124-3.814-1.764-6.042-1.764   c-6.17,0-11.187,5.018-11.187,11.213c0,6.167,5.018,11.187,11.187,11.187c6.195,0,11.213-5.02,11.213-11.187   C226.227,388.557,225.587,386.483,224.461,384.742z M215.014,397.158c-3.507,0-6.4-2.865-6.4-6.372c0-3.533,2.893-6.4,6.4-6.4   c1.766,0,3.354,0.714,4.531,1.866c1.152,1.178,1.869,2.765,1.869,4.534C221.414,394.291,218.547,397.158,215.014,397.158z" data-original="#232E38" class="active-path" data-old_color="#2c3843"/>
	<path style="fill:#2c3843" d="M459.725,194.842l-17.101-17.101c-5.018-5.043-11.699-7.808-18.816-7.808   c-7.094,0-13.773,2.765-18.79,7.782l-16.384,16.41l-0.512,0.512l-0.205,0.205c-0.23,0.23-0.435,0.486-0.538,0.794   c-0.128,0.282-0.177,0.589-0.177,0.896c0,0.486,0.154,0.973,0.407,1.357c0.102,0.128,0.205,0.256,0.307,0.358   c0.054,0.051,0.077,0.077,0.102,0.102l0.589,0.589l16.41,16.41c5.018,5.018,11.697,7.782,18.816,7.782   c7.091,0,13.773-2.765,18.79-7.782l17.101-17.101c0.463-0.461,0.717-1.075,0.717-1.715S460.186,195.277,459.725,194.842z    M439.219,211.942c-4.119,4.096-9.574,6.374-15.386,6.374c-5.837,0-11.29-2.253-15.414-6.374l-13.002-13.005l-2.406-2.406   l2.406-2.406l13.002-13.005c4.122-4.096,9.574-6.374,15.388-6.374c5.834,0,11.29,2.278,15.411,6.4l15.414,15.386L439.219,211.942z" data-original="#232E38" class="active-path" data-old_color="#2c3843"/>
	<path style="fill:#2c3843" d="M423.813,198.938h-34.196c-1.334,0-2.406-1.075-2.406-2.404c0-1.329,1.075-2.404,2.406-2.404h34.196   c1.334,0,2.406,1.075,2.406,2.404C426.219,197.862,425.147,198.938,423.813,198.938z" data-original="#232E38" class="active-path" data-old_color="#2c3843"/>
	<path style="fill:#2c3843" d="M374.4,99.84l-17.103-17.101c-0.947-0.947-2.483-0.922-3.405,0L336.768,99.84   c-5.018,5.043-7.782,11.699-7.782,18.816c0,7.091,2.765,13.773,7.782,18.816l16.41,16.384l0.714,0.717   c0.102,0.102,0.259,0.23,0.384,0.307c0.128,0.077,0.256,0.154,0.41,0.205c0.279,0.128,0.586,0.179,0.896,0.179   c0.31,0,0.614-0.051,0.899-0.179c0.1-0.026,0.202-0.077,0.305-0.154c0.179-0.102,0.361-0.23,0.486-0.358h0.026l0.694-0.691   l16.41-16.435c5.018-5.018,7.78-11.699,7.78-18.79S379.418,104.883,374.4,99.84z M370.995,134.067l-13.005,12.979l-2.406,2.406   l-2.404-2.406l-13.005-12.979c-4.099-4.122-6.374-9.6-6.374-15.411c0-5.811,2.278-11.29,6.374-15.411l15.411-15.411L371,103.245   c4.096,4.122,6.372,9.6,6.372,15.411C377.372,124.467,375.091,129.946,370.995,134.067z" data-original="#232E38" class="active-path" data-old_color="#2c3843"/>
	<path style="fill:#2c3843" d="M355.587,155.267c-1.329,0-2.404-1.075-2.404-2.404v-34.207c0-1.329,1.078-2.404,2.404-2.404   c1.334,0,2.404,1.075,2.404,2.404v34.207C357.99,154.191,356.918,155.267,355.587,155.267z" data-original="#232E38" class="active-path" data-old_color="#2c3843"/>
	<path style="fill:#2c3843" d="M415.59,0.691c-0.307-0.307-0.668-0.512-1.05-0.589C414.336,0.026,414.106,0,413.901,0h-24.218   c-0.768,0-1.539,0.026-2.304,0.102c-6.221,0.538-11.981,3.2-16.484,7.68c-5.018,5.018-7.782,11.699-7.782,18.816v24.166   c0,0.461,0.128,0.947,0.41,1.357c0.074,0.128,0.177,0.23,0.305,0.358c0.156,0.154,0.307,0.282,0.486,0.358   c0.102,0.077,0.205,0.128,0.307,0.154c0.279,0.128,0.586,0.179,0.896,0.179h24.192c7.094,0,13.773-2.765,18.79-7.782   c5.043-5.018,7.782-11.699,7.782-18.79V2.406C416.282,1.766,416.051,1.152,415.59,0.691z M411.494,26.598   c0,5.811-2.278,11.264-6.372,15.386c-4.122,4.122-9.6,6.4-15.414,6.4h-21.786V26.598c0-5.837,2.253-11.315,6.374-15.411   c4.119-4.122,9.572-6.374,15.411-6.374h21.786L411.494,26.598L411.494,26.598z" data-original="#232E38" class="active-path" data-old_color="#2c3843"/>
	<path style="fill:#2c3843" d="M365.519,53.181c-0.62,0-1.234-0.236-1.705-0.701c-0.94-0.94-0.94-2.463,0-3.402l24.187-24.192   c0.94-0.94,2.46-0.937,3.4-0.003c0.94,0.94,0.94,2.463,0.005,3.405L367.222,52.48C366.751,52.948,366.131,53.181,365.519,53.181z" data-original="#232E38" class="active-path" data-old_color="#2c3843"/>
	<path style="fill:#2c3843" d="M333.773,33.075h-24.218c-7.094,0-13.775,2.765-18.793,7.782s-7.782,11.699-7.782,18.816V83.84   c0,0.461,0.131,0.947,0.41,1.357c0.077,0.128,0.179,0.23,0.307,0.358c0.156,0.154,0.307,0.282,0.486,0.358   c0.102,0.077,0.205,0.128,0.307,0.154c0.279,0.128,0.586,0.179,0.896,0.179h24.192c7.091,0,13.773-2.765,18.79-7.782   c5.018-5.018,7.782-11.699,7.782-18.79V35.482C336.154,34.15,335.078,33.075,333.773,33.075z M331.366,59.674   c0,5.811-2.278,11.264-6.4,15.386c-4.122,4.122-9.574,6.374-15.386,6.374h-21.786v-21.76c0-5.837,2.253-11.315,6.372-15.411   c4.122-4.122,9.574-6.374,15.388-6.374h21.811V59.674z" data-original="#232E38" class="active-path" data-old_color="#2c3843"/>
	<path style="fill:#2c3843" d="M285.384,86.257c-0.617,0-1.231-0.236-1.702-0.701c-0.94-0.94-0.94-2.463,0-3.405l24.179-24.189   c0.94-0.94,2.468-0.937,3.407-0.003c0.939,0.94,0.939,2.463,0,3.405l-24.179,24.189C286.618,86.024,285.998,86.257,285.384,86.257z   " data-original="#232E38" class="active-path" data-old_color="#2c3843"/>
	<path style="fill:#2c3843" d="M364.186,366.029c0.919,0.945,0.919,2.458,0,3.402c-0.463,0.463-1.103,0.694-1.715,0.694   c-0.614,0-1.229-0.23-1.69-0.694l-1.51-1.51l-25.091-25.088c-0.461-0.461-0.714-1.075-0.714-1.715v-64.077h4.813v63.081   l24.397,24.394L364.186,366.029z" data-original="#232E38" class="active-path" data-old_color="#2c3843"/>
	<path style="fill:#2c3843" d="M392.013,196.531c0,1.331-1.075,2.406-2.406,2.406h-19.684l-31.642,31.642v31.898h-4.813v-32.896   c0-0.64,0.256-1.254,0.714-1.69l33.05-33.05c0.435-0.461,1.05-0.717,1.69-0.717h20.685   C390.938,194.125,392.013,195.2,392.013,196.531z" data-original="#232E38" class="active-path" data-old_color="#2c3843"/>
	<path style="fill:#2c3843" d="M318.285,365.747c0.463,0.461,0.717,1.075,0.717,1.715v76.493c0,1.334-1.075,2.406-2.404,2.406   c-1.334,0-2.406-1.075-2.406-2.406v-75.494l-25.626-25.626c-0.463-0.461-0.717-1.075-0.717-1.715v-64.077h4.813v63.081   L318.285,365.747z" data-original="#232E38" class="active-path" data-old_color="#2c3843"/>
	<path style="fill:#2c3843" d="M367.206,52.48l-0.102,0.102l-0.586,0.589l-47.823,47.821v87.04c0,0.64-0.23,1.254-0.691,1.715   l-25.344,25.318v47.411h-4.813v-48.41c0-0.64,0.256-1.254,0.717-1.69l25.318-25.344v-87.04c0-0.64,0.259-1.254,0.717-1.715   l48.512-48.512l0.691-0.691c0.947-0.947,2.483-0.947,3.405,0C368.154,50.022,368.154,51.533,367.206,52.48z" data-original="#232E38" class="active-path" data-old_color="#2c3843"/>
	<path style="fill:#2c3843" d="M269.875,262.477h-4.815V101.76c0-0.614,0.259-1.229,0.694-1.69l17.226-17.229l0.694-0.691   c0.947-0.947,2.483-0.947,3.405,0c0.947,0.947,0.947,2.458,0,3.405l-0.694,0.691l-16.509,16.512V262.477z" data-original="#232E38" class="active-path" data-old_color="#2c3843"/>
	<path style="fill:#2c3843" d="M292.557,386.253c-0.461,0.486-1.075,0.717-1.69,0.717c-0.612,0-1.226-0.23-1.687-0.717l-1.513-1.51   l-10.675-10.675c-0.461-0.461-0.714-1.05-0.714-1.69v-19.021l-10.522-10.522c-0.435-0.461-0.694-1.075-0.694-1.715v-64.077h4.815   v63.104l10.519,10.496c0.435,0.463,0.694,1.075,0.694,1.715v19.023l9.981,9.958l1.51,1.51   C293.504,383.795,293.504,385.331,292.557,386.253z" data-original="#232E38" class="active-path" data-old_color="#2c3843"/>
	<path style="fill:#2c3843" d="M352.256,408.678c0.922,0.947,0.922,2.486,0,3.405c-0.461,0.486-1.101,0.717-1.715,0.717   s-1.229-0.23-1.69-0.691l-1.51-1.513l-19.021-19.021c-0.438-0.435-0.694-1.05-0.694-1.69v-30.794l-16.256-16.259   c-0.463-0.461-0.717-1.075-0.717-1.715v-64.077h4.813v63.081l16.256,16.256c0.463,0.461,0.717,1.075,0.717,1.715v30.797   l18.304,18.278L352.256,408.678z" data-original="#232E38" class="active-path" data-old_color="#2c3843"/>
	<path style="fill:#2c3843" d="M357.99,152.858v21.171c0,0.64-0.259,1.254-0.694,1.715l-41.83,41.805v44.928h-4.813V216.55   c0-0.64,0.256-1.254,0.717-1.69l41.805-41.83v-20.173c0-1.331,1.075-2.406,2.404-2.406   C356.915,150.451,357.99,151.526,357.99,152.858z" data-original="#232E38" class="active-path" data-old_color="#2c3843"/>
	<path style="fill:#2c3843" d="M368.691,362.752c-2.202,0-4.275,0.64-6.016,1.764c-1.382,0.873-2.534,2.051-3.405,3.405   c-1.126,1.743-1.766,3.814-1.766,6.042c0,6.17,5.018,11.187,11.187,11.187c6.195,0,11.213-5.018,11.213-11.187   C379.904,367.77,374.886,362.752,368.691,362.752z M368.691,380.339c-3.533,0-6.374-2.867-6.374-6.374   c0-1.766,0.717-3.379,1.869-4.534c1.152-1.149,2.737-1.866,4.506-1.866c3.533,0,6.4,2.867,6.4,6.4   C375.091,377.472,372.224,380.339,368.691,380.339z" data-original="#232E38" class="active-path" data-old_color="#2c3843"/>
	<path style="fill:#2c3843" d="M356.762,405.402c-2.199,0-4.275,0.64-6.016,1.764c-1.382,0.87-2.534,2.048-3.405,3.43   c-1.126,1.743-1.766,3.814-1.766,6.019c0,6.17,5.018,11.213,11.187,11.213c6.195,0,11.213-5.043,11.213-11.213   S362.957,405.402,356.762,405.402z M356.762,423.014c-3.507,0-6.374-2.867-6.374-6.4c0-1.766,0.717-3.379,1.869-4.534   c1.152-1.149,2.765-1.866,4.506-1.866c3.533,0,6.4,2.867,6.4,6.4S360.294,423.014,356.762,423.014z" data-original="#232E38" class="active-path" data-old_color="#2c3843"/>
	<path style="fill:#2c3843" d="M319.002,441.83c-0.768-0.177-1.587-0.279-2.404-0.279c-0.819,0-1.641,0.102-2.406,0.279   c-5.018,1.103-8.781,5.583-8.781,10.934c0,6.17,5.018,11.187,11.187,11.187c6.167,0,11.213-5.018,11.213-11.187   C327.808,447.411,324.019,442.931,319.002,441.83z M316.595,459.162c-3.535,0-6.4-2.867-6.4-6.4c0-3.533,2.865-6.4,6.4-6.4   c3.533,0,6.4,2.867,6.4,6.4C322.995,456.294,320.128,459.162,316.595,459.162z" data-original="#232E38" class="active-path" data-old_color="#2c3843"/>
	<path style="fill:#2c3843" d="M297.088,379.571c-2.227,0-4.275,0.64-6.019,1.764c-1.382,0.87-2.532,2.022-3.405,3.405   c-1.149,1.741-1.789,3.814-1.789,6.042c0,6.167,5.043,11.187,11.213,11.187c6.17,0,11.213-5.02,11.213-11.187   C308.301,384.589,303.258,379.571,297.088,379.571z M297.088,397.158c-3.533,0-6.4-2.865-6.4-6.372   c0-1.766,0.714-3.356,1.866-4.534c1.178-1.152,2.765-1.866,4.534-1.866c3.533,0,6.4,2.867,6.4,6.4   C303.488,394.291,300.621,397.158,297.088,397.158z" data-original="#232E38" class="active-path" data-old_color="#2c3843"/>
</g></g> </svg>
