<?xml version="1.0"?>
<svg xmlns="http://www.w3.org/2000/svg" xmlns:xlink="http://www.w3.org/1999/xlink" version="1.1" id="Capa_1" x="0px" y="0px" viewBox="0 0 512 512" style="enable-background:new 0 0 512 512;" xml:space="preserve" width="512px" height="512px" class=""><g><path style="fill:#13d389" d="M464,96c-26.472,0-48-21.528-48-48s21.528-48,48-48s48,21.528,48,48S490.472,96,464,96z M464,16  c-17.648,0-32,14.352-32,32s14.352,32,32,32s32-14.352,32-32S481.648,16,464,16z" data-original="#F96232" class="" data-old_color="#13d389"/><g>
	<path style="fill:#9c9c9c" d="M448,152h-56v-16h56c2.016,0,3.936-0.848,5.544-2.464c1.608-1.6,2.456-3.52,2.456-5.536v-16h16v16   c0,6.264-2.528,12.248-7.136,16.848C460.248,149.464,454.256,152,448,152z" data-original="#403E3E" class="" data-old_color="#9c9c9c"/>
	<rect x="456" y="40" style="fill:#9c9c9c" width="16" height="16" data-original="#403E3E" class="" data-old_color="#9c9c9c"/>
</g><path style="fill:#13d389" d="M48,96C21.528,96,0,74.472,0,48S21.528,0,48,0s48,21.528,48,48S74.472,96,48,96z M48,16  c-17.648,0-32,14.352-32,32s14.352,32,32,32s32-14.352,32-32S65.648,16,48,16z" data-original="#F96232" class="" data-old_color="#13d389"/><g>
	<path style="fill:#9c9c9c" d="M120,152H64c-6.264,0-12.248-2.536-16.856-7.144S40,134.264,40,128v-16h16v16   c0,2.016,0.848,3.936,2.456,5.544C60.064,135.152,61.984,136,64,136h56V152z" data-original="#403E3E" class="" data-old_color="#9c9c9c"/>
	<rect x="40" y="40" style="fill:#9c9c9c" width="16" height="16" data-original="#403E3E" class="" data-old_color="#9c9c9c"/>
</g><path style="fill:#13d389" d="M464,512c-26.472,0-48-21.528-48-48s21.528-48,48-48s48,21.528,48,48S490.472,512,464,512z M464,432  c-17.648,0-32,14.352-32,32s14.352,32,32,32s32-14.352,32-32S481.648,432,464,432z" data-original="#F96232" class="" data-old_color="#13d389"/><g>
	<path style="fill:#9c9c9c" d="M472,400h-16v-16c0-2.016-0.848-3.936-2.464-5.552c-1.6-1.6-3.52-2.448-5.536-2.448h-56v-16h56   c6.256,0,12.24,2.528,16.848,7.136C469.472,371.76,472,377.744,472,384V400z" data-original="#403E3E" class="" data-old_color="#9c9c9c"/>
	<rect x="456" y="456" style="fill:#9c9c9c" width="16" height="16" data-original="#403E3E" class="" data-old_color="#9c9c9c"/>
</g><path style="fill:#13d389" d="M48,512c-26.472,0-48-21.528-48-48s21.528-48,48-48s48,21.528,48,48S74.472,512,48,512z M48,432  c-17.648,0-32,14.352-32,32s14.352,32,32,32s32-14.352,32-32S65.648,432,48,432z" data-original="#F96232" class="" data-old_color="#13d389"/><g>
	<path style="fill:#9c9c9c" d="M56,400H40v-16c0-6.256,2.536-12.248,7.144-16.856C51.752,362.528,57.736,360,64,360h56v16H64   c-2.016,0-3.936,0.848-5.544,2.464C56.848,380.064,56,381.984,56,384V400z" data-original="#403E3E" class="" data-old_color="#9c9c9c"/>
	<rect x="40" y="456" style="fill:#9c9c9c" width="16" height="16" data-original="#403E3E" class="" data-old_color="#9c9c9c"/>
</g><g>
	<polygon style="fill:#2c3843" points="376,232 360,232 360,224 152,224 152,232 136,232 136,208 376,208  " data-original="#43D3E8" class="active-path" data-old_color="#2c3843"/>
	<polygon style="fill:#2c3843" points="376,304 136,304 136,280 152,280 152,288 360,288 360,280 376,280  " data-original="#43D3E8" class="active-path" data-old_color="#2c3843"/>
</g><g>
	<rect x="216" y="248" style="fill:#9c9c9c" width="16" height="16" data-original="#403E3E" class="" data-old_color="#9c9c9c"/>
	<rect x="248" y="248" style="fill:#9c9c9c" width="16" height="16" data-original="#403E3E" class="" data-old_color="#9c9c9c"/>
	<rect x="280" y="248" style="fill:#9c9c9c" width="16" height="16" data-original="#403E3E" class="" data-old_color="#9c9c9c"/>
</g><path style="fill:#2c3843" d="M376,192H136V96h240V192z M152,176h208v-64H152V176z" data-original="#43D3E8" class="active-path" data-old_color="#2c3843"/><g>
	<rect x="216" y="136" style="fill:#9c9c9c" width="16" height="16" data-original="#403E3E" class="" data-old_color="#9c9c9c"/>
	<rect x="248" y="136" style="fill:#9c9c9c" width="16" height="16" data-original="#403E3E" class="" data-old_color="#9c9c9c"/>
	<rect x="280" y="136" style="fill:#9c9c9c" width="16" height="16" data-original="#403E3E" class="" data-old_color="#9c9c9c"/>
</g><path style="fill:#2c3843" d="M376,416H136v-96h240V416z M152,400h208v-64H152V400z" data-original="#43D3E8" class="active-path" data-old_color="#2c3843"/><g>
	<rect x="216" y="360" style="fill:#9c9c9c" width="16" height="16" data-original="#403E3E" class="" data-old_color="#9c9c9c"/>
	<rect x="248" y="360" style="fill:#9c9c9c" width="16" height="16" data-original="#403E3E" class="" data-old_color="#9c9c9c"/>
	<rect x="280" y="360" style="fill:#9c9c9c" width="16" height="16" data-original="#403E3E" class="" data-old_color="#9c9c9c"/>
	<path style="fill:#9c9c9c" d="M512,304h-96v-96h96V304z M432,288h64v-64h-64V288z" data-original="#403E3E" class="" data-old_color="#9c9c9c"/>
	<rect x="360" y="248" style="fill:#9c9c9c" width="64" height="16" data-original="#403E3E" class="" data-old_color="#9c9c9c"/>
	<rect x="456" y="248" style="fill:#9c9c9c" width="16" height="16" data-original="#403E3E" class="" data-old_color="#9c9c9c"/>
	<path style="fill:#9c9c9c" d="M96,304H0v-96h96V304z M16,288h64v-64H16V288z" data-original="#403E3E" class="" data-old_color="#9c9c9c"/>
	<rect x="88" y="248" style="fill:#9c9c9c" width="64" height="16" data-original="#403E3E" class="" data-old_color="#9c9c9c"/>
	<rect x="40" y="248" style="fill:#9c9c9c" width="16" height="16" data-original="#403E3E" class="" data-old_color="#9c9c9c"/>
</g></g> </svg>
