<?xml version="1.0"?>
<svg xmlns="http://www.w3.org/2000/svg" xmlns:xlink="http://www.w3.org/1999/xlink" version="1.1" id="Capa_1" x="0px" y="0px" viewBox="0 0 512 512" style="enable-background:new 0 0 512 512;" xml:space="preserve" width="512px" height="512px" class=""><g><g>
	<path style="fill:#13d389" d="M208,384c-70.576,0-128-57.424-128-128s57.424-128,128-128v16c-61.76,0-112,50.24-112,112   s50.24,112,112,112V384z" data-original="#43D3E8" class="" data-old_color="#13d389"/>
	<path style="fill:#13d389" d="M208,352c-52.936,0-96-43.064-96-96s43.064-96,96-96s96,43.064,96,96S260.936,352,208,352z M208,176   c-44.112,0-80,35.888-80,80s35.888,80,80,80s80-35.888,80-80S252.112,176,208,176z" data-original="#43D3E8" class="" data-old_color="#13d389"/>
</g><g>
	
		<rect x="224.8" y="186.433" transform="matrix(-0.9067 0.4218 -0.4218 -0.9067 705.8144 232.726)" style="fill:#2c3843" width="204.73" height="16" data-original="#403E3E" class="" data-old_color="#2c3843"/>
	
		<rect x="319.197" y="215.185" transform="matrix(-0.422 0.9066 -0.9066 -0.422 753.1577 154.9228)" style="fill:#2c3843" width="15.992" height="204.729" data-original="#403E3E" class="" data-old_color="#2c3843"/>
</g><path style="fill:#9c9c9c" d="M448,176c-22.056,0-40-17.944-40-40s17.944-40,40-40s40,17.944,40,40S470.056,176,448,176z M448,112  c-13.232,0-24,10.768-24,24s10.768,24,24,24s24-10.768,24-24S461.232,112,448,112z" data-original="#F96232" class="active-path" data-old_color="#9c9c9c"/><path style="fill:#2c3843" d="M208,296c-22.056,0-40-17.944-40-40s17.944-40,40-40s40,17.944,40,40S230.056,296,208,296z M208,232  c-13.232,0-24,10.768-24,24s10.768,24,24,24s24-10.768,24-24S221.232,232,208,232z" data-original="#403E3E" class="" data-old_color="#2c3843"/><path style="fill:#9c9c9c" d="M448,416c-22.056,0-40-17.944-40-40s17.944-40,40-40s40,17.944,40,40S470.056,416,448,416z M448,352  c-13.232,0-24,10.768-24,24s10.768,24,24,24s24-10.768,24-24S461.232,352,448,352z" data-original="#F96232" class="active-path" data-old_color="#9c9c9c"/><g>
	<rect x="440" y="128" style="fill:#2c3843" width="16" height="16" data-original="#403E3E" class="" data-old_color="#2c3843"/>
	<rect x="440" y="368" style="fill:#2c3843" width="16" height="16" data-original="#403E3E" class="" data-old_color="#2c3843"/>
	<rect x="200" y="248" style="fill:#2c3843" width="16" height="16" data-original="#403E3E" class="" data-old_color="#2c3843"/>
	<rect x="376" y="216" style="fill:#2c3843" width="16" height="16" data-original="#403E3E" class="" data-old_color="#2c3843"/>
	<rect x="376" y="248" style="fill:#2c3843" width="16" height="16" data-original="#403E3E" class="" data-old_color="#2c3843"/>
	<rect x="376" y="280" style="fill:#2c3843" width="16" height="16" data-original="#403E3E" class="" data-old_color="#2c3843"/>
	<rect x="56" y="32" style="fill:#2c3843" width="16" height="16" data-original="#403E3E" class="" data-old_color="#2c3843"/>
	<rect x="88" y="32" style="fill:#2c3843" width="16" height="16" data-original="#403E3E" class="" data-old_color="#2c3843"/>
	<rect x="120" y="32" style="fill:#2c3843" width="16" height="16" data-original="#403E3E" class="" data-old_color="#2c3843"/>
	<polygon style="fill:#2c3843" points="392,512 24,512 24,0 323.312,0 392,68.688 392,128 376,128 376,75.312 316.688,16 40,16    40,496 376,496 376,384 392,384  " data-original="#403E3E" class="" data-old_color="#2c3843"/>
	<polygon style="fill:#2c3843" points="384,80 312,80 312,8 328,8 328,64 384,64  " data-original="#403E3E" class="" data-old_color="#2c3843"/>
	<rect x="56" y="64" style="fill:#2c3843" width="240" height="16" data-original="#403E3E" class="" data-old_color="#2c3843"/>
	<rect x="56" y="96" style="fill:#2c3843" width="88" height="16" data-original="#403E3E" class="" data-old_color="#2c3843"/>
	<rect x="160" y="96" style="fill:#2c3843" width="200" height="16" data-original="#403E3E" class="" data-old_color="#2c3843"/>
	<rect x="56" y="400" style="fill:#2c3843" width="304" height="16" data-original="#403E3E" class="" data-old_color="#2c3843"/>
	<rect x="56" y="432" style="fill:#2c3843" width="56" height="16" data-original="#403E3E" class="" data-old_color="#2c3843"/>
	<rect x="128" y="432" style="fill:#2c3843" width="232" height="16" data-original="#403E3E" class="" data-old_color="#2c3843"/>
	<rect x="56" y="464" style="fill:#2c3843" width="136" height="16" data-original="#403E3E" class="" data-old_color="#2c3843"/>
	<rect x="208" y="464" style="fill:#2c3843" width="56" height="16" data-original="#403E3E" class="" data-old_color="#2c3843"/>
</g></g> </svg>
