<?xml version="1.0"?>
<svg xmlns="http://www.w3.org/2000/svg" xmlns:xlink="http://www.w3.org/1999/xlink" version="1.1" id="Layer_1" x="0px" y="0px" viewBox="0 0 512.003 512.003" style="enable-background:new 0 0 512.003 512.003;" xml:space="preserve" width="512px" height="512px" class=""><g><g>
	<path style="fill:#2c3843" d="M464.947,223.369h-70.451c-1.357,0-2.463-1.103-2.463-2.463c0-1.362,1.106-2.465,2.463-2.465h69.435   l17.946-17.94c0.963-0.963,2.516-0.96,3.479,0c0.963,0.963,0.963,2.522,0,3.484l-18.665,18.662   C466.227,223.108,465.605,223.369,464.947,223.369z" data-original="#232E38" class="" data-old_color="#2c3843"/>
	<path style="fill:#2c3843" d="M442.391,188.346h-47.895c-1.357,0-2.463-1.103-2.463-2.463c0-1.359,1.106-2.463,2.463-2.463h46.876   l11.494-11.505c0.466-0.463,1.088-0.724,1.743-0.724h39.391c1.357,0,2.463,1.103,2.463,2.463c0,1.362-1.106,2.465-2.463,2.465   h-38.369l-11.494,11.507C443.676,188.084,443.044,188.346,442.391,188.346z" data-original="#232E38" class="" data-old_color="#2c3843"/>
	<path style="fill:#2c3843" d="M498.112,355.826c-0.635,0-1.262-0.238-1.746-0.719l-26.688-26.696h-72.095   c-1.357,0-2.463-1.103-2.463-2.46c0-1.359,1.106-2.463,2.463-2.463h73.114c0.65,0,1.28,0.261,1.743,0.717l27.415,27.415   c0.963,0.963,0.963,2.524,0,3.484C499.372,355.588,498.739,355.826,498.112,355.826z" data-original="#232E38" class="" data-old_color="#2c3843"/>
	<path style="fill:#2c3843" d="M427.456,293.388h-29.87c-1.357,0-2.463-1.103-2.463-2.46c0-1.364,1.106-2.468,2.463-2.468h29.87   c1.365,0,2.468,1.103,2.468,2.468C429.921,292.284,428.82,293.388,427.456,293.388z" data-original="#232E38" class="" data-old_color="#2c3843"/>
	<path style="fill:#2c3843" d="M496.873,288.078H461.45c-0.655,0-1.277-0.261-1.743-0.719l-28.992-28.997h-33.129   c-1.357,0-2.463-1.103-2.463-2.465c0-1.357,1.106-2.46,2.463-2.46h34.148c0.653,0,1.28,0.261,1.746,0.722l28.992,28.997h34.401   c1.357,0,2.463,1.106,2.463,2.463C499.336,286.975,498.23,288.078,496.873,288.078z" data-original="#232E38" class="" data-old_color="#2c3843"/>
	<path style="fill:#2c3843" d="M500.334,182.455c-4.854,0-8.801-3.948-8.801-8.801c0-4.846,3.945-8.788,8.801-8.788   c4.851,0,8.801,3.945,8.801,8.788C509.135,178.508,505.185,182.455,500.334,182.455z M500.334,169.788   c-2.138,0-3.876,1.736-3.876,3.863c0,2.138,1.738,3.876,3.876,3.876c2.135,0,3.878-1.738,3.878-3.876   C504.212,171.524,502.469,169.788,500.334,169.788z" data-original="#232E38" class="" data-old_color="#2c3843"/>
	<path style="fill:#2c3843" d="M488.1,206.56c-4.854,0-8.801-3.945-8.801-8.796c0-4.851,3.945-8.801,8.801-8.801   c4.846,0,8.791,3.95,8.791,8.801S492.946,206.56,488.1,206.56z M488.1,193.891c-2.14,0-3.878,1.741-3.878,3.873   c0,2.132,1.738,3.868,3.878,3.868c2.127,0,3.866-1.736,3.866-3.868C491.965,195.631,490.227,193.891,488.1,193.891z" data-original="#232E38" class="" data-old_color="#2c3843"/>
	<path style="fill:#2c3843" d="M503.201,294.406c-4.851,0-8.791-3.94-8.791-8.791c0-4.846,3.94-8.788,8.791-8.788   c4.851,0,8.801,3.942,8.801,8.788C512,290.467,508.05,294.406,503.201,294.406z M503.201,281.752c-2.135,0-3.866,1.738-3.866,3.866   c0,2.135,1.731,3.866,3.866,3.866c2.132,0,3.876-1.731,3.876-3.866C507.075,283.488,505.334,281.752,503.201,281.752z" data-original="#232E38" class="" data-old_color="#2c3843"/>
	<path style="fill:#2c3843" d="M433.782,299.713c-4.846,0-8.791-3.945-8.791-8.788c0-4.856,3.945-8.806,8.791-8.806   c4.854,0,8.804,3.95,8.804,8.806C442.588,295.768,438.638,299.713,433.782,299.713z M433.782,287.049   c-2.127,0-3.86,1.738-3.86,3.878c0,2.127,1.733,3.866,3.86,3.866c2.138,0,3.876-1.738,3.876-3.866   C437.658,288.787,435.919,287.049,433.782,287.049z" data-original="#232E38" class="" data-old_color="#2c3843"/>
	<path style="fill:#2c3843" d="M502.582,366.629c-4.851,0-8.801-3.942-8.801-8.788c0-4.854,3.95-8.806,8.801-8.806   c4.854,0,8.804,3.953,8.804,8.806C511.388,362.687,507.438,366.629,502.582,366.629z M502.582,353.965   c-2.132,0-3.871,1.738-3.871,3.878c0,2.127,1.738,3.86,3.871,3.86c2.14,0,3.878-1.733,3.878-3.86   C506.46,355.701,504.722,353.965,502.582,353.965z" data-original="#232E38" class="" data-old_color="#2c3843"/>
	<path style="fill:#2c3843" d="M147.016,188.346H74.158c-1.359,0-2.463-1.103-2.463-2.463c0-1.359,1.103-2.463,2.463-2.463h72.858   c1.359,0,2.463,1.103,2.463,2.463C149.478,187.242,148.375,188.346,147.016,188.346z" data-original="#232E38" class="" data-old_color="#2c3843"/>
	<path style="fill:#2c3843" d="M27.366,324.988c-0.63,0-1.26-0.238-1.741-0.719c-0.963-0.96-0.963-2.522,0-3.484l31.593-31.603   c0.461-0.463,1.088-0.722,1.743-0.722h88.056c1.359,0,2.463,1.103,2.463,2.468c0,1.357-1.103,2.46-2.463,2.46H59.981   l-30.874,30.881C28.628,324.75,27.999,324.988,27.366,324.988z" data-original="#232E38" class="" data-old_color="#2c3843"/>
	<path style="fill:#2c3843" d="M147.016,328.411h-66.54c-0.655,0-1.283-0.261-1.746-0.722l-9.124-9.157   c-0.96-0.968-0.957-2.524,0.005-3.484c0.963-0.963,2.524-0.957,3.484,0.005l8.402,8.438h65.518c1.359,0,2.463,1.103,2.463,2.463   C149.478,327.308,148.375,328.411,147.016,328.411z" data-original="#232E38" class="" data-old_color="#2c3843"/>
	<path style="fill:#2c3843" d="M71.624,235.565H15.13c-1.359,0-2.463-1.103-2.463-2.46c0-1.362,1.103-2.465,2.463-2.465h55.475   l11.494-11.494c0.463-0.461,1.088-0.722,1.743-0.722h63.176c1.359,0,2.463,1.103,2.463,2.46c0,1.362-1.103,2.465-2.463,2.465   H84.861l-11.497,11.494C72.904,235.304,72.276,235.565,71.624,235.565z" data-original="#232E38" class="" data-old_color="#2c3843"/>
	<path style="fill:#2c3843" d="M147.016,258.362H37.729c-1.359,0-2.463-1.103-2.463-2.465c0-1.357,1.103-2.46,2.463-2.46h109.286   c1.359,0,2.463,1.103,2.463,2.46C149.478,257.258,148.375,258.362,147.016,258.362z" data-original="#232E38" class="" data-old_color="#2c3843"/>
	<path style="fill:#2c3843" d="M67.83,194.671c-4.854,0-8.801-3.942-8.801-8.791s3.948-8.801,8.801-8.801   c4.849,0,8.791,3.95,8.791,8.801S72.678,194.671,67.83,194.671z M67.83,182.007c-2.135,0-3.876,1.741-3.876,3.873   c0,2.132,1.738,3.866,3.876,3.866c2.132,0,3.866-1.731,3.866-3.866S69.962,182.007,67.83,182.007z" data-original="#232E38" class="" data-old_color="#2c3843"/>
	<path style="fill:#2c3843" d="M8.801,241.891c-4.854,0-8.801-3.945-8.801-8.788c0-4.856,3.95-8.804,8.801-8.804   c4.849,0,8.791,3.948,8.791,8.804C17.592,237.946,13.65,241.891,8.801,241.891z M8.801,229.226c-2.135,0-3.876,1.736-3.876,3.876   c0,2.127,1.738,3.863,3.876,3.863c2.13,0,3.863-1.736,3.863-3.863C12.664,230.962,10.931,229.226,8.801,229.226z" data-original="#232E38" class="" data-old_color="#2c3843"/>
	<path style="fill:#2c3843" d="M31.401,264.69c-4.854,0-8.801-3.945-8.801-8.791c0-4.851,3.948-8.801,8.801-8.801   c4.849,0,8.791,3.95,8.791,8.801C40.192,260.745,36.25,264.69,31.401,264.69z M31.401,252.023c-2.135,0-3.876,1.741-3.876,3.873   s1.738,3.86,3.876,3.86c2.132,0,3.863-1.731,3.863-3.86C35.264,253.764,33.533,252.023,31.401,252.023z" data-original="#232E38" class="" data-old_color="#2c3843"/>
	<path style="fill:#2c3843" d="M23.055,335.638c-4.854,0-8.801-3.945-8.801-8.788c0-4.856,3.948-8.806,8.801-8.806   c4.849,0,8.794,3.95,8.794,8.806C31.846,331.693,27.901,335.638,23.055,335.638z M23.055,322.973c-2.135,0-3.876,1.738-3.876,3.878   c0,2.127,1.738,3.86,3.876,3.86c2.132,0,3.866-1.733,3.866-3.86C26.921,324.712,25.188,322.973,23.055,322.973z" data-original="#232E38" class="" data-old_color="#2c3843"/>
	<path style="fill:#2c3843" d="M66.877,321.107c-4.854,0-8.801-3.94-8.801-8.791c0-4.844,3.948-8.788,8.801-8.788   c4.846,0,8.791,3.945,8.791,8.788C75.668,317.167,71.724,321.107,66.877,321.107z M66.877,308.451   c-2.138,0-3.876,1.738-3.876,3.866c0,2.135,1.738,3.868,3.876,3.868c2.13,0,3.863-1.733,3.863-3.868   C70.74,310.189,69.007,308.451,66.877,308.451z" data-original="#232E38" class="" data-old_color="#2c3843"/>
	<path style="fill:#2c3843" d="M184.164,478.34c-0.63,0-1.262-0.238-1.741-0.717c-0.963-0.963-0.963-2.519,0-3.487l15.647-15.66   v-78.822c0-1.362,1.103-2.468,2.463-2.468c1.359,0,2.463,1.106,2.463,2.468v79.846c0,0.65-0.261,1.28-0.722,1.738l-16.371,16.384   C185.423,478.102,184.796,478.34,184.164,478.34z" data-original="#232E38" class="" data-old_color="#2c3843"/>
	<path style="fill:#2c3843" d="M279.242,456.516c-0.632,0-1.262-0.243-1.743-0.725c-0.963-0.96-0.963-2.516,0-3.479l25.874-25.851   v-46.81c0-1.362,1.103-2.468,2.46-2.468c1.359,0,2.463,1.106,2.463,2.468v47.834c0,0.653-0.261,1.28-0.724,1.738l-26.593,26.57   C280.504,456.273,279.869,456.516,279.242,456.516z" data-original="#232E38" class="" data-old_color="#2c3843"/>
	<path style="fill:#2c3843" d="M226.268,419.557c-0.63,0-1.262-0.238-1.743-0.719c-0.96-0.963-0.957-2.522,0.005-3.484l8.666-8.653   v-27.046c0-1.362,1.103-2.468,2.46-2.468c1.362,0,2.465,1.106,2.465,2.468v28.065c0,0.658-0.261,1.28-0.722,1.743l-9.388,9.377   C227.53,419.319,226.898,419.557,226.268,419.557z" data-original="#232E38" class="" data-old_color="#2c3843"/>
	<path style="fill:#2c3843" d="M249.843,480.127c-1.362,0-2.463-1.103-2.463-2.46v-32.632c0-0.701,0.302-1.375,0.829-1.846   l20.134-17.82v-45.716c0-1.362,1.106-2.468,2.463-2.468c1.357,0,2.463,1.106,2.463,2.468v46.825c0,0.707-0.3,1.375-0.832,1.846   l-20.129,17.823v31.521C252.306,479.023,251.203,480.127,249.843,480.127z" data-original="#232E38" class="" data-old_color="#2c3843"/>
	<path style="fill:#2c3843" d="M361.756,475.26c-0.632,0-1.26-0.246-1.743-0.724l-20.787-20.787   c-0.458-0.463-0.717-1.085-0.717-1.743v-72.356c0-1.362,1.103-2.468,2.463-2.468c1.357,0,2.46,1.106,2.46,2.468v71.334l20.07,20.07   c0.96,0.963,0.96,2.517,0,3.479C363.018,475.017,362.386,475.26,361.756,475.26z" data-original="#232E38" class="" data-old_color="#2c3843"/>
	<path style="fill:#2c3843" d="M179.692,489.153c-4.854,0-8.801-3.945-8.801-8.788c0-4.856,3.948-8.806,8.801-8.806   c4.849,0,8.791,3.95,8.791,8.806C188.48,485.208,184.538,489.153,179.692,489.153z M179.692,476.489   c-2.135,0-3.876,1.738-3.876,3.878c0,2.127,1.738,3.858,3.876,3.858c2.132,0,3.863-1.731,3.863-3.858   C183.555,478.227,181.821,476.489,179.692,476.489z" data-original="#232E38" class="" data-old_color="#2c3843"/>
	<path style="fill:#2c3843" d="M221.793,430.365c-4.854,0-8.801-3.945-8.801-8.791c0-4.854,3.95-8.804,8.801-8.804   c4.849,0,8.791,3.95,8.791,8.804C230.584,426.421,226.642,430.365,221.793,430.365z M221.793,417.699   c-2.135,0-3.873,1.738-3.873,3.878c0,2.127,1.738,3.86,3.873,3.86c2.132,0,3.866-1.733,3.866-3.86   C225.659,419.437,223.926,417.699,221.793,417.699z" data-original="#232E38" class="" data-old_color="#2c3843"/>
	<path style="fill:#2c3843" d="M249.851,492.794c-4.856,0-8.804-3.94-8.804-8.791c0-4.851,3.948-8.801,8.804-8.801   c4.844,0,8.791,3.95,8.791,8.801C258.642,488.854,254.694,492.794,249.851,492.794z M249.851,480.127   c-2.14,0-3.876,1.746-3.876,3.878c0,2.135,1.736,3.866,3.876,3.866c2.127,0,3.863-1.731,3.863-3.866   C253.711,481.87,251.978,480.127,249.851,480.127z" data-original="#232E38" class="" data-old_color="#2c3843"/>
	<path style="fill:#2c3843" d="M274.767,467.327c-4.856,0-8.801-3.94-8.801-8.791c0-4.851,3.945-8.801,8.801-8.801   c4.851,0,8.794,3.95,8.794,8.801C283.561,463.387,279.619,467.327,274.767,467.327z M274.767,454.662   c-2.14,0-3.878,1.743-3.878,3.876c0,2.135,1.738,3.866,3.878,3.866c2.132,0,3.866-1.731,3.866-3.866   C278.633,456.403,276.9,454.662,274.767,454.662z" data-original="#232E38" class="" data-old_color="#2c3843"/>
	<path style="fill:#2c3843" d="M366.234,486.068c-4.851,0-8.801-3.942-8.801-8.788c0-4.854,3.95-8.806,8.801-8.806   c4.851,0,8.796,3.953,8.796,8.806C375.027,482.126,371.082,486.068,366.234,486.068z M366.234,473.404   c-2.132,0-3.871,1.738-3.871,3.878c0,2.127,1.738,3.866,3.871,3.866c2.132,0,3.866-1.738,3.866-3.866   C370.097,475.142,368.366,473.404,366.234,473.404z" data-original="#232E38" class="" data-old_color="#2c3843"/>
	<path style="fill:#2c3843" d="M235.656,134.632c-1.359,0-2.46-1.103-2.46-2.463V82.751c0-0.704,0.302-1.375,0.832-1.846   l28.042-24.794V34.336c0-1.359,1.103-2.463,2.46-2.463c1.364,0,2.468,1.103,2.468,2.463v22.886c0,0.707-0.305,1.38-0.829,1.846   l-28.045,24.794v48.31C238.121,133.531,237.018,134.632,235.656,134.632z" data-original="#232E38" class="" data-old_color="#2c3843"/>
	<path style="fill:#2c3843" d="M200.532,134.632c-1.359,0-2.463-1.103-2.463-2.463V57.865l-22.431-22.42   c-0.96-0.963-0.96-2.522,0-3.484c0.96-0.963,2.519-0.963,3.484,0l23.15,23.145c0.461,0.461,0.722,1.091,0.722,1.741v75.325   C202.995,133.531,201.892,134.632,200.532,134.632z" data-original="#232E38" class="" data-old_color="#2c3843"/>
	<path style="fill:#2c3843" d="M340.969,134.632c-1.359,0-2.463-1.103-2.463-2.463V36.205c0-1.362,1.103-2.465,2.463-2.465   c1.357,0,2.46,1.103,2.46,2.465v95.964C343.429,133.531,342.328,134.632,340.969,134.632z" data-original="#232E38" class="" data-old_color="#2c3843"/>
	<path style="fill:#2c3843" d="M305.836,134.632c-1.357,0-2.46-1.103-2.46-2.463V67.058l-12.316-12.332   c-0.963-0.965-0.963-2.524,0-3.487c0.968-0.96,2.522-0.957,3.484,0.005l13.036,13.056c0.458,0.461,0.717,1.088,0.717,1.738v66.13   C308.298,133.531,307.195,134.632,305.836,134.632z" data-original="#232E38" class="" data-old_color="#2c3843"/>
	<path style="fill:#2c3843" d="M270.804,134.632c-1.357,0-2.463-1.103-2.463-2.463V90.431c0-0.65,0.256-1.275,0.712-1.736   l11.054-11.118c0.96-0.968,2.522-0.968,3.484-0.01c0.963,0.96,0.968,2.519,0.01,3.482L273.265,91.45v40.719   C273.267,133.531,272.161,134.632,270.804,134.632z" data-original="#232E38" class="" data-old_color="#2c3843"/>
	<path style="fill:#2c3843" d="M172.908,38.015c-4.854,0-8.801-3.945-8.801-8.788c0-4.854,3.948-8.801,8.801-8.801   c4.849,0,8.791,3.948,8.791,8.801C181.699,34.07,177.756,38.015,172.908,38.015z M172.908,25.348c-2.135,0-3.876,1.738-3.876,3.876   c0,2.13,1.738,3.863,3.876,3.863c2.13,0,3.863-1.733,3.863-3.863C176.773,27.086,175.04,25.348,172.908,25.348z" data-original="#232E38" class="" data-old_color="#2c3843"/>
	<path style="fill:#2c3843" d="M264.527,36.801c-4.851,0-8.799-3.942-8.799-8.791s3.948-8.801,8.799-8.801   c4.851,0,8.796,3.95,8.796,8.801S269.379,36.801,264.527,36.801z M264.527,24.134c-2.132,0-3.871,1.741-3.871,3.873   s1.738,3.866,3.871,3.866c2.135,0,3.868-1.731,3.868-3.866S266.662,24.134,264.527,24.134z" data-original="#232E38" class="" data-old_color="#2c3843"/>
	<path style="fill:#2c3843" d="M286.336,83.636c-4.851,0-8.801-3.945-8.801-8.791c0-4.854,3.95-8.801,8.801-8.801   c4.851,0,8.794,3.948,8.794,8.801C295.127,79.692,291.185,83.636,286.336,83.636z M286.336,70.972   c-2.135,0-3.873,1.738-3.873,3.873c0,2.132,1.738,3.866,3.873,3.866c2.132,0,3.866-1.733,3.866-3.866   C290.199,72.708,288.468,70.972,286.336,70.972z" data-original="#232E38" class="" data-old_color="#2c3843"/>
	<path style="fill:#2c3843" d="M288.325,57.299c-4.854,0-8.801-3.942-8.801-8.794s3.945-8.801,8.801-8.801   c4.846,0,8.791,3.95,8.791,8.801S293.171,57.299,288.325,57.299z M288.325,44.632c-2.138,0-3.876,1.741-3.876,3.873   s1.738,3.866,3.876,3.866c2.13,0,3.868-1.733,3.868-3.866S290.455,44.632,288.325,44.632z" data-original="#232E38" class="" data-old_color="#2c3843"/>
	<path style="fill:#2c3843" d="M340.974,38.665c-4.854,0-8.801-3.945-8.801-8.788c0-4.856,3.945-8.804,8.801-8.804   c4.846,0,8.788,3.948,8.788,8.804C349.763,34.72,345.82,38.665,340.974,38.665z M340.974,26.001c-2.14,0-3.878,1.738-3.878,3.876   c0,2.127,1.738,3.863,3.878,3.863c2.127,0,3.866-1.736,3.866-3.863C344.84,27.736,343.101,26.001,340.974,26.001z" data-original="#232E38" class="" data-old_color="#2c3843"/>
</g><rect x="147.021" y="132.169" style="fill:#FFFFFF;" width="247.475" height="247.475" data-original="#FFFFFF" class=""/><path style="fill:#2c3843" d="M394.496,382.115h-247.48c-1.359,0-2.463-1.103-2.463-2.463V132.169c0-1.359,1.103-2.463,2.463-2.463  h247.48c1.357,0,2.463,1.103,2.463,2.463v247.483C396.959,381.011,395.853,382.115,394.496,382.115z M149.478,377.184h242.555  V134.632H149.478V377.184z" data-original="#232E38" class="" data-old_color="#2c3843"/><g>
	<rect x="191.841" y="114.781" style="fill:#13d389" width="17.388" height="17.388" data-original="#FDCA5C" class="" data-old_color="#13d389"/>
	<rect x="226.97" y="114.781" style="fill:#13d389" width="17.385" height="17.388" data-original="#FDCA5C" class="" data-old_color="#13d389"/>
	<rect x="262.093" y="114.781" style="fill:#13d389" width="17.385" height="17.388" data-original="#FDCA5C" class="" data-old_color="#13d389"/>
	<rect x="297.216" y="114.781" style="fill:#13d389" width="17.385" height="17.388" data-original="#FDCA5C" class="" data-old_color="#13d389"/>
	<rect x="332.288" y="114.781" style="fill:#13d389" width="17.385" height="17.388" data-original="#FDCA5C" class="" data-old_color="#13d389"/>
	<rect x="191.841" y="379.649" style="fill:#13d389" width="17.388" height="17.385" data-original="#FDCA5C" class="" data-old_color="#13d389"/>
	<rect x="226.97" y="379.649" style="fill:#13d389" width="17.385" height="17.385" data-original="#FDCA5C" class="" data-old_color="#13d389"/>
	<rect x="262.093" y="379.649" style="fill:#13d389" width="17.385" height="17.385" data-original="#FDCA5C" class="" data-old_color="#13d389"/>
	<rect x="297.216" y="379.649" style="fill:#13d389" width="17.385" height="17.385" data-original="#FDCA5C" class="" data-old_color="#13d389"/>
	<rect x="332.288" y="379.649" style="fill:#13d389" width="17.385" height="17.385" data-original="#FDCA5C" class="" data-old_color="#13d389"/>
	<rect x="129.631" y="177.179" style="fill:#13d389" width="17.388" height="17.385" data-original="#FDCA5C" class="" data-old_color="#13d389"/>
	<rect x="129.631" y="212.317" style="fill:#13d389" width="17.388" height="17.385" data-original="#FDCA5C" class="" data-old_color="#13d389"/>
	<rect x="129.631" y="247.451" style="fill:#13d389" width="17.388" height="17.388" data-original="#FDCA5C" class="" data-old_color="#13d389"/>
	<rect x="129.631" y="282.574" style="fill:#13d389" width="17.388" height="17.385" data-original="#FDCA5C" class="" data-old_color="#13d389"/>
	<rect x="129.631" y="317.62" style="fill:#13d389" width="17.388" height="17.385" data-original="#FDCA5C" class="" data-old_color="#13d389"/>
	<rect x="394.496" y="177.179" style="fill:#13d389" width="17.385" height="17.385" data-original="#FDCA5C" class="" data-old_color="#13d389"/>
	<rect x="394.496" y="212.317" style="fill:#13d389" width="17.385" height="17.385" data-original="#FDCA5C" class="" data-old_color="#13d389"/>
	<rect x="394.496" y="247.451" style="fill:#13d389" width="17.385" height="17.388" data-original="#FDCA5C" class="" data-old_color="#13d389"/>
	<rect x="394.496" y="282.574" style="fill:#13d389" width="17.385" height="17.385" data-original="#FDCA5C" class="" data-old_color="#13d389"/>
	<rect x="394.496" y="317.62" style="fill:#13d389" width="17.385" height="17.385" data-original="#FDCA5C" class="" data-old_color="#13d389"/>
</g><g>
	<path style="fill:#2c3843" d="M209.226,134.445h-17.388c-1.254,0-2.273-1.019-2.273-2.276v-17.388   c0-1.252,1.019-2.271,2.273-2.271h17.388c1.254,0,2.273,1.019,2.273,2.271v17.388C211.5,133.426,210.481,134.445,209.226,134.445z    M194.115,129.896h12.838v-12.838h-12.838V129.896z" data-original="#232E38" class="" data-old_color="#2c3843"/>
	<path style="fill:#2c3843" d="M244.349,134.445h-17.385c-1.254,0-2.273-1.019-2.273-2.276v-17.388   c0-1.252,1.019-2.271,2.273-2.271h17.385c1.257,0,2.276,1.019,2.276,2.271v17.388C246.623,133.426,245.604,134.445,244.349,134.445   z M229.238,129.896h12.838v-12.838h-12.838V129.896z" data-original="#232E38" class="" data-old_color="#2c3843"/>
	<path style="fill:#2c3843" d="M279.475,134.445H262.09c-1.257,0-2.276-1.019-2.276-2.276v-17.388c0-1.252,1.016-2.271,2.276-2.271   h17.385c1.257,0,2.276,1.019,2.276,2.271v17.388C281.751,133.426,280.732,134.445,279.475,134.445z M264.366,129.896h12.836   v-12.838h-12.836V129.896z" data-original="#232E38" class="" data-old_color="#2c3843"/>
	<path style="fill:#2c3843" d="M314.598,134.445h-17.385c-1.252,0-2.271-1.019-2.271-2.276v-17.388   c0-1.252,1.016-2.271,2.271-2.271h17.385c1.254,0,2.276,1.019,2.276,2.271v17.388C316.872,133.426,315.853,134.445,314.598,134.445   z M299.487,129.896h12.841v-12.838h-12.841V129.896z" data-original="#232E38" class="" data-old_color="#2c3843"/>
	<path style="fill:#2c3843" d="M349.663,134.445h-17.385c-1.257,0-2.276-1.019-2.276-2.276v-17.388   c0-1.252,1.016-2.271,2.276-2.271h17.385c1.254,0,2.276,1.019,2.276,2.271v17.388C351.939,133.426,350.917,134.445,349.663,134.445   z M334.554,129.896h12.836v-12.838h-12.836V129.896z" data-original="#232E38" class="" data-old_color="#2c3843"/>
	<path style="fill:#2c3843" d="M209.226,399.308h-17.388c-1.254,0-2.273-1.016-2.273-2.271v-17.385   c0-1.254,1.019-2.276,2.273-2.276h17.388c1.254,0,2.273,1.019,2.273,2.276v17.385C211.5,398.289,210.481,399.308,209.226,399.308z    M194.115,394.761h12.838V381.92h-12.838V394.761z" data-original="#232E38" class="" data-old_color="#2c3843"/>
	<path style="fill:#2c3843" d="M244.349,399.308h-17.385c-1.254,0-2.273-1.016-2.273-2.271v-17.385   c0-1.254,1.019-2.276,2.273-2.276h17.385c1.257,0,2.276,1.019,2.276,2.276v17.385C246.623,398.289,245.604,399.308,244.349,399.308   z M229.238,394.761h12.838V381.92h-12.838V394.761z" data-original="#232E38" class="" data-old_color="#2c3843"/>
	<path style="fill:#2c3843" d="M279.475,399.308H262.09c-1.257,0-2.276-1.016-2.276-2.271v-17.385c0-1.254,1.016-2.276,2.276-2.276   h17.385c1.257,0,2.276,1.019,2.276,2.276v17.385C281.751,398.289,280.732,399.308,279.475,399.308z M264.366,394.761h12.836V381.92   h-12.836V394.761z" data-original="#232E38" class="" data-old_color="#2c3843"/>
	<path style="fill:#2c3843" d="M314.598,399.308h-17.385c-1.252,0-2.271-1.016-2.271-2.271v-17.385   c0-1.254,1.016-2.276,2.271-2.276h17.385c1.254,0,2.276,1.019,2.276,2.276v17.385C316.872,398.289,315.853,399.308,314.598,399.308   z M299.487,394.761h12.841V381.92h-12.841V394.761z" data-original="#232E38" class="" data-old_color="#2c3843"/>
	<path style="fill:#2c3843" d="M349.663,399.308h-17.385c-1.257,0-2.276-1.016-2.276-2.271v-17.385   c0-1.254,1.016-2.276,2.276-2.276h17.385c1.254,0,2.276,1.019,2.276,2.276v17.385C351.939,398.289,350.917,399.308,349.663,399.308   z M334.554,394.761h12.836V381.92h-12.836V394.761z" data-original="#232E38" class="" data-old_color="#2c3843"/>
	<path style="fill:#2c3843" d="M147.016,196.85h-17.388c-1.254,0-2.273-1.019-2.273-2.276v-17.385c0-1.254,1.019-2.273,2.273-2.273   h17.388c1.254,0,2.273,1.019,2.273,2.273v17.385C149.289,195.831,148.27,196.85,147.016,196.85z M131.904,192.301h12.838v-12.838   h-12.838V192.301z" data-original="#232E38" class="" data-old_color="#2c3843"/>
	<path style="fill:#2c3843" d="M147.016,231.973h-17.388c-1.254,0-2.273-1.019-2.273-2.273v-17.385   c0-1.257,1.019-2.276,2.273-2.276h17.388c1.254,0,2.273,1.019,2.273,2.276V229.7C149.289,230.954,148.27,231.973,147.016,231.973z    M131.904,227.427h12.838v-12.838h-12.838V227.427z" data-original="#232E38" class="" data-old_color="#2c3843"/>
	<path style="fill:#2c3843" d="M147.016,267.099h-17.388c-1.254,0-2.273-1.016-2.273-2.276v-17.388   c0-1.254,1.019-2.273,2.273-2.273h17.388c1.254,0,2.273,1.019,2.273,2.273v17.388C149.289,266.083,148.27,267.099,147.016,267.099z    M131.904,262.55h12.838v-12.836h-12.838V262.55z" data-original="#232E38" class="" data-old_color="#2c3843"/>
	<path style="fill:#2c3843" d="M147.016,302.222h-17.388c-1.254,0-2.273-1.019-2.273-2.271v-17.385   c0-1.257,1.019-2.276,2.273-2.276h17.388c1.254,0,2.273,1.016,2.273,2.276v17.385C149.289,301.201,148.27,302.222,147.016,302.222z    M131.904,297.676h12.838v-12.841h-12.838V297.676z" data-original="#232E38" class="" data-old_color="#2c3843"/>
	<path style="fill:#2c3843" d="M147.016,337.286h-17.388c-1.254,0-2.273-1.019-2.273-2.276v-17.385   c0-1.257,1.019-2.276,2.273-2.276h17.388c1.254,0,2.273,1.016,2.273,2.276v17.385C149.289,336.268,148.27,337.286,147.016,337.286z    M131.904,332.737h12.838v-12.836h-12.838V332.737z" data-original="#232E38" class="" data-old_color="#2c3843"/>
	<path style="fill:#2c3843" d="M411.881,196.85h-17.385c-1.257,0-2.276-1.019-2.276-2.276v-17.385c0-1.254,1.016-2.273,2.276-2.273   h17.385c1.257,0,2.276,1.019,2.276,2.273v17.385C414.154,195.831,413.138,196.85,411.881,196.85z M396.769,192.301h12.836v-12.838   h-12.836V192.301z" data-original="#232E38" class="" data-old_color="#2c3843"/>
	<path style="fill:#2c3843" d="M411.881,231.973h-17.385c-1.257,0-2.276-1.019-2.276-2.273v-17.385   c0-1.257,1.016-2.276,2.276-2.276h17.385c1.257,0,2.276,1.019,2.276,2.276V229.7C414.154,230.954,413.138,231.973,411.881,231.973z    M396.769,227.427h12.836v-12.838h-12.836V227.427z" data-original="#232E38" class="" data-old_color="#2c3843"/>
	<path style="fill:#2c3843" d="M411.881,267.099h-17.385c-1.257,0-2.276-1.016-2.276-2.276v-17.388   c0-1.254,1.016-2.273,2.276-2.273h17.385c1.257,0,2.276,1.019,2.276,2.273v17.388C414.154,266.083,413.138,267.099,411.881,267.099   z M396.769,262.55h12.836v-12.836h-12.836V262.55z" data-original="#232E38" class="" data-old_color="#2c3843"/>
	<path style="fill:#2c3843" d="M411.881,302.222h-17.385c-1.257,0-2.276-1.019-2.276-2.271v-17.385   c0-1.257,1.016-2.276,2.276-2.276h17.385c1.257,0,2.276,1.016,2.276,2.276v17.385C414.154,301.201,413.138,302.222,411.881,302.222   z M396.769,297.676h12.836v-12.841h-12.836V297.676z" data-original="#232E38" class="" data-old_color="#2c3843"/>
	<path style="fill:#2c3843" d="M411.881,337.286h-17.385c-1.257,0-2.276-1.019-2.276-2.276v-17.385   c0-1.257,1.016-2.276,2.276-2.276h17.385c1.257,0,2.276,1.016,2.276,2.276v17.385C414.154,336.268,413.138,337.286,411.881,337.286   z M396.769,332.737h12.836v-12.836h-12.836V332.737z" data-original="#232E38" class="" data-old_color="#2c3843"/>
</g><rect x="191.078" y="176.227" style="fill:#9c9c9c" width="159.36" height="159.36" data-original="#92DEEB" class="active-path" data-old_color="#9c9c9c"/><g>
	<circle style="fill:#2c3843" cx="208.845" cy="193.998" r="4.347" data-original="#232E38" class="" data-old_color="#2c3843"/>
	<circle style="fill:#2c3843" cx="229.478" cy="193.998" r="4.347" data-original="#232E38" class="" data-old_color="#2c3843"/>
	<circle style="fill:#2c3843" cx="250.112" cy="193.998" r="4.347" data-original="#232E38" class="" data-old_color="#2c3843"/>
	<circle style="fill:#2c3843" cx="270.746" cy="193.998" r="4.347" data-original="#232E38" class="" data-old_color="#2c3843"/>
	<circle style="fill:#2c3843" cx="291.405" cy="193.998" r="4.347" data-original="#232E38" class="" data-old_color="#2c3843"/>
	<circle style="fill:#2c3843" cx="312.038" cy="193.998" r="4.347" data-original="#232E38" class="" data-old_color="#2c3843"/>
	<path style="fill:#2c3843" d="M332.667,198.345c-2.401,0-4.347-1.948-4.347-4.347c0-2.396,1.948-4.347,4.347-4.347   c2.394,0,4.344,1.951,4.344,4.347C337.014,196.397,335.06,198.345,332.667,198.345z" data-original="#232E38" class="" data-old_color="#2c3843"/>
	<circle style="fill:#2c3843" cx="208.845" cy="214.632" r="4.347" data-original="#232E38" class="" data-old_color="#2c3843"/>
	<circle style="fill:#2c3843" cx="229.478" cy="214.632" r="4.347" data-original="#232E38" class="" data-old_color="#2c3843"/>
	<circle style="fill:#2c3843" cx="250.112" cy="214.632" r="4.347" data-original="#232E38" class="" data-old_color="#2c3843"/>
	<circle style="fill:#2c3843" cx="270.746" cy="214.632" r="4.347" data-original="#232E38" class="" data-old_color="#2c3843"/>
	<circle style="fill:#2c3843" cx="291.405" cy="214.632" r="4.347" data-original="#232E38" class="" data-old_color="#2c3843"/>
	<circle style="fill:#2c3843" cx="312.038" cy="214.632" r="4.347" data-original="#232E38" class="" data-old_color="#2c3843"/>
	<path style="fill:#2c3843" d="M332.667,218.984c-2.401,0-4.347-1.951-4.347-4.347c0-2.399,1.948-4.347,4.347-4.347   c2.394,0,4.344,1.948,4.344,4.347C337.014,217.033,335.06,218.984,332.667,218.984z" data-original="#232E38" class="" data-old_color="#2c3843"/>
	<circle style="fill:#2c3843" cx="208.845" cy="235.265" r="4.347" data-original="#232E38" class="" data-old_color="#2c3843"/>
	<circle style="fill:#2c3843" cx="229.478" cy="235.265" r="4.347" data-original="#232E38" class="" data-old_color="#2c3843"/>
	<circle style="fill:#2c3843" cx="250.112" cy="235.265" r="4.347" data-original="#232E38" class="" data-old_color="#2c3843"/>
	<circle style="fill:#2c3843" cx="270.746" cy="235.265" r="4.347" data-original="#232E38" class="" data-old_color="#2c3843"/>
	<circle style="fill:#2c3843" cx="291.405" cy="235.265" r="4.347" data-original="#232E38" class="" data-old_color="#2c3843"/>
	<circle style="fill:#2c3843" cx="312.038" cy="235.265" r="4.347" data-original="#232E38" class="" data-old_color="#2c3843"/>
	<path style="fill:#2c3843" d="M332.667,239.62c-2.401,0-4.347-1.948-4.347-4.347c0-2.396,1.948-4.347,4.347-4.347   c2.394,0,4.344,1.951,4.344,4.347C337.014,237.669,335.06,239.62,332.667,239.62z" data-original="#232E38" class="" data-old_color="#2c3843"/>
	<circle style="fill:#2c3843" cx="208.845" cy="255.899" r="4.347" data-original="#232E38" class="" data-old_color="#2c3843"/>
	<circle style="fill:#2c3843" cx="229.478" cy="255.899" r="4.347" data-original="#232E38" class="" data-old_color="#2c3843"/>
	<circle style="fill:#2c3843" cx="250.112" cy="255.899" r="4.347" data-original="#232E38" class="" data-old_color="#2c3843"/>
	<circle style="fill:#2c3843" cx="270.746" cy="255.899" r="4.347" data-original="#232E38" class="" data-old_color="#2c3843"/>
	<circle style="fill:#2c3843" cx="291.405" cy="255.899" r="4.347" data-original="#232E38" class="" data-old_color="#2c3843"/>
	<circle style="fill:#2c3843" cx="312.038" cy="255.899" r="4.347" data-original="#232E38" class="" data-old_color="#2c3843"/>
	<path style="fill:#2c3843" d="M332.667,260.256c-2.401,0-4.347-1.951-4.347-4.347c0-2.396,1.948-4.347,4.347-4.347   c2.394,0,4.344,1.951,4.344,4.347C337.014,258.305,335.06,260.256,332.667,260.256z" data-original="#232E38" class="" data-old_color="#2c3843"/>
	<path style="fill:#2c3843" d="M208.845,280.892c-2.396,0-4.347-1.948-4.347-4.347c0-2.394,1.951-4.344,4.347-4.344   c2.399,0,4.347,1.953,4.347,4.344C213.192,278.944,211.244,280.892,208.845,280.892z" data-original="#232E38" class="" data-old_color="#2c3843"/>
	<path style="fill:#2c3843" d="M229.484,280.892c-2.399,0-4.347-1.948-4.347-4.347c0-2.394,1.951-4.344,4.347-4.344   c2.396,0,4.347,1.953,4.347,4.344C233.828,278.944,231.88,280.892,229.484,280.892z" data-original="#232E38" class="" data-old_color="#2c3843"/>
	<path style="fill:#2c3843" d="M250.12,280.892c-2.396,0-4.347-1.948-4.347-4.347c0-2.394,1.951-4.344,4.347-4.344   c2.396,0,4.347,1.953,4.347,4.344C254.464,278.944,252.516,280.892,250.12,280.892z" data-original="#232E38" class="" data-old_color="#2c3843"/>
	<path style="fill:#2c3843" d="M270.756,280.892c-2.396,0-4.347-1.948-4.347-4.347c0-2.394,1.953-4.344,4.347-4.344   c2.399,0,4.344,1.953,4.344,4.344C275.1,278.944,273.152,280.892,270.756,280.892z" data-original="#232E38" class="" data-old_color="#2c3843"/>
	<path style="fill:#2c3843" d="M291.392,280.892c-2.399,0-4.344-1.948-4.344-4.347c0-2.394,1.948-4.344,4.344-4.344   c2.396,0,4.347,1.953,4.347,4.344C295.739,278.944,293.788,280.892,291.392,280.892z" data-original="#232E38" class="" data-old_color="#2c3843"/>
	<path style="fill:#2c3843" d="M312.028,280.892c-2.396,0-4.347-1.948-4.347-4.347c0-2.394,1.953-4.344,4.347-4.344   c2.401,0,4.344,1.953,4.344,4.344C316.372,278.944,314.427,280.892,312.028,280.892z" data-original="#232E38" class="" data-old_color="#2c3843"/>
	<path style="fill:#2c3843" d="M332.667,280.892c-2.401,0-4.347-1.948-4.347-4.347c0-2.394,1.948-4.344,4.347-4.344   c2.394,0,4.344,1.953,4.344,4.344C337.014,278.944,335.06,280.892,332.667,280.892z" data-original="#232E38" class="" data-old_color="#2c3843"/>
	<circle style="fill:#2c3843" cx="208.845" cy="297.192" r="4.347" data-original="#232E38" class="" data-old_color="#2c3843"/>
	<circle style="fill:#2c3843" cx="229.478" cy="297.192" r="4.347" data-original="#232E38" class="" data-old_color="#2c3843"/>
	<circle style="fill:#2c3843" cx="250.112" cy="297.192" r="4.347" data-original="#232E38" class="" data-old_color="#2c3843"/>
	<circle style="fill:#2c3843" cx="270.746" cy="297.192" r="4.347" data-original="#232E38" class="" data-old_color="#2c3843"/>
	<circle style="fill:#2c3843" cx="291.405" cy="297.192" r="4.347" data-original="#232E38" class="" data-old_color="#2c3843"/>
	<circle style="fill:#2c3843" cx="312.038" cy="297.192" r="4.347" data-original="#232E38" class="" data-old_color="#2c3843"/>
	<path style="fill:#2c3843" d="M332.667,301.531c-2.401,0-4.347-1.953-4.347-4.347c0-2.401,1.948-4.344,4.347-4.344   c2.394,0,4.344,1.946,4.344,4.344C337.014,299.578,335.06,301.531,332.667,301.531z" data-original="#232E38" class="" data-old_color="#2c3843"/>
	<circle style="fill:#2c3843" cx="208.845" cy="317.825" r="4.347" data-original="#232E38" class="" data-old_color="#2c3843"/>
	<circle style="fill:#2c3843" cx="229.478" cy="317.825" r="4.347" data-original="#232E38" class="" data-old_color="#2c3843"/>
	<circle style="fill:#2c3843" cx="250.112" cy="317.825" r="4.347" data-original="#232E38" class="" data-old_color="#2c3843"/>
	<circle style="fill:#2c3843" cx="270.746" cy="317.825" r="4.347" data-original="#232E38" class="" data-old_color="#2c3843"/>
	<circle style="fill:#2c3843" cx="291.405" cy="317.825" r="4.347" data-original="#232E38" class="" data-old_color="#2c3843"/>
	<circle style="fill:#2c3843" cx="312.038" cy="317.825" r="4.347" data-original="#232E38" class="" data-old_color="#2c3843"/>
	<path style="fill:#2c3843" d="M332.667,322.164c-2.401,0-4.347-1.946-4.347-4.344c0-2.396,1.948-4.347,4.347-4.347   c2.394,0,4.344,1.953,4.344,4.347C337.014,320.219,335.06,322.164,332.667,322.164z" data-original="#232E38" class="" data-old_color="#2c3843"/>
	<path style="fill:#2c3843" d="M350.438,338.057H191.073c-1.359,0-2.463-1.106-2.463-2.463V176.227   c0-1.359,1.103-2.463,2.463-2.463h159.365c1.357,0,2.463,1.103,2.463,2.463v159.368   C352.901,336.951,351.795,338.057,350.438,338.057z M193.536,333.132h154.44V178.687h-154.44V333.132z" data-original="#232E38" class="" data-old_color="#2c3843"/>
</g></g> </svg>
