<svg id="Ebene_1" data-name="Ebene 1" xmlns="http://www.w3.org/2000/svg" viewBox="0 0 90 90"><defs><style>.cls-1,.cls-2{fill:none;stroke-linejoin:round;stroke-width:3px;}.cls-1{stroke:#9c9c9c;stroke-linecap:round;}.cls-2{stroke:#13d389;}</style></defs><title>icon</title><path class="cls-1" d="M82.52,66.33a5,5,0,0,1-4.89,5.19H12.37a5,5,0,0,1-4.89-5.19V18a5,5,0,0,1,4.89-5.18H77.63A5,5,0,0,1,82.52,18Z"/><line class="cls-1" x1="22.16" y1="78.04" x2="67.84" y2="78.04"/><line class="cls-1" x1="43.37" y1="71.51" x2="43.37" y2="78.04"/><circle class="cls-1" cx="45" cy="64.99" r="1.63"/><line class="cls-1" x1="7.48" y1="58.46" x2="82.52" y2="58.46"/><rect class="cls-1" x="27.05" y="38.89" width="9.79" height="13.05"/><rect class="cls-1" x="43.37" y="29.1" width="9.79" height="22.84"/><rect class="cls-2" x="59.68" y="22.57" width="9.79" height="29.37"/><line class="cls-1" x1="20.53" y1="20.94" x2="20.53" y2="53.57"/></svg>