<?xml version="1.0"?>
<svg xmlns="http://www.w3.org/2000/svg" xmlns:xlink="http://www.w3.org/1999/xlink" version="1.1" id="Capa_1" x="0px" y="0px" viewBox="0 0 512 512" style="enable-background:new 0 0 512 512;" xml:space="preserve" width="512px" height="512px" class=""><g><g>
	<rect x="384" y="88" style="fill:#2c3843" width="16" height="16" data-original="#403E3E" class="" data-old_color="#2c3843"/>
	<rect x="384" y="56" style="fill:#2c3843" width="16" height="16" data-original="#403E3E" class="" data-old_color="#2c3843"/>
	<rect x="384" y="24" style="fill:#2c3843" width="16" height="16" data-original="#403E3E" class="" data-old_color="#2c3843"/>
	<rect x="112" y="408" style="fill:#2c3843" width="16" height="16" data-original="#403E3E" class="" data-old_color="#2c3843"/>
	<rect x="112" y="440" style="fill:#2c3843" width="16" height="16" data-original="#403E3E" class="" data-old_color="#2c3843"/>
	<rect x="112" y="472" style="fill:#2c3843" width="16" height="16" data-original="#403E3E" class="" data-old_color="#2c3843"/>
	<rect x="32" y="56" style="fill:#2c3843" width="16" height="16" data-original="#403E3E" class="" data-old_color="#2c3843"/>
	<rect x="192" y="56" style="fill:#2c3843" width="16" height="16" data-original="#403E3E" class="" data-old_color="#2c3843"/>
	<rect x="32" y="312" style="fill:#2c3843" width="16" height="16" data-original="#403E3E" class="" data-old_color="#2c3843"/>
	<rect x="192" y="312" style="fill:#2c3843" width="16" height="16" data-original="#403E3E" class="" data-old_color="#2c3843"/>
	<path style="fill:#2c3843" d="M120,216c-13.232,0-24-10.768-24-24s10.768-24,24-24s24,10.768,24,24S133.232,216,120,216z M120,184   c-4.408,0-8,3.592-8,8s3.592,8,8,8s8-3.592,8-8S124.408,184,120,184z" data-original="#403E3E" class="" data-old_color="#2c3843"/>
</g><path style="fill:#13d389" d="M176,192h-16c0-22.056-17.944-40-40-40v-16C150.88,136,176,161.12,176,192z" data-original="#F96232" class="" data-old_color="#13d389"/><path style="fill:#2c3843" d="M216,360H24c-6.264,0-12.248-2.528-16.848-7.136C2.536,348.248,0,342.256,0,336V48  c0-6.264,2.536-12.248,7.144-16.856S17.736,24,24,24h192c6.264,0,12.248,2.536,16.856,7.144S240,41.736,240,48v288  c0,6.256-2.536,12.248-7.144,16.856C228.248,357.472,222.264,360,216,360z M24,40c-2.016,0-3.936,0.848-5.544,2.456  C16.848,44.064,16,45.984,16,48v288c0,2.016,0.848,3.936,2.464,5.544c1.6,1.608,3.52,2.456,5.536,2.456h192  c2.016,0,3.936-0.848,5.544-2.464c1.608-1.6,2.456-3.52,2.456-5.536V48c0-2.016-0.848-3.936-2.456-5.544  C219.936,40.848,218.016,40,216,40H24z" data-original="#403E3E" class="" data-old_color="#2c3843"/><path style="fill:#13d389" d="M120,280c-48.52,0-88-39.48-88-88s39.48-88,88-88s88,39.48,88,88S168.52,280,120,280z M120,120  c-39.696,0-72,32.304-72,72s32.304,72,72,72s72-32.304,72-72S159.696,120,120,120z" data-original="#F96232" class="" data-old_color="#13d389"/><g>
	<path style="fill:#2c3843" d="M64,296H32v-16h28.688l53.656-53.656l11.312,11.312l-56,56C68.16,295.16,66.12,296,64,296z" data-original="#403E3E" class="" data-old_color="#2c3843"/>
	<rect x="304" y="184" style="fill:#2c3843" width="16" height="16" data-original="#403E3E" class="" data-old_color="#2c3843"/>
	<rect x="464" y="184" style="fill:#2c3843" width="16" height="16" data-original="#403E3E" class="" data-old_color="#2c3843"/>
	<rect x="304" y="440" style="fill:#2c3843" width="16" height="16" data-original="#403E3E" class="" data-old_color="#2c3843"/>
	<rect x="464" y="440" style="fill:#2c3843" width="16" height="16" data-original="#403E3E" class="" data-old_color="#2c3843"/>
	<path style="fill:#2c3843" d="M392,344c-13.232,0-24-10.768-24-24s10.768-24,24-24s24,10.768,24,24S405.232,344,392,344z M392,312   c-4.416,0-8,3.584-8,8s3.584,8,8,8s8-3.584,8-8S396.416,312,392,312z" data-original="#403E3E" class="" data-old_color="#2c3843"/>
</g><path style="fill:#9c9c9c" d="M448,320h-16c0-22.056-17.944-40-40-40v-16C422.872,264,448,289.128,448,320z" data-original="#43D3E8" class="active-path" data-old_color="#9c9c9c"/><path style="fill:#2c3843" d="M488,488H296c-6.256,0-12.24-2.528-16.848-7.136C274.528,476.24,272,470.256,272,464V176  c0-6.264,2.528-12.248,7.136-16.848C283.752,154.536,289.744,152,296,152h192c6.256,0,12.248,2.536,16.856,7.144  C509.472,163.752,512,169.736,512,176v288c0,6.256-2.528,12.24-7.136,16.848C500.24,485.472,494.256,488,488,488z M296,168  c-2.016,0-3.936,0.848-5.544,2.464c-1.608,1.6-2.456,3.52-2.456,5.536v288c0,2.016,0.848,3.936,2.464,5.552  c1.6,1.6,3.52,2.448,5.536,2.448h192c2.016,0,3.936-0.848,5.552-2.464c1.6-1.6,2.448-3.52,2.448-5.536V176  c0-2.016-0.848-3.936-2.464-5.544c-1.6-1.608-3.52-2.456-5.536-2.456H296z" data-original="#403E3E" class="" data-old_color="#2c3843"/><path style="fill:#9c9c9c" d="M392,408c-48.52,0-88-39.48-88-88s39.48-88,88-88s88,39.48,88,88S440.52,408,392,408z M392,248  c-39.704,0-72,32.296-72,72s32.296,72,72,72s72-32.296,72-72S431.704,248,392,248z" data-original="#43D3E8" class="active-path" data-old_color="#9c9c9c"/><path style="fill:#2c3843" d="M336,424h-32v-16h28.688l53.656-53.656l11.312,11.312l-56,56C340.16,423.16,338.128,424,336,424z" data-original="#403E3E" class="" data-old_color="#2c3843"/></g> </svg>
