<?xml version="1.0"?>
<svg xmlns="http://www.w3.org/2000/svg" xmlns:xlink="http://www.w3.org/1999/xlink" version="1.1" id="Layer_1" x="0px" y="0px" viewBox="0 0 512 512" style="enable-background:new 0 0 512 512;" xml:space="preserve" width="512px" height="512px" class=""><g><circle style="fill:#9c9c9c" cx="214.629" cy="105.216" r="10.127" data-original="#92DEEB" class="active-path" data-old_color="#9c9c9c"/><circle style="fill:#13d389" cx="23.643" cy="210.278" r="11.817" data-original="#FDCA5C" class="" data-old_color="#13d389"/><g>
	<circle style="fill:#FFFFFF;" cx="98.584" cy="252.237" r="7.596" data-original="#FFFFFF" class=""/>
	<circle style="fill:#FFFFFF;" cx="247.551" cy="19.274" r="16.881" data-original="#FFFFFF" class=""/>
</g><circle style="fill:#9c9c9c" cx="478.232" cy="267.418" r="21.942" data-original="#92DEEB" class="active-path" data-old_color="#9c9c9c"/><path style="fill:#2c3843" d="M236.584,464.317c-12.877,0-23.352-10.478-23.352-23.352c0-12.874,10.476-23.352,23.352-23.352  c12.874,0,23.352,10.478,23.352,23.352C259.936,453.839,249.458,464.317,236.584,464.317z M236.584,420.429  c-11.323,0-20.534,9.216-20.534,20.534c0,11.318,9.211,20.534,20.534,20.534s20.534-9.216,20.534-20.534  C257.117,429.645,247.907,420.429,236.584,420.429z" data-original="#232E38" class="" data-old_color="#2c3843"/><path style="fill:#2c3843" d="M222.245,153.49c-46.61,0-84.393,37.78-84.393,84.393s37.783,84.393,84.393,84.393  c46.615,0,84.398-37.78,84.398-84.393S268.86,153.49,222.245,153.49z M222.245,280.077c-23.304,0-42.189-18.888-42.189-42.194  c0-23.306,18.888-42.196,42.189-42.196c23.306,0,42.202,18.89,42.202,42.196S245.551,280.077,222.245,280.077z" data-original="#F77B55" class="" data-old_color="#2c3843"/><circle style="fill:#FFFFFF;" cx="425.343" cy="440.96" r="68.641" data-original="#FFFFFF" class=""/><circle style="fill:#2c3843" cx="98.582" cy="361.549" r="43.597" data-original="#F77B55" class="" data-old_color="#2c3843"/><circle style="fill:#13d389" cx="378.418" cy="81.725" r="54.016" data-original="#FDCA5C" class="" data-old_color="#13d389"/><circle style="fill:#FFFFFF;" cx="115.89" cy="131.533" r="26.301" data-original="#FFFFFF" class=""/><path style="fill:#13d389" d="M372.041,237.883c0,9.672-7.836,17.513-17.505,17.513c-9.677,0-17.513-7.841-17.513-17.513  c0-9.669,7.836-17.51,17.513-17.51C364.207,220.372,372.041,228.214,372.041,237.883z" data-original="#FDCA5C" class="" data-old_color="#13d389"/><g>
	<path style="fill:#2c3843" d="M214.639,117.75c-6.904,0-12.521-5.617-12.521-12.521c0-6.904,5.617-12.524,12.521-12.524   c6.904,0,12.521,5.619,12.521,12.524C227.16,112.133,221.544,117.75,214.639,117.75z M214.639,97.495   c-4.262,0-7.734,3.469-7.734,7.734s3.469,7.731,7.734,7.731s7.734-3.466,7.734-7.731S218.902,97.495,214.639,97.495z" data-original="#232E38" class="" data-old_color="#2c3843"/>
	<path style="fill:#2c3843" d="M23.643,224.494c-7.839,0-14.211-6.374-14.211-14.211c0-7.834,6.372-14.211,14.211-14.211   c7.836,0,14.211,6.377,14.211,14.211C37.853,218.122,31.479,224.494,23.643,224.494z M23.643,200.865   c-5.197,0-9.423,4.227-9.423,9.418c0,5.197,4.227,9.421,9.423,9.421c5.194,0,9.423-4.224,9.423-9.421   C33.066,205.092,28.837,200.865,23.643,200.865z" data-original="#232E38" class="" data-old_color="#2c3843"/>
	<path style="fill:#2c3843" d="M98.584,262.223c-5.509,0-9.989-4.483-9.989-9.992c0-5.509,4.48-9.989,9.989-9.989   c5.509,0,9.989,4.48,9.989,9.989C108.573,257.741,104.093,262.223,98.584,262.223z M98.584,247.032   c-2.867,0-5.202,2.33-5.202,5.197s2.335,5.202,5.202,5.202c2.867,0,5.202-2.335,5.202-5.202S101.452,247.032,98.584,247.032z" data-original="#232E38" class="" data-old_color="#2c3843"/>
	<path style="fill:#2c3843" d="M247.551,38.548c-10.627,0-19.274-8.645-19.274-19.274S236.924,0,247.551,0   c10.627,0,19.272,8.645,19.272,19.274S258.18,38.548,247.551,38.548z M247.551,4.792c-7.987,0-14.487,6.497-14.487,14.482   s6.5,14.482,14.487,14.482c7.985,0,14.484-6.497,14.484-14.482C262.035,11.287,255.535,4.792,247.551,4.792z" data-original="#232E38" class="" data-old_color="#2c3843"/>
</g><circle style="fill:#2c3843" cx="478.232" cy="267.418" r="21.942" data-original="#F77B55" class="" data-old_color="#2c3843"/><g>
	<path style="fill:#2c3843" d="M478.23,291.761c-13.42,0-24.338-10.918-24.338-24.338c0-13.42,10.918-24.34,24.338-24.34   c13.42,0,24.338,10.921,24.338,24.34S491.649,291.761,478.23,291.761z M478.23,247.877c-10.78,0-19.551,8.768-19.551,19.546   c0,10.78,8.771,19.548,19.551,19.548c10.778,0,19.548-8.768,19.548-19.548C497.775,256.643,489.007,247.877,478.23,247.877z" data-original="#232E38" class="" data-old_color="#2c3843"/>
	<path style="fill:#2c3843" d="M236.584,465.303c-13.422,0-24.338-10.918-24.338-24.338c0-13.417,10.916-24.338,24.338-24.338   c13.42,0,24.335,10.921,24.335,24.338C260.919,454.385,250.003,465.303,236.584,465.303z M236.584,421.42   c-10.778,0-19.548,8.771-19.548,19.546c0,10.78,8.771,19.551,19.548,19.551s19.548-8.771,19.548-19.551   C256.132,430.19,247.361,421.42,236.584,421.42z" data-original="#232E38" class="" data-old_color="#2c3843"/>
	<path style="fill:#2c3843" d="M222.245,324.669c-47.854,0-86.787-38.935-86.787-86.787c0-47.854,38.932-86.787,86.787-86.787   c47.857,0,86.792,38.932,86.792,86.787C309.037,285.734,270.102,324.669,222.245,324.669z M222.245,155.886   c-45.212,0-81.997,36.785-81.997,81.997s36.785,81.997,81.997,81.997c45.22,0,82.005-36.785,82.005-81.997   S267.465,155.886,222.245,155.886z M222.245,282.476c-24.586,0-44.585-20.001-44.585-44.593c0-24.586,20.001-44.59,44.585-44.59   c24.589,0,44.595,20.001,44.595,44.59S246.834,282.476,222.245,282.476z M222.245,198.083c-21.942,0-39.795,17.853-39.795,39.8   s17.853,39.803,39.795,39.803c21.949,0,39.808-17.856,39.808-39.803C262.053,215.936,244.195,198.083,222.245,198.083z" data-original="#232E38" class="" data-old_color="#2c3843"/>
	<path style="fill:#2c3843" d="M425.332,512c-39.171,0-71.035-31.864-71.035-71.035s31.864-71.035,71.035-71.035   s71.035,31.864,71.035,71.035S464.503,512,425.332,512z M425.332,374.723c-36.529,0-66.248,29.714-66.248,66.243   s29.719,66.248,66.248,66.248s66.248-29.719,66.248-66.248S461.861,374.723,425.332,374.723z" data-original="#232E38" class="" data-old_color="#2c3843"/>
	<path style="fill:#2c3843" d="M98.584,407.547c-25.364,0-45.998-20.641-45.998-46.001c0-25.364,20.636-45.998,45.998-45.998   c25.359,0,45.993,20.634,45.993,45.998C144.58,386.908,123.946,407.547,98.584,407.547z M98.584,320.34   c-22.725,0-41.211,18.483-41.211,41.208c0,22.723,18.486,41.206,41.211,41.206c22.72,0,41.206-18.483,41.206-41.206   C139.79,338.824,121.304,320.34,98.584,320.34z" data-original="#232E38" class="" data-old_color="#2c3843"/>
	<path style="fill:#2c3843" d="M378.408,138.13c-31.101,0-56.405-25.303-56.405-56.404c0-31.104,25.303-56.41,56.405-56.41   s56.402,25.306,56.402,56.41C434.812,112.827,409.512,138.13,378.408,138.13z M378.408,30.108c-28.46,0-51.617,23.155-51.617,51.62   c0,28.46,23.158,51.612,51.617,51.612s51.615-23.153,51.615-51.612C430.025,53.263,406.87,30.108,378.408,30.108z" data-original="#232E38" class="" data-old_color="#2c3843"/>
	<path style="fill:#2c3843" d="M115.898,160.228c-15.823,0-28.695-12.872-28.695-28.698c0-15.823,12.872-28.698,28.695-28.698   s28.695,12.874,28.695,28.698C144.595,147.356,131.724,160.228,115.898,160.228z M115.898,107.622   c-13.181,0-23.908,10.726-23.908,23.908c0,13.184,10.726,23.908,23.908,23.908s23.908-10.724,23.908-23.908   C139.805,118.349,129.079,107.622,115.898,107.622z" data-original="#232E38" class="" data-old_color="#2c3843"/>
	<path style="fill:#2c3843" d="M354.536,257.789c-10.977,0-19.907-8.927-19.907-19.907c0-10.975,8.929-19.904,19.907-19.904   c10.972,0,19.899,8.929,19.899,19.904C374.437,248.86,365.508,257.789,354.536,257.789z M354.536,222.769   c-8.338,0-15.119,6.781-15.119,15.114c0,8.338,6.781,15.117,15.119,15.117c8.333,0,15.112-6.779,15.112-15.117   C369.65,229.55,362.868,222.769,354.536,222.769z" data-original="#232E38" class="" data-old_color="#2c3843"/>
	<path style="fill:#2c3843" d="M376.823,394.857c-0.612,0-1.226-0.233-1.692-0.699l-94.897-94.904   c-0.934-0.934-0.934-2.452,0-3.387c0.929-0.934,2.455-0.934,3.384,0l94.897,94.904c0.937,0.934,0.937,2.45,0,3.387   C378.052,394.624,377.44,394.857,376.823,394.857z" data-original="#232E38" class="" data-old_color="#2c3843"/>
	<path style="fill:#2c3843" d="M162.582,180.611c-0.614,0-1.226-0.233-1.692-0.701l-28.101-28.104   c-0.937-0.937-0.937-2.452,0-3.387c0.929-0.937,2.452-0.937,3.384,0l28.101,28.104c0.937,0.934,0.937,2.452,0,3.387   C163.808,180.378,163.194,180.611,162.582,180.611z" data-original="#232E38" class="" data-old_color="#2c3843"/>
	<path style="fill:#2c3843" d="M281.926,180.603c-0.612,0-1.226-0.233-1.692-0.701c-0.934-0.934-0.934-2.452,0-3.387l58.332-58.332   c0.929-0.934,2.455-0.934,3.384,0c0.934,0.937,0.934,2.452,0,3.387l-58.332,58.332C283.153,180.37,282.538,180.603,281.926,180.603   z" data-original="#232E38" class="" data-old_color="#2c3843"/>
	<path style="fill:#2c3843" d="M337.023,240.279L337.023,240.279l-30.379-0.003c-1.326,0-2.396-1.073-2.396-2.394   s1.07-2.396,2.396-2.396l0,0h30.379c1.324,0,2.394,1.073,2.394,2.396C339.416,239.206,338.346,240.279,337.023,240.279z" data-original="#232E38" class="" data-old_color="#2c3843"/>
	<path style="fill:#2c3843" d="M129.417,333.11c-0.614,0-1.226-0.236-1.692-0.701c-0.937-0.937-0.937-2.45,0-3.384l33.155-33.157   c0.929-0.934,2.45-0.934,3.384,0c0.934,0.934,0.934,2.452,0,3.387l-33.155,33.155C130.643,332.874,130.029,333.11,129.417,333.11z" data-original="#232E38" class="" data-old_color="#2c3843"/>
</g></g> </svg>
