<?xml version="1.0"?>
<svg xmlns="http://www.w3.org/2000/svg" xmlns:xlink="http://www.w3.org/1999/xlink" version="1.1" id="Layer_1" x="0px" y="0px" viewBox="-30 -30 572 572" style="enable-background:new 0 0 512 512;" xml:space="preserve" width="512px" height="512px" class="">
	<g><polygon style="fill:#13d389" points="199.514,228.462 250.319,257.8 301.143,228.462 250.319,199.132 " data-original="#F77B55" class="active-path" data-old_color="#13d389"/><polygon style="fill:#FFFFFF;" points="250.319,257.8 250.319,316.472 199.514,287.13 199.514,228.47 " data-original="#FFFFFF" class=""/><polygon style="fill:#FFFFFF" points="301.143,228.47 301.143,287.13 250.319,316.472 250.319,257.8 " data-original="#92DEEB" class="" data-old_color="#ffffff"/>
		<g>
			<rect x="216.448" y="30.543" style="fill:#FFFFFF;" width="67.761" height="67.753" data-original="#FFFFFF" class=""/>
			<rect x="216.448" y="417.306" style="fill:#FFFFFF;" width="67.761" height="67.745" data-original="#FFFFFF" class=""/>
			<rect x="359.373" y="103.373" style="fill:#FFFFFF;" width="67.745" height="67.74" data-original="#FFFFFF" class=""/>
			<rect x="359.373" y="344.499" style="fill:#FFFFFF;" width="67.745" height="67.743" data-original="#FFFFFF" class=""/>
			<rect x="73.546" y="103.373" style="fill:#FFFFFF;" width="67.743" height="67.74" data-original="#FFFFFF" class=""/>
			<rect x="73.546" y="344.499" style="fill:#FFFFFF;" width="67.743" height="67.743" data-original="#FFFFFF" class=""/>
		</g>
		<g>
			<path
				style="fill:#2c3843"
				d="M250.319,260.111c-0.399,0-0.799-0.102-1.155-0.31l-50.808-29.343   c-0.717-0.412-1.155-1.172-1.155-1.999s0.44-1.59,1.155-2.002l50.808-29.327c0.712-0.415,1.592-0.415,2.309,0l50.824,29.33   c0.714,0.412,1.155,1.175,1.155,2.002c0,0.824-0.438,1.59-1.155,2.002l-50.824,29.34   C251.118,260.009,250.716,260.111,250.319,260.111z M204.134,228.462l46.185,26.673l46.2-26.673l-46.2-26.662L204.134,228.462z"
				data-original="#232E38"
				class=""
				data-old_color="#2c3843"/>
			<path
				style="fill:#2c3843"
				d="M250.319,318.781c-0.399,0-0.799-0.105-1.155-0.31l-50.806-29.34   c-0.717-0.412-1.155-1.172-1.155-2.002v-58.66c0-0.822,0.438-1.587,1.155-2.002c0.712-0.41,1.6-0.41,2.309,0l50.806,29.332   c0.714,0.415,1.155,1.178,1.155,2.002v58.673c0,0.822-0.44,1.587-1.155,2.002C251.118,318.676,250.716,318.781,250.319,318.781z    M201.823,285.798l46.188,26.673v-53.335l-46.188-26.662V285.798z"
				data-original="#232E38"
				class=""
				data-old_color="#2c3843"/>
			<path
				style="fill:#2c3843"
				d="M250.319,318.781c-0.399,0-0.799-0.105-1.155-0.307c-0.717-0.415-1.155-1.18-1.155-2.002V257.8   c0-0.822,0.44-1.587,1.155-2.002l50.824-29.332c0.717-0.41,1.6-0.412,2.309,0.003c0.717,0.412,1.155,1.175,1.155,1.999v58.662   c0,0.829-0.44,1.59-1.155,2.002l-50.824,29.343C251.118,318.676,250.716,318.781,250.319,318.781z M252.628,259.136v53.335   l46.203-26.673v-53.325L252.628,259.136z"
				data-original="#232E38"
				class=""
				data-old_color="#2c3843"/>
			<path
				style="fill:#2c3843"
				d="M107.402,200.835c-1.277,0-2.309-1.037-2.309-2.312v-27.405c0-1.275,1.032-2.309,2.309-2.309   c1.277,0,2.309,1.037,2.309,2.309v27.405C109.711,199.798,108.68,200.835,107.402,200.835z"
				data-original="#232E38"
				class=""
				data-old_color="#2c3843"/>
			<path
				style="fill:#2c3843"
				d="M151.153,205.939h-38.62c-1.277,0-2.309-1.034-2.309-2.309s1.034-2.309,2.309-2.309h38.623   c1.277,0,2.309,1.037,2.309,2.309C153.464,204.905,152.43,205.939,151.153,205.939z"
				data-original="#232E38"
				class=""
				data-old_color="#2c3843"/>
			<path
				style="fill:#2c3843"
				d="M199.524,230.781c-0.392,0-0.788-0.097-1.152-0.31l-38.141-21.998   c-1.103-0.637-1.485-2.048-0.847-3.154c0.635-1.106,2.045-1.487,3.156-0.85l38.139,21.998c1.103,0.637,1.485,2.053,0.847,3.159   C201.101,230.367,200.323,230.781,199.524,230.781z"
				data-original="#232E38"
				class=""
				data-old_color="#2c3843"/>
			<path
				style="fill:#2c3843"
				d="M112.527,211.062h-10.235c-1.277,0-2.309-1.034-2.309-2.312v-10.235   c0-1.277,1.032-2.312,2.309-2.312h10.235c1.277,0,2.309,1.034,2.309,2.312v10.235C114.836,210.028,113.805,211.062,112.527,211.062   z M104.602,206.438h5.614v-5.612h-5.614V206.438z"
				data-original="#232E38"
				class=""
				data-old_color="#2c3843"/>
			<path
				style="fill:#2c3843"
				d="M161.388,211.062h-10.232c-1.277,0-2.309-1.034-2.309-2.312v-10.235   c0-1.277,1.032-2.312,2.309-2.312h10.232c1.277,0,2.309,1.034,2.309,2.312v10.235C163.697,210.028,162.665,211.062,161.388,211.062   z M153.464,206.438h5.612v-5.612h-5.612V206.438z"
				data-original="#232E38"
				class=""
				data-old_color="#2c3843"/>
			<path
				style="fill:#2c3843"
				d="M141.292,173.425H73.546c-1.277,0-2.309-1.037-2.309-2.309V103.37c0-1.277,1.032-2.312,2.309-2.312   h67.743c1.277,0,2.309,1.034,2.309,2.312v67.743C143.601,172.388,142.569,173.425,141.292,173.425z M75.858,168.804h63.124v-63.122   H75.858V168.804z"
				data-original="#232E38"
				class=""
				data-old_color="#2c3843"/>
			<path
				style="fill:#2c3843"
				d="M107.402,346.796c-1.277,0-2.309-1.034-2.309-2.309v-27.407c0-1.275,1.032-2.309,2.309-2.309   c1.277,0,2.309,1.034,2.309,2.309v27.407C109.711,345.761,108.68,346.796,107.402,346.796z"
				data-original="#232E38"
				class=""
				data-old_color="#2c3843"/>
			<path
				style="fill:#2c3843"
				d="M151.153,314.286h-38.62c-1.277,0-2.309-1.034-2.309-2.312c0-1.277,1.034-2.312,2.309-2.312h38.623   c1.277,0,2.309,1.034,2.309,2.312C153.464,313.252,152.43,314.286,151.153,314.286z"
				data-original="#232E38"
				class=""
				data-old_color="#2c3843"/>
			<path
				style="fill:#2c3843"
				d="M161.388,311.442c-0.799,0-1.577-0.415-2.004-1.155c-0.637-1.108-0.259-2.522,0.847-3.159   l38.139-21.998c1.111-0.637,2.519-0.256,3.156,0.847c0.637,1.106,0.259,2.517-0.847,3.154L162.54,311.13   C162.179,311.342,161.779,311.442,161.388,311.442z"
				data-original="#232E38"
				class=""
				data-old_color="#2c3843"/>
			<path
				style="fill:#2c3843"
				d="M112.527,319.401h-10.235c-1.277,0-2.309-1.034-2.309-2.312v-10.232   c0-1.277,1.032-2.312,2.309-2.312h10.235c1.277,0,2.309,1.034,2.309,2.312v10.232C114.836,318.364,113.805,319.401,112.527,319.401   z M104.602,314.778h5.614v-5.612h-5.614V314.778z"
				data-original="#232E38"
				class=""
				data-old_color="#2c3843"/>
			<path
				style="fill:#2c3843"
				d="M161.388,319.401h-10.232c-1.277,0-2.309-1.034-2.309-2.312v-10.232   c0-1.277,1.032-2.312,2.309-2.312h10.232c1.277,0,2.309,1.034,2.309,2.312v10.232C163.697,318.364,162.665,319.401,161.388,319.401   z M153.464,314.778h5.612v-5.612h-5.612V314.778z"
				data-original="#232E38"
				class=""
				data-old_color="#2c3843"/>
			<path
				style="fill:#2c3843"
				d="M141.292,414.543H73.546c-1.277,0-2.309-1.034-2.309-2.309v-67.743c0-1.277,1.032-2.312,2.309-2.312   h67.743c1.277,0,2.309,1.034,2.309,2.312v67.743C143.601,413.507,142.569,414.543,141.292,414.543z M75.858,409.923h63.124v-63.119   H75.858V409.923z"
				data-original="#232E38"
				class=""
				data-old_color="#2c3843"/>
			<path
				style="fill:#2c3843"
				d="M393.272,200.835c-1.277,0-2.309-1.037-2.309-2.312v-27.405c0-1.275,1.032-2.309,2.309-2.309   c1.277,0,2.309,1.037,2.309,2.309v27.405C395.581,199.798,394.55,200.835,393.272,200.835z"
				data-original="#232E38"
				class=""
				data-old_color="#2c3843"/>
			<path
				style="fill:#2c3843"
				d="M388.14,205.939h-38.623c-1.277,0-2.309-1.034-2.309-2.309s1.032-2.309,2.309-2.309h38.623   c1.277,0,2.309,1.037,2.309,2.309C390.451,204.905,389.417,205.939,388.14,205.939z"
				data-original="#232E38"
				class=""
				data-old_color="#2c3843"/>
			<path
				style="fill:#2c3843"
				d="M301.146,230.781c-0.799,0-1.574-0.415-2.002-1.155c-0.637-1.106-0.259-2.522,0.845-3.159   l38.136-21.998c1.108-0.637,2.522-0.256,3.156,0.85c0.637,1.106,0.259,2.516-0.847,3.154l-38.136,21.998   C301.934,230.684,301.535,230.781,301.146,230.781z"
				data-original="#232E38"
				class=""
				data-old_color="#2c3843"/>
			<path
				style="fill:#2c3843"
				d="M398.377,211.062h-10.235c-1.277,0-2.309-1.034-2.309-2.312v-10.235   c0-1.277,1.032-2.312,2.309-2.312h10.235c1.277,0,2.309,1.034,2.309,2.312v10.235C400.689,210.028,399.654,211.062,398.377,211.062   z M390.454,206.438h5.614v-5.612h-5.614V206.438z"
				data-original="#232E38"
				class=""
				data-old_color="#2c3843"/>
			<path
				style="fill:#2c3843"
				d="M349.514,211.062h-10.235c-1.277,0-2.309-1.034-2.309-2.312v-10.235   c0-1.277,1.032-2.312,2.309-2.312h10.235c1.277,0,2.309,1.034,2.309,2.312v10.235C351.826,210.028,350.792,211.062,349.514,211.062   z M341.591,206.438h5.614v-5.612h-5.614V206.438z"
				data-original="#232E38"
				class=""
				data-old_color="#2c3843"/>
			<path
				style="fill:#2c3843"
				d="M427.123,173.425h-67.745c-1.277,0-2.309-1.037-2.309-2.309V103.37c0-1.277,1.032-2.312,2.309-2.312   h67.745c1.275,0,2.307,1.034,2.307,2.312v67.743C429.43,172.388,428.398,173.425,427.123,173.425z M361.687,168.804h63.125v-63.122   h-63.125V168.804z"
				data-original="#232E38"
				class=""
				data-old_color="#2c3843"/>
			<path
				style="fill:#2c3843"
				d="M393.272,346.796c-1.277,0-2.309-1.034-2.309-2.309v-27.407c0-1.275,1.032-2.309,2.309-2.309   c1.277,0,2.309,1.034,2.309,2.309v27.407C395.581,345.761,394.55,346.796,393.272,346.796z"
				data-original="#232E38"
				class=""
				data-old_color="#2c3843"/>
			<path
				style="fill:#2c3843"
				d="M388.14,314.286h-38.623c-1.277,0-2.309-1.034-2.309-2.312c0-1.277,1.032-2.312,2.309-2.312h38.623   c1.277,0,2.309,1.034,2.309,2.312C390.449,313.252,389.417,314.286,388.14,314.286z"
				data-original="#232E38"
				class=""
				data-old_color="#2c3843"/>
			<path
				style="fill:#2c3843"
				d="M339.277,311.442c-0.389,0-0.788-0.1-1.152-0.312l-38.136-21.998   c-1.103-0.637-1.482-2.051-0.845-3.154c0.635-1.103,2.045-1.485,3.154-0.847l38.136,21.998c1.106,0.637,1.485,2.053,0.847,3.159   C340.854,311.027,340.078,311.442,339.277,311.442z"
				data-original="#232E38"
				class=""
				data-old_color="#2c3843"/>
			<path
				style="fill:#2c3843"
				d="M398.377,319.401h-10.235c-1.277,0-2.309-1.034-2.309-2.312v-10.232   c0-1.277,1.032-2.312,2.309-2.312h10.235c1.277,0,2.309,1.034,2.309,2.312v10.232C400.689,318.364,399.654,319.401,398.377,319.401   z M390.454,314.778h5.614v-5.612h-5.614V314.778z"
				data-original="#232E38"
				class=""
				data-old_color="#2c3843"/>
			<path
				style="fill:#2c3843"
				d="M349.514,319.401h-10.235c-1.277,0-2.309-1.034-2.309-2.312v-10.232   c0-1.277,1.032-2.312,2.309-2.312h10.235c1.277,0,2.309,1.034,2.309,2.312v10.232C351.826,318.364,350.792,319.401,349.514,319.401   z M341.591,314.778h5.614v-5.612h-5.614V314.778z"
				data-original="#232E38"
				class=""
				data-old_color="#2c3843"/>
			<path
				style="fill:#2c3843"
				d="M427.123,414.543h-67.745c-1.277,0-2.309-1.034-2.309-2.309v-67.743   c0-1.277,1.032-2.312,2.309-2.312h67.745c1.275,0,2.307,1.034,2.307,2.312v67.743C429.43,413.507,428.398,414.543,427.123,414.543z    M361.687,409.923h63.125v-63.119h-63.125V409.923z"
				data-original="#232E38"
				class=""
				data-old_color="#2c3843"/>
			<path
				style="fill:#2c3843"
				d="M250.33,201.441c-1.277,0-2.309-1.034-2.309-2.309V98.296c0-1.275,1.032-2.309,2.309-2.309   s2.309,1.034,2.309,2.309v100.836C252.639,200.407,251.607,201.441,250.33,201.441z"
				data-original="#232E38"
				class=""
				data-old_color="#2c3843"/>
			<path
				style="fill:#2c3843"
				d="M284.209,100.616h-67.758c-1.277,0-2.309-1.034-2.309-2.312V30.543c0-1.275,1.032-2.309,2.309-2.309   h67.758c1.277,0,2.309,1.034,2.309,2.309v67.761C286.518,99.581,285.486,100.616,284.209,100.616z M218.76,95.992h63.137v-63.14   H218.76V95.992z"
				data-original="#232E38"
				class=""
				data-old_color="#2c3843"/>
			<path
				style="fill:#2c3843"
				d="M250.33,419.615c-1.277,0-2.309-1.034-2.309-2.309V316.472c0-1.277,1.032-2.312,2.309-2.312   s2.309,1.034,2.309,2.312v100.833C252.639,418.58,251.607,419.615,250.33,419.615z"
				data-original="#232E38"
				class=""
				data-old_color="#2c3843"/>
			<path
				style="fill:#2c3843"
				d="M284.209,487.375h-67.758c-1.277,0-2.309-1.034-2.309-2.307v-67.763   c0-1.275,1.032-2.309,2.309-2.309h67.758c1.277,0,2.309,1.034,2.309,2.309v67.763C286.518,486.341,285.486,487.375,284.209,487.375   z M218.76,482.757h63.137v-63.142H218.76V482.757z"
				data-original="#232E38"
				class=""
				data-old_color="#2c3843"/>
		</g><rect x="89.754" y="32.438" style="fill:#13d389" width="25.101" height="25.103" data-original="#F77B55" class="active-path" data-old_color="#13d389"/><rect x="292.019" y="154.675" style="fill:#FFFFFF" width="19.154" height="19.149" data-original="#92DEEB" class="" data-old_color="#ffffff"/>
		<g>
			<rect x="364.39" y="24.922" style="fill:#FFFFFF;" width="28.89" height="28.884" data-original="#FFFFFF" class=""/>
			<rect x="68.618" y="279.322" style="fill:#FFFFFF;" width="9.866" height="9.866" data-original="#FFFFFF" class=""/>
		</g>
		<g>
			<rect x="153.331" y="235.674" style="fill:#FFFFFF" width="15.306" height="15.309" data-original="#92DEEB" class="" data-old_color="#ffffff"/>
			<rect x="2.309" y="219.315" style="fill:#FFFFFF" width="24.015" height="24.015" data-original="#92DEEB" class="" data-old_color="#ffffff"/>
			<rect x="495.078" y="290.816" style="fill:#FFFFFF" width="14.607" height="14.605" data-original="#92DEEB" class="" data-old_color="#ffffff"/>
		</g><rect x="406.656" y="237.235" style="fill:#FFFFFF;" width="27.469" height="27.466" data-original="#FFFFFF" class=""/><rect x="199.526" y="348.851" style="fill:#13d389" width="21.164" height="21.161" data-original="#F77B55" class="active-path" data-old_color="#13d389"/>
		<g>
			<rect x="125.42" y="455.347" style="fill:#FFFFFF;" width="31.747" height="31.744" data-original="#FFFFFF" class=""/>
			<rect x="300.339" y="364.595" style="fill:#FFFFFF;" width="10.836" height="10.836" data-original="#FFFFFF" class=""/>
		</g><rect x="415.616" y="455.347" style="fill:#13d389" width="15.872" height="15.869" data-original="#F77B55" class="active-path" data-old_color="#13d389"/>
		<g>
			<path
				style="fill:#2c3843"
				d="M114.844,59.853H89.743c-1.277,0-2.309-1.034-2.309-2.312V32.438c0-1.277,1.032-2.312,2.309-2.312   h25.101c1.277,0,2.309,1.034,2.309,2.312v25.103C117.153,58.819,116.122,59.853,114.844,59.853z M92.052,55.229h20.48v-20.48   h-20.48V55.229z"
				data-original="#232E38"
				class=""
				data-old_color="#2c3843"/>
			<path
				style="fill:#2c3843"
				d="M311.173,176.128h-19.154c-1.275,0-2.309-1.034-2.309-2.312v-19.149   c0-1.277,1.034-2.312,2.309-2.312h19.154c1.277,0,2.309,1.037,2.309,2.312v19.149C313.482,175.094,312.451,176.128,311.173,176.128   z M294.328,171.507h14.536v-14.528h-14.536V171.507z"
				data-original="#232E38"
				class=""
				data-old_color="#2c3843"/>
			<path
				style="fill:#2c3843"
				d="M393.272,56.118h-28.89c-1.277,0-2.309-1.037-2.309-2.312V24.922c0-1.275,1.032-2.309,2.309-2.309   h28.89c1.277,0,2.309,1.034,2.309,2.309v28.884C395.581,55.084,394.55,56.118,393.272,56.118z M366.692,51.497h24.269V27.231   h-24.269V51.497z"
				data-original="#232E38"
				class=""
				data-old_color="#2c3843"/>
			<path
				style="fill:#2c3843"
				d="M78.482,291.5h-9.866c-1.277,0-2.309-1.034-2.309-2.309v-9.866c0-1.277,1.032-2.312,2.309-2.312   h9.866c1.277,0,2.309,1.034,2.309,2.312v9.866C80.794,290.465,79.759,291.5,78.482,291.5z M70.927,286.879h5.245v-5.243h-5.245   V286.879z"
				data-original="#232E38"
				class=""
				data-old_color="#2c3843"/>
			<path
				style="fill:#2c3843"
				d="M168.64,253.286h-15.306c-1.277,0-2.309-1.034-2.309-2.309v-15.309c0-1.275,1.032-2.309,2.309-2.309   h15.306c1.277,0,2.309,1.037,2.309,2.309v15.309C170.949,252.252,169.917,253.286,168.64,253.286z M155.64,248.668h10.688v-10.685   H155.64V248.668z"
				data-original="#232E38"
				class=""
				data-old_color="#2c3843"/>
			<path
				style="fill:#2c3843"
				d="M26.324,245.635H2.309C1.032,245.635,0,244.6,0,243.325V219.31c0-1.275,1.032-2.309,2.309-2.309   h24.015c1.277,0,2.309,1.034,2.309,2.309v24.015C28.636,244.6,27.602,245.635,26.324,245.635z M4.621,241.014h19.397v-19.395H4.621   V241.014z"
				data-original="#232E38"
				class=""
				data-old_color="#2c3843"/>
			<path
				style="fill:#2c3843"
				d="M509.691,307.743h-14.607c-1.277,0-2.309-1.034-2.309-2.309v-14.605   c0-1.275,1.032-2.309,2.309-2.309h14.607c1.277,0,2.309,1.034,2.309,2.309v14.605C512,306.708,510.968,307.743,509.691,307.743z    M497.393,303.122h9.987v-9.981h-9.987V303.122z"
				data-original="#232E38"
				class=""
				data-old_color="#2c3843"/>
			<path
				style="fill:#2c3843"
				d="M434.127,267.023h-27.469c-1.277,0-2.309-1.034-2.309-2.312v-27.469   c0-1.277,1.032-2.312,2.309-2.312h27.469c1.277,0,2.309,1.034,2.309,2.312v27.466C436.436,265.987,435.405,267.023,434.127,267.023   z M408.968,262.397h22.851v-22.84h-22.851V262.397z"
				data-original="#232E38"
				class=""
				data-old_color="#2c3843"/>
			<path
				style="fill:#2c3843"
				d="M220.69,372.329h-21.164c-1.277,0-2.309-1.034-2.309-2.309v-21.161c0-1.277,1.032-2.312,2.309-2.312   h21.164c1.277,0,2.309,1.034,2.309,2.312v21.161C222.999,371.295,221.967,372.329,220.69,372.329z M201.836,367.708h16.545v-16.535   h-16.545V367.708z"
				data-original="#232E38"
				class=""
				data-old_color="#2c3843"/>
			<path
				style="fill:#2c3843"
				d="M157.166,489.388H125.42c-1.277,0-2.309-1.034-2.309-2.307v-31.744c0-1.277,1.032-2.312,2.309-2.312   h31.747c1.277,0,2.309,1.034,2.309,2.312v31.744C159.475,488.353,158.444,489.388,157.166,489.388z M127.729,484.769h27.126   v-27.123h-27.126V484.769z"
				data-original="#232E38"
				class=""
				data-old_color="#2c3843"/>
			<path
				style="fill:#2c3843"
				d="M311.173,377.751h-10.836c-1.275,0-2.307-1.037-2.307-2.312v-10.836   c0-1.275,1.032-2.309,2.307-2.309h10.836c1.277,0,2.309,1.034,2.309,2.309v10.836C313.482,376.712,312.451,377.751,311.173,377.751   z M302.646,373.128h6.218v-6.216h-6.218V373.128z"
				data-original="#232E38"
				class=""
				data-old_color="#2c3843"/>
			<path
				style="fill:#2c3843"
				d="M431.48,473.518h-15.872c-1.277,0-2.309-1.034-2.309-2.312v-15.869c0-1.277,1.032-2.312,2.309-2.312   h15.872c1.277,0,2.309,1.034,2.309,2.312v15.869C433.789,472.481,432.758,473.518,431.48,473.518z M417.917,468.892h11.254v-11.246   h-11.254V468.892z"
				data-original="#232E38"
				class=""
				data-old_color="#2c3843"/>
		</g>
	</g>
</svg>
