<svg id="Ebene_1" data-name="Ebene 1" xmlns="http://www.w3.org/2000/svg" viewBox="0 0 90 90"><defs><style>.cls-1,.cls-2{fill:none;stroke-linecap:round;stroke-linejoin:round;stroke-width:3px;}.cls-1{stroke:#9c9c9c;}.cls-2{stroke:#13d389;}</style></defs><title>icon</title><rect class="cls-1" x="14.79" y="12.43" width="59.48" height="19.83" rx="2.83" ry="2.83"/><line class="cls-1" x1="36.04" y1="26.59" x2="64.36" y2="26.59"/><line class="cls-1" x1="36.04" y1="20.93" x2="64.36" y2="20.93"/><circle class="cls-1" cx="24.71" cy="22.34" r="2.83"/><path class="cls-1" d="M38.87,52.08H17.63a2.83,2.83,0,0,1-2.83-2.83V35.09a2.83,2.83,0,0,1,2.83-2.83H71.44a2.83,2.83,0,0,1,2.83,2.83v4.25"/><line class="cls-1" x1="36.04" y1="46.42" x2="41.7" y2="46.42"/><line class="cls-1" x1="36.04" y1="40.75" x2="44.53" y2="40.75"/><circle class="cls-1" cx="24.71" cy="42.17" r="2.83"/><path class="cls-1" d="M41.7,71.91H17.63a2.83,2.83,0,0,1-2.83-2.83V54.91a2.83,2.83,0,0,1,2.83-2.83H38.87"/><circle class="cls-1" cx="24.71" cy="61.99" r="2.83"/><line class="cls-2" x1="48.92" y1="53.54" x2="73.92" y2="53.47"/><path class="cls-2" d="M70.24,53.48l0,10.29a5.9,5.9,0,0,1-5.86,5.9l-5.88,0a5.9,5.9,0,0,1-5.9-5.86l0-10.29"/><rect class="cls-2" x="58.53" y="69.67" width="5.88" height="4.41" transform="translate(-0.21 0.18) rotate(-0.17)"/><line class="cls-2" x1="61.48" y1="74.09" x2="61.49" y2="77.03"/><line class="cls-2" x1="55.54" y1="53.52" x2="55.51" y2="43.23"/><line class="cls-2" x1="67.3" y1="53.49" x2="67.27" y2="43.19"/></svg>