<svg id="Ebene_1" data-name="Ebene 1" xmlns="http://www.w3.org/2000/svg" viewBox="0 0 90 90"><defs><style>.cls-1,.cls-2{fill:none;stroke-linejoin:round;stroke-width:3px;}.cls-1{stroke:#9c9c9c;stroke-linecap:round;}.cls-2{stroke:#13d389;}</style></defs><title>icon</title><polyline class="cls-1" points="14.59 39.98 6 39.98 12.87 12.5 78.13 12.5 85 39.98 76.41 39.98"/><line class="cls-1" x1="40.35" y1="39.98" x2="50.65" y2="39.98"/><line class="cls-1" x1="18.02" y1="19.37" x2="21.46" y2="19.37"/><line class="cls-1" x1="23.17" y1="26.24" x2="26.61" y2="26.24"/><line class="cls-1" x1="33.48" y1="26.24" x2="36.91" y2="26.24"/><line class="cls-1" x1="43.78" y1="26.24" x2="47.22" y2="26.24"/><line class="cls-1" x1="54.09" y1="26.24" x2="57.52" y2="26.24"/><line class="cls-1" x1="64.39" y1="26.24" x2="67.83" y2="26.24"/><line class="cls-1" x1="28.33" y1="19.37" x2="31.76" y2="19.37"/><line class="cls-1" x1="38.63" y1="19.37" x2="42.07" y2="19.37"/><line class="cls-1" x1="48.93" y1="19.37" x2="52.37" y2="19.37"/><line class="cls-1" x1="59.24" y1="19.37" x2="62.67" y2="19.37"/><line class="cls-1" x1="69.54" y1="19.37" x2="72.98" y2="19.37"/><line class="cls-1" x1="18.02" y1="33.11" x2="21.46" y2="33.11"/><line class="cls-1" x1="28.33" y1="33.11" x2="31.76" y2="33.11"/><line class="cls-1" x1="38.63" y1="33.11" x2="42.07" y2="33.11"/><line class="cls-1" x1="48.93" y1="33.11" x2="52.37" y2="33.11"/><line class="cls-1" x1="59.24" y1="33.11" x2="62.67" y2="33.11"/><line class="cls-1" x1="69.54" y1="33.11" x2="72.98" y2="33.11"/><path class="cls-2" d="M59.77,47.35,58.8,44a2.63,2.63,0,0,1,5.07-1.45l1,3.38"/><path class="cls-2" d="M67.73,56,64.83,45.91a2.64,2.64,0,0,1,5.07-1.45l1.44,5.06"/><path class="cls-2" d="M73.51,57.13l-2.17-7.6a2.63,2.63,0,1,1,5.06-1.44L81.22,65a8.77,8.77,0,0,1-6,10.85l-5.63,1.61a8.78,8.78,0,0,1-8.24-1.89c-4.21-3.74-10-10.26-10-10.26a2.11,2.11,0,0,1,2.2-3.56l6,4L54.7,48.8a2.63,2.63,0,1,1,5.06-1.45l2.89,10.13"/><path class="cls-2" d="M31.23,47.35l1-3.37a2.63,2.63,0,0,0-5.07-1.45l-1,3.38"/><path class="cls-2" d="M23.27,56l2.89-10.13a2.64,2.64,0,0,0-5.07-1.45l-1.44,5.06"/><path class="cls-2" d="M17.49,57.13l2.17-7.6a2.63,2.63,0,1,0-5.06-1.44L9.78,65a8.77,8.77,0,0,0,6,10.85l5.63,1.61a8.78,8.78,0,0,0,8.24-1.89c4.21-3.74,10-10.26,10-10.26a2.11,2.11,0,0,0-2.2-3.56l-6,4L36.3,48.8a2.63,2.63,0,1,0-5.06-1.45L28.34,57.48"/></svg>