<?xml version="1.0"?>
<svg xmlns="http://www.w3.org/2000/svg" xmlns:xlink="http://www.w3.org/1999/xlink" version="1.1" id="Capa_1" x="0px" y="0px" viewBox="0 0 512 512" style="enable-background:new 0 0 512 512;" xml:space="preserve" width="512px" height="512px" class=""><g><g>
	<path style="fill:#2c3843" d="M320,400H32c-8.576,0-16.128-3.208-22.464-9.544C3.208,384.128,0,376.568,0,368v-48h320v16H16v32   c0,4.288,1.544,7.832,4.856,11.144S27.712,384,32,384h288V400z" data-original="#403E3E" class="" data-old_color="#2c3843"/>
	<rect x="144" y="464" style="fill:#2c3843" width="176" height="16" data-original="#403E3E" class="" data-old_color="#2c3843"/>
	<rect x="280" y="392" style="fill:#2c3843" width="16" height="80" data-original="#403E3E" class="" data-old_color="#2c3843"/>
	<rect x="168" y="392" style="fill:#2c3843" width="16" height="80" data-original="#403E3E" class="" data-old_color="#2c3843"/>
	<rect x="208" y="352" style="fill:#2c3843" width="48" height="16" data-original="#403E3E" class="" data-old_color="#2c3843"/>
	<path style="fill:#2c3843" d="M16,328H0V64c0-8.568,3.208-16.128,9.544-22.456S23.432,32,32,32h400   c8.568,0,16.128,3.208,22.456,9.544C460.792,47.872,464,55.424,464,64v128h-16V64c0-4.288-1.544-7.832-4.856-11.144   C439.832,49.544,436.288,48,432,48H32c-4.288,0-7.832,1.544-11.144,4.856S16,59.712,16,64V328z" data-original="#403E3E" class="" data-old_color="#2c3843"/>
</g><g>
	<polygon style="fill:#9c9c9c" points="336,304 32,304 32,64 432,64 432,192 416,192 416,80 48,80 48,288 336,288  " data-original="#43D3E8" class="" data-old_color="#9c9c9c"/>
	<polygon style="fill:#9c9c9c" points="512,480 496,480 496,336 352,336 352,480 336,480 336,320 512,320  " data-original="#43D3E8" class="" data-old_color="#9c9c9c"/>
	<rect x="368" y="464" style="fill:#9c9c9c" width="112" height="16" data-original="#43D3E8" class="" data-old_color="#9c9c9c"/>
	<path style="fill:#9c9c9c" d="M496,328h-16v-48c0-14.496-5.912-29.128-16.232-40.128C453.128,229.92,438.496,224,424,224   s-29.128,5.92-40.136,16.232C373.912,250.872,368,265.504,368,280v48h-16v-48c0-18.52,7.496-37.136,20.56-51.072   C386.872,215.496,405.488,208,424,208s37.128,7.496,51.072,20.56C488.504,242.864,496,261.48,496,280V328z" data-original="#43D3E8" class="" data-old_color="#9c9c9c"/>
	<path style="fill:#9c9c9c" d="M464,304h-16v-24c0-6.12-2.576-12.064-7.256-16.744c-9.36-9.36-24.128-9.36-33.488,0   C402.576,267.936,400,273.88,400,280v24h-16v-24c0-10.392,4.24-20.352,11.944-28.056C403.64,244.24,413.608,240,424,240   s20.36,4.24,28.056,11.944C459.76,259.648,464,269.608,464,280V304z" data-original="#43D3E8" class="" data-old_color="#9c9c9c"/>
</g><g>
	<rect x="384" y="352" style="fill:#2c3843" width="16" height="16" data-original="#403E3E" class="" data-old_color="#2c3843"/>
	<rect x="416" y="352" style="fill:#2c3843" width="16" height="16" data-original="#403E3E" class="" data-old_color="#2c3843"/>
	<rect x="448" y="352" style="fill:#2c3843" width="16" height="16" data-original="#403E3E" class="" data-old_color="#2c3843"/>
	<rect x="384" y="384" style="fill:#2c3843" width="16" height="16" data-original="#403E3E" class="" data-old_color="#2c3843"/>
	<rect x="416" y="384" style="fill:#2c3843" width="16" height="16" data-original="#403E3E" class="" data-old_color="#2c3843"/>
	<rect x="448" y="384" style="fill:#2c3843" width="16" height="16" data-original="#403E3E" class="" data-old_color="#2c3843"/>
	<rect x="384" y="416" style="fill:#2c3843" width="16" height="16" data-original="#403E3E" class="" data-old_color="#2c3843"/>
	<rect x="416" y="416" style="fill:#2c3843" width="16" height="16" data-original="#403E3E" class="" data-old_color="#2c3843"/>
	<rect x="448" y="416" style="fill:#2c3843" width="16" height="16" data-original="#403E3E" class="" data-old_color="#2c3843"/>
</g><g>
	<path style="fill:#13d389" d="M232,272c-48.52,0-88-39.48-88-88s39.48-88,88-88s88,39.48,88,88S280.52,272,232,272z M232,112   c-39.696,0-72,32.304-72,72s32.304,72,72,72c39.704,0,72-32.304,72-72S271.704,112,232,112z" data-original="#F96232" class="active-path" data-old_color="#13d389"/>
	<polygon style="fill:#13d389" points="224,227.312 186.344,189.656 197.656,178.344 224,204.688 274.344,154.344 285.656,165.656     " data-original="#F96232" class="active-path" data-old_color="#13d389"/>
</g></g> </svg>
