<?xml version="1.0"?>
<svg xmlns="http://www.w3.org/2000/svg" xmlns:xlink="http://www.w3.org/1999/xlink" version="1.1" id="Capa_1" x="0px" y="0px" viewBox="0 0 512 512" style="enable-background:new 0 0 512 512;" xml:space="preserve" width="512px" height="512px" class=""><g>
  <circle style="fill:#13d389" cx="256" cy="256" r="246" data-original="#A5DDFF" class="active-path" data-old_color="#13d389"/>
  <circle style="fill:#ffffff" cx="256" cy="256" r="206.02" data-original="#DFF3FF" class="" data-old_color="#9c9c9c"/>
  <path  style="fill:#2c3843" d="M256,512c-68.38,0-132.667-26.628-181.02-74.981C26.629,388.667,0,324.38,0,256S26.629,123.333,74.98,74.981  C123.333,26.628,187.62,0,256,0s132.667,26.628,181.02,74.981C485.371,123.333,512,187.62,512,256s-26.629,132.667-74.98,181.019  C388.667,485.372,324.38,512,256,512z M256,20C125.869,20,20,125.869,20,256s105.869,236,236,236s236-105.869,236-236  S386.131,20,256,20z" data-original="#000000" class=""/>
  <path  style="fill:#2c3843" d="M458.272,226.845c-4.699,0-8.889-3.327-9.81-8.112c-12.229-63.549-55.087-116.887-114.646-142.68  c-5.068-2.194-7.397-8.082-5.203-13.15c2.195-5.067,8.083-7.397,13.15-5.202c65.631,28.422,112.859,87.208,126.339,157.253  c1.043,5.423-2.508,10.666-7.931,11.709C459.534,226.786,458.898,226.845,458.272,226.845z" data-original="#000000" class=""/>
  <path  style="fill:#2c3843" d="M300.262,64.767c-0.722,0-1.454-0.078-2.188-0.242l-0.117-0.026c-5.399-1.163-8.833-6.482-7.67-11.881  c1.162-5.4,6.485-8.834,11.881-7.67l0.262,0.057c5.39,1.203,8.785,6.547,7.582,11.938C308.974,61.599,304.842,64.767,300.262,64.767  z" data-original="#000000" class=""/>
  <path  style="fill:#2c3843" d="M176.581,456.138c-1.286,0-2.594-0.25-3.854-0.777c-32.48-13.583-61.491-35.217-83.896-62.565  c-22.667-27.667-38.204-60.777-44.935-95.749c-1.043-5.423,2.507-10.666,7.931-11.709c5.43-1.049,10.666,2.507,11.709,7.93  c12.417,64.525,56.12,118.223,116.907,143.642c5.095,2.13,7.498,7.988,5.367,13.083  C184.207,453.828,180.492,456.138,176.581,456.138z" data-original="#000000" class=""/>
  <path  style="fill:#2c3843" d="M211.947,467.279c-0.705,0-1.421-0.075-2.138-0.231l-0.7-0.154c-5.392-1.198-8.791-6.54-7.593-11.931 s6.544-8.789,11.931-7.592l0.618,0.136c5.396,1.175,8.818,6.502,7.643,11.899C220.689,464.084,216.548,467.279,211.947,467.279z" data-original="#000000" class=""/>
  <path style="fill:#2c3843"
  d="M295.146,468.285c-4.699,0-8.889-3.327-9.81-8.112c-1.043-5.423,2.507-10.666,7.931-11.709  c76.999-14.817,137.541-73.904,154.238-150.529c1.177-5.396,6.509-8.819,11.899-7.642c5.396,1.176,8.817,6.503,7.642,11.899  c-8.981,41.219-29.767,78.675-60.109,108.32c-30.389,29.69-68.389,49.605-109.891,57.591  C296.409,468.226,295.772,468.285,295.146,468.285z"
  data-original="#000000"
  class=""/>
  <path style="fill:#2c3843"
  d="M54.733,221.939c-0.705,0-1.422-0.075-2.139-0.231c-5.396-1.176-8.817-6.503-7.642-11.899  c8.981-41.219,29.767-78.675,60.109-108.32c30.389-29.69,68.389-49.605,109.891-57.591c5.424-1.049,10.666,2.507,11.71,7.93  c1.043,5.423-2.507,10.666-7.931,11.709C141.733,78.354,81.191,137.44,64.494,214.066C63.475,218.745,59.334,221.939,54.733,221.939  z"
  data-original="#000000"
  class=""/>
  <path  style="fill:#2c3843" d="M256,290c-18.748,0-34-15.252-34-34s15.252-34,34-34s34,15.252,34,34S274.748,290,256,290z M256,242c-7.72,0-14,6.28-14,14  s6.28,14,14,14s14-6.28,14-14S263.72,242,256,242z" data-original="#000000" class=""/>
  <path  style="fill:#2c3843" d="M256.152,82.408c-5.522,0-10-4.477-10-10V50c0-5.523,4.478-10,10-10s10,4.477,10,10v22.408  C266.152,77.931,261.675,82.408,256.152,82.408z" data-original="#000000" class=""/>
  <circle style="fill:#13d389" cx="256" cy="256" r="24" data-original="#FFBC53" class="" data-old_color="#13d389"/>
  <path style="fill:#2c3843" d="M255.848,472c-5.522,0-10-4.477-10-10v-29.536c0-5.523,4.478-10,10-10c5.522,0,10,4.477,10,10V462  C265.848,467.523,261.37,472,255.848,472z" data-original="#000000" class=""/>
  <path style="fill:#2c3843" d="M462,266.152h-27c-5.522,0-10-4.477-10-10s4.478-10,10-10h27c5.522,0,10,4.477,10,10  C472,261.675,467.522,266.152,462,266.152z" data-original="#000000" class=""/>
  <path  style="fill:#2c3843" d="M79,265.848H50c-5.522,0-10-4.477-10-10s4.478-10,10-10h29c5.522,0,10,4.477,10,10C89,261.371,84.522,265.848,79,265.848z" data-original="#000000" class=""/>
  <path style="fill:#2c3843" d="M232,266h-45.667c-5.522,0-10-4.477-10-10s4.478-10,10-10H232c5.522,0,10,4.477,10,10C242,261.523,237.522,266,232,266z" data-original="#000000" class=""/>
  <path style="fill:#2c3843" d="M256,242c-5.522,0-10-4.477-10-10v-93.667c0-5.523,4.478-10,10-10s10,4.477,10,10V232C266,237.523,261.522,242,256,242z" data-original="#000000" class=""/></g>
</svg>
