<?xml version="1.0"?>
<svg xmlns="http://www.w3.org/2000/svg" xmlns:xlink="http://www.w3.org/1999/xlink" version="1.1" id="Layer_1" x="0px" y="0px" viewBox="0 0 512 512" style="enable-background:new 0 0 512 512;" xml:space="preserve" width="512px" height="512px" class=""><g><path style="fill:#13d389" d="M144.122,46.561c-62.789,0-114.916,45.573-125.158,105.441  c10.24,59.878,62.369,105.449,125.158,105.449c62.794,0,114.9-45.571,125.161-105.449C259.025,92.134,206.916,46.561,144.122,46.561  z" data-original="#F77B55" class="active-path" data-old_color="#13d389"/><g>
	<path style="fill:#FFFFFF" d="M208.167,104.596c6.828,11.286,10.761,24.518,10.76,38.67c0,28.161-15.565,52.661-38.551,65.418   c36.357-8.402,66.926-29.122,85.342-56.691C252.225,131.807,232.204,115.292,208.167,104.596z" data-original="#FFFFFF" class="" data-old_color="#ffffff"/>
	<path style="fill:#FFFFFF" d="M69.311,143.265c0-14.153,3.936-27.388,10.769-38.675c-24.038,10.696-44.053,27.212-57.54,47.402   c18.408,27.574,48.972,48.296,85.339,56.695C84.887,195.932,69.311,171.429,69.311,143.265z" data-original="#FFFFFF" class="" data-old_color="#ffffff"/>
</g><path style="fill:#9c9c9c" d="M218.927,143.265c0.001-14.151-3.932-27.384-10.76-38.67c-19.208-8.547-40.977-13.383-64.046-13.383  c-6.903,0-13.685,0.444-20.322,1.279c3.185,4.562,3.713,10.645,1.728,16.464c5.53-3.008,11.865-4.717,18.594-4.717  c21.54,0,39.03,17.487,39.03,39.027c0,21.535-17.49,39.043-39.03,39.043c-21.524,0-39.017-17.508-39.017-39.043  c0-6.742,1.714-13.086,4.729-18.622c-6.745,2.304-13.88,1.282-18.55-3.392c-5.041-5.036-5.871-12.886-2.849-20.082  c-2.835,1.063-5.62,2.204-8.354,3.421c-6.833,11.287-10.769,24.522-10.769,38.675c0,28.164,15.576,52.667,38.568,65.422  c11.564,2.671,23.709,4.107,36.243,4.107c12.537,0,24.687-1.438,36.255-4.112C203.363,195.927,218.927,171.426,218.927,143.265z" data-original="#92DEEB" class="" data-old_color="#13d389"/><path style="fill:#2c3843" d="M109.833,124.643c-3.014,5.536-4.729,11.88-4.729,18.622c0,21.535,17.492,39.043,39.017,39.043  c21.54,0,39.03-17.508,39.03-39.043c0-21.54-17.49-39.027-39.03-39.027c-6.729,0-13.064,1.709-18.594,4.717  c-1.172,3.437-3.199,6.779-6.092,9.647C116.586,121.461,113.259,123.473,109.833,124.643z M126.422,125.542  c4.073-4.081,10.12-4.657,13.517-1.249c3.405,3.384,2.847,9.452-1.265,13.537c-4.068,4.081-10.14,4.662-13.524,1.27  C121.75,135.706,122.318,129.654,126.422,125.542z" data-original="#232E38" class="" data-old_color="#13d389"/><g>
	<path style="fill:#FFFFFF" d="M138.674,137.83c4.111-4.086,4.669-10.153,1.265-13.537c-3.397-3.407-9.444-2.831-13.517,1.249   c-4.104,4.111-4.672,10.163-1.272,13.558C128.534,142.492,134.606,141.911,138.674,137.83z" data-original="#FFFFFF" class="" data-old_color="#ffffff"/>
	<path style="fill:#FFFFFF" d="M91.283,121.252c4.671,4.674,11.805,5.696,18.55,3.392c3.426-1.17,6.753-3.182,9.602-6.041   c2.893-2.868,4.92-6.21,6.092-9.647c1.985-5.819,1.457-11.902-1.728-16.464c-12.386,1.557-24.248,4.511-35.365,8.678   C85.413,108.366,86.242,116.216,91.283,121.252z" data-original="#FFFFFF" class="" data-old_color="#ffffff"/>
</g><g>
	<path style="fill:#2c3843" d="M144.122,260.063c-63.347,0-117.064-45.261-127.731-107.62c-0.051-0.292-0.051-0.589,0-0.881   c10.668-62.354,64.384-107.61,127.731-107.61c63.327,0,117.048,45.256,127.734,107.61c0.049,0.292,0.049,0.589,0,0.881   C261.172,214.802,207.453,260.063,144.122,260.063z M21.613,152c10.412,59.62,61.862,102.84,122.509,102.84   c60.631,0,112.082-43.223,122.509-102.84C256.204,92.39,204.75,49.17,144.122,49.17C83.475,49.17,32.024,92.39,21.613,152z" data-original="#232E38" class="" data-old_color="#13d389"/>
	<path style="fill:#2c3843" d="M144.122,215.406c-50.821,0-98.24-23.741-123.753-61.965c-0.584-0.876-0.584-2.022,0-2.898   c25.523-38.208,72.942-61.939,123.753-61.939c50.806,0,98.23,23.731,123.768,61.937c0.584,0.878,0.584,2.025,0,2.9   C242.359,191.665,194.935,215.406,144.122,215.406z M25.696,151.992c24.783,35.94,69.975,58.194,118.426,58.194   c48.443,0,93.645-22.254,118.441-58.194c-24.804-35.924-70.001-58.168-118.441-58.168C95.679,93.824,50.484,116.068,25.696,151.992   z" data-original="#232E38" class="" data-old_color="#13d389"/>
	<path style="fill:#2c3843" d="M107.928,211.3c-0.443,0-0.906-0.11-1.293-0.328c-24.64-13.642-39.946-39.59-39.946-67.712   c0-14.157,3.858-27.996,11.162-40.013c0.75-1.234,2.358-1.626,3.587-0.876c1.231,0.748,1.623,2.353,0.876,3.587   C75.51,117.161,71.91,130.06,71.91,143.26c0,26.194,14.241,50.363,37.176,63.099c0.852,0.43,1.441,1.313,1.441,2.33   C110.524,210.132,109.37,211.3,107.928,211.3z" data-original="#232E38" class="" data-old_color="#13d389"/>
	<path style="fill:#2c3843" d="M180.379,211.302c-0.916,0-1.81-0.484-2.286-1.347c-0.699-1.26-0.243-2.849,1.016-3.548   c22.943-12.721,37.197-36.918,37.197-63.148c0-13.202-3.597-26.112-10.399-37.335c-0.75-1.231-0.353-2.836,0.878-3.584   c1.231-0.75,2.839-0.358,3.584,0.878c7.299,12.037,11.154,25.882,11.154,40.041c0,28.127-15.281,54.075-39.885,67.712   C181.242,211.195,180.809,211.302,180.379,211.302z" data-original="#232E38" class="" data-old_color="#13d389"/>
	<path style="fill:#2c3843" d="M144.124,184.922c-22.958,0-41.633-18.691-41.633-41.661c0-6.973,1.692-13.647,5.033-19.837   c0.684-1.265,2.258-1.746,3.54-1.055c1.27,0.686,1.741,2.271,1.055,3.538c-2.924,5.414-4.408,11.254-4.408,17.352   c0,20.093,16.335,36.444,36.413,36.444s36.416-16.348,36.416-36.444c0-20.078-16.338-36.419-36.416-36.419   c-6.1,0-11.937,1.485-17.349,4.416c-1.262,0.686-2.849,0.21-3.54-1.055c-0.684-1.27-0.212-2.852,1.057-3.54   c6.182-3.343,12.856-5.038,19.832-5.038c22.958,0,41.636,18.678,41.636,41.636C185.763,166.231,167.085,184.922,144.124,184.922z" data-original="#232E38" class="" data-old_color="#13d389"/>
	<path style="fill:#2c3843" d="M102.998,128.44c-5.21,0-10.053-1.848-13.558-5.358c-5.606-5.576-6.961-14.574-3.446-22.922   c0.561-1.326,2.084-1.958,3.42-1.39c1.329,0.558,1.953,2.092,1.39,3.42c-2.724,6.472-1.833,13.064,2.324,17.198   c3.776,3.784,9.843,4.856,15.849,2.803c3.151-1.062,6.131-2.939,8.625-5.43c2.506-2.509,4.39-5.496,5.458-8.64   c1.766-5.207,1.26-10.358-1.395-14.131c-0.829-1.18-0.545-2.811,0.635-3.638c1.188-0.829,2.811-0.543,3.638,0.632   c3.625,5.156,4.375,12.012,2.068,18.813c-1.321,3.896-3.64,7.58-6.71,10.657c-3.062,3.057-6.74,5.366-10.639,6.682   C108.092,128.013,105.504,128.44,102.998,128.44z" data-original="#232E38" class="" data-old_color="#13d389"/>
	<path style="fill:#2c3843" d="M144.132,322.519c-13.868,0-25.144-11.287-25.144-25.16c0-13.868,11.279-25.144,25.144-25.144   c13.87,0,25.155,11.277,25.155,25.144C169.284,311.232,158.002,322.519,144.132,322.519z M144.132,277.435   c-10.988,0-19.927,8.937-19.927,19.924c0,10.993,8.94,19.94,19.927,19.94c10.99,0,19.935-8.947,19.935-19.94   C164.067,286.372,155.122,277.435,144.132,277.435z" data-original="#232E38" class="" data-old_color="#13d389"/>
</g><g>
	<path style="fill:#9c9c9c" d="M236.76,416.778c0,51.154-41.472,92.626-92.631,92.626c-51.149,0-92.628-41.469-92.628-92.626   s41.477-92.631,92.628-92.631C195.291,324.147,236.76,365.619,236.76,416.778z" data-original="#92DEEB" class="" data-old_color="#13d389"/>
	<rect x="136.42" y="309.02" style="fill:#9c9c9c" width="15.432" height="15.439" data-original="#92DEEB" class="" data-old_color="#13d389"/>
	<rect x="131.78" y="296.68" style="fill:#9c9c9c" width="24.699" height="12.342" data-original="#92DEEB" class="" data-old_color="#13d389"/>
	
		<rect x="205.518" y="344.266" transform="matrix(-0.7075 -0.7067 0.7067 -0.7075 116.4093 745.1866)" style="fill:#9c9c9c" width="13.793" height="8.474" data-original="#92DEEB" class="" data-old_color="#13d389"/>
	
		<rect x="213.117" y="330.24" transform="matrix(0.707 -0.7072 0.7072 0.707 -175.6102 255.9061)" style="fill:#9c9c9c" width="15.844" height="19.302" data-original="#92DEEB" class="" data-old_color="#13d389"/>
	
		<rect x="68.927" y="344.285" transform="matrix(0.7075 -0.7067 0.7067 0.7075 -224.1251 155.5257)" style="fill:#9c9c9c" width="13.793" height="8.474" data-original="#92DEEB" class="" data-old_color="#13d389"/>
	
		<rect x="59.323" y="330.26" transform="matrix(-0.707 -0.7072 0.7072 -0.707 -125.6 627.7856)" style="fill:#9c9c9c" width="15.844" height="19.302" data-original="#92DEEB" class="" data-old_color="#13d389"/>
</g><circle style="fill:#FFFFFF" cx="144.13" cy="416.78" r="81.82" data-original="#FFFFFF" class="" data-old_color="#ffffff"/><path style="fill:#13d389" d="M144.134,334.958v81.82l57.861,57.856c14.802-14.802,23.959-35.264,23.959-57.856  C225.955,371.589,189.324,334.958,144.134,334.958z" data-original="#F77B55" class="active-path" data-old_color="#13d389"/><g>
	<path style="fill:#2c3843" d="M83.439,349.468c-0.73,0-1.452-0.302-1.969-0.896c-0.947-1.088-0.835-2.734,0.253-3.681   c15.529-13.53,34.578-21.494,55.089-23.027c1.426-0.131,2.691,0.973,2.798,2.406c0.108,1.441-0.973,2.693-2.409,2.801   c-19.379,1.446-37.376,8.97-52.047,21.755C84.66,349.258,84.049,349.468,83.439,349.468z" data-original="#232E38" class="" data-old_color="#13d389"/>
	<path style="fill:#2c3843" d="M144.134,512c-52.516,0-95.24-42.711-95.24-95.206c0-22.83,8.197-44.895,23.086-62.126l2.035,1.644   l1.933,1.754l-0.059,0.067c-14.026,16.233-21.775,37.084-21.775,58.662c0,49.618,40.384,89.987,90.02,89.987   s90.022-40.371,90.022-89.987c0-21.576-7.752-42.427-21.821-58.711c-0.924-1.073-0.858-2.721,0.189-3.674   c1.057-0.95,2.639-0.924,3.615,0.095c15.04,17.395,23.237,39.46,23.237,62.287C239.374,469.289,196.648,512,144.134,512z" data-original="#232E38" class="" data-old_color="#13d389"/>
	<path style="fill:#2c3843" d="M204.609,349.286c-0.691,0-1.377-0.269-1.889-0.809l-0.059-0.061   c-14.482-12.483-32.389-19.922-51.594-21.345c-1.441-0.105-2.516-1.359-2.412-2.796c0.108-1.441,1.375-2.547,2.796-2.412   c20.334,1.503,39.283,9.38,54.807,22.774c0.061,0.056,0.187,0.177,0.243,0.241c0.996,1.044,0.955,2.698-0.09,3.689   C205.905,349.051,205.257,349.286,204.609,349.286z" data-original="#232E38" class="" data-old_color="#13d389"/>
	<path style="fill:#2c3843" d="M151.855,327.076h-15.432c-1.441,0-2.611-1.165-2.611-2.611v-15.439   c0-1.441,1.167-2.611,2.611-2.611h15.432c1.441,0,2.609,1.167,2.609,2.611v15.439C154.464,325.911,153.297,327.076,151.855,327.076   z M139.032,321.859h10.212v-10.222h-10.212V321.859z" data-original="#232E38" class="" data-old_color="#13d389"/>
	<path style="fill:#2c3843" d="M156.481,311.634h-24.699c-1.441,0-2.611-1.167-2.611-2.611v-12.342   c0-1.441,1.167-2.611,2.611-2.611h24.699c1.444,0,2.611,1.167,2.611,2.611v12.342C159.092,310.467,157.925,311.634,156.481,311.634   z M134.391,306.414h19.482v-7.122h-19.482V306.414z" data-original="#232E38" class="" data-old_color="#13d389"/>
	<path style="fill:#2c3843" d="M214.319,358.986c-0.668,0-1.334-0.253-1.846-0.763l-9.756-9.748   c-0.492-0.489-0.765-1.155-0.765-1.848s0.271-1.357,0.765-1.846l5.998-6.001c0.489-0.492,1.152-0.765,1.846-0.765l0,0   c0.694,0,1.354,0.271,1.848,0.765l9.751,9.759c1.016,1.019,1.016,2.673-0.003,3.691l-5.993,5.99   C215.653,358.73,214.988,358.986,214.319,358.986z M208.255,346.627l6.065,6.057l2.301-2.299l-6.06-6.065L208.255,346.627z" data-original="#232E38" class="" data-old_color="#13d389"/>
	<path style="fill:#2c3843" d="M222.255,354.939L222.255,354.939c-0.694,0-1.357-0.271-1.848-0.765l-13.645-13.65   c-1.016-1.019-1.016-2.673,0-3.689l11.203-11.205c0.492-0.492,1.155-0.765,1.848-0.765l0,0c0.694,0,1.359,0.271,1.848,0.765   l13.645,13.658c1.016,1.019,1.016,2.673-0.003,3.692l-11.203,11.2C223.612,354.668,222.949,354.939,222.255,354.939z    M212.305,338.68l9.953,9.961l7.511-7.508l-9.953-9.966L212.305,338.68z" data-original="#232E38" class="" data-old_color="#13d389"/>
	<path style="fill:#2c3843" d="M73.947,358.986c-0.668,0-1.334-0.256-1.846-0.763l-5.993-5.99   c-1.019-1.019-1.019-2.673-0.003-3.692l9.751-9.759c0.986-0.983,2.716-0.983,3.692,0l6.001,6.001   c0.492,0.486,0.763,1.149,0.763,1.846c0,0.694-0.271,1.357-0.763,1.848l-9.759,9.748C75.281,358.733,74.615,358.986,73.947,358.986   z M71.645,350.385l2.301,2.299l6.065-6.057l-2.307-2.307L71.645,350.385z" data-original="#232E38" class="" data-old_color="#13d389"/>
	<path style="fill:#2c3843" d="M66.011,354.939c-0.694,0-1.357-0.271-1.846-0.76l-11.203-11.2   c-1.019-1.019-1.019-2.673-0.003-3.692l13.645-13.658c0.978-0.986,2.711-0.986,3.694,0l11.203,11.205   c1.016,1.016,1.016,2.67,0,3.689l-13.645,13.65C67.365,354.668,66.702,354.939,66.011,354.939z M58.5,341.133l7.511,7.508   l9.951-9.961l-7.511-7.514L58.5,341.133z" data-original="#232E38" class="" data-old_color="#13d389"/>
	<path style="fill:#2c3843" d="M144.132,501.204c-46.556,0-84.426-37.873-84.426-84.426s37.87-84.426,84.426-84.426   c46.559,0,84.431,37.873,84.431,84.426S190.688,501.204,144.132,501.204z M144.132,337.567c-43.676,0-79.206,35.535-79.206,79.209   c0,43.679,35.53,79.206,79.206,79.206c43.679,0,79.214-35.53,79.214-79.206C223.346,373.102,187.811,337.567,144.132,337.567z" data-original="#232E38" class="" data-old_color="#13d389"/>
	<path style="fill:#2c3843" d="M201.993,477.243c-0.668,0-1.334-0.256-1.843-0.765l-57.861-57.856   c-0.492-0.486-0.763-1.152-0.763-1.846v-81.82c0-1.441,1.167-2.609,2.609-2.609c46.556,0,84.429,37.873,84.429,84.426   c0,22.556-8.781,43.758-24.724,59.699C203.332,476.987,202.664,477.243,201.993,477.243z M146.743,415.695l55.219,55.214   c13.809-14.725,21.381-33.846,21.381-54.134c0-42.803-34.13-77.783-76.6-79.165C146.743,337.61,146.743,415.695,146.743,415.695z" data-original="#232E38" class="" data-old_color="#13d389"/>
</g><path style="fill:#FFFFFF" d="M154.838,416.778c0,5.914-4.785,10.706-10.708,10.706c-5.916,0-10.706-4.792-10.706-10.706  c0-5.921,4.79-10.708,10.706-10.708C150.056,406.07,154.838,410.854,154.838,416.778z" data-original="#FFFFFF" class="" data-old_color="#ffffff"/><g>
	<path style="fill:#2c3843" d="M144.132,430.093c-7.342,0-13.315-5.972-13.315-13.315s5.972-13.317,13.315-13.317   c7.342,0,13.317,5.975,13.317,13.317S151.474,430.093,144.132,430.093z M144.132,408.681c-4.465,0-8.097,3.633-8.097,8.097   s3.633,8.097,8.097,8.097c4.467,0,8.1-3.633,8.1-8.097S148.596,408.681,144.132,408.681z" data-original="#232E38" class="" data-old_color="#13d389"/>
	<path style="fill:#2c3843" d="M136.559,411.809c-0.668,0-1.334-0.256-1.843-0.76l-12.9-12.895   c-1.019-1.019-1.019-2.673-0.003-3.691c1.019-1.019,2.673-1.016,3.692-0.003l12.897,12.895c1.019,1.019,1.019,2.673,0.003,3.691   C137.898,411.556,137.228,411.809,136.559,411.809z" data-original="#232E38" class="" data-old_color="#13d389"/>
</g><g>
	<rect x="329.3" y="298.08" style="fill:#FFFFFF" width="28.7" height="34.33" data-original="#FFFFFF" class="" data-old_color="#ffffff"/>
	<circle style="fill:#FFFFFF" cx="343.65" cy="152" r="149.39" data-original="#FFFFFF" class="" data-old_color="#ffffff"/>
</g><path style="fill:#9c9c9c" d="M463.159,152c0,66.02-53.494,119.519-119.514,119.519S224.129,218.02,224.129,152  c0-66.015,53.499-119.511,119.516-119.511S463.159,85.985,463.159,152z" data-original="#92DEEB" class="" data-old_color="#13d389"/><g>
	<rect x="315.36" y="362.29" style="fill:#13d389" width="56.58" height="147.1" data-original="#F77B55" class="active-path" data-old_color="#13d389"/>
	<rect x="310.65" y="332.41" style="fill:#13d389" width="65.999" height="29.88" data-original="#F77B55" class="active-path" data-old_color="#13d389"/>
</g><g>
	<path style="fill:#2c3843" d="M357.997,335.014h-28.7c-1.441,0-2.611-1.167-2.611-2.611v-31.964c0-1.441,1.17-2.611,2.611-2.611   c1.444,0,2.611,1.167,2.611,2.611v29.358h23.48v-29.358c0-1.441,1.17-2.611,2.611-2.611c1.444,0,2.611,1.167,2.611,2.611v31.964   C360.605,333.847,359.441,335.014,357.997,335.014z" data-original="#232E38" class="" data-old_color="#13d389"/>
	<path style="fill:#2c3843" d="M343.645,304.005c-83.812,0-152-68.188-152-152.003C191.645,68.188,259.834,0,343.645,0   c83.817,0,152.003,68.188,152.003,152C495.648,235.817,427.465,304.005,343.645,304.005z M343.645,5.22   c-80.932,0-146.78,65.846-146.78,146.78c0,80.937,65.848,146.783,146.78,146.783c80.937,0,146.783-65.848,146.783-146.783   S424.585,5.22,343.645,5.22z" data-original="#232E38" class="" data-old_color="#13d389"/>
	<path style="fill:#2c3843" d="M343.645,274.13c-67.338,0-122.125-54.787-122.125-122.13c0-67.338,54.787-122.12,122.125-122.12   S465.765,84.662,465.765,152C465.765,219.343,410.984,274.13,343.645,274.13z M343.645,35.1   c-64.461,0-116.908,52.442-116.908,116.902c0,64.463,52.447,116.908,116.908,116.908s116.902-52.447,116.902-116.908   S408.106,35.1,343.645,35.1z" data-original="#232E38" class="" data-old_color="#13d389"/>
	<path style="fill:#2c3843" d="M371.931,512h-56.576c-1.441,0-2.611-1.167-2.611-2.611V362.291c0-1.441,1.17-2.611,2.611-2.611   h56.576c1.444,0,2.611,1.167,2.611,2.611v147.1C374.542,510.833,373.377,512,371.931,512z M317.964,506.78h51.359V364.9h-51.359   V506.78L317.964,506.78z" data-original="#232E38" class="" data-old_color="#13d389"/>
	<path style="fill:#2c3843" d="M376.646,364.9h-65.999c-1.444,0-2.611-1.167-2.611-2.611v-29.88c0-1.444,1.165-2.611,2.611-2.611   h65.999c1.444,0,2.611,1.165,2.611,2.611v29.88C379.255,363.732,378.09,364.9,376.646,364.9z M313.256,359.68h60.78v-24.663h-60.78   V359.68L313.256,359.68z" data-original="#232E38" class="" data-old_color="#13d389"/>
</g><path style="fill:#FFFFFF" d="M428.765,161.449v-18.903h-14.938c-0.809-6.098-2.388-11.963-4.654-17.459l12.902-7.46l-9.441-16.364  l-12.928,7.46c-3.694-4.787-7.99-9.085-12.782-12.78l7.455-12.938l-16.358-9.449l-7.444,12.913  c-5.512-2.278-11.366-3.86-17.487-4.675V66.88H334.2v14.917c-6.108,0.812-11.976,2.399-17.475,4.669l-7.462-12.913l-16.361,9.449  l7.457,12.933c-4.782,3.699-9.078,7.997-12.772,12.785l-12.928-7.46l-9.449,16.364l12.91,7.455  c-2.273,5.504-3.858,11.369-4.659,17.467h-14.93v18.903h14.922c0.809,6.108,2.401,11.973,4.675,17.487l-12.918,7.444l9.449,16.361  l12.928-7.46c3.699,4.785,8.003,9.08,12.79,12.78l-7.462,12.941l16.348,9.441l7.462-12.923c5.512,2.271,11.366,3.855,17.475,4.664  v14.932h18.89v-14.932c6.113-0.809,11.968-2.391,17.48-4.662l7.452,12.918l16.357-9.44l-7.462-12.946  c4.8-3.697,9.096-7.997,12.797-12.785l12.92,7.468l9.454-16.361l-12.915-7.452c2.268-5.509,3.845-11.377,4.659-17.482h14.932v0.007  H428.765z M343.645,198.344c-25.592,0-46.344-20.749-46.344-46.344c0-25.592,20.749-46.336,46.344-46.336  s46.336,20.744,46.336,46.336C389.981,177.595,369.238,198.344,343.645,198.344z" data-original="#FFFFFF" class="" data-old_color="#ffffff"/><path style="fill:#2c3843" d="M353.089,239.731h-18.89c-1.446,0-2.611-1.167-2.611-2.611v-12.682  c-4.698-0.771-9.3-1.999-13.724-3.663l-6.344,10.975c-0.348,0.599-0.916,1.037-1.582,1.219c-0.673,0.182-1.388,0.084-1.979-0.261  l-16.348-9.441c-1.247-0.722-1.679-2.319-0.96-3.566l6.341-10.995c-3.666-3.018-7.03-6.38-10.048-10.035l-10.977,6.339  c-1.254,0.722-2.844,0.294-3.571-0.957l-9.446-16.364c-0.348-0.599-0.445-1.311-0.266-1.979c0.179-0.673,0.617-1.242,1.219-1.587  l10.967-6.321c-1.661-4.436-2.893-9.037-3.666-13.74h-12.675c-1.441,0-2.611-1.167-2.611-2.611v-18.903  c0-1.441,1.167-2.611,2.611-2.611h12.675c0.773-4.7,2.002-9.298,3.666-13.719l-10.967-6.328c-0.599-0.348-1.037-0.919-1.219-1.587  s-0.082-1.38,0.266-1.979l9.446-16.361c0.724-1.244,2.314-1.679,3.571-0.957l10.977,6.339c3.013-3.661,6.369-7.022,10.03-10.04  l-6.336-10.99c-0.719-1.247-0.287-2.844,0.96-3.566l16.361-9.449c1.247-0.717,2.836-0.297,3.564,0.957l6.336,10.962  c4.426-1.661,9.029-2.89,13.732-3.666v-12.67c0-1.441,1.162-2.609,2.611-2.609h18.89c1.444,0,2.611,1.167,2.611,2.609v12.664  c4.708,0.776,9.311,2.004,13.737,3.668l6.323-10.962c0.348-0.599,0.917-1.039,1.59-1.219s1.38-0.084,1.979,0.261l16.358,9.449  c1.249,0.722,1.674,2.314,0.955,3.566l-6.336,10.99c3.661,3.008,7.025,6.374,10.043,10.04l10.977-6.339  c0.599-0.346,1.316-0.44,1.979-0.261c0.673,0.179,1.242,0.62,1.59,1.219l9.441,16.361c0.719,1.249,0.292,2.844-0.955,3.569  l-10.959,6.331c1.656,4.406,2.88,9.001,3.656,13.716h12.687c1.441,0,2.611,1.167,2.611,2.611v18.903c0,1.441-1.17,2.611-2.611,2.611  h-12.682c-0.781,4.718-2.002,9.324-3.661,13.734l10.967,6.326c0.599,0.346,1.037,0.919,1.219,1.587s0.082,1.382-0.259,1.979  l-9.454,16.364c-0.348,0.599-0.917,1.037-1.59,1.219c-0.673,0.184-1.38,0.084-1.979-0.261l-10.972-6.346  c-3.023,3.671-6.395,7.037-10.053,10.043l6.341,10.998c0.719,1.252,0.294,2.847-0.955,3.566l-16.358,9.441  c-0.599,0.348-1.321,0.438-1.979,0.261c-0.673-0.179-1.242-0.617-1.59-1.219l-6.331-10.972c-4.426,1.661-9.027,2.888-13.729,3.663  v12.68C355.698,238.564,354.533,239.731,353.089,239.731z M336.805,234.511h13.673V222.19c0-1.311,0.973-2.417,2.268-2.588  c5.809-0.771,11.469-2.281,16.827-4.488c1.206-0.492,2.604-0.026,3.256,1.111l6.149,10.657l11.835-6.833l-6.159-10.685  c-0.655-1.134-0.369-2.573,0.671-3.372c4.603-3.548,8.748-7.69,12.321-12.314c0.799-1.032,2.237-1.313,3.372-0.666l10.66,6.164  l6.838-11.84l-10.652-6.147c-1.134-0.653-1.61-2.045-1.111-3.256c2.199-5.33,3.707-10.993,4.488-16.829  c0.172-1.298,1.283-2.263,2.591-2.263h12.321V145.16h-12.326c-1.308,0-2.412-0.968-2.586-2.266  c-0.781-5.832-2.289-11.487-4.483-16.809c-0.504-1.208-0.031-2.601,1.106-3.256l10.639-6.152l-6.833-11.84l-10.66,6.154  c-1.132,0.658-2.573,0.366-3.369-0.666c-3.566-4.616-7.711-8.758-12.311-12.311c-1.037-0.799-1.329-2.237-0.673-3.372l6.154-10.675  l-11.835-6.838l-6.144,10.652c-0.66,1.134-2.058,1.6-3.256,1.108c-5.363-2.214-11.026-3.727-16.832-4.498  c-1.295-0.174-2.268-1.28-2.268-2.588V69.501h-13.673V81.81c0,1.308-0.97,2.414-2.268,2.588c-5.806,0.773-11.464,2.286-16.819,4.495  c-1.213,0.494-2.604,0.028-3.256-1.108l-6.154-10.652l-11.843,6.838l6.154,10.67c0.655,1.132,0.374,2.57-0.66,3.369  c-4.613,3.571-8.753,7.711-12.311,12.316c-0.799,1.029-2.237,1.324-3.369,0.666l-10.668-6.154l-6.838,11.84l10.652,6.149  c1.134,0.653,1.61,2.048,1.106,3.256c-2.207,5.353-3.72,11.008-4.488,16.812c-0.166,1.298-1.277,2.268-2.586,2.268h-12.321v13.683  h12.316c1.311,0,2.417,0.968,2.593,2.268c0.768,5.801,2.281,11.466,4.493,16.832c0.499,1.213,0.026,2.604-1.111,3.256l-10.652,6.139  l6.838,11.84l10.668-6.154c1.126-0.655,2.573-0.364,3.369,0.663c3.566,4.603,7.711,8.748,12.321,12.314  c1.032,0.801,1.321,2.24,0.666,3.372l-6.159,10.678l11.83,6.833l6.154-10.66c0.66-1.137,2.045-1.608,3.256-1.111  c5.363,2.209,11.021,3.722,16.819,4.49c1.298,0.174,2.268,1.28,2.268,2.588v12.319h0.002V234.511z M343.645,200.955  c-26.99,0-48.952-21.96-48.952-48.952c0-26.988,21.962-48.945,48.952-48.945s48.945,21.957,48.945,48.945  C392.59,178.993,370.636,200.955,343.645,200.955z M343.645,108.275c-24.11,0-43.732,19.617-43.732,43.727  c0,24.113,19.622,43.732,43.732,43.732s43.727-19.62,43.727-43.732C387.373,127.892,367.756,108.275,343.645,108.275z" data-original="#232E38" class="" data-old_color="#13d389"/></g> </svg>
