<?xml version="1.0"?>
<svg xmlns="http://www.w3.org/2000/svg" xmlns:xlink="http://www.w3.org/1999/xlink" version="1.1" id="Capa_1" x="0px" y="0px" viewBox="-45 -45 562 562" style="enable-background:new 0 0 472 472;" xml:space="preserve" width="312px" height="312px" class="">
	<g>
		<g>
			<rect x="84" y="120" style="fill:#2c3843" width="16" height="40" data-original="#403E3E" class="" data-old_color="#2c3843"/>
			<rect x="372" y="120" style="fill:#2c3843" width="16" height="40" data-original="#403E3E" class="" data-old_color="#2c3843"/>
			<rect x="84" y="272" style="fill:#2c3843" width="16" height="40" data-original="#403E3E" class="" data-old_color="#2c3843"/>
			<rect x="372" y="272" style="fill:#2c3843" width="16" height="40" data-original="#403E3E" class="" data-old_color="#2c3843"/>
			<rect x="84" y="424" style="fill:#2c3843" width="16" height="48" data-original="#403E3E" class="" data-old_color="#2c3843"/>
			<rect x="372" y="424" style="fill:#2c3843" width="16" height="48" data-original="#403E3E" class="" data-old_color="#2c3843"/>
			<rect x="132" y="456" style="fill:#2c3843" width="208" height="16" data-original="#403E3E" class="" data-old_color="#2c3843"/>
		</g><path style="fill:#9c9c9c" d="M420,128H52V0h368V128z M68,112h336V16H68V112z" data-original="#43D3E8" class="" data-old_color="#9c9c9c"/><path
			style="fill:#13d389"
			d="M364,88c-13.232,0-24-10.768-24-24s10.768-24,24-24s24,10.768,24,24S377.232,88,364,88z M364,56  c-4.416,0-8,3.592-8,8s3.584,8,8,8s8-3.592,8-8S368.416,56,364,56z"
			data-original="#F96232"
			class="active-path"
			data-old_color="#13d389"/>
		<g>
			<rect x="308" y="40" style="fill:#2c3843" width="16" height="16" data-original="#403E3E" class="" data-old_color="#2c3843"/>
			<rect x="276" y="40" style="fill:#2c3843" width="16" height="16" data-original="#403E3E" class="" data-old_color="#2c3843"/>
			<rect x="244" y="40" style="fill:#2c3843" width="16" height="16" data-original="#403E3E" class="" data-old_color="#2c3843"/>
			<rect x="308" y="72" style="fill:#2c3843" width="16" height="16" data-original="#403E3E" class="" data-old_color="#2c3843"/>
			<rect x="276" y="72" style="fill:#2c3843" width="16" height="16" data-original="#403E3E" class="" data-old_color="#2c3843"/>
			<rect x="244" y="72" style="fill:#2c3843" width="16" height="16" data-original="#403E3E" class="" data-old_color="#2c3843"/>
			<rect x="116" y="40" style="fill:#2c3843" width="16" height="48" data-original="#403E3E" class="" data-old_color="#2c3843"/>
			<rect x="84" y="40" style="fill:#2c3843" width="16" height="48" data-original="#403E3E" class="" data-old_color="#2c3843"/>
			<rect x="148" y="40" style="fill:#2c3843" width="16" height="48" data-original="#403E3E" class="" data-old_color="#2c3843"/>
		</g><path style="fill:#9c9c9c" d="M420,280H52V152h368V280z M68,264h336v-96H68V264z" data-original="#43D3E8" class="" data-old_color="#9c9c9c"/><path
			style="fill:#13d389"
			d="M364,240c-13.232,0-24-10.768-24-24s10.768-24,24-24s24,10.768,24,24S377.232,240,364,240z M364,208  c-4.416,0-8,3.592-8,8s3.584,8,8,8s8-3.592,8-8S368.416,208,364,208z"
			data-original="#F96232"
			class="active-path"
			data-old_color="#13d389"/>
		<g>
			<rect x="308" y="192" style="fill:#2c3843" width="16" height="16" data-original="#403E3E" class="" data-old_color="#2c3843"/>
			<rect x="276" y="192" style="fill:#2c3843" width="16" height="16" data-original="#403E3E" class="" data-old_color="#2c3843"/>
			<rect x="244" y="192" style="fill:#2c3843" width="16" height="16" data-original="#403E3E" class="" data-old_color="#2c3843"/>
			<rect x="308" y="224" style="fill:#2c3843" width="16" height="16" data-original="#403E3E" class="" data-old_color="#2c3843"/>
			<rect x="276" y="224" style="fill:#2c3843" width="16" height="16" data-original="#403E3E" class="" data-old_color="#2c3843"/>
			<rect x="244" y="224" style="fill:#2c3843" width="16" height="16" data-original="#403E3E" class="" data-old_color="#2c3843"/>
			<rect x="116" y="192" style="fill:#2c3843" width="16" height="48" data-original="#403E3E" class="" data-old_color="#2c3843"/>
			<rect x="84" y="192" style="fill:#2c3843" width="16" height="48" data-original="#403E3E" class="" data-old_color="#2c3843"/>
			<rect x="148" y="192" style="fill:#2c3843" width="16" height="48" data-original="#403E3E" class="" data-old_color="#2c3843"/>
		</g><path style="fill:#9c9c9c" d="M420,432H52V304h368V432z M68,416h336v-96H68V416z" data-original="#43D3E8" class="" data-old_color="#9c9c9c"/><path
			style="fill:#13d389"
			d="M364,392c-13.232,0-24-10.768-24-24s10.768-24,24-24s24,10.768,24,24S377.232,392,364,392z M364,360  c-4.416,0-8,3.584-8,8s3.584,8,8,8s8-3.584,8-8S368.416,360,364,360z"
			data-original="#F96232"
			class="active-path"
			data-old_color="#13d389"/>
		<g>
			<rect x="308" y="344" style="fill:#2c3843" width="16" height="16" data-original="#403E3E" class="" data-old_color="#2c3843"/>
			<rect x="276" y="344" style="fill:#2c3843" width="16" height="16" data-original="#403E3E" class="" data-old_color="#2c3843"/>
			<rect x="244" y="344" style="fill:#2c3843" width="16" height="16" data-original="#403E3E" class="" data-old_color="#2c3843"/>
			<rect x="308" y="376" style="fill:#2c3843" width="16" height="16" data-original="#403E3E" class="" data-old_color="#2c3843"/>
			<rect x="276" y="376" style="fill:#2c3843" width="16" height="16" data-original="#403E3E" class="" data-old_color="#2c3843"/>
			<rect x="244" y="376" style="fill:#2c3843" width="16" height="16" data-original="#403E3E" class="" data-old_color="#2c3843"/>
			<rect x="116" y="344" style="fill:#2c3843" width="16" height="48" data-original="#403E3E" class="" data-old_color="#2c3843"/>
			<rect x="84" y="344" style="fill:#2c3843" width="16" height="48" data-original="#403E3E" class="" data-old_color="#2c3843"/>
			<rect x="148" y="344" style="fill:#2c3843" width="16" height="48" data-original="#403E3E" class="" data-old_color="#2c3843"/>
		</g>
	</g>
</svg>
