<?xml version="1.0"?>
<svg xmlns="http://www.w3.org/2000/svg" xmlns:xlink="http://www.w3.org/1999/xlink" version="1.1" id="Capa_1" x="0px" y="0px" viewBox="0 0 512 512" style="enable-background:new 0 0 512 512;" xml:space="preserve" width="512px" height="512px" class=""><g><polygon style="fill:#2c3843" points="400,332 224,332 224,316 384,316 384,92 64,92 64,268 48,268 48,76 400,76 " data-original="#403E3E" class="" data-old_color="#2c3843"/><g>
	<polygon style="fill:#13d389" points="354.344,297.656 248,191.312 205.656,233.656 194.344,222.344 248,168.688 365.656,286.344     " data-original="#43D3E8" class="" data-old_color="#13d389"/>
	<polygon style="fill:#13d389" points="133.656,273.656 122.344,262.344 184,200.688 229.656,246.344 218.344,257.656 184,223.312     " data-original="#43D3E8" class="" data-old_color="#13d389"/>
	<path style="fill:#13d389" d="M184,192c-15.44,0-28-12.56-28-28s12.56-28,28-28s28,12.56,28,28S199.44,192,184,192z M184,152   c-6.616,0-12,5.384-12,12s5.384,12,12,12s12-5.384,12-12S190.616,152,184,152z" data-original="#43D3E8" class="" data-old_color="#13d389"/>
	<polygon style="fill:#13d389" points="368,300 224,300 224,284 352,284 352,124 96,124 96,268 80,268 80,108 368,108  " data-original="#43D3E8" class="" data-old_color="#13d389"/>
</g><g>
	<path style="fill:#9c9c9c" d="M208,444H0V284h208V444z M16,428h176V300H16V428z" data-original="#F96232" class="active-path" data-old_color="#9c9c9c"/>
	<path style="fill:#9c9c9c" d="M90.216,396H72v-64h18.216l53.336,32L90.216,396z M88,349.328v29.344L112.448,364L88,349.328z" data-original="#F96232" class="active-path" data-old_color="#9c9c9c"/>
</g><g>
	<rect x="416" y="188" style="fill:#2c3843" width="64" height="16" data-original="#403E3E" class="" data-old_color="#2c3843"/>
	<rect x="416" y="220" style="fill:#2c3843" width="64" height="16" data-original="#403E3E" class="" data-old_color="#2c3843"/>
	<rect x="416" y="252" style="fill:#2c3843" width="64" height="16" data-original="#403E3E" class="" data-old_color="#2c3843"/>
	<rect x="416" y="284" style="fill:#2c3843" width="64" height="16" data-original="#403E3E" class="" data-old_color="#2c3843"/>
	<rect x="416" y="316" style="fill:#2c3843" width="64" height="16" data-original="#403E3E" class="" data-old_color="#2c3843"/>
	<rect x="272" y="348" style="fill:#2c3843" width="208" height="16" data-original="#403E3E" class="" data-old_color="#2c3843"/>
	<rect x="272" y="380" style="fill:#2c3843" width="208" height="16" data-original="#403E3E" class="" data-old_color="#2c3843"/>
	<rect x="272" y="412" style="fill:#2c3843" width="208" height="16" data-original="#403E3E" class="" data-old_color="#2c3843"/>
	<rect x="272" y="444" style="fill:#2c3843" width="128" height="16" data-original="#403E3E" class="" data-old_color="#2c3843"/>
</g><polygon style="fill:#13d389" points="512,492 240,492 240,348 256,348 256,476 496,476 496,172 416,172 416,156 512,156 " data-original="#43D3E8" class="" data-old_color="#13d389"/><rect x="352" y="20" style="fill:#2c3843" width="16" height="16" data-original="#403E3E" class="" data-old_color="#2c3843"/><g>
	<path style="fill:#9c9c9c" d="M496,108h-80V28h80V108z M432,92h48V44h-48V92z" data-original="#F96232" class="active-path" data-old_color="#9c9c9c"/>
	<rect x="448" y="60" style="fill:#9c9c9c" width="16" height="16" data-original="#F96232" class="active-path" data-old_color="#9c9c9c"/>
</g><g>
	<polygon style="fill:#2c3843" points="32,116 16,116 16,44 88,44 88,60 32,60  " data-original="#403E3E" class="" data-old_color="#2c3843"/>
	<rect x="104" y="44" style="fill:#2c3843" width="16" height="16" data-original="#403E3E" class="" data-old_color="#2c3843"/>
	<rect x="136" y="44" style="fill:#2c3843" width="16" height="16" data-original="#403E3E" class="" data-old_color="#2c3843"/>
	<rect x="160" y="476" style="fill:#2c3843" width="16" height="16" data-original="#403E3E" class="" data-old_color="#2c3843"/>
	<rect x="128" y="476" style="fill:#2c3843" width="16" height="16" data-original="#403E3E" class="" data-old_color="#2c3843"/>
	<rect x="192" y="476" style="fill:#2c3843" width="16" height="16" data-original="#403E3E" class="" data-old_color="#2c3843"/>
</g></g> </svg>
