<?xml version="1.0"?>
<svg xmlns="http://www.w3.org/2000/svg" xmlns:xlink="http://www.w3.org/1999/xlink" version="1.1" id="Capa_1" x="0px" y="0px" viewBox="0 0 496.007 496.007" style="enable-background:new 0 0 496.007 496.007;" xml:space="preserve" width="512px" height="512px" class=""><g><path style="fill:#2c3843" d="M104.003,248.007h-16c0-88.224,71.776-160,160-160c4.416,0,8,3.584,8,8v20.688l44.688-44.688  l-44.688-44.688v20.688c0,4.416-3.584,8-8,8c-105.864,0-192,86.136-192,192h-16c0-112.008,89-203.624,200-207.848V8.007  c0-3.232,1.952-6.152,4.936-7.392c2.992-1.248,6.424-0.56,8.72,1.736l64,64c3.128,3.128,3.128,8.184,0,11.312l-64,64  c-2.296,2.28-5.728,2.968-8.72,1.736c-2.984-1.24-4.936-4.16-4.936-7.392v-31.784C164.307,108.391,104.003,171.287,104.003,248.007z  " data-original="#43D3E8" class="" data-old_color="#2c3843"/><path style="fill:#13d389" d="M248.003,496.007c-2.08,0-4.128-0.816-5.656-2.344l-64-64c-3.128-3.128-3.128-8.184,0-11.312l64-64  c2.288-2.296,5.712-2.992,8.72-1.736c2.984,1.232,4.936,4.16,4.936,7.392v31.784c75.696-4.168,136-67.064,136-143.784h16  c0,88.224-71.776,160-160,160c-4.416,0-8-3.576-8-8v-20.688l-44.688,44.688l44.688,44.688v-20.688c0-4.424,3.584-8,8-8  c105.864,0,192-86.136,192-192h16c0,112.008-89.008,203.624-200,207.848v32.152c0,3.232-1.952,6.16-4.936,7.392  C250.075,495.815,249.035,496.007,248.003,496.007z" data-original="#F96232" class="" data-old_color="#13d389"/><g>
	<rect x="64.003" y="352.007" style="fill:#9c9c9c" width="16" height="16" data-original="#403E3E" class="active-path" data-old_color="#9c9c9c"/>
	<rect x="64.003" y="384.007" style="fill:#9c9c9c" width="16" height="16" data-original="#403E3E" class="active-path" data-old_color="#9c9c9c"/>
	<rect x="64.003" y="416.007" style="fill:#9c9c9c" width="16" height="16" data-original="#403E3E" class="active-path" data-old_color="#9c9c9c"/>
	<rect x="416.003" y="64.007" style="fill:#9c9c9c" width="16" height="16" data-original="#403E3E" class="active-path" data-old_color="#9c9c9c"/>
	<rect x="416.003" y="96.007" style="fill:#9c9c9c" width="16" height="16" data-original="#403E3E" class="active-path" data-old_color="#9c9c9c"/>
	<rect x="416.003" y="128.007" style="fill:#9c9c9c" width="16" height="16" data-original="#403E3E" class="active-path" data-old_color="#9c9c9c"/>
	<path style="fill:#9c9c9c" d="M248.003,280.007c-17.648,0-32-14.352-32-32s14.352-32,32-32s32,14.352,32,32   S265.651,280.007,248.003,280.007z M248.003,232.007c-8.824,0-16,7.176-16,16s7.176,16,16,16s16-7.176,16-16   S256.827,232.007,248.003,232.007z" data-original="#403E3E" class="active-path" data-old_color="#9c9c9c"/>
	<path style="fill:#9c9c9c" d="M248.003,336.007c-48.52,0-88-39.48-88-88s39.48-88,88-88s88,39.48,88,88   S296.523,336.007,248.003,336.007z M248.003,176.007c-39.696,0-72,32.304-72,72c0,39.704,32.304,72,72,72c39.704,0,72-32.296,72-72   C320.003,208.311,287.707,176.007,248.003,176.007z" data-original="#403E3E" class="active-path" data-old_color="#9c9c9c"/>
</g></g> </svg>
