<svg id="Ebene_1" data-name="Ebene 1" xmlns="http://www.w3.org/2000/svg" viewBox="0 0 90 90"><defs><style>.cls-1,.cls-2{fill:none;stroke-width:3px;}.cls-1{stroke:#ffdc00;stroke-miterlimit:10;}.cls-2{stroke:#9c9c9c;stroke-linecap:round;stroke-linejoin:round;}</style></defs><title>icon</title><path class="cls-1" d="M22.61,66.65c3.64-2.52,10.83-4.78,16.91-7.09V52.72s-4.11-1.37-4.11-8.22c-2.26,0-2.26-5.48,0-5.48,0-.92-4.11-11,2.74-9.59C39.52,24,54.59,24,56,29.43c.95,3.8-1.37,8.91-1.37,9.59,2.26,0,2.26,5.48,0,5.48,0,6.85-4.11,8.22-4.11,8.22v6.85c6.72,2.52,13.38,4.61,16.85,7"/><path class="cls-2" d="M67.33,66.56l.09.06a31.5,31.5,0,1,0-44.81,0"/><path class="cls-2" d="M22.61,66.65a31.49,31.49,0,0,0,44.81,0"/></svg>