<?xml version="1.0"?>
<svg xmlns="http://www.w3.org/2000/svg" xmlns:xlink="http://www.w3.org/1999/xlink" version="1.1" id="Capa_1" x="0px" y="0px" viewBox="0 0 512 512" style="enable-background:new 0 0 512 512;" xml:space="preserve" width="512px" height="512px" class="">
  <g><circle style="fill:#ffffff" cx="256" cy="100.48" r="90.48" data-original="#FE6663" class="active-path" data-old_color="#13d389"/><path style="fill:#9c9c9c" d="M118.795,417.17h-53.59C34.716,417.17,10,441.886,10,472.375V502h164v-29.625  C174,441.886,149.284,417.17,118.795,417.17z" data-original="#FFBC53" class="" data-old_color="#9c9c9c"/><polygon style="fill:#FFFFFF;" points="122.589,417.17 92,447.759 61.411,417.17 " data-original="#FFFFFF" class=""/><path style="fill:#9c9c9c" d="M83.388,321h44.692v22.179c0,11.504-9.326,20.829-20.829,20.829H55.92v-15.54  C55.92,333.298,68.218,321,83.388,321z" data-original="#5CC1FF" class="" data-old_color="#9c9c9c"/><path style="fill:#FFCDAC" d="M128.08,364.008v17.082c0,19.926-16.154,36.08-36.08,36.08l0,0c-19.926,0-36.08-16.154-36.08-36.08  v-17.082L128.08,364.008L128.08,364.008z" data-original="#FFCDAC" class="" data-old_color="#FFFFFF"/><path style="fill:#FFFFFF" d="M446.795,417.17h-53.59c-30.489,0-55.205,24.716-55.205,55.205V502h164v-29.625  C502,441.886,477.284,417.17,446.795,417.17z" data-original="#7ACCFF" class="" data-old_color="#ffffff"/><polygon style="fill:#FFFFFF;" points="450.589,417.17 420,447.759 389.411,417.17 " data-original="#FFFFFF" class=""/><path style="fill:#9c9c9c" d="M411.388,321h44.692v22.179c0,11.504-9.326,20.829-20.829,20.829H383.92v-15.54  C383.92,333.298,396.218,321,411.388,321z" data-original="#5CC1FF" class="" data-old_color="#9c9c9c"/><path style="fill:#FFCDAC" d="M456.08,364.008v17.082c0,19.926-16.154,36.08-36.08,36.08l0,0c-19.926,0-36.08-16.154-36.08-36.08  v-17.082L456.08,364.008L456.08,364.008z" data-original="#FFCDAC" class="" data-old_color="#FFFFFF"/><path style="fill:#13d389" d="M292.417,386.706h-72.835c-41.438,0-75.03,33.592-75.03,75.03V502h222.895v-40.264  C367.448,420.298,333.855,386.706,292.417,386.706z" data-original="#95E540" class="" data-old_color="#13d389"/><polygon style="fill:#FFFFFF;" points="297.574,386.706 256,428.28 214.426,386.706 " data-original="#FFFFFF" class=""/><path style="fill:#9c9c9c" d="M244.295,256h60.742v30.144c0,15.635-12.675,28.309-28.309,28.309h-69.764v-21.121  C206.963,272.714,223.677,256,244.295,256z" data-original="#FFBC53" class="" data-old_color="#9c9c9c"/><path style="fill:#FFCDAC" d="M305.037,314.453v23.216c0,27.082-21.955,49.037-49.037,49.037l0,0  c-27.082,0-49.037-21.955-49.037-49.037v-23.216H305.037z" data-original="#FFCDAC" class="" data-old_color="#FFFFFF"/>
  <path style="fill:#2c3843"
    d="M457.345,408.036c5.488-7.584,8.735-16.891,8.735-26.946V321c0-5.523-4.478-10-10-10h-44.692  c-20.66,0-37.468,16.808-37.468,37.468v32.622c0,10.049,3.243,19.349,8.724,26.931c-6.836,1.109-13.413,3.299-19.547,6.505  c-13.894-20.732-36.657-35.03-62.815-37.442c-0.102-0.029-0.206-0.05-0.309-0.075c9.359-10.451,15.064-24.239,15.064-39.339V256  c0-5.523-4.478-10-10-10h-60.742c-26.099,0-47.332,21.233-47.332,47.332v44.337c0,15.1,5.705,28.888,15.064,39.339  c-0.103,0.025-0.207,0.047-0.309,0.075c-26.161,2.412-48.925,16.712-62.818,37.447c-6.136-3.205-12.714-5.397-19.547-6.506  c5.482-7.582,8.727-16.884,8.727-26.934V321c0-5.523-4.478-10-10-10H83.388c-20.66,0-37.468,16.808-37.468,37.468v32.622  c0,10.056,3.247,19.362,8.735,26.946C23.702,413.095,0,440.014,0,472.375V502c0,5.523,4.478,10,10,10h492c5.522,0,10-4.477,10-10  v-29.625C512,440.014,488.298,413.095,457.345,408.036z M446.08,381.09c0,14.38-11.699,26.08-26.08,26.08s-26.08-11.7-26.08-26.08  v-7.082h41.331c3.81,0,7.458-0.699,10.829-1.969L446.08,381.09L446.08,381.09z M426.447,427.17L420,433.617l-6.447-6.447H426.447z   M393.92,348.468c0-9.632,7.836-17.468,17.468-17.468h34.692v12.179c0,5.972-4.858,10.83-10.829,10.83H393.92V348.468z   M216.963,324.453h59.765c6.627,0,12.867-1.693,18.31-4.667v17.884c0,21.525-17.512,39.037-39.037,39.037  s-39.037-17.512-39.037-39.037v-13.217H216.963z M273.432,396.706L256,414.138l-17.432-17.432H273.432z M216.963,293.332  c0-15.071,12.261-27.332,27.332-27.332h50.742v20.144c0,10.096-8.214,18.31-18.31,18.31h-59.765v-11.122H216.963z M118.08,381.09  c0,14.38-11.699,26.08-26.08,26.08s-26.08-11.7-26.08-26.08v-7.082h41.331c3.81,0,7.458-0.699,10.829-1.969V381.09z M98.447,427.17  L92,433.617l-6.447-6.447H98.447z M65.92,348.468c0-9.632,7.836-17.468,17.468-17.468h34.692v12.179  c0,5.972-4.858,10.83-10.829,10.83H65.92V348.468z M20,472.375c0-22.429,16.423-41.087,37.873-44.601l27.056,27.056  c1.876,1.875,4.419,2.929,7.071,2.929s5.195-1.054,7.071-2.929l27.064-27.065c4.78,0.778,9.377,2.319,13.661,4.573  c-3.388,9.166-5.244,19.069-5.244,29.398V492H20V472.375z M338,492H174h-19.447v-20h65.114c5.522,0,10-4.477,10-10s-4.478-10-10-10  h-64.383c4.286-28.421,27.036-50.856,55.599-54.695l38.046,38.046c1.953,1.953,4.512,2.929,7.071,2.929  c2.559,0,5.118-0.976,7.071-2.929l38.046-38.046c31.756,4.268,56.33,31.525,56.33,64.431V492H338z M492,492H377.447v-30.264  c0-10.33-1.856-20.233-5.245-29.4c4.282-2.256,8.878-3.796,13.659-4.573l27.067,27.067c1.876,1.875,4.419,2.929,7.071,2.929  s5.195-1.054,7.071-2.929l27.056-27.056c21.45,3.515,37.873,22.172,37.873,44.601L492,492L492,492z"
    data-original="#000000"
    class=""/><path style="fill:#13d389"
    d="M206.716,93.195c-3.905,3.905-3.905,10.237,0,14.143L235,135.622c1.876,1.875,4.419,2.929,7.071,2.929  s5.195-1.054,7.071-2.929l56.142-56.142c3.905-3.905,3.905-10.237,0-14.142c-3.906-3.905-10.236-3.905-14.143,0l-49.07,49.071  l-21.213-21.213C216.952,89.29,210.622,89.29,206.716,93.195z"
    data-original="#000000"
    class=""/><path style="fill:#13d389"
    d="M256,200.959c55.404,0,100.479-45.075,100.479-100.479c0-39.627-23.391-75.664-59.591-91.808  c-5.043-2.249-10.956,0.016-13.206,5.06s0.016,10.957,5.06,13.206c28.999,12.933,47.737,41.8,47.737,73.542  c0,44.376-36.103,80.479-80.479,80.479s-80.479-36.103-80.479-80.479c0-31.578,18.603-60.385,47.393-73.388  c5.033-2.273,7.271-8.197,4.997-13.23c-2.273-5.034-8.2-7.271-13.229-4.998c-35.938,16.232-59.16,52.193-59.16,91.615  C155.521,155.884,200.596,200.959,256,200.959z"
    data-original="#000000"
    class=""/><path style="fill:#13d389" d="M256,20h0.264c0.016,0,0.031,0,0.048,0c5.501,0,9.973-4.446,9.999-9.953c0.026-5.523-4.43-10.021-9.953-10.047H256  c-5.522,0-10,4.477-10,10S250.478,20,256,20z" data-original="#000000" class=""/>
    <path style="fill:#2c3843"
    d="M256,452c-2.63,0-5.21,1.07-7.07,2.93S246,459.37,246,462s1.069,5.21,2.93,7.07S253.37,472,256,472s5.21-1.07,7.069-2.93  c1.86-1.86,2.931-4.44,2.931-7.07s-1.07-5.21-2.931-7.07C261.21,453.07,258.63,452,256,452z"
    data-original="#000000"
    class=""/></g>
</svg>
