<svg id="Ebene_1" data-name="Ebene 1" xmlns="http://www.w3.org/2000/svg" viewBox="0 0 90 90"><defs><style>.cls-1,.cls-2{fill:none;stroke-linecap:round;stroke-linejoin:round;stroke-width:3px;}.cls-1{stroke:#9c9c9c;}.cls-2{stroke:#ffdc00;}</style></defs><title>icon</title><path class="cls-1" d="M26.93,35.25A2.78,2.78,0,0,0,29.71,38h2.78l8.34,8.34V38H60.3a2.78,2.78,0,0,0,2.78-2.78V15.78A2.78,2.78,0,0,0,60.3,13H29.71a2.78,2.78,0,0,0-2.78,2.78Z"/><circle class="cls-1" cx="65.86" cy="50.58" r="6.95"/><path class="cls-1" d="M77,68.66H54.73a11.12,11.12,0,1,1,22.25,0Z"/><circle class="cls-1" cx="24.15" cy="50.58" r="6.95"/><path class="cls-1" d="M35.27,68.66H13a11.12,11.12,0,1,1,22.25,0Z"/><circle class="cls-1" cx="45" cy="58.92" r="6.95"/><path class="cls-1" d="M56.12,77H33.88a11.12,11.12,0,1,1,22.25,0Z"/><line class="cls-2" x1="35.27" y1="18.56" x2="54.65" y2="18.56"/><line class="cls-2" x1="35.27" y1="24.12" x2="54.65" y2="24.12"/><line class="cls-2" x1="35.27" y1="29.69" x2="54.65" y2="29.69"/></svg>