<?xml version="1.0" encoding="utf-8"?>
<!-- Generator: Adobe Illustrator 18.1.1, SVG Export Plug-In . SVG Version: 6.00 Build 0)  -->
<svg version="1.1" id="Layer_1" xmlns="http://www.w3.org/2000/svg" xmlns:xlink="http://www.w3.org/1999/xlink" x="0px" y="0px"
	 viewBox="0 0 939 459" enable-background="new 0 0 939 459" xml:space="preserve">
<g>
	<path fill="#6D6E71" d="M259.7,117.6v18.3h-2.4v-18.3h-6.7v-2.3h15.8v2.3H259.7z"/>
	<path fill="#6D6E71" d="M292.6,135.9v-9.1h-12.4v9.1h-2.4v-20.6h2.4v9.3h12.4v-9.3h2.4v20.6H292.6z"/>
	<path fill="#6D6E71" d="M311.4,117.6v6.8h10.4v2.3h-10.4v7.1h12v2.2H309v-20.6h14v2.3H311.4z"/>
</g>
<g>
	<g>
		<path fill="#D22128" d="M232.6,277.3l49.3-117.8h9.5l49.3,117.8h-12.4l-15.3-36.8H260l-15.1,36.8H232.6z M286.7,173.1l-24.2,58.2
			h47.8L286.7,173.1z"/>
		<path fill="#D22128" d="M353.3,277.3V159.5h48.8c20.2,0,34.8,18.7,34.8,37c0,19.2-13.6,37.3-33.8,37.3h-38.3v43.5H353.3z
			 M364.8,223.5h37.7c13.9,0,22.9-12.8,22.9-27c0-14.8-10.9-26.7-23.9-26.7h-36.7V223.5z"/>
		<path fill="#D22128" d="M430.5,277.3l49.3-117.8h9.5l49.3,117.8H526l-15.3-36.8h-52.9l-15.1,36.8H430.5z M484.6,173.1l-24.2,58.2
			h47.8L484.6,173.1z"/>
		<path fill="#D22128" d="M594.2,158.8c20.9,0,36.2,10.6,43.5,25.7l-9.3,5.6c-7.5-15.6-22.1-20.9-34.8-20.9
			c-28.2,0-43.6,25.2-43.6,48.9c0,26,19.1,49.6,44.1,49.6c13.3,0,28.9-6.6,36.3-21.9l9.6,5c-7.6,17.6-28.5,27.4-46.6,27.4
			c-32.3,0-55.1-30.9-55.1-60.7C538.3,189.2,558.7,158.8,594.2,158.8z"/>
		<path fill="#D22128" d="M749.1,159.5v117.8h-11.6v-55.1h-69.8v55.1h-11.4V159.5h11.4v52.4h69.8v-52.4H749.1z"/>
		<path fill="#D22128" d="M854.8,267v10.3h-79.1V159.5h77.6v10.3h-66.2v42.5h57.7v9.8h-57.7V267H854.8z"/>
	</g>
</g>
<g>
	<path fill="#6D6E71" d="M243.6,302.2c1.4,0.4,2.6,1,3.7,1.7l-1.2,2.7c-1.1-0.7-2.2-1.2-3.4-1.6c-1.2-0.3-2.4-0.5-3.4-0.5
		c-1.6,0-2.9,0.3-3.8,0.9c-1,0.6-1.4,1.4-1.4,2.4c0,0.9,0.3,1.6,0.8,2.2c0.5,0.6,1.2,1,2,1.4c0.8,0.3,1.9,0.7,3.3,1.1
		c1.7,0.5,3.1,1.1,4.1,1.5c1,0.5,1.9,1.2,2.7,2.1c0.7,0.9,1.1,2.1,1.1,3.7c0,1.4-0.4,2.6-1.1,3.6c-0.7,1-1.8,1.8-3.2,2.4
		c-1.4,0.6-2.9,0.9-4.7,0.9c-1.8,0-3.5-0.3-5.2-1c-1.7-0.7-3.1-1.6-4.3-2.8l1.3-2.5c1.1,1.1,2.4,2,3.9,2.6c1.5,0.6,2.9,0.9,4.3,0.9
		c1.8,0,3.2-0.3,4.3-1c1-0.7,1.6-1.6,1.6-2.8c0-0.9-0.3-1.7-0.8-2.3c-0.5-0.6-1.2-1.1-2-1.4c-0.8-0.3-1.9-0.7-3.3-1.1
		c-1.7-0.5-3-1-4.1-1.4c-1-0.5-1.9-1.1-2.7-2.1c-0.7-0.9-1.1-2.1-1.1-3.6c0-1.3,0.4-2.4,1.1-3.4c0.7-1,1.7-1.7,3-2.3
		c1.3-0.5,2.8-0.8,4.5-0.8C240.8,301.6,242.2,301.8,243.6,302.2z"/>
	<path fill="#6D6E71" d="M280.5,303.3c2,1.1,3.6,2.6,4.7,4.5c1.2,1.9,1.7,4,1.7,6.3c0,2.3-0.6,4.4-1.7,6.3c-1.2,1.9-2.7,3.4-4.7,4.6
		c-2,1.1-4.2,1.7-6.5,1.7c-2.4,0-4.6-0.6-6.6-1.7c-2-1.1-3.6-2.6-4.7-4.6c-1.2-1.9-1.7-4-1.7-6.3c0-2.3,0.6-4.4,1.7-6.3
		c1.2-1.9,2.7-3.4,4.7-4.5c2-1.1,4.2-1.7,6.6-1.7C276.3,301.6,278.5,302.2,280.5,303.3z M268.9,305.6c-1.5,0.9-2.8,2.1-3.7,3.6
		c-0.9,1.5-1.4,3.1-1.4,4.9c0,1.8,0.5,3.5,1.4,5c0.9,1.5,2.2,2.7,3.7,3.6c1.5,0.9,3.2,1.3,5.1,1.3c1.8,0,3.5-0.4,5-1.3
		c1.5-0.9,2.8-2.1,3.7-3.6c0.9-1.5,1.4-3.2,1.4-5s-0.5-3.4-1.4-4.9c-0.9-1.5-2.1-2.7-3.7-3.5c-1.5-0.9-3.2-1.3-5-1.3
		C272.2,304.3,270.5,304.7,268.9,305.6z"/>
	<path fill="#6D6E71" d="M304.9,304.4v8.7h11.6v2.7h-11.6v10.6H302v-24.9h15.8v2.7H304.9z"/>
	<path fill="#6D6E71" d="M340.9,304.4v22.1h-2.8v-22.1H330v-2.7H349v2.7H340.9z"/>
	<path fill="#6D6E71" d="M385.8,326.5l-6.7-20.9l-6.8,20.9h-2.9l-8.3-24.9h3.1l6.8,21.6l6.7-21.5l2.8,0l6.8,21.6l6.7-21.6h2.9
		l-8.3,24.9H385.8z"/>
	<path fill="#6D6E71" d="M411.2,320.3l-2.8,6.3h-3l11.1-24.9h2.9l11.1,24.9h-3.1l-2.8-6.3H411.2z M418,304.9l-5.5,12.6h11.1
		L418,304.9z"/>
	<path fill="#6D6E71" d="M455.3,318.6c-0.7,0-1.3,0.1-1.7,0.1h-6.6v7.9h-2.8v-24.9h9.4c3.1,0,5.5,0.7,7.2,2.2
		c1.7,1.5,2.6,3.5,2.6,6.2c0,2-0.5,3.7-1.4,5.1c-1,1.4-2.3,2.4-4.1,3l5.8,8.4h-3.2L455.3,318.6z M458.9,314.5c1.2-1,1.8-2.5,1.8-4.4
		c0-1.9-0.6-3.3-1.8-4.2c-1.2-1-3-1.4-5.2-1.4h-6.6V316h6.6C455.9,316,457.7,315.5,458.9,314.5z"/>
	<path fill="#6D6E71" d="M482.2,304.4v8.2h12.5v2.7h-12.5v8.5h14.5v2.7h-17.3v-24.9h16.9v2.7H482.2z"/>
	<path fill="#6D6E71" d="M536.3,304.4v8.7h11.6v2.7h-11.6v10.6h-2.8v-24.9h15.8v2.7H536.3z"/>
	<path fill="#6D6E71" d="M580.7,303.3c2,1.1,3.6,2.6,4.7,4.5c1.2,1.9,1.7,4,1.7,6.3c0,2.3-0.6,4.4-1.7,6.3c-1.2,1.9-2.7,3.4-4.7,4.6
		c-2,1.1-4.2,1.7-6.5,1.7c-2.4,0-4.6-0.6-6.6-1.7c-2-1.1-3.6-2.6-4.7-4.6c-1.2-1.9-1.7-4-1.7-6.3c0-2.3,0.6-4.4,1.7-6.3
		c1.2-1.9,2.7-3.4,4.7-4.5c2-1.1,4.2-1.7,6.6-1.7C576.6,301.6,578.8,302.2,580.7,303.3z M569.2,305.6c-1.5,0.9-2.8,2.1-3.7,3.6
		c-0.9,1.5-1.4,3.1-1.4,4.9c0,1.8,0.5,3.5,1.4,5c0.9,1.5,2.2,2.7,3.7,3.6c1.5,0.9,3.2,1.3,5.1,1.3c1.8,0,3.5-0.4,5-1.3
		c1.5-0.9,2.8-2.1,3.7-3.6c0.9-1.5,1.4-3.2,1.4-5s-0.5-3.4-1.4-4.9c-0.9-1.5-2.1-2.7-3.7-3.5c-1.5-0.9-3.2-1.3-5-1.3
		C572.4,304.3,570.7,304.7,569.2,305.6z"/>
	<path fill="#6D6E71" d="M619.9,323.9c-1.8,1.8-4.4,2.7-7.6,2.7c-3.3,0-5.8-0.9-7.7-2.7c-1.9-1.8-2.8-4.4-2.8-7.6v-14.6h2.8v14.6
		c0,2.4,0.7,4.3,2,5.6c1.4,1.3,3.2,2,5.6,2c2.4,0,4.2-0.7,5.6-2c1.3-1.3,2-3.2,2-5.6v-14.6h2.8v14.6
		C622.6,319.6,621.7,322.1,619.9,323.9z"/>
	<path fill="#6D6E71" d="M657,326.5l-14.9-20v20h-2.8v-24.9h2.9l14.9,20v-20h2.8v24.9H657z"/>
	<path fill="#6D6E71" d="M693.5,303.3c1.9,1.1,3.5,2.6,4.6,4.5c1.1,1.9,1.7,4,1.7,6.3s-0.6,4.4-1.7,6.3c-1.1,1.9-2.7,3.4-4.6,4.5
		c-2,1.1-4.2,1.6-6.6,1.6h-10v-24.9H687C689.4,301.7,691.6,302.2,693.5,303.3z M679.8,323.8h7.2c1.8,0,3.5-0.4,5-1.3
		c1.5-0.8,2.7-2,3.6-3.5c0.9-1.5,1.3-3.1,1.3-5c0-1.8-0.4-3.5-1.3-4.9c-0.9-1.5-2.1-2.6-3.6-3.5c-1.5-0.9-3.2-1.3-5-1.3h-7.1V323.8z
		"/>
	<path fill="#6D6E71" d="M715.9,320.3l-2.8,6.3h-3l11.1-24.9h2.9l11.1,24.9h-3.1l-2.8-6.3H715.9z M722.7,304.9l-5.5,12.6h11.1
		L722.7,304.9z"/>
	<path fill="#6D6E71" d="M754,304.4v22.1h-2.8v-22.1h-8.1v-2.7h19.1v2.7H754z"/>
	<path fill="#6D6E71" d="M775.8,326.5v-24.9h2.8v24.9H775.8z"/>
	<path fill="#6D6E71" d="M813.4,303.3c2,1.1,3.6,2.6,4.7,4.5c1.2,1.9,1.7,4,1.7,6.3c0,2.3-0.6,4.4-1.7,6.3c-1.2,1.9-2.7,3.4-4.7,4.6
		c-2,1.1-4.2,1.7-6.5,1.7c-2.4,0-4.6-0.6-6.6-1.7c-2-1.1-3.6-2.6-4.7-4.6c-1.2-1.9-1.7-4-1.7-6.3c0-2.3,0.6-4.4,1.7-6.3
		c1.2-1.9,2.7-3.4,4.7-4.5c2-1.1,4.2-1.7,6.6-1.7C809.2,301.6,811.4,302.2,813.4,303.3z M801.8,305.6c-1.5,0.9-2.8,2.1-3.7,3.6
		c-0.9,1.5-1.4,3.1-1.4,4.9c0,1.8,0.5,3.5,1.4,5c0.9,1.5,2.2,2.7,3.7,3.6c1.5,0.9,3.2,1.3,5.1,1.3c1.8,0,3.5-0.4,5-1.3
		c1.5-0.9,2.8-2.1,3.7-3.6c0.9-1.5,1.4-3.2,1.4-5s-0.5-3.4-1.4-4.9c-0.9-1.5-2.1-2.7-3.7-3.5c-1.5-0.9-3.2-1.3-5-1.3
		C805,304.3,803.3,304.7,801.8,305.6z"/>
	<path fill="#6D6E71" d="M852.6,326.5l-14.9-20v20h-2.8v-24.9h2.9l14.9,20v-20h2.8v24.9H852.6z"/>
</g>
<g>
	
		<linearGradient id="SVGID_1_" gradientUnits="userSpaceOnUse" x1="-7658.376" y1="-1137.2941" x2="-7610.187" y2="-1080.9456" gradientTransform="matrix(0.4226 -0.9063 0.9063 0.4226 4442.6831 -6372.6807)">
		<stop  offset="0" style="stop-color:#F69923"/>
		<stop  offset="0.3123" style="stop-color:#F79A23"/>
		<stop  offset="0.8383" style="stop-color:#E97826"/>
	</linearGradient>
	<path fill="url(#SVGID_1_)" d="M192,60.2c-5.4,3.2-14.2,12.1-24.9,25.1l9.8,18.4c6.8-9.8,13.8-18.6,20.8-26.1
		c0.5-0.6,0.8-0.9,0.8-0.9c-0.3,0.3-0.5,0.6-0.8,0.9c-2.3,2.5-9.2,10.5-19.5,26.5c10-0.5,25.4-2.5,37.9-4.7
		c3.7-20.9-3.7-30.5-3.7-30.5S203,53.7,192,60.2z"/>
	<path fill="none" d="M175.5,165.2c0.1,0,0.1,0,0.2,0l-1.4,0.2c-0.1,0-0.2,0.1-0.2,0.1C174.5,165.3,175,165.3,175.5,165.2z"/>
	<path fill="none" d="M165.5,198.2c-0.8,0.2-1.6,0.3-2.4,0.4C163.9,198.5,164.7,198.3,165.5,198.2z"/>
	<path fill="none" d="M97.9,272.1c0.1-0.3,0.2-0.6,0.3-0.8c2.1-5.7,4.3-11.2,6.4-16.5c2.4-6,4.7-11.9,7-17.5
		c2.4-6,4.8-11.7,7.2-17.3c2.5-5.8,4.9-11.5,7.3-16.9c2-4.4,3.9-8.7,5.8-12.8c0.6-1.4,1.3-2.7,1.9-4.1c1.2-2.7,2.5-5.3,3.7-7.9
		c1.1-2.4,2.2-4.7,3.3-6.9c0.4-0.8,0.7-1.5,1.1-2.3c0.1-0.1,0.1-0.2,0.2-0.4l-1.2,0.1l-0.9-1.9c-0.1,0.2-0.2,0.4-0.3,0.5
		c-1.7,3.4-3.4,6.8-5.1,10.3c-1,2-1.9,4-2.9,6c-2.7,5.6-5.3,11.2-7.9,16.9c-2.6,5.7-5.2,11.5-7.7,17.3c-2.5,5.7-4.9,11.4-7.2,17
		c-2.4,5.7-4.7,11.3-6.9,16.9c-2.3,5.8-4.6,11.6-6.8,17.4c-0.5,1.3-1,2.6-1.5,3.9c-1.8,4.6-3.5,9.2-5.2,13.7l1.5,3l1.3-0.1
		c0-0.1,0.1-0.3,0.1-0.4C93.6,283.5,95.7,277.7,97.9,272.1z"/>
	<path fill="none" d="M162.5,198.7L162.5,198.7C162.5,198.7,162.5,198.7,162.5,198.7C162.5,198.7,162.5,198.7,162.5,198.7z"/>
	<path fill="#BE202E" d="M159.2,214.8c-1.2,0.2-2.5,0.4-3.8,0.7c0,0,0,0,0,0c0.7-0.1,1.3-0.2,2-0.3C158,215,158.6,214.9,159.2,214.8
		z"/>
	<path opacity="0.35" fill="#BE202E" d="M159.2,214.8c-1.2,0.2-2.5,0.4-3.8,0.7c0,0,0,0,0,0c0.7-0.1,1.3-0.2,2-0.3
		C158,215,158.6,214.9,159.2,214.8z"/>
	<path fill="#BE202E" d="M162.5,198.7C162.5,198.7,162.5,198.7,162.5,198.7C162.5,198.7,162.5,198.7,162.5,198.7
		c0.2,0,0.4,0,0.6-0.1c0.8-0.1,1.6-0.3,2.4-0.4C164.5,198.3,163.5,198.5,162.5,198.7L162.5,198.7L162.5,198.7z"/>
	<path opacity="0.35" fill="#BE202E" d="M162.5,198.7C162.5,198.7,162.5,198.7,162.5,198.7C162.5,198.7,162.5,198.7,162.5,198.7
		c0.2,0,0.4,0,0.6-0.1c0.8-0.1,1.6-0.3,2.4-0.4C164.5,198.3,163.5,198.5,162.5,198.7L162.5,198.7L162.5,198.7z"/>
	
		<linearGradient id="SVGID_2_" gradientUnits="userSpaceOnUse" x1="-8015.0215" y1="-1143.5137" x2="-7671.2197" y2="-1143.5137" gradientTransform="matrix(0.4226 -0.9063 0.9063 0.4226 4442.6831 -6372.6807)">
		<stop  offset="0.3233" style="stop-color:#9E2064"/>
		<stop  offset="0.6302" style="stop-color:#C92037"/>
		<stop  offset="0.7514" style="stop-color:#CD2335"/>
		<stop  offset="1" style="stop-color:#E97826"/>
	</linearGradient>
	<path fill="url(#SVGID_2_)" d="M148.1,151.2c3-5.5,6-11,9-16.2c3.2-5.5,6.3-10.8,9.6-15.9c0.2-0.3,0.4-0.6,0.6-0.9
		c3.2-5,6.4-9.9,9.6-14.5l-9.8-18.4c-0.7,0.9-1.5,1.8-2.2,2.7c-2.8,3.5-5.7,7.3-8.7,11.3c-3.4,4.5-6.8,9.3-10.4,14.4
		c-3.3,4.7-6.6,9.5-9.9,14.6c-2.8,4.3-5.6,8.7-8.4,13.3c-0.1,0.2-0.2,0.3-0.3,0.5l12.7,25.1C142.6,161.7,145.3,156.4,148.1,151.2z"
		/>
	
		<linearGradient id="SVGID_3_" gradientUnits="userSpaceOnUse" x1="-7973.52" y1="-1109.0308" x2="-7768.6475" y2="-1109.0308" gradientTransform="matrix(0.4226 -0.9063 0.9063 0.4226 4442.6831 -6372.6807)">
		<stop  offset="0" style="stop-color:#282662"/>
		<stop  offset="9.548390e-02" style="stop-color:#662E8D"/>
		<stop  offset="0.7882" style="stop-color:#9F2064"/>
		<stop  offset="0.9487" style="stop-color:#CD2032"/>
	</linearGradient>
	<path fill="url(#SVGID_3_)" d="M90.3,292.4c-1.7,4.6-3.4,9.3-5.1,14.1c0,0.1,0,0.1-0.1,0.2c-0.2,0.7-0.5,1.4-0.7,2
		c-1.1,3.2-2.1,6.1-4.4,12.8c3.7,1.7,6.7,6.2,9.6,11.3c-0.3-5.3-2.5-10.2-6.6-14.1c18.4,0.8,34.3-3.8,42.5-17.3
		c0.7-1.2,1.4-2.5,2-3.8c-3.7,4.7-8.4,6.7-17.1,6.3c0,0,0,0-0.1,0c0,0,0,0,0.1,0c12.8-5.7,19.2-11.2,24.9-20.4
		c1.3-2.2,2.7-4.5,4-7.1c-11.2,11.5-24.2,14.8-37.9,12.3l-10.3,1.1C91,290.7,90.6,291.6,90.3,292.4z"/>
	
		<linearGradient id="SVGID_4_" gradientUnits="userSpaceOnUse" x1="-7995.7114" y1="-1146.7173" x2="-7651.9102" y2="-1146.7173" gradientTransform="matrix(0.4226 -0.9063 0.9063 0.4226 4442.6831 -6372.6807)">
		<stop  offset="0.3233" style="stop-color:#9E2064"/>
		<stop  offset="0.6302" style="stop-color:#C92037"/>
		<stop  offset="0.7514" style="stop-color:#CD2335"/>
		<stop  offset="1" style="stop-color:#E97826"/>
	</linearGradient>
	<path fill="url(#SVGID_4_)" d="M95.1,269.5c2.2-5.7,4.5-11.5,6.8-17.4c2.2-5.6,4.5-11.2,6.9-16.9c2.4-5.7,4.8-11.3,7.2-17
		c2.5-5.8,5.1-11.6,7.7-17.3c2.6-5.7,5.2-11.3,7.9-16.9c1-2,1.9-4,2.9-6c1.7-3.5,3.4-6.9,5.1-10.3c0.1-0.2,0.2-0.4,0.3-0.5
		L127.2,142c-0.2,0.3-0.4,0.7-0.6,1c-3,4.8-5.9,9.8-8.8,14.8c-2.9,5.1-5.8,10.3-8.6,15.5c-2.4,4.4-4.7,8.9-6.9,13.4
		c-0.5,0.9-0.9,1.8-1.3,2.7c-2.8,5.7-5.3,11.2-7.5,16.5c-2.6,6-4.8,11.7-6.8,17.1c-1.3,3.6-2.5,7-3.6,10.3c-0.9,2.8-1.7,5.7-2.5,8.5
		c-1.9,6.6-3.5,13.3-4.9,19.9L88.4,287c1.7-4.5,3.4-9.1,5.2-13.7C94.1,272.1,94.6,270.8,95.1,269.5z"/>
	
		<linearGradient id="SVGID_5_" gradientUnits="userSpaceOnUse" x1="-7970.6377" y1="-1142.0658" x2="-7789.96" y2="-1142.0658" gradientTransform="matrix(0.4226 -0.9063 0.9063 0.4226 4442.6831 -6372.6807)">
		<stop  offset="0" style="stop-color:#282662"/>
		<stop  offset="9.548390e-02" style="stop-color:#662E8D"/>
		<stop  offset="0.7882" style="stop-color:#9F2064"/>
		<stop  offset="0.9487" style="stop-color:#CD2032"/>
	</linearGradient>
	<path fill="url(#SVGID_5_)" d="M75.5,262.7c-1.6,8.1-2.7,16.1-3.3,24.1c0,0.3,0,0.6-0.1,0.8c-4-6.4-14.6-12.6-14.6-12.5
		c7.6,11.1,13.4,22,14.3,32.8c-4.1,0.8-9.7-0.4-16.1-2.7c6.7,6.2,11.8,7.9,13.8,8.4c-6.2,0.4-12.6,4.6-19.1,9.5
		c9.5-3.9,17.2-5.4,22.7-4.2c-8.7,24.7-17.5,51.9-26.2,80.9c2.7-0.8,4.3-2.6,5.2-5c1.6-5.2,11.9-39.6,28.1-84.8
		c0.5-1.3,0.9-2.6,1.4-3.9c0.1-0.4,0.3-0.7,0.4-1.1c1.7-4.7,3.5-9.6,5.3-14.5c0.4-1.1,0.8-2.2,1.3-3.4c0,0,0,0,0-0.1l-12.7-25.2
		C75.6,262.2,75.6,262.5,75.5,262.7z"/>
	
		<linearGradient id="SVGID_6_" gradientUnits="userSpaceOnUse" x1="-7995.7114" y1="-1111.135" x2="-7651.9102" y2="-1111.135" gradientTransform="matrix(0.4226 -0.9063 0.9063 0.4226 4442.6831 -6372.6807)">
		<stop  offset="0.3233" style="stop-color:#9E2064"/>
		<stop  offset="0.6302" style="stop-color:#C92037"/>
		<stop  offset="0.7514" style="stop-color:#CD2335"/>
		<stop  offset="1" style="stop-color:#E97826"/>
	</linearGradient>
	<path fill="url(#SVGID_6_)" d="M141.9,169.2c-0.4,0.7-0.7,1.5-1.1,2.3c-1.1,2.3-2.2,4.6-3.3,6.9c-1.2,2.6-2.4,5.2-3.7,7.9
		c-0.6,1.3-1.3,2.7-1.9,4.1c-1.9,4.1-3.8,8.4-5.8,12.8c-2.4,5.4-4.8,11-7.3,16.9c-2.4,5.6-4.8,11.3-7.2,17.3
		c-2.3,5.7-4.6,11.5-7,17.5c-2.1,5.4-4.2,10.9-6.4,16.5c-0.1,0.3-0.2,0.5-0.3,0.8c-2.1,5.6-4.3,11.4-6.4,17.3c0,0.1-0.1,0.3-0.1,0.4
		l10.3-1.1c-0.2,0-0.4-0.1-0.6-0.1c12.3-1.5,28.6-10.7,39.1-22c4.9-5.2,9.3-11.4,13.3-18.6c3-5.4,5.9-11.3,8.6-17.9
		c2.4-5.8,4.6-12,6.8-18.7c-2.8,1.5-6,2.6-9.6,3.3c-0.6,0.1-1.3,0.3-1.9,0.4c-0.6,0.1-1.3,0.2-2,0.3l0,0l0,0c0,0,0,0,0,0
		c11.4-4.4,18.7-12.9,23.9-23.3c-3,2.1-7.9,4.7-13.8,6c-0.8,0.2-1.6,0.3-2.4,0.4c-0.2,0-0.4,0.1-0.6,0.1l0,0l0,0c0,0,0,0,0,0
		c0,0,0,0,0,0l0,0c4-1.7,7.3-3.5,10.2-5.7c0.6-0.5,1.2-1,1.8-1.5c0.9-0.8,1.7-1.6,2.5-2.4c0.5-0.5,1-1.1,1.5-1.7
		c1.1-1.4,2.2-2.8,3.2-4.4c0.3-0.5,0.6-1,0.9-1.5c0.4-0.7,0.7-1.5,1.1-2.2c1.6-3.2,2.9-6.1,3.9-8.6c0.5-1.3,1-2.4,1.3-3.5
		c0.2-0.4,0.3-0.8,0.4-1.3c0.4-1.2,0.7-2.3,1-3.2c0.4-1.4,0.6-2.5,0.8-3.3l0,0l0,0c-0.4,0.3-0.8,0.6-1.3,0.9
		c-3.5,2.1-9.4,3.9-14.2,4.8l9.4-1l-9.4,1c-0.1,0-0.1,0-0.2,0c-0.5,0.1-1,0.2-1.4,0.2c0.1,0,0.2-0.1,0.2-0.1l-32.2,3.5
		C142,169,141.9,169.1,141.9,169.2z"/>
	
		<linearGradient id="SVGID_7_" gradientUnits="userSpaceOnUse" x1="-8017.0386" y1="-1112.902" x2="-7673.2373" y2="-1112.902" gradientTransform="matrix(0.4226 -0.9063 0.9063 0.4226 4442.6831 -6372.6807)">
		<stop  offset="0.3233" style="stop-color:#9E2064"/>
		<stop  offset="0.6302" style="stop-color:#C92037"/>
		<stop  offset="0.7514" style="stop-color:#CD2335"/>
		<stop  offset="1" style="stop-color:#E97826"/>
	</linearGradient>
	<path fill="url(#SVGID_7_)" d="M178.1,104c-2.9,4.4-6,9.4-9.4,15.1c-0.2,0.3-0.4,0.6-0.5,0.9c-2.9,4.9-6,10.3-9.2,16.2
		c-2.8,5.1-5.7,10.5-8.8,16.4c-2.6,5.1-5.4,10.5-8.2,16.3l32.2-3.5c9.4-4.3,13.6-8.2,17.7-13.9c1.1-1.6,2.2-3.2,3.3-4.9
		c3.3-5.2,6.6-10.9,9.5-16.5c2.8-5.5,5.3-10.9,7.2-15.8c1.2-3.1,2.2-6,2.8-8.5c0.6-2.2,1-4.4,1.4-6.4
		C203.5,101.5,188.1,103.5,178.1,104z"/>
	<path fill="#BE202E" d="M157.3,215.1c-0.6,0.1-1.3,0.2-2,0.3l0,0C156,215.4,156.7,215.3,157.3,215.1z"/>
	<path opacity="0.35" fill="#BE202E" d="M157.3,215.1c-0.6,0.1-1.3,0.2-2,0.3l0,0C156,215.4,156.7,215.3,157.3,215.1z"/>
	
		<linearGradient id="SVGID_8_" gradientUnits="userSpaceOnUse" x1="-7995.7114" y1="-1100.5521" x2="-7651.9102" y2="-1100.5521" gradientTransform="matrix(0.4226 -0.9063 0.9063 0.4226 4442.6831 -6372.6807)">
		<stop  offset="0.3233" style="stop-color:#9E2064"/>
		<stop  offset="0.6302" style="stop-color:#C92037"/>
		<stop  offset="0.7514" style="stop-color:#CD2335"/>
		<stop  offset="1" style="stop-color:#E97826"/>
	</linearGradient>
	<path fill="url(#SVGID_8_)" d="M157.3,215.1c-0.6,0.1-1.3,0.2-2,0.3l0,0C156,215.4,156.7,215.3,157.3,215.1z"/>
	<path fill="#BE202E" d="M162.5,198.7c0.2,0,0.4-0.1,0.6-0.1C162.9,198.6,162.7,198.7,162.5,198.7L162.5,198.7z"/>
	<path opacity="0.35" fill="#BE202E" d="M162.5,198.7c0.2,0,0.4-0.1,0.6-0.1C162.9,198.6,162.7,198.7,162.5,198.7L162.5,198.7z"/>
	
		<linearGradient id="SVGID_9_" gradientUnits="userSpaceOnUse" x1="-7995.7114" y1="-1101.7631" x2="-7651.9102" y2="-1101.7631" gradientTransform="matrix(0.4226 -0.9063 0.9063 0.4226 4442.6831 -6372.6807)">
		<stop  offset="0.3233" style="stop-color:#9E2064"/>
		<stop  offset="0.6302" style="stop-color:#C92037"/>
		<stop  offset="0.7514" style="stop-color:#CD2335"/>
		<stop  offset="1" style="stop-color:#E97826"/>
	</linearGradient>
	<path fill="url(#SVGID_9_)" d="M162.5,198.7c0.2,0,0.4-0.1,0.6-0.1C162.9,198.6,162.7,198.7,162.5,198.7L162.5,198.7z"/>
	<polygon fill="#BE202E" points="162.5,198.7 162.5,198.7 162.5,198.7 162.5,198.7 162.5,198.7 	"/>
	<polygon opacity="0.35" fill="#BE202E" points="162.5,198.7 162.5,198.7 162.5,198.7 162.5,198.7 162.5,198.7 	"/>
	
		<linearGradient id="SVGID_10_" gradientUnits="userSpaceOnUse" x1="-7802.5688" y1="-1102.006" x2="-7726.5776" y2="-1102.006" gradientTransform="matrix(0.4226 -0.9063 0.9063 0.4226 4442.6831 -6372.6807)">
		<stop  offset="0.3233" style="stop-color:#9E2064"/>
		<stop  offset="0.6302" style="stop-color:#C92037"/>
		<stop  offset="0.7514" style="stop-color:#CD2335"/>
		<stop  offset="1" style="stop-color:#E97826"/>
	</linearGradient>
	<polygon fill="url(#SVGID_10_)" points="162.5,198.7 162.5,198.7 162.5,198.7 162.5,198.7 162.5,198.7 	"/>
</g>
<g>
	<g>
		<path fill="#B0AFB0" d="M870.1,161.4v8.3h-2.3v-8.3h-2.9v-2h8.2v2H870.1z"/>
		<path fill="#B0AFB0" d="M884,163.2l-2.8,5.6h-1.4l-2.8-5.6v6.5h-2.3v-10.3h3.1l2.7,5.7l2.7-5.7h3.1v10.3H884V163.2z"/>
	</g>
</g>
<g>
	<path fill="#6D6E71" d="M259.7,117.6v18.3h-2.4v-18.3h-6.7v-2.3h15.8v2.3H259.7z"/>
	<path fill="#6D6E71" d="M292.6,135.9v-9.1h-12.4v9.1h-2.4v-20.6h2.4v9.3h12.4v-9.3h2.4v20.6H292.6z"/>
	<path fill="#6D6E71" d="M311.4,117.6v6.8h10.4v2.3h-10.4v7.1h12v2.2H309v-20.6h14v2.3H311.4z"/>
</g>
<g>
	<g>
		<path fill="#D22128" d="M232.6,277.3l49.3-117.8h9.5l49.3,117.8h-12.4l-15.3-36.8H260l-15.1,36.8H232.6z M286.7,173.1l-24.2,58.2
			h47.8L286.7,173.1z"/>
		<path fill="#D22128" d="M353.3,277.3V159.5h48.8c20.2,0,34.8,18.7,34.8,37c0,19.2-13.6,37.3-33.8,37.3h-38.3v43.5H353.3z
			 M364.8,223.5h37.7c13.9,0,22.9-12.8,22.9-27c0-14.8-10.9-26.7-23.9-26.7h-36.7V223.5z"/>
		<path fill="#D22128" d="M430.5,277.3l49.3-117.8h9.5l49.3,117.8H526l-15.3-36.8h-52.9l-15.1,36.8H430.5z M484.6,173.1l-24.2,58.2
			h47.8L484.6,173.1z"/>
		<path fill="#D22128" d="M594.2,158.8c20.9,0,36.2,10.6,43.5,25.7l-9.3,5.6c-7.5-15.6-22.1-20.9-34.8-20.9
			c-28.2,0-43.6,25.2-43.6,48.9c0,26,19.1,49.6,44.1,49.6c13.3,0,28.9-6.6,36.3-21.9l9.6,5c-7.6,17.6-28.5,27.4-46.6,27.4
			c-32.3,0-55.1-30.9-55.1-60.7C538.3,189.2,558.7,158.8,594.2,158.8z"/>
		<path fill="#D22128" d="M749.1,159.5v117.8h-11.6v-55.1h-69.8v55.1h-11.4V159.5h11.4v52.4h69.8v-52.4H749.1z"/>
		<path fill="#D22128" d="M854.8,267v10.3h-79.1V159.5h77.6v10.3h-66.2v42.5h57.7v9.8h-57.7V267H854.8z"/>
	</g>
</g>
<g>
	<path fill="#6D6E71" d="M243.6,302.2c1.4,0.4,2.6,1,3.7,1.7l-1.2,2.7c-1.1-0.7-2.2-1.2-3.4-1.6c-1.2-0.3-2.4-0.5-3.4-0.5
		c-1.6,0-2.9,0.3-3.8,0.9c-1,0.6-1.4,1.4-1.4,2.4c0,0.9,0.3,1.6,0.8,2.2c0.5,0.6,1.2,1,2,1.4c0.8,0.3,1.9,0.7,3.3,1.1
		c1.7,0.5,3.1,1.1,4.1,1.5c1,0.5,1.9,1.2,2.7,2.1c0.7,0.9,1.1,2.1,1.1,3.7c0,1.4-0.4,2.6-1.1,3.6c-0.7,1-1.8,1.8-3.2,2.4
		c-1.4,0.6-2.9,0.9-4.7,0.9c-1.8,0-3.5-0.3-5.2-1c-1.7-0.7-3.1-1.6-4.3-2.8l1.3-2.5c1.1,1.1,2.4,2,3.9,2.6c1.5,0.6,2.9,0.9,4.3,0.9
		c1.8,0,3.2-0.3,4.3-1c1-0.7,1.6-1.6,1.6-2.8c0-0.9-0.3-1.7-0.8-2.3c-0.5-0.6-1.2-1.1-2-1.4c-0.8-0.3-1.9-0.7-3.3-1.1
		c-1.7-0.5-3-1-4.1-1.4c-1-0.5-1.9-1.1-2.7-2.1c-0.7-0.9-1.1-2.1-1.1-3.6c0-1.3,0.4-2.4,1.1-3.4c0.7-1,1.7-1.7,3-2.3
		c1.3-0.5,2.8-0.8,4.5-0.8C240.8,301.6,242.2,301.8,243.6,302.2z"/>
	<path fill="#6D6E71" d="M280.5,303.3c2,1.1,3.6,2.6,4.7,4.5c1.2,1.9,1.7,4,1.7,6.3c0,2.3-0.6,4.4-1.7,6.3c-1.2,1.9-2.7,3.4-4.7,4.6
		c-2,1.1-4.2,1.7-6.5,1.7c-2.4,0-4.6-0.6-6.6-1.7c-2-1.1-3.6-2.6-4.7-4.6c-1.2-1.9-1.7-4-1.7-6.3c0-2.3,0.6-4.4,1.7-6.3
		c1.2-1.9,2.7-3.4,4.7-4.5c2-1.1,4.2-1.7,6.6-1.7C276.3,301.6,278.5,302.2,280.5,303.3z M268.9,305.6c-1.5,0.9-2.8,2.1-3.7,3.6
		c-0.9,1.5-1.4,3.1-1.4,4.9c0,1.8,0.5,3.5,1.4,5c0.9,1.5,2.2,2.7,3.7,3.6c1.5,0.9,3.2,1.3,5.1,1.3c1.8,0,3.5-0.4,5-1.3
		c1.5-0.9,2.8-2.1,3.7-3.6c0.9-1.5,1.4-3.2,1.4-5s-0.5-3.4-1.4-4.9c-0.9-1.5-2.1-2.7-3.7-3.5c-1.5-0.9-3.2-1.3-5-1.3
		C272.2,304.3,270.5,304.7,268.9,305.6z"/>
	<path fill="#6D6E71" d="M304.9,304.4v8.7h11.6v2.7h-11.6v10.6H302v-24.9h15.8v2.7H304.9z"/>
	<path fill="#6D6E71" d="M340.9,304.4v22.1h-2.8v-22.1H330v-2.7H349v2.7H340.9z"/>
	<path fill="#6D6E71" d="M385.8,326.5l-6.7-20.9l-6.8,20.9h-2.9l-8.3-24.9h3.1l6.8,21.6l6.7-21.5l2.8,0l6.8,21.6l6.7-21.6h2.9
		l-8.3,24.9H385.8z"/>
	<path fill="#6D6E71" d="M411.2,320.3l-2.8,6.3h-3l11.1-24.9h2.9l11.1,24.9h-3.1l-2.8-6.3H411.2z M418,304.9l-5.5,12.6h11.1
		L418,304.9z"/>
	<path fill="#6D6E71" d="M455.3,318.6c-0.7,0-1.3,0.1-1.7,0.1h-6.6v7.9h-2.8v-24.9h9.4c3.1,0,5.5,0.7,7.2,2.2
		c1.7,1.5,2.6,3.5,2.6,6.2c0,2-0.5,3.7-1.4,5.1c-1,1.4-2.3,2.4-4.1,3l5.8,8.4h-3.2L455.3,318.6z M458.9,314.5c1.2-1,1.8-2.5,1.8-4.4
		c0-1.9-0.6-3.3-1.8-4.2c-1.2-1-3-1.4-5.2-1.4h-6.6V316h6.6C455.9,316,457.7,315.5,458.9,314.5z"/>
	<path fill="#6D6E71" d="M482.2,304.4v8.2h12.5v2.7h-12.5v8.5h14.5v2.7h-17.3v-24.9h16.9v2.7H482.2z"/>
	<path fill="#6D6E71" d="M536.3,304.4v8.7h11.6v2.7h-11.6v10.6h-2.8v-24.9h15.8v2.7H536.3z"/>
	<path fill="#6D6E71" d="M580.7,303.3c2,1.1,3.6,2.6,4.7,4.5c1.2,1.9,1.7,4,1.7,6.3c0,2.3-0.6,4.4-1.7,6.3c-1.2,1.9-2.7,3.4-4.7,4.6
		c-2,1.1-4.2,1.7-6.5,1.7c-2.4,0-4.6-0.6-6.6-1.7c-2-1.1-3.6-2.6-4.7-4.6c-1.2-1.9-1.7-4-1.7-6.3c0-2.3,0.6-4.4,1.7-6.3
		c1.2-1.9,2.7-3.4,4.7-4.5c2-1.1,4.2-1.7,6.6-1.7C576.6,301.6,578.8,302.2,580.7,303.3z M569.2,305.6c-1.5,0.9-2.8,2.1-3.7,3.6
		c-0.9,1.5-1.4,3.1-1.4,4.9c0,1.8,0.5,3.5,1.4,5c0.9,1.5,2.2,2.7,3.7,3.6c1.5,0.9,3.2,1.3,5.1,1.3c1.8,0,3.5-0.4,5-1.3
		c1.5-0.9,2.8-2.1,3.7-3.6c0.9-1.5,1.4-3.2,1.4-5s-0.5-3.4-1.4-4.9c-0.9-1.5-2.1-2.7-3.7-3.5c-1.5-0.9-3.2-1.3-5-1.3
		C572.4,304.3,570.7,304.7,569.2,305.6z"/>
	<path fill="#6D6E71" d="M619.9,323.9c-1.8,1.8-4.4,2.7-7.6,2.7c-3.3,0-5.8-0.9-7.7-2.7c-1.9-1.8-2.8-4.4-2.8-7.6v-14.6h2.8v14.6
		c0,2.4,0.7,4.3,2,5.6c1.4,1.3,3.2,2,5.6,2c2.4,0,4.2-0.7,5.6-2c1.3-1.3,2-3.2,2-5.6v-14.6h2.8v14.6
		C622.6,319.6,621.7,322.1,619.9,323.9z"/>
	<path fill="#6D6E71" d="M657,326.5l-14.9-20v20h-2.8v-24.9h2.9l14.9,20v-20h2.8v24.9H657z"/>
	<path fill="#6D6E71" d="M693.5,303.3c1.9,1.1,3.5,2.6,4.6,4.5c1.1,1.9,1.7,4,1.7,6.3s-0.6,4.4-1.7,6.3c-1.1,1.9-2.7,3.4-4.6,4.5
		c-2,1.1-4.2,1.6-6.6,1.6h-10v-24.9H687C689.4,301.7,691.6,302.2,693.5,303.3z M679.8,323.8h7.2c1.8,0,3.5-0.4,5-1.3
		c1.5-0.8,2.7-2,3.6-3.5c0.9-1.5,1.3-3.1,1.3-5c0-1.8-0.4-3.5-1.3-4.9c-0.9-1.5-2.1-2.6-3.6-3.5c-1.5-0.9-3.2-1.3-5-1.3h-7.1V323.8z
		"/>
	<path fill="#6D6E71" d="M715.9,320.3l-2.8,6.3h-3l11.1-24.9h2.9l11.1,24.9h-3.1l-2.8-6.3H715.9z M722.7,304.9l-5.5,12.6h11.1
		L722.7,304.9z"/>
	<path fill="#6D6E71" d="M754,304.4v22.1h-2.8v-22.1h-8.1v-2.7h19.1v2.7H754z"/>
	<path fill="#6D6E71" d="M775.8,326.5v-24.9h2.8v24.9H775.8z"/>
	<path fill="#6D6E71" d="M813.4,303.3c2,1.1,3.6,2.6,4.7,4.5c1.2,1.9,1.7,4,1.7,6.3c0,2.3-0.6,4.4-1.7,6.3c-1.2,1.9-2.7,3.4-4.7,4.6
		c-2,1.1-4.2,1.7-6.5,1.7c-2.4,0-4.6-0.6-6.6-1.7c-2-1.1-3.6-2.6-4.7-4.6c-1.2-1.9-1.7-4-1.7-6.3c0-2.3,0.6-4.4,1.7-6.3
		c1.2-1.9,2.7-3.4,4.7-4.5c2-1.1,4.2-1.7,6.6-1.7C809.2,301.6,811.4,302.2,813.4,303.3z M801.8,305.6c-1.5,0.9-2.8,2.1-3.7,3.6
		c-0.9,1.5-1.4,3.1-1.4,4.9c0,1.8,0.5,3.5,1.4,5c0.9,1.5,2.2,2.7,3.7,3.6c1.5,0.9,3.2,1.3,5.1,1.3c1.8,0,3.5-0.4,5-1.3
		c1.5-0.9,2.8-2.1,3.7-3.6c0.9-1.5,1.4-3.2,1.4-5s-0.5-3.4-1.4-4.9c-0.9-1.5-2.1-2.7-3.7-3.5c-1.5-0.9-3.2-1.3-5-1.3
		C805,304.3,803.3,304.7,801.8,305.6z"/>
	<path fill="#6D6E71" d="M852.6,326.5l-14.9-20v20h-2.8v-24.9h2.9l14.9,20v-20h2.8v24.9H852.6z"/>
</g>
<g>
	
		<linearGradient id="SVGID_11_" gradientUnits="userSpaceOnUse" x1="-7658.376" y1="-1137.2941" x2="-7610.187" y2="-1080.9456" gradientTransform="matrix(0.4226 -0.9063 0.9063 0.4226 4442.6831 -6372.6807)">
		<stop  offset="0" style="stop-color:#F69923"/>
		<stop  offset="0.3123" style="stop-color:#F79A23"/>
		<stop  offset="0.8383" style="stop-color:#E97826"/>
	</linearGradient>
	<path fill="url(#SVGID_11_)" d="M192,60.2c-5.4,3.2-14.2,12.1-24.9,25.1l9.8,18.4c6.8-9.8,13.8-18.6,20.8-26.1
		c0.5-0.6,0.8-0.9,0.8-0.9c-0.3,0.3-0.5,0.6-0.8,0.9c-2.3,2.5-9.2,10.5-19.5,26.5c10-0.5,25.4-2.5,37.9-4.7
		c3.7-20.9-3.7-30.5-3.7-30.5S203,53.7,192,60.2z"/>
	<path fill="none" d="M175.5,165.2c0.1,0,0.1,0,0.2,0l-1.4,0.2c-0.1,0-0.2,0.1-0.2,0.1C174.5,165.3,175,165.3,175.5,165.2z"/>
	<path fill="none" d="M165.5,198.2c-0.8,0.2-1.6,0.3-2.4,0.4C163.9,198.5,164.7,198.3,165.5,198.2z"/>
	<path fill="none" d="M97.9,272.1c0.1-0.3,0.2-0.6,0.3-0.8c2.1-5.7,4.3-11.2,6.4-16.5c2.4-6,4.7-11.9,7-17.5
		c2.4-6,4.8-11.7,7.2-17.3c2.5-5.8,4.9-11.5,7.3-16.9c2-4.4,3.9-8.7,5.8-12.8c0.6-1.4,1.3-2.7,1.9-4.1c1.2-2.7,2.5-5.3,3.7-7.9
		c1.1-2.4,2.2-4.7,3.3-6.9c0.4-0.8,0.7-1.5,1.1-2.3c0.1-0.1,0.1-0.2,0.2-0.4l-1.2,0.1l-0.9-1.9c-0.1,0.2-0.2,0.4-0.3,0.5
		c-1.7,3.4-3.4,6.8-5.1,10.3c-1,2-1.9,4-2.9,6c-2.7,5.6-5.3,11.2-7.9,16.9c-2.6,5.7-5.2,11.5-7.7,17.3c-2.5,5.7-4.9,11.4-7.2,17
		c-2.4,5.7-4.7,11.3-6.9,16.9c-2.3,5.8-4.6,11.6-6.8,17.4c-0.5,1.3-1,2.6-1.5,3.9c-1.8,4.6-3.5,9.2-5.2,13.7l1.5,3l1.3-0.1
		c0-0.1,0.1-0.3,0.1-0.4C93.6,283.5,95.7,277.7,97.9,272.1z"/>
	<path fill="none" d="M162.5,198.7L162.5,198.7C162.5,198.7,162.5,198.7,162.5,198.7C162.5,198.7,162.5,198.7,162.5,198.7z"/>
	<path fill="#BE202E" d="M159.2,214.8c-1.2,0.2-2.5,0.4-3.8,0.7c0,0,0,0,0,0c0.7-0.1,1.3-0.2,2-0.3C158,215,158.6,214.9,159.2,214.8
		z"/>
	<path opacity="0.35" fill="#BE202E" d="M159.2,214.8c-1.2,0.2-2.5,0.4-3.8,0.7c0,0,0,0,0,0c0.7-0.1,1.3-0.2,2-0.3
		C158,215,158.6,214.9,159.2,214.8z"/>
	<path fill="#BE202E" d="M162.5,198.7C162.5,198.7,162.5,198.7,162.5,198.7C162.5,198.7,162.5,198.7,162.5,198.7
		c0.2,0,0.4,0,0.6-0.1c0.8-0.1,1.6-0.3,2.4-0.4C164.5,198.3,163.5,198.5,162.5,198.7L162.5,198.7L162.5,198.7z"/>
	<path opacity="0.35" fill="#BE202E" d="M162.5,198.7C162.5,198.7,162.5,198.7,162.5,198.7C162.5,198.7,162.5,198.7,162.5,198.7
		c0.2,0,0.4,0,0.6-0.1c0.8-0.1,1.6-0.3,2.4-0.4C164.5,198.3,163.5,198.5,162.5,198.7L162.5,198.7L162.5,198.7z"/>
	
		<linearGradient id="SVGID_12_" gradientUnits="userSpaceOnUse" x1="-8015.0215" y1="-1143.5137" x2="-7671.2197" y2="-1143.5137" gradientTransform="matrix(0.4226 -0.9063 0.9063 0.4226 4442.6831 -6372.6807)">
		<stop  offset="0.3233" style="stop-color:#9E2064"/>
		<stop  offset="0.6302" style="stop-color:#C92037"/>
		<stop  offset="0.7514" style="stop-color:#CD2335"/>
		<stop  offset="1" style="stop-color:#E97826"/>
	</linearGradient>
	<path fill="url(#SVGID_12_)" d="M148.1,151.2c3-5.5,6-11,9-16.2c3.2-5.5,6.3-10.8,9.6-15.9c0.2-0.3,0.4-0.6,0.6-0.9
		c3.2-5,6.4-9.9,9.6-14.5l-9.8-18.4c-0.7,0.9-1.5,1.8-2.2,2.7c-2.8,3.5-5.7,7.3-8.7,11.3c-3.4,4.5-6.8,9.3-10.4,14.4
		c-3.3,4.7-6.6,9.5-9.9,14.6c-2.8,4.3-5.6,8.7-8.4,13.3c-0.1,0.2-0.2,0.3-0.3,0.5l12.7,25.1C142.6,161.7,145.3,156.4,148.1,151.2z"
		/>
	
		<linearGradient id="SVGID_13_" gradientUnits="userSpaceOnUse" x1="-7973.52" y1="-1109.0308" x2="-7768.6475" y2="-1109.0308" gradientTransform="matrix(0.4226 -0.9063 0.9063 0.4226 4442.6831 -6372.6807)">
		<stop  offset="0" style="stop-color:#282662"/>
		<stop  offset="9.548390e-02" style="stop-color:#662E8D"/>
		<stop  offset="0.7882" style="stop-color:#9F2064"/>
		<stop  offset="0.9487" style="stop-color:#CD2032"/>
	</linearGradient>
	<path fill="url(#SVGID_13_)" d="M90.3,292.4c-1.7,4.6-3.4,9.3-5.1,14.1c0,0.1,0,0.1-0.1,0.2c-0.2,0.7-0.5,1.4-0.7,2
		c-1.1,3.2-2.1,6.1-4.4,12.8c3.7,1.7,6.7,6.2,9.6,11.3c-0.3-5.3-2.5-10.2-6.6-14.1c18.4,0.8,34.3-3.8,42.5-17.3
		c0.7-1.2,1.4-2.5,2-3.8c-3.7,4.7-8.4,6.7-17.1,6.3c0,0,0,0-0.1,0c0,0,0,0,0.1,0c12.8-5.7,19.2-11.2,24.9-20.4
		c1.3-2.2,2.7-4.5,4-7.1c-11.2,11.5-24.2,14.8-37.9,12.3l-10.3,1.1C91,290.7,90.6,291.6,90.3,292.4z"/>
	
		<linearGradient id="SVGID_14_" gradientUnits="userSpaceOnUse" x1="-7995.7114" y1="-1146.7173" x2="-7651.9102" y2="-1146.7173" gradientTransform="matrix(0.4226 -0.9063 0.9063 0.4226 4442.6831 -6372.6807)">
		<stop  offset="0.3233" style="stop-color:#9E2064"/>
		<stop  offset="0.6302" style="stop-color:#C92037"/>
		<stop  offset="0.7514" style="stop-color:#CD2335"/>
		<stop  offset="1" style="stop-color:#E97826"/>
	</linearGradient>
	<path fill="url(#SVGID_14_)" d="M95.1,269.5c2.2-5.7,4.5-11.5,6.8-17.4c2.2-5.6,4.5-11.2,6.9-16.9c2.4-5.7,4.8-11.3,7.2-17
		c2.5-5.8,5.1-11.6,7.7-17.3c2.6-5.7,5.2-11.3,7.9-16.9c1-2,1.9-4,2.9-6c1.7-3.5,3.4-6.9,5.1-10.3c0.1-0.2,0.2-0.4,0.3-0.5
		L127.2,142c-0.2,0.3-0.4,0.7-0.6,1c-3,4.8-5.9,9.8-8.8,14.8c-2.9,5.1-5.8,10.3-8.6,15.5c-2.4,4.4-4.7,8.9-6.9,13.4
		c-0.5,0.9-0.9,1.8-1.3,2.7c-2.8,5.7-5.3,11.2-7.5,16.5c-2.6,6-4.8,11.7-6.8,17.1c-1.3,3.6-2.5,7-3.6,10.3c-0.9,2.8-1.7,5.7-2.5,8.5
		c-1.9,6.6-3.5,13.3-4.9,19.9L88.4,287c1.7-4.5,3.4-9.1,5.2-13.7C94.1,272.1,94.6,270.8,95.1,269.5z"/>
	
		<linearGradient id="SVGID_15_" gradientUnits="userSpaceOnUse" x1="-7970.6377" y1="-1142.0658" x2="-7789.96" y2="-1142.0658" gradientTransform="matrix(0.4226 -0.9063 0.9063 0.4226 4442.6831 -6372.6807)">
		<stop  offset="0" style="stop-color:#282662"/>
		<stop  offset="9.548390e-02" style="stop-color:#662E8D"/>
		<stop  offset="0.7882" style="stop-color:#9F2064"/>
		<stop  offset="0.9487" style="stop-color:#CD2032"/>
	</linearGradient>
	<path fill="url(#SVGID_15_)" d="M75.5,262.7c-1.6,8.1-2.7,16.1-3.3,24.1c0,0.3,0,0.6-0.1,0.8c-4-6.4-14.6-12.6-14.6-12.5
		c7.6,11.1,13.4,22,14.3,32.8c-4.1,0.8-9.7-0.4-16.1-2.7c6.7,6.2,11.8,7.9,13.8,8.4c-6.2,0.4-12.6,4.6-19.1,9.5
		c9.5-3.9,17.2-5.4,22.7-4.2c-8.7,24.7-17.5,51.9-26.2,80.9c2.7-0.8,4.3-2.6,5.2-5c1.6-5.2,11.9-39.6,28.1-84.8
		c0.5-1.3,0.9-2.6,1.4-3.9c0.1-0.4,0.3-0.7,0.4-1.1c1.7-4.7,3.5-9.6,5.3-14.5c0.4-1.1,0.8-2.2,1.3-3.4c0,0,0,0,0-0.1l-12.7-25.2
		C75.6,262.2,75.6,262.5,75.5,262.7z"/>
	
		<linearGradient id="SVGID_16_" gradientUnits="userSpaceOnUse" x1="-7995.7114" y1="-1111.135" x2="-7651.9102" y2="-1111.135" gradientTransform="matrix(0.4226 -0.9063 0.9063 0.4226 4442.6831 -6372.6807)">
		<stop  offset="0.3233" style="stop-color:#9E2064"/>
		<stop  offset="0.6302" style="stop-color:#C92037"/>
		<stop  offset="0.7514" style="stop-color:#CD2335"/>
		<stop  offset="1" style="stop-color:#E97826"/>
	</linearGradient>
	<path fill="url(#SVGID_16_)" d="M141.9,169.2c-0.4,0.7-0.7,1.5-1.1,2.3c-1.1,2.3-2.2,4.6-3.3,6.9c-1.2,2.6-2.4,5.2-3.7,7.9
		c-0.6,1.3-1.3,2.7-1.9,4.1c-1.9,4.1-3.8,8.4-5.8,12.8c-2.4,5.4-4.8,11-7.3,16.9c-2.4,5.6-4.8,11.3-7.2,17.3
		c-2.3,5.7-4.6,11.5-7,17.5c-2.1,5.4-4.2,10.9-6.4,16.5c-0.1,0.3-0.2,0.5-0.3,0.8c-2.1,5.6-4.3,11.4-6.4,17.3c0,0.1-0.1,0.3-0.1,0.4
		l10.3-1.1c-0.2,0-0.4-0.1-0.6-0.1c12.3-1.5,28.6-10.7,39.1-22c4.9-5.2,9.3-11.4,13.3-18.6c3-5.4,5.9-11.3,8.6-17.9
		c2.4-5.8,4.6-12,6.8-18.7c-2.8,1.5-6,2.6-9.6,3.3c-0.6,0.1-1.3,0.3-1.9,0.4c-0.6,0.1-1.3,0.2-2,0.3l0,0l0,0c0,0,0,0,0,0
		c11.4-4.4,18.7-12.9,23.9-23.3c-3,2.1-7.9,4.7-13.8,6c-0.8,0.2-1.6,0.3-2.4,0.4c-0.2,0-0.4,0.1-0.6,0.1l0,0l0,0c0,0,0,0,0,0
		c0,0,0,0,0,0l0,0c4-1.7,7.3-3.5,10.2-5.7c0.6-0.5,1.2-1,1.8-1.5c0.9-0.8,1.7-1.6,2.5-2.4c0.5-0.5,1-1.1,1.5-1.7
		c1.1-1.4,2.2-2.8,3.2-4.4c0.3-0.5,0.6-1,0.9-1.5c0.4-0.7,0.7-1.5,1.1-2.2c1.6-3.2,2.9-6.1,3.9-8.6c0.5-1.3,1-2.4,1.3-3.5
		c0.2-0.4,0.3-0.8,0.4-1.3c0.4-1.2,0.7-2.3,1-3.2c0.4-1.4,0.6-2.5,0.8-3.3l0,0l0,0c-0.4,0.3-0.8,0.6-1.3,0.9
		c-3.5,2.1-9.4,3.9-14.2,4.8l9.4-1l-9.4,1c-0.1,0-0.1,0-0.2,0c-0.5,0.1-1,0.2-1.4,0.2c0.1,0,0.2-0.1,0.2-0.1l-32.2,3.5
		C142,169,141.9,169.1,141.9,169.2z"/>
	
		<linearGradient id="SVGID_17_" gradientUnits="userSpaceOnUse" x1="-8017.0386" y1="-1112.902" x2="-7673.2373" y2="-1112.902" gradientTransform="matrix(0.4226 -0.9063 0.9063 0.4226 4442.6831 -6372.6807)">
		<stop  offset="0.3233" style="stop-color:#9E2064"/>
		<stop  offset="0.6302" style="stop-color:#C92037"/>
		<stop  offset="0.7514" style="stop-color:#CD2335"/>
		<stop  offset="1" style="stop-color:#E97826"/>
	</linearGradient>
	<path fill="url(#SVGID_17_)" d="M178.1,104c-2.9,4.4-6,9.4-9.4,15.1c-0.2,0.3-0.4,0.6-0.5,0.9c-2.9,4.9-6,10.3-9.2,16.2
		c-2.8,5.1-5.7,10.5-8.8,16.4c-2.6,5.1-5.4,10.5-8.2,16.3l32.2-3.5c9.4-4.3,13.6-8.2,17.7-13.9c1.1-1.6,2.2-3.2,3.3-4.9
		c3.3-5.2,6.6-10.9,9.5-16.5c2.8-5.5,5.3-10.9,7.2-15.8c1.2-3.1,2.2-6,2.8-8.5c0.6-2.2,1-4.4,1.4-6.4
		C203.5,101.5,188.1,103.5,178.1,104z"/>
	<path fill="#BE202E" d="M157.3,215.1c-0.6,0.1-1.3,0.2-2,0.3l0,0C156,215.4,156.7,215.3,157.3,215.1z"/>
	<path opacity="0.35" fill="#BE202E" d="M157.3,215.1c-0.6,0.1-1.3,0.2-2,0.3l0,0C156,215.4,156.7,215.3,157.3,215.1z"/>
	
		<linearGradient id="SVGID_18_" gradientUnits="userSpaceOnUse" x1="-7995.7114" y1="-1100.5521" x2="-7651.9102" y2="-1100.5521" gradientTransform="matrix(0.4226 -0.9063 0.9063 0.4226 4442.6831 -6372.6807)">
		<stop  offset="0.3233" style="stop-color:#9E2064"/>
		<stop  offset="0.6302" style="stop-color:#C92037"/>
		<stop  offset="0.7514" style="stop-color:#CD2335"/>
		<stop  offset="1" style="stop-color:#E97826"/>
	</linearGradient>
	<path fill="url(#SVGID_18_)" d="M157.3,215.1c-0.6,0.1-1.3,0.2-2,0.3l0,0C156,215.4,156.7,215.3,157.3,215.1z"/>
	<path fill="#BE202E" d="M162.5,198.7c0.2,0,0.4-0.1,0.6-0.1C162.9,198.6,162.7,198.7,162.5,198.7L162.5,198.7z"/>
	<path opacity="0.35" fill="#BE202E" d="M162.5,198.7c0.2,0,0.4-0.1,0.6-0.1C162.9,198.6,162.7,198.7,162.5,198.7L162.5,198.7z"/>
	
		<linearGradient id="SVGID_19_" gradientUnits="userSpaceOnUse" x1="-7995.7114" y1="-1101.7631" x2="-7651.9102" y2="-1101.7631" gradientTransform="matrix(0.4226 -0.9063 0.9063 0.4226 4442.6831 -6372.6807)">
		<stop  offset="0.3233" style="stop-color:#9E2064"/>
		<stop  offset="0.6302" style="stop-color:#C92037"/>
		<stop  offset="0.7514" style="stop-color:#CD2335"/>
		<stop  offset="1" style="stop-color:#E97826"/>
	</linearGradient>
	<path fill="url(#SVGID_19_)" d="M162.5,198.7c0.2,0,0.4-0.1,0.6-0.1C162.9,198.6,162.7,198.7,162.5,198.7L162.5,198.7z"/>
	<polygon fill="#BE202E" points="162.5,198.7 162.5,198.7 162.5,198.7 162.5,198.7 162.5,198.7 	"/>
	<polygon opacity="0.35" fill="#BE202E" points="162.5,198.7 162.5,198.7 162.5,198.7 162.5,198.7 162.5,198.7 	"/>
	
		<linearGradient id="SVGID_20_" gradientUnits="userSpaceOnUse" x1="-7802.5688" y1="-1102.006" x2="-7726.5776" y2="-1102.006" gradientTransform="matrix(0.4226 -0.9063 0.9063 0.4226 4442.6831 -6372.6807)">
		<stop  offset="0.3233" style="stop-color:#9E2064"/>
		<stop  offset="0.6302" style="stop-color:#C92037"/>
		<stop  offset="0.7514" style="stop-color:#CD2335"/>
		<stop  offset="1" style="stop-color:#E97826"/>
	</linearGradient>
	<polygon fill="url(#SVGID_20_)" points="162.5,198.7 162.5,198.7 162.5,198.7 162.5,198.7 162.5,198.7 	"/>
</g>
<g>
	<g>
		<path fill="#B0AFB0" d="M870.1,161.4v8.3h-2.3v-8.3h-2.9v-2h8.2v2H870.1z"/>
		<path fill="#B0AFB0" d="M884,163.2l-2.8,5.6h-1.4l-2.8-5.6v6.5h-2.3v-10.3h3.1l2.7,5.7l2.7-5.7h3.1v10.3H884V163.2z"/>
	</g>
</g>
</svg>
