<svg xmlns="http://www.w3.org/2000/svg" xmlns:xlink="http://www.w3.org/1999/xlink" id="Layer_1" viewBox="0 0 287 400"><style>.st0{fill:none;stroke:#4788c7;stroke-width:1.5;stroke-miterlimit:10}.st1{fill:#dff0fe}.st2{fill:#4788c7}.st3{fill:#98ccfd}.st4{fill:#fff}.st5{fill:none;stroke:#13d389;stroke-width:1.5;stroke-linecap:round;stroke-miterlimit:10}.st6{fill:#cfffea}.st7{fill:#13d389}.st8{fill:none;stroke:#13d389;stroke-linecap:round;stroke-miterlimit:10}.st9{fill:#a1ffd9}.st10,.st11{fill:none;stroke:#13d389;stroke-width:.5;stroke-miterlimit:10}.st11{stroke:#af4ef4;stroke-width:1.5}.st12{fill:#af4ef4}.st13{fill:none;stroke:#ff4f12;stroke-width:1.5;stroke-miterlimit:10}.st14{fill:#ff4f12}.st15,.st16,.st17{fill:none;stroke-miterlimit:10}.st15{stroke-linecap:round;stroke:#ff4f12;stroke-width:.5}.st16,.st17{stroke:#ccac0d;stroke-width:1.5}.st17{stroke-width:.75}.st18{fill:#f7e69c}.st19{fill:#ccac0d}.st20{fill:#f6f6f6}.st21{fill:none;stroke:#a5a5a5;stroke-miterlimit:10}.st22{fill:#898989}.st23{clip-path:url(#SVGID_2_)}</style><path d="M146.5 281.3l.6-223.8" class="st0"/><circle cx="146.7" cy="30.6" r="26.9" class="st0"/><g id="surface1_1_"><path d="M152.4 18.3h2v24.5h-2V18.3z" class="st1"/><path d="M154 18.7v23.8h-1.3V18.7h1.3m.7-.7H152v25.1h2.6l.1-25.1z" class="st2"/><path d="M149 18.3h2v24.5h-2V18.3z" class="st1"/><path d="M150.7 18.7v23.8h-1.3V18.7h1.3m.7-.7h-2.6v25.1h2.6V18z" class="st2"/><path d="M145.7 18.3h2v24.5h-2V18.3z" class="st1"/><path d="M147.4 18.7v23.8h-1.3V18.7h1.3m.7-.7h-2.6v25.1h2.6V18z" class="st2"/><path d="M142.4 18.3h2v24.5h-2V18.3z" class="st1"/><path d="M144.1 18.7v23.8h-1.3V18.7h1.3m.6-.7h-2.6v25.1h2.6V18z" class="st2"/><path d="M139.1 18.3h2v24.5h-2V18.3z" class="st1"/><path d="M140.8 18.7v23.8h-1.3V18.7h1.3m.6-.7h-2.6v25.1h2.6V18z" class="st2"/><path d="M134.5 36.2H159v2h-24.5v-2z" class="st1"/><path d="M158.6 36.5v1.3h-23.8v-1.3h23.8m.7-.6h-25.1v2.6h25.1v-2.6z" class="st2"/><path d="M134.5 32.9H159v2h-24.5v-2z" class="st1"/><path d="M158.6 33.2v1.3h-23.8v-1.3h23.8m.7-.6h-25.1v2.6h25.1v-2.6z" class="st2"/><path d="M134.5 29.6H159v2h-24.5v-2z" class="st1"/><path d="M158.6 29.9v1.3h-23.8v-1.3h23.8m.7-.6h-25.1v2.6h25.1v-2.6z" class="st2"/><path d="M134.5 26.3H159v2h-24.5v-2z" class="st1"/><path d="M158.6 26.6v1.3h-23.8v-1.3h23.8m.7-.6h-25.1v2.6h25.1V26z" class="st2"/><path d="M134.5 23H159v2h-24.5v-2z" class="st1"/><path d="M158.6 23.3v1.3h-23.8v-1.3h23.8m.7-.6h-25.1v2.6h25.1v-2.6z" class="st2"/><path d="M138.1 40.2c-.5 0-1-.4-1-1V22c0-.5.4-1 1-1h17.2c.5 0 1 .4 1 1v17.2c0 .5-.4 1-1 1h-17.2z" class="st3"/><path d="M155.3 21.3c.4 0 .7.3.7.7v17.2c0 .4-.3.7-.7.7h-17.2c-.4 0-.7-.3-.7-.7V22c0-.4.3-.7.7-.7h17.2m0-.6h-17.2c-.7 0-1.3.6-1.3 1.3v17.2c0 .7.6 1.3 1.3 1.3h17.2c.7 0 1.3-.6 1.3-1.3V22c.1-.7-.5-1.3-1.3-1.3z" class="st2"/><path d="M141.4 24.3c0 .5-.4 1-1 1-.5 0-1-.4-1-1s.4-1 1-1 1 .5 1 1zM154 24.3c0 .5-.4 1-1 1s-1-.4-1-1 .4-1 1-1 1 .5 1 1zM154 36.9c0 .5-.4 1-1 1s-1-.4-1-1 .4-1 1-1 1 .4 1 1zM141.4 36.9c0 .5-.4 1-1 1-.5 0-1-.4-1-1s.4-1 1-1 1 .4 1 1z" class="st4"/></g><path d="M109.7 285.1v-82.4" class="st5"/><circle cx="64.9" cy="202.7" r="26.9" class="st5"/><path d="M57 208.1l-2.3-13.4 21.6 2.9-2.6 9.6c-.1.5-.6.8-1.1.8l-15.6.1z" class="st6"/><path d="M55.2 195.2l20.6 2.8-2.5 9.2c-.1.3-.4.6-.7.6H57.4l-2.2-12.6m-1-.9l2.5 14.2h15.9c.7 0 1.3-.5 1.5-1.1l2.7-10-22.6-3.1z" class="st7"/><path d="M49.5 190h1.6c1.6 0 2.9 1.1 3.2 2.7l3.4 19.6c.3 1.6 1.6 2.7 3.2 2.7h13.2" class="st8"/><path d="M50.7 191.1c0 .6-.5 1.1-1.1 1.1s-1.1-.5-1.1-1.1.5-1.1 1.1-1.1c.5 0 1.1.5 1.1 1.1z" class="st9"/><path d="M49.5 190.4c.4 0 .8.3.8.8 0 .4-.3.8-.8.8s-.8-.3-.8-.8c.1-.5.4-.8.8-.8m0-.8c-.8 0-1.5.7-1.5 1.5s.7 1.5 1.5 1.5 1.5-.7 1.5-1.5-.6-1.5-1.5-1.5z" class="st7"/><path d="M72.6 216.4c0 .8-.7 1.5-1.5 1.5s-1.5-.7-1.5-1.5.7-1.5 1.5-1.5 1.5.7 1.5 1.5z" class="st9"/><path d="M71.1 215.3c.6 0 1.1.5 1.1 1.1s-.5 1.1-1.1 1.1-1.1-.5-1.1-1.1c-.1-.6.5-1.1 1.1-1.1m0-.7c-1 0-1.9.8-1.9 1.9 0 1 .8 1.9 1.9 1.9s1.9-.8 1.9-1.9c0-1.1-.9-1.9-1.9-1.9z" class="st7"/><path d="M62.8 216.4c0 .8-.7 1.5-1.5 1.5s-1.5-.7-1.5-1.5.7-1.5 1.5-1.5 1.5.7 1.5 1.5z" class="st9"/><path d="M61.2 215.3c.6 0 1.1.5 1.1 1.1s-.5 1.1-1.1 1.1-1.1-.5-1.1-1.1.5-1.1 1.1-1.1m0-.7c-1 0-1.9.8-1.9 1.9 0 1 .8 1.9 1.9 1.9 1 0 1.9-.8 1.9-1.9 0-1.1-.8-1.9-1.9-1.9z" class="st7"/><path d="M65.4 205.7V199M62 202.3h6.7" class="st10"/><path d="M109.8 202.7h-18" class="st5"/><g><path d="M126.2 282.6V112.7" class="st11"/><circle cx="46.3" cy="112.7" r="26.9" class="st11"/><g id="surface1_2_"><path d="M38.9 120.1h12.8v-2H38.9v-3.4l-4.7 4.4 4.7 4.4v-3.4zM56.4 120.1v-2h2v2h-2zM53 120.1v-2h2v2h-2zM53.7 105.3H40.9v2h12.8v3.4l4.7-4.4-4.7-4.4v3.4zM36.2 105.3v2h-2v-2h2zM39.5 105.3v2h-2v-2h2z" class="st12"/></g><path d="M126.4 112.7H73.2" class="st11"/></g><g><path d="M166.7 282.6V80.1" class="st13"/><circle cx="237.7" cy="81" r="26.9" class="st13"/><path d="M237.7 71.7c6.6 0 11.9 5.4 11.9 11.9 0 2.4-.7 4.8-2.1 6.8h-19.6c-1.4-2-2.1-4.3-2.1-6.8 0-6.6 5.4-11.9 11.9-11.9m0-.7c-6.9 0-12.6 5.6-12.6 12.6 0 2.8.9 5.3 2.4 7.4h20.3c1.5-2.1 2.4-4.6 2.4-7.4.1-6.9-5.5-12.6-12.5-12.6z" class="st14"/><path d="M240 88.4h-4.5c-.4 0-.6-.3-.6-.6s.3-.6.6-.6h4.5c.4 0 .6.3.6.6s-.3.6-.6.6zM238.7 83.6c0 .5-.4 1-1 1s-1-.4-1-1c0-.5.4-1 1-1s1 .5 1 1z" class="st14"/><path d="M237.4 83.9l6.8-6.8" class="st15"/><path d="M237.7 73.6c-.2 0-.3-.1-.3-.3v-1.9c0-.2.1-.3.3-.3s.3.1.3.3v1.9c0 .2-.1.3-.3.3zM225.5 83.3h1.9c.2 0 .3.1.3.3 0 .2-.1.3-.3.3h-1.9c-.2 0-.3-.1-.3-.3s.1-.3.3-.3zM250 83.9h-2c-.2 0-.3-.1-.3-.3 0-.2.1-.3.3-.3h1.9c.2 0 .3.1.3.3.1.2 0 .3-.2.3zM232.7 74.9c-.2.1-.4 0-.4-.1l-1-1.7c-.1-.2 0-.4.1-.4.2-.1.4 0 .4.1l1 1.7c.1.2.1.4-.1.4zM227 89.4l1.7-1c.2-.1.4 0 .4.1s0 .4-.1.4l-1.7 1c-.2.1-.4 0-.4-.1-.1-.1-.1-.3.1-.4zM248.5 77.8l-1.7 1c-.2.1-.4 0-.4-.1s0-.4.1-.4l1.7-1c.2-.1.4 0 .4.1.1.1.1.3-.1.4zM242.7 74.9c.2.1.4 0 .4-.1l1-1.7c.1-.2 0-.4-.1-.4s-.4 0-.4.1l-1 1.7c-.1.2 0 .4.1.4zM248.5 89.4l-1.7-1c-.2-.1-.4 0-.4.1s0 .4.1.4l1.7 1c.2.1.4 0 .4-.1.1-.1.1-.3-.1-.4zM227 77.8l1.7 1c.2.1.4 0 .4-.1s0-.4-.1-.4l-1.7-1c-.2-.1-.4 0-.4.1-.1.1-.1.3.1.4z" class="st14"/><path d="M210.2 81.3H167" class="st13"/></g><g><path d="M184.5 287.8V166.7" class="st16"/><circle cx="229.7" cy="167.2" r="26.9" class="st16"/><path d="M242.5 154l-4.8 5.6-5.6-3.2-4.8 5.6-5.6-3.2-4.8 4" class="st17"/><path d="M218.2 162.8c0 .7-.5 1.2-1.2 1.2s-1.2-.5-1.2-1.2.5-1.2 1.2-1.2c.6 0 1.2.5 1.2 1.2z" class="st18"/><path d="M217 162c.4 0 .8.4.8.8s-.4.8-.8.8-.8-.4-.8-.8.3-.8.8-.8m0-.8c-.9 0-1.6.7-1.6 1.6 0 .9.7 1.6 1.6 1.6s1.6-.7 1.6-1.6-.8-1.6-1.6-1.6z" class="st19"/><path d="M222.9 158.8c0 .7-.5 1.2-1.2 1.2s-1.2-.5-1.2-1.2.5-1.2 1.2-1.2 1.2.5 1.2 1.2z" class="st18"/><path d="M221.8 158c.4 0 .8.4.8.8s-.4.8-.8.8-.8-.4-.8-.8.3-.8.8-.8m0-.8c-.9 0-1.6.7-1.6 1.6 0 .9.7 1.6 1.6 1.6s1.6-.7 1.6-1.6c-.1-.9-.8-1.6-1.6-1.6z" class="st19"/><path d="M228.5 162c0 .7-.5 1.2-1.2 1.2s-1.2-.5-1.2-1.2.5-1.2 1.2-1.2 1.2.5 1.2 1.2z" class="st18"/><path d="M227.3 161.2c.4 0 .8.4.8.8s-.4.8-.8.8-.8-.4-.8-.8.4-.8.8-.8m0-.8c-.9 0-1.6.7-1.6 1.6 0 .9.7 1.6 1.6 1.6s1.6-.7 1.6-1.6c0-.9-.7-1.6-1.6-1.6z" class="st19"/><path d="M233.3 156.4c0 .7-.5 1.2-1.2 1.2s-1.2-.5-1.2-1.2.5-1.2 1.2-1.2 1.2.6 1.2 1.2z" class="st18"/><path d="M232.1 155.6c.4 0 .8.4.8.8s-.4.8-.8.8-.8-.4-.8-.8.4-.8.8-.8m0-.8c-.9 0-1.6.7-1.6 1.6 0 .9.7 1.6 1.6 1.6s1.6-.7 1.6-1.6-.7-1.6-1.6-1.6z" class="st19"/><path d="M238.9 159.6c0 .7-.5 1.2-1.2 1.2s-1.2-.5-1.2-1.2.5-1.2 1.2-1.2 1.2.5 1.2 1.2z" class="st18"/><path d="M237.7 158.8c.4 0 .8.4.8.8s-.4.8-.8.8-.8-.4-.8-.8.4-.8.8-.8m0-.8c-.9 0-1.6.7-1.6 1.6 0 .9.7 1.6 1.6 1.6s1.6-.7 1.6-1.6-.7-1.6-1.6-1.6z" class="st19"/><path d="M243.7 154c0 .7-.5 1.2-1.2 1.2s-1.2-.5-1.2-1.2.5-1.2 1.2-1.2 1.2.6 1.2 1.2z" class="st18"/><path d="M242.5 153.2c.4 0 .8.4.8.8s-.4.8-.8.8-.8-.4-.8-.8.4-.8.8-.8m0-.8c-.9 0-1.6.7-1.6 1.6s.7 1.6 1.6 1.6 1.6-.7 1.6-1.6-.7-1.6-1.6-1.6z" class="st19"/><path d="M240.5 163.2h3.2v18.4h-3.2v-18.4z" class="st18"/><path d="M243.3 163.6v17.6h-2.4v-17.6h2.4m.8-.8h-4V182h4v-19.2z" class="st19"/><path d="M230.9 167.2h3.2v14.4h-3.2v-14.4z" class="st18"/><path d="M233.7 167.6v13.6h-2.4v-13.6h2.4m.8-.8h-4V182h4v-15.2z" class="st19"/><path d="M226.1 172.8h3.2v8.8h-3.2v-8.8z" class="st18"/><path d="M228.9 173.2v8h-2.4v-8h2.4m.8-.8h-4v9.6h4v-9.6z" class="st19"/><path d="M221.4 170.4h3.2v11.2h-3.2v-11.2z" class="st18"/><path d="M224.1 170.8v10.4h-2.4v-10.4h2.4m.8-.8h-4v12h4v-12z" class="st19"/><path d="M216.6 174.4h3.2v7.2h-3.2v-7.2z" class="st18"/><path d="M219.4 174.8v6.4H217v-6.4h2.4m.8-.8h-4v8h4v-8z" class="st19"/><path d="M235.7 169.6h3.2v12h-3.2v-12z" class="st18"/><path d="M238.5 170v11.2h-2.4V170h2.4m.8-.8h-4V182h4v-12.8z" class="st19"/><path d="M202.3 167.7h-17.9" class="st16"/></g><g id="surface1"><path d="M145 394.8c-24.5 0-45.1-8.5-45.1-18.6V297H190v79.2c0 10-20.6 18.6-45 18.6z" class="st20"/><path d="M190 322.3c0 9.1-20.1 16.5-45.1 16.5s-45.1-7.3-45.1-16.5M190 350.2c0 9.1-20.1 16.5-45.1 16.5s-45.1-7.4-45.1-16.5" class="st21"/><path d="M188.5 298.4v77.7c0 8.1-17.9 17.1-43.5 17.1s-43.5-9-43.5-17.1v-77.7h87m3.2-3H98.4v80.8c0 11.2 20.9 20.1 46.6 20.1s46.6-9 46.6-20.1c.1-4.1.1-76.9.1-80.8z" class="st22"/><path d="M145 310.9c-27 0-45.1-8-45.1-15.6 0-7.5 18.1-15.6 45.1-15.6s45.1 8 45.1 15.6c-.1 7.5-18.2 15.6-45.1 15.6z" class="st20"/><path d="M145 281.3c27 0 43.5 8.1 43.5 13.9s-16.6 13.9-43.5 13.9-43.5-8.1-43.5-13.9c-.1-5.7 16.5-13.9 43.5-13.9m0-3.1c-25.7 0-46.6 7.6-46.6 17.1s20.9 17.1 46.6 17.1 46.6-7.6 46.6-17.1c.1-9.5-20.8-17.1-46.6-17.1z" class="st22"/></g><g><path d="M183.4 374.7h15.8v15.8h-15.8z" class="st4"/><defs><path id="SVGID_1_" d="M184.3 379.2v4.1l5-3.3v8.6l2 1.1 2-1.1V380l5 3.3v-4.1l-7.1-4.4-6.9 4.4zm7.1-9.1l10.8 6.2v12.5l-10.8 6.2-10.8-6.1v-12.5l10.8-6.3z"/></defs><clipPath id="SVGID_2_"><use overflow="visible" xlink:href="#SVGID_1_"/></clipPath><g class="st23"><path d="M179.9 369.5h22.9v26.3h-22.9z" class="st7"/></g></g></svg>