<svg xmlns="http://www.w3.org/2000/svg" width="500" height="136" viewBox="0 0 0 0 500 0 136"><path d="M202.594 66.486h7.735l-3.822-61.334h-10.101l-10.92 29.666c-2.73 7.735-4.914 14.469-6.461 20.657h-.273c-1.547-6.37-3.64-13.104-6.188-20.657L162.099 5.152h-10.101l-4.277 61.334h7.553l1.638-26.299c.546-9.191 1.001-19.474 1.183-27.118h.182c1.729 7.28 4.186 15.197 7.098 23.842l9.919 29.211h6.006l10.829-29.757c3.094-8.463 5.642-16.107 7.735-23.296h.273c-.091 7.644.455 17.927.91 26.481zM231.35 66.486V22.442h-8.008v44.044zm-4.004-61.425c-2.912 0-5.005 2.184-5.005 5.005 0 2.73 2.002 4.914 4.823 4.914 3.185 0 5.187-2.184 5.096-4.914 0-2.821-1.911-5.005-4.914-5.005zM274.666 58.842c-2.275 1.001-5.278 2.184-9.828 2.184-8.736 0-15.288-6.279-15.288-16.471 0-9.191 5.46-16.653 15.561-16.653 4.368 0 7.371 1.001 9.282 2.093l1.82-6.188c-2.184-1.092-6.37-2.275-11.102-2.275-14.378 0-23.66 9.828-23.66 23.387 0 13.468 8.645 22.477 21.931 22.477 5.915 0 10.556-1.456 12.649-2.548zM285.404 66.486h7.917V43.008c0-1.365.182-2.639.364-3.731 1.092-6.006 5.096-10.283 10.738-10.283 1.092 0 1.911.091 2.73.273v-7.553a8.662 8.662 0 0 0-2.275-.273c-5.369 0-10.192 3.731-12.194 9.646h-.364l-.273-8.645h-7.007c.273 4.095.364 8.554.364 13.741zM332.906 21.441c-12.194 0-21.84 8.645-21.84 23.387 0 13.923 9.191 22.659 21.112 22.659 10.647 0 21.931-7.098 21.931-23.387 0-13.468-8.554-22.659-21.203-22.659zm-.182 6.006c9.464 0 13.195 9.464 13.195 16.926 0 9.919-5.733 17.108-13.377 17.108-7.826 0-13.377-7.28-13.377-16.926 0-8.372 4.095-17.108 13.559-17.108zM361.116 64.393c3.094 1.82 7.553 3.003 12.376 3.003 10.465 0 16.471-5.46 16.471-13.195 0-6.552-3.913-10.374-11.557-13.286-5.733-2.184-8.372-3.822-8.372-7.462 0-3.276 2.639-6.006 7.371-6.006 4.095 0 7.28 1.456 9.009 2.548l2.002-5.824c-2.457-1.456-6.37-2.73-10.829-2.73-9.464 0-15.197 5.824-15.197 12.922 0 5.278 3.731 9.646 11.648 12.467 5.915 2.184 8.19 4.277 8.19 8.099 0 3.64-2.73 6.552-8.554 6.552-4.004 0-8.19-1.638-10.556-3.185zM418.901 21.441c-12.194 0-21.84 8.645-21.84 23.387 0 13.923 9.191 22.659 21.112 22.659 10.647 0 21.931-7.098 21.931-23.387 0-13.468-8.554-22.659-21.203-22.659zm-.182 6.006c9.464 0 13.195 9.464 13.195 16.926 0 9.919-5.733 17.108-13.377 17.108-7.826 0-13.377-7.28-13.377-16.926 0-8.372 4.095-17.108 13.559-17.108zM458.941 66.486V28.539h10.647v-6.097h-10.647v-2.366c0-6.734 1.729-12.74 8.554-12.74 2.275 0 3.913.455 5.096 1.001l1.092-6.188c-1.547-.637-4.004-1.274-6.825-1.274-3.731 0-7.735 1.183-10.738 4.095-3.731 3.549-5.096 9.191-5.096 15.379v2.093h-6.188v6.097h6.188v37.947zM479.598 11.886v10.556h-6.825v6.097h6.825v24.024c0 5.187.819 9.1 3.094 11.466 1.911 2.184 4.914 3.367 8.645 3.367 3.094 0 5.551-.455 7.098-1.092l-.364-6.006c-1.001.273-2.548.546-4.641.546-4.459 0-6.006-3.094-6.006-8.554V28.539h11.466v-6.097h-11.466V9.793z"/><g><path d="M147.721 72.881v61.334h7.917V72.881zM169.47 72.881v61.334h7.917V72.881zM188.125 131.212c3.276 2.184 9.737 3.913 15.652 3.913 14.469 0 21.476-8.19 21.476-17.654 0-9.009-5.278-14.014-15.652-18.018-8.463-3.276-12.194-6.097-12.194-11.83 0-4.186 3.185-9.191 11.557-9.191 5.551 0 9.646 1.82 11.648 2.912l2.184-6.461c-2.73-1.547-7.28-3.003-13.559-3.003-11.921 0-19.838 7.098-19.838 16.653 0 8.645 6.188 13.832 16.198 17.381 8.281 3.185 11.557 6.461 11.557 12.194 0 6.188-4.732 10.465-12.831 10.465-5.46 0-10.647-1.82-14.196-4.004z"/></g><g><path d="M1.11 5.153h61.3v61.3H1.11z" fill="#F25022"/><path d="M68.81 5.153h61.3v61.3h-61.3z" fill="#7FBA00"/><path d="M1.11 72.853h61.3v61.3H1.11z" fill="#00A4EF"/><path d="M68.81 72.853h61.3v61.3h-61.3z" fill="#FFB900"/></g></svg>